<?xml version="1.0" encoding="UTF-8" standalone="no"?>
<!-- Created with Inkscape (http://www.inkscape.org/) -->

<svg
   width="42.375mm"
   height="7.329mm"
   viewBox="0 0 42.375 7.3290001"
   version="1.1"
   id="svg1"
   inkscape:version="1.4 (e7c3feb100, 2024-10-09)"
   sodipodi:docname="5_1_1_3_15.svg"
   xmlns:inkscape="http://www.inkscape.org/namespaces/inkscape"
   xmlns:sodipodi="http://sodipodi.sourceforge.net/DTD/sodipodi-0.dtd"
   xmlns="http://www.w3.org/2000/svg"
   xmlns:svg="http://www.w3.org/2000/svg">
  <sodipodi:namedview
     id="namedview1"
     pagecolor="#ffffff"
     bordercolor="#000000"
     borderopacity="0.25"
     inkscape:showpageshadow="2"
     inkscape:pageopacity="0.0"
     inkscape:pagecheckerboard="0"
     inkscape:deskcolor="#d1d1d1"
     inkscape:document-units="mm"
     inkscape:zoom="4.8642288"
     inkscape:cx="125.09691"
     inkscape:cy="24.875475"
     inkscape:window-width="1920"
     inkscape:window-height="1014"
     inkscape:window-x="0"
     inkscape:window-y="0"
     inkscape:window-maximized="1"
     inkscape:current-layer="layer1" />
  <defs
     id="defs1">
    <rect
       x="27.795305"
       y="0"
       width="173.57281"
       height="63.574368"
       id="rect1" />
    <marker
       style="overflow:visible"
       id="TriangleOutM-7"
       refX="0"
       refY="0"
       orient="auto"
       inkscape:stockid="TriangleOutM"
       inkscape:isstock="true"
       viewBox="0 0 4.2595265 4.9243081"
       markerWidth="4.2595263"
       markerHeight="4.9243083"
       preserveAspectRatio="xMidYMid">
      <path
         transform="scale(0.4)"
         style="fill:context-stroke;fill-rule:evenodd;stroke:context-stroke;stroke-width:1pt"
         d="M 5.77,0 -2.88,5 V -5 Z"
         id="path8178-6" />
    </marker>
    <marker
       style="overflow:visible"
       id="marker1"
       refX="0"
       refY="0"
       orient="auto"
       inkscape:stockid="TriangleOutM"
       inkscape:isstock="true"
       viewBox="0 0 4.2595265 4.9243081"
       markerWidth="4.2595263"
       markerHeight="4.9243083"
       preserveAspectRatio="xMidYMid">
      <path
         transform="scale(0.4)"
         style="fill:context-stroke;fill-rule:evenodd;stroke:context-stroke;stroke-width:1pt"
         d="M 5.77,0 -2.88,5 V -5 Z"
         id="path1" />
    </marker>
    <marker
       style="overflow:visible"
       id="marker2"
       refX="0"
       refY="0"
       orient="auto"
       inkscape:stockid="TriangleOutM"
       inkscape:isstock="true"
       viewBox="0 0 4.2595265 4.9243081"
       markerWidth="4.2595263"
       markerHeight="4.9243083"
       preserveAspectRatio="xMidYMid">
      <path
         transform="scale(0.4)"
         style="fill:context-stroke;fill-rule:evenodd;stroke:context-stroke;stroke-width:1pt"
         d="M 5.77,0 -2.88,5 V -5 Z"
         id="path2" />
    </marker>
    <marker
       style="overflow:visible"
       id="marker3"
       refX="0"
       refY="0"
       orient="auto"
       inkscape:stockid="TriangleOutM"
       inkscape:isstock="true"
       viewBox="0 0 4.2595265 4.9243081"
       markerWidth="4.2595263"
       markerHeight="4.9243083"
       preserveAspectRatio="xMidYMid">
      <path
         transform="scale(0.4)"
         style="fill:context-stroke;fill-rule:evenodd;stroke:context-stroke;stroke-width:1pt"
         d="M 5.77,0 -2.88,5 V -5 Z"
         id="path3" />
    </marker>
    <marker
       style="overflow:visible"
       id="marker4"
       refX="0"
       refY="0"
       orient="auto"
       inkscape:stockid="TriangleOutM"
       inkscape:isstock="true"
       viewBox="0 0 4.2595265 4.9243081"
       markerWidth="4.2595263"
       markerHeight="4.9243083"
       preserveAspectRatio="xMidYMid">
      <path
         transform="scale(0.4)"
         style="fill:context-stroke;fill-rule:evenodd;stroke:context-stroke;stroke-width:1pt"
         d="M 5.77,0 -2.88,5 V -5 Z"
         id="path4" />
    </marker>
    <marker
       style="overflow:visible"
       id="marker5"
       refX="0"
       refY="0"
       orient="auto"
       inkscape:stockid="TriangleOutM"
       inkscape:isstock="true"
       viewBox="0 0 4.2595265 4.9243081"
       markerWidth="4.2595263"
       markerHeight="4.9243083"
       preserveAspectRatio="xMidYMid">
      <path
         transform="scale(0.4)"
         style="fill:context-stroke;fill-rule:evenodd;stroke:context-stroke;stroke-width:1pt"
         d="M 5.77,0 -2.88,5 V -5 Z"
         id="path5" />
    </marker>
    <marker
       style="overflow:visible"
       id="marker6"
       refX="0"
       refY="0"
       orient="auto"
       inkscape:stockid="TriangleOutM"
       inkscape:isstock="true"
       viewBox="0 0 4.2595265 4.9243081"
       markerWidth="4.2595263"
       markerHeight="4.9243083"
       preserveAspectRatio="xMidYMid">
      <path
         transform="scale(0.4)"
         style="fill:context-stroke;fill-rule:evenodd;stroke:context-stroke;stroke-width:1pt"
         d="M 5.77,0 -2.88,5 V -5 Z"
         id="path6" />
    </marker>
    <rect
       x="27.795305"
       y="0"
       width="173.57281"
       height="63.574368"
       id="rect2" />
    <rect
       x="27.795305"
       y="0"
       width="173.57281"
       height="63.574368"
       id="rect3" />
    <rect
       x="27.795305"
       y="0"
       width="173.57281"
       height="63.574368"
       id="rect4" />
    <rect
       x="27.795305"
       y="0"
       width="173.57281"
       height="63.574368"
       id="rect5" />
    <rect
       x="27.795305"
       y="0"
       width="173.57281"
       height="63.574368"
       id="rect6" />
    <rect
       x="27.795305"
       y="0"
       width="173.57281"
       height="63.574368"
       id="rect7" />
  </defs>
  <g
     inkscape:label="Katman 1"
     inkscape:groupmode="layer"
     id="layer1">
    <g
       id="g33">
      <path
         style="fill:#217821;stroke-width:0.258123"
         d="m 39.742035,3.7484099 c 0,-1.2045777 0.107603,-2.0649877 0.258106,-2.0649877 0.150603,0 0.258106,0.86041 0.258106,2.0649877 0,1.2045776 -0.107503,2.0649866 -0.258106,2.0649866 -0.150503,0 -0.258106,-0.860409 -0.258106,-2.0649866 z"
         id="path34"
         sodipodi:nodetypes="sssss" />
      <path
         style="fill:#217821;stroke-width:0.258123"
         d="m 40.800417,3.7484099 c 0,-1.2045777 0.107603,-2.0649877 0.258106,-2.0649877 0.150603,0 0.258106,0.86041 0.258106,2.0649877 0,1.2045776 -0.107503,2.0649866 -0.258106,2.0649866 -0.150503,0 -0.258106,-0.860409 -0.258106,-2.0649866 z"
         id="path35"
         sodipodi:nodetypes="sssss" />
      <path
         style="fill:#217821;stroke-width:0.258123"
         d="m 41.858799,3.7484099 c 0,-1.2045777 0.107603,-2.0649877 0.258106,-2.0649877 0.150603,0 0.258106,0.86041 0.258106,2.0649877 0,1.2045776 -0.107503,2.0649866 -0.258106,2.0649866 -0.150503,0 -0.258106,-0.860409 -0.258106,-2.0649866 z"
         id="path36"
         sodipodi:nodetypes="sssss" />
      <path
         style="fill:#217821;stroke-width:0.258123"
         d="m 36.567036,3.7484099 c 0,-1.2045777 0.107603,-2.0649877 0.258106,-2.0649877 0.150603,0 0.258106,0.86041 0.258106,2.0649877 0,1.2045776 -0.107503,2.0649866 -0.258106,2.0649866 -0.150503,0 -0.258106,-0.860409 -0.258106,-2.0649866 z"
         id="path7"
         sodipodi:nodetypes="sssss" />
      <path
         style="fill:#217821;stroke-width:0.258123"
         d="m 37.625418,3.7484099 c 0,-1.2045777 0.107603,-2.0649877 0.258106,-2.0649877 0.150603,0 0.258106,0.86041 0.258106,2.0649877 0,1.2045776 -0.107503,2.0649866 -0.258106,2.0649866 -0.150503,0 -0.258106,-0.860409 -0.258106,-2.0649866 z"
         id="path8"
         sodipodi:nodetypes="sssss" />
      <path
         style="fill:#217821;stroke-width:0.258123"
         d="m 38.6838,3.7484099 c 0,-1.2045777 0.107603,-2.0649877 0.258106,-2.0649877 0.150603,0 0.258106,0.86041 0.258106,2.0649877 0,1.2045776 -0.107503,2.0649866 -0.258106,2.0649866 -0.150503,0 -0.258106,-0.860409 -0.258106,-2.0649866 z"
         id="path9"
         sodipodi:nodetypes="sssss" />
      <path
         style="fill:#217821;stroke-width:0.258123"
         d="m 33.392037,3.7484099 c 0,-1.2045777 0.107603,-2.0649877 0.258106,-2.0649877 0.150603,0 0.258106,0.86041 0.258106,2.0649877 0,1.2045776 -0.107503,2.0649866 -0.258106,2.0649866 -0.150503,0 -0.258106,-0.860409 -0.258106,-2.0649866 z"
         id="path10"
         sodipodi:nodetypes="sssss" />
      <path
         style="fill:#217821;stroke-width:0.258123"
         d="m 34.450419,3.7484099 c 0,-1.2045777 0.107603,-2.0649877 0.258106,-2.0649877 0.150603,0 0.258106,0.86041 0.258106,2.0649877 0,1.2045776 -0.107503,2.0649866 -0.258106,2.0649866 -0.150503,0 -0.258106,-0.860409 -0.258106,-2.0649866 z"
         id="path11"
         sodipodi:nodetypes="sssss" />
      <path
         style="fill:#217821;stroke-width:0.258123"
         d="m 35.508801,3.7484099 c 0,-1.2045777 0.107603,-2.0649877 0.258106,-2.0649877 0.150603,0 0.258106,0.86041 0.258106,2.0649877 0,1.2045776 -0.107503,2.0649866 -0.258106,2.0649866 -0.150503,0 -0.258106,-0.860409 -0.258106,-2.0649866 z"
         id="path12"
         sodipodi:nodetypes="sssss" />
      <path
         style="fill:#217821;stroke-width:0.258123"
         d="m 30.217038,3.7484099 c 0,-1.2045777 0.107603,-2.0649877 0.258106,-2.0649877 0.150603,0 0.258106,0.86041 0.258106,2.0649877 0,1.2045776 -0.107503,2.0649866 -0.258106,2.0649866 -0.150503,0 -0.258106,-0.860409 -0.258106,-2.0649866 z"
         id="path17"
         sodipodi:nodetypes="sssss" />
      <path
         style="fill:#217821;stroke-width:0.258123"
         d="m 31.27542,3.7484099 c 0,-1.2045777 0.107603,-2.0649877 0.258106,-2.0649877 0.150603,0 0.258106,0.86041 0.258106,2.0649877 0,1.2045776 -0.107503,2.0649866 -0.258106,2.0649866 -0.150503,0 -0.258106,-0.860409 -0.258106,-2.0649866 z"
         id="path18"
         sodipodi:nodetypes="sssss" />
      <path
         style="fill:#217821;stroke-width:0.258123"
         d="m 32.333802,3.7484099 c 0,-1.2045777 0.107603,-2.0649877 0.258106,-2.0649877 0.150603,0 0.258106,0.86041 0.258106,2.0649877 0,1.2045776 -0.107503,2.0649866 -0.258106,2.0649866 -0.150503,0 -0.258106,-0.860409 -0.258106,-2.0649866 z"
         id="path19"
         sodipodi:nodetypes="sssss" />
      <path
         style="fill:#006680;stroke-width:0.258111"
         d="m 26.303527,4.1599151 c 0,-1.414159 0.522995,-2.104893 1.593571,-2.104893 0.974878,0 1.503866,0.756153 1.503866,2.149742 0,1.5646439 -0.464089,1.5696539 -0.566687,0.006 -0.148197,-2.260639 -1.815859,-2.260639 -1.964056,0 -0.104197,1.5883639 -0.566694,1.5467649 -0.566694,-0.0509 z"
         id="path20"
         sodipodi:nodetypes="csssscc" />
      <path
         style="fill:#006680;stroke-width:0.258111"
         d="m 22.599361,4.1599151 c 0,-1.414159 0.522995,-2.104893 1.593571,-2.104893 0.974878,0 1.503866,0.756153 1.503866,2.149742 0,1.5646439 -0.464089,1.5696539 -0.566687,0.006 -0.148197,-2.260639 -1.815859,-2.260639 -1.964056,0 -0.104197,1.5883639 -0.566694,1.5467649 -0.566694,-0.0509 z"
         id="path21"
         sodipodi:nodetypes="csssscc" />
      <path
         style="fill:#006680;stroke-width:0.258111"
         d="m 18.895192,4.1599151 c 0,-1.414159 0.522995,-2.104893 1.593571,-2.104893 0.974878,0 1.503866,0.756153 1.503866,2.149742 0,1.5646439 -0.464089,1.5696539 -0.566687,0.006 -0.148197,-2.260639 -1.815859,-2.260639 -1.964056,0 -0.104197,1.5883639 -0.566694,1.5467649 -0.566694,-0.0509 z"
         id="path22"
         sodipodi:nodetypes="csssscc" />
      <path
         style="fill:#006680;stroke-width:0.258111"
         d="m 15.191023,4.1599151 c 0,-1.414159 0.522995,-2.104893 1.593571,-2.104893 0.974878,0 1.503866,0.756153 1.503866,2.149742 0,1.5646439 -0.464089,1.5696539 -0.566687,0.006 -0.148197,-2.260639 -1.815859,-2.260639 -1.964056,0 -0.104197,1.5883639 -0.566694,1.5467649 -0.566694,-0.0509 z"
         id="path23"
         sodipodi:nodetypes="csssscc" />
      <path
         style="fill:#442178;stroke-width:0.258111"
         d="M 13.396476,5.773118 C 13.227779,5.453705 12.75909,4.78841 12.354899,4.294692 11.511418,3.2640851 11.41052,2.2358081 12.092205,1.6187921 c 1.004277,-0.90879003 2.21665,-0.296843 2.063253,1.041376 -0.066,0.579527 -0.212895,0.725414 -0.728483,0.725414 -0.493589,0 -0.665185,-0.151677 -0.730084,-0.645285 -0.083,-0.628436 -0.075,-0.631796 0.305193,-0.129047 0.45509,0.602206 1.065776,0.237894 0.792883,-0.47306 -0.290794,-0.757863 -1.658563,-0.353892 -1.658563,0.489849 0,0.165376 0.46439,0.984238 1.031877,1.8196789 0.567487,0.835441 1.032076,1.6060937 1.032376,1.7125617 0,0.4125501 -0.512388,0.1652361 -0.804181,-0.3871617 z"
         id="path24"
         sodipodi:nodetypes="ssssssssssss" />
      <path
         style="fill:#442178;stroke-width:0.258111"
         d="M 10.221474,5.773118 C 10.052777,5.453705 9.5840881,4.78841 9.1798971,4.294692 8.3364161,3.2640851 8.2355181,2.2358081 8.9172031,1.6187921 c 1.004277,-0.90879003 2.2166499,-0.296843 2.0632529,1.041376 -0.066,0.579527 -0.212895,0.725414 -0.728483,0.725414 -0.4935889,0 -0.6651849,-0.151677 -0.7300839,-0.645285 -0.083,-0.628436 -0.075,-0.631796 0.305193,-0.129047 0.4550899,0.602206 1.0657759,0.237894 0.7928829,-0.47306 -0.290794,-0.757863 -1.6585629,-0.353892 -1.6585629,0.489849 0,0.165376 0.46439,0.984238 1.031877,1.8196789 0.5674869,0.835441 1.0320759,1.6060937 1.0323759,1.7125617 0,0.4125501 -0.512388,0.1652361 -0.804181,-0.3871617 z"
         id="path25"
         sodipodi:nodetypes="ssssssssssss" />
      <path
         style="fill:#442178;stroke-width:0.258111"
         d="M 7.0464721,5.773118 C 6.8777751,5.453705 6.4090861,4.78841 6.0048951,4.294692 5.1614141,3.2640851 5.0605161,2.2358081 5.7422011,1.6187921 c 1.004277,-0.90879003 2.21665,-0.296843 2.063253,1.041376 -0.066,0.579527 -0.212895,0.725414 -0.728483,0.725414 -0.493589,0 -0.665185,-0.151677 -0.730084,-0.645285 -0.083,-0.628436 -0.075,-0.631796 0.305193,-0.129047 0.45509,0.602206 1.065776,0.237894 0.792883,-0.47306 -0.290794,-0.757863 -1.658563,-0.353892 -1.658563,0.489849 0,0.165376 0.46439,0.984238 1.031877,1.8196789 0.567487,0.835441 1.032076,1.6060937 1.032376,1.7125617 0,0.4125501 -0.512388,0.1652361 -0.804181,-0.3871617 z"
         id="path26"
         sodipodi:nodetypes="ssssssssssss" />
      <g
         id="g29"
         transform="matrix(0.58797008,0,0,0.58797007,-44.237132,-16.892008)">
        <path
           style="fill:#800066;fill-opacity:0.5;stroke:none;stroke-width:0.264583px;stroke-linecap:butt;stroke-linejoin:miter;stroke-opacity:1"
           d="m 80.075441,40.521913 3.091323,-0.10029 -1.529226,-2.145506 z"
           id="path27" />
        <path
           style="fill:#800066;fill-opacity:0.5;stroke:none;stroke-width:0.264583px;stroke-linecap:butt;stroke-linejoin:miter;stroke-opacity:1"
           d="m 81.492851,31.923183 1.334011,-0.949182 -0.552485,-0.935736 0.26279,-1.051952 -1.651495,0.347877 -0.944033,1.121222 z"
           id="path28" />
        <path
           style="fill:#800066;stroke-width:0.32002"
           d="m 79.737063,40.641482 c 0.006,-0.132003 0.211171,-0.600032 0.4554,-1.040059 0.385817,-0.695128 0.37782,-0.873508 -0.06096,-1.360089 -0.281529,-0.312221 -0.349796,-0.560042 -0.154263,-0.560042 0.192896,0 0.439736,0.144017 0.548509,0.32002 0.556094,0.899784 0.800056,0.02488 0.800056,-2.868929 0,-2.824167 -0.07076,-3.226804 -0.618371,-3.519898 -0.340097,-0.182011 -0.71701,-0.641749 -0.837588,-1.021638 -0.401782,-1.265894 2.025926,-2.411308 3.343091,-1.577289 0.36304,0.229865 0.324274,0.359713 -0.206358,0.691098 -0.650993,0.406546 -0.651053,0.409944 -0.01802,0.92255 0.626766,0.507518 0.624141,0.520489 -0.19367,0.958167 -0.805727,0.431215 -0.829035,0.532151 -0.829035,3.589822 0,2.854677 0.245788,3.722921 0.800056,2.826117 0.108736,-0.176003 0.355612,-0.32002 0.548508,-0.32002 0.195532,0 0.127268,0.247821 -0.154262,0.560042 -0.438757,0.486581 -0.446752,0.664961 -0.06095,1.360089 0.244228,0.440027 0.449158,0.908056 0.455399,1.040059 0.006,0.132012 -0.852718,0.240022 -1.908794,0.240022 -1.056064,0 -1.915024,-0.10801 -1.908783,-0.240022 z m 2.548829,-0.880054 c -0.219118,-0.264014 -0.535046,-0.480035 -0.702082,-0.480035 -0.167036,0 -0.519711,0.216021 -0.783728,0.480035 -0.426698,0.426703 -0.348684,0.480036 0.702084,0.480036 1.014492,0 1.125624,-0.06815 0.783726,-0.480036 z m -0.125935,-9.439897 c -0.03725,-1.049966 -0.393871,-1.193259 -1.307271,-0.525354 -0.518902,0.379415 -0.537056,0.501325 -0.141177,0.947879 0.771704,0.87049 1.486971,0.661841 1.448448,-0.422525 z"
           id="path29"
           sodipodi:nodetypes="ssssssssssssssssscssssssssssss" />
      </g>
      <g
         id="g32"
         transform="matrix(0.58797008,0,0,0.58797007,-46.882967,-16.892008)">
        <path
           style="fill:#800066;fill-opacity:0.5;stroke:none;stroke-width:0.264583px;stroke-linecap:butt;stroke-linejoin:miter;stroke-opacity:1"
           d="m 80.075441,40.521913 3.091323,-0.10029 -1.529226,-2.145506 z"
           id="path30" />
        <path
           style="fill:#800066;fill-opacity:0.5;stroke:none;stroke-width:0.264583px;stroke-linecap:butt;stroke-linejoin:miter;stroke-opacity:1"
           d="m 81.492851,31.923183 1.334011,-0.949182 -0.552485,-0.935736 0.26279,-1.051952 -1.651495,0.347877 -0.944033,1.121222 z"
           id="path31" />
        <path
           style="fill:#800066;stroke-width:0.32002"
           d="m 79.737063,40.641482 c 0.006,-0.132003 0.211171,-0.600032 0.4554,-1.040059 0.385817,-0.695128 0.37782,-0.873508 -0.06096,-1.360089 -0.281529,-0.312221 -0.349796,-0.560042 -0.154263,-0.560042 0.192896,0 0.439736,0.144017 0.548509,0.32002 0.556094,0.899784 0.800056,0.02488 0.800056,-2.868929 0,-2.824167 -0.07076,-3.226804 -0.618371,-3.519898 -0.340097,-0.182011 -0.71701,-0.641749 -0.837588,-1.021638 -0.401782,-1.265894 2.025926,-2.411308 3.343091,-1.577289 0.36304,0.229865 0.324274,0.359713 -0.206358,0.691098 -0.650993,0.406546 -0.651053,0.409944 -0.01802,0.92255 0.626766,0.507518 0.624141,0.520489 -0.19367,0.958167 -0.805727,0.431215 -0.829035,0.532151 -0.829035,3.589822 0,2.854677 0.245788,3.722921 0.800056,2.826117 0.108736,-0.176003 0.355612,-0.32002 0.548508,-0.32002 0.195532,0 0.127268,0.247821 -0.154262,0.560042 -0.438757,0.486581 -0.446752,0.664961 -0.06095,1.360089 0.244228,0.440027 0.449158,0.908056 0.455399,1.040059 0.006,0.132012 -0.852718,0.240022 -1.908794,0.240022 -1.056064,0 -1.915024,-0.10801 -1.908783,-0.240022 z m 2.548829,-0.880054 c -0.219118,-0.264014 -0.535046,-0.480035 -0.702082,-0.480035 -0.167036,0 -0.519711,0.216021 -0.783728,0.480035 -0.426698,0.426703 -0.348684,0.480036 0.702084,0.480036 1.014492,0 1.125624,-0.06815 0.783726,-0.480036 z m -0.125935,-9.439897 c -0.03725,-1.049966 -0.393871,-1.193259 -1.307271,-0.525354 -0.518902,0.379415 -0.537056,0.501325 -0.141177,0.947879 0.771704,0.87049 1.486971,0.661841 1.448448,-0.422525 z"
           id="path32"
           sodipodi:nodetypes="ssssssssssssssssscssssssssssss" />
      </g>
    </g>
  </g>
</svg>
