<?xml version="1.0" encoding="UTF-8" standalone="no"?>
<!-- Created with Inkscape (http://www.inkscape.org/) -->

<svg
   width="61.294998mm"
   height="7.329mm"
   viewBox="0 0 61.294998 7.3290001"
   version="1.1"
   id="svg1"
   inkscape:version="1.4 (e7c3feb100, 2024-10-09)"
   sodipodi:docname="5_1_1_3_17.svg"
   xmlns:inkscape="http://www.inkscape.org/namespaces/inkscape"
   xmlns:sodipodi="http://sodipodi.sourceforge.net/DTD/sodipodi-0.dtd"
   xmlns="http://www.w3.org/2000/svg"
   xmlns:svg="http://www.w3.org/2000/svg">
  <sodipodi:namedview
     id="namedview1"
     pagecolor="#ffffff"
     bordercolor="#000000"
     borderopacity="0.25"
     inkscape:showpageshadow="2"
     inkscape:pageopacity="0.0"
     inkscape:pagecheckerboard="0"
     inkscape:deskcolor="#d1d1d1"
     inkscape:document-units="mm"
     inkscape:zoom="4.597651"
     inkscape:cx="145.83534"
     inkscape:cy="4.7850522"
     inkscape:window-width="1920"
     inkscape:window-height="1014"
     inkscape:window-x="0"
     inkscape:window-y="0"
     inkscape:window-maximized="1"
     inkscape:current-layer="layer1" />
  <defs
     id="defs1">
    <rect
       x="27.795305"
       y="0"
       width="173.57281"
       height="63.574368"
       id="rect1" />
    <marker
       style="overflow:visible"
       id="TriangleOutM-7"
       refX="0"
       refY="0"
       orient="auto"
       inkscape:stockid="TriangleOutM"
       inkscape:isstock="true"
       viewBox="0 0 4.2595265 4.9243081"
       markerWidth="4.2595263"
       markerHeight="4.9243083"
       preserveAspectRatio="xMidYMid">
      <path
         transform="scale(0.4)"
         style="fill:context-stroke;fill-rule:evenodd;stroke:context-stroke;stroke-width:1pt"
         d="M 5.77,0 -2.88,5 V -5 Z"
         id="path8178-6" />
    </marker>
    <marker
       style="overflow:visible"
       id="marker1"
       refX="0"
       refY="0"
       orient="auto"
       inkscape:stockid="TriangleOutM"
       inkscape:isstock="true"
       viewBox="0 0 4.2595265 4.9243081"
       markerWidth="4.2595263"
       markerHeight="4.9243083"
       preserveAspectRatio="xMidYMid">
      <path
         transform="scale(0.4)"
         style="fill:context-stroke;fill-rule:evenodd;stroke:context-stroke;stroke-width:1pt"
         d="M 5.77,0 -2.88,5 V -5 Z"
         id="path1" />
    </marker>
    <marker
       style="overflow:visible"
       id="marker2"
       refX="0"
       refY="0"
       orient="auto"
       inkscape:stockid="TriangleOutM"
       inkscape:isstock="true"
       viewBox="0 0 4.2595265 4.9243081"
       markerWidth="4.2595263"
       markerHeight="4.9243083"
       preserveAspectRatio="xMidYMid">
      <path
         transform="scale(0.4)"
         style="fill:context-stroke;fill-rule:evenodd;stroke:context-stroke;stroke-width:1pt"
         d="M 5.77,0 -2.88,5 V -5 Z"
         id="path2" />
    </marker>
    <marker
       style="overflow:visible"
       id="marker3"
       refX="0"
       refY="0"
       orient="auto"
       inkscape:stockid="TriangleOutM"
       inkscape:isstock="true"
       viewBox="0 0 4.2595265 4.9243081"
       markerWidth="4.2595263"
       markerHeight="4.9243083"
       preserveAspectRatio="xMidYMid">
      <path
         transform="scale(0.4)"
         style="fill:context-stroke;fill-rule:evenodd;stroke:context-stroke;stroke-width:1pt"
         d="M 5.77,0 -2.88,5 V -5 Z"
         id="path3" />
    </marker>
    <marker
       style="overflow:visible"
       id="marker4"
       refX="0"
       refY="0"
       orient="auto"
       inkscape:stockid="TriangleOutM"
       inkscape:isstock="true"
       viewBox="0 0 4.2595265 4.9243081"
       markerWidth="4.2595263"
       markerHeight="4.9243083"
       preserveAspectRatio="xMidYMid">
      <path
         transform="scale(0.4)"
         style="fill:context-stroke;fill-rule:evenodd;stroke:context-stroke;stroke-width:1pt"
         d="M 5.77,0 -2.88,5 V -5 Z"
         id="path4" />
    </marker>
    <marker
       style="overflow:visible"
       id="marker5"
       refX="0"
       refY="0"
       orient="auto"
       inkscape:stockid="TriangleOutM"
       inkscape:isstock="true"
       viewBox="0 0 4.2595265 4.9243081"
       markerWidth="4.2595263"
       markerHeight="4.9243083"
       preserveAspectRatio="xMidYMid">
      <path
         transform="scale(0.4)"
         style="fill:context-stroke;fill-rule:evenodd;stroke:context-stroke;stroke-width:1pt"
         d="M 5.77,0 -2.88,5 V -5 Z"
         id="path5" />
    </marker>
    <marker
       style="overflow:visible"
       id="marker6"
       refX="0"
       refY="0"
       orient="auto"
       inkscape:stockid="TriangleOutM"
       inkscape:isstock="true"
       viewBox="0 0 4.2595265 4.9243081"
       markerWidth="4.2595263"
       markerHeight="4.9243083"
       preserveAspectRatio="xMidYMid">
      <path
         transform="scale(0.4)"
         style="fill:context-stroke;fill-rule:evenodd;stroke:context-stroke;stroke-width:1pt"
         d="M 5.77,0 -2.88,5 V -5 Z"
         id="path6" />
    </marker>
    <rect
       x="27.795305"
       y="0"
       width="173.57281"
       height="63.574368"
       id="rect2" />
    <rect
       x="27.795305"
       y="0"
       width="173.57281"
       height="63.574368"
       id="rect3" />
    <rect
       x="27.795305"
       y="0"
       width="173.57281"
       height="63.574368"
       id="rect4" />
    <rect
       x="27.795305"
       y="0"
       width="173.57281"
       height="63.574368"
       id="rect5" />
    <rect
       x="27.795305"
       y="0"
       width="173.57281"
       height="63.574368"
       id="rect6" />
    <rect
       x="27.795305"
       y="0"
       width="173.57281"
       height="63.574368"
       id="rect7" />
  </defs>
  <g
     inkscape:label="Katman 1"
     inkscape:groupmode="layer"
     id="layer1">
    <g
       id="g28">
      <path
         style="fill:#442178;stroke-width:0.258111"
         d="M 18.831941,5.773118 C 18.663244,5.453705 18.194555,4.78841 17.790364,4.294692 16.946883,3.2640851 16.845985,2.2358081 17.52767,1.6187921 c 1.004277,-0.90879003 2.21665,-0.296843 2.063253,1.041376 -0.066,0.579527 -0.212895,0.725414 -0.728483,0.725414 -0.493589,0 -0.665185,-0.151677 -0.730084,-0.645285 -0.083,-0.628436 -0.075,-0.631796 0.305193,-0.129047 0.45509,0.602206 1.065776,0.237894 0.792883,-0.47306 -0.290794,-0.757863 -1.658563,-0.353892 -1.658563,0.489849 0,0.165376 0.46439,0.984238 1.031877,1.8196789 0.567487,0.835441 1.032076,1.6060937 1.032376,1.7125617 0,0.4125501 -0.512388,0.1652361 -0.804181,-0.3871617 z"
         id="path6700"
         sodipodi:nodetypes="ssssssssssss" />
      <g
         id="g1415"
         transform="matrix(0.58799677,0,0,0.58799676,-96.412385,-16.893016)">
        <path
           style="fill:#806600;fill-opacity:0.5;stroke:none;stroke-width:0.264583px;stroke-linecap:butt;stroke-linejoin:miter;stroke-opacity:1"
           d="m 164.90395,40.811024 4.9566,-0.197295 -0.1136,-3.344815 0.74186,-3.262606 -2.09052,-3.7021 -0.98258,4.064315 0.72046,1.511302 -0.12495,2.492322 -2.49605,-1.969778 -0.0125,3.116062 z"
           id="path1411" />
        <path
           style="fill:#806600;stroke-width:0.32002"
           d="m 163.96763,41.098578 c 0,-0.08263 0.29538,-0.445672 0.65641,-0.806685 0.36103,-0.361031 0.58779,-0.901065 0.50392,-1.200083 -0.0838,-0.299018 -0.24671,-1.011814 -0.36187,-1.584001 -0.2901,-1.441356 0.4554,-1.656486 1.90607,-0.550015 l 1.13573,0.866256 -0.005,-1.078053 c -0.006,-1.364403 -0.37714,-1.957007 -1.06075,-1.694692 -0.29395,0.112857 -0.53445,0.05562 -0.53445,-0.126905 0,-0.182596 -0.3235,-0.378023 -0.71887,-0.43427 -0.5736,-0.08161 -0.79376,-0.425645 -1.08936,-1.702356 -0.20377,-0.880062 -0.38431,-1.941764 -0.40119,-2.35934 -0.0259,-0.639744 0.0448,-0.696539 0.4493,-0.360846 0.26401,0.219103 0.48003,0.803407 0.48003,1.298437 0,1.598403 0.53956,2.541816 1.45374,2.541816 0.66033,0 0.79136,-0.120341 0.64235,-0.589763 -0.11078,-0.349249 0.0846,-0.935252 0.47927,-1.437005 0.36654,-0.465987 0.60199,-0.956634 0.52322,-1.090354 -0.19937,-0.338377 0.34068,-1.683192 0.67594,-1.683192 0.15119,0 0.21442,0.412061 0.14051,0.915698 -0.0988,0.673707 0.085,1.135034 0.69547,1.745567 0.45643,0.456433 0.82986,1.12444 0.82986,1.484459 0,0.508103 0.20651,0.65459 0.92273,0.65459 0.98052,0 1.30425,-0.567368 1.31305,-2.301274 0.005,-0.83231 0.50129,-1.468758 0.8639,-1.106139 0.0972,0.09737 -0.0263,1.011778 -0.27447,2.032181 -0.40687,1.672319 -0.55817,1.890187 -1.53431,2.209539 -0.60044,0.196439 -1.19543,0.658443 -1.33547,1.037013 -0.43187,1.167472 -0.11987,4.257446 0.47374,4.691493 0.29199,0.213514 0.53069,0.444326 0.53043,0.512931 -2.5e-4,0.06862 -1.65635,0.156357 -3.68023,0.195 -2.02389,0.03862 -3.67979,0.0028 -3.67979,-0.07994 z m 4.72031,-0.976291 c 0.51393,-0.104371 0.72005,-0.373519 0.72005,-0.9402 0,-0.436675 -0.13207,-0.793956 -0.29348,-0.793956 -0.59356,0 -3.08833,1.207725 -3.48695,1.688048 -0.36285,0.437204 -0.24954,0.477602 0.9646,0.343882 0.75666,-0.08338 1.69975,-0.217321 2.09578,-0.297774 z m -1.58447,-1.796243 c 0.0566,-0.294125 -0.19371,-0.693559 -0.55637,-0.88763 -0.60005,-0.321153 -0.65934,-0.263429 -0.65934,0.641907 0,0.772655 0.12424,0.970859 0.55636,0.887648 0.306,-0.05887 0.60271,-0.34781 0.65935,-0.641925 z m 1.88714,-0.657951 c 0.3896,-0.517732 1.07956,-2.88473 0.89476,-3.069535 -0.078,-0.07799 -0.34927,0.03027 -0.60275,0.240589 -0.37199,0.308729 -0.50133,0.254933 -0.67081,-0.279065 -0.11551,-0.363836 -0.344,-0.578696 -0.50782,-0.477464 -0.1785,0.110314 -0.15561,0.449841 0.0571,0.847353 0.20014,0.373937 0.26867,1.203054 0.1571,1.900695 -0.19694,1.231596 0.0987,1.599786 0.67239,0.837427 z m 0.47956,-5.191667 c -0.54788,-1.202488 -0.97989,-0.978547 -0.57957,0.300448 0.21636,0.691284 0.46036,0.995993 0.64761,0.808727 0.18725,-0.187247 0.16162,-0.605138 -0.0681,-1.109175 z"
           id="path6694"
           sodipodi:nodetypes="sssssccsssssssscssssssscccsssscsssssssssssssssssssssscsscc" />
      </g>
      <g
         id="g8"
         transform="matrix(0.58799677,0,0,0.58799676,-90.591286,-16.893016)">
        <path
           style="fill:#806600;fill-opacity:0.5;stroke:none;stroke-width:0.264583px;stroke-linecap:butt;stroke-linejoin:miter;stroke-opacity:1"
           d="m 164.90395,40.811024 4.9566,-0.197295 -0.1136,-3.344815 0.74186,-3.262606 -2.09052,-3.7021 -0.98258,4.064315 0.72046,1.511302 -0.12495,2.492322 -2.49605,-1.969778 -0.0125,3.116062 z"
           id="path7" />
        <path
           style="fill:#806600;stroke-width:0.32002"
           d="m 163.96763,41.098578 c 0,-0.08263 0.29538,-0.445672 0.65641,-0.806685 0.36103,-0.361031 0.58779,-0.901065 0.50392,-1.200083 -0.0838,-0.299018 -0.24671,-1.011814 -0.36187,-1.584001 -0.2901,-1.441356 0.4554,-1.656486 1.90607,-0.550015 l 1.13573,0.866256 -0.005,-1.078053 c -0.006,-1.364403 -0.37714,-1.957007 -1.06075,-1.694692 -0.29395,0.112857 -0.53445,0.05562 -0.53445,-0.126905 0,-0.182596 -0.3235,-0.378023 -0.71887,-0.43427 -0.5736,-0.08161 -0.79376,-0.425645 -1.08936,-1.702356 -0.20377,-0.880062 -0.38431,-1.941764 -0.40119,-2.35934 -0.0259,-0.639744 0.0448,-0.696539 0.4493,-0.360846 0.26401,0.219103 0.48003,0.803407 0.48003,1.298437 0,1.598403 0.53956,2.541816 1.45374,2.541816 0.66033,0 0.79136,-0.120341 0.64235,-0.589763 -0.11078,-0.349249 0.0846,-0.935252 0.47927,-1.437005 0.36654,-0.465987 0.60199,-0.956634 0.52322,-1.090354 -0.19937,-0.338377 0.34068,-1.683192 0.67594,-1.683192 0.15119,0 0.21442,0.412061 0.14051,0.915698 -0.0988,0.673707 0.085,1.135034 0.69547,1.745567 0.45643,0.456433 0.82986,1.12444 0.82986,1.484459 0,0.508103 0.20651,0.65459 0.92273,0.65459 0.98052,0 1.30425,-0.567368 1.31305,-2.301274 0.005,-0.83231 0.50129,-1.468758 0.8639,-1.106139 0.0972,0.09737 -0.0263,1.011778 -0.27447,2.032181 -0.40687,1.672319 -0.55817,1.890187 -1.53431,2.209539 -0.60044,0.196439 -1.19543,0.658443 -1.33547,1.037013 -0.43187,1.167472 -0.11987,4.257446 0.47374,4.691493 0.29199,0.213514 0.53069,0.444326 0.53043,0.512931 -2.5e-4,0.06862 -1.65635,0.156357 -3.68023,0.195 -2.02389,0.03862 -3.67979,0.0028 -3.67979,-0.07994 z m 4.72031,-0.976291 c 0.51393,-0.104371 0.72005,-0.373519 0.72005,-0.9402 0,-0.436675 -0.13207,-0.793956 -0.29348,-0.793956 -0.59356,0 -3.08833,1.207725 -3.48695,1.688048 -0.36285,0.437204 -0.24954,0.477602 0.9646,0.343882 0.75666,-0.08338 1.69975,-0.217321 2.09578,-0.297774 z m -1.58447,-1.796243 c 0.0566,-0.294125 -0.19371,-0.693559 -0.55637,-0.88763 -0.60005,-0.321153 -0.65934,-0.263429 -0.65934,0.641907 0,0.772655 0.12424,0.970859 0.55636,0.887648 0.306,-0.05887 0.60271,-0.34781 0.65935,-0.641925 z m 1.88714,-0.657951 c 0.3896,-0.517732 1.07956,-2.88473 0.89476,-3.069535 -0.078,-0.07799 -0.34927,0.03027 -0.60275,0.240589 -0.37199,0.308729 -0.50133,0.254933 -0.67081,-0.279065 -0.11551,-0.363836 -0.344,-0.578696 -0.50782,-0.477464 -0.1785,0.110314 -0.15561,0.449841 0.0571,0.847353 0.20014,0.373937 0.26867,1.203054 0.1571,1.900695 -0.19694,1.231596 0.0987,1.599786 0.67239,0.837427 z m 0.47956,-5.191667 c -0.54788,-1.202488 -0.97989,-0.978547 -0.57957,0.300448 0.21636,0.691284 0.46036,0.995993 0.64761,0.808727 0.18725,-0.187247 0.16162,-0.605138 -0.0681,-1.109175 z"
           id="path8"
           sodipodi:nodetypes="sssssccsssssssscssssssscccsssscsssssssssssssssssssssscsscc" />
      </g>
      <path
         style="fill:#442178;stroke-width:0.258123"
         d="M 24.415693,5.7733557 C 24.246988,5.4539282 23.778278,4.788603 23.374069,4.2948626 22.530549,3.2642089 22.429647,2.2358852 23.111363,1.6188412 c 1.004322,-0.9088313 2.21675,-0.2968565 2.063346,1.0414233 -0.066,0.5795533 -0.212904,0.7254469 -0.728516,0.7254469 -0.493611,0 -0.665215,-0.1516839 -0.730117,-0.6453143 -0.083,-0.6284645 -0.075,-0.6318246 0.305207,-0.1290528 0.455111,0.6022333 1.065824,0.2379048 0.792919,-0.4730815 -0.290807,-0.7578974 -1.658638,-0.3539081 -1.658638,0.4898712 0,0.1653836 0.464411,0.9842827 1.031924,1.8197616 0.567512,0.8354789 1.032122,1.6061666 1.032422,1.7126394 0,0.4125688 -0.512411,0.1652436 -0.804217,-0.3871793 z"
         id="path32"
         sodipodi:nodetypes="ssssssssssss" />
      <path
         style="fill:#442178;stroke-width:0.258123"
         d="M 27.344773,5.7733557 C 27.176068,5.4539282 26.707358,4.788603 26.303149,4.2948626 25.459629,3.2642089 25.358727,2.2358852 26.040443,1.6188412 c 1.004322,-0.9088313 2.21675,-0.2968565 2.063346,1.0414233 -0.066,0.5795533 -0.212904,0.7254469 -0.728516,0.7254469 -0.493611,0 -0.665215,-0.1516839 -0.730117,-0.6453143 -0.083,-0.6284645 -0.075,-0.6318246 0.305207,-0.1290528 0.455111,0.6022333 1.065825,0.2379048 0.792919,-0.4730815 -0.290807,-0.7578974 -1.658638,-0.3539081 -1.658638,0.4898712 0,0.1653836 0.464411,0.9842827 1.031924,1.8197616 0.567512,0.8354789 1.032123,1.6061666 1.032423,1.7126394 0,0.4125688 -0.512412,0.1652436 -0.804218,-0.3871793 z"
         id="path33"
         sodipodi:nodetypes="ssssssssssss" />
      <g
         id="g10"
         transform="matrix(0.58797008,0,0,0.58797007,-47.79556,-16.892249)">
        <path
           style="fill:#aa4400;fill-opacity:0.5;stroke:none;stroke-width:0.264583px;stroke-linecap:butt;stroke-linejoin:miter;stroke-opacity:1"
           d="m 102.58788,40.813132 -0.27358,-6.819217 0.52389,-4.580324 0.9312,-0.186028 0.2274,7.058376 -0.44403,4.447977 z"
           id="path9" />
        <path
           style="fill:#aa4400;stroke-width:0.32002"
           d="m 102.06431,35.721723 c 0.0787,-5.631789 0.31866,-6.764789 1.4324,-6.764789 0.54792,0 0.62982,0.245082 0.66845,2.000138 0.0979,4.446961 0.0552,6.5681 -0.16752,8.320556 -0.22132,1.741565 -0.28139,1.840114 -1.12132,1.840114 h -0.88747 z m 1.31024,3.235875 c 0.43995,-2.741207 0.32754,-6.725356 -0.20475,-7.257451 -0.42668,-0.426527 -0.48002,0.03445 -0.48002,4.14888 0,4.716258 0.24687,5.837021 0.68477,3.108571 z m 0.11527,-8.739468 c 0,-0.362406 -0.13773,-0.573812 -0.30605,-0.469776 -0.16833,0.104018 -0.22492,0.400548 -0.12577,0.658926 0.25385,0.661517 0.43182,0.583561 0.43182,-0.18915 z"
           id="path10"
           sodipodi:nodetypes="ssssscsssssssss" />
      </g>
      <g
         id="g12"
         transform="matrix(0.58797008,0,0,0.58797007,-46.208059,-16.892249)">
        <path
           style="fill:#aa4400;fill-opacity:0.5;stroke:none;stroke-width:0.264583px;stroke-linecap:butt;stroke-linejoin:miter;stroke-opacity:1"
           d="m 102.58788,40.813132 -0.27358,-6.819217 0.52389,-4.580324 0.9312,-0.186028 0.2274,7.058376 -0.44403,4.447977 z"
           id="path11" />
        <path
           style="fill:#aa4400;stroke-width:0.32002"
           d="m 102.06431,35.721723 c 0.0787,-5.631789 0.31866,-6.764789 1.4324,-6.764789 0.54792,0 0.62982,0.245082 0.66845,2.000138 0.0979,4.446961 0.0552,6.5681 -0.16752,8.320556 -0.22132,1.741565 -0.28139,1.840114 -1.12132,1.840114 h -0.88747 z m 1.31024,3.235875 c 0.43995,-2.741207 0.32754,-6.725356 -0.20475,-7.257451 -0.42668,-0.426527 -0.48002,0.03445 -0.48002,4.14888 0,4.716258 0.24687,5.837021 0.68477,3.108571 z m 0.11527,-8.739468 c 0,-0.362406 -0.13773,-0.573812 -0.30605,-0.469776 -0.16833,0.104018 -0.22492,0.400548 -0.12577,0.658926 0.25385,0.661517 0.43182,0.583561 0.43182,-0.18915 z"
           id="path12"
           sodipodi:nodetypes="ssssscsssssssss" />
      </g>
      <g
         id="g18"
         transform="matrix(0.58797008,0,0,0.58797007,-44.620558,-16.892249)">
        <path
           style="fill:#aa4400;fill-opacity:0.5;stroke:none;stroke-width:0.264583px;stroke-linecap:butt;stroke-linejoin:miter;stroke-opacity:1"
           d="m 102.58788,40.813132 -0.27358,-6.819217 0.52389,-4.580324 0.9312,-0.186028 0.2274,7.058376 -0.44403,4.447977 z"
           id="path17" />
        <path
           style="fill:#aa4400;stroke-width:0.32002"
           d="m 102.06431,35.721723 c 0.0787,-5.631789 0.31866,-6.764789 1.4324,-6.764789 0.54792,0 0.62982,0.245082 0.66845,2.000138 0.0979,4.446961 0.0552,6.5681 -0.16752,8.320556 -0.22132,1.741565 -0.28139,1.840114 -1.12132,1.840114 h -0.88747 z m 1.31024,3.235875 c 0.43995,-2.741207 0.32754,-6.725356 -0.20475,-7.257451 -0.42668,-0.426527 -0.48002,0.03445 -0.48002,4.14888 0,4.716258 0.24687,5.837021 0.68477,3.108571 z m 0.11527,-8.739468 c 0,-0.362406 -0.13773,-0.573812 -0.30605,-0.469776 -0.16833,0.104018 -0.22492,0.400548 -0.12577,0.658926 0.25385,0.661517 0.43182,0.583561 0.43182,-0.18915 z"
           id="path18"
           sodipodi:nodetypes="ssssscsssssssss" />
      </g>
      <path
         style="fill:#442178;stroke-width:0.258111"
         d="M 21.696212,5.773118 C 21.527515,5.453705 21.058826,4.78841 20.654635,4.294692 19.811154,3.2640851 19.710256,2.2358081 20.391941,1.6187921 c 1.004277,-0.90879003 2.21665,-0.296843 2.063253,1.041376 -0.066,0.579527 -0.212895,0.725414 -0.728483,0.725414 -0.493589,0 -0.665185,-0.151677 -0.730084,-0.645285 -0.083,-0.628436 -0.075,-0.631796 0.305193,-0.129047 0.45509,0.602206 1.065776,0.237894 0.792883,-0.47306 -0.290794,-0.757863 -1.658563,-0.353892 -1.658563,0.489849 0,0.165376 0.46439,0.984238 1.031877,1.8196789 0.567487,0.835441 1.032076,1.6060937 1.032376,1.7125617 0,0.4125501 -0.512388,0.1652361 -0.804181,-0.3871617 z"
         id="path19"
         sodipodi:nodetypes="ssssssssssss" />
      <path
         style="fill:#006680;stroke-width:0.258111"
         d="m 28.563993,4.1599151 c 0,-1.414159 0.522995,-2.104893 1.593571,-2.104893 0.974878,0 1.503866,0.756153 1.503866,2.149742 0,1.5646439 -0.464089,1.5696539 -0.566687,0.006 -0.148197,-2.260639 -1.815859,-2.260639 -1.964056,0 -0.104197,1.5883639 -0.566694,1.5467649 -0.566694,-0.0509 z"
         id="path20"
         sodipodi:nodetypes="csssscc" />
      <path
         style="fill:#006680;stroke-width:0.258111"
         d="m 32.268162,4.1599151 c 0,-1.414159 0.522995,-2.104893 1.593571,-2.104893 0.974878,0 1.503866,0.756153 1.503866,2.149742 0,1.5646439 -0.464089,1.5696539 -0.566687,0.006 -0.148197,-2.260639 -1.815859,-2.260639 -1.964056,0 -0.104197,1.5883639 -0.566694,1.5467649 -0.566694,-0.0509 z"
         id="path21"
         sodipodi:nodetypes="csssscc" />
      <path
         style="fill:#006680;stroke-width:0.258111"
         d="m 35.972331,4.1599151 c 0,-1.414159 0.522995,-2.104893 1.593571,-2.104893 0.974878,0 1.503866,0.756153 1.503866,2.149742 0,1.5646439 -0.464089,1.5696539 -0.566687,0.006 -0.148197,-2.260639 -1.815859,-2.260639 -1.964056,0 -0.104197,1.5883639 -0.566694,1.5467649 -0.566694,-0.0509 z"
         id="path22"
         sodipodi:nodetypes="csssscc" />
      <path
         style="fill:#006680;stroke-width:0.258111"
         d="m 39.6765,4.1599151 c 0,-1.414159 0.522995,-2.104893 1.593571,-2.104893 0.974878,0 1.503866,0.756153 1.503866,2.149742 0,1.5646439 -0.464089,1.5696539 -0.566687,0.006 -0.148197,-2.260639 -1.815859,-2.260639 -1.964056,0 C 40.138997,5.799128 39.6765,5.757529 39.6765,4.1598641 Z"
         id="path23"
         sodipodi:nodetypes="csssscc" />
      <path
         style="fill:#006680;stroke-width:0.258111"
         d="m 43.380669,4.1599151 c 0,-1.414159 0.522995,-2.104893 1.593571,-2.104893 0.974878,0 1.503866,0.756153 1.503866,2.149742 0,1.5646439 -0.464089,1.5696539 -0.566687,0.006 -0.148197,-2.260639 -1.815859,-2.260639 -1.964056,0 -0.104197,1.5883639 -0.566694,1.5467649 -0.566694,-0.0509 z"
         id="path24"
         sodipodi:nodetypes="csssscc" />
      <path
         style="fill:#006680;stroke-width:0.258111"
         d="m 47.084838,4.1599151 c 0,-1.414159 0.522995,-2.104893 1.593571,-2.104893 0.974878,0 1.503866,0.756153 1.503866,2.149742 0,1.5646439 -0.464089,1.5696539 -0.566687,0.006 -0.148197,-2.260639 -1.815859,-2.260639 -1.964056,0 -0.104197,1.5883639 -0.566694,1.5467649 -0.566694,-0.0509 z"
         id="path25"
         sodipodi:nodetypes="csssscc" />
      <path
         style="fill:#006680;stroke-width:0.258111"
         d="m 50.789007,4.1599151 c 0,-1.414159 0.522995,-2.104893 1.593571,-2.104893 0.974878,0 1.503866,0.756153 1.503866,2.149742 0,1.5646439 -0.464089,1.5696539 -0.566687,0.006 -0.148197,-2.260639 -1.815859,-2.260639 -1.964056,0 -0.104197,1.5883639 -0.566694,1.5467649 -0.566694,-0.0509 z"
         id="path26"
         sodipodi:nodetypes="csssscc" />
      <path
         style="fill:#006680;stroke-width:0.258111"
         d="m 54.493176,4.1599151 c 0,-1.414159 0.522995,-2.104893 1.593571,-2.104893 0.974878,0 1.503866,0.756153 1.503866,2.149742 0,1.5646439 -0.464089,1.5696539 -0.566687,0.006 -0.148197,-2.260639 -1.815859,-2.260639 -1.964056,0 -0.104197,1.5883639 -0.566694,1.5467649 -0.566694,-0.0509 z"
         id="path27"
         sodipodi:nodetypes="csssscc" />
      <path
         style="fill:#006680;stroke-width:0.258111"
         d="m 58.197345,4.1599151 c 0,-1.414159 0.522995,-2.104893 1.593571,-2.104893 0.974878,0 1.503866,0.756153 1.503866,2.149742 0,1.5646439 -0.464089,1.5696539 -0.566687,0.006 -0.148197,-2.260639 -1.815859,-2.260639 -1.964056,0 -0.104197,1.5883639 -0.566694,1.5467649 -0.566694,-0.0509 z"
         id="path28"
         sodipodi:nodetypes="csssscc" />
    </g>
  </g>
</svg>
