<?xml version="1.0" encoding="UTF-8" standalone="no"?>
<!-- Created with Inkscape (http://www.inkscape.org/) -->

<svg
   width="25.121mm"
   height="7.329mm"
   viewBox="0 0 25.121 7.3290001"
   version="1.1"
   id="svg1"
   inkscape:version="1.4 (e7c3feb100, 2024-10-09)"
   sodipodi:docname="5_1_1_3_20.svg"
   xmlns:inkscape="http://www.inkscape.org/namespaces/inkscape"
   xmlns:sodipodi="http://sodipodi.sourceforge.net/DTD/sodipodi-0.dtd"
   xmlns="http://www.w3.org/2000/svg"
   xmlns:svg="http://www.w3.org/2000/svg">
  <sodipodi:namedview
     id="namedview1"
     pagecolor="#ffffff"
     bordercolor="#000000"
     borderopacity="0.25"
     inkscape:showpageshadow="2"
     inkscape:pageopacity="0.0"
     inkscape:pagecheckerboard="0"
     inkscape:deskcolor="#d1d1d1"
     inkscape:document-units="mm"
     inkscape:zoom="4.8642288"
     inkscape:cx="125.09691"
     inkscape:cy="24.875475"
     inkscape:window-width="1920"
     inkscape:window-height="1014"
     inkscape:window-x="0"
     inkscape:window-y="0"
     inkscape:window-maximized="1"
     inkscape:current-layer="layer1" />
  <defs
     id="defs1">
    <rect
       x="27.795305"
       y="0"
       width="173.57281"
       height="63.574368"
       id="rect1" />
    <marker
       style="overflow:visible"
       id="TriangleOutM-7"
       refX="0"
       refY="0"
       orient="auto"
       inkscape:stockid="TriangleOutM"
       inkscape:isstock="true"
       viewBox="0 0 4.2595265 4.9243081"
       markerWidth="4.2595263"
       markerHeight="4.9243083"
       preserveAspectRatio="xMidYMid">
      <path
         transform="scale(0.4)"
         style="fill:context-stroke;fill-rule:evenodd;stroke:context-stroke;stroke-width:1pt"
         d="M 5.77,0 -2.88,5 V -5 Z"
         id="path8178-6" />
    </marker>
    <marker
       style="overflow:visible"
       id="marker1"
       refX="0"
       refY="0"
       orient="auto"
       inkscape:stockid="TriangleOutM"
       inkscape:isstock="true"
       viewBox="0 0 4.2595265 4.9243081"
       markerWidth="4.2595263"
       markerHeight="4.9243083"
       preserveAspectRatio="xMidYMid">
      <path
         transform="scale(0.4)"
         style="fill:context-stroke;fill-rule:evenodd;stroke:context-stroke;stroke-width:1pt"
         d="M 5.77,0 -2.88,5 V -5 Z"
         id="path1" />
    </marker>
    <marker
       style="overflow:visible"
       id="marker2"
       refX="0"
       refY="0"
       orient="auto"
       inkscape:stockid="TriangleOutM"
       inkscape:isstock="true"
       viewBox="0 0 4.2595265 4.9243081"
       markerWidth="4.2595263"
       markerHeight="4.9243083"
       preserveAspectRatio="xMidYMid">
      <path
         transform="scale(0.4)"
         style="fill:context-stroke;fill-rule:evenodd;stroke:context-stroke;stroke-width:1pt"
         d="M 5.77,0 -2.88,5 V -5 Z"
         id="path2" />
    </marker>
    <marker
       style="overflow:visible"
       id="marker3"
       refX="0"
       refY="0"
       orient="auto"
       inkscape:stockid="TriangleOutM"
       inkscape:isstock="true"
       viewBox="0 0 4.2595265 4.9243081"
       markerWidth="4.2595263"
       markerHeight="4.9243083"
       preserveAspectRatio="xMidYMid">
      <path
         transform="scale(0.4)"
         style="fill:context-stroke;fill-rule:evenodd;stroke:context-stroke;stroke-width:1pt"
         d="M 5.77,0 -2.88,5 V -5 Z"
         id="path3" />
    </marker>
    <marker
       style="overflow:visible"
       id="marker4"
       refX="0"
       refY="0"
       orient="auto"
       inkscape:stockid="TriangleOutM"
       inkscape:isstock="true"
       viewBox="0 0 4.2595265 4.9243081"
       markerWidth="4.2595263"
       markerHeight="4.9243083"
       preserveAspectRatio="xMidYMid">
      <path
         transform="scale(0.4)"
         style="fill:context-stroke;fill-rule:evenodd;stroke:context-stroke;stroke-width:1pt"
         d="M 5.77,0 -2.88,5 V -5 Z"
         id="path4" />
    </marker>
    <marker
       style="overflow:visible"
       id="marker5"
       refX="0"
       refY="0"
       orient="auto"
       inkscape:stockid="TriangleOutM"
       inkscape:isstock="true"
       viewBox="0 0 4.2595265 4.9243081"
       markerWidth="4.2595263"
       markerHeight="4.9243083"
       preserveAspectRatio="xMidYMid">
      <path
         transform="scale(0.4)"
         style="fill:context-stroke;fill-rule:evenodd;stroke:context-stroke;stroke-width:1pt"
         d="M 5.77,0 -2.88,5 V -5 Z"
         id="path5" />
    </marker>
    <marker
       style="overflow:visible"
       id="marker6"
       refX="0"
       refY="0"
       orient="auto"
       inkscape:stockid="TriangleOutM"
       inkscape:isstock="true"
       viewBox="0 0 4.2595265 4.9243081"
       markerWidth="4.2595263"
       markerHeight="4.9243083"
       preserveAspectRatio="xMidYMid">
      <path
         transform="scale(0.4)"
         style="fill:context-stroke;fill-rule:evenodd;stroke:context-stroke;stroke-width:1pt"
         d="M 5.77,0 -2.88,5 V -5 Z"
         id="path6" />
    </marker>
    <rect
       x="27.795305"
       y="0"
       width="173.57281"
       height="63.574368"
       id="rect2" />
    <rect
       x="27.795305"
       y="0"
       width="173.57281"
       height="63.574368"
       id="rect3" />
    <rect
       x="27.795305"
       y="0"
       width="173.57281"
       height="63.574368"
       id="rect4" />
    <rect
       x="27.795305"
       y="0"
       width="173.57281"
       height="63.574368"
       id="rect5" />
    <rect
       x="27.795305"
       y="0"
       width="173.57281"
       height="63.574368"
       id="rect6" />
    <rect
       x="27.795305"
       y="0"
       width="173.57281"
       height="63.574368"
       id="rect7" />
  </defs>
  <g
     inkscape:label="Katman 1"
     inkscape:groupmode="layer"
     id="layer1">
    <g
       id="g1253"
       transform="matrix(0.58797008,0,0,0.58797007,-45.678892,-16.892249)">
      <path
         style="fill:#aa4400;fill-opacity:0.5;stroke:none;stroke-width:0.264583px;stroke-linecap:butt;stroke-linejoin:miter;stroke-opacity:1"
         d="m 102.58788,40.813132 -0.27358,-6.819217 0.52389,-4.580324 0.9312,-0.186028 0.2274,7.058376 -0.44403,4.447977 z"
         id="path1249" />
      <path
         style="fill:#aa4400;stroke-width:0.32002"
         d="m 102.06431,35.721723 c 0.0787,-5.631789 0.31866,-6.764789 1.4324,-6.764789 0.54792,0 0.62982,0.245082 0.66845,2.000138 0.0979,4.446961 0.0552,6.5681 -0.16752,8.320556 -0.22132,1.741565 -0.28139,1.840114 -1.12132,1.840114 h -0.88747 z m 1.31024,3.235875 c 0.43995,-2.741207 0.32754,-6.725356 -0.20475,-7.257451 -0.42668,-0.426527 -0.48002,0.03445 -0.48002,4.14888 0,4.716258 0.24687,5.837021 0.68477,3.108571 z m 0.11527,-8.739468 c 0,-0.362406 -0.13773,-0.573812 -0.30605,-0.469776 -0.16833,0.104018 -0.22492,0.400548 -0.12577,0.658926 0.25385,0.661517 0.43182,0.583561 0.43182,-0.18915 z"
         id="path6704"
         sodipodi:nodetypes="ssssscsssssssss" />
    </g>
    <g
       id="g1361"
       transform="matrix(0.58799677,0,0,0.58799676,-75.202453,-16.892992)">
      <path
         style="fill:#005500;fill-opacity:0.5;stroke:none;stroke-width:0.264583px;stroke-linecap:butt;stroke-linejoin:miter;stroke-opacity:1"
         d="m 128.30076,32.028497 2.97509,5.146006 -2.02025,1.896486 1.91403,0.313192 1.0363,-1.641938 1.80981,1.441606 3.42186,0.0897 1.54658,-1.742874 -2.45771,-3.250356 -7.04569,-3.298431 z"
         id="path1357" />
      <path
         style="fill:#005500;stroke-width:0.32002"
         d="m 127.9285,39.310535 c -0.10849,-0.175613 0.0639,-0.41155 0.38299,-0.524305 2.72312,-0.961918 3.2177,-1.489788 2.19282,-2.340353 -0.2572,-0.213468 -0.55962,-0.699129 -0.67205,-1.07925 -0.11249,-0.38014 -0.57176,-1.234261 -1.02072,-1.898061 -0.69387,-1.025891 -0.76209,-1.325883 -0.45488,-2.000139 0.5532,-1.214121 1.96848,-1.056363 3.98911,0.444642 0.91651,0.68081 2.35864,1.495563 3.20473,1.810551 3.05103,1.13586 4.90242,4.640689 2.92689,5.540788 -1.31098,0.597331 -3.99989,0.457603 -5.19301,-0.269845 -1.28884,-0.785803 -1.45934,-0.796648 -1.06938,-0.06797 0.278,0.519459 0.10776,0.576783 -1.89184,0.637051 -1.20852,0.0364 -2.28613,-0.07744 -2.39466,-0.253058 z m 3.36348,-0.954824 c 0.35203,-0.352016 0.64003,-0.928056 0.64003,-1.280081 0,-0.352025 0.14401,-0.640041 0.32003,-0.640041 0.176,0 0.32001,0.35496 0.32001,0.788793 0,0.836526 0.7955,1.451349 1.87784,1.451349 0.46009,0 0.66826,-0.247208 0.74109,-0.880053 0.0879,-0.764049 0.25945,-0.893154 1.30133,-0.979383 0.66005,-0.05469 1.20009,0.02312 1.20009,0.172633 0,0.14957 -0.39207,0.266261 -0.87127,0.259335 -0.58016,-0.0084 -0.90878,0.17449 -0.98354,0.547415 -0.0788,0.39338 0.0908,0.560033 0.57014,0.560033 0.37532,0 0.59339,-0.143998 0.48461,-0.320011 -0.11212,-0.181509 0.15669,-0.320029 0.62116,-0.320029 1.84571,0 0.17143,-2.396406 -2.45389,-3.512276 -0.92813,-0.394494 -2.13776,-1.055472 -2.68806,-1.468842 -0.55032,-0.41337 -1.09184,-0.660318 -1.20339,-0.548761 -0.11152,0.11152 -0.39652,-0.06212 -0.63326,-0.385868 -0.28101,-0.38429 -0.62832,-0.512746 -1.00033,-0.369992 -0.52895,0.202985 -0.53227,0.260226 -0.0463,0.797243 0.65212,0.720577 0.68953,1.224297 0.0516,0.694876 -0.46395,-0.385042 0.70864,2.029414 1.61185,3.318919 0.68777,0.981927 0.56836,1.418175 -0.57985,2.118251 -0.69231,0.422107 -0.8528,0.634544 -0.48003,0.635342 0.30802,6.41e-4 0.84805,-0.286827 1.20009,-0.638852 z m 6.31375,0.446703 c -0.10632,-0.106321 -0.38237,-0.117695 -0.61337,-0.02535 -0.2553,0.102208 -0.17947,0.178 0.19333,0.193338 0.33736,0.01384 0.52637,-0.06165 0.42004,-0.168065 z"
         id="path6706"
         sodipodi:nodetypes="scsssssssssssssssssssscssssssssssssssssscsss" />
    </g>
    <g
       id="g8"
       transform="matrix(0.58799677,0,0,0.58799676,-68.323285,-16.892992)">
      <path
         style="fill:#005500;fill-opacity:0.5;stroke:none;stroke-width:0.264583px;stroke-linecap:butt;stroke-linejoin:miter;stroke-opacity:1"
         d="m 128.30076,32.028497 2.97509,5.146006 -2.02025,1.896486 1.91403,0.313192 1.0363,-1.641938 1.80981,1.441606 3.42186,0.0897 1.54658,-1.742874 -2.45771,-3.250356 -7.04569,-3.298431 z"
         id="path7" />
      <path
         style="fill:#005500;stroke-width:0.32002"
         d="m 127.9285,39.310535 c -0.10849,-0.175613 0.0639,-0.41155 0.38299,-0.524305 2.72312,-0.961918 3.2177,-1.489788 2.19282,-2.340353 -0.2572,-0.213468 -0.55962,-0.699129 -0.67205,-1.07925 -0.11249,-0.38014 -0.57176,-1.234261 -1.02072,-1.898061 -0.69387,-1.025891 -0.76209,-1.325883 -0.45488,-2.000139 0.5532,-1.214121 1.96848,-1.056363 3.98911,0.444642 0.91651,0.68081 2.35864,1.495563 3.20473,1.810551 3.05103,1.13586 4.90242,4.640689 2.92689,5.540788 -1.31098,0.597331 -3.99989,0.457603 -5.19301,-0.269845 -1.28884,-0.785803 -1.45934,-0.796648 -1.06938,-0.06797 0.278,0.519459 0.10776,0.576783 -1.89184,0.637051 -1.20852,0.0364 -2.28613,-0.07744 -2.39466,-0.253058 z m 3.36348,-0.954824 c 0.35203,-0.352016 0.64003,-0.928056 0.64003,-1.280081 0,-0.352025 0.14401,-0.640041 0.32003,-0.640041 0.176,0 0.32001,0.35496 0.32001,0.788793 0,0.836526 0.7955,1.451349 1.87784,1.451349 0.46009,0 0.66826,-0.247208 0.74109,-0.880053 0.0879,-0.764049 0.25945,-0.893154 1.30133,-0.979383 0.66005,-0.05469 1.20009,0.02312 1.20009,0.172633 0,0.14957 -0.39207,0.266261 -0.87127,0.259335 -0.58016,-0.0084 -0.90878,0.17449 -0.98354,0.547415 -0.0788,0.39338 0.0908,0.560033 0.57014,0.560033 0.37532,0 0.59339,-0.143998 0.48461,-0.320011 -0.11212,-0.181509 0.15669,-0.320029 0.62116,-0.320029 1.84571,0 0.17143,-2.396406 -2.45389,-3.512276 -0.92813,-0.394494 -2.13776,-1.055472 -2.68806,-1.468842 -0.55032,-0.41337 -1.09184,-0.660318 -1.20339,-0.548761 -0.11152,0.11152 -0.39652,-0.06212 -0.63326,-0.385868 -0.28101,-0.38429 -0.62832,-0.512746 -1.00033,-0.369992 -0.52895,0.202985 -0.53227,0.260226 -0.0463,0.797243 0.65212,0.720577 0.68953,1.224297 0.0516,0.694876 -0.46395,-0.385042 0.70864,2.029414 1.61185,3.318919 0.68777,0.981927 0.56836,1.418175 -0.57985,2.118251 -0.69231,0.422107 -0.8528,0.634544 -0.48003,0.635342 0.30802,6.41e-4 0.84805,-0.286827 1.20009,-0.638852 z m 6.31375,0.446703 c -0.10632,-0.106321 -0.38237,-0.117695 -0.61337,-0.02535 -0.2553,0.102208 -0.17947,0.178 0.19333,0.193338 0.33736,0.01384 0.52637,-0.06165 0.42004,-0.168065 z"
         id="path8"
         sodipodi:nodetypes="scsssssssssssssssssssscssssssssssssssssscsss" />
    </g>
    <g
       id="g10"
       transform="matrix(0.58797008,0,0,0.58797007,-44.091391,-16.892249)">
      <path
         style="fill:#aa4400;fill-opacity:0.5;stroke:none;stroke-width:0.264583px;stroke-linecap:butt;stroke-linejoin:miter;stroke-opacity:1"
         d="m 102.58788,40.813132 -0.27358,-6.819217 0.52389,-4.580324 0.9312,-0.186028 0.2274,7.058376 -0.44403,4.447977 z"
         id="path9" />
      <path
         style="fill:#aa4400;stroke-width:0.32002"
         d="m 102.06431,35.721723 c 0.0787,-5.631789 0.31866,-6.764789 1.4324,-6.764789 0.54792,0 0.62982,0.245082 0.66845,2.000138 0.0979,4.446961 0.0552,6.5681 -0.16752,8.320556 -0.22132,1.741565 -0.28139,1.840114 -1.12132,1.840114 h -0.88747 z m 1.31024,3.235875 c 0.43995,-2.741207 0.32754,-6.725356 -0.20475,-7.257451 -0.42668,-0.426527 -0.48002,0.03445 -0.48002,4.14888 0,4.716258 0.24687,5.837021 0.68477,3.108571 z m 0.11527,-8.739468 c 0,-0.362406 -0.13773,-0.573812 -0.30605,-0.469776 -0.16833,0.104018 -0.22492,0.400548 -0.12577,0.658926 0.25385,0.661517 0.43182,0.583561 0.43182,-0.18915 z"
         id="path10"
         sodipodi:nodetypes="ssssscsssssssss" />
    </g>
    <g
       id="g12"
       transform="matrix(0.58797008,0,0,0.58797007,-42.50389,-16.892249)">
      <path
         style="fill:#aa4400;fill-opacity:0.5;stroke:none;stroke-width:0.264583px;stroke-linecap:butt;stroke-linejoin:miter;stroke-opacity:1"
         d="m 102.58788,40.813132 -0.27358,-6.819217 0.52389,-4.580324 0.9312,-0.186028 0.2274,7.058376 -0.44403,4.447977 z"
         id="path11" />
      <path
         style="fill:#aa4400;stroke-width:0.32002"
         d="m 102.06431,35.721723 c 0.0787,-5.631789 0.31866,-6.764789 1.4324,-6.764789 0.54792,0 0.62982,0.245082 0.66845,2.000138 0.0979,4.446961 0.0552,6.5681 -0.16752,8.320556 -0.22132,1.741565 -0.28139,1.840114 -1.12132,1.840114 h -0.88747 z m 1.31024,3.235875 c 0.43995,-2.741207 0.32754,-6.725356 -0.20475,-7.257451 -0.42668,-0.426527 -0.48002,0.03445 -0.48002,4.14888 0,4.716258 0.24687,5.837021 0.68477,3.108571 z m 0.11527,-8.739468 c 0,-0.362406 -0.13773,-0.573812 -0.30605,-0.469776 -0.16833,0.104018 -0.22492,0.400548 -0.12577,0.658926 0.25385,0.661517 0.43182,0.583561 0.43182,-0.18915 z"
         id="path12"
         sodipodi:nodetypes="ssssscsssssssss" />
    </g>
    <g
       id="g14"
       transform="matrix(0.58797008,0,0,0.58797007,-40.916389,-16.892249)">
      <path
         style="fill:#aa4400;fill-opacity:0.5;stroke:none;stroke-width:0.264583px;stroke-linecap:butt;stroke-linejoin:miter;stroke-opacity:1"
         d="m 102.58788,40.813132 -0.27358,-6.819217 0.52389,-4.580324 0.9312,-0.186028 0.2274,7.058376 -0.44403,4.447977 z"
         id="path13" />
      <path
         style="fill:#aa4400;stroke-width:0.32002"
         d="m 102.06431,35.721723 c 0.0787,-5.631789 0.31866,-6.764789 1.4324,-6.764789 0.54792,0 0.62982,0.245082 0.66845,2.000138 0.0979,4.446961 0.0552,6.5681 -0.16752,8.320556 -0.22132,1.741565 -0.28139,1.840114 -1.12132,1.840114 h -0.88747 z m 1.31024,3.235875 c 0.43995,-2.741207 0.32754,-6.725356 -0.20475,-7.257451 -0.42668,-0.426527 -0.48002,0.03445 -0.48002,4.14888 0,4.716258 0.24687,5.837021 0.68477,3.108571 z m 0.11527,-8.739468 c 0,-0.362406 -0.13773,-0.573812 -0.30605,-0.469776 -0.16833,0.104018 -0.22492,0.400548 -0.12577,0.658926 0.25385,0.661517 0.43182,0.583561 0.43182,-0.18915 z"
         id="path14"
         sodipodi:nodetypes="ssssscsssssssss" />
    </g>
    <g
       id="g16"
       transform="matrix(0.58797008,0,0,0.58797007,-39.328888,-16.892249)">
      <path
         style="fill:#aa4400;fill-opacity:0.5;stroke:none;stroke-width:0.264583px;stroke-linecap:butt;stroke-linejoin:miter;stroke-opacity:1"
         d="m 102.58788,40.813132 -0.27358,-6.819217 0.52389,-4.580324 0.9312,-0.186028 0.2274,7.058376 -0.44403,4.447977 z"
         id="path15" />
      <path
         style="fill:#aa4400;stroke-width:0.32002"
         d="m 102.06431,35.721723 c 0.0787,-5.631789 0.31866,-6.764789 1.4324,-6.764789 0.54792,0 0.62982,0.245082 0.66845,2.000138 0.0979,4.446961 0.0552,6.5681 -0.16752,8.320556 -0.22132,1.741565 -0.28139,1.840114 -1.12132,1.840114 h -0.88747 z m 1.31024,3.235875 c 0.43995,-2.741207 0.32754,-6.725356 -0.20475,-7.257451 -0.42668,-0.426527 -0.48002,0.03445 -0.48002,4.14888 0,4.716258 0.24687,5.837021 0.68477,3.108571 z m 0.11527,-8.739468 c 0,-0.362406 -0.13773,-0.573812 -0.30605,-0.469776 -0.16833,0.104018 -0.22492,0.400548 -0.12577,0.658926 0.25385,0.661517 0.43182,0.583561 0.43182,-0.18915 z"
         id="path16"
         sodipodi:nodetypes="ssssscsssssssss" />
    </g>
    <g
       id="g18"
       transform="matrix(0.58797008,0,0,0.58797007,-37.741387,-16.892249)">
      <path
         style="fill:#aa4400;fill-opacity:0.5;stroke:none;stroke-width:0.264583px;stroke-linecap:butt;stroke-linejoin:miter;stroke-opacity:1"
         d="m 102.58788,40.813132 -0.27358,-6.819217 0.52389,-4.580324 0.9312,-0.186028 0.2274,7.058376 -0.44403,4.447977 z"
         id="path17" />
      <path
         style="fill:#aa4400;stroke-width:0.32002"
         d="m 102.06431,35.721723 c 0.0787,-5.631789 0.31866,-6.764789 1.4324,-6.764789 0.54792,0 0.62982,0.245082 0.66845,2.000138 0.0979,4.446961 0.0552,6.5681 -0.16752,8.320556 -0.22132,1.741565 -0.28139,1.840114 -1.12132,1.840114 h -0.88747 z m 1.31024,3.235875 c 0.43995,-2.741207 0.32754,-6.725356 -0.20475,-7.257451 -0.42668,-0.426527 -0.48002,0.03445 -0.48002,4.14888 0,4.716258 0.24687,5.837021 0.68477,3.108571 z m 0.11527,-8.739468 c 0,-0.362406 -0.13773,-0.573812 -0.30605,-0.469776 -0.16833,0.104018 -0.22492,0.400548 -0.12577,0.658926 0.25385,0.661517 0.43182,0.583561 0.43182,-0.18915 z"
         id="path18"
         sodipodi:nodetypes="ssssscsssssssss" />
    </g>
    <g
       id="g20"
       transform="matrix(0.58797008,0,0,0.58797007,-36.153886,-16.892249)">
      <path
         style="fill:#aa4400;fill-opacity:0.5;stroke:none;stroke-width:0.264583px;stroke-linecap:butt;stroke-linejoin:miter;stroke-opacity:1"
         d="m 102.58788,40.813132 -0.27358,-6.819217 0.52389,-4.580324 0.9312,-0.186028 0.2274,7.058376 -0.44403,4.447977 z"
         id="path19" />
      <path
         style="fill:#aa4400;stroke-width:0.32002"
         d="m 102.06431,35.721723 c 0.0787,-5.631789 0.31866,-6.764789 1.4324,-6.764789 0.54792,0 0.62982,0.245082 0.66845,2.000138 0.0979,4.446961 0.0552,6.5681 -0.16752,8.320556 -0.22132,1.741565 -0.28139,1.840114 -1.12132,1.840114 h -0.88747 z m 1.31024,3.235875 c 0.43995,-2.741207 0.32754,-6.725356 -0.20475,-7.257451 -0.42668,-0.426527 -0.48002,0.03445 -0.48002,4.14888 0,4.716258 0.24687,5.837021 0.68477,3.108571 z m 0.11527,-8.739468 c 0,-0.362406 -0.13773,-0.573812 -0.30605,-0.469776 -0.16833,0.104018 -0.22492,0.400548 -0.12577,0.658926 0.25385,0.661517 0.43182,0.583561 0.43182,-0.18915 z"
         id="path20"
         sodipodi:nodetypes="ssssscsssssssss" />
    </g>
  </g>
</svg>
