<?xml version="1.0" encoding="UTF-8" standalone="no"?>
<!-- Created with Inkscape (http://www.inkscape.org/) -->

<svg
   width="54.158001mm"
   height="7.329mm"
   viewBox="0 0 54.158001 7.3290001"
   version="1.1"
   id="svg1"
   inkscape:version="1.4 (e7c3feb100, 2024-10-09)"
   sodipodi:docname="5_1_1_3_9.svg"
   xmlns:inkscape="http://www.inkscape.org/namespaces/inkscape"
   xmlns:sodipodi="http://sodipodi.sourceforge.net/DTD/sodipodi-0.dtd"
   xmlns="http://www.w3.org/2000/svg"
   xmlns:svg="http://www.w3.org/2000/svg">
  <sodipodi:namedview
     id="namedview1"
     pagecolor="#ffffff"
     bordercolor="#000000"
     borderopacity="0.25"
     inkscape:showpageshadow="2"
     inkscape:pageopacity="0.0"
     inkscape:pagecheckerboard="0"
     inkscape:deskcolor="#d1d1d1"
     inkscape:document-units="mm"
     inkscape:zoom="4.8642288"
     inkscape:cx="125.09691"
     inkscape:cy="24.875475"
     inkscape:window-width="1920"
     inkscape:window-height="1014"
     inkscape:window-x="0"
     inkscape:window-y="0"
     inkscape:window-maximized="1"
     inkscape:current-layer="layer1" />
  <defs
     id="defs1">
    <rect
       x="27.795305"
       y="0"
       width="173.57281"
       height="63.574368"
       id="rect1" />
    <marker
       style="overflow:visible"
       id="TriangleOutM-7"
       refX="0"
       refY="0"
       orient="auto"
       inkscape:stockid="TriangleOutM"
       inkscape:isstock="true"
       viewBox="0 0 4.2595265 4.9243081"
       markerWidth="4.2595263"
       markerHeight="4.9243083"
       preserveAspectRatio="xMidYMid">
      <path
         transform="scale(0.4)"
         style="fill:context-stroke;fill-rule:evenodd;stroke:context-stroke;stroke-width:1pt"
         d="M 5.77,0 -2.88,5 V -5 Z"
         id="path8178-6" />
    </marker>
    <marker
       style="overflow:visible"
       id="marker1"
       refX="0"
       refY="0"
       orient="auto"
       inkscape:stockid="TriangleOutM"
       inkscape:isstock="true"
       viewBox="0 0 4.2595265 4.9243081"
       markerWidth="4.2595263"
       markerHeight="4.9243083"
       preserveAspectRatio="xMidYMid">
      <path
         transform="scale(0.4)"
         style="fill:context-stroke;fill-rule:evenodd;stroke:context-stroke;stroke-width:1pt"
         d="M 5.77,0 -2.88,5 V -5 Z"
         id="path1" />
    </marker>
    <marker
       style="overflow:visible"
       id="marker2"
       refX="0"
       refY="0"
       orient="auto"
       inkscape:stockid="TriangleOutM"
       inkscape:isstock="true"
       viewBox="0 0 4.2595265 4.9243081"
       markerWidth="4.2595263"
       markerHeight="4.9243083"
       preserveAspectRatio="xMidYMid">
      <path
         transform="scale(0.4)"
         style="fill:context-stroke;fill-rule:evenodd;stroke:context-stroke;stroke-width:1pt"
         d="M 5.77,0 -2.88,5 V -5 Z"
         id="path2" />
    </marker>
    <marker
       style="overflow:visible"
       id="marker3"
       refX="0"
       refY="0"
       orient="auto"
       inkscape:stockid="TriangleOutM"
       inkscape:isstock="true"
       viewBox="0 0 4.2595265 4.9243081"
       markerWidth="4.2595263"
       markerHeight="4.9243083"
       preserveAspectRatio="xMidYMid">
      <path
         transform="scale(0.4)"
         style="fill:context-stroke;fill-rule:evenodd;stroke:context-stroke;stroke-width:1pt"
         d="M 5.77,0 -2.88,5 V -5 Z"
         id="path3" />
    </marker>
    <marker
       style="overflow:visible"
       id="marker4"
       refX="0"
       refY="0"
       orient="auto"
       inkscape:stockid="TriangleOutM"
       inkscape:isstock="true"
       viewBox="0 0 4.2595265 4.9243081"
       markerWidth="4.2595263"
       markerHeight="4.9243083"
       preserveAspectRatio="xMidYMid">
      <path
         transform="scale(0.4)"
         style="fill:context-stroke;fill-rule:evenodd;stroke:context-stroke;stroke-width:1pt"
         d="M 5.77,0 -2.88,5 V -5 Z"
         id="path4" />
    </marker>
    <marker
       style="overflow:visible"
       id="marker5"
       refX="0"
       refY="0"
       orient="auto"
       inkscape:stockid="TriangleOutM"
       inkscape:isstock="true"
       viewBox="0 0 4.2595265 4.9243081"
       markerWidth="4.2595263"
       markerHeight="4.9243083"
       preserveAspectRatio="xMidYMid">
      <path
         transform="scale(0.4)"
         style="fill:context-stroke;fill-rule:evenodd;stroke:context-stroke;stroke-width:1pt"
         d="M 5.77,0 -2.88,5 V -5 Z"
         id="path5" />
    </marker>
    <marker
       style="overflow:visible"
       id="marker6"
       refX="0"
       refY="0"
       orient="auto"
       inkscape:stockid="TriangleOutM"
       inkscape:isstock="true"
       viewBox="0 0 4.2595265 4.9243081"
       markerWidth="4.2595263"
       markerHeight="4.9243083"
       preserveAspectRatio="xMidYMid">
      <path
         transform="scale(0.4)"
         style="fill:context-stroke;fill-rule:evenodd;stroke:context-stroke;stroke-width:1pt"
         d="M 5.77,0 -2.88,5 V -5 Z"
         id="path6" />
    </marker>
    <rect
       x="27.795305"
       y="0"
       width="173.57281"
       height="63.574368"
       id="rect2" />
    <rect
       x="27.795305"
       y="0"
       width="173.57281"
       height="63.574368"
       id="rect3" />
    <rect
       x="27.795305"
       y="0"
       width="173.57281"
       height="63.574368"
       id="rect4" />
    <rect
       x="27.795305"
       y="0"
       width="173.57281"
       height="63.574368"
       id="rect5" />
    <rect
       x="27.795305"
       y="0"
       width="173.57281"
       height="63.574368"
       id="rect6" />
    <rect
       x="27.795305"
       y="0"
       width="173.57281"
       height="63.574368"
       id="rect7" />
  </defs>
  <g
     inkscape:label="Katman 1"
     inkscape:groupmode="layer"
     id="layer1">
    <g
       id="g36"
       transform="matrix(1.0000454,0,0,1.0000454,-0.98686441,-0.52919107)">
      <g
         id="g1415"
         transform="matrix(0.58797008,0,0,0.58797007,-95.421188,-16.363082)">
        <path
           style="fill:#806600;fill-opacity:0.5;stroke:none;stroke-width:0.264583px;stroke-linecap:butt;stroke-linejoin:miter;stroke-opacity:1"
           d="m 164.90395,40.811024 4.9566,-0.197295 -0.1136,-3.344815 0.74186,-3.262606 -2.09052,-3.7021 -0.98258,4.064315 0.72046,1.511302 -0.12495,2.492322 -2.49605,-1.969778 -0.0125,3.116062 z"
           id="path1411" />
        <path
           style="fill:#806600;stroke-width:0.32002"
           d="m 163.96763,41.098578 c 0,-0.08263 0.29538,-0.445672 0.65641,-0.806685 0.36103,-0.361031 0.58779,-0.901065 0.50392,-1.200083 -0.0838,-0.299018 -0.24671,-1.011814 -0.36187,-1.584001 -0.2901,-1.441356 0.4554,-1.656486 1.90607,-0.550015 l 1.13573,0.866256 -0.005,-1.078053 c -0.006,-1.364403 -0.37714,-1.957007 -1.06075,-1.694692 -0.29395,0.112857 -0.53445,0.05562 -0.53445,-0.126905 0,-0.182596 -0.3235,-0.378023 -0.71887,-0.43427 -0.5736,-0.08161 -0.79376,-0.425645 -1.08936,-1.702356 -0.20377,-0.880062 -0.38431,-1.941764 -0.40119,-2.35934 -0.0259,-0.639744 0.0448,-0.696539 0.4493,-0.360846 0.26401,0.219103 0.48003,0.803407 0.48003,1.298437 0,1.598403 0.53956,2.541816 1.45374,2.541816 0.66033,0 0.79136,-0.120341 0.64235,-0.589763 -0.11078,-0.349249 0.0846,-0.935252 0.47927,-1.437005 0.36654,-0.465987 0.60199,-0.956634 0.52322,-1.090354 -0.19937,-0.338377 0.34068,-1.683192 0.67594,-1.683192 0.15119,0 0.21442,0.412061 0.14051,0.915698 -0.0988,0.673707 0.085,1.135034 0.69547,1.745567 0.45643,0.456433 0.82986,1.12444 0.82986,1.484459 0,0.508103 0.20651,0.65459 0.92273,0.65459 0.98052,0 1.30425,-0.567368 1.31305,-2.301274 0.005,-0.83231 0.50129,-1.468758 0.8639,-1.106139 0.0972,0.09737 -0.0263,1.011778 -0.27447,2.032181 -0.40687,1.672319 -0.55817,1.890187 -1.53431,2.209539 -0.60044,0.196439 -1.19543,0.658443 -1.33547,1.037013 -0.43187,1.167472 -0.11987,4.257446 0.47374,4.691493 0.29199,0.213514 0.53069,0.444326 0.53043,0.512931 -2.5e-4,0.06862 -1.65635,0.156357 -3.68023,0.195 -2.02389,0.03862 -3.67979,0.0028 -3.67979,-0.07994 z m 4.72031,-0.976291 c 0.51393,-0.104371 0.72005,-0.373519 0.72005,-0.9402 0,-0.436675 -0.13207,-0.793956 -0.29348,-0.793956 -0.59356,0 -3.08833,1.207725 -3.48695,1.688048 -0.36285,0.437204 -0.24954,0.477602 0.9646,0.343882 0.75666,-0.08338 1.69975,-0.217321 2.09578,-0.297774 z m -1.58447,-1.796243 c 0.0566,-0.294125 -0.19371,-0.693559 -0.55637,-0.88763 -0.60005,-0.321153 -0.65934,-0.263429 -0.65934,0.641907 0,0.772655 0.12424,0.970859 0.55636,0.887648 0.306,-0.05887 0.60271,-0.34781 0.65935,-0.641925 z m 1.88714,-0.657951 c 0.3896,-0.517732 1.07956,-2.88473 0.89476,-3.069535 -0.078,-0.07799 -0.34927,0.03027 -0.60275,0.240589 -0.37199,0.308729 -0.50133,0.254933 -0.67081,-0.279065 -0.11551,-0.363836 -0.344,-0.578696 -0.50782,-0.477464 -0.1785,0.110314 -0.15561,0.449841 0.0571,0.847353 0.20014,0.373937 0.26867,1.203054 0.1571,1.900695 -0.19694,1.231596 0.0987,1.599786 0.67239,0.837427 z m 0.47956,-5.191667 c -0.54788,-1.202488 -0.97989,-0.978547 -0.57957,0.300448 0.21636,0.691284 0.46036,0.995993 0.64761,0.808727 0.18725,-0.187247 0.16162,-0.605138 -0.0681,-1.109175 z"
           id="path6694"
           sodipodi:nodetypes="sssssccsssssssscssssssscccsssscsssssssssssssssssssssscsscc" />
      </g>
      <g
         id="g1361"
         transform="matrix(0.58797008,0,0,0.58797007,-49.912571,-15.833915)">
        <path
           style="fill:#005500;fill-opacity:0.5;stroke:none;stroke-width:0.264583px;stroke-linecap:butt;stroke-linejoin:miter;stroke-opacity:1"
           d="m 128.30076,32.028497 2.97509,5.146006 -2.02025,1.896486 1.91403,0.313192 1.0363,-1.641938 1.80981,1.441606 3.42186,0.0897 1.54658,-1.742874 -2.45771,-3.250356 -7.04569,-3.298431 z"
           id="path1357" />
        <path
           style="fill:#005500;stroke-width:0.32002"
           d="m 127.9285,39.310535 c -0.10849,-0.175613 0.0639,-0.41155 0.38299,-0.524305 2.72312,-0.961918 3.2177,-1.489788 2.19282,-2.340353 -0.2572,-0.213468 -0.55962,-0.699129 -0.67205,-1.07925 -0.11249,-0.38014 -0.57176,-1.234261 -1.02072,-1.898061 -0.69387,-1.025891 -0.76209,-1.325883 -0.45488,-2.000139 0.5532,-1.214121 1.96848,-1.056363 3.98911,0.444642 0.91651,0.68081 2.35864,1.495563 3.20473,1.810551 3.05103,1.13586 4.90242,4.640689 2.92689,5.540788 -1.31098,0.597331 -3.99989,0.457603 -5.19301,-0.269845 -1.28884,-0.785803 -1.45934,-0.796648 -1.06938,-0.06797 0.278,0.519459 0.10776,0.576783 -1.89184,0.637051 -1.20852,0.0364 -2.28613,-0.07744 -2.39466,-0.253058 z m 3.36348,-0.954824 c 0.35203,-0.352016 0.64003,-0.928056 0.64003,-1.280081 0,-0.352025 0.14401,-0.640041 0.32003,-0.640041 0.176,0 0.32001,0.35496 0.32001,0.788793 0,0.836526 0.7955,1.451349 1.87784,1.451349 0.46009,0 0.66826,-0.247208 0.74109,-0.880053 0.0879,-0.764049 0.25945,-0.893154 1.30133,-0.979383 0.66005,-0.05469 1.20009,0.02312 1.20009,0.172633 0,0.14957 -0.39207,0.266261 -0.87127,0.259335 -0.58016,-0.0084 -0.90878,0.17449 -0.98354,0.547415 -0.0788,0.39338 0.0908,0.560033 0.57014,0.560033 0.37532,0 0.59339,-0.143998 0.48461,-0.320011 -0.11212,-0.181509 0.15669,-0.320029 0.62116,-0.320029 1.84571,0 0.17143,-2.396406 -2.45389,-3.512276 -0.92813,-0.394494 -2.13776,-1.055472 -2.68806,-1.468842 -0.55032,-0.41337 -1.09184,-0.660318 -1.20339,-0.548761 -0.11152,0.11152 -0.39652,-0.06212 -0.63326,-0.385868 -0.28101,-0.38429 -0.62832,-0.512746 -1.00033,-0.369992 -0.52895,0.202985 -0.53227,0.260226 -0.0463,0.797243 0.65212,0.720577 0.68953,1.224297 0.0516,0.694876 -0.46395,-0.385042 0.70864,2.029414 1.61185,3.318919 0.68777,0.981927 0.56836,1.418175 -0.57985,2.118251 -0.69231,0.422107 -0.8528,0.634544 -0.48003,0.635342 0.30802,6.41e-4 0.84805,-0.286827 1.20009,-0.638852 z m 6.31375,0.446703 c -0.10632,-0.106321 -0.38237,-0.117695 -0.61337,-0.02535 -0.2553,0.102208 -0.17947,0.178 0.19333,0.193338 0.33736,0.01384 0.52637,-0.06165 0.42004,-0.168065 z"
           id="path6706"
           sodipodi:nodetypes="scsssssssssssssssssssscssssssssssssssssscsss" />
      </g>
      <g
         id="g8"
         transform="matrix(0.58797008,0,0,0.58797007,-89.600354,-16.363082)">
        <path
           style="fill:#806600;fill-opacity:0.5;stroke:none;stroke-width:0.264583px;stroke-linecap:butt;stroke-linejoin:miter;stroke-opacity:1"
           d="m 164.90395,40.811024 4.9566,-0.197295 -0.1136,-3.344815 0.74186,-3.262606 -2.09052,-3.7021 -0.98258,4.064315 0.72046,1.511302 -0.12495,2.492322 -2.49605,-1.969778 -0.0125,3.116062 z"
           id="path7" />
        <path
           style="fill:#806600;stroke-width:0.32002"
           d="m 163.96763,41.098578 c 0,-0.08263 0.29538,-0.445672 0.65641,-0.806685 0.36103,-0.361031 0.58779,-0.901065 0.50392,-1.200083 -0.0838,-0.299018 -0.24671,-1.011814 -0.36187,-1.584001 -0.2901,-1.441356 0.4554,-1.656486 1.90607,-0.550015 l 1.13573,0.866256 -0.005,-1.078053 c -0.006,-1.364403 -0.37714,-1.957007 -1.06075,-1.694692 -0.29395,0.112857 -0.53445,0.05562 -0.53445,-0.126905 0,-0.182596 -0.3235,-0.378023 -0.71887,-0.43427 -0.5736,-0.08161 -0.79376,-0.425645 -1.08936,-1.702356 -0.20377,-0.880062 -0.38431,-1.941764 -0.40119,-2.35934 -0.0259,-0.639744 0.0448,-0.696539 0.4493,-0.360846 0.26401,0.219103 0.48003,0.803407 0.48003,1.298437 0,1.598403 0.53956,2.541816 1.45374,2.541816 0.66033,0 0.79136,-0.120341 0.64235,-0.589763 -0.11078,-0.349249 0.0846,-0.935252 0.47927,-1.437005 0.36654,-0.465987 0.60199,-0.956634 0.52322,-1.090354 -0.19937,-0.338377 0.34068,-1.683192 0.67594,-1.683192 0.15119,0 0.21442,0.412061 0.14051,0.915698 -0.0988,0.673707 0.085,1.135034 0.69547,1.745567 0.45643,0.456433 0.82986,1.12444 0.82986,1.484459 0,0.508103 0.20651,0.65459 0.92273,0.65459 0.98052,0 1.30425,-0.567368 1.31305,-2.301274 0.005,-0.83231 0.50129,-1.468758 0.8639,-1.106139 0.0972,0.09737 -0.0263,1.011778 -0.27447,2.032181 -0.40687,1.672319 -0.55817,1.890187 -1.53431,2.209539 -0.60044,0.196439 -1.19543,0.658443 -1.33547,1.037013 -0.43187,1.167472 -0.11987,4.257446 0.47374,4.691493 0.29199,0.213514 0.53069,0.444326 0.53043,0.512931 -2.5e-4,0.06862 -1.65635,0.156357 -3.68023,0.195 -2.02389,0.03862 -3.67979,0.0028 -3.67979,-0.07994 z m 4.72031,-0.976291 c 0.51393,-0.104371 0.72005,-0.373519 0.72005,-0.9402 0,-0.436675 -0.13207,-0.793956 -0.29348,-0.793956 -0.59356,0 -3.08833,1.207725 -3.48695,1.688048 -0.36285,0.437204 -0.24954,0.477602 0.9646,0.343882 0.75666,-0.08338 1.69975,-0.217321 2.09578,-0.297774 z m -1.58447,-1.796243 c 0.0566,-0.294125 -0.19371,-0.693559 -0.55637,-0.88763 -0.60005,-0.321153 -0.65934,-0.263429 -0.65934,0.641907 0,0.772655 0.12424,0.970859 0.55636,0.887648 0.306,-0.05887 0.60271,-0.34781 0.65935,-0.641925 z m 1.88714,-0.657951 c 0.3896,-0.517732 1.07956,-2.88473 0.89476,-3.069535 -0.078,-0.07799 -0.34927,0.03027 -0.60275,0.240589 -0.37199,0.308729 -0.50133,0.254933 -0.67081,-0.279065 -0.11551,-0.363836 -0.344,-0.578696 -0.50782,-0.477464 -0.1785,0.110314 -0.15561,0.449841 0.0571,0.847353 0.20014,0.373937 0.26867,1.203054 0.1571,1.900695 -0.19694,1.231596 0.0987,1.599786 0.67239,0.837427 z m 0.47956,-5.191667 c -0.54788,-1.202488 -0.97989,-0.978547 -0.57957,0.300448 0.21636,0.691284 0.46036,0.995993 0.64761,0.808727 0.18725,-0.187247 0.16162,-0.605138 -0.0681,-1.109175 z"
           id="path8"
           sodipodi:nodetypes="sssssccsssssssscssssssscccsssscsssssssssssssssssssssscsscc" />
      </g>
      <g
         id="g10"
         transform="matrix(0.58797008,0,0,0.58797007,-83.250356,-16.363082)">
        <path
           style="fill:#806600;fill-opacity:0.5;stroke:none;stroke-width:0.264583px;stroke-linecap:butt;stroke-linejoin:miter;stroke-opacity:1"
           d="m 164.90395,40.811024 4.9566,-0.197295 -0.1136,-3.344815 0.74186,-3.262606 -2.09052,-3.7021 -0.98258,4.064315 0.72046,1.511302 -0.12495,2.492322 -2.49605,-1.969778 -0.0125,3.116062 z"
           id="path9" />
        <path
           style="fill:#806600;stroke-width:0.32002"
           d="m 163.96763,41.098578 c 0,-0.08263 0.29538,-0.445672 0.65641,-0.806685 0.36103,-0.361031 0.58779,-0.901065 0.50392,-1.200083 -0.0838,-0.299018 -0.24671,-1.011814 -0.36187,-1.584001 -0.2901,-1.441356 0.4554,-1.656486 1.90607,-0.550015 l 1.13573,0.866256 -0.005,-1.078053 c -0.006,-1.364403 -0.37714,-1.957007 -1.06075,-1.694692 -0.29395,0.112857 -0.53445,0.05562 -0.53445,-0.126905 0,-0.182596 -0.3235,-0.378023 -0.71887,-0.43427 -0.5736,-0.08161 -0.79376,-0.425645 -1.08936,-1.702356 -0.20377,-0.880062 -0.38431,-1.941764 -0.40119,-2.35934 -0.0259,-0.639744 0.0448,-0.696539 0.4493,-0.360846 0.26401,0.219103 0.48003,0.803407 0.48003,1.298437 0,1.598403 0.53956,2.541816 1.45374,2.541816 0.66033,0 0.79136,-0.120341 0.64235,-0.589763 -0.11078,-0.349249 0.0846,-0.935252 0.47927,-1.437005 0.36654,-0.465987 0.60199,-0.956634 0.52322,-1.090354 -0.19937,-0.338377 0.34068,-1.683192 0.67594,-1.683192 0.15119,0 0.21442,0.412061 0.14051,0.915698 -0.0988,0.673707 0.085,1.135034 0.69547,1.745567 0.45643,0.456433 0.82986,1.12444 0.82986,1.484459 0,0.508103 0.20651,0.65459 0.92273,0.65459 0.98052,0 1.30425,-0.567368 1.31305,-2.301274 0.005,-0.83231 0.50129,-1.468758 0.8639,-1.106139 0.0972,0.09737 -0.0263,1.011778 -0.27447,2.032181 -0.40687,1.672319 -0.55817,1.890187 -1.53431,2.209539 -0.60044,0.196439 -1.19543,0.658443 -1.33547,1.037013 -0.43187,1.167472 -0.11987,4.257446 0.47374,4.691493 0.29199,0.213514 0.53069,0.444326 0.53043,0.512931 -2.5e-4,0.06862 -1.65635,0.156357 -3.68023,0.195 -2.02389,0.03862 -3.67979,0.0028 -3.67979,-0.07994 z m 4.72031,-0.976291 c 0.51393,-0.104371 0.72005,-0.373519 0.72005,-0.9402 0,-0.436675 -0.13207,-0.793956 -0.29348,-0.793956 -0.59356,0 -3.08833,1.207725 -3.48695,1.688048 -0.36285,0.437204 -0.24954,0.477602 0.9646,0.343882 0.75666,-0.08338 1.69975,-0.217321 2.09578,-0.297774 z m -1.58447,-1.796243 c 0.0566,-0.294125 -0.19371,-0.693559 -0.55637,-0.88763 -0.60005,-0.321153 -0.65934,-0.263429 -0.65934,0.641907 0,0.772655 0.12424,0.970859 0.55636,0.887648 0.306,-0.05887 0.60271,-0.34781 0.65935,-0.641925 z m 1.88714,-0.657951 c 0.3896,-0.517732 1.07956,-2.88473 0.89476,-3.069535 -0.078,-0.07799 -0.34927,0.03027 -0.60275,0.240589 -0.37199,0.308729 -0.50133,0.254933 -0.67081,-0.279065 -0.11551,-0.363836 -0.344,-0.578696 -0.50782,-0.477464 -0.1785,0.110314 -0.15561,0.449841 0.0571,0.847353 0.20014,0.373937 0.26867,1.203054 0.1571,1.900695 -0.19694,1.231596 0.0987,1.599786 0.67239,0.837427 z m 0.47956,-5.191667 c -0.54788,-1.202488 -0.97989,-0.978547 -0.57957,0.300448 0.21636,0.691284 0.46036,0.995993 0.64761,0.808727 0.18725,-0.187247 0.16162,-0.605138 -0.0681,-1.109175 z"
           id="path10"
           sodipodi:nodetypes="sssssccsssssssscssssssscccsssscsssssssssssssssssssssscsscc" />
      </g>
      <g
         id="g12"
         transform="matrix(0.58797008,0,0,0.58797007,-77.429522,-16.363082)">
        <path
           style="fill:#806600;fill-opacity:0.5;stroke:none;stroke-width:0.264583px;stroke-linecap:butt;stroke-linejoin:miter;stroke-opacity:1"
           d="m 164.90395,40.811024 4.9566,-0.197295 -0.1136,-3.344815 0.74186,-3.262606 -2.09052,-3.7021 -0.98258,4.064315 0.72046,1.511302 -0.12495,2.492322 -2.49605,-1.969778 -0.0125,3.116062 z"
           id="path11" />
        <path
           style="fill:#806600;stroke-width:0.32002"
           d="m 163.96763,41.098578 c 0,-0.08263 0.29538,-0.445672 0.65641,-0.806685 0.36103,-0.361031 0.58779,-0.901065 0.50392,-1.200083 -0.0838,-0.299018 -0.24671,-1.011814 -0.36187,-1.584001 -0.2901,-1.441356 0.4554,-1.656486 1.90607,-0.550015 l 1.13573,0.866256 -0.005,-1.078053 c -0.006,-1.364403 -0.37714,-1.957007 -1.06075,-1.694692 -0.29395,0.112857 -0.53445,0.05562 -0.53445,-0.126905 0,-0.182596 -0.3235,-0.378023 -0.71887,-0.43427 -0.5736,-0.08161 -0.79376,-0.425645 -1.08936,-1.702356 -0.20377,-0.880062 -0.38431,-1.941764 -0.40119,-2.35934 -0.0259,-0.639744 0.0448,-0.696539 0.4493,-0.360846 0.26401,0.219103 0.48003,0.803407 0.48003,1.298437 0,1.598403 0.53956,2.541816 1.45374,2.541816 0.66033,0 0.79136,-0.120341 0.64235,-0.589763 -0.11078,-0.349249 0.0846,-0.935252 0.47927,-1.437005 0.36654,-0.465987 0.60199,-0.956634 0.52322,-1.090354 -0.19937,-0.338377 0.34068,-1.683192 0.67594,-1.683192 0.15119,0 0.21442,0.412061 0.14051,0.915698 -0.0988,0.673707 0.085,1.135034 0.69547,1.745567 0.45643,0.456433 0.82986,1.12444 0.82986,1.484459 0,0.508103 0.20651,0.65459 0.92273,0.65459 0.98052,0 1.30425,-0.567368 1.31305,-2.301274 0.005,-0.83231 0.50129,-1.468758 0.8639,-1.106139 0.0972,0.09737 -0.0263,1.011778 -0.27447,2.032181 -0.40687,1.672319 -0.55817,1.890187 -1.53431,2.209539 -0.60044,0.196439 -1.19543,0.658443 -1.33547,1.037013 -0.43187,1.167472 -0.11987,4.257446 0.47374,4.691493 0.29199,0.213514 0.53069,0.444326 0.53043,0.512931 -2.5e-4,0.06862 -1.65635,0.156357 -3.68023,0.195 -2.02389,0.03862 -3.67979,0.0028 -3.67979,-0.07994 z m 4.72031,-0.976291 c 0.51393,-0.104371 0.72005,-0.373519 0.72005,-0.9402 0,-0.436675 -0.13207,-0.793956 -0.29348,-0.793956 -0.59356,0 -3.08833,1.207725 -3.48695,1.688048 -0.36285,0.437204 -0.24954,0.477602 0.9646,0.343882 0.75666,-0.08338 1.69975,-0.217321 2.09578,-0.297774 z m -1.58447,-1.796243 c 0.0566,-0.294125 -0.19371,-0.693559 -0.55637,-0.88763 -0.60005,-0.321153 -0.65934,-0.263429 -0.65934,0.641907 0,0.772655 0.12424,0.970859 0.55636,0.887648 0.306,-0.05887 0.60271,-0.34781 0.65935,-0.641925 z m 1.88714,-0.657951 c 0.3896,-0.517732 1.07956,-2.88473 0.89476,-3.069535 -0.078,-0.07799 -0.34927,0.03027 -0.60275,0.240589 -0.37199,0.308729 -0.50133,0.254933 -0.67081,-0.279065 -0.11551,-0.363836 -0.344,-0.578696 -0.50782,-0.477464 -0.1785,0.110314 -0.15561,0.449841 0.0571,0.847353 0.20014,0.373937 0.26867,1.203054 0.1571,1.900695 -0.19694,1.231596 0.0987,1.599786 0.67239,0.837427 z m 0.47956,-5.191667 c -0.54788,-1.202488 -0.97989,-0.978547 -0.57957,0.300448 0.21636,0.691284 0.46036,0.995993 0.64761,0.808727 0.18725,-0.187247 0.16162,-0.605138 -0.0681,-1.109175 z"
           id="path12"
           sodipodi:nodetypes="sssssccsssssssscssssssscccsssscsssssssssssssssssssssscsscc" />
      </g>
      <g
         id="g19"
         transform="matrix(0.58797008,0,0,0.58797007,-14.46,-16.362844)">
        <path
           style="fill:#800066;fill-opacity:0.5;stroke:none;stroke-width:0.264583px;stroke-linecap:butt;stroke-linejoin:miter;stroke-opacity:1"
           d="m 80.075441,40.521913 3.091323,-0.10029 -1.529226,-2.145506 z"
           id="path17" />
        <path
           style="fill:#800066;fill-opacity:0.5;stroke:none;stroke-width:0.264583px;stroke-linecap:butt;stroke-linejoin:miter;stroke-opacity:1"
           d="m 81.492851,31.923183 1.334011,-0.949182 -0.552485,-0.935736 0.26279,-1.051952 -1.651495,0.347877 -0.944033,1.121222 z"
           id="path18" />
        <path
           style="fill:#800066;stroke-width:0.32002"
           d="m 79.737063,40.641482 c 0.006,-0.132003 0.211171,-0.600032 0.4554,-1.040059 0.385817,-0.695128 0.37782,-0.873508 -0.06096,-1.360089 -0.281529,-0.312221 -0.349796,-0.560042 -0.154263,-0.560042 0.192896,0 0.439736,0.144017 0.548509,0.32002 0.556094,0.899784 0.800056,0.02488 0.800056,-2.868929 0,-2.824167 -0.07076,-3.226804 -0.618371,-3.519898 -0.340097,-0.182011 -0.71701,-0.641749 -0.837588,-1.021638 -0.401782,-1.265894 2.025926,-2.411308 3.343091,-1.577289 0.36304,0.229865 0.324274,0.359713 -0.206358,0.691098 -0.650993,0.406546 -0.651053,0.409944 -0.01802,0.92255 0.626766,0.507518 0.624141,0.520489 -0.19367,0.958167 -0.805727,0.431215 -0.829035,0.532151 -0.829035,3.589822 0,2.854677 0.245788,3.722921 0.800056,2.826117 0.108736,-0.176003 0.355612,-0.32002 0.548508,-0.32002 0.195532,0 0.127268,0.247821 -0.154262,0.560042 -0.438757,0.486581 -0.446752,0.664961 -0.06095,1.360089 0.244228,0.440027 0.449158,0.908056 0.455399,1.040059 0.006,0.132012 -0.852718,0.240022 -1.908794,0.240022 -1.056064,0 -1.915024,-0.10801 -1.908783,-0.240022 z m 2.548829,-0.880054 c -0.219118,-0.264014 -0.535046,-0.480035 -0.702082,-0.480035 -0.167036,0 -0.519711,0.216021 -0.783728,0.480035 -0.426698,0.426703 -0.348684,0.480036 0.702084,0.480036 1.014492,0 1.125624,-0.06815 0.783726,-0.480036 z m -0.125935,-9.439897 c -0.03725,-1.049966 -0.393871,-1.193259 -1.307271,-0.525354 -0.518902,0.379415 -0.537056,0.501325 -0.141177,0.947879 0.771704,0.87049 1.486971,0.661841 1.448448,-0.422525 z"
           id="path19"
           sodipodi:nodetypes="ssssssssssssssssscssssssssssss" />
      </g>
      <g
         id="g22"
         transform="matrix(0.58797008,0,0,0.58797007,-11.814165,-16.362844)">
        <path
           style="fill:#800066;fill-opacity:0.5;stroke:none;stroke-width:0.264583px;stroke-linecap:butt;stroke-linejoin:miter;stroke-opacity:1"
           d="m 80.075441,40.521913 3.091323,-0.10029 -1.529226,-2.145506 z"
           id="path20" />
        <path
           style="fill:#800066;fill-opacity:0.5;stroke:none;stroke-width:0.264583px;stroke-linecap:butt;stroke-linejoin:miter;stroke-opacity:1"
           d="m 81.492851,31.923183 1.334011,-0.949182 -0.552485,-0.935736 0.26279,-1.051952 -1.651495,0.347877 -0.944033,1.121222 z"
           id="path21" />
        <path
           style="fill:#800066;stroke-width:0.32002"
           d="m 79.737063,40.641482 c 0.006,-0.132003 0.211171,-0.600032 0.4554,-1.040059 0.385817,-0.695128 0.37782,-0.873508 -0.06096,-1.360089 -0.281529,-0.312221 -0.349796,-0.560042 -0.154263,-0.560042 0.192896,0 0.439736,0.144017 0.548509,0.32002 0.556094,0.899784 0.800056,0.02488 0.800056,-2.868929 0,-2.824167 -0.07076,-3.226804 -0.618371,-3.519898 -0.340097,-0.182011 -0.71701,-0.641749 -0.837588,-1.021638 -0.401782,-1.265894 2.025926,-2.411308 3.343091,-1.577289 0.36304,0.229865 0.324274,0.359713 -0.206358,0.691098 -0.650993,0.406546 -0.651053,0.409944 -0.01802,0.92255 0.626766,0.507518 0.624141,0.520489 -0.19367,0.958167 -0.805727,0.431215 -0.829035,0.532151 -0.829035,3.589822 0,2.854677 0.245788,3.722921 0.800056,2.826117 0.108736,-0.176003 0.355612,-0.32002 0.548508,-0.32002 0.195532,0 0.127268,0.247821 -0.154262,0.560042 -0.438757,0.486581 -0.446752,0.664961 -0.06095,1.360089 0.244228,0.440027 0.449158,0.908056 0.455399,1.040059 0.006,0.132012 -0.852718,0.240022 -1.908794,0.240022 -1.056064,0 -1.915024,-0.10801 -1.908783,-0.240022 z m 2.548829,-0.880054 c -0.219118,-0.264014 -0.535046,-0.480035 -0.702082,-0.480035 -0.167036,0 -0.519711,0.216021 -0.783728,0.480035 -0.426698,0.426703 -0.348684,0.480036 0.702084,0.480036 1.014492,0 1.125624,-0.06815 0.783726,-0.480036 z m -0.125935,-9.439897 c -0.03725,-1.049966 -0.393871,-1.193259 -1.307271,-0.525354 -0.518902,0.379415 -0.537056,0.501325 -0.141177,0.947879 0.771704,0.87049 1.486971,0.661841 1.448448,-0.422525 z"
           id="path22"
           sodipodi:nodetypes="ssssssssssssssssscssssssssssss" />
      </g>
      <g
         id="g25"
         transform="matrix(0.58797008,0,0,0.58797007,-9.1683306,-16.362844)">
        <path
           style="fill:#800066;fill-opacity:0.5;stroke:none;stroke-width:0.264583px;stroke-linecap:butt;stroke-linejoin:miter;stroke-opacity:1"
           d="m 80.075441,40.521913 3.091323,-0.10029 -1.529226,-2.145506 z"
           id="path23" />
        <path
           style="fill:#800066;fill-opacity:0.5;stroke:none;stroke-width:0.264583px;stroke-linecap:butt;stroke-linejoin:miter;stroke-opacity:1"
           d="m 81.492851,31.923183 1.334011,-0.949182 -0.552485,-0.935736 0.26279,-1.051952 -1.651495,0.347877 -0.944033,1.121222 z"
           id="path24" />
        <path
           style="fill:#800066;stroke-width:0.32002"
           d="m 79.737063,40.641482 c 0.006,-0.132003 0.211171,-0.600032 0.4554,-1.040059 0.385817,-0.695128 0.37782,-0.873508 -0.06096,-1.360089 -0.281529,-0.312221 -0.349796,-0.560042 -0.154263,-0.560042 0.192896,0 0.439736,0.144017 0.548509,0.32002 0.556094,0.899784 0.800056,0.02488 0.800056,-2.868929 0,-2.824167 -0.07076,-3.226804 -0.618371,-3.519898 -0.340097,-0.182011 -0.71701,-0.641749 -0.837588,-1.021638 -0.401782,-1.265894 2.025926,-2.411308 3.343091,-1.577289 0.36304,0.229865 0.324274,0.359713 -0.206358,0.691098 -0.650993,0.406546 -0.651053,0.409944 -0.01802,0.92255 0.626766,0.507518 0.624141,0.520489 -0.19367,0.958167 -0.805727,0.431215 -0.829035,0.532151 -0.829035,3.589822 0,2.854677 0.245788,3.722921 0.800056,2.826117 0.108736,-0.176003 0.355612,-0.32002 0.548508,-0.32002 0.195532,0 0.127268,0.247821 -0.154262,0.560042 -0.438757,0.486581 -0.446752,0.664961 -0.06095,1.360089 0.244228,0.440027 0.449158,0.908056 0.455399,1.040059 0.006,0.132012 -0.852718,0.240022 -1.908794,0.240022 -1.056064,0 -1.915024,-0.10801 -1.908783,-0.240022 z m 2.548829,-0.880054 c -0.219118,-0.264014 -0.535046,-0.480035 -0.702082,-0.480035 -0.167036,0 -0.519711,0.216021 -0.783728,0.480035 -0.426698,0.426703 -0.348684,0.480036 0.702084,0.480036 1.014492,0 1.125624,-0.06815 0.783726,-0.480036 z m -0.125935,-9.439897 c -0.03725,-1.049966 -0.393871,-1.193259 -1.307271,-0.525354 -0.518902,0.379415 -0.537056,0.501325 -0.141177,0.947879 0.771704,0.87049 1.486971,0.661841 1.448448,-0.422525 z"
           id="path25"
           sodipodi:nodetypes="ssssssssssssssssscssssssssssss" />
      </g>
      <g
         id="g28"
         transform="matrix(0.58797008,0,0,0.58797007,-6.5224971,-16.362844)">
        <path
           style="fill:#800066;fill-opacity:0.5;stroke:none;stroke-width:0.264583px;stroke-linecap:butt;stroke-linejoin:miter;stroke-opacity:1"
           d="m 80.075441,40.521913 3.091323,-0.10029 -1.529226,-2.145506 z"
           id="path26" />
        <path
           style="fill:#800066;fill-opacity:0.5;stroke:none;stroke-width:0.264583px;stroke-linecap:butt;stroke-linejoin:miter;stroke-opacity:1"
           d="m 81.492851,31.923183 1.334011,-0.949182 -0.552485,-0.935736 0.26279,-1.051952 -1.651495,0.347877 -0.944033,1.121222 z"
           id="path27" />
        <path
           style="fill:#800066;stroke-width:0.32002"
           d="m 79.737063,40.641482 c 0.006,-0.132003 0.211171,-0.600032 0.4554,-1.040059 0.385817,-0.695128 0.37782,-0.873508 -0.06096,-1.360089 -0.281529,-0.312221 -0.349796,-0.560042 -0.154263,-0.560042 0.192896,0 0.439736,0.144017 0.548509,0.32002 0.556094,0.899784 0.800056,0.02488 0.800056,-2.868929 0,-2.824167 -0.07076,-3.226804 -0.618371,-3.519898 -0.340097,-0.182011 -0.71701,-0.641749 -0.837588,-1.021638 -0.401782,-1.265894 2.025926,-2.411308 3.343091,-1.577289 0.36304,0.229865 0.324274,0.359713 -0.206358,0.691098 -0.650993,0.406546 -0.651053,0.409944 -0.01802,0.92255 0.626766,0.507518 0.624141,0.520489 -0.19367,0.958167 -0.805727,0.431215 -0.829035,0.532151 -0.829035,3.589822 0,2.854677 0.245788,3.722921 0.800056,2.826117 0.108736,-0.176003 0.355612,-0.32002 0.548508,-0.32002 0.195532,0 0.127268,0.247821 -0.154262,0.560042 -0.438757,0.486581 -0.446752,0.664961 -0.06095,1.360089 0.244228,0.440027 0.449158,0.908056 0.455399,1.040059 0.006,0.132012 -0.852718,0.240022 -1.908794,0.240022 -1.056064,0 -1.915024,-0.10801 -1.908783,-0.240022 z m 2.548829,-0.880054 c -0.219118,-0.264014 -0.535046,-0.480035 -0.702082,-0.480035 -0.167036,0 -0.519711,0.216021 -0.783728,0.480035 -0.426698,0.426703 -0.348684,0.480036 0.702084,0.480036 1.014492,0 1.125624,-0.06815 0.783726,-0.480036 z m -0.125935,-9.439897 c -0.03725,-1.049966 -0.393871,-1.193259 -1.307271,-0.525354 -0.518902,0.379415 -0.537056,0.501325 -0.141177,0.947879 0.771704,0.87049 1.486971,0.661841 1.448448,-0.422525 z"
           id="path28"
           sodipodi:nodetypes="ssssssssssssssssscssssssssssss" />
      </g>
      <g
         id="g31"
         transform="matrix(0.58797008,0,0,0.58797007,-3.8766636,-16.362844)">
        <path
           style="fill:#800066;fill-opacity:0.5;stroke:none;stroke-width:0.264583px;stroke-linecap:butt;stroke-linejoin:miter;stroke-opacity:1"
           d="m 80.075441,40.521913 3.091323,-0.10029 -1.529226,-2.145506 z"
           id="path29" />
        <path
           style="fill:#800066;fill-opacity:0.5;stroke:none;stroke-width:0.264583px;stroke-linecap:butt;stroke-linejoin:miter;stroke-opacity:1"
           d="m 81.492851,31.923183 1.334011,-0.949182 -0.552485,-0.935736 0.26279,-1.051952 -1.651495,0.347877 -0.944033,1.121222 z"
           id="path30" />
        <path
           style="fill:#800066;stroke-width:0.32002"
           d="m 79.737063,40.641482 c 0.006,-0.132003 0.211171,-0.600032 0.4554,-1.040059 0.385817,-0.695128 0.37782,-0.873508 -0.06096,-1.360089 -0.281529,-0.312221 -0.349796,-0.560042 -0.154263,-0.560042 0.192896,0 0.439736,0.144017 0.548509,0.32002 0.556094,0.899784 0.800056,0.02488 0.800056,-2.868929 0,-2.824167 -0.07076,-3.226804 -0.618371,-3.519898 -0.340097,-0.182011 -0.71701,-0.641749 -0.837588,-1.021638 -0.401782,-1.265894 2.025926,-2.411308 3.343091,-1.577289 0.36304,0.229865 0.324274,0.359713 -0.206358,0.691098 -0.650993,0.406546 -0.651053,0.409944 -0.01802,0.92255 0.626766,0.507518 0.624141,0.520489 -0.19367,0.958167 -0.805727,0.431215 -0.829035,0.532151 -0.829035,3.589822 0,2.854677 0.245788,3.722921 0.800056,2.826117 0.108736,-0.176003 0.355612,-0.32002 0.548508,-0.32002 0.195532,0 0.127268,0.247821 -0.154262,0.560042 -0.438757,0.486581 -0.446752,0.664961 -0.06095,1.360089 0.244228,0.440027 0.449158,0.908056 0.455399,1.040059 0.006,0.132012 -0.852718,0.240022 -1.908794,0.240022 -1.056064,0 -1.915024,-0.10801 -1.908783,-0.240022 z m 2.548829,-0.880054 c -0.219118,-0.264014 -0.535046,-0.480035 -0.702082,-0.480035 -0.167036,0 -0.519711,0.216021 -0.783728,0.480035 -0.426698,0.426703 -0.348684,0.480036 0.702084,0.480036 1.014492,0 1.125624,-0.06815 0.783726,-0.480036 z m -0.125935,-9.439897 c -0.03725,-1.049966 -0.393871,-1.193259 -1.307271,-0.525354 -0.518902,0.379415 -0.537056,0.501325 -0.141177,0.947879 0.771704,0.87049 1.486971,0.661841 1.448448,-0.422525 z"
           id="path31"
           sodipodi:nodetypes="ssssssssssssssssscssssssssssss" />
      </g>
      <path
         style="fill:#442178;stroke-width:0.258111"
         d="M 47.936111,5.773118 C 47.767414,5.453705 47.298725,4.78841 46.894534,4.294692 46.051053,3.2640851 45.950155,2.2358081 46.63184,1.6187921 c 1.004277,-0.90879003 2.21665,-0.296843 2.063253,1.041376 -0.066,0.579527 -0.212895,0.725414 -0.728483,0.725414 -0.493589,0 -0.665185,-0.151677 -0.730084,-0.645285 -0.083,-0.628436 -0.075,-0.631796 0.305193,-0.129047 0.45509,0.602206 1.065776,0.237894 0.792883,-0.47306 -0.290794,-0.757863 -1.658563,-0.353892 -1.658563,0.489849 0,0.165376 0.46439,0.984238 1.031877,1.8196789 0.567487,0.835441 1.032076,1.6060937 1.032376,1.7125617 0,0.4125501 -0.512388,0.1652361 -0.804181,-0.3871617 z"
         id="path32"
         sodipodi:nodetypes="ssssssssssss" />
      <path
         style="fill:#442178;stroke-width:0.258111"
         d="M 51.11111,5.773118 C 50.942413,5.453705 50.473724,4.78841 50.069533,4.294692 49.226052,3.2640851 49.125154,2.2358081 49.806839,1.6187921 c 1.004277,-0.90879003 2.21665,-0.296843 2.063253,1.041376 -0.066,0.579527 -0.212895,0.725414 -0.728483,0.725414 -0.493589,0 -0.665185,-0.151677 -0.730084,-0.645285 -0.083,-0.628436 -0.075,-0.631796 0.305193,-0.129047 0.45509,0.602206 1.065776,0.237894 0.792883,-0.47306 -0.290794,-0.757863 -1.658563,-0.353892 -1.658563,0.489849 0,0.165376 0.46439,0.984238 1.031877,1.8196789 0.567487,0.835441 1.032076,1.6060937 1.032376,1.7125617 0,0.4125501 -0.512388,0.1652361 -0.804181,-0.3871617 z"
         id="path33"
         sodipodi:nodetypes="ssssssssssss" />
      <path
         style="fill:#217821;stroke-width:0.258111"
         d="m 52.511981,3.7482641 c 0,-1.204523 0.107598,-2.064894 0.258095,-2.064894 0.150596,0 0.258094,0.860371 0.258094,2.064894 0,1.2045229 -0.107498,2.0648929 -0.258094,2.0648929 -0.150497,0 -0.258095,-0.86037 -0.258095,-2.0648929 z"
         id="path34"
         sodipodi:nodetypes="sssss" />
      <path
         style="fill:#217821;stroke-width:0.258111"
         d="m 53.570315,3.7482641 c 0,-1.204523 0.107598,-2.064894 0.258095,-2.064894 0.150596,0 0.258094,0.860371 0.258094,2.064894 0,1.2045229 -0.107498,2.0648929 -0.258094,2.0648929 -0.150497,0 -0.258095,-0.86037 -0.258095,-2.0648929 z"
         id="path35"
         sodipodi:nodetypes="sssss" />
      <path
         style="fill:#217821;stroke-width:0.258111"
         d="m 54.628649,3.7482641 c 0,-1.204523 0.107598,-2.064894 0.258095,-2.064894 0.150596,0 0.258094,0.860371 0.258094,2.064894 0,1.2045229 -0.107498,2.0648929 -0.258094,2.0648929 -0.150497,0 -0.258095,-0.86037 -0.258095,-2.0648929 z"
         id="path36"
         sodipodi:nodetypes="sssss" />
    </g>
  </g>
</svg>
