<?xml version="1.0" encoding="UTF-8" standalone="no"?>
<!-- Created with Inkscape (http://www.inkscape.org/) -->

<svg
   width="43.577mm"
   height="7.329mm"
   viewBox="0 0 43.577 7.3290001"
   version="1.1"
   id="svg1"
   inkscape:version="1.4 (e7c3feb100, 2024-10-09)"
   sodipodi:docname="5_1_1_3_14.svg"
   xmlns:inkscape="http://www.inkscape.org/namespaces/inkscape"
   xmlns:sodipodi="http://sodipodi.sourceforge.net/DTD/sodipodi-0.dtd"
   xmlns="http://www.w3.org/2000/svg"
   xmlns:svg="http://www.w3.org/2000/svg">
  <sodipodi:namedview
     id="namedview1"
     pagecolor="#ffffff"
     bordercolor="#000000"
     borderopacity="0.25"
     inkscape:showpageshadow="2"
     inkscape:pageopacity="0.0"
     inkscape:pagecheckerboard="0"
     inkscape:deskcolor="#d1d1d1"
     inkscape:document-units="mm"
     inkscape:zoom="4.8642288"
     inkscape:cx="125.09691"
     inkscape:cy="24.875475"
     inkscape:window-width="1920"
     inkscape:window-height="1014"
     inkscape:window-x="0"
     inkscape:window-y="0"
     inkscape:window-maximized="1"
     inkscape:current-layer="layer1" />
  <defs
     id="defs1">
    <rect
       x="27.795305"
       y="0"
       width="173.57281"
       height="63.574368"
       id="rect1" />
    <marker
       style="overflow:visible"
       id="TriangleOutM-7"
       refX="0"
       refY="0"
       orient="auto"
       inkscape:stockid="TriangleOutM"
       inkscape:isstock="true"
       viewBox="0 0 4.2595265 4.9243081"
       markerWidth="4.2595263"
       markerHeight="4.9243083"
       preserveAspectRatio="xMidYMid">
      <path
         transform="scale(0.4)"
         style="fill:context-stroke;fill-rule:evenodd;stroke:context-stroke;stroke-width:1pt"
         d="M 5.77,0 -2.88,5 V -5 Z"
         id="path8178-6" />
    </marker>
    <marker
       style="overflow:visible"
       id="marker1"
       refX="0"
       refY="0"
       orient="auto"
       inkscape:stockid="TriangleOutM"
       inkscape:isstock="true"
       viewBox="0 0 4.2595265 4.9243081"
       markerWidth="4.2595263"
       markerHeight="4.9243083"
       preserveAspectRatio="xMidYMid">
      <path
         transform="scale(0.4)"
         style="fill:context-stroke;fill-rule:evenodd;stroke:context-stroke;stroke-width:1pt"
         d="M 5.77,0 -2.88,5 V -5 Z"
         id="path1" />
    </marker>
    <marker
       style="overflow:visible"
       id="marker2"
       refX="0"
       refY="0"
       orient="auto"
       inkscape:stockid="TriangleOutM"
       inkscape:isstock="true"
       viewBox="0 0 4.2595265 4.9243081"
       markerWidth="4.2595263"
       markerHeight="4.9243083"
       preserveAspectRatio="xMidYMid">
      <path
         transform="scale(0.4)"
         style="fill:context-stroke;fill-rule:evenodd;stroke:context-stroke;stroke-width:1pt"
         d="M 5.77,0 -2.88,5 V -5 Z"
         id="path2" />
    </marker>
    <marker
       style="overflow:visible"
       id="marker3"
       refX="0"
       refY="0"
       orient="auto"
       inkscape:stockid="TriangleOutM"
       inkscape:isstock="true"
       viewBox="0 0 4.2595265 4.9243081"
       markerWidth="4.2595263"
       markerHeight="4.9243083"
       preserveAspectRatio="xMidYMid">
      <path
         transform="scale(0.4)"
         style="fill:context-stroke;fill-rule:evenodd;stroke:context-stroke;stroke-width:1pt"
         d="M 5.77,0 -2.88,5 V -5 Z"
         id="path3" />
    </marker>
    <marker
       style="overflow:visible"
       id="marker4"
       refX="0"
       refY="0"
       orient="auto"
       inkscape:stockid="TriangleOutM"
       inkscape:isstock="true"
       viewBox="0 0 4.2595265 4.9243081"
       markerWidth="4.2595263"
       markerHeight="4.9243083"
       preserveAspectRatio="xMidYMid">
      <path
         transform="scale(0.4)"
         style="fill:context-stroke;fill-rule:evenodd;stroke:context-stroke;stroke-width:1pt"
         d="M 5.77,0 -2.88,5 V -5 Z"
         id="path4" />
    </marker>
    <marker
       style="overflow:visible"
       id="marker5"
       refX="0"
       refY="0"
       orient="auto"
       inkscape:stockid="TriangleOutM"
       inkscape:isstock="true"
       viewBox="0 0 4.2595265 4.9243081"
       markerWidth="4.2595263"
       markerHeight="4.9243083"
       preserveAspectRatio="xMidYMid">
      <path
         transform="scale(0.4)"
         style="fill:context-stroke;fill-rule:evenodd;stroke:context-stroke;stroke-width:1pt"
         d="M 5.77,0 -2.88,5 V -5 Z"
         id="path5" />
    </marker>
    <marker
       style="overflow:visible"
       id="marker6"
       refX="0"
       refY="0"
       orient="auto"
       inkscape:stockid="TriangleOutM"
       inkscape:isstock="true"
       viewBox="0 0 4.2595265 4.9243081"
       markerWidth="4.2595263"
       markerHeight="4.9243083"
       preserveAspectRatio="xMidYMid">
      <path
         transform="scale(0.4)"
         style="fill:context-stroke;fill-rule:evenodd;stroke:context-stroke;stroke-width:1pt"
         d="M 5.77,0 -2.88,5 V -5 Z"
         id="path6" />
    </marker>
    <rect
       x="27.795305"
       y="0"
       width="173.57281"
       height="63.574368"
       id="rect2" />
    <rect
       x="27.795305"
       y="0"
       width="173.57281"
       height="63.574368"
       id="rect3" />
    <rect
       x="27.795305"
       y="0"
       width="173.57281"
       height="63.574368"
       id="rect4" />
    <rect
       x="27.795305"
       y="0"
       width="173.57281"
       height="63.574368"
       id="rect5" />
    <rect
       x="27.795305"
       y="0"
       width="173.57281"
       height="63.574368"
       id="rect6" />
    <rect
       x="27.795305"
       y="0"
       width="173.57281"
       height="63.574368"
       id="rect7" />
  </defs>
  <g
     inkscape:label="Katman 1"
     inkscape:groupmode="layer"
     id="layer1">
    <g
       id="g30">
      <path
         style="fill:#006680;stroke-width:0.258111"
         d="m 19.56816,4.1599151 c 0,-1.414159 0.522995,-2.104893 1.593571,-2.104893 0.974878,0 1.503866,0.756153 1.503866,2.149742 0,1.5646439 -0.464089,1.5696539 -0.566687,0.006 -0.148197,-2.260639 -1.815859,-2.260639 -1.964056,0 -0.104197,1.5883639 -0.566694,1.5467649 -0.566694,-0.0509 z"
         id="path6696"
         sodipodi:nodetypes="csssscc" />
      <g
         id="g1415"
         transform="matrix(0.58799677,0,0,0.58799676,-96.412385,-16.893016)">
        <path
           style="fill:#806600;fill-opacity:0.5;stroke:none;stroke-width:0.264583px;stroke-linecap:butt;stroke-linejoin:miter;stroke-opacity:1"
           d="m 164.90395,40.811024 4.9566,-0.197295 -0.1136,-3.344815 0.74186,-3.262606 -2.09052,-3.7021 -0.98258,4.064315 0.72046,1.511302 -0.12495,2.492322 -2.49605,-1.969778 -0.0125,3.116062 z"
           id="path1411" />
        <path
           style="fill:#806600;stroke-width:0.32002"
           d="m 163.96763,41.098578 c 0,-0.08263 0.29538,-0.445672 0.65641,-0.806685 0.36103,-0.361031 0.58779,-0.901065 0.50392,-1.200083 -0.0838,-0.299018 -0.24671,-1.011814 -0.36187,-1.584001 -0.2901,-1.441356 0.4554,-1.656486 1.90607,-0.550015 l 1.13573,0.866256 -0.005,-1.078053 c -0.006,-1.364403 -0.37714,-1.957007 -1.06075,-1.694692 -0.29395,0.112857 -0.53445,0.05562 -0.53445,-0.126905 0,-0.182596 -0.3235,-0.378023 -0.71887,-0.43427 -0.5736,-0.08161 -0.79376,-0.425645 -1.08936,-1.702356 -0.20377,-0.880062 -0.38431,-1.941764 -0.40119,-2.35934 -0.0259,-0.639744 0.0448,-0.696539 0.4493,-0.360846 0.26401,0.219103 0.48003,0.803407 0.48003,1.298437 0,1.598403 0.53956,2.541816 1.45374,2.541816 0.66033,0 0.79136,-0.120341 0.64235,-0.589763 -0.11078,-0.349249 0.0846,-0.935252 0.47927,-1.437005 0.36654,-0.465987 0.60199,-0.956634 0.52322,-1.090354 -0.19937,-0.338377 0.34068,-1.683192 0.67594,-1.683192 0.15119,0 0.21442,0.412061 0.14051,0.915698 -0.0988,0.673707 0.085,1.135034 0.69547,1.745567 0.45643,0.456433 0.82986,1.12444 0.82986,1.484459 0,0.508103 0.20651,0.65459 0.92273,0.65459 0.98052,0 1.30425,-0.567368 1.31305,-2.301274 0.005,-0.83231 0.50129,-1.468758 0.8639,-1.106139 0.0972,0.09737 -0.0263,1.011778 -0.27447,2.032181 -0.40687,1.672319 -0.55817,1.890187 -1.53431,2.209539 -0.60044,0.196439 -1.19543,0.658443 -1.33547,1.037013 -0.43187,1.167472 -0.11987,4.257446 0.47374,4.691493 0.29199,0.213514 0.53069,0.444326 0.53043,0.512931 -2.5e-4,0.06862 -1.65635,0.156357 -3.68023,0.195 -2.02389,0.03862 -3.67979,0.0028 -3.67979,-0.07994 z m 4.72031,-0.976291 c 0.51393,-0.104371 0.72005,-0.373519 0.72005,-0.9402 0,-0.436675 -0.13207,-0.793956 -0.29348,-0.793956 -0.59356,0 -3.08833,1.207725 -3.48695,1.688048 -0.36285,0.437204 -0.24954,0.477602 0.9646,0.343882 0.75666,-0.08338 1.69975,-0.217321 2.09578,-0.297774 z m -1.58447,-1.796243 c 0.0566,-0.294125 -0.19371,-0.693559 -0.55637,-0.88763 -0.60005,-0.321153 -0.65934,-0.263429 -0.65934,0.641907 0,0.772655 0.12424,0.970859 0.55636,0.887648 0.306,-0.05887 0.60271,-0.34781 0.65935,-0.641925 z m 1.88714,-0.657951 c 0.3896,-0.517732 1.07956,-2.88473 0.89476,-3.069535 -0.078,-0.07799 -0.34927,0.03027 -0.60275,0.240589 -0.37199,0.308729 -0.50133,0.254933 -0.67081,-0.279065 -0.11551,-0.363836 -0.344,-0.578696 -0.50782,-0.477464 -0.1785,0.110314 -0.15561,0.449841 0.0571,0.847353 0.20014,0.373937 0.26867,1.203054 0.1571,1.900695 -0.19694,1.231596 0.0987,1.599786 0.67239,0.837427 z m 0.47956,-5.191667 c -0.54788,-1.202488 -0.97989,-0.978547 -0.57957,0.300448 0.21636,0.691284 0.46036,0.995993 0.64761,0.808727 0.18725,-0.187247 0.16162,-0.605138 -0.0681,-1.109175 z"
           id="path6694"
           sodipodi:nodetypes="sssssccsssssssscssssssscccsssscsssssssssssssssssssssscsscc" />
      </g>
      <g
         id="g8"
         transform="matrix(0.58799677,0,0,0.58799676,-90.591286,-16.893016)">
        <path
           style="fill:#806600;fill-opacity:0.5;stroke:none;stroke-width:0.264583px;stroke-linecap:butt;stroke-linejoin:miter;stroke-opacity:1"
           d="m 164.90395,40.811024 4.9566,-0.197295 -0.1136,-3.344815 0.74186,-3.262606 -2.09052,-3.7021 -0.98258,4.064315 0.72046,1.511302 -0.12495,2.492322 -2.49605,-1.969778 -0.0125,3.116062 z"
           id="path7" />
        <path
           style="fill:#806600;stroke-width:0.32002"
           d="m 163.96763,41.098578 c 0,-0.08263 0.29538,-0.445672 0.65641,-0.806685 0.36103,-0.361031 0.58779,-0.901065 0.50392,-1.200083 -0.0838,-0.299018 -0.24671,-1.011814 -0.36187,-1.584001 -0.2901,-1.441356 0.4554,-1.656486 1.90607,-0.550015 l 1.13573,0.866256 -0.005,-1.078053 c -0.006,-1.364403 -0.37714,-1.957007 -1.06075,-1.694692 -0.29395,0.112857 -0.53445,0.05562 -0.53445,-0.126905 0,-0.182596 -0.3235,-0.378023 -0.71887,-0.43427 -0.5736,-0.08161 -0.79376,-0.425645 -1.08936,-1.702356 -0.20377,-0.880062 -0.38431,-1.941764 -0.40119,-2.35934 -0.0259,-0.639744 0.0448,-0.696539 0.4493,-0.360846 0.26401,0.219103 0.48003,0.803407 0.48003,1.298437 0,1.598403 0.53956,2.541816 1.45374,2.541816 0.66033,0 0.79136,-0.120341 0.64235,-0.589763 -0.11078,-0.349249 0.0846,-0.935252 0.47927,-1.437005 0.36654,-0.465987 0.60199,-0.956634 0.52322,-1.090354 -0.19937,-0.338377 0.34068,-1.683192 0.67594,-1.683192 0.15119,0 0.21442,0.412061 0.14051,0.915698 -0.0988,0.673707 0.085,1.135034 0.69547,1.745567 0.45643,0.456433 0.82986,1.12444 0.82986,1.484459 0,0.508103 0.20651,0.65459 0.92273,0.65459 0.98052,0 1.30425,-0.567368 1.31305,-2.301274 0.005,-0.83231 0.50129,-1.468758 0.8639,-1.106139 0.0972,0.09737 -0.0263,1.011778 -0.27447,2.032181 -0.40687,1.672319 -0.55817,1.890187 -1.53431,2.209539 -0.60044,0.196439 -1.19543,0.658443 -1.33547,1.037013 -0.43187,1.167472 -0.11987,4.257446 0.47374,4.691493 0.29199,0.213514 0.53069,0.444326 0.53043,0.512931 -2.5e-4,0.06862 -1.65635,0.156357 -3.68023,0.195 -2.02389,0.03862 -3.67979,0.0028 -3.67979,-0.07994 z m 4.72031,-0.976291 c 0.51393,-0.104371 0.72005,-0.373519 0.72005,-0.9402 0,-0.436675 -0.13207,-0.793956 -0.29348,-0.793956 -0.59356,0 -3.08833,1.207725 -3.48695,1.688048 -0.36285,0.437204 -0.24954,0.477602 0.9646,0.343882 0.75666,-0.08338 1.69975,-0.217321 2.09578,-0.297774 z m -1.58447,-1.796243 c 0.0566,-0.294125 -0.19371,-0.693559 -0.55637,-0.88763 -0.60005,-0.321153 -0.65934,-0.263429 -0.65934,0.641907 0,0.772655 0.12424,0.970859 0.55636,0.887648 0.306,-0.05887 0.60271,-0.34781 0.65935,-0.641925 z m 1.88714,-0.657951 c 0.3896,-0.517732 1.07956,-2.88473 0.89476,-3.069535 -0.078,-0.07799 -0.34927,0.03027 -0.60275,0.240589 -0.37199,0.308729 -0.50133,0.254933 -0.67081,-0.279065 -0.11551,-0.363836 -0.344,-0.578696 -0.50782,-0.477464 -0.1785,0.110314 -0.15561,0.449841 0.0571,0.847353 0.20014,0.373937 0.26867,1.203054 0.1571,1.900695 -0.19694,1.231596 0.0987,1.599786 0.67239,0.837427 z m 0.47956,-5.191667 c -0.54788,-1.202488 -0.97989,-0.978547 -0.57957,0.300448 0.21636,0.691284 0.46036,0.995993 0.64761,0.808727 0.18725,-0.187247 0.16162,-0.605138 -0.0681,-1.109175 z"
           id="path8"
           sodipodi:nodetypes="sssssccsssssssscssssssscccsssscsssssssssssssssssssssscsscc" />
      </g>
      <g
         id="g19"
         transform="matrix(0.58799677,0,0,0.58799676,-35.026688,-16.892778)">
        <path
           style="fill:#800066;fill-opacity:0.5;stroke:none;stroke-width:0.264583px;stroke-linecap:butt;stroke-linejoin:miter;stroke-opacity:1"
           d="m 80.075441,40.521913 3.091323,-0.10029 -1.529226,-2.145506 z"
           id="path17" />
        <path
           style="fill:#800066;fill-opacity:0.5;stroke:none;stroke-width:0.264583px;stroke-linecap:butt;stroke-linejoin:miter;stroke-opacity:1"
           d="m 81.492851,31.923183 1.334011,-0.949182 -0.552485,-0.935736 0.26279,-1.051952 -1.651495,0.347877 -0.944033,1.121222 z"
           id="path18" />
        <path
           style="fill:#800066;stroke-width:0.32002"
           d="m 79.737063,40.641482 c 0.006,-0.132003 0.211171,-0.600032 0.4554,-1.040059 0.385817,-0.695128 0.37782,-0.873508 -0.06096,-1.360089 -0.281529,-0.312221 -0.349796,-0.560042 -0.154263,-0.560042 0.192896,0 0.439736,0.144017 0.548509,0.32002 0.556094,0.899784 0.800056,0.02488 0.800056,-2.868929 0,-2.824167 -0.07076,-3.226804 -0.618371,-3.519898 -0.340097,-0.182011 -0.71701,-0.641749 -0.837588,-1.021638 -0.401782,-1.265894 2.025926,-2.411308 3.343091,-1.577289 0.36304,0.229865 0.324274,0.359713 -0.206358,0.691098 -0.650993,0.406546 -0.651053,0.409944 -0.01802,0.92255 0.626766,0.507518 0.624141,0.520489 -0.19367,0.958167 -0.805727,0.431215 -0.829035,0.532151 -0.829035,3.589822 0,2.854677 0.245788,3.722921 0.800056,2.826117 0.108736,-0.176003 0.355612,-0.32002 0.548508,-0.32002 0.195532,0 0.127268,0.247821 -0.154262,0.560042 -0.438757,0.486581 -0.446752,0.664961 -0.06095,1.360089 0.244228,0.440027 0.449158,0.908056 0.455399,1.040059 0.006,0.132012 -0.852718,0.240022 -1.908794,0.240022 -1.056064,0 -1.915024,-0.10801 -1.908783,-0.240022 z m 2.548829,-0.880054 c -0.219118,-0.264014 -0.535046,-0.480035 -0.702082,-0.480035 -0.167036,0 -0.519711,0.216021 -0.783728,0.480035 -0.426698,0.426703 -0.348684,0.480036 0.702084,0.480036 1.014492,0 1.125624,-0.06815 0.783726,-0.480036 z m -0.125935,-9.439897 c -0.03725,-1.049966 -0.393871,-1.193259 -1.307271,-0.525354 -0.518902,0.379415 -0.537056,0.501325 -0.141177,0.947879 0.771704,0.87049 1.486971,0.661841 1.448448,-0.422525 z"
           id="path19"
           sodipodi:nodetypes="ssssssssssssssssscssssssssssss" />
      </g>
      <g
         id="g22"
         transform="matrix(0.58799677,0,0,0.58799676,-32.380733,-16.892778)">
        <path
           style="fill:#800066;fill-opacity:0.5;stroke:none;stroke-width:0.264583px;stroke-linecap:butt;stroke-linejoin:miter;stroke-opacity:1"
           d="m 80.075441,40.521913 3.091323,-0.10029 -1.529226,-2.145506 z"
           id="path20" />
        <path
           style="fill:#800066;fill-opacity:0.5;stroke:none;stroke-width:0.264583px;stroke-linecap:butt;stroke-linejoin:miter;stroke-opacity:1"
           d="m 81.492851,31.923183 1.334011,-0.949182 -0.552485,-0.935736 0.26279,-1.051952 -1.651495,0.347877 -0.944033,1.121222 z"
           id="path21" />
        <path
           style="fill:#800066;stroke-width:0.32002"
           d="m 79.737063,40.641482 c 0.006,-0.132003 0.211171,-0.600032 0.4554,-1.040059 0.385817,-0.695128 0.37782,-0.873508 -0.06096,-1.360089 -0.281529,-0.312221 -0.349796,-0.560042 -0.154263,-0.560042 0.192896,0 0.439736,0.144017 0.548509,0.32002 0.556094,0.899784 0.800056,0.02488 0.800056,-2.868929 0,-2.824167 -0.07076,-3.226804 -0.618371,-3.519898 -0.340097,-0.182011 -0.71701,-0.641749 -0.837588,-1.021638 -0.401782,-1.265894 2.025926,-2.411308 3.343091,-1.577289 0.36304,0.229865 0.324274,0.359713 -0.206358,0.691098 -0.650993,0.406546 -0.651053,0.409944 -0.01802,0.92255 0.626766,0.507518 0.624141,0.520489 -0.19367,0.958167 -0.805727,0.431215 -0.829035,0.532151 -0.829035,3.589822 0,2.854677 0.245788,3.722921 0.800056,2.826117 0.108736,-0.176003 0.355612,-0.32002 0.548508,-0.32002 0.195532,0 0.127268,0.247821 -0.154262,0.560042 -0.438757,0.486581 -0.446752,0.664961 -0.06095,1.360089 0.244228,0.440027 0.449158,0.908056 0.455399,1.040059 0.006,0.132012 -0.852718,0.240022 -1.908794,0.240022 -1.056064,0 -1.915024,-0.10801 -1.908783,-0.240022 z m 2.548829,-0.880054 c -0.219118,-0.264014 -0.535046,-0.480035 -0.702082,-0.480035 -0.167036,0 -0.519711,0.216021 -0.783728,0.480035 -0.426698,0.426703 -0.348684,0.480036 0.702084,0.480036 1.014492,0 1.125624,-0.06815 0.783726,-0.480036 z m -0.125935,-9.439897 c -0.03725,-1.049966 -0.393871,-1.193259 -1.307271,-0.525354 -0.518902,0.379415 -0.537056,0.501325 -0.141177,0.947879 0.771704,0.87049 1.486971,0.661841 1.448448,-0.422525 z"
           id="path22"
           sodipodi:nodetypes="ssssssssssssssssscssssssssssss" />
      </g>
      <g
         id="g25"
         transform="matrix(0.58799677,0,0,0.58799676,-29.734778,-16.892778)">
        <path
           style="fill:#800066;fill-opacity:0.5;stroke:none;stroke-width:0.264583px;stroke-linecap:butt;stroke-linejoin:miter;stroke-opacity:1"
           d="m 80.075441,40.521913 3.091323,-0.10029 -1.529226,-2.145506 z"
           id="path23" />
        <path
           style="fill:#800066;fill-opacity:0.5;stroke:none;stroke-width:0.264583px;stroke-linecap:butt;stroke-linejoin:miter;stroke-opacity:1"
           d="m 81.492851,31.923183 1.334011,-0.949182 -0.552485,-0.935736 0.26279,-1.051952 -1.651495,0.347877 -0.944033,1.121222 z"
           id="path24" />
        <path
           style="fill:#800066;stroke-width:0.32002"
           d="m 79.737063,40.641482 c 0.006,-0.132003 0.211171,-0.600032 0.4554,-1.040059 0.385817,-0.695128 0.37782,-0.873508 -0.06096,-1.360089 -0.281529,-0.312221 -0.349796,-0.560042 -0.154263,-0.560042 0.192896,0 0.439736,0.144017 0.548509,0.32002 0.556094,0.899784 0.800056,0.02488 0.800056,-2.868929 0,-2.824167 -0.07076,-3.226804 -0.618371,-3.519898 -0.340097,-0.182011 -0.71701,-0.641749 -0.837588,-1.021638 -0.401782,-1.265894 2.025926,-2.411308 3.343091,-1.577289 0.36304,0.229865 0.324274,0.359713 -0.206358,0.691098 -0.650993,0.406546 -0.651053,0.409944 -0.01802,0.92255 0.626766,0.507518 0.624141,0.520489 -0.19367,0.958167 -0.805727,0.431215 -0.829035,0.532151 -0.829035,3.589822 0,2.854677 0.245788,3.722921 0.800056,2.826117 0.108736,-0.176003 0.355612,-0.32002 0.548508,-0.32002 0.195532,0 0.127268,0.247821 -0.154262,0.560042 -0.438757,0.486581 -0.446752,0.664961 -0.06095,1.360089 0.244228,0.440027 0.449158,0.908056 0.455399,1.040059 0.006,0.132012 -0.852718,0.240022 -1.908794,0.240022 -1.056064,0 -1.915024,-0.10801 -1.908783,-0.240022 z m 2.548829,-0.880054 c -0.219118,-0.264014 -0.535046,-0.480035 -0.702082,-0.480035 -0.167036,0 -0.519711,0.216021 -0.783728,0.480035 -0.426698,0.426703 -0.348684,0.480036 0.702084,0.480036 1.014492,0 1.125624,-0.06815 0.783726,-0.480036 z m -0.125935,-9.439897 c -0.03725,-1.049966 -0.393871,-1.193259 -1.307271,-0.525354 -0.518902,0.379415 -0.537056,0.501325 -0.141177,0.947879 0.771704,0.87049 1.486971,0.661841 1.448448,-0.422525 z"
           id="path25"
           sodipodi:nodetypes="ssssssssssssssssscssssssssssss" />
      </g>
      <path
         style="fill:#217821;stroke-width:0.258123"
         d="m 34.594166,3.7484099 c 0,-1.2045777 0.107603,-2.0649877 0.258106,-2.0649877 0.150603,0 0.258106,0.86041 0.258106,2.0649877 0,1.2045776 -0.107503,2.0649866 -0.258106,2.0649866 -0.150503,0 -0.258106,-0.860409 -0.258106,-2.0649866 z"
         id="path34"
         sodipodi:nodetypes="sssss" />
      <path
         style="fill:#217821;stroke-width:0.258123"
         d="m 35.652548,3.7484099 c 0,-1.2045777 0.107603,-2.0649877 0.258106,-2.0649877 0.150603,0 0.258106,0.86041 0.258106,2.0649877 0,1.2045776 -0.107503,2.0649866 -0.258106,2.0649866 -0.150503,0 -0.258106,-0.860409 -0.258106,-2.0649866 z"
         id="path35"
         sodipodi:nodetypes="sssss" />
      <path
         style="fill:#217821;stroke-width:0.258123"
         d="m 36.71093,3.7484099 c 0,-1.2045777 0.107603,-2.0649877 0.258106,-2.0649877 0.150603,0 0.258106,0.86041 0.258106,2.0649877 0,1.2045776 -0.107503,2.0649866 -0.258106,2.0649866 -0.150503,0 -0.258106,-0.860409 -0.258106,-2.0649866 z"
         id="path36"
         sodipodi:nodetypes="sssss" />
      <path
         style="fill:#006680;stroke-width:0.258111"
         d="m 23.272326,4.1599151 c 0,-1.414159 0.522995,-2.104893 1.593571,-2.104893 0.974878,0 1.503866,0.756153 1.503866,2.149742 0,1.5646439 -0.464089,1.5696539 -0.566687,0.006 -0.148197,-2.260639 -1.815859,-2.260639 -1.964056,0 -0.104197,1.5883639 -0.566694,1.5467649 -0.566694,-0.0509 z"
         id="path9"
         sodipodi:nodetypes="csssscc" />
      <path
         style="fill:#006680;stroke-width:0.258111"
         d="m 26.976492,4.1599151 c 0,-1.414159 0.522995,-2.104893 1.593571,-2.104893 0.974878,0 1.503866,0.756153 1.503866,2.149742 0,1.5646439 -0.464089,1.5696539 -0.566687,0.006 -0.148197,-2.260639 -1.815859,-2.260639 -1.964056,0 -0.104197,1.5883639 -0.566694,1.5467649 -0.566694,-0.0509 z"
         id="path10"
         sodipodi:nodetypes="csssscc" />
      <path
         style="fill:#006680;stroke-width:0.258111"
         d="m 30.680658,4.1599151 c 0,-1.414159 0.522995,-2.104893 1.593571,-2.104893 0.974878,0 1.503866,0.756153 1.503866,2.149742 0,1.5646439 -0.464089,1.5696539 -0.566687,0.006 -0.148197,-2.260639 -1.815859,-2.260639 -1.964056,0 -0.104197,1.5883639 -0.566694,1.5467649 -0.566694,-0.0509 z"
         id="path11"
         sodipodi:nodetypes="csssscc" />
      <path
         style="fill:#217821;stroke-width:0.258123"
         d="m 37.769165,3.7484099 c 0,-1.2045777 0.107603,-2.0649877 0.258106,-2.0649877 0.150603,0 0.258106,0.86041 0.258106,2.0649877 0,1.2045776 -0.107503,2.0649866 -0.258106,2.0649866 -0.150503,0 -0.258106,-0.860409 -0.258106,-2.0649866 z"
         id="path12"
         sodipodi:nodetypes="sssss" />
      <path
         style="fill:#217821;stroke-width:0.258123"
         d="m 38.827547,3.7484099 c 0,-1.2045777 0.107603,-2.0649877 0.258106,-2.0649877 0.150603,0 0.258106,0.86041 0.258106,2.0649877 0,1.2045776 -0.107503,2.0649866 -0.258106,2.0649866 -0.150503,0 -0.258106,-0.860409 -0.258106,-2.0649866 z"
         id="path26"
         sodipodi:nodetypes="sssss" />
      <path
         style="fill:#217821;stroke-width:0.258123"
         d="m 39.885929,3.7484099 c 0,-1.2045777 0.107603,-2.0649877 0.258106,-2.0649877 0.150603,0 0.258106,0.86041 0.258106,2.0649877 0,1.2045776 -0.107503,2.0649866 -0.258106,2.0649866 -0.150503,0 -0.258106,-0.860409 -0.258106,-2.0649866 z"
         id="path27"
         sodipodi:nodetypes="sssss" />
      <path
         style="fill:#217821;stroke-width:0.258123"
         d="m 40.944164,3.7484099 c 0,-1.2045777 0.107603,-2.0649877 0.258106,-2.0649877 0.150603,0 0.258106,0.86041 0.258106,2.0649877 0,1.2045776 -0.107503,2.0649866 -0.258106,2.0649866 -0.150503,0 -0.258106,-0.860409 -0.258106,-2.0649866 z"
         id="path28"
         sodipodi:nodetypes="sssss" />
      <path
         style="fill:#217821;stroke-width:0.258123"
         d="m 42.002546,3.7484099 c 0,-1.2045777 0.107603,-2.0649877 0.258106,-2.0649877 0.150603,0 0.258106,0.86041 0.258106,2.0649877 0,1.2045776 -0.107503,2.0649866 -0.258106,2.0649866 -0.150503,0 -0.258106,-0.860409 -0.258106,-2.0649866 z"
         id="path29"
         sodipodi:nodetypes="sssss" />
      <path
         style="fill:#217821;stroke-width:0.258123"
         d="m 43.060928,3.7484099 c 0,-1.2045777 0.107603,-2.0649877 0.258106,-2.0649877 0.150603,0 0.258106,0.86041 0.258106,2.0649877 0,1.2045776 -0.107503,2.0649866 -0.258106,2.0649866 -0.150503,0 -0.258106,-0.860409 -0.258106,-2.0649866 z"
         id="path30"
         sodipodi:nodetypes="sssss" />
    </g>
  </g>
</svg>
