<?xml version="1.0" encoding="UTF-8" standalone="no"?>
<!-- Created with Inkscape (http://www.inkscape.org/) -->

<svg
   width="60.271999mm"
   height="38.169998mm"
   viewBox="0 0 60.271999 38.169998"
   version="1.1"
   id="svg1"
   inkscape:version="1.4 (e7c3feb100, 2024-10-09)"
   sodipodi:docname="5_1_1_3_27.svg"
   xmlns:inkscape="http://www.inkscape.org/namespaces/inkscape"
   xmlns:sodipodi="http://sodipodi.sourceforge.net/DTD/sodipodi-0.dtd"
   xmlns="http://www.w3.org/2000/svg"
   xmlns:svg="http://www.w3.org/2000/svg">
  <sodipodi:namedview
     id="namedview1"
     pagecolor="#ffffff"
     bordercolor="#000000"
     borderopacity="0.25"
     inkscape:showpageshadow="2"
     inkscape:pageopacity="0.0"
     inkscape:pagecheckerboard="0"
     inkscape:deskcolor="#d1d1d1"
     inkscape:document-units="mm"
     inkscape:zoom="3.7401044"
     inkscape:cx="136.49352"
     inkscape:cy="87.163342"
     inkscape:window-width="1920"
     inkscape:window-height="1014"
     inkscape:window-x="0"
     inkscape:window-y="0"
     inkscape:window-maximized="1"
     inkscape:current-layer="layer1" />
  <defs
     id="defs1">
    <rect
       x="37.795277"
       y="37.795277"
       width="483.77954"
       height="718.11023"
       id="rect6439" />
    <rect
       x="37.795277"
       y="37.795277"
       width="483.77954"
       height="718.11023"
       id="rect6440" />
    <rect
       x="37.795277"
       y="37.795277"
       width="483.77954"
       height="718.11023"
       id="rect6441" />
    <rect
       x="37.795277"
       y="37.795277"
       width="483.77954"
       height="718.11023"
       id="rect6442" />
    <rect
       x="37.795277"
       y="37.795277"
       width="483.77954"
       height="718.11023"
       id="rect2743" />
    <rect
       x="37.795277"
       y="37.795277"
       width="483.77954"
       height="718.11023"
       id="rect2744" />
    <rect
       x="37.795277"
       y="37.795277"
       width="483.77954"
       height="718.11023"
       id="rect2745" />
    <rect
       x="37.795277"
       y="37.795277"
       width="483.77954"
       height="718.11023"
       id="rect6403" />
    <rect
       x="37.795277"
       y="37.795277"
       width="483.77954"
       height="718.11023"
       id="rect6443" />
    <rect
       x="37.795277"
       y="37.795277"
       width="483.77954"
       height="718.11023"
       id="rect6444" />
    <rect
       x="37.795277"
       y="37.795277"
       width="483.77954"
       height="718.11023"
       id="rect6445" />
    <rect
       x="37.795277"
       y="37.795277"
       width="483.77954"
       height="718.11023"
       id="rect6446" />
    <rect
       x="37.795277"
       y="37.795277"
       width="483.77954"
       height="718.11023"
       id="rect6469" />
    <rect
       x="37.795277"
       y="37.795277"
       width="483.77954"
       height="718.11023"
       id="rect6470" />
    <rect
       x="37.795277"
       y="37.795277"
       width="483.77954"
       height="718.11023"
       id="rect6471" />
    <rect
       x="37.795277"
       y="37.795277"
       width="483.77954"
       height="718.11023"
       id="rect6472" />
    <rect
       x="37.795277"
       y="37.795277"
       width="483.77954"
       height="718.11023"
       id="rect4" />
    <rect
       x="37.795277"
       y="37.795277"
       width="483.77954"
       height="718.11023"
       id="rect6" />
    <rect
       x="37.795277"
       y="37.795277"
       width="483.77954"
       height="718.11023"
       id="rect3" />
    <rect
       x="37.795277"
       y="37.795277"
       width="483.77954"
       height="718.11023"
       id="rect5" />
    <rect
       x="37.795277"
       y="37.795277"
       width="483.77954"
       height="718.11023"
       id="rect7" />
    <rect
       x="37.795277"
       y="37.795277"
       width="483.77954"
       height="718.11023"
       id="rect29" />
    <rect
       x="37.795277"
       y="37.795277"
       width="483.77954"
       height="718.11023"
       id="rect30" />
    <rect
       x="37.795277"
       y="37.795277"
       width="483.77954"
       height="718.11023"
       id="rect31" />
    <rect
       x="37.795277"
       y="37.795277"
       width="483.77954"
       height="718.11023"
       id="rect33" />
    <rect
       x="37.795277"
       y="37.795277"
       width="483.77954"
       height="718.11023"
       id="rect34" />
    <rect
       x="37.795277"
       y="37.795277"
       width="483.77954"
       height="718.11023"
       id="rect35" />
    <rect
       x="37.795277"
       y="37.795277"
       width="483.77954"
       height="718.11023"
       id="rect36" />
    <rect
       x="37.795277"
       y="37.795277"
       width="483.77954"
       height="718.11023"
       id="rect37" />
    <rect
       x="37.795277"
       y="37.795277"
       width="483.77954"
       height="718.11023"
       id="rect38" />
    <rect
       x="37.795277"
       y="37.795277"
       width="483.77954"
       height="718.11023"
       id="rect39" />
  </defs>
  <g
     inkscape:label="Katman 1"
     inkscape:groupmode="layer"
     id="layer1">
    <rect
       style="fill:#eef4d7;stroke:#000000;stroke-width:0.264999;stroke-opacity:1"
       id="rect6417"
       width="15"
       height="5"
       x="0.1324995"
       y="33.037575" />
    <rect
       style="fill:#eef4d7;stroke:#000000;stroke-width:0.264999"
       id="rect6418"
       width="5"
       height="5"
       x="10.1325"
       y="28.037573" />
    <rect
       style="fill:#dde9af;stroke:#000000;stroke-width:0.264999"
       id="rect6419"
       width="5"
       height="5"
       x="5.1326218"
       y="28.037573" />
    <rect
       style="fill:#cdde87;stroke:#000000;stroke-width:0.264999"
       id="rect6420"
       width="5"
       height="5"
       x="0.13262157"
       y="28.037573" />
    <path
       d="m 2.8269249,30.744314 v 1.207161 H 2.434184 V 30.744314 L 1.313839,29.038991 h 0.434082 l 0.8867677,1.386996 0.8826333,-1.386996 h 0.434082 z"
       id="text6421"
       style="font-size:16px;font-family:Arimo;-inkscape-font-specification:Arimo;white-space:pre;stroke-width:0.264583"
       aria-label="Y" />
    <path
       style="fill:none;stroke:#000000;stroke-width:0.264999;stroke-opacity:1"
       d="M 2.6317322,28.03757 V 0"
       id="path6427"
       sodipodi:nodetypes="cc" />
    <path
       style="fill:none;stroke:#000000;stroke-width:0.264999;stroke-opacity:1"
       d="M 7.6317322,28.03757 V 0"
       id="path6431"
       sodipodi:nodetypes="cc" />
    <path
       style="fill:none;stroke:#000000;stroke-width:0.264999;stroke-opacity:1"
       d="M 12.777432,28.03757 V 0"
       id="path6438"
       sodipodi:nodetypes="cc" />
    <rect
       style="fill:#ffd5d5;fill-opacity:1;stroke:#000000;stroke-width:0.264999;stroke-opacity:1"
       id="rect2596"
       width="15"
       height="5"
       x="15.132378"
       y="33.037575" />
    <rect
       style="fill:#ffd5d5;fill-opacity:1;stroke:#000000;stroke-width:0.264999"
       id="rect2597"
       width="5"
       height="5"
       x="25.132378"
       y="28.037573" />
    <rect
       style="fill:#ffaaaa;fill-opacity:1;stroke:#000000;stroke-width:0.264999"
       id="rect2598"
       width="5"
       height="5"
       x="20.1325"
       y="28.037573" />
    <rect
       style="fill:#ff8080;fill-opacity:1;stroke:#000000;stroke-width:0.264999"
       id="rect2599"
       width="5"
       height="5"
       x="15.1325"
       y="28.037573" />
    <path
       style="fill:none;stroke:#000000;stroke-width:0.264999;stroke-opacity:1"
       d="M 17.631832,28.03757 V 0"
       id="path2606"
       sodipodi:nodetypes="cc" />
    <path
       style="fill:none;stroke:#000000;stroke-width:0.264999;stroke-opacity:1"
       d="M 22.631832,28.03757 V 0"
       id="path2610"
       sodipodi:nodetypes="cc" />
    <circle
       style="fill:#ffaaaa;fill-opacity:1;stroke:#000000;stroke-width:0.264999;stroke-opacity:1"
       id="circle2611"
       cx="22.6325"
       cy="26.537573"
       r="1.5" />
    <circle
       style="fill:#ffaaaa;fill-opacity:1;stroke:#000000;stroke-width:0.264999;stroke-opacity:1"
       id="circle2612"
       cx="22.6325"
       cy="23.537573"
       r="1.5" />
    <circle
       style="fill:#ffaaaa;fill-opacity:1;stroke:#000000;stroke-width:0.264999;stroke-opacity:1"
       id="circle2613"
       cx="22.6325"
       cy="20.537573"
       r="1.5" />
    <circle
       style="fill:#ffaaaa;fill-opacity:1;stroke:#000000;stroke-width:0.264999;stroke-opacity:1"
       id="circle2614"
       cx="22.6325"
       cy="17.537573"
       r="1.5" />
    <circle
       style="fill:#ffaaaa;fill-opacity:1;stroke:#000000;stroke-width:0.264999;stroke-opacity:1"
       id="circle2615"
       cx="22.6325"
       cy="14.537574"
       r="1.5" />
    <path
       style="fill:none;stroke:#000000;stroke-width:0.264999;stroke-opacity:1"
       d="M 27.777532,28.03757 V 0"
       id="path2618"
       sodipodi:nodetypes="cc" />
    <rect
       style="fill:#fff6d5;fill-opacity:1;stroke:#000000;stroke-width:0.264999;stroke-opacity:1"
       id="rect6405"
       width="15"
       height="5"
       x="30.132376"
       y="33.037575" />
    <rect
       style="fill:#fff6d5;fill-opacity:1;stroke:#000000;stroke-width:0.264999"
       id="rect6407"
       width="5"
       height="5"
       x="40.132378"
       y="28.037573" />
    <rect
       style="fill:#ffeeaa;fill-opacity:1;stroke:#000000;stroke-width:0.264999"
       id="rect6408"
       width="5"
       height="5"
       x="35.1325"
       y="28.037573" />
    <rect
       style="fill:#ffe680;fill-opacity:1;stroke:#000000;stroke-width:0.264999"
       id="rect6411"
       width="5"
       height="5"
       x="30.132498"
       y="28.037573" />
    <path
       style="fill:none;stroke:#000000;stroke-width:0.264999;stroke-opacity:1"
       d="M 32.631832,28.03757 V 0"
       id="path6418"
       sodipodi:nodetypes="cc" />
    <path
       style="fill:none;stroke:#000000;stroke-width:0.264999;stroke-opacity:1"
       d="M 37.631832,28.03757 V 0"
       id="path6422"
       sodipodi:nodetypes="cc" />
    <circle
       style="fill:#ffeeaa;fill-opacity:1;stroke:#000000;stroke-width:0.264999;stroke-opacity:1"
       id="circle6423"
       cx="37.6325"
       cy="26.537573"
       r="1.5" />
    <circle
       style="fill:#ffeeaa;fill-opacity:1;stroke:#000000;stroke-width:0.264999;stroke-opacity:1"
       id="circle6424"
       cx="37.6325"
       cy="23.537573"
       r="1.5" />
    <path
       style="fill:none;stroke:#000000;stroke-width:0.264999;stroke-opacity:1"
       d="M 42.777532,28.03757 V 0"
       id="path6442"
       sodipodi:nodetypes="cc" />
    <rect
       style="fill:#d7eef4;fill-opacity:1;stroke:#000000;stroke-width:0.264999;stroke-opacity:1"
       id="rect6447"
       width="15"
       height="5"
       x="45.139458"
       y="33.037575" />
    <rect
       style="fill:#d7eef4;fill-opacity:1;stroke:#000000;stroke-width:0.264999"
       id="rect6448"
       width="5"
       height="5"
       x="55.139458"
       y="28.037573" />
    <rect
       style="fill:#afdde9;fill-opacity:1;stroke:#000000;stroke-width:0.264999"
       id="rect6449"
       width="5"
       height="5"
       x="50.13958"
       y="28.037573" />
    <rect
       style="fill:#87cdde;fill-opacity:1;stroke:#000000;stroke-width:0.264999"
       id="rect6450"
       width="5"
       height="5"
       x="45.13958"
       y="28.037573" />
    <path
       style="fill:none;stroke:#000000;stroke-width:0.264999;stroke-opacity:1"
       d="M 47.638932,28.03757 V 0"
       id="path6457"
       sodipodi:nodetypes="cc" />
    <circle
       style="fill:#87cdde;fill-opacity:1;stroke:#000000;stroke-width:0.264999;stroke-opacity:1"
       id="circle6457"
       cx="47.63958"
       cy="26.537573"
       r="1.5" />
    <circle
       style="fill:#87cdde;fill-opacity:1;stroke:#000000;stroke-width:0.264999;stroke-opacity:1"
       id="circle6458"
       cx="47.63958"
       cy="23.537573"
       r="1.5" />
    <path
       style="fill:none;stroke:#000000;stroke-width:0.264999;stroke-opacity:1"
       d="M 52.638932,28.03757 V 0"
       id="path6461"
       sodipodi:nodetypes="cc" />
    <path
       style="fill:none;stroke:#000000;stroke-width:0.264999;stroke-opacity:1"
       d="M 57.784632,28.03757 V 0"
       id="path6468"
       sodipodi:nodetypes="cc" />
    <path
       d="m 9.0774336,30.52517 q 0,0.45682 -0.1756997,0.799952 -0.1736328,0.343131 -0.5002279,0.527099 -0.326595,0.183968 -0.7710125,0.183968 -0.4485513,0 -0.7751463,-0.181901 Q 6.530819,31.672387 6.3592534,31.329256 6.1876875,30.984057 6.1876875,30.52517 q 0,-0.698665 0.3824058,-1.091406 0.3824054,-0.394808 1.0645343,-0.394808 0.4444175,0 0.7710125,0.177767 0.3265951,0.1757 0.4981607,0.51263 0.1736328,0.33693 0.1736328,0.795817 z m -0.403076,0 q 0,-0.543636 -0.2728516,-0.853694 -0.2707846,-0.310059 -0.7668784,-0.310059 -0.5002278,0 -0.7730794,0.305925 -0.2728515,0.305924 -0.2728515,0.857828 0,0.547771 0.2749187,0.870231 0.2769857,0.320394 0.7668781,0.320394 0.504362,0 0.7730794,-0.310058 0.2707847,-0.312126 0.2707847,-0.880567 z"
       id="text4"
       style="font-size:16px;font-family:Arimo;-inkscape-font-specification:Arimo;white-space:pre;stroke-width:0.264583"
       aria-label="O" />
    <path
       d="m 13.692961,31.993815 v -1.943034 q 0,-0.322461 0.0186,-0.620117 -0.101286,0.370003 -0.181901,0.578776 l -0.752409,1.984375 h -0.276986 l -0.762744,-1.984375 -0.115755,-0.3514 -0.06821,-0.227376 0.0062,0.229443 0.0083,0.390674 v 1.943034 h -0.351399 v -2.912484 h 0.518831 l 0.775146,2.019515 q 0.04134,0.121957 0.07855,0.262516 0.03927,0.138493 0.05168,0.200505 0.01654,-0.08268 0.06821,-0.250114 0.05374,-0.169499 0.07235,-0.212907 l 0.760677,-2.019515 h 0.506429 v 2.912484 z"
       id="text6"
       style="font-size:16px;font-family:Arimo;-inkscape-font-specification:Arimo;white-space:pre;stroke-width:0.264583"
       aria-label="M" />
    <path
       d="m 17.778257,30.744314 v 1.207161 h -0.392741 v -1.207161 l -1.120345,-1.705323 h 0.434082 l 0.886768,1.386996 0.882633,-1.386996 h 0.434082 z"
       id="text1"
       style="font-size:16px;font-family:Arimo;-inkscape-font-specification:Arimo;white-space:pre;stroke-width:0.264583"
       aria-label="Y" />
    <path
       d="m 24.028765,30.52517 q 0,0.45682 -0.1757,0.799952 -0.173633,0.343131 -0.500228,0.527099 -0.326595,0.183968 -0.771012,0.183968 -0.448552,0 -0.775147,-0.181901 -0.324528,-0.181901 -0.496093,-0.525032 -0.171566,-0.345199 -0.171566,-0.804086 0,-0.698665 0.382405,-1.091406 0.382406,-0.394808 1.064535,-0.394808 0.444417,0 0.771012,0.177767 0.326595,0.1757 0.498161,0.51263 0.173633,0.33693 0.173633,0.795817 z m -0.403076,0 q 0,-0.543636 -0.272852,-0.853694 -0.270784,-0.310059 -0.766878,-0.310059 -0.500228,0 -0.77308,0.305925 -0.272851,0.305924 -0.272851,0.857828 0,0.547771 0.274919,0.870231 0.276985,0.320394 0.766878,0.320394 0.504362,0 0.773079,-0.310058 0.270785,-0.312126 0.270785,-0.880567 z"
       id="text2"
       style="font-size:16px;font-family:Arimo;-inkscape-font-specification:Arimo;white-space:pre;stroke-width:0.264583"
       aria-label="O" />
    <path
       d="m 28.644293,31.993815 v -1.943034 q 0,-0.322461 0.0186,-0.620117 -0.101285,0.370003 -0.181901,0.578776 l -0.752408,1.984375 H 27.4516 l -0.762744,-1.984375 -0.115755,-0.3514 -0.06821,-0.227376 0.0062,0.229443 0.0083,0.390674 v 1.943034 h -0.3514 v -2.912484 h 0.518831 l 0.775147,2.019515 q 0.04134,0.121957 0.07855,0.262516 0.03927,0.138493 0.05168,0.200505 0.01654,-0.08268 0.06821,-0.250114 0.05374,-0.169499 0.07235,-0.212907 l 0.760677,-2.019515 h 0.506429 v 2.912484 z"
       id="text3"
       style="font-size:16px;font-family:Arimo;-inkscape-font-specification:Arimo;white-space:pre;stroke-width:0.264583"
       aria-label="M" />
    <path
       d="m 32.958635,30.744314 v 1.207161 h -0.392741 v -1.207161 l -1.120345,-1.705323 h 0.434082 l 0.886767,1.386996 0.882634,-1.386996 h 0.434082 z"
       id="text7"
       style="font-size:16px;font-family:Arimo;-inkscape-font-specification:Arimo;white-space:pre;stroke-width:0.264583"
       aria-label="Y" />
    <path
       d="m 39.209143,30.52517 q 0,0.45682 -0.1757,0.799952 -0.173633,0.343131 -0.500228,0.527099 -0.326595,0.183968 -0.771012,0.183968 -0.448552,0 -0.775147,-0.181901 -0.324528,-0.181901 -0.496093,-0.525032 -0.171566,-0.345199 -0.171566,-0.804086 0,-0.698665 0.382405,-1.091406 0.382406,-0.394808 1.064535,-0.394808 0.444417,0 0.771012,0.177767 0.326595,0.1757 0.498161,0.51263 0.173633,0.33693 0.173633,0.795817 z m -0.403076,0 q 0,-0.543636 -0.272852,-0.853694 -0.270784,-0.310059 -0.766878,-0.310059 -0.500228,0 -0.77308,0.305925 -0.272851,0.305924 -0.272851,0.857828 0,0.547771 0.274919,0.870231 0.276985,0.320394 0.766878,0.320394 0.504362,0 0.773079,-0.310058 0.270785,-0.312126 0.270785,-0.880567 z"
       id="text8"
       style="font-size:16px;font-family:Arimo;-inkscape-font-specification:Arimo;white-space:pre;stroke-width:0.264583"
       aria-label="O" />
    <path
       d="m 43.762586,31.173193 q 0,0.388607 -0.283187,0.605648 -0.283186,0.214974 -0.787548,0.214974 h -1.182357 v -2.912484 h 1.058333 q 1.025261,0 1.025261,0.706934 0,0.258382 -0.144694,0.434082 -0.144694,0.1757 -0.409278,0.235644 0.347266,0.04134 0.535368,0.233578 0.188102,0.190169 0.188102,0.481624 z m -0.566373,-1.337386 q 0,-0.235644 -0.161231,-0.33693 -0.16123,-0.101286 -0.467155,-0.101286 h -0.663525 v 0.921908 h 0.663525 q 0.31626,0 0.471289,-0.117823 0.157097,-0.119889 0.157097,-0.365869 z m 0.167431,1.30638 q 0,-0.514697 -0.72347,-0.514697 h -0.735872 v 1.050065 h 0.766878 q 0.361735,0 0.5271,-0.134358 0.165364,-0.134359 0.165364,-0.40101 z"
       id="text29"
       style="font-size:16px;font-family:Arimo;-inkscape-font-specification:Arimo;white-space:pre;stroke-width:0.264583"
       aria-label="B" />
    <path
       d="m 48.0418,30.744314 v 1.207161 h -0.392741 v -1.207161 l -1.120345,-1.705323 h 0.434082 l 0.886767,1.386996 0.882634,-1.386996 h 0.434082 z"
       id="text31"
       style="font-size:16px;font-family:Arimo;-inkscape-font-specification:Arimo;white-space:pre;stroke-width:0.264583"
       aria-label="Y" />
    <path
       d="m 54.292308,30.52517 q 0,0.45682 -0.1757,0.799952 -0.173633,0.343131 -0.500228,0.527099 -0.326595,0.183968 -0.771012,0.183968 -0.448552,0 -0.775147,-0.181901 -0.324528,-0.181901 -0.496093,-0.525032 -0.171566,-0.345199 -0.171566,-0.804086 0,-0.698665 0.382405,-1.091406 0.382406,-0.394808 1.064535,-0.394808 0.444417,0 0.771012,0.177767 0.326595,0.1757 0.498161,0.51263 0.173633,0.33693 0.173633,0.795817 z m -0.403076,0 q 0,-0.543636 -0.272852,-0.853694 -0.270784,-0.310059 -0.766878,-0.310059 -0.500228,0 -0.77308,0.305925 -0.272851,0.305924 -0.272851,0.857828 0,0.547771 0.274919,0.870231 0.276985,0.320394 0.766878,0.320394 0.504362,0 0.773079,-0.310058 0.270785,-0.312126 0.270785,-0.880567 z"
       id="text32"
       style="font-size:16px;font-family:Arimo;-inkscape-font-specification:Arimo;white-space:pre;stroke-width:0.264583"
       aria-label="O" />
    <path
       d="m 58.845751,31.173193 q 0,0.388607 -0.283187,0.605648 -0.283186,0.214974 -0.787548,0.214974 h -1.182357 v -2.912484 h 1.058333 q 1.025261,0 1.025261,0.706934 0,0.258382 -0.144694,0.434082 -0.144694,0.1757 -0.409278,0.235644 0.347266,0.04134 0.535368,0.233578 0.188102,0.190169 0.188102,0.481624 z m -0.566373,-1.337386 q 0,-0.235644 -0.161231,-0.33693 -0.16123,-0.101286 -0.467155,-0.101286 h -0.663525 v 0.921908 h 0.663525 q 0.31626,0 0.471289,-0.117823 0.157097,-0.119889 0.157097,-0.365869 z m 0.167431,1.30638 q 0,-0.514697 -0.72347,-0.514697 h -0.735872 v 1.050065 h 0.766878 q 0.361735,0 0.5271,-0.134358 0.165364,-0.134359 0.165364,-0.40101 z"
       id="text33"
       style="font-size:16px;font-family:Arimo;-inkscape-font-specification:Arimo;white-space:pre;stroke-width:0.264583"
       aria-label="B" />
    <path
       d="m 18.984627,36.756315 v -1.943034 q 0,-0.322461 0.0186,-0.620117 -0.101285,0.370003 -0.181901,0.578776 l -0.752409,1.984375 h -0.276985 l -0.762744,-1.984375 -0.115756,-0.3514 -0.06821,-0.227376 0.0062,0.229443 0.0083,0.390674 v 1.943034 h -0.351399 v -2.912484 h 0.518831 l 0.775147,2.019515 q 0.04134,0.121957 0.07855,0.262516 0.03927,0.138493 0.05168,0.200505 0.01654,-0.08268 0.06821,-0.250114 0.05374,-0.169499 0.07235,-0.212907 l 0.760677,-2.019515 h 0.506429 v 2.912484 z m 0.985987,-2.711979 v -0.355534 h 0.37207 v 0.355534 z m 0,2.711979 v -2.236556 h 0.37207 v 2.236556 z m 0.942578,0 v -3.067513 h 0.37207 v 3.067513 z m 1.050065,0.878499 q -0.152963,0 -0.256315,-0.02274 v -0.279052 q 0.07855,0.0124 0.173632,0.0124 0.347266,0 0.549838,-0.510563 l 0.03514,-0.08888 -0.886768,-2.22622 h 0.396875 l 0.471289,1.2361 q 0.01034,0.02894 0.02481,0.07028 0.01447,0.03927 0.09302,0.268717 0.07855,0.229444 0.08475,0.256316 l 0.144694,-0.407211 0.489892,-1.424202 h 0.392741 l -0.859895,2.236556 q -0.138493,0.357601 -0.258383,0.531233 -0.119889,0.1757 -0.26665,0.26045 -0.144694,0.08682 -0.328662,0.08682 z m 3.89847,-1.998844 q 0,0.587044 -0.258382,0.874365 -0.258383,0.287321 -0.750342,0.287321 -0.489893,0 -0.740007,-0.297656 -0.250114,-0.299723 -0.250114,-0.86403 0,-1.157552 1.002523,-1.157552 0.51263,0 0.754476,0.283187 0.241846,0.281119 0.241846,0.874365 z m -0.390674,0 q 0,-0.463021 -0.138493,-0.671794 -0.136426,-0.21084 -0.460954,-0.21084 -0.326595,0 -0.473356,0.214974 -0.144694,0.212907 -0.144694,0.66766 0,0.44235 0.142627,0.665592 0.144694,0.221175 0.452686,0.221175 0.334863,0 0.47749,-0.214974 0.144694,-0.214973 0.144694,-0.671793 z m 2.273763,1.120345 v -1.418001 q 0,-0.221175 -0.04341,-0.343132 -0.04341,-0.121956 -0.138493,-0.1757 -0.09509,-0.05374 -0.279053,-0.05374 -0.268717,0 -0.423746,0.183968 -0.15503,0.183968 -0.15503,0.510563 v 1.296045 h -0.37207 v -1.759066 q 0,-0.390673 -0.0124,-0.47749 h 0.3514 q 0.0021,0.01033 0.0041,0.05581 0.0021,0.04548 0.0041,0.10542 0.0041,0.05788 0.0083,0.221175 h 0.0062 q 0.128158,-0.231511 0.29559,-0.326595 0.169498,-0.09715 0.419612,-0.09715 0.367936,0 0.537435,0.183968 0.171566,0.181901 0.171566,0.603581 v 1.490348 z m 1.035596,0 v -0.452686 h 0.403076 v 0.452686 z"
       id="text36"
       style="font-size:16px;font-family:Arimo;-inkscape-font-specification:Arimo;white-space:pre;stroke-width:0.264583"
       aria-label="Milyon." />
    <path
       d="m 34.814579,35.935693 q 0,0.388607 -0.283187,0.605648 -0.283186,0.214974 -0.787548,0.214974 h -1.182357 v -2.912484 h 1.058333 q 1.025261,0 1.025261,0.706934 0,0.258382 -0.144694,0.434082 -0.144694,0.1757 -0.409278,0.235644 0.347266,0.04134 0.535368,0.233578 0.188102,0.190169 0.188102,0.481624 z m -0.566373,-1.337386 q 0,-0.235644 -0.161231,-0.33693 -0.16123,-0.101286 -0.467155,-0.101286 h -0.663525 v 0.921908 h 0.663525 q 0.31626,0 0.471289,-0.117823 0.157097,-0.119889 0.157097,-0.365869 z m 0.167431,1.30638 q 0,-0.514697 -0.72347,-0.514697 h -0.735872 v 1.050065 h 0.766878 q 0.361735,0 0.5271,-0.134358 0.165364,-0.134359 0.165364,-0.40101 z m 0.905371,-1.860351 v -0.355534 h 0.372071 v 0.355534 z m 0,2.711979 v -2.236556 h 0.372071 v 2.236556 z m 2.362647,0 v -1.418001 q 0,-0.221175 -0.04341,-0.343132 -0.04341,-0.121956 -0.138493,-0.1757 -0.09508,-0.05374 -0.279053,-0.05374 -0.268718,0 -0.423747,0.183968 -0.155029,0.183968 -0.155029,0.510563 v 1.296045 h -0.37207 v -1.759066 q 0,-0.390673 -0.0124,-0.47749 h 0.351399 q 0.0021,0.01033 0.0041,0.05581 0.0021,0.04548 0.0041,0.10542 0.0041,0.05788 0.0083,0.221175 h 0.0062 q 0.128158,-0.231511 0.295589,-0.326595 0.169499,-0.09715 0.419613,-0.09715 0.367936,0 0.537435,0.183968 0.171566,0.181901 0.171566,0.603581 v 1.490348 z m 0.93431,0 v -3.067513 h 0.37207 v 3.067513 z m 1.225765,-1.03973 q 0,0.384473 0.159163,0.593246 0.159163,0.208772 0.465088,0.208772 0.241846,0 0.38654,-0.09715 0.146761,-0.09715 0.198437,-0.24598 l 0.326595,0.09302 q -0.200504,0.529166 -0.911572,0.529166 -0.496094,0 -0.756543,-0.295589 -0.258382,-0.295589 -0.258382,-0.878499 0,-0.553972 0.258382,-0.849561 0.260449,-0.295589 0.742074,-0.295589 0.985986,0 0.985986,1.188558 v 0.04961 z m 1.211295,-0.285254 q -0.03101,-0.353466 -0.179834,-0.514697 -0.148828,-0.163298 -0.427881,-0.163298 -0.270784,0 -0.429948,0.181901 -0.157096,0.179835 -0.169498,0.496094 z m 0.866097,1.324984 v -1.715657 q 0,-0.235645 -0.0124,-0.520899 h 0.3514 q 0.01654,0.380339 0.01654,0.45682 h 0.0083 q 0.08888,-0.287321 0.204638,-0.392741 0.115755,-0.10542 0.326595,-0.10542 0.07441,0 0.150896,0.02067 v 0.341064 q -0.07442,-0.02067 -0.198438,-0.02067 -0.23151,0 -0.353467,0.200505 -0.121956,0.198437 -0.121956,0.570508 v 1.16582 z"
       id="text37"
       style="font-size:16px;font-family:Arimo;-inkscape-font-specification:Arimo;white-space:pre;stroke-width:0.264583"
       aria-label="Binler" />
    <path
       d="m 50.370066,35.935693 q 0,0.388607 -0.283187,0.605648 -0.283186,0.214974 -0.787548,0.214974 h -1.182357 v -2.912484 h 1.058333 q 1.025261,0 1.025261,0.706934 0,0.258382 -0.144694,0.434082 -0.144694,0.1757 -0.409278,0.235644 0.347266,0.04134 0.535368,0.233578 0.188102,0.190169 0.188102,0.481624 z m -0.566373,-1.337386 q 0,-0.235644 -0.161231,-0.33693 -0.16123,-0.101286 -0.467155,-0.101286 h -0.663525 v 0.921908 h 0.663525 q 0.31626,0 0.471289,-0.117823 0.157097,-0.119889 0.157097,-0.365869 z m 0.167431,1.30638 q 0,-0.514697 -0.72347,-0.514697 h -0.735872 v 1.050065 h 0.766878 q 0.361735,0 0.5271,-0.134358 0.165364,-0.134359 0.165364,-0.40101 z m 0.905371,-1.860351 v -0.355534 h 0.372071 v 0.355534 z m 0,2.711979 v -2.236556 h 0.372071 v 2.236556 z m 0.950847,0 v -1.715657 q 0,-0.235645 -0.0124,-0.520899 h 0.351399 q 0.01654,0.380339 0.01654,0.45682 h 0.0083 q 0.08888,-0.287321 0.204639,-0.392741 0.115755,-0.10542 0.326595,-0.10542 0.07441,0 0.150895,0.02067 v 0.341064 q -0.07441,-0.02067 -0.198438,-0.02067 -0.23151,0 -0.353466,0.200505 -0.121957,0.198437 -0.121957,0.570508 v 1.16582 z m 1.401464,0 v -3.067513 h 0.372071 v 3.067513 z m 1.225766,-1.03973 q 0,0.384473 0.159163,0.593246 0.159163,0.208772 0.465088,0.208772 0.241845,0 0.386539,-0.09715 0.146762,-0.09715 0.198438,-0.24598 l 0.326595,0.09302 q -0.200504,0.529166 -0.911572,0.529166 -0.496094,0 -0.756543,-0.295589 -0.258382,-0.295589 -0.258382,-0.878499 0,-0.553972 0.258382,-0.849561 0.260449,-0.295589 0.742073,-0.295589 0.985987,0 0.985987,1.188558 v 0.04961 z m 1.211295,-0.285254 q -0.03101,-0.353466 -0.179834,-0.514697 -0.148828,-0.163298 -0.427881,-0.163298 -0.270784,0 -0.429948,0.181901 -0.157096,0.179835 -0.169498,0.496094 z m 0.866097,1.324984 v -1.715657 q 0,-0.235645 -0.0124,-0.520899 h 0.3514 q 0.01654,0.380339 0.01654,0.45682 h 0.0083 q 0.08888,-0.287321 0.204639,-0.392741 0.115755,-0.10542 0.326595,-0.10542 0.07441,0 0.150895,0.02067 v 0.341064 q -0.07441,-0.02067 -0.198437,-0.02067 -0.231511,0 -0.353467,0.200505 -0.121956,0.198437 -0.121956,0.570508 v 1.16582 z"
       id="text38"
       style="font-size:16px;font-family:Arimo;-inkscape-font-specification:Arimo;white-space:pre;stroke-width:0.264583"
       aria-label="Birler" />
    <path
       d="m 4.227081,36.756315 v -1.943034 q 0,-0.322461 0.018603,-0.620117 -0.1012857,0.370003 -0.181901,0.578776 L 3.311374,36.756315 H 3.0343883 l -0.762744,-1.984375 -0.1157552,-0.3514 -0.068213,-0.227376 0.0062,0.229443 0.00827,0.390674 v 1.943034 H 1.7507464 v -2.912484 h 0.5188313 l 0.7751466,2.019515 q 0.041341,0.121957 0.078548,0.262516 0.039274,0.138493 0.051676,0.200505 0.016536,-0.08268 0.068213,-0.250114 0.053743,-0.169499 0.072347,-0.212907 l 0.760677,-2.019515 h 0.5064292 v 2.912484 z m 0.9859862,-2.711979 v -0.355534 h 0.3720703 v 0.355534 z m 0,2.711979 v -2.236556 h 0.3720703 v 2.236556 z m 0.9425781,0 v -3.067513 h 0.3720703 v 3.067513 z m 1.0500651,0.878499 q -0.1529622,0 -0.2563151,-0.02274 v -0.279052 q 0.078548,0.0124 0.1736328,0.0124 0.3472657,0 0.5498373,-0.510563 l 0.03514,-0.08888 -0.8867677,-2.22622 h 0.396875 l 0.471289,1.2361 q 0.010335,0.02894 0.024805,0.07028 0.01447,0.03927 0.093018,0.268717 0.078548,0.229444 0.084749,0.256316 L 8.0366675,35.94396 8.5265602,34.519758 H 8.919301 l -0.8598958,2.236556 q -0.138493,0.357601 -0.2583823,0.531233 -0.1198893,0.1757 -0.2666502,0.26045 -0.144694,0.08682 -0.3286623,0.08682 z M 9.783331,36.797656 q -0.3369305,0 -0.5064292,-0.177767 -0.1694987,-0.177767 -0.1694987,-0.487825 0,-0.347266 0.2273763,-0.533301 0.2294435,-0.186035 0.7379396,-0.198438 l 0.502295,-0.0083 v -0.121956 q 0,-0.272852 -0.115755,-0.390674 -0.115756,-0.117822 -0.363803,-0.117822 -0.2501133,0 -0.3638016,0.08475 -0.113688,0.08475 -0.1364258,0.270785 l -0.3886067,-0.03514 q 0.095085,-0.603581 0.8971031,-0.603581 0.421679,0 0.634586,0.194303 0.212907,0.192237 0.212907,0.558106 v 0.963248 q 0,0.165365 0.04341,0.250114 0.04341,0.08268 0.165364,0.08268 0.05374,0 0.121956,-0.01447 v 0.23151 q -0.14056,0.03307 -0.28732,0.03307 -0.206706,0 -0.301791,-0.107487 -0.09302,-0.109554 -0.10542,-0.341065 h -0.0124 q -0.142627,0.256315 -0.332796,0.363802 -0.188102,0.10542 -0.4588867,0.10542 z M 9.86808,36.518603 q 0.204639,0 0.363802,-0.09302 0.159164,-0.09302 0.250114,-0.254248 0.09302,-0.163298 0.09302,-0.334864 v -0.183968 l -0.40721,0.0083 q -0.262517,0.0041 -0.3989428,0.05374 -0.1343585,0.04961 -0.2067057,0.152962 -0.072347,0.103353 -0.072347,0.270785 0,0.181901 0.097152,0.28112 0.099219,0.09922 0.2811198,0.09922 z m 1.707389,0.237712 v -1.715657 q 0,-0.235645 -0.0124,-0.520899 h 0.3514 q 0.01654,0.380339 0.01654,0.45682 h 0.0083 q 0.08888,-0.287321 0.204639,-0.392741 0.115755,-0.10542 0.326595,-0.10542 0.07441,0 0.150895,0.02067 v 0.341064 q -0.07441,-0.02067 -0.198438,-0.02067 -0.23151,0 -0.353466,0.200505 -0.121957,0.198437 -0.121957,0.570508 v 1.16582 z m 1.269174,0 v -0.452686 h 0.403076 v 0.452686 z"
       id="text35"
       style="font-size:16px;font-family:Arimo;-inkscape-font-specification:Arimo;white-space:pre;stroke-width:0.264583"
       aria-label="Milyar." />
    <circle
       style="fill:#ffaaaa;fill-opacity:1;stroke:#000000;stroke-width:0.264999;stroke-opacity:1"
       id="circle1"
       cx="22.6325"
       cy="11.537574"
       r="1.5" />
    <circle
       style="fill:#ffaaaa;fill-opacity:1;stroke:#000000;stroke-width:0.264999;stroke-opacity:1"
       id="circle2"
       cx="22.6325"
       cy="8.5375748"
       r="1.5" />
    <circle
       style="fill:#ffeeaa;fill-opacity:1;stroke:#000000;stroke-width:0.264999;stroke-opacity:1"
       id="circle3"
       cx="37.6325"
       cy="20.537573"
       r="1.5" />
    <circle
       style="fill:#ffeeaa;fill-opacity:1;stroke:#000000;stroke-width:0.264999;stroke-opacity:1"
       id="circle4"
       cx="37.6325"
       cy="17.537573"
       r="1.5" />
  </g>
</svg>
