<?xml version="1.0" encoding="UTF-8" standalone="no"?>
<!-- Created with Inkscape (http://www.inkscape.org/) -->

<svg
   width="36.424999mm"
   height="7.145mm"
   viewBox="0 0 36.424999 7.1449997"
   version="1.1"
   id="svg1"
   inkscape:version="1.4.2 (ebf0e940d0, 2025-05-08)"
   sodipodi:docname="5_1_1_3_3.svg"
   xmlns:inkscape="http://www.inkscape.org/namespaces/inkscape"
   xmlns:sodipodi="http://sodipodi.sourceforge.net/DTD/sodipodi-0.dtd"
   xmlns="http://www.w3.org/2000/svg"
   xmlns:svg="http://www.w3.org/2000/svg">
  <sodipodi:namedview
     id="namedview1"
     pagecolor="#ffffff"
     bordercolor="#000000"
     borderopacity="0.25"
     inkscape:showpageshadow="2"
     inkscape:pageopacity="0.0"
     inkscape:pagecheckerboard="0"
     inkscape:deskcolor="#d1d1d1"
     inkscape:document-units="mm"
     inkscape:zoom="1.7720791"
     inkscape:cx="115.96548"
     inkscape:cy="-0.5643089"
     inkscape:window-width="1920"
     inkscape:window-height="1014"
     inkscape:window-x="0"
     inkscape:window-y="0"
     inkscape:window-maximized="1"
     inkscape:current-layer="layer1" />
  <defs
     id="defs1" />
  <g
     inkscape:label="Katman 1"
     inkscape:groupmode="layer"
     id="layer1">
    <g
       id="g6">
      <g
         id="g1721"
         transform="matrix(0.58798335,0,0,0.58798335,-46.884025,-16.892393)">
        <path
           style="fill:#800066;fill-opacity:0.5;stroke:none;stroke-width:0.264583px;stroke-linecap:butt;stroke-linejoin:miter;stroke-opacity:1"
           d="m 80.075441,40.521913 3.091323,-0.10029 -1.529226,-2.145506 z"
           id="path1719" />
        <path
           style="fill:#800066;fill-opacity:0.5;stroke:none;stroke-width:0.264583px;stroke-linecap:butt;stroke-linejoin:miter;stroke-opacity:1"
           d="m 81.492851,31.923183 1.334011,-0.949182 -0.552485,-0.935736 0.26279,-1.051952 -1.651495,0.347877 -0.944033,1.121222 z"
           id="path1720" />
        <path
           style="fill:#800066;stroke-width:0.32002"
           d="m 79.737063,40.641482 c 0.006,-0.132003 0.211171,-0.600032 0.4554,-1.040059 0.385817,-0.695128 0.37782,-0.873508 -0.06096,-1.360089 -0.281529,-0.312221 -0.349796,-0.560042 -0.154263,-0.560042 0.192896,0 0.439736,0.144017 0.548509,0.32002 0.556094,0.899784 0.800056,0.02488 0.800056,-2.868929 0,-2.824167 -0.07076,-3.226804 -0.618371,-3.519898 -0.340097,-0.182011 -0.71701,-0.641749 -0.837588,-1.021638 -0.401782,-1.265894 2.025926,-2.411308 3.343091,-1.577289 0.36304,0.229865 0.324274,0.359713 -0.206358,0.691098 -0.650993,0.406546 -0.651053,0.409944 -0.01802,0.92255 0.626766,0.507518 0.624141,0.520489 -0.19367,0.958167 -0.805727,0.431215 -0.829035,0.532151 -0.829035,3.589822 0,2.854677 0.245788,3.722921 0.800056,2.826117 0.108736,-0.176003 0.355612,-0.32002 0.548508,-0.32002 0.195532,0 0.127268,0.247821 -0.154262,0.560042 -0.438757,0.486581 -0.446752,0.664961 -0.06095,1.360089 0.244228,0.440027 0.449158,0.908056 0.455399,1.040059 0.006,0.132012 -0.852718,0.240022 -1.908794,0.240022 -1.056064,0 -1.915024,-0.10801 -1.908783,-0.240022 z m 2.548829,-0.880054 c -0.219118,-0.264014 -0.535046,-0.480035 -0.702082,-0.480035 -0.167036,0 -0.519711,0.216021 -0.783728,0.480035 -0.426698,0.426703 -0.348684,0.480036 0.702084,0.480036 1.014492,0 1.125624,-0.06815 0.783726,-0.480036 z m -0.125935,-9.439897 c -0.03725,-1.049966 -0.393871,-1.193259 -1.307271,-0.525354 -0.518902,0.379415 -0.537056,0.501325 -0.141177,0.947879 0.771704,0.87049 1.486971,0.661841 1.448448,-0.422525 z"
           id="path1721"
           sodipodi:nodetypes="ssssssssssssssssscssssssssssss" />
      </g>
      <g
         id="g1724"
         transform="matrix(0.58798335,0,0,0.58798335,-43.709035,-16.892393)">
        <path
           style="fill:#800066;fill-opacity:0.5;stroke:none;stroke-width:0.264583px;stroke-linecap:butt;stroke-linejoin:miter;stroke-opacity:1"
           d="m 80.075441,40.521913 3.091323,-0.10029 -1.529226,-2.145506 z"
           id="path1722" />
        <path
           style="fill:#800066;fill-opacity:0.5;stroke:none;stroke-width:0.264583px;stroke-linecap:butt;stroke-linejoin:miter;stroke-opacity:1"
           d="m 81.492851,31.923183 1.334011,-0.949182 -0.552485,-0.935736 0.26279,-1.051952 -1.651495,0.347877 -0.944033,1.121222 z"
           id="path1723" />
        <path
           style="fill:#800066;stroke-width:0.32002"
           d="m 79.737063,40.641482 c 0.006,-0.132003 0.211171,-0.600032 0.4554,-1.040059 0.385817,-0.695128 0.37782,-0.873508 -0.06096,-1.360089 -0.281529,-0.312221 -0.349796,-0.560042 -0.154263,-0.560042 0.192896,0 0.439736,0.144017 0.548509,0.32002 0.556094,0.899784 0.800056,0.02488 0.800056,-2.868929 0,-2.824167 -0.07076,-3.226804 -0.618371,-3.519898 -0.340097,-0.182011 -0.71701,-0.641749 -0.837588,-1.021638 -0.401782,-1.265894 2.025926,-2.411308 3.343091,-1.577289 0.36304,0.229865 0.324274,0.359713 -0.206358,0.691098 -0.650993,0.406546 -0.651053,0.409944 -0.01802,0.92255 0.626766,0.507518 0.624141,0.520489 -0.19367,0.958167 -0.805727,0.431215 -0.829035,0.532151 -0.829035,3.589822 0,2.854677 0.245788,3.722921 0.800056,2.826117 0.108736,-0.176003 0.355612,-0.32002 0.548508,-0.32002 0.195532,0 0.127268,0.247821 -0.154262,0.560042 -0.438757,0.486581 -0.446752,0.664961 -0.06095,1.360089 0.244228,0.440027 0.449158,0.908056 0.455399,1.040059 0.006,0.132012 -0.852718,0.240022 -1.908794,0.240022 -1.056064,0 -1.915024,-0.10801 -1.908783,-0.240022 z m 2.548829,-0.880054 c -0.219118,-0.264014 -0.535046,-0.480035 -0.702082,-0.480035 -0.167036,0 -0.519711,0.216021 -0.783728,0.480035 -0.426698,0.426703 -0.348684,0.480036 0.702084,0.480036 1.014492,0 1.125624,-0.06815 0.783726,-0.480036 z m -0.125935,-9.439897 c -0.03725,-1.049966 -0.393871,-1.193259 -1.307271,-0.525354 -0.518902,0.379415 -0.537056,0.501325 -0.141177,0.947879 0.771704,0.87049 1.486971,0.661841 1.448448,-0.422525 z"
           id="path1724"
           sodipodi:nodetypes="ssssssssssssssssscssssssssssss" />
      </g>
      <g
         id="g1727"
         transform="matrix(0.58798335,0,0,0.58798335,-40.534045,-16.892393)">
        <path
           style="fill:#800066;fill-opacity:0.5;stroke:none;stroke-width:0.264583px;stroke-linecap:butt;stroke-linejoin:miter;stroke-opacity:1"
           d="m 80.075441,40.521913 3.091323,-0.10029 -1.529226,-2.145506 z"
           id="path1725" />
        <path
           style="fill:#800066;fill-opacity:0.5;stroke:none;stroke-width:0.264583px;stroke-linecap:butt;stroke-linejoin:miter;stroke-opacity:1"
           d="m 81.492851,31.923183 1.334011,-0.949182 -0.552485,-0.935736 0.26279,-1.051952 -1.651495,0.347877 -0.944033,1.121222 z"
           id="path1726" />
        <path
           style="fill:#800066;stroke-width:0.32002"
           d="m 79.737063,40.641482 c 0.006,-0.132003 0.211171,-0.600032 0.4554,-1.040059 0.385817,-0.695128 0.37782,-0.873508 -0.06096,-1.360089 -0.281529,-0.312221 -0.349796,-0.560042 -0.154263,-0.560042 0.192896,0 0.439736,0.144017 0.548509,0.32002 0.556094,0.899784 0.800056,0.02488 0.800056,-2.868929 0,-2.824167 -0.07076,-3.226804 -0.618371,-3.519898 -0.340097,-0.182011 -0.71701,-0.641749 -0.837588,-1.021638 -0.401782,-1.265894 2.025926,-2.411308 3.343091,-1.577289 0.36304,0.229865 0.324274,0.359713 -0.206358,0.691098 -0.650993,0.406546 -0.651053,0.409944 -0.01802,0.92255 0.626766,0.507518 0.624141,0.520489 -0.19367,0.958167 -0.805727,0.431215 -0.829035,0.532151 -0.829035,3.589822 0,2.854677 0.245788,3.722921 0.800056,2.826117 0.108736,-0.176003 0.355612,-0.32002 0.548508,-0.32002 0.195532,0 0.127268,0.247821 -0.154262,0.560042 -0.438757,0.486581 -0.446752,0.664961 -0.06095,1.360089 0.244228,0.440027 0.449158,0.908056 0.455399,1.040059 0.006,0.132012 -0.852718,0.240022 -1.908794,0.240022 -1.056064,0 -1.915024,-0.10801 -1.908783,-0.240022 z m 2.548829,-0.880054 c -0.219118,-0.264014 -0.535046,-0.480035 -0.702082,-0.480035 -0.167036,0 -0.519711,0.216021 -0.783728,0.480035 -0.426698,0.426703 -0.348684,0.480036 0.702084,0.480036 1.014492,0 1.125624,-0.06815 0.783726,-0.480036 z m -0.125935,-9.439897 c -0.03725,-1.049966 -0.393871,-1.193259 -1.307271,-0.525354 -0.518902,0.379415 -0.537056,0.501325 -0.141177,0.947879 0.771704,0.87049 1.486971,0.661841 1.448448,-0.422525 z"
           id="path1727"
           sodipodi:nodetypes="ssssssssssssssssscssssssssssss" />
      </g>
      <path
         style="fill:#442178;stroke-width:0.258117"
         d="m 10.92123,5.9190748 c -0.1688,-0.31942 -0.6376,-0.98473 -1.0417,-1.47846 -0.8436003,-1.03063 -0.9445003,-2.05893 -0.2627,-2.675957 1.0043,-0.90880997 2.2168,-0.29685 2.0633,1.041397 -0.067,0.57954 -0.2129,0.72543 -0.7284,0.72543 -0.4936,0 -0.6654,-0.15168 -0.7302,-0.6453 -0.083,-0.62845 -0.075,-0.63181 0.3053,-0.12905 0.4551,0.60222 1.0657,0.2379 0.7929,-0.47307 -0.2908,-0.757877 -1.6587,-0.3539 -1.6587,0.48986 0,0.16538 0.4644,0.98426 1.032,1.81972 0.5675,0.83546 1.0321,1.60613 1.0324,1.7126 0,0.41256 -0.5124,0.16524 -0.8042,-0.38717 z"
         id="path1797"
         sodipodi:nodetypes="ssssssssssss" />
      <path
         style="fill:#442178;stroke-width:0.258117"
         d="m 14.096229,5.9190748 c -0.1688,-0.31942 -0.6376,-0.98473 -1.0417,-1.47846 -0.843601,-1.03063 -0.944501,-2.05893 -0.2627,-2.675957 1.0043,-0.90880997 2.2168,-0.29685 2.0633,1.041397 -0.067,0.57954 -0.2129,0.72543 -0.7284,0.72543 -0.4936,0 -0.6654,-0.15168 -0.7302,-0.6453 -0.083,-0.62845 -0.075,-0.63181 0.3053,-0.12905 0.4551,0.60222 1.0657,0.2379 0.7929,-0.47307 -0.2908,-0.757877 -1.6587,-0.3539 -1.6587,0.48986 0,0.16538 0.4644,0.98426 1.032,1.81972 0.5675,0.83546 1.0321,1.60613 1.0324,1.7126 0,0.41256 -0.5124,0.16524 -0.8042,-0.38717 z"
         id="path1"
         sodipodi:nodetypes="ssssssssssss" />
      <path
         style="fill:#442178;stroke-width:0.258117"
         d="m 17.271231,5.9190748 c -0.1688,-0.31942 -0.6376,-0.98473 -1.0417,-1.47846 -0.843601,-1.03063 -0.944501,-2.05893 -0.2627,-2.675957 1.0043,-0.90880997 2.2168,-0.29685 2.0633,1.041397 -0.067,0.57954 -0.2129,0.72543 -0.7284,0.72543 -0.4936,0 -0.6654,-0.15168 -0.7302,-0.6453 -0.083,-0.62845 -0.075,-0.63181 0.3053,-0.12905 0.4551,0.60222 1.0657,0.2379 0.7929,-0.47307 -0.2908,-0.757877 -1.6587,-0.3539 -1.6587,0.48986 0,0.16538 0.4644,0.98426 1.032,1.81972 0.5675,0.83546 1.0321,1.60613 1.0324,1.7126 0,0.41256 -0.5124,0.16524 -0.8042,-0.38717 z"
         id="path2"
         sodipodi:nodetypes="ssssssssssss" />
      <path
         style="fill:#442178;stroke-width:0.258117"
         d="m 20.44623,5.9190748 c -0.1688,-0.31942 -0.6376,-0.98473 -1.0417,-1.47846 -0.843601,-1.03063 -0.944501,-2.05893 -0.2627,-2.675957 1.0043,-0.90880997 2.2168,-0.29685 2.0633,1.041397 -0.067,0.57954 -0.2129,0.72543 -0.7284,0.72543 -0.4936,0 -0.6654,-0.15168 -0.7302,-0.6453 -0.083,-0.62845 -0.075,-0.63181 0.3053,-0.12905 0.4551,0.60222 1.0657,0.2379 0.7929,-0.47307 -0.2908,-0.757877 -1.6587,-0.3539 -1.6587,0.48986 0,0.16538 0.4644,0.98426 1.032,1.81972 0.5675,0.83546 1.0321,1.60613 1.0324,1.7126 0,0.41256 -0.5124,0.16524 -0.8042,-0.38717 z"
         id="path3"
         sodipodi:nodetypes="ssssssssssss" />
      <path
         style="fill:#442178;stroke-width:0.258117"
         d="m 23.621232,5.9190748 c -0.1688,-0.31942 -0.6376,-0.98473 -1.0417,-1.47846 -0.843601,-1.03063 -0.944501,-2.05893 -0.2627,-2.675957 1.0043,-0.90880997 2.2168,-0.29685 2.0633,1.041397 -0.067,0.57954 -0.2129,0.72543 -0.7284,0.72543 -0.4936,0 -0.6654,-0.15168 -0.7302,-0.6453 -0.083,-0.62845 -0.075,-0.63181 0.3053,-0.12905 0.4551,0.60222 1.0657,0.2379 0.7929,-0.47307 -0.2908,-0.757877 -1.6587,-0.3539 -1.6587,0.48986 0,0.16538 0.4644,0.98426 1.032,1.81972 0.5675,0.83546 1.0321,1.60613 1.0324,1.7126 0,0.41256 -0.5124,0.16524 -0.8042,-0.38717 z"
         id="path4"
         sodipodi:nodetypes="ssssssssssss" />
      <path
         style="fill:#442178;stroke-width:0.258117"
         d="m 26.796231,5.9190748 c -0.1688,-0.31942 -0.6376,-0.98473 -1.0417,-1.47846 -0.843601,-1.03063 -0.944501,-2.05893 -0.2627,-2.675957 1.0043,-0.90880997 2.2168,-0.29685 2.0633,1.041397 -0.067,0.57954 -0.2129,0.72543 -0.7284,0.72543 -0.4936,0 -0.6654,-0.15168 -0.7302,-0.6453 -0.083,-0.62845 -0.075,-0.63181 0.3053,-0.12905 0.4551,0.60222 1.0657,0.2379 0.7929,-0.47307 -0.2908,-0.757877 -1.6587,-0.3539 -1.6587,0.48986 0,0.16538 0.4644,0.98426 1.032,1.81972 0.5675,0.83546 1.0321,1.60613 1.0324,1.7126 0,0.41256 -0.5124,0.16524 -0.8042,-0.38717 z"
         id="path5"
         sodipodi:nodetypes="ssssssssssss" />
      <path
         style="fill:#442178;stroke-width:0.258117"
         d="m 29.97123,5.9190748 c -0.1688,-0.31942 -0.6376,-0.98473 -1.0417,-1.47846 -0.843601,-1.03063 -0.944501,-2.05893 -0.2627,-2.675957 1.0043,-0.90880997 2.2168,-0.29685 2.0633,1.041397 -0.067,0.57954 -0.2129,0.72543 -0.7284,0.72543 -0.4936,0 -0.6654,-0.15168 -0.7302,-0.6453 -0.083,-0.62845 -0.075,-0.63181 0.3053,-0.12905 0.4551,0.60222 1.0657,0.2379 0.7929,-0.47307 -0.2908,-0.757877 -1.6587,-0.3539 -1.6587,0.48986 0,0.16538 0.4644,0.98426 1.032,1.81972 0.5675,0.83546 1.0321,1.60613 1.0324,1.7126 0,0.41256 -0.5124,0.16524 -0.8042,-0.38717 z"
         id="path6"
         sodipodi:nodetypes="ssssssssssss" />
      <path
         style="fill:#217821;stroke-width:0.258117"
         d="m 32.733364,3.9251609 c 0,-1.20455 0.1076,-2.06494 0.2581,-2.06494 0.1506,0 0.2581,0.86039 0.2581,2.06494 0,1.20455 -0.1075,2.06494 -0.2581,2.06494 -0.1505,0 -0.2581,-0.86039 -0.2581,-2.06494 z"
         id="path1732"
         sodipodi:nodetypes="sssss" />
      <path
         style="fill:#217821;stroke-width:0.258117"
         d="m 31.674964,3.9251609 c 0,-1.20455 0.1076,-2.06494 0.2581,-2.06494 0.1506,0 0.2581,0.86039 0.2581,2.06494 0,1.20455 -0.1075,2.06494 -0.2581,2.06494 -0.1505,0 -0.2581,-0.86039 -0.2581,-2.06494 z"
         id="path1736"
         sodipodi:nodetypes="sssss" />
      <path
         style="fill:#217821;stroke-width:0.258117"
         d="m 33.791764,3.9251609 c 0,-1.20455 0.1076,-2.06494 0.2581,-2.06494 0.1506,0 0.2581,0.86039 0.2581,2.06494 0,1.20455 -0.1075,2.06494 -0.2581,2.06494 -0.1505,0 -0.2581,-0.86039 -0.2581,-2.06494 z"
         id="path1737"
         sodipodi:nodetypes="sssss" />
      <path
         style="fill:#217821;stroke-width:0.258117"
         d="m 34.850164,3.9251609 c 0,-1.20455 0.1076,-2.06494 0.2581,-2.06494 0.1506,0 0.2581,0.86039 0.2581,2.06494 0,1.20455 -0.1075,2.06494 -0.2581,2.06494 -0.1505,0 -0.2581,-0.86039 -0.2581,-2.06494 z"
         id="path1738"
         sodipodi:nodetypes="sssss" />
      <path
         style="fill:#217821;stroke-width:0.258117"
         d="m 35.908564,3.9251609 c 0,-1.20455 0.1076,-2.06494 0.2581,-2.06494 0.1506,0 0.2581,0.86039 0.2581,2.06494 0,1.20455 -0.1075,2.06494 -0.2581,2.06494 -0.1505,0 -0.2581,-0.86039 -0.2581,-2.06494 z"
         id="path1739"
         sodipodi:nodetypes="sssss" />
    </g>
  </g>
</svg>
