<?xml version="1.0" encoding="UTF-8" standalone="no"?>
<!-- Created with Inkscape (http://www.inkscape.org/) -->

<svg
   width="84.690002mm"
   height="7.6500001mm"
   viewBox="0 0 84.690001 7.6500001"
   version="1.1"
   id="svg1"
   inkscape:version="1.4.2 (ebf0e940d0, 2025-05-08)"
   sodipodi:docname="5_1_1_3_1.svg"
   xmlns:inkscape="http://www.inkscape.org/namespaces/inkscape"
   xmlns:sodipodi="http://sodipodi.sourceforge.net/DTD/sodipodi-0.dtd"
   xmlns="http://www.w3.org/2000/svg"
   xmlns:svg="http://www.w3.org/2000/svg">
  <sodipodi:namedview
     id="namedview1"
     pagecolor="#ffffff"
     bordercolor="#000000"
     borderopacity="0.25"
     inkscape:showpageshadow="2"
     inkscape:pageopacity="0.0"
     inkscape:pagecheckerboard="0"
     inkscape:deskcolor="#d1d1d1"
     inkscape:document-units="mm"
     inkscape:zoom="2.4887893"
     inkscape:cx="171.36846"
     inkscape:cy="81.565763"
     inkscape:window-width="1920"
     inkscape:window-height="1014"
     inkscape:window-x="0"
     inkscape:window-y="0"
     inkscape:window-maximized="1"
     inkscape:current-layer="layer1" />
  <defs
     id="defs1" />
  <g
     inkscape:label="Katman 1"
     inkscape:groupmode="layer"
     id="layer1">
    <g
       id="g1"
       transform="matrix(1.0000381,0,0,1.0000381,-0.89551447,-1.6078159)">
      <g
         id="g1741"
         transform="matrix(0.58795325,0,0,0.58795325,-74.301407,-15.024163)">
        <path
           style="fill:#005500;fill-opacity:0.5;stroke:none;stroke-width:0.264583px;stroke-linecap:butt;stroke-linejoin:miter;stroke-opacity:1"
           d="m 128.30076,32.028497 2.97509,5.146006 -2.02025,1.896486 1.91403,0.313192 1.0363,-1.641938 1.80981,1.441606 3.42186,0.0897 1.54658,-1.742874 -2.45771,-3.250356 -7.04569,-3.298431 z"
           id="path1740" />
        <path
           style="fill:#005500;stroke-width:0.32002"
           d="m 127.9285,39.310535 c -0.10849,-0.175613 0.0639,-0.41155 0.38299,-0.524305 2.72312,-0.961918 3.2177,-1.489788 2.19282,-2.340353 -0.2572,-0.213468 -0.55962,-0.699129 -0.67205,-1.07925 -0.11249,-0.38014 -0.57176,-1.234261 -1.02072,-1.898061 -0.69387,-1.025891 -0.76209,-1.325883 -0.45488,-2.000139 0.5532,-1.214121 1.96848,-1.056363 3.98911,0.444642 0.91651,0.68081 2.35864,1.495563 3.20473,1.810551 3.05103,1.13586 4.90242,4.640689 2.92689,5.540788 -1.31098,0.597331 -3.99989,0.457603 -5.19301,-0.269845 -1.28884,-0.785803 -1.45934,-0.796648 -1.06938,-0.06797 0.278,0.519459 0.10776,0.576783 -1.89184,0.637051 -1.20852,0.0364 -2.28613,-0.07744 -2.39466,-0.253058 z m 3.36348,-0.954824 c 0.35203,-0.352016 0.64003,-0.928056 0.64003,-1.280081 0,-0.352025 0.14401,-0.640041 0.32003,-0.640041 0.176,0 0.32001,0.35496 0.32001,0.788793 0,0.836526 0.7955,1.451349 1.87784,1.451349 0.46009,0 0.66826,-0.247208 0.74109,-0.880053 0.0879,-0.764049 0.25945,-0.893154 1.30133,-0.979383 0.66005,-0.05469 1.20009,0.02312 1.20009,0.172633 0,0.14957 -0.39207,0.266261 -0.87127,0.259335 -0.58016,-0.0084 -0.90878,0.17449 -0.98354,0.547415 -0.0788,0.39338 0.0908,0.560033 0.57014,0.560033 0.37532,0 0.59339,-0.143998 0.48461,-0.320011 -0.11212,-0.181509 0.15669,-0.320029 0.62116,-0.320029 1.84571,0 0.17143,-2.396406 -2.45389,-3.512276 -0.92813,-0.394494 -2.13776,-1.055472 -2.68806,-1.468842 -0.55032,-0.41337 -1.09184,-0.660318 -1.20339,-0.548761 -0.11152,0.11152 -0.39652,-0.06212 -0.63326,-0.385868 -0.28101,-0.38429 -0.62832,-0.512746 -1.00033,-0.369992 -0.52895,0.202985 -0.53227,0.260226 -0.0463,0.797243 0.65212,0.720577 0.68953,1.224297 0.0516,0.694876 -0.46395,-0.385042 0.70864,2.029414 1.61185,3.318919 0.68777,0.981927 0.56836,1.418175 -0.57985,2.118251 -0.69231,0.422107 -0.8528,0.634544 -0.48003,0.635342 0.30802,6.41e-4 0.84805,-0.286827 1.20009,-0.638852 z m 6.31375,0.446703 c -0.10632,-0.106321 -0.38237,-0.117695 -0.61337,-0.02535 -0.2553,0.102208 -0.17947,0.178 0.19333,0.193338 0.33736,0.01384 0.52637,-0.06165 0.42004,-0.168065 z"
           id="path1741"
           sodipodi:nodetypes="scsssssssssssssssssssscssssssssssssssssscsss" />
      </g>
      <g
         id="g1743"
         transform="matrix(0.58795325,0,0,0.58795325,-67.422579,-15.024163)">
        <path
           style="fill:#005500;fill-opacity:0.5;stroke:none;stroke-width:0.264583px;stroke-linecap:butt;stroke-linejoin:miter;stroke-opacity:1"
           d="m 128.30076,32.028497 2.97509,5.146006 -2.02025,1.896486 1.91403,0.313192 1.0363,-1.641938 1.80981,1.441606 3.42186,0.0897 1.54658,-1.742874 -2.45771,-3.250356 -7.04569,-3.298431 z"
           id="path1742" />
        <path
           style="fill:#005500;stroke-width:0.32002"
           d="m 127.9285,39.310535 c -0.10849,-0.175613 0.0639,-0.41155 0.38299,-0.524305 2.72312,-0.961918 3.2177,-1.489788 2.19282,-2.340353 -0.2572,-0.213468 -0.55962,-0.699129 -0.67205,-1.07925 -0.11249,-0.38014 -0.57176,-1.234261 -1.02072,-1.898061 -0.69387,-1.025891 -0.76209,-1.325883 -0.45488,-2.000139 0.5532,-1.214121 1.96848,-1.056363 3.98911,0.444642 0.91651,0.68081 2.35864,1.495563 3.20473,1.810551 3.05103,1.13586 4.90242,4.640689 2.92689,5.540788 -1.31098,0.597331 -3.99989,0.457603 -5.19301,-0.269845 -1.28884,-0.785803 -1.45934,-0.796648 -1.06938,-0.06797 0.278,0.519459 0.10776,0.576783 -1.89184,0.637051 -1.20852,0.0364 -2.28613,-0.07744 -2.39466,-0.253058 z m 3.36348,-0.954824 c 0.35203,-0.352016 0.64003,-0.928056 0.64003,-1.280081 0,-0.352025 0.14401,-0.640041 0.32003,-0.640041 0.176,0 0.32001,0.35496 0.32001,0.788793 0,0.836526 0.7955,1.451349 1.87784,1.451349 0.46009,0 0.66826,-0.247208 0.74109,-0.880053 0.0879,-0.764049 0.25945,-0.893154 1.30133,-0.979383 0.66005,-0.05469 1.20009,0.02312 1.20009,0.172633 0,0.14957 -0.39207,0.266261 -0.87127,0.259335 -0.58016,-0.0084 -0.90878,0.17449 -0.98354,0.547415 -0.0788,0.39338 0.0908,0.560033 0.57014,0.560033 0.37532,0 0.59339,-0.143998 0.48461,-0.320011 -0.11212,-0.181509 0.15669,-0.320029 0.62116,-0.320029 1.84571,0 0.17143,-2.396406 -2.45389,-3.512276 -0.92813,-0.394494 -2.13776,-1.055472 -2.68806,-1.468842 -0.55032,-0.41337 -1.09184,-0.660318 -1.20339,-0.548761 -0.11152,0.11152 -0.39652,-0.06212 -0.63326,-0.385868 -0.28101,-0.38429 -0.62832,-0.512746 -1.00033,-0.369992 -0.52895,0.202985 -0.53227,0.260226 -0.0463,0.797243 0.65212,0.720577 0.68953,1.224297 0.0516,0.694876 -0.46395,-0.385042 0.70864,2.029414 1.61185,3.318919 0.68777,0.981927 0.56836,1.418175 -0.57985,2.118251 -0.69231,0.422107 -0.8528,0.634544 -0.48003,0.635342 0.30802,6.41e-4 0.84805,-0.286827 1.20009,-0.638852 z m 6.31375,0.446703 c -0.10632,-0.106321 -0.38237,-0.117695 -0.61337,-0.02535 -0.2553,0.102208 -0.17947,0.178 0.19333,0.193338 0.33736,0.01384 0.52637,-0.06165 0.42004,-0.168065 z"
           id="path1743"
           sodipodi:nodetypes="scsssssssssssssssssssscssssssssssssssssscsss" />
      </g>
      <g
         id="g1745"
         transform="matrix(0.58795325,0,0,0.58795325,-60.543752,-15.024163)">
        <path
           style="fill:#005500;fill-opacity:0.5;stroke:none;stroke-width:0.264583px;stroke-linecap:butt;stroke-linejoin:miter;stroke-opacity:1"
           d="m 128.30076,32.028497 2.97509,5.146006 -2.02025,1.896486 1.91403,0.313192 1.0363,-1.641938 1.80981,1.441606 3.42186,0.0897 1.54658,-1.742874 -2.45771,-3.250356 -7.04569,-3.298431 z"
           id="path1744" />
        <path
           style="fill:#005500;stroke-width:0.32002"
           d="m 127.9285,39.310535 c -0.10849,-0.175613 0.0639,-0.41155 0.38299,-0.524305 2.72312,-0.961918 3.2177,-1.489788 2.19282,-2.340353 -0.2572,-0.213468 -0.55962,-0.699129 -0.67205,-1.07925 -0.11249,-0.38014 -0.57176,-1.234261 -1.02072,-1.898061 -0.69387,-1.025891 -0.76209,-1.325883 -0.45488,-2.000139 0.5532,-1.214121 1.96848,-1.056363 3.98911,0.444642 0.91651,0.68081 2.35864,1.495563 3.20473,1.810551 3.05103,1.13586 4.90242,4.640689 2.92689,5.540788 -1.31098,0.597331 -3.99989,0.457603 -5.19301,-0.269845 -1.28884,-0.785803 -1.45934,-0.796648 -1.06938,-0.06797 0.278,0.519459 0.10776,0.576783 -1.89184,0.637051 -1.20852,0.0364 -2.28613,-0.07744 -2.39466,-0.253058 z m 3.36348,-0.954824 c 0.35203,-0.352016 0.64003,-0.928056 0.64003,-1.280081 0,-0.352025 0.14401,-0.640041 0.32003,-0.640041 0.176,0 0.32001,0.35496 0.32001,0.788793 0,0.836526 0.7955,1.451349 1.87784,1.451349 0.46009,0 0.66826,-0.247208 0.74109,-0.880053 0.0879,-0.764049 0.25945,-0.893154 1.30133,-0.979383 0.66005,-0.05469 1.20009,0.02312 1.20009,0.172633 0,0.14957 -0.39207,0.266261 -0.87127,0.259335 -0.58016,-0.0084 -0.90878,0.17449 -0.98354,0.547415 -0.0788,0.39338 0.0908,0.560033 0.57014,0.560033 0.37532,0 0.59339,-0.143998 0.48461,-0.320011 -0.11212,-0.181509 0.15669,-0.320029 0.62116,-0.320029 1.84571,0 0.17143,-2.396406 -2.45389,-3.512276 -0.92813,-0.394494 -2.13776,-1.055472 -2.68806,-1.468842 -0.55032,-0.41337 -1.09184,-0.660318 -1.20339,-0.548761 -0.11152,0.11152 -0.39652,-0.06212 -0.63326,-0.385868 -0.28101,-0.38429 -0.62832,-0.512746 -1.00033,-0.369992 -0.52895,0.202985 -0.53227,0.260226 -0.0463,0.797243 0.65212,0.720577 0.68953,1.224297 0.0516,0.694876 -0.46395,-0.385042 0.70864,2.029414 1.61185,3.318919 0.68777,0.981927 0.56836,1.418175 -0.57985,2.118251 -0.69231,0.422107 -0.8528,0.634544 -0.48003,0.635342 0.30802,6.41e-4 0.84805,-0.286827 1.20009,-0.638852 z m 6.31375,0.446703 c -0.10632,-0.106321 -0.38237,-0.117695 -0.61337,-0.02535 -0.2553,0.102208 -0.17947,0.178 0.19333,0.193338 0.33736,0.01384 0.52637,-0.06165 0.42004,-0.168065 z"
           id="path1745"
           sodipodi:nodetypes="scsssssssssssssssssssscssssssssssssssssscsss" />
      </g>
      <g
         id="g1747"
         transform="matrix(0.58795325,0,0,0.58795325,-53.135811,-15.024163)">
        <path
           style="fill:#005500;fill-opacity:0.5;stroke:none;stroke-width:0.264583px;stroke-linecap:butt;stroke-linejoin:miter;stroke-opacity:1"
           d="m 128.30076,32.028497 2.97509,5.146006 -2.02025,1.896486 1.91403,0.313192 1.0363,-1.641938 1.80981,1.441606 3.42186,0.0897 1.54658,-1.742874 -2.45771,-3.250356 -7.04569,-3.298431 z"
           id="path1746" />
        <path
           style="fill:#005500;stroke-width:0.32002"
           d="m 127.9285,39.310535 c -0.10849,-0.175613 0.0639,-0.41155 0.38299,-0.524305 2.72312,-0.961918 3.2177,-1.489788 2.19282,-2.340353 -0.2572,-0.213468 -0.55962,-0.699129 -0.67205,-1.07925 -0.11249,-0.38014 -0.57176,-1.234261 -1.02072,-1.898061 -0.69387,-1.025891 -0.76209,-1.325883 -0.45488,-2.000139 0.5532,-1.214121 1.96848,-1.056363 3.98911,0.444642 0.91651,0.68081 2.35864,1.495563 3.20473,1.810551 3.05103,1.13586 4.90242,4.640689 2.92689,5.540788 -1.31098,0.597331 -3.99989,0.457603 -5.19301,-0.269845 -1.28884,-0.785803 -1.45934,-0.796648 -1.06938,-0.06797 0.278,0.519459 0.10776,0.576783 -1.89184,0.637051 -1.20852,0.0364 -2.28613,-0.07744 -2.39466,-0.253058 z m 3.36348,-0.954824 c 0.35203,-0.352016 0.64003,-0.928056 0.64003,-1.280081 0,-0.352025 0.14401,-0.640041 0.32003,-0.640041 0.176,0 0.32001,0.35496 0.32001,0.788793 0,0.836526 0.7955,1.451349 1.87784,1.451349 0.46009,0 0.66826,-0.247208 0.74109,-0.880053 0.0879,-0.764049 0.25945,-0.893154 1.30133,-0.979383 0.66005,-0.05469 1.20009,0.02312 1.20009,0.172633 0,0.14957 -0.39207,0.266261 -0.87127,0.259335 -0.58016,-0.0084 -0.90878,0.17449 -0.98354,0.547415 -0.0788,0.39338 0.0908,0.560033 0.57014,0.560033 0.37532,0 0.59339,-0.143998 0.48461,-0.320011 -0.11212,-0.181509 0.15669,-0.320029 0.62116,-0.320029 1.84571,0 0.17143,-2.396406 -2.45389,-3.512276 -0.92813,-0.394494 -2.13776,-1.055472 -2.68806,-1.468842 -0.55032,-0.41337 -1.09184,-0.660318 -1.20339,-0.548761 -0.11152,0.11152 -0.39652,-0.06212 -0.63326,-0.385868 -0.28101,-0.38429 -0.62832,-0.512746 -1.00033,-0.369992 -0.52895,0.202985 -0.53227,0.260226 -0.0463,0.797243 0.65212,0.720577 0.68953,1.224297 0.0516,0.694876 -0.46395,-0.385042 0.70864,2.029414 1.61185,3.318919 0.68777,0.981927 0.56836,1.418175 -0.57985,2.118251 -0.69231,0.422107 -0.8528,0.634544 -0.48003,0.635342 0.30802,6.41e-4 0.84805,-0.286827 1.20009,-0.638852 z m 6.31375,0.446703 c -0.10632,-0.106321 -0.38237,-0.117695 -0.61337,-0.02535 -0.2553,0.102208 -0.17947,0.178 0.19333,0.193338 0.33736,0.01384 0.52637,-0.06165 0.42004,-0.168065 z"
           id="path1747"
           sodipodi:nodetypes="scsssssssssssssssssssscssssssssssssssssscsss" />
      </g>
      <g
         id="g1749"
         transform="matrix(0.58795325,0,0,0.58795325,-46.256983,-15.024163)">
        <path
           style="fill:#005500;fill-opacity:0.5;stroke:none;stroke-width:0.264583px;stroke-linecap:butt;stroke-linejoin:miter;stroke-opacity:1"
           d="m 128.30076,32.028497 2.97509,5.146006 -2.02025,1.896486 1.91403,0.313192 1.0363,-1.641938 1.80981,1.441606 3.42186,0.0897 1.54658,-1.742874 -2.45771,-3.250356 -7.04569,-3.298431 z"
           id="path1748" />
        <path
           style="fill:#005500;stroke-width:0.32002"
           d="m 127.9285,39.310535 c -0.10849,-0.175613 0.0639,-0.41155 0.38299,-0.524305 2.72312,-0.961918 3.2177,-1.489788 2.19282,-2.340353 -0.2572,-0.213468 -0.55962,-0.699129 -0.67205,-1.07925 -0.11249,-0.38014 -0.57176,-1.234261 -1.02072,-1.898061 -0.69387,-1.025891 -0.76209,-1.325883 -0.45488,-2.000139 0.5532,-1.214121 1.96848,-1.056363 3.98911,0.444642 0.91651,0.68081 2.35864,1.495563 3.20473,1.810551 3.05103,1.13586 4.90242,4.640689 2.92689,5.540788 -1.31098,0.597331 -3.99989,0.457603 -5.19301,-0.269845 -1.28884,-0.785803 -1.45934,-0.796648 -1.06938,-0.06797 0.278,0.519459 0.10776,0.576783 -1.89184,0.637051 -1.20852,0.0364 -2.28613,-0.07744 -2.39466,-0.253058 z m 3.36348,-0.954824 c 0.35203,-0.352016 0.64003,-0.928056 0.64003,-1.280081 0,-0.352025 0.14401,-0.640041 0.32003,-0.640041 0.176,0 0.32001,0.35496 0.32001,0.788793 0,0.836526 0.7955,1.451349 1.87784,1.451349 0.46009,0 0.66826,-0.247208 0.74109,-0.880053 0.0879,-0.764049 0.25945,-0.893154 1.30133,-0.979383 0.66005,-0.05469 1.20009,0.02312 1.20009,0.172633 0,0.14957 -0.39207,0.266261 -0.87127,0.259335 -0.58016,-0.0084 -0.90878,0.17449 -0.98354,0.547415 -0.0788,0.39338 0.0908,0.560033 0.57014,0.560033 0.37532,0 0.59339,-0.143998 0.48461,-0.320011 -0.11212,-0.181509 0.15669,-0.320029 0.62116,-0.320029 1.84571,0 0.17143,-2.396406 -2.45389,-3.512276 -0.92813,-0.394494 -2.13776,-1.055472 -2.68806,-1.468842 -0.55032,-0.41337 -1.09184,-0.660318 -1.20339,-0.548761 -0.11152,0.11152 -0.39652,-0.06212 -0.63326,-0.385868 -0.28101,-0.38429 -0.62832,-0.512746 -1.00033,-0.369992 -0.52895,0.202985 -0.53227,0.260226 -0.0463,0.797243 0.65212,0.720577 0.68953,1.224297 0.0516,0.694876 -0.46395,-0.385042 0.70864,2.029414 1.61185,3.318919 0.68777,0.981927 0.56836,1.418175 -0.57985,2.118251 -0.69231,0.422107 -0.8528,0.634544 -0.48003,0.635342 0.30802,6.41e-4 0.84805,-0.286827 1.20009,-0.638852 z m 6.31375,0.446703 c -0.10632,-0.106321 -0.38237,-0.117695 -0.61337,-0.02535 -0.2553,0.102208 -0.17947,0.178 0.19333,0.193338 0.33736,0.01384 0.52637,-0.06165 0.42004,-0.168065 z"
           id="path1749"
           sodipodi:nodetypes="scsssssssssssssssssssscssssssssssssssssscsss" />
      </g>
      <g
         id="g1751"
         transform="matrix(0.58795325,0,0,0.58795325,-39.378155,-15.024163)">
        <path
           style="fill:#005500;fill-opacity:0.5;stroke:none;stroke-width:0.264583px;stroke-linecap:butt;stroke-linejoin:miter;stroke-opacity:1"
           d="m 128.30076,32.028497 2.97509,5.146006 -2.02025,1.896486 1.91403,0.313192 1.0363,-1.641938 1.80981,1.441606 3.42186,0.0897 1.54658,-1.742874 -2.45771,-3.250356 -7.04569,-3.298431 z"
           id="path1750" />
        <path
           style="fill:#005500;stroke-width:0.32002"
           d="m 127.9285,39.310535 c -0.10849,-0.175613 0.0639,-0.41155 0.38299,-0.524305 2.72312,-0.961918 3.2177,-1.489788 2.19282,-2.340353 -0.2572,-0.213468 -0.55962,-0.699129 -0.67205,-1.07925 -0.11249,-0.38014 -0.57176,-1.234261 -1.02072,-1.898061 -0.69387,-1.025891 -0.76209,-1.325883 -0.45488,-2.000139 0.5532,-1.214121 1.96848,-1.056363 3.98911,0.444642 0.91651,0.68081 2.35864,1.495563 3.20473,1.810551 3.05103,1.13586 4.90242,4.640689 2.92689,5.540788 -1.31098,0.597331 -3.99989,0.457603 -5.19301,-0.269845 -1.28884,-0.785803 -1.45934,-0.796648 -1.06938,-0.06797 0.278,0.519459 0.10776,0.576783 -1.89184,0.637051 -1.20852,0.0364 -2.28613,-0.07744 -2.39466,-0.253058 z m 3.36348,-0.954824 c 0.35203,-0.352016 0.64003,-0.928056 0.64003,-1.280081 0,-0.352025 0.14401,-0.640041 0.32003,-0.640041 0.176,0 0.32001,0.35496 0.32001,0.788793 0,0.836526 0.7955,1.451349 1.87784,1.451349 0.46009,0 0.66826,-0.247208 0.74109,-0.880053 0.0879,-0.764049 0.25945,-0.893154 1.30133,-0.979383 0.66005,-0.05469 1.20009,0.02312 1.20009,0.172633 0,0.14957 -0.39207,0.266261 -0.87127,0.259335 -0.58016,-0.0084 -0.90878,0.17449 -0.98354,0.547415 -0.0788,0.39338 0.0908,0.560033 0.57014,0.560033 0.37532,0 0.59339,-0.143998 0.48461,-0.320011 -0.11212,-0.181509 0.15669,-0.320029 0.62116,-0.320029 1.84571,0 0.17143,-2.396406 -2.45389,-3.512276 -0.92813,-0.394494 -2.13776,-1.055472 -2.68806,-1.468842 -0.55032,-0.41337 -1.09184,-0.660318 -1.20339,-0.548761 -0.11152,0.11152 -0.39652,-0.06212 -0.63326,-0.385868 -0.28101,-0.38429 -0.62832,-0.512746 -1.00033,-0.369992 -0.52895,0.202985 -0.53227,0.260226 -0.0463,0.797243 0.65212,0.720577 0.68953,1.224297 0.0516,0.694876 -0.46395,-0.385042 0.70864,2.029414 1.61185,3.318919 0.68777,0.981927 0.56836,1.418175 -0.57985,2.118251 -0.69231,0.422107 -0.8528,0.634544 -0.48003,0.635342 0.30802,6.41e-4 0.84805,-0.286827 1.20009,-0.638852 z m 6.31375,0.446703 c -0.10632,-0.106321 -0.38237,-0.117695 -0.61337,-0.02535 -0.2553,0.102208 -0.17947,0.178 0.19333,0.193338 0.33736,0.01384 0.52637,-0.06165 0.42004,-0.168065 z"
           id="path1751"
           sodipodi:nodetypes="scsssssssssssssssssssscssssssssssssssssscsss" />
      </g>
      <path
         style="fill:#442178;stroke-width:0.258104"
         d="M 45.239123,7.1111595 C 45.070332,6.7917558 44.601656,6.1264799 44.197576,5.6327752 43.35402,4.6021979 43.253125,3.5739506 43.93489,2.9569552 c 1.004148,-0.9087635 2.216586,-0.2968348 2.063094,1.0413436 -0.067,0.5795104 -0.212889,0.7253929 -0.728362,0.7253929 -0.493575,0 -0.665266,-0.1516722 -0.730063,-0.645267 -0.083,-0.6284178 -0.075,-0.6317776 0.305184,-0.1290433 0.455077,0.6021891 1.065646,0.2378878 0.79286,-0.4730458 -0.290785,-0.7578382 -1.658515,-0.3538819 -1.658515,0.4898349 0,0.1653715 0.464376,0.9842096 1.031847,1.8196268 0.567471,0.8354173 1.032047,1.6060478 1.032347,1.7125124 0,0.4125389 -0.512374,0.1652315 -0.804159,-0.3871502 z"
         id="path1752"
         sodipodi:nodetypes="ssssssssssss" />
      <path
         style="fill:#442178;stroke-width:0.258104"
         d="M 48.414161,7.1111595 C 48.245369,6.7917558 47.776693,6.1264799 47.372614,5.6327752 46.529057,4.6021979 46.428162,3.5739506 47.109927,2.9569552 c 1.004149,-0.9087635 2.216587,-0.2968348 2.063095,1.0413436 -0.067,0.5795104 -0.212889,0.7253929 -0.728363,0.7253929 -0.493575,0 -0.665266,-0.1516722 -0.730063,-0.645267 -0.08299,-0.6284178 -0.075,-0.6317776 0.305185,-0.1290433 0.455076,0.6021891 1.065645,0.2378878 0.792859,-0.4730458 -0.290785,-0.7578382 -1.658515,-0.3538819 -1.658515,0.4898349 0,0.1653715 0.464376,0.9842096 1.031847,1.8196268 0.567471,0.8354173 1.032047,1.6060478 1.032347,1.7125124 0,0.4125389 -0.512373,0.1652315 -0.804158,-0.3871502 z"
         id="path1753"
         sodipodi:nodetypes="ssssssssssss" />
      <path
         style="fill:#442178;stroke-width:0.258104"
         d="M 51.589198,7.1111595 C 51.420407,6.7917558 50.951731,6.1264799 50.547651,5.6327752 49.704095,4.6021979 49.6032,3.5739506 50.284965,2.9569552 c 1.004148,-0.9087635 2.216586,-0.2968348 2.063094,1.0413436 -0.067,0.5795104 -0.212889,0.7253929 -0.728363,0.7253929 -0.493574,0 -0.665265,-0.1516722 -0.730062,-0.645267 -0.083,-0.6284178 -0.075,-0.6317776 0.305184,-0.1290433 0.455077,0.6021891 1.065646,0.2378878 0.79286,-0.4730458 -0.290785,-0.7578382 -1.658515,-0.3538819 -1.658515,0.4898349 0,0.1653715 0.464376,0.9842096 1.031847,1.8196268 0.567471,0.8354173 1.032047,1.6060478 1.032347,1.7125124 0,0.4125389 -0.512374,0.1652315 -0.804159,-0.3871502 z"
         id="path1754"
         sodipodi:nodetypes="ssssssssssss" />
      <path
         style="fill:#442178;stroke-width:0.258104"
         d="M 54.764235,7.1111595 C 54.595444,6.7917558 54.126768,6.1264799 53.722689,5.6327752 52.879132,4.6021979 52.778237,3.5739506 53.460002,2.9569552 c 1.004149,-0.9087635 2.216587,-0.2968348 2.063095,1.0413436 -0.067,0.5795104 -0.212889,0.7253929 -0.728363,0.7253929 -0.493575,0 -0.665266,-0.1516722 -0.730063,-0.645267 -0.08299,-0.6284178 -0.075,-0.6317776 0.305185,-0.1290433 0.455076,0.6021891 1.065645,0.2378878 0.792859,-0.4730458 C 54.87193,2.7184974 53.5042,3.1224537 53.5042,3.9661705 c 0,0.1653715 0.464376,0.9842096 1.031847,1.8196268 0.567471,0.8354173 1.032047,1.6060478 1.032347,1.7125124 0,0.4125389 -0.512373,0.1652315 -0.804159,-0.3871502 z"
         id="path1755"
         sodipodi:nodetypes="ssssssssssss" />
      <path
         style="fill:#006680;stroke-width:0.258104"
         d="m 57.086417,5.4980021 c 0,-1.4141176 0.522973,-2.1048323 1.593518,-2.1048323 0.97485,0 1.503823,0.7561313 1.503823,2.14968 0,1.5645999 -0.464076,1.5696096 -0.566671,0.006 -0.148192,-2.2605743 -1.815807,-2.2605743 -1.963999,0 -0.104195,1.5883187 -0.566671,1.5467208 -0.566671,-0.050897 z"
         id="path1756"
         sodipodi:nodetypes="csssscc" />
      <path
         style="fill:#006680;stroke-width:0.258104"
         d="m 61.3195,5.4980021 c 0,-1.4141176 0.522973,-2.1048323 1.593518,-2.1048323 0.97485,0 1.503823,0.7561313 1.503823,2.14968 0,1.5645999 -0.464076,1.5696096 -0.566671,0.006 -0.148192,-2.2605743 -1.815807,-2.2605743 -1.963999,0 C 61.781976,7.1371682 61.3195,7.0955703 61.3195,5.4979521 Z"
         id="path1757"
         sodipodi:nodetypes="csssscc" />
      <path
         style="fill:#006680;stroke-width:0.258104"
         d="m 65.552583,5.4980021 c 0,-1.4141176 0.522973,-2.1048323 1.593519,-2.1048323 0.97485,0 1.503823,0.7561313 1.503823,2.14968 0,1.5645999 -0.464077,1.5696096 -0.566671,0.006 -0.148193,-2.2605743 -1.815807,-2.2605743 -1.964,0 -0.104194,1.5883187 -0.566671,1.5467208 -0.566671,-0.050897 z"
         id="path1758"
         sodipodi:nodetypes="csssscc" />
      <path
         style="fill:#006680;stroke-width:0.258104"
         d="m 69.785667,5.4980021 c 0,-1.4141176 0.522973,-2.1048323 1.593518,-2.1048323 0.97485,0 1.503823,0.7561313 1.503823,2.14968 0,1.5645999 -0.464076,1.5696096 -0.566671,0.006 -0.148192,-2.2605743 -1.815807,-2.2605743 -1.964,0 -0.104194,1.5883187 -0.56667,1.5467208 -0.56667,-0.050897 z"
         id="path1759"
         sodipodi:nodetypes="csssscc" />
      <path
         style="fill:#006680;stroke-width:0.258104"
         d="m 74.01875,5.4980021 c 0,-1.4141176 0.522973,-2.1048323 1.593518,-2.1048323 0.97485,0 1.503823,0.7561313 1.503823,2.14968 0,1.5645999 -0.464076,1.5696096 -0.566671,0.006 -0.148192,-2.2605743 -1.815807,-2.2605743 -1.963999,0 -0.104195,1.5883187 -0.566671,1.5467208 -0.566671,-0.050897 z"
         id="path1760"
         sodipodi:nodetypes="csssscc" />
      <path
         style="fill:#006680;stroke-width:0.258104"
         d="m 78.251833,5.4980021 c 0,-1.4141176 0.522973,-2.1048323 1.593519,-2.1048323 0.97485,0 1.503823,0.7561313 1.503823,2.14968 0,1.5645999 -0.464077,1.5696096 -0.566671,0.006 -0.148193,-2.2605743 -1.815807,-2.2605743 -1.964,0 -0.104195,1.5883187 -0.566671,1.5467208 -0.566671,-0.050897 z"
         id="path1761"
         sodipodi:nodetypes="csssscc" />
      <path
         style="fill:#006680;stroke-width:0.258104"
         d="m 82.484916,5.4980021 c 0,-1.4141176 0.522974,-2.1048323 1.593519,-2.1048323 0.97485,0 1.503823,0.7561313 1.503823,2.14968 0,1.5645999 -0.464076,1.5696096 -0.566671,0.006 -0.148193,-2.2605743 -1.815807,-2.2605743 -1.964,0 -0.104194,1.5883187 -0.566671,1.5467208 -0.566671,-0.050897 z"
         id="path1762"
         sodipodi:nodetypes="csssscc" />
    </g>
  </g>
</svg>
