<?xml version="1.0" encoding="UTF-8" standalone="no"?>
<!-- Created with Inkscape (http://www.inkscape.org/) -->

<svg
   width="35.110001mm"
   height="7.329mm"
   viewBox="0 0 35.110001 7.3290001"
   version="1.1"
   id="svg1"
   inkscape:version="1.4 (e7c3feb100, 2024-10-09)"
   sodipodi:docname="5_1_1_3_11.svg"
   xmlns:inkscape="http://www.inkscape.org/namespaces/inkscape"
   xmlns:sodipodi="http://sodipodi.sourceforge.net/DTD/sodipodi-0.dtd"
   xmlns="http://www.w3.org/2000/svg"
   xmlns:svg="http://www.w3.org/2000/svg">
  <sodipodi:namedview
     id="namedview1"
     pagecolor="#ffffff"
     bordercolor="#000000"
     borderopacity="0.25"
     inkscape:showpageshadow="2"
     inkscape:pageopacity="0.0"
     inkscape:pagecheckerboard="0"
     inkscape:deskcolor="#d1d1d1"
     inkscape:document-units="mm"
     inkscape:zoom="4.8642288"
     inkscape:cx="120.77968"
     inkscape:cy="12.540529"
     inkscape:window-width="1920"
     inkscape:window-height="1014"
     inkscape:window-x="0"
     inkscape:window-y="0"
     inkscape:window-maximized="1"
     inkscape:current-layer="layer1" />
  <defs
     id="defs1">
    <rect
       x="27.795305"
       y="0"
       width="173.57281"
       height="63.574368"
       id="rect1" />
    <marker
       style="overflow:visible"
       id="TriangleOutM-7"
       refX="0"
       refY="0"
       orient="auto"
       inkscape:stockid="TriangleOutM"
       inkscape:isstock="true"
       viewBox="0 0 4.2595265 4.9243081"
       markerWidth="4.2595263"
       markerHeight="4.9243083"
       preserveAspectRatio="xMidYMid">
      <path
         transform="scale(0.4)"
         style="fill:context-stroke;fill-rule:evenodd;stroke:context-stroke;stroke-width:1pt"
         d="M 5.77,0 -2.88,5 V -5 Z"
         id="path8178-6" />
    </marker>
    <marker
       style="overflow:visible"
       id="marker1"
       refX="0"
       refY="0"
       orient="auto"
       inkscape:stockid="TriangleOutM"
       inkscape:isstock="true"
       viewBox="0 0 4.2595265 4.9243081"
       markerWidth="4.2595263"
       markerHeight="4.9243083"
       preserveAspectRatio="xMidYMid">
      <path
         transform="scale(0.4)"
         style="fill:context-stroke;fill-rule:evenodd;stroke:context-stroke;stroke-width:1pt"
         d="M 5.77,0 -2.88,5 V -5 Z"
         id="path1" />
    </marker>
    <marker
       style="overflow:visible"
       id="marker2"
       refX="0"
       refY="0"
       orient="auto"
       inkscape:stockid="TriangleOutM"
       inkscape:isstock="true"
       viewBox="0 0 4.2595265 4.9243081"
       markerWidth="4.2595263"
       markerHeight="4.9243083"
       preserveAspectRatio="xMidYMid">
      <path
         transform="scale(0.4)"
         style="fill:context-stroke;fill-rule:evenodd;stroke:context-stroke;stroke-width:1pt"
         d="M 5.77,0 -2.88,5 V -5 Z"
         id="path2" />
    </marker>
    <marker
       style="overflow:visible"
       id="marker3"
       refX="0"
       refY="0"
       orient="auto"
       inkscape:stockid="TriangleOutM"
       inkscape:isstock="true"
       viewBox="0 0 4.2595265 4.9243081"
       markerWidth="4.2595263"
       markerHeight="4.9243083"
       preserveAspectRatio="xMidYMid">
      <path
         transform="scale(0.4)"
         style="fill:context-stroke;fill-rule:evenodd;stroke:context-stroke;stroke-width:1pt"
         d="M 5.77,0 -2.88,5 V -5 Z"
         id="path3" />
    </marker>
    <marker
       style="overflow:visible"
       id="marker4"
       refX="0"
       refY="0"
       orient="auto"
       inkscape:stockid="TriangleOutM"
       inkscape:isstock="true"
       viewBox="0 0 4.2595265 4.9243081"
       markerWidth="4.2595263"
       markerHeight="4.9243083"
       preserveAspectRatio="xMidYMid">
      <path
         transform="scale(0.4)"
         style="fill:context-stroke;fill-rule:evenodd;stroke:context-stroke;stroke-width:1pt"
         d="M 5.77,0 -2.88,5 V -5 Z"
         id="path4" />
    </marker>
    <marker
       style="overflow:visible"
       id="marker5"
       refX="0"
       refY="0"
       orient="auto"
       inkscape:stockid="TriangleOutM"
       inkscape:isstock="true"
       viewBox="0 0 4.2595265 4.9243081"
       markerWidth="4.2595263"
       markerHeight="4.9243083"
       preserveAspectRatio="xMidYMid">
      <path
         transform="scale(0.4)"
         style="fill:context-stroke;fill-rule:evenodd;stroke:context-stroke;stroke-width:1pt"
         d="M 5.77,0 -2.88,5 V -5 Z"
         id="path5" />
    </marker>
    <marker
       style="overflow:visible"
       id="marker6"
       refX="0"
       refY="0"
       orient="auto"
       inkscape:stockid="TriangleOutM"
       inkscape:isstock="true"
       viewBox="0 0 4.2595265 4.9243081"
       markerWidth="4.2595263"
       markerHeight="4.9243083"
       preserveAspectRatio="xMidYMid">
      <path
         transform="scale(0.4)"
         style="fill:context-stroke;fill-rule:evenodd;stroke:context-stroke;stroke-width:1pt"
         d="M 5.77,0 -2.88,5 V -5 Z"
         id="path6" />
    </marker>
    <rect
       x="27.795305"
       y="0"
       width="173.57281"
       height="63.574368"
       id="rect2" />
    <rect
       x="27.795305"
       y="0"
       width="173.57281"
       height="63.574368"
       id="rect3" />
    <rect
       x="27.795305"
       y="0"
       width="173.57281"
       height="63.574368"
       id="rect4" />
    <rect
       x="27.795305"
       y="0"
       width="173.57281"
       height="63.574368"
       id="rect5" />
    <rect
       x="27.795305"
       y="0"
       width="173.57281"
       height="63.574368"
       id="rect6" />
    <rect
       x="27.795305"
       y="0"
       width="173.57281"
       height="63.574368"
       id="rect7" />
  </defs>
  <g
     inkscape:label="Katman 1"
     inkscape:groupmode="layer"
     id="layer1">
    <g
       id="g49"
       transform="translate(-0.52916729)">
      <path
         style="fill:#006680;stroke-width:0.258111"
         d="m 21.155658,4.1599151 c 0,-1.414159 0.522995,-2.104893 1.593571,-2.104893 0.974878,0 1.503866,0.756153 1.503866,2.149742 0,1.5646439 -0.464089,1.5696539 -0.566687,0.006 -0.148197,-2.260639 -1.815859,-2.260639 -1.964056,0 -0.104197,1.5883639 -0.566694,1.5467649 -0.566694,-0.0509 z"
         id="path6696"
         sodipodi:nodetypes="csssscc" />
      <g
         id="g1253"
         transform="matrix(0.58797008,0,0,0.58797007,-59.437225,-16.892249)">
        <path
           style="fill:#aa4400;fill-opacity:0.5;stroke:none;stroke-width:0.264583px;stroke-linecap:butt;stroke-linejoin:miter;stroke-opacity:1"
           d="m 102.58788,40.813132 -0.27358,-6.819217 0.52389,-4.580324 0.9312,-0.186028 0.2274,7.058376 -0.44403,4.447977 z"
           id="path1249" />
        <path
           style="fill:#aa4400;stroke-width:0.32002"
           d="m 102.06431,35.721723 c 0.0787,-5.631789 0.31866,-6.764789 1.4324,-6.764789 0.54792,0 0.62982,0.245082 0.66845,2.000138 0.0979,4.446961 0.0552,6.5681 -0.16752,8.320556 -0.22132,1.741565 -0.28139,1.840114 -1.12132,1.840114 h -0.88747 z m 1.31024,3.235875 c 0.43995,-2.741207 0.32754,-6.725356 -0.20475,-7.257451 -0.42668,-0.426527 -0.48002,0.03445 -0.48002,4.14888 0,4.716258 0.24687,5.837021 0.68477,3.108571 z m 0.11527,-8.739468 c 0,-0.362406 -0.13773,-0.573812 -0.30605,-0.469776 -0.16833,0.104018 -0.22492,0.400548 -0.12577,0.658926 0.25385,0.661517 0.43182,0.583561 0.43182,-0.18915 z"
           id="path6704"
           sodipodi:nodetypes="ssssscsssssssss" />
      </g>
      <g
         id="g19"
         transform="matrix(0.58799677,0,0,0.58799676,-33.43919,-16.892778)">
        <path
           style="fill:#800066;fill-opacity:0.5;stroke:none;stroke-width:0.264583px;stroke-linecap:butt;stroke-linejoin:miter;stroke-opacity:1"
           d="m 80.075441,40.521913 3.091323,-0.10029 -1.529226,-2.145506 z"
           id="path17" />
        <path
           style="fill:#800066;fill-opacity:0.5;stroke:none;stroke-width:0.264583px;stroke-linecap:butt;stroke-linejoin:miter;stroke-opacity:1"
           d="m 81.492851,31.923183 1.334011,-0.949182 -0.552485,-0.935736 0.26279,-1.051952 -1.651495,0.347877 -0.944033,1.121222 z"
           id="path18" />
        <path
           style="fill:#800066;stroke-width:0.32002"
           d="m 79.737063,40.641482 c 0.006,-0.132003 0.211171,-0.600032 0.4554,-1.040059 0.385817,-0.695128 0.37782,-0.873508 -0.06096,-1.360089 -0.281529,-0.312221 -0.349796,-0.560042 -0.154263,-0.560042 0.192896,0 0.439736,0.144017 0.548509,0.32002 0.556094,0.899784 0.800056,0.02488 0.800056,-2.868929 0,-2.824167 -0.07076,-3.226804 -0.618371,-3.519898 -0.340097,-0.182011 -0.71701,-0.641749 -0.837588,-1.021638 -0.401782,-1.265894 2.025926,-2.411308 3.343091,-1.577289 0.36304,0.229865 0.324274,0.359713 -0.206358,0.691098 -0.650993,0.406546 -0.651053,0.409944 -0.01802,0.92255 0.626766,0.507518 0.624141,0.520489 -0.19367,0.958167 -0.805727,0.431215 -0.829035,0.532151 -0.829035,3.589822 0,2.854677 0.245788,3.722921 0.800056,2.826117 0.108736,-0.176003 0.355612,-0.32002 0.548508,-0.32002 0.195532,0 0.127268,0.247821 -0.154262,0.560042 -0.438757,0.486581 -0.446752,0.664961 -0.06095,1.360089 0.244228,0.440027 0.449158,0.908056 0.455399,1.040059 0.006,0.132012 -0.852718,0.240022 -1.908794,0.240022 -1.056064,0 -1.915024,-0.10801 -1.908783,-0.240022 z m 2.548829,-0.880054 c -0.219118,-0.264014 -0.535046,-0.480035 -0.702082,-0.480035 -0.167036,0 -0.519711,0.216021 -0.783728,0.480035 -0.426698,0.426703 -0.348684,0.480036 0.702084,0.480036 1.014492,0 1.125624,-0.06815 0.783726,-0.480036 z m -0.125935,-9.439897 c -0.03725,-1.049966 -0.393871,-1.193259 -1.307271,-0.525354 -0.518902,0.379415 -0.537056,0.501325 -0.141177,0.947879 0.771704,0.87049 1.486971,0.661841 1.448448,-0.422525 z"
           id="path19"
           sodipodi:nodetypes="ssssssssssssssssscssssssssssss" />
      </g>
      <g
         id="g22"
         transform="matrix(0.58799677,0,0,0.58799676,-30.793235,-16.892778)">
        <path
           style="fill:#800066;fill-opacity:0.5;stroke:none;stroke-width:0.264583px;stroke-linecap:butt;stroke-linejoin:miter;stroke-opacity:1"
           d="m 80.075441,40.521913 3.091323,-0.10029 -1.529226,-2.145506 z"
           id="path20" />
        <path
           style="fill:#800066;fill-opacity:0.5;stroke:none;stroke-width:0.264583px;stroke-linecap:butt;stroke-linejoin:miter;stroke-opacity:1"
           d="m 81.492851,31.923183 1.334011,-0.949182 -0.552485,-0.935736 0.26279,-1.051952 -1.651495,0.347877 -0.944033,1.121222 z"
           id="path21" />
        <path
           style="fill:#800066;stroke-width:0.32002"
           d="m 79.737063,40.641482 c 0.006,-0.132003 0.211171,-0.600032 0.4554,-1.040059 0.385817,-0.695128 0.37782,-0.873508 -0.06096,-1.360089 -0.281529,-0.312221 -0.349796,-0.560042 -0.154263,-0.560042 0.192896,0 0.439736,0.144017 0.548509,0.32002 0.556094,0.899784 0.800056,0.02488 0.800056,-2.868929 0,-2.824167 -0.07076,-3.226804 -0.618371,-3.519898 -0.340097,-0.182011 -0.71701,-0.641749 -0.837588,-1.021638 -0.401782,-1.265894 2.025926,-2.411308 3.343091,-1.577289 0.36304,0.229865 0.324274,0.359713 -0.206358,0.691098 -0.650993,0.406546 -0.651053,0.409944 -0.01802,0.92255 0.626766,0.507518 0.624141,0.520489 -0.19367,0.958167 -0.805727,0.431215 -0.829035,0.532151 -0.829035,3.589822 0,2.854677 0.245788,3.722921 0.800056,2.826117 0.108736,-0.176003 0.355612,-0.32002 0.548508,-0.32002 0.195532,0 0.127268,0.247821 -0.154262,0.560042 -0.438757,0.486581 -0.446752,0.664961 -0.06095,1.360089 0.244228,0.440027 0.449158,0.908056 0.455399,1.040059 0.006,0.132012 -0.852718,0.240022 -1.908794,0.240022 -1.056064,0 -1.915024,-0.10801 -1.908783,-0.240022 z m 2.548829,-0.880054 c -0.219118,-0.264014 -0.535046,-0.480035 -0.702082,-0.480035 -0.167036,0 -0.519711,0.216021 -0.783728,0.480035 -0.426698,0.426703 -0.348684,0.480036 0.702084,0.480036 1.014492,0 1.125624,-0.06815 0.783726,-0.480036 z m -0.125935,-9.439897 c -0.03725,-1.049966 -0.393871,-1.193259 -1.307271,-0.525354 -0.518902,0.379415 -0.537056,0.501325 -0.141177,0.947879 0.771704,0.87049 1.486971,0.661841 1.448448,-0.422525 z"
           id="path22"
           sodipodi:nodetypes="ssssssssssssssssscssssssssssss" />
      </g>
      <g
         id="g25"
         transform="matrix(0.58799677,0,0,0.58799676,-28.14728,-16.892778)">
        <path
           style="fill:#800066;fill-opacity:0.5;stroke:none;stroke-width:0.264583px;stroke-linecap:butt;stroke-linejoin:miter;stroke-opacity:1"
           d="m 80.075441,40.521913 3.091323,-0.10029 -1.529226,-2.145506 z"
           id="path23" />
        <path
           style="fill:#800066;fill-opacity:0.5;stroke:none;stroke-width:0.264583px;stroke-linecap:butt;stroke-linejoin:miter;stroke-opacity:1"
           d="m 81.492851,31.923183 1.334011,-0.949182 -0.552485,-0.935736 0.26279,-1.051952 -1.651495,0.347877 -0.944033,1.121222 z"
           id="path24" />
        <path
           style="fill:#800066;stroke-width:0.32002"
           d="m 79.737063,40.641482 c 0.006,-0.132003 0.211171,-0.600032 0.4554,-1.040059 0.385817,-0.695128 0.37782,-0.873508 -0.06096,-1.360089 -0.281529,-0.312221 -0.349796,-0.560042 -0.154263,-0.560042 0.192896,0 0.439736,0.144017 0.548509,0.32002 0.556094,0.899784 0.800056,0.02488 0.800056,-2.868929 0,-2.824167 -0.07076,-3.226804 -0.618371,-3.519898 -0.340097,-0.182011 -0.71701,-0.641749 -0.837588,-1.021638 -0.401782,-1.265894 2.025926,-2.411308 3.343091,-1.577289 0.36304,0.229865 0.324274,0.359713 -0.206358,0.691098 -0.650993,0.406546 -0.651053,0.409944 -0.01802,0.92255 0.626766,0.507518 0.624141,0.520489 -0.19367,0.958167 -0.805727,0.431215 -0.829035,0.532151 -0.829035,3.589822 0,2.854677 0.245788,3.722921 0.800056,2.826117 0.108736,-0.176003 0.355612,-0.32002 0.548508,-0.32002 0.195532,0 0.127268,0.247821 -0.154262,0.560042 -0.438757,0.486581 -0.446752,0.664961 -0.06095,1.360089 0.244228,0.440027 0.449158,0.908056 0.455399,1.040059 0.006,0.132012 -0.852718,0.240022 -1.908794,0.240022 -1.056064,0 -1.915024,-0.10801 -1.908783,-0.240022 z m 2.548829,-0.880054 c -0.219118,-0.264014 -0.535046,-0.480035 -0.702082,-0.480035 -0.167036,0 -0.519711,0.216021 -0.783728,0.480035 -0.426698,0.426703 -0.348684,0.480036 0.702084,0.480036 1.014492,0 1.125624,-0.06815 0.783726,-0.480036 z m -0.125935,-9.439897 c -0.03725,-1.049966 -0.393871,-1.193259 -1.307271,-0.525354 -0.518902,0.379415 -0.537056,0.501325 -0.141177,0.947879 0.771704,0.87049 1.486971,0.661841 1.448448,-0.422525 z"
           id="path25"
           sodipodi:nodetypes="ssssssssssssssssscssssssssssss" />
      </g>
      <path
         style="fill:#217821;stroke-width:0.258123"
         d="m 28.773332,3.7484099 c 0,-1.2045777 0.107603,-2.0649877 0.258106,-2.0649877 0.150603,0 0.258106,0.86041 0.258106,2.0649877 0,1.2045776 -0.107503,2.0649866 -0.258106,2.0649866 -0.150503,0 -0.258106,-0.860409 -0.258106,-2.0649866 z"
         id="path34"
         sodipodi:nodetypes="sssss" />
      <path
         style="fill:#217821;stroke-width:0.258123"
         d="m 29.831714,3.7484099 c 0,-1.2045777 0.107603,-2.0649877 0.258106,-2.0649877 0.150603,0 0.258106,0.86041 0.258106,2.0649877 0,1.2045776 -0.107503,2.0649866 -0.258106,2.0649866 -0.150503,0 -0.258106,-0.860409 -0.258106,-2.0649866 z"
         id="path35"
         sodipodi:nodetypes="sssss" />
      <path
         style="fill:#217821;stroke-width:0.258123"
         d="m 30.890096,3.7484099 c 0,-1.2045777 0.107603,-2.0649877 0.258106,-2.0649877 0.150603,0 0.258106,0.86041 0.258106,2.0649877 0,1.2045776 -0.107503,2.0649866 -0.258106,2.0649866 -0.150503,0 -0.258106,-0.860409 -0.258106,-2.0649866 z"
         id="path36"
         sodipodi:nodetypes="sssss" />
      <g
         id="g8"
         transform="matrix(0.58797008,0,0,0.58797007,-57.849724,-16.892249)">
        <path
           style="fill:#aa4400;fill-opacity:0.5;stroke:none;stroke-width:0.264583px;stroke-linecap:butt;stroke-linejoin:miter;stroke-opacity:1"
           d="m 102.58788,40.813132 -0.27358,-6.819217 0.52389,-4.580324 0.9312,-0.186028 0.2274,7.058376 -0.44403,4.447977 z"
           id="path7" />
        <path
           style="fill:#aa4400;stroke-width:0.32002"
           d="m 102.06431,35.721723 c 0.0787,-5.631789 0.31866,-6.764789 1.4324,-6.764789 0.54792,0 0.62982,0.245082 0.66845,2.000138 0.0979,4.446961 0.0552,6.5681 -0.16752,8.320556 -0.22132,1.741565 -0.28139,1.840114 -1.12132,1.840114 h -0.88747 z m 1.31024,3.235875 c 0.43995,-2.741207 0.32754,-6.725356 -0.20475,-7.257451 -0.42668,-0.426527 -0.48002,0.03445 -0.48002,4.14888 0,4.716258 0.24687,5.837021 0.68477,3.108571 z m 0.11527,-8.739468 c 0,-0.362406 -0.13773,-0.573812 -0.30605,-0.469776 -0.16833,0.104018 -0.22492,0.400548 -0.12577,0.658926 0.25385,0.661517 0.43182,0.583561 0.43182,-0.18915 z"
           id="path8"
           sodipodi:nodetypes="ssssscsssssssss" />
      </g>
      <g
         id="g10"
         transform="matrix(0.58797008,0,0,0.58797007,-56.262223,-16.892249)">
        <path
           style="fill:#aa4400;fill-opacity:0.5;stroke:none;stroke-width:0.264583px;stroke-linecap:butt;stroke-linejoin:miter;stroke-opacity:1"
           d="m 102.58788,40.813132 -0.27358,-6.819217 0.52389,-4.580324 0.9312,-0.186028 0.2274,7.058376 -0.44403,4.447977 z"
           id="path9" />
        <path
           style="fill:#aa4400;stroke-width:0.32002"
           d="m 102.06431,35.721723 c 0.0787,-5.631789 0.31866,-6.764789 1.4324,-6.764789 0.54792,0 0.62982,0.245082 0.66845,2.000138 0.0979,4.446961 0.0552,6.5681 -0.16752,8.320556 -0.22132,1.741565 -0.28139,1.840114 -1.12132,1.840114 h -0.88747 z m 1.31024,3.235875 c 0.43995,-2.741207 0.32754,-6.725356 -0.20475,-7.257451 -0.42668,-0.426527 -0.48002,0.03445 -0.48002,4.14888 0,4.716258 0.24687,5.837021 0.68477,3.108571 z m 0.11527,-8.739468 c 0,-0.362406 -0.13773,-0.573812 -0.30605,-0.469776 -0.16833,0.104018 -0.22492,0.400548 -0.12577,0.658926 0.25385,0.661517 0.43182,0.583561 0.43182,-0.18915 z"
           id="path10"
           sodipodi:nodetypes="ssssscsssssssss" />
      </g>
      <g
         id="g12"
         transform="matrix(0.58797008,0,0,0.58797007,-54.674722,-16.892249)">
        <path
           style="fill:#aa4400;fill-opacity:0.5;stroke:none;stroke-width:0.264583px;stroke-linecap:butt;stroke-linejoin:miter;stroke-opacity:1"
           d="m 102.58788,40.813132 -0.27358,-6.819217 0.52389,-4.580324 0.9312,-0.186028 0.2274,7.058376 -0.44403,4.447977 z"
           id="path11" />
        <path
           style="fill:#aa4400;stroke-width:0.32002"
           d="m 102.06431,35.721723 c 0.0787,-5.631789 0.31866,-6.764789 1.4324,-6.764789 0.54792,0 0.62982,0.245082 0.66845,2.000138 0.0979,4.446961 0.0552,6.5681 -0.16752,8.320556 -0.22132,1.741565 -0.28139,1.840114 -1.12132,1.840114 h -0.88747 z m 1.31024,3.235875 c 0.43995,-2.741207 0.32754,-6.725356 -0.20475,-7.257451 -0.42668,-0.426527 -0.48002,0.03445 -0.48002,4.14888 0,4.716258 0.24687,5.837021 0.68477,3.108571 z m 0.11527,-8.739468 c 0,-0.362406 -0.13773,-0.573812 -0.30605,-0.469776 -0.16833,0.104018 -0.22492,0.400548 -0.12577,0.658926 0.25385,0.661517 0.43182,0.583561 0.43182,-0.18915 z"
           id="path12"
           sodipodi:nodetypes="ssssscsssssssss" />
      </g>
      <g
         id="g38"
         transform="matrix(0.58797008,0,0,0.58797007,-53.087221,-16.892249)">
        <path
           style="fill:#aa4400;fill-opacity:0.5;stroke:none;stroke-width:0.264583px;stroke-linecap:butt;stroke-linejoin:miter;stroke-opacity:1"
           d="m 102.58788,40.813132 -0.27358,-6.819217 0.52389,-4.580324 0.9312,-0.186028 0.2274,7.058376 -0.44403,4.447977 z"
           id="path37" />
        <path
           style="fill:#aa4400;stroke-width:0.32002"
           d="m 102.06431,35.721723 c 0.0787,-5.631789 0.31866,-6.764789 1.4324,-6.764789 0.54792,0 0.62982,0.245082 0.66845,2.000138 0.0979,4.446961 0.0552,6.5681 -0.16752,8.320556 -0.22132,1.741565 -0.28139,1.840114 -1.12132,1.840114 h -0.88747 z m 1.31024,3.235875 c 0.43995,-2.741207 0.32754,-6.725356 -0.20475,-7.257451 -0.42668,-0.426527 -0.48002,0.03445 -0.48002,4.14888 0,4.716258 0.24687,5.837021 0.68477,3.108571 z m 0.11527,-8.739468 c 0,-0.362406 -0.13773,-0.573812 -0.30605,-0.469776 -0.16833,0.104018 -0.22492,0.400548 -0.12577,0.658926 0.25385,0.661517 0.43182,0.583561 0.43182,-0.18915 z"
           id="path38"
           sodipodi:nodetypes="ssssscsssssssss" />
      </g>
      <g
         id="g40"
         transform="matrix(0.58797008,0,0,0.58797007,-51.49972,-16.892249)">
        <path
           style="fill:#aa4400;fill-opacity:0.5;stroke:none;stroke-width:0.264583px;stroke-linecap:butt;stroke-linejoin:miter;stroke-opacity:1"
           d="m 102.58788,40.813132 -0.27358,-6.819217 0.52389,-4.580324 0.9312,-0.186028 0.2274,7.058376 -0.44403,4.447977 z"
           id="path39" />
        <path
           style="fill:#aa4400;stroke-width:0.32002"
           d="m 102.06431,35.721723 c 0.0787,-5.631789 0.31866,-6.764789 1.4324,-6.764789 0.54792,0 0.62982,0.245082 0.66845,2.000138 0.0979,4.446961 0.0552,6.5681 -0.16752,8.320556 -0.22132,1.741565 -0.28139,1.840114 -1.12132,1.840114 h -0.88747 z m 1.31024,3.235875 c 0.43995,-2.741207 0.32754,-6.725356 -0.20475,-7.257451 -0.42668,-0.426527 -0.48002,0.03445 -0.48002,4.14888 0,4.716258 0.24687,5.837021 0.68477,3.108571 z m 0.11527,-8.739468 c 0,-0.362406 -0.13773,-0.573812 -0.30605,-0.469776 -0.16833,0.104018 -0.22492,0.400548 -0.12577,0.658926 0.25385,0.661517 0.43182,0.583561 0.43182,-0.18915 z"
           id="path40"
           sodipodi:nodetypes="ssssscsssssssss" />
      </g>
      <g
         id="g42"
         transform="matrix(0.58797008,0,0,0.58797007,-49.912219,-16.892249)">
        <path
           style="fill:#aa4400;fill-opacity:0.5;stroke:none;stroke-width:0.264583px;stroke-linecap:butt;stroke-linejoin:miter;stroke-opacity:1"
           d="m 102.58788,40.813132 -0.27358,-6.819217 0.52389,-4.580324 0.9312,-0.186028 0.2274,7.058376 -0.44403,4.447977 z"
           id="path41" />
        <path
           style="fill:#aa4400;stroke-width:0.32002"
           d="m 102.06431,35.721723 c 0.0787,-5.631789 0.31866,-6.764789 1.4324,-6.764789 0.54792,0 0.62982,0.245082 0.66845,2.000138 0.0979,4.446961 0.0552,6.5681 -0.16752,8.320556 -0.22132,1.741565 -0.28139,1.840114 -1.12132,1.840114 h -0.88747 z m 1.31024,3.235875 c 0.43995,-2.741207 0.32754,-6.725356 -0.20475,-7.257451 -0.42668,-0.426527 -0.48002,0.03445 -0.48002,4.14888 0,4.716258 0.24687,5.837021 0.68477,3.108571 z m 0.11527,-8.739468 c 0,-0.362406 -0.13773,-0.573812 -0.30605,-0.469776 -0.16833,0.104018 -0.22492,0.400548 -0.12577,0.658926 0.25385,0.661517 0.43182,0.583561 0.43182,-0.18915 z"
           id="path42"
           sodipodi:nodetypes="ssssscsssssssss" />
      </g>
      <g
         id="g44"
         transform="matrix(0.58797008,0,0,0.58797007,-48.324718,-16.892249)">
        <path
           style="fill:#aa4400;fill-opacity:0.5;stroke:none;stroke-width:0.264583px;stroke-linecap:butt;stroke-linejoin:miter;stroke-opacity:1"
           d="m 102.58788,40.813132 -0.27358,-6.819217 0.52389,-4.580324 0.9312,-0.186028 0.2274,7.058376 -0.44403,4.447977 z"
           id="path43" />
        <path
           style="fill:#aa4400;stroke-width:0.32002"
           d="m 102.06431,35.721723 c 0.0787,-5.631789 0.31866,-6.764789 1.4324,-6.764789 0.54792,0 0.62982,0.245082 0.66845,2.000138 0.0979,4.446961 0.0552,6.5681 -0.16752,8.320556 -0.22132,1.741565 -0.28139,1.840114 -1.12132,1.840114 h -0.88747 z m 1.31024,3.235875 c 0.43995,-2.741207 0.32754,-6.725356 -0.20475,-7.257451 -0.42668,-0.426527 -0.48002,0.03445 -0.48002,4.14888 0,4.716258 0.24687,5.837021 0.68477,3.108571 z m 0.11527,-8.739468 c 0,-0.362406 -0.13773,-0.573812 -0.30605,-0.469776 -0.16833,0.104018 -0.22492,0.400548 -0.12577,0.658926 0.25385,0.661517 0.43182,0.583561 0.43182,-0.18915 z"
           id="path44"
           sodipodi:nodetypes="ssssscsssssssss" />
      </g>
      <path
         style="fill:#006680;stroke-width:0.258111"
         d="m 24.859824,4.1599151 c 0,-1.414159 0.522995,-2.104893 1.593571,-2.104893 0.974878,0 1.503866,0.756153 1.503866,2.149742 0,1.5646439 -0.464089,1.5696539 -0.566687,0.006 -0.148197,-2.260639 -1.815859,-2.260639 -1.964056,0 -0.104197,1.5883639 -0.566694,1.5467649 -0.566694,-0.0509 z"
         id="path45"
         sodipodi:nodetypes="csssscc" />
      <path
         style="fill:#217821;stroke-width:0.258123"
         d="m 31.948334,3.7484099 c 0,-1.2045777 0.107603,-2.0649877 0.258106,-2.0649877 0.150603,0 0.258106,0.86041 0.258106,2.0649877 0,1.2045776 -0.107503,2.0649866 -0.258106,2.0649866 -0.150503,0 -0.258106,-0.860409 -0.258106,-2.0649866 z"
         id="path46"
         sodipodi:nodetypes="sssss" />
      <path
         style="fill:#217821;stroke-width:0.258123"
         d="m 33.006716,3.7484099 c 0,-1.2045777 0.107603,-2.0649877 0.258106,-2.0649877 0.150603,0 0.258106,0.86041 0.258106,2.0649877 0,1.2045776 -0.107503,2.0649866 -0.258106,2.0649866 -0.150503,0 -0.258106,-0.860409 -0.258106,-2.0649866 z"
         id="path47"
         sodipodi:nodetypes="sssss" />
      <path
         style="fill:#217821;stroke-width:0.258123"
         d="m 34.065098,3.7484099 c 0,-1.2045777 0.107603,-2.0649877 0.258106,-2.0649877 0.150603,0 0.258106,0.86041 0.258106,2.0649877 0,1.2045776 -0.107503,2.0649866 -0.258106,2.0649866 -0.150503,0 -0.258106,-0.860409 -0.258106,-2.0649866 z"
         id="path48"
         sodipodi:nodetypes="sssss" />
      <path
         style="fill:#217821;stroke-width:0.258123"
         d="m 35.123432,3.7484099 c 0,-1.2045777 0.107603,-2.0649877 0.258106,-2.0649877 0.150603,0 0.258106,0.86041 0.258106,2.0649877 0,1.2045776 -0.107503,2.0649866 -0.258106,2.0649866 -0.150503,0 -0.258106,-0.860409 -0.258106,-2.0649866 z"
         id="path49"
         sodipodi:nodetypes="sssss" />
    </g>
  </g>
</svg>
