<?xml version="1.0" encoding="UTF-8" standalone="no"?>
<svg
   xmlns:dc="http://purl.org/dc/elements/1.1/"
   xmlns:cc="http://creativecommons.org/ns#"
   xmlns:rdf="http://www.w3.org/1999/02/22-rdf-syntax-ns#"
   xmlns:svg="http://www.w3.org/2000/svg"
   xmlns="http://www.w3.org/2000/svg"
   xmlns:sodipodi="http://sodipodi.sourceforge.net/DTD/sodipodi-0.dtd"
   xmlns:inkscape="http://www.inkscape.org/namespaces/inkscape"
   sodipodi:docname="BirimAci.svg"
   inkscape:version="0.92.5 (2060ec1f9f, 2020-04-08)"
   id="svg8"
   version="1.1"
   viewBox="0 0 195.35001 250.48"
   height="250.48mm"
   width="195.35001mm">
  <defs
     id="defs2" />
  <sodipodi:namedview
     inkscape:document-rotation="0"
     inkscape:snap-global="true"
     inkscape:window-maximized="1"
     inkscape:window-y="25"
     inkscape:window-x="0"
     inkscape:window-height="1031"
     inkscape:window-width="1920"
     showgrid="false"
     inkscape:current-layer="layer1"
     inkscape:document-units="mm"
     inkscape:cy="342.81248"
     inkscape:cx="1033.8419"
     inkscape:zoom="0.5428517"
     inkscape:pageshadow="2"
     inkscape:pageopacity="0.0"
     borderopacity="1.0"
     bordercolor="#666666"
     pagecolor="#ffffff"
     id="base" />
  <metadata
     id="metadata5">
    <rdf:RDF>
      <cc:Work
         rdf:about="">
        <dc:format>image/svg+xml</dc:format>
        <dc:type
           rdf:resource="http://purl.org/dc/dcmitype/StillImage" />
        <dc:title></dc:title>
      </cc:Work>
    </rdf:RDF>
  </metadata>
  <g
     id="layer1"
     inkscape:groupmode="layer"
     inkscape:label="Layer 1"
     transform="translate(0,-46.52)">
    <g
       id="g1720">
      <path
         style="fill:#ffaaaa;fill-opacity:1;stroke:#000000;stroke-width:0.5;stroke-linecap:butt;stroke-linejoin:miter;stroke-miterlimit:4;stroke-dasharray:none;stroke-opacity:1"
         d="M 5.4654123,86.298946 43.057777,86.258171 6.6975703,76.63007 Z"
         id="path932"
         sodipodi:nodetypes="cccc"
         inkscape:connector-curvature="0" />
      <g
         aria-label="Birim Açı"
         transform="matrix(0.17639614,0.02606824,-0.02606824,0.17639614,-29.270244,-120.79518)"
         style="font-style:normal;font-weight:normal;font-size:14.66670036px;line-height:0.25;font-family:sans-serif;letter-spacing:0px;word-spacing:0px;fill:#000000;fill-opacity:1;stroke:none"
         id="flowRoot940">
        <path
           d="m 371.34049,1090.4434 v 5.6979 h 3.37499 q 1.69792,0 2.51042,-0.6979 0.82291,-0.7084 0.82291,-2.1563 0,-1.4583 -0.82291,-2.1458 -0.8125,-0.6979 -2.51042,-0.6979 z m 0,-6.3959 v 4.6875 h 3.11458 q 1.54166,0 2.29166,-0.5729 0.76042,-0.5833 0.76042,-1.7708 0,-1.1771 -0.76042,-1.7604 -0.75,-0.5834 -2.29166,-0.5834 z m -2.10417,-1.7291 h 5.375 q 2.40624,0 3.70832,1 1.30209,1 1.30209,2.8437 0,1.4271 -0.66667,2.2708 -0.66667,0.8438 -1.95833,1.0521 1.55208,0.3334 2.40625,1.3959 0.86458,1.052 0.86458,2.6354 0,2.0833 -1.41667,3.2187 -1.41666,1.1354 -4.03124,1.1354 h -5.58333 z"
           style="font-style:normal;font-variant:normal;font-weight:normal;font-stretch:normal;font-size:21.33329964px;font-family:sans-serif;-inkscape-font-specification:sans-serif;fill:#000000;fill-opacity:1"
           id="path963"
           inkscape:connector-curvature="0" />
        <path
           d="m 383.78838,1086.2038 h 1.91667 v 11.6666 h -1.91667 z m 0,-4.5417 h 1.91667 v 2.4271 h -1.91667 z"
           style="font-style:normal;font-variant:normal;font-weight:normal;font-stretch:normal;font-size:21.33329964px;font-family:sans-serif;-inkscape-font-specification:sans-serif;fill:#000000;fill-opacity:1"
           id="path965"
           inkscape:connector-curvature="0" />
        <path
           d="m 396.47587,1087.9954 q -0.32292,-0.1875 -0.70834,-0.2708 -0.375,-0.094 -0.83333,-0.094 -1.625,0 -2.5,1.0625 -0.86458,1.052 -0.86458,3.0312 v 6.1458 h -1.92708 v -11.6666 h 1.92708 v 1.8125 q 0.60417,-1.0625 1.57292,-1.5729 0.96875,-0.5209 2.35416,-0.5209 0.19792,0 0.4375,0.031 0.23958,0.021 0.53125,0.073 z"
           style="font-style:normal;font-variant:normal;font-weight:normal;font-stretch:normal;font-size:21.33329964px;font-family:sans-serif;-inkscape-font-specification:sans-serif;fill:#000000;fill-opacity:1"
           id="path967"
           inkscape:connector-curvature="0" />
        <path
           d="m 398.48628,1086.2038 h 1.91666 v 11.6666 h -1.91666 z m 0,-4.5417 h 1.91666 v 2.4271 h -1.91666 z"
           style="font-style:normal;font-variant:normal;font-weight:normal;font-stretch:normal;font-size:21.33329964px;font-family:sans-serif;-inkscape-font-specification:sans-serif;fill:#000000;fill-opacity:1"
           id="path970"
           inkscape:connector-curvature="0" />
        <path
           d="m 413.49667,1088.4434 q 0.71875,-1.2917 1.71875,-1.9063 1,-0.6146 2.35416,-0.6146 1.82292,0 2.8125,1.2813 0.98958,1.2708 0.98958,3.625 v 7.0416 h -1.92708 v -6.9791 q 0,-1.6771 -0.59375,-2.4896 -0.59375,-0.8125 -1.8125,-0.8125 -1.48958,0 -2.35416,0.9896 -0.86458,0.9896 -0.86458,2.6979 v 6.5937 h -1.92708 v -6.9791 q 0,-1.6875 -0.59375,-2.4896 -0.59375,-0.8125 -1.83333,-0.8125 -1.46875,0 -2.33333,1 -0.86458,0.9896 -0.86458,2.6875 v 6.5937 h -1.92708 v -11.6666 h 1.92708 v 1.8125 q 0.65625,-1.0729 1.57291,-1.5834 0.91667,-0.5104 2.17708,-0.5104 1.27083,0 2.15625,0.6459 0.89583,0.6458 1.32291,1.875 z"
           style="font-style:normal;font-variant:normal;font-weight:normal;font-stretch:normal;font-size:21.33329964px;font-family:sans-serif;-inkscape-font-specification:sans-serif;fill:#000000;fill-opacity:1"
           id="path972"
           inkscape:connector-curvature="0" />
        <path
           d="m 437.25705,1084.3913 -2.85416,7.7396 h 5.71874 z m -1.1875,-2.0729 h 2.38542 l 5.92707,15.552 h -2.1875 l -1.41666,-3.9895 h -7.01041 l -1.41666,3.9895 h -2.21875 z"
           style="font-style:normal;font-variant:normal;font-weight:normal;font-stretch:normal;font-size:21.33329964px;font-family:sans-serif;-inkscape-font-specification:sans-serif;fill:#000000;fill-opacity:1"
           id="path974"
           inkscape:connector-curvature="0" />
        <path
           d="m 454.59035,1086.6517 v 1.7917 q -0.81249,-0.448 -1.63541,-0.6667 -0.8125,-0.2292 -1.64583,-0.2292 -1.86458,0 -2.89583,1.1875 -1.03125,1.1771 -1.03125,3.3125 0,2.1354 1.03125,3.3229 1.03125,1.1771 2.89583,1.1771 0.83333,0 1.64583,-0.2187 0.82292,-0.2292 1.63541,-0.6771 v 1.7708 q -0.80208,0.375 -1.66666,0.5625 -0.85417,0.1875 -1.82291,0.1875 -2.63542,0 -4.1875,-1.6562 -1.55208,-1.6563 -1.55208,-4.4688 0,-2.8541 1.5625,-4.4896 1.57291,-1.6354 4.30208,-1.6354 0.88541,0 1.72916,0.1875 0.84375,0.1771 1.63541,0.5417 z m -2.70833,11.2187 q 0.57292,0.6459 0.85417,1.1875 0.28125,0.5521 0.28125,1.0521 0,0.9271 -0.625,1.3958 -0.625,0.4792 -1.85416,0.4792 -0.47917,0 -0.9375,-0.062 -0.44792,-0.062 -0.89583,-0.1875 v -1.3646 q 0.35416,0.1771 0.73958,0.25 0.38541,0.083 0.875,0.083 0.61458,0 0.92708,-0.25 0.3125,-0.25 0.3125,-0.7292 0,-0.3125 -0.22917,-0.7708 -0.21875,-0.448 -0.6875,-1.0834 z"
           style="font-style:normal;font-variant:normal;font-weight:normal;font-stretch:normal;font-size:21.33329964px;font-family:sans-serif;-inkscape-font-specification:sans-serif;fill:#000000;fill-opacity:1"
           id="path976"
           inkscape:connector-curvature="0" />
        <path
           d="m 457.92368,1086.2038 h 1.91667 v 11.6666 h -1.91667 z m 0.95833,-0.2813 z"
           style="font-style:normal;font-variant:normal;font-weight:normal;font-stretch:normal;font-size:21.33329964px;font-family:sans-serif;-inkscape-font-specification:sans-serif;fill:#000000;fill-opacity:1"
           id="path978"
           inkscape:connector-curvature="0" />
      </g>
      <path
         style="fill:#ffccaa;fill-opacity:1;stroke:#000000;stroke-width:0.5;stroke-linecap:butt;stroke-linejoin:miter;stroke-miterlimit:4;stroke-dasharray:none;stroke-opacity:1"
         d="M 6.7494733,76.536093 43.071463,86.226327 10.442136,67.515582 Z"
         id="path944"
         sodipodi:nodetypes="cccc"
         inkscape:connector-curvature="0" />
      <g
         aria-label="Birim Açı"
         transform="matrix(0.16363863,0.07083466,-0.07083466,0.16363863,26.797312,-132.49172)"
         style="font-style:normal;font-weight:normal;font-size:14.66670036px;line-height:0.25;font-family:sans-serif;letter-spacing:0px;word-spacing:0px;fill:#000000;fill-opacity:1;stroke:none"
         id="flowRoot952">
        <path
           d="m 371.34049,1090.4434 v 5.6979 h 3.37499 q 1.69792,0 2.51042,-0.6979 0.82291,-0.7084 0.82291,-2.1563 0,-1.4583 -0.82291,-2.1458 -0.8125,-0.6979 -2.51042,-0.6979 z m 0,-6.3959 v 4.6875 h 3.11458 q 1.54166,0 2.29166,-0.5729 0.76042,-0.5833 0.76042,-1.7708 0,-1.1771 -0.76042,-1.7604 -0.75,-0.5834 -2.29166,-0.5834 z m -2.10417,-1.7291 h 5.375 q 2.40624,0 3.70832,1 1.30209,1 1.30209,2.8437 0,1.4271 -0.66667,2.2708 -0.66667,0.8438 -1.95833,1.0521 1.55208,0.3334 2.40625,1.3959 0.86458,1.052 0.86458,2.6354 0,2.0833 -1.41667,3.2187 -1.41666,1.1354 -4.03124,1.1354 h -5.58333 z"
           style="font-style:normal;font-variant:normal;font-weight:normal;font-stretch:normal;font-size:21.33329964px;font-family:sans-serif;-inkscape-font-specification:sans-serif;fill:#000000;fill-opacity:1"
           id="path982"
           inkscape:connector-curvature="0" />
        <path
           d="m 383.78838,1086.2038 h 1.91667 v 11.6666 h -1.91667 z m 0,-4.5417 h 1.91667 v 2.4271 h -1.91667 z"
           style="font-style:normal;font-variant:normal;font-weight:normal;font-stretch:normal;font-size:21.33329964px;font-family:sans-serif;-inkscape-font-specification:sans-serif;fill:#000000;fill-opacity:1"
           id="path984"
           inkscape:connector-curvature="0" />
        <path
           d="m 396.47587,1087.9954 q -0.32292,-0.1875 -0.70834,-0.2708 -0.375,-0.094 -0.83333,-0.094 -1.625,0 -2.5,1.0625 -0.86458,1.052 -0.86458,3.0312 v 6.1458 h -1.92708 v -11.6666 h 1.92708 v 1.8125 q 0.60417,-1.0625 1.57292,-1.5729 0.96875,-0.5209 2.35416,-0.5209 0.19792,0 0.4375,0.031 0.23958,0.021 0.53125,0.073 z"
           style="font-style:normal;font-variant:normal;font-weight:normal;font-stretch:normal;font-size:21.33329964px;font-family:sans-serif;-inkscape-font-specification:sans-serif;fill:#000000;fill-opacity:1"
           id="path986"
           inkscape:connector-curvature="0" />
        <path
           d="m 398.48628,1086.2038 h 1.91666 v 11.6666 h -1.91666 z m 0,-4.5417 h 1.91666 v 2.4271 h -1.91666 z"
           style="font-style:normal;font-variant:normal;font-weight:normal;font-stretch:normal;font-size:21.33329964px;font-family:sans-serif;-inkscape-font-specification:sans-serif;fill:#000000;fill-opacity:1"
           id="path988"
           inkscape:connector-curvature="0" />
        <path
           d="m 413.49667,1088.4434 q 0.71875,-1.2917 1.71875,-1.9063 1,-0.6146 2.35416,-0.6146 1.82292,0 2.8125,1.2813 0.98958,1.2708 0.98958,3.625 v 7.0416 h -1.92708 v -6.9791 q 0,-1.6771 -0.59375,-2.4896 -0.59375,-0.8125 -1.8125,-0.8125 -1.48958,0 -2.35416,0.9896 -0.86458,0.9896 -0.86458,2.6979 v 6.5937 h -1.92708 v -6.9791 q 0,-1.6875 -0.59375,-2.4896 -0.59375,-0.8125 -1.83333,-0.8125 -1.46875,0 -2.33333,1 -0.86458,0.9896 -0.86458,2.6875 v 6.5937 h -1.92708 v -11.6666 h 1.92708 v 1.8125 q 0.65625,-1.0729 1.57291,-1.5834 0.91667,-0.5104 2.17708,-0.5104 1.27083,0 2.15625,0.6459 0.89583,0.6458 1.32291,1.875 z"
           style="font-style:normal;font-variant:normal;font-weight:normal;font-stretch:normal;font-size:21.33329964px;font-family:sans-serif;-inkscape-font-specification:sans-serif;fill:#000000;fill-opacity:1"
           id="path990"
           inkscape:connector-curvature="0" />
        <path
           d="m 437.25705,1084.3913 -2.85416,7.7396 h 5.71874 z m -1.1875,-2.0729 h 2.38542 l 5.92707,15.552 h -2.1875 l -1.41666,-3.9895 h -7.01041 l -1.41666,3.9895 h -2.21875 z"
           style="font-style:normal;font-variant:normal;font-weight:normal;font-stretch:normal;font-size:21.33329964px;font-family:sans-serif;-inkscape-font-specification:sans-serif;fill:#000000;fill-opacity:1"
           id="path992"
           inkscape:connector-curvature="0" />
        <path
           d="m 454.59035,1086.6517 v 1.7917 q -0.81249,-0.448 -1.63541,-0.6667 -0.8125,-0.2292 -1.64583,-0.2292 -1.86458,0 -2.89583,1.1875 -1.03125,1.1771 -1.03125,3.3125 0,2.1354 1.03125,3.3229 1.03125,1.1771 2.89583,1.1771 0.83333,0 1.64583,-0.2187 0.82292,-0.2292 1.63541,-0.6771 v 1.7708 q -0.80208,0.375 -1.66666,0.5625 -0.85417,0.1875 -1.82291,0.1875 -2.63542,0 -4.1875,-1.6562 -1.55208,-1.6563 -1.55208,-4.4688 0,-2.8541 1.5625,-4.4896 1.57291,-1.6354 4.30208,-1.6354 0.88541,0 1.72916,0.1875 0.84375,0.1771 1.63541,0.5417 z m -2.70833,11.2187 q 0.57292,0.6459 0.85417,1.1875 0.28125,0.5521 0.28125,1.0521 0,0.9271 -0.625,1.3958 -0.625,0.4792 -1.85416,0.4792 -0.47917,0 -0.9375,-0.062 -0.44792,-0.062 -0.89583,-0.1875 v -1.3646 q 0.35416,0.1771 0.73958,0.25 0.38541,0.083 0.875,0.083 0.61458,0 0.92708,-0.25 0.3125,-0.25 0.3125,-0.7292 0,-0.3125 -0.22917,-0.7708 -0.21875,-0.448 -0.6875,-1.0834 z"
           style="font-style:normal;font-variant:normal;font-weight:normal;font-stretch:normal;font-size:21.33329964px;font-family:sans-serif;-inkscape-font-specification:sans-serif;fill:#000000;fill-opacity:1"
           id="path994"
           inkscape:connector-curvature="0" />
        <path
           d="m 457.92368,1086.2038 h 1.91667 v 11.6666 h -1.91667 z m 0.95833,-0.2813 z"
           style="font-style:normal;font-variant:normal;font-weight:normal;font-stretch:normal;font-size:21.33329964px;font-family:sans-serif;-inkscape-font-specification:sans-serif;fill:#000000;fill-opacity:1"
           id="path996"
           inkscape:connector-curvature="0" />
      </g>
      <path
         style="fill:#ffeeaa;fill-opacity:1;stroke:#000000;stroke-width:0.5;stroke-linecap:butt;stroke-linejoin:miter;stroke-miterlimit:4;stroke-dasharray:none;stroke-opacity:1"
         d="M 10.516593,67.438241 43.092925,86.199111 16.418112,59.680827 Z"
         id="path956"
         sodipodi:nodetypes="cccc"
         inkscape:connector-curvature="0" />
      <g
         aria-label="Birim Açı"
         transform="matrix(0.13972942,0.11077383,-0.11077383,0.13972942,83.9817,-129.27836)"
         style="font-style:normal;font-weight:normal;font-size:14.66670036px;line-height:0.25;font-family:sans-serif;letter-spacing:0px;word-spacing:0px;fill:#000000;fill-opacity:1;stroke:none"
         id="flowRoot964">
        <path
           d="m 371.34049,1090.4434 v 5.6979 h 3.37499 q 1.69792,0 2.51042,-0.6979 0.82291,-0.7084 0.82291,-2.1563 0,-1.4583 -0.82291,-2.1458 -0.8125,-0.6979 -2.51042,-0.6979 z m 0,-6.3959 v 4.6875 h 3.11458 q 1.54166,0 2.29166,-0.5729 0.76042,-0.5833 0.76042,-1.7708 0,-1.1771 -0.76042,-1.7604 -0.75,-0.5834 -2.29166,-0.5834 z m -2.10417,-1.7291 h 5.375 q 2.40624,0 3.70832,1 1.30209,1 1.30209,2.8437 0,1.4271 -0.66667,2.2708 -0.66667,0.8438 -1.95833,1.0521 1.55208,0.3334 2.40625,1.3959 0.86458,1.052 0.86458,2.6354 0,2.0833 -1.41667,3.2187 -1.41666,1.1354 -4.03124,1.1354 h -5.58333 z"
           style="font-style:normal;font-variant:normal;font-weight:normal;font-stretch:normal;font-size:21.33329964px;font-family:sans-serif;-inkscape-font-specification:sans-serif;fill:#000000;fill-opacity:1"
           id="path999"
           inkscape:connector-curvature="0" />
        <path
           d="m 383.78838,1086.2038 h 1.91667 v 11.6666 h -1.91667 z m 0,-4.5417 h 1.91667 v 2.4271 h -1.91667 z"
           style="font-style:normal;font-variant:normal;font-weight:normal;font-stretch:normal;font-size:21.33329964px;font-family:sans-serif;-inkscape-font-specification:sans-serif;fill:#000000;fill-opacity:1"
           id="path1001"
           inkscape:connector-curvature="0" />
        <path
           d="m 396.47587,1087.9954 q -0.32292,-0.1875 -0.70834,-0.2708 -0.375,-0.094 -0.83333,-0.094 -1.625,0 -2.5,1.0625 -0.86458,1.052 -0.86458,3.0312 v 6.1458 h -1.92708 v -11.6666 h 1.92708 v 1.8125 q 0.60417,-1.0625 1.57292,-1.5729 0.96875,-0.5209 2.35416,-0.5209 0.19792,0 0.4375,0.031 0.23958,0.021 0.53125,0.073 z"
           style="font-style:normal;font-variant:normal;font-weight:normal;font-stretch:normal;font-size:21.33329964px;font-family:sans-serif;-inkscape-font-specification:sans-serif;fill:#000000;fill-opacity:1"
           id="path1003"
           inkscape:connector-curvature="0" />
        <path
           d="m 398.48628,1086.2038 h 1.91666 v 11.6666 h -1.91666 z m 0,-4.5417 h 1.91666 v 2.4271 h -1.91666 z"
           style="font-style:normal;font-variant:normal;font-weight:normal;font-stretch:normal;font-size:21.33329964px;font-family:sans-serif;-inkscape-font-specification:sans-serif;fill:#000000;fill-opacity:1"
           id="path1006"
           inkscape:connector-curvature="0" />
        <path
           d="m 413.49667,1088.4434 q 0.71875,-1.2917 1.71875,-1.9063 1,-0.6146 2.35416,-0.6146 1.82292,0 2.8125,1.2813 0.98958,1.2708 0.98958,3.625 v 7.0416 h -1.92708 v -6.9791 q 0,-1.6771 -0.59375,-2.4896 -0.59375,-0.8125 -1.8125,-0.8125 -1.48958,0 -2.35416,0.9896 -0.86458,0.9896 -0.86458,2.6979 v 6.5937 h -1.92708 v -6.9791 q 0,-1.6875 -0.59375,-2.4896 -0.59375,-0.8125 -1.83333,-0.8125 -1.46875,0 -2.33333,1 -0.86458,0.9896 -0.86458,2.6875 v 6.5937 h -1.92708 v -11.6666 h 1.92708 v 1.8125 q 0.65625,-1.0729 1.57291,-1.5834 0.91667,-0.5104 2.17708,-0.5104 1.27083,0 2.15625,0.6459 0.89583,0.6458 1.32291,1.875 z"
           style="font-style:normal;font-variant:normal;font-weight:normal;font-stretch:normal;font-size:21.33329964px;font-family:sans-serif;-inkscape-font-specification:sans-serif;fill:#000000;fill-opacity:1"
           id="path1008"
           inkscape:connector-curvature="0" />
        <path
           d="m 437.25705,1084.3913 -2.85416,7.7396 h 5.71874 z m -1.1875,-2.0729 h 2.38542 l 5.92707,15.552 h -2.1875 l -1.41666,-3.9895 h -7.01041 l -1.41666,3.9895 h -2.21875 z"
           style="font-style:normal;font-variant:normal;font-weight:normal;font-stretch:normal;font-size:21.33329964px;font-family:sans-serif;-inkscape-font-specification:sans-serif;fill:#000000;fill-opacity:1"
           id="path1010"
           inkscape:connector-curvature="0" />
        <path
           d="m 454.59035,1086.6517 v 1.7917 q -0.81249,-0.448 -1.63541,-0.6667 -0.8125,-0.2292 -1.64583,-0.2292 -1.86458,0 -2.89583,1.1875 -1.03125,1.1771 -1.03125,3.3125 0,2.1354 1.03125,3.3229 1.03125,1.1771 2.89583,1.1771 0.83333,0 1.64583,-0.2187 0.82292,-0.2292 1.63541,-0.6771 v 1.7708 q -0.80208,0.375 -1.66666,0.5625 -0.85417,0.1875 -1.82291,0.1875 -2.63542,0 -4.1875,-1.6562 -1.55208,-1.6563 -1.55208,-4.4688 0,-2.8541 1.5625,-4.4896 1.57291,-1.6354 4.30208,-1.6354 0.88541,0 1.72916,0.1875 0.84375,0.1771 1.63541,0.5417 z m -2.70833,11.2187 q 0.57292,0.6459 0.85417,1.1875 0.28125,0.5521 0.28125,1.0521 0,0.9271 -0.625,1.3958 -0.625,0.4792 -1.85416,0.4792 -0.47917,0 -0.9375,-0.062 -0.44792,-0.062 -0.89583,-0.1875 v -1.3646 q 0.35416,0.1771 0.73958,0.25 0.38541,0.083 0.875,0.083 0.61458,0 0.92708,-0.25 0.3125,-0.25 0.3125,-0.7292 0,-0.3125 -0.22917,-0.7708 -0.21875,-0.448 -0.6875,-1.0834 z"
           style="font-style:normal;font-variant:normal;font-weight:normal;font-stretch:normal;font-size:21.33329964px;font-family:sans-serif;-inkscape-font-specification:sans-serif;fill:#000000;fill-opacity:1"
           id="path1012"
           inkscape:connector-curvature="0" />
        <path
           d="m 457.92368,1086.2038 h 1.91667 v 11.6666 h -1.91667 z m 0.95833,-0.2813 z"
           style="font-style:normal;font-variant:normal;font-weight:normal;font-stretch:normal;font-size:21.33329964px;font-family:sans-serif;-inkscape-font-specification:sans-serif;fill:#000000;fill-opacity:1"
           id="path1014"
           inkscape:connector-curvature="0" />
      </g>
      <path
         style="fill:#dde9af;fill-opacity:1;stroke:#000000;stroke-width:0.5;stroke-linecap:butt;stroke-linejoin:miter;stroke-miterlimit:4;stroke-dasharray:none;stroke-opacity:1"
         d="M 16.51005,59.625393 43.120699,86.178377 24.218245,53.659732 Z"
         id="path969"
         sodipodi:nodetypes="cccc"
         inkscape:connector-curvature="0" />
      <g
         aria-label="Birim Açı"
         transform="matrix(0.10629788,0.14316393,-0.14316393,0.10629788,138.3859,-111.37409)"
         style="font-style:normal;font-weight:normal;font-size:14.66670036px;line-height:0.25;font-family:sans-serif;letter-spacing:0px;word-spacing:0px;fill:#000000;fill-opacity:1;stroke:none"
         id="flowRoot977">
        <path
           d="m 371.34049,1090.4434 v 5.6979 h 3.37499 q 1.69792,0 2.51042,-0.6979 0.82291,-0.7084 0.82291,-2.1563 0,-1.4583 -0.82291,-2.1458 -0.8125,-0.6979 -2.51042,-0.6979 z m 0,-6.3959 v 4.6875 h 3.11458 q 1.54166,0 2.29166,-0.5729 0.76042,-0.5833 0.76042,-1.7708 0,-1.1771 -0.76042,-1.7604 -0.75,-0.5834 -2.29166,-0.5834 z m -2.10417,-1.7291 h 5.375 q 2.40624,0 3.70832,1 1.30209,1 1.30209,2.8437 0,1.4271 -0.66667,2.2708 -0.66667,0.8438 -1.95833,1.0521 1.55208,0.3334 2.40625,1.3959 0.86458,1.052 0.86458,2.6354 0,2.0833 -1.41667,3.2187 -1.41666,1.1354 -4.03124,1.1354 h -5.58333 z"
           style="font-style:normal;font-variant:normal;font-weight:normal;font-stretch:normal;font-size:21.33329964px;font-family:sans-serif;-inkscape-font-specification:sans-serif;fill:#000000;fill-opacity:1"
           id="path1018"
           inkscape:connector-curvature="0" />
        <path
           d="m 383.78838,1086.2038 h 1.91667 v 11.6666 h -1.91667 z m 0,-4.5417 h 1.91667 v 2.4271 h -1.91667 z"
           style="font-style:normal;font-variant:normal;font-weight:normal;font-stretch:normal;font-size:21.33329964px;font-family:sans-serif;-inkscape-font-specification:sans-serif;fill:#000000;fill-opacity:1"
           id="path1020"
           inkscape:connector-curvature="0" />
        <path
           d="m 396.47587,1087.9954 q -0.32292,-0.1875 -0.70834,-0.2708 -0.375,-0.094 -0.83333,-0.094 -1.625,0 -2.5,1.0625 -0.86458,1.052 -0.86458,3.0312 v 6.1458 h -1.92708 v -11.6666 h 1.92708 v 1.8125 q 0.60417,-1.0625 1.57292,-1.5729 0.96875,-0.5209 2.35416,-0.5209 0.19792,0 0.4375,0.031 0.23958,0.021 0.53125,0.073 z"
           style="font-style:normal;font-variant:normal;font-weight:normal;font-stretch:normal;font-size:21.33329964px;font-family:sans-serif;-inkscape-font-specification:sans-serif;fill:#000000;fill-opacity:1"
           id="path1022"
           inkscape:connector-curvature="0" />
        <path
           d="m 398.48628,1086.2038 h 1.91666 v 11.6666 h -1.91666 z m 0,-4.5417 h 1.91666 v 2.4271 h -1.91666 z"
           style="font-style:normal;font-variant:normal;font-weight:normal;font-stretch:normal;font-size:21.33329964px;font-family:sans-serif;-inkscape-font-specification:sans-serif;fill:#000000;fill-opacity:1"
           id="path1024"
           inkscape:connector-curvature="0" />
        <path
           d="m 413.49667,1088.4434 q 0.71875,-1.2917 1.71875,-1.9063 1,-0.6146 2.35416,-0.6146 1.82292,0 2.8125,1.2813 0.98958,1.2708 0.98958,3.625 v 7.0416 h -1.92708 v -6.9791 q 0,-1.6771 -0.59375,-2.4896 -0.59375,-0.8125 -1.8125,-0.8125 -1.48958,0 -2.35416,0.9896 -0.86458,0.9896 -0.86458,2.6979 v 6.5937 h -1.92708 v -6.9791 q 0,-1.6875 -0.59375,-2.4896 -0.59375,-0.8125 -1.83333,-0.8125 -1.46875,0 -2.33333,1 -0.86458,0.9896 -0.86458,2.6875 v 6.5937 h -1.92708 v -11.6666 h 1.92708 v 1.8125 q 0.65625,-1.0729 1.57291,-1.5834 0.91667,-0.5104 2.17708,-0.5104 1.27083,0 2.15625,0.6459 0.89583,0.6458 1.32291,1.875 z"
           style="font-style:normal;font-variant:normal;font-weight:normal;font-stretch:normal;font-size:21.33329964px;font-family:sans-serif;-inkscape-font-specification:sans-serif;fill:#000000;fill-opacity:1"
           id="path1026"
           inkscape:connector-curvature="0" />
        <path
           d="m 437.25705,1084.3913 -2.85416,7.7396 h 5.71874 z m -1.1875,-2.0729 h 2.38542 l 5.92707,15.552 h -2.1875 l -1.41666,-3.9895 h -7.01041 l -1.41666,3.9895 h -2.21875 z"
           style="font-style:normal;font-variant:normal;font-weight:normal;font-stretch:normal;font-size:21.33329964px;font-family:sans-serif;-inkscape-font-specification:sans-serif;fill:#000000;fill-opacity:1"
           id="path1028"
           inkscape:connector-curvature="0" />
        <path
           d="m 454.59035,1086.6517 v 1.7917 q -0.81249,-0.448 -1.63541,-0.6667 -0.8125,-0.2292 -1.64583,-0.2292 -1.86458,0 -2.89583,1.1875 -1.03125,1.1771 -1.03125,3.3125 0,2.1354 1.03125,3.3229 1.03125,1.1771 2.89583,1.1771 0.83333,0 1.64583,-0.2187 0.82292,-0.2292 1.63541,-0.6771 v 1.7708 q -0.80208,0.375 -1.66666,0.5625 -0.85417,0.1875 -1.82291,0.1875 -2.63542,0 -4.1875,-1.6562 -1.55208,-1.6563 -1.55208,-4.4688 0,-2.8541 1.5625,-4.4896 1.57291,-1.6354 4.30208,-1.6354 0.88541,0 1.72916,0.1875 0.84375,0.1771 1.63541,0.5417 z m -2.70833,11.2187 q 0.57292,0.6459 0.85417,1.1875 0.28125,0.5521 0.28125,1.0521 0,0.9271 -0.625,1.3958 -0.625,0.4792 -1.85416,0.4792 -0.47917,0 -0.9375,-0.062 -0.44792,-0.062 -0.89583,-0.1875 v -1.3646 q 0.35416,0.1771 0.73958,0.25 0.38541,0.083 0.875,0.083 0.61458,0 0.92708,-0.25 0.3125,-0.25 0.3125,-0.7292 0,-0.3125 -0.22917,-0.7708 -0.21875,-0.448 -0.6875,-1.0834 z"
           style="font-style:normal;font-variant:normal;font-weight:normal;font-stretch:normal;font-size:21.33329964px;font-family:sans-serif;-inkscape-font-specification:sans-serif;fill:#000000;fill-opacity:1"
           id="path1030"
           inkscape:connector-curvature="0" />
        <path
           d="m 457.92368,1086.2038 h 1.91667 v 11.6666 h -1.91667 z m 0.95833,-0.2813 z"
           style="font-style:normal;font-variant:normal;font-weight:normal;font-stretch:normal;font-size:21.33329964px;font-family:sans-serif;-inkscape-font-specification:sans-serif;fill:#000000;fill-opacity:1"
           id="path1032"
           inkscape:connector-curvature="0" />
      </g>
      <path
         style="fill:#c6e9af;fill-opacity:1;stroke:#000000;stroke-width:0.5;stroke-linecap:butt;stroke-linejoin:miter;stroke-miterlimit:4;stroke-dasharray:none;stroke-opacity:1"
         d="M 24.321399,53.629984 43.152894,86.16554 33.31097,49.862626 Z"
         id="path981"
         sodipodi:nodetypes="cccc"
         inkscape:connector-curvature="0" />
      <g
         aria-label="Birim Açı"
         transform="matrix(0.06562231,0.16579766,-0.16579766,0.06562231,186.30235,-79.999044)"
         style="font-style:normal;font-weight:normal;font-size:14.66670036px;line-height:0.25;font-family:sans-serif;letter-spacing:0px;word-spacing:0px;fill:#000000;fill-opacity:1;stroke:none"
         id="flowRoot989">
        <path
           d="m 371.34049,1090.4434 v 5.6979 h 3.37499 q 1.69792,0 2.51042,-0.6979 0.82291,-0.7084 0.82291,-2.1563 0,-1.4583 -0.82291,-2.1458 -0.8125,-0.6979 -2.51042,-0.6979 z m 0,-6.3959 v 4.6875 h 3.11458 q 1.54166,0 2.29166,-0.5729 0.76042,-0.5833 0.76042,-1.7708 0,-1.1771 -0.76042,-1.7604 -0.75,-0.5834 -2.29166,-0.5834 z m -2.10417,-1.7291 h 5.375 q 2.40624,0 3.70832,1 1.30209,1 1.30209,2.8437 0,1.4271 -0.66667,2.2708 -0.66667,0.8438 -1.95833,1.0521 1.55208,0.3334 2.40625,1.3959 0.86458,1.052 0.86458,2.6354 0,2.0833 -1.41667,3.2187 -1.41666,1.1354 -4.03124,1.1354 h -5.58333 z"
           style="font-style:normal;font-variant:normal;font-weight:normal;font-stretch:normal;font-size:21.33329964px;font-family:sans-serif;-inkscape-font-specification:sans-serif;fill:#000000;fill-opacity:1"
           id="path1035"
           inkscape:connector-curvature="0" />
        <path
           d="m 383.78838,1086.2038 h 1.91667 v 11.6666 h -1.91667 z m 0,-4.5417 h 1.91667 v 2.4271 h -1.91667 z"
           style="font-style:normal;font-variant:normal;font-weight:normal;font-stretch:normal;font-size:21.33329964px;font-family:sans-serif;-inkscape-font-specification:sans-serif;fill:#000000;fill-opacity:1"
           id="path1037"
           inkscape:connector-curvature="0" />
        <path
           d="m 396.47587,1087.9954 q -0.32292,-0.1875 -0.70834,-0.2708 -0.375,-0.094 -0.83333,-0.094 -1.625,0 -2.5,1.0625 -0.86458,1.052 -0.86458,3.0312 v 6.1458 h -1.92708 v -11.6666 h 1.92708 v 1.8125 q 0.60417,-1.0625 1.57292,-1.5729 0.96875,-0.5209 2.35416,-0.5209 0.19792,0 0.4375,0.031 0.23958,0.021 0.53125,0.073 z"
           style="font-style:normal;font-variant:normal;font-weight:normal;font-stretch:normal;font-size:21.33329964px;font-family:sans-serif;-inkscape-font-specification:sans-serif;fill:#000000;fill-opacity:1"
           id="path1039"
           inkscape:connector-curvature="0" />
        <path
           d="m 398.48628,1086.2038 h 1.91666 v 11.6666 h -1.91666 z m 0,-4.5417 h 1.91666 v 2.4271 h -1.91666 z"
           style="font-style:normal;font-variant:normal;font-weight:normal;font-stretch:normal;font-size:21.33329964px;font-family:sans-serif;-inkscape-font-specification:sans-serif;fill:#000000;fill-opacity:1"
           id="path1042"
           inkscape:connector-curvature="0" />
        <path
           d="m 413.49667,1088.4434 q 0.71875,-1.2917 1.71875,-1.9063 1,-0.6146 2.35416,-0.6146 1.82292,0 2.8125,1.2813 0.98958,1.2708 0.98958,3.625 v 7.0416 h -1.92708 v -6.9791 q 0,-1.6771 -0.59375,-2.4896 -0.59375,-0.8125 -1.8125,-0.8125 -1.48958,0 -2.35416,0.9896 -0.86458,0.9896 -0.86458,2.6979 v 6.5937 h -1.92708 v -6.9791 q 0,-1.6875 -0.59375,-2.4896 -0.59375,-0.8125 -1.83333,-0.8125 -1.46875,0 -2.33333,1 -0.86458,0.9896 -0.86458,2.6875 v 6.5937 h -1.92708 v -11.6666 h 1.92708 v 1.8125 q 0.65625,-1.0729 1.57291,-1.5834 0.91667,-0.5104 2.17708,-0.5104 1.27083,0 2.15625,0.6459 0.89583,0.6458 1.32291,1.875 z"
           style="font-style:normal;font-variant:normal;font-weight:normal;font-stretch:normal;font-size:21.33329964px;font-family:sans-serif;-inkscape-font-specification:sans-serif;fill:#000000;fill-opacity:1"
           id="path1044"
           inkscape:connector-curvature="0" />
        <path
           d="m 437.25705,1084.3913 -2.85416,7.7396 h 5.71874 z m -1.1875,-2.0729 h 2.38542 l 5.92707,15.552 h -2.1875 l -1.41666,-3.9895 h -7.01041 l -1.41666,3.9895 h -2.21875 z"
           style="font-style:normal;font-variant:normal;font-weight:normal;font-stretch:normal;font-size:21.33329964px;font-family:sans-serif;-inkscape-font-specification:sans-serif;fill:#000000;fill-opacity:1"
           id="path1046"
           inkscape:connector-curvature="0" />
        <path
           d="m 454.59035,1086.6517 v 1.7917 q -0.81249,-0.448 -1.63541,-0.6667 -0.8125,-0.2292 -1.64583,-0.2292 -1.86458,0 -2.89583,1.1875 -1.03125,1.1771 -1.03125,3.3125 0,2.1354 1.03125,3.3229 1.03125,1.1771 2.89583,1.1771 0.83333,0 1.64583,-0.2187 0.82292,-0.2292 1.63541,-0.6771 v 1.7708 q -0.80208,0.375 -1.66666,0.5625 -0.85417,0.1875 -1.82291,0.1875 -2.63542,0 -4.1875,-1.6562 -1.55208,-1.6563 -1.55208,-4.4688 0,-2.8541 1.5625,-4.4896 1.57291,-1.6354 4.30208,-1.6354 0.88541,0 1.72916,0.1875 0.84375,0.1771 1.63541,0.5417 z m -2.70833,11.2187 q 0.57292,0.6459 0.85417,1.1875 0.28125,0.5521 0.28125,1.0521 0,0.9271 -0.625,1.3958 -0.625,0.4792 -1.85416,0.4792 -0.47917,0 -0.9375,-0.062 -0.44792,-0.062 -0.89583,-0.1875 v -1.3646 q 0.35416,0.1771 0.73958,0.25 0.38541,0.083 0.875,0.083 0.61458,0 0.92708,-0.25 0.3125,-0.25 0.3125,-0.7292 0,-0.3125 -0.22917,-0.7708 -0.21875,-0.448 -0.6875,-1.0834 z"
           style="font-style:normal;font-variant:normal;font-weight:normal;font-stretch:normal;font-size:21.33329964px;font-family:sans-serif;-inkscape-font-specification:sans-serif;fill:#000000;fill-opacity:1"
           id="path1048"
           inkscape:connector-curvature="0" />
        <path
           d="m 457.92368,1086.2038 h 1.91667 v 11.6666 h -1.91667 z m 0.95833,-0.2813 z"
           style="font-style:normal;font-variant:normal;font-weight:normal;font-stretch:normal;font-size:21.33329964px;font-family:sans-serif;-inkscape-font-specification:sans-serif;fill:#000000;fill-opacity:1"
           id="path1050"
           inkscape:connector-curvature="0" />
      </g>
      <path
         style="fill:#afe9af;fill-opacity:1;stroke:#000000;stroke-width:0.5;stroke-linecap:butt;stroke-linejoin:miter;stroke-miterlimit:4;stroke-dasharray:none;stroke-opacity:1"
         d="M 33.418307,49.860588 43.187313,86.161471 43.07663,48.548272 Z"
         id="path993"
         sodipodi:nodetypes="cccc"
         inkscape:connector-curvature="0" />
      <g
         aria-label="Birim Açı"
         transform="matrix(0.02047469,0.17713254,-0.17713254,0.02047469,224.46563,-37.291386)"
         style="font-style:normal;font-weight:normal;font-size:14.66670036px;line-height:0.25;font-family:sans-serif;letter-spacing:0px;word-spacing:0px;fill:#000000;fill-opacity:1;stroke:none"
         id="flowRoot1001">
        <path
           d="m 371.34049,1090.4434 v 5.6979 h 3.37499 q 1.69792,0 2.51042,-0.6979 0.82291,-0.7084 0.82291,-2.1563 0,-1.4583 -0.82291,-2.1458 -0.8125,-0.6979 -2.51042,-0.6979 z m 0,-6.3959 v 4.6875 h 3.11458 q 1.54166,0 2.29166,-0.5729 0.76042,-0.5833 0.76042,-1.7708 0,-1.1771 -0.76042,-1.7604 -0.75,-0.5834 -2.29166,-0.5834 z m -2.10417,-1.7291 h 5.375 q 2.40624,0 3.70832,1 1.30209,1 1.30209,2.8437 0,1.4271 -0.66667,2.2708 -0.66667,0.8438 -1.95833,1.0521 1.55208,0.3334 2.40625,1.3959 0.86458,1.052 0.86458,2.6354 0,2.0833 -1.41667,3.2187 -1.41666,1.1354 -4.03124,1.1354 h -5.58333 z"
           style="font-style:normal;font-variant:normal;font-weight:normal;font-stretch:normal;font-size:21.33329964px;font-family:sans-serif;-inkscape-font-specification:sans-serif;fill:#000000;fill-opacity:1"
           id="path1054"
           inkscape:connector-curvature="0" />
        <path
           d="m 383.78838,1086.2038 h 1.91667 v 11.6666 h -1.91667 z m 0,-4.5417 h 1.91667 v 2.4271 h -1.91667 z"
           style="font-style:normal;font-variant:normal;font-weight:normal;font-stretch:normal;font-size:21.33329964px;font-family:sans-serif;-inkscape-font-specification:sans-serif;fill:#000000;fill-opacity:1"
           id="path1056"
           inkscape:connector-curvature="0" />
        <path
           d="m 396.47587,1087.9954 q -0.32292,-0.1875 -0.70834,-0.2708 -0.375,-0.094 -0.83333,-0.094 -1.625,0 -2.5,1.0625 -0.86458,1.052 -0.86458,3.0312 v 6.1458 h -1.92708 v -11.6666 h 1.92708 v 1.8125 q 0.60417,-1.0625 1.57292,-1.5729 0.96875,-0.5209 2.35416,-0.5209 0.19792,0 0.4375,0.031 0.23958,0.021 0.53125,0.073 z"
           style="font-style:normal;font-variant:normal;font-weight:normal;font-stretch:normal;font-size:21.33329964px;font-family:sans-serif;-inkscape-font-specification:sans-serif;fill:#000000;fill-opacity:1"
           id="path1058"
           inkscape:connector-curvature="0" />
        <path
           d="m 398.48628,1086.2038 h 1.91666 v 11.6666 h -1.91666 z m 0,-4.5417 h 1.91666 v 2.4271 h -1.91666 z"
           style="font-style:normal;font-variant:normal;font-weight:normal;font-stretch:normal;font-size:21.33329964px;font-family:sans-serif;-inkscape-font-specification:sans-serif;fill:#000000;fill-opacity:1"
           id="path1060"
           inkscape:connector-curvature="0" />
        <path
           d="m 413.49667,1088.4434 q 0.71875,-1.2917 1.71875,-1.9063 1,-0.6146 2.35416,-0.6146 1.82292,0 2.8125,1.2813 0.98958,1.2708 0.98958,3.625 v 7.0416 h -1.92708 v -6.9791 q 0,-1.6771 -0.59375,-2.4896 -0.59375,-0.8125 -1.8125,-0.8125 -1.48958,0 -2.35416,0.9896 -0.86458,0.9896 -0.86458,2.6979 v 6.5937 h -1.92708 v -6.9791 q 0,-1.6875 -0.59375,-2.4896 -0.59375,-0.8125 -1.83333,-0.8125 -1.46875,0 -2.33333,1 -0.86458,0.9896 -0.86458,2.6875 v 6.5937 h -1.92708 v -11.6666 h 1.92708 v 1.8125 q 0.65625,-1.0729 1.57291,-1.5834 0.91667,-0.5104 2.17708,-0.5104 1.27083,0 2.15625,0.6459 0.89583,0.6458 1.32291,1.875 z"
           style="font-style:normal;font-variant:normal;font-weight:normal;font-stretch:normal;font-size:21.33329964px;font-family:sans-serif;-inkscape-font-specification:sans-serif;fill:#000000;fill-opacity:1"
           id="path1062"
           inkscape:connector-curvature="0" />
        <path
           d="m 437.25705,1084.3913 -2.85416,7.7396 h 5.71874 z m -1.1875,-2.0729 h 2.38542 l 5.92707,15.552 h -2.1875 l -1.41666,-3.9895 h -7.01041 l -1.41666,3.9895 h -2.21875 z"
           style="font-style:normal;font-variant:normal;font-weight:normal;font-stretch:normal;font-size:21.33329964px;font-family:sans-serif;-inkscape-font-specification:sans-serif;fill:#000000;fill-opacity:1"
           id="path1064"
           inkscape:connector-curvature="0" />
        <path
           d="m 454.59035,1086.6517 v 1.7917 q -0.81249,-0.448 -1.63541,-0.6667 -0.8125,-0.2292 -1.64583,-0.2292 -1.86458,0 -2.89583,1.1875 -1.03125,1.1771 -1.03125,3.3125 0,2.1354 1.03125,3.3229 1.03125,1.1771 2.89583,1.1771 0.83333,0 1.64583,-0.2187 0.82292,-0.2292 1.63541,-0.6771 v 1.7708 q -0.80208,0.375 -1.66666,0.5625 -0.85417,0.1875 -1.82291,0.1875 -2.63542,0 -4.1875,-1.6562 -1.55208,-1.6563 -1.55208,-4.4688 0,-2.8541 1.5625,-4.4896 1.57291,-1.6354 4.30208,-1.6354 0.88541,0 1.72916,0.1875 0.84375,0.1771 1.63541,0.5417 z m -2.70833,11.2187 q 0.57292,0.6459 0.85417,1.1875 0.28125,0.5521 0.28125,1.0521 0,0.9271 -0.625,1.3958 -0.625,0.4792 -1.85416,0.4792 -0.47917,0 -0.9375,-0.062 -0.44792,-0.062 -0.89583,-0.1875 v -1.3646 q 0.35416,0.1771 0.73958,0.25 0.38541,0.083 0.875,0.083 0.61458,0 0.92708,-0.25 0.3125,-0.25 0.3125,-0.7292 0,-0.3125 -0.22917,-0.7708 -0.21875,-0.448 -0.6875,-1.0834 z"
           style="font-style:normal;font-variant:normal;font-weight:normal;font-stretch:normal;font-size:21.33329964px;font-family:sans-serif;-inkscape-font-specification:sans-serif;fill:#000000;fill-opacity:1"
           id="path1066"
           inkscape:connector-curvature="0" />
        <path
           d="m 457.92368,1086.2038 h 1.91667 v 11.6666 h -1.91667 z m 0.95833,-0.2813 z"
           style="font-style:normal;font-variant:normal;font-weight:normal;font-stretch:normal;font-size:21.33329964px;font-family:sans-serif;-inkscape-font-specification:sans-serif;fill:#000000;fill-opacity:1"
           id="path1068"
           inkscape:connector-curvature="0" />
      </g>
      <path
         style="fill:#afe9c6;fill-opacity:1;stroke:#000000;stroke-width:0.5;stroke-linecap:butt;stroke-linejoin:miter;stroke-miterlimit:4;stroke-dasharray:none;stroke-opacity:1"
         d="m 43.180841,48.574084 0.04078,37.592366 9.6281,-36.360208 z"
         id="path1005"
         sodipodi:nodetypes="cccc"
         inkscape:connector-curvature="0" />
      <g
         aria-label="Birim Açı"
         transform="matrix(-0.02606824,0.17639614,-0.17639614,-0.02606824,250.27498,13.838428)"
         style="font-style:normal;font-weight:normal;font-size:14.66670036px;line-height:0.25;font-family:sans-serif;letter-spacing:0px;word-spacing:0px;fill:#000000;fill-opacity:1;stroke:none"
         id="flowRoot1013">
        <path
           d="m 371.34049,1090.4434 v 5.6979 h 3.37499 q 1.69792,0 2.51042,-0.6979 0.82291,-0.7084 0.82291,-2.1563 0,-1.4583 -0.82291,-2.1458 -0.8125,-0.6979 -2.51042,-0.6979 z m 0,-6.3959 v 4.6875 h 3.11458 q 1.54166,0 2.29166,-0.5729 0.76042,-0.5833 0.76042,-1.7708 0,-1.1771 -0.76042,-1.7604 -0.75,-0.5834 -2.29166,-0.5834 z m -2.10417,-1.7291 h 5.375 q 2.40624,0 3.70832,1 1.30209,1 1.30209,2.8437 0,1.4271 -0.66667,2.2708 -0.66667,0.8438 -1.95833,1.0521 1.55208,0.3334 2.40625,1.3959 0.86458,1.052 0.86458,2.6354 0,2.0833 -1.41667,3.2187 -1.41666,1.1354 -4.03124,1.1354 h -5.58333 z"
           style="font-style:normal;font-variant:normal;font-weight:normal;font-stretch:normal;font-size:21.33329964px;font-family:sans-serif;-inkscape-font-specification:sans-serif;fill:#000000;fill-opacity:1"
           id="path1071"
           inkscape:connector-curvature="0" />
        <path
           d="m 383.78838,1086.2038 h 1.91667 v 11.6666 h -1.91667 z m 0,-4.5417 h 1.91667 v 2.4271 h -1.91667 z"
           style="font-style:normal;font-variant:normal;font-weight:normal;font-stretch:normal;font-size:21.33329964px;font-family:sans-serif;-inkscape-font-specification:sans-serif;fill:#000000;fill-opacity:1"
           id="path1073"
           inkscape:connector-curvature="0" />
        <path
           d="m 396.47587,1087.9954 q -0.32292,-0.1875 -0.70834,-0.2708 -0.375,-0.094 -0.83333,-0.094 -1.625,0 -2.5,1.0625 -0.86458,1.052 -0.86458,3.0312 v 6.1458 h -1.92708 v -11.6666 h 1.92708 v 1.8125 q 0.60417,-1.0625 1.57292,-1.5729 0.96875,-0.5209 2.35416,-0.5209 0.19792,0 0.4375,0.031 0.23958,0.021 0.53125,0.073 z"
           style="font-style:normal;font-variant:normal;font-weight:normal;font-stretch:normal;font-size:21.33329964px;font-family:sans-serif;-inkscape-font-specification:sans-serif;fill:#000000;fill-opacity:1"
           id="path1075"
           inkscape:connector-curvature="0" />
        <path
           d="m 398.48628,1086.2038 h 1.91666 v 11.6666 h -1.91666 z m 0,-4.5417 h 1.91666 v 2.4271 h -1.91666 z"
           style="font-style:normal;font-variant:normal;font-weight:normal;font-stretch:normal;font-size:21.33329964px;font-family:sans-serif;-inkscape-font-specification:sans-serif;fill:#000000;fill-opacity:1"
           id="path1077"
           inkscape:connector-curvature="0" />
        <path
           d="m 413.49667,1088.4434 q 0.71875,-1.2917 1.71875,-1.9063 1,-0.6146 2.35416,-0.6146 1.82292,0 2.8125,1.2813 0.98958,1.2708 0.98958,3.625 v 7.0416 h -1.92708 v -6.9791 q 0,-1.6771 -0.59375,-2.4896 -0.59375,-0.8125 -1.8125,-0.8125 -1.48958,0 -2.35416,0.9896 -0.86458,0.9896 -0.86458,2.6979 v 6.5937 h -1.92708 v -6.9791 q 0,-1.6875 -0.59375,-2.4896 -0.59375,-0.8125 -1.83333,-0.8125 -1.46875,0 -2.33333,1 -0.86458,0.9896 -0.86458,2.6875 v 6.5937 h -1.92708 v -11.6666 h 1.92708 v 1.8125 q 0.65625,-1.0729 1.57291,-1.5834 0.91667,-0.5104 2.17708,-0.5104 1.27083,0 2.15625,0.6459 0.89583,0.6458 1.32291,1.875 z"
           style="font-style:normal;font-variant:normal;font-weight:normal;font-stretch:normal;font-size:21.33329964px;font-family:sans-serif;-inkscape-font-specification:sans-serif;fill:#000000;fill-opacity:1"
           id="path1079"
           inkscape:connector-curvature="0" />
        <path
           d="m 437.25705,1084.3913 -2.85416,7.7396 h 5.71874 z m -1.1875,-2.0729 h 2.38542 l 5.92707,15.552 h -2.1875 l -1.41666,-3.9895 h -7.01041 l -1.41666,3.9895 h -2.21875 z"
           style="font-style:normal;font-variant:normal;font-weight:normal;font-stretch:normal;font-size:21.33329964px;font-family:sans-serif;-inkscape-font-specification:sans-serif;fill:#000000;fill-opacity:1"
           id="path1081"
           inkscape:connector-curvature="0" />
        <path
           d="m 454.59035,1086.6517 v 1.7917 q -0.81249,-0.448 -1.63541,-0.6667 -0.8125,-0.2292 -1.64583,-0.2292 -1.86458,0 -2.89583,1.1875 -1.03125,1.1771 -1.03125,3.3125 0,2.1354 1.03125,3.3229 1.03125,1.1771 2.89583,1.1771 0.83333,0 1.64583,-0.2187 0.82292,-0.2292 1.63541,-0.6771 v 1.7708 q -0.80208,0.375 -1.66666,0.5625 -0.85417,0.1875 -1.82291,0.1875 -2.63542,0 -4.1875,-1.6562 -1.55208,-1.6563 -1.55208,-4.4688 0,-2.8541 1.5625,-4.4896 1.57291,-1.6354 4.30208,-1.6354 0.88541,0 1.72916,0.1875 0.84375,0.1771 1.63541,0.5417 z m -2.70833,11.2187 q 0.57292,0.6459 0.85417,1.1875 0.28125,0.5521 0.28125,1.0521 0,0.9271 -0.625,1.3958 -0.625,0.4792 -1.85416,0.4792 -0.47917,0 -0.9375,-0.062 -0.44792,-0.062 -0.89583,-0.1875 v -1.3646 q 0.35416,0.1771 0.73958,0.25 0.38541,0.083 0.875,0.083 0.61458,0 0.92708,-0.25 0.3125,-0.25 0.3125,-0.7292 0,-0.3125 -0.22917,-0.7708 -0.21875,-0.448 -0.6875,-1.0834 z"
           style="font-style:normal;font-variant:normal;font-weight:normal;font-stretch:normal;font-size:21.33329964px;font-family:sans-serif;-inkscape-font-specification:sans-serif;fill:#000000;fill-opacity:1"
           id="path1083"
           inkscape:connector-curvature="0" />
        <path
           d="m 457.92368,1086.2038 h 1.91667 v 11.6666 h -1.91667 z m 0.95833,-0.2813 z"
           style="font-style:normal;font-variant:normal;font-weight:normal;font-stretch:normal;font-size:21.33329964px;font-family:sans-serif;-inkscape-font-specification:sans-serif;fill:#000000;fill-opacity:1"
           id="path1085"
           inkscape:connector-curvature="0" />
      </g>
      <path
         style="fill:#afe9dd;fill-opacity:1;stroke:#000000;stroke-width:0.5;stroke-linecap:butt;stroke-linejoin:miter;stroke-miterlimit:4;stroke-dasharray:none;stroke-opacity:1"
         d="M 52.943691,49.858144 43.253457,86.180134 61.964202,53.550806 Z"
         id="path1017"
         sodipodi:nodetypes="cccc"
         inkscape:connector-curvature="0" />
      <g
         aria-label="Birim Açı"
         transform="matrix(-0.07083466,0.16363863,-0.16363863,-0.07083466,261.97151,69.905982)"
         style="font-style:normal;font-weight:normal;font-size:14.66670036px;line-height:0.25;font-family:sans-serif;letter-spacing:0px;word-spacing:0px;fill:#000000;fill-opacity:1;stroke:none"
         id="flowRoot1025">
        <path
           d="m 371.34049,1090.4434 v 5.6979 h 3.37499 q 1.69792,0 2.51042,-0.6979 0.82291,-0.7084 0.82291,-2.1563 0,-1.4583 -0.82291,-2.1458 -0.8125,-0.6979 -2.51042,-0.6979 z m 0,-6.3959 v 4.6875 h 3.11458 q 1.54166,0 2.29166,-0.5729 0.76042,-0.5833 0.76042,-1.7708 0,-1.1771 -0.76042,-1.7604 -0.75,-0.5834 -2.29166,-0.5834 z m -2.10417,-1.7291 h 5.375 q 2.40624,0 3.70832,1 1.30209,1 1.30209,2.8437 0,1.4271 -0.66667,2.2708 -0.66667,0.8438 -1.95833,1.0521 1.55208,0.3334 2.40625,1.3959 0.86458,1.052 0.86458,2.6354 0,2.0833 -1.41667,3.2187 -1.41666,1.1354 -4.03124,1.1354 h -5.58333 z"
           style="font-style:normal;font-variant:normal;font-weight:normal;font-stretch:normal;font-size:21.33329964px;font-family:sans-serif;-inkscape-font-specification:sans-serif;fill:#000000;fill-opacity:1"
           id="path1088"
           inkscape:connector-curvature="0" />
        <path
           d="m 383.78838,1086.2038 h 1.91667 v 11.6666 h -1.91667 z m 0,-4.5417 h 1.91667 v 2.4271 h -1.91667 z"
           style="font-style:normal;font-variant:normal;font-weight:normal;font-stretch:normal;font-size:21.33329964px;font-family:sans-serif;-inkscape-font-specification:sans-serif;fill:#000000;fill-opacity:1"
           id="path1090"
           inkscape:connector-curvature="0" />
        <path
           d="m 396.47587,1087.9954 q -0.32292,-0.1875 -0.70834,-0.2708 -0.375,-0.094 -0.83333,-0.094 -1.625,0 -2.5,1.0625 -0.86458,1.052 -0.86458,3.0312 v 6.1458 h -1.92708 v -11.6666 h 1.92708 v 1.8125 q 0.60417,-1.0625 1.57292,-1.5729 0.96875,-0.5209 2.35416,-0.5209 0.19792,0 0.4375,0.031 0.23958,0.021 0.53125,0.073 z"
           style="font-style:normal;font-variant:normal;font-weight:normal;font-stretch:normal;font-size:21.33329964px;font-family:sans-serif;-inkscape-font-specification:sans-serif;fill:#000000;fill-opacity:1"
           id="path1092"
           inkscape:connector-curvature="0" />
        <path
           d="m 398.48628,1086.2038 h 1.91666 v 11.6666 h -1.91666 z m 0,-4.5417 h 1.91666 v 2.4271 h -1.91666 z"
           style="font-style:normal;font-variant:normal;font-weight:normal;font-stretch:normal;font-size:21.33329964px;font-family:sans-serif;-inkscape-font-specification:sans-serif;fill:#000000;fill-opacity:1"
           id="path1094"
           inkscape:connector-curvature="0" />
        <path
           d="m 413.49667,1088.4434 q 0.71875,-1.2917 1.71875,-1.9063 1,-0.6146 2.35416,-0.6146 1.82292,0 2.8125,1.2813 0.98958,1.2708 0.98958,3.625 v 7.0416 h -1.92708 v -6.9791 q 0,-1.6771 -0.59375,-2.4896 -0.59375,-0.8125 -1.8125,-0.8125 -1.48958,0 -2.35416,0.9896 -0.86458,0.9896 -0.86458,2.6979 v 6.5937 h -1.92708 v -6.9791 q 0,-1.6875 -0.59375,-2.4896 -0.59375,-0.8125 -1.83333,-0.8125 -1.46875,0 -2.33333,1 -0.86458,0.9896 -0.86458,2.6875 v 6.5937 h -1.92708 v -11.6666 h 1.92708 v 1.8125 q 0.65625,-1.0729 1.57291,-1.5834 0.91667,-0.5104 2.17708,-0.5104 1.27083,0 2.15625,0.6459 0.89583,0.6458 1.32291,1.875 z"
           style="font-style:normal;font-variant:normal;font-weight:normal;font-stretch:normal;font-size:21.33329964px;font-family:sans-serif;-inkscape-font-specification:sans-serif;fill:#000000;fill-opacity:1"
           id="path1096"
           inkscape:connector-curvature="0" />
        <path
           d="m 437.25705,1084.3913 -2.85416,7.7396 h 5.71874 z m -1.1875,-2.0729 h 2.38542 l 5.92707,15.552 h -2.1875 l -1.41666,-3.9895 h -7.01041 l -1.41666,3.9895 h -2.21875 z"
           style="font-style:normal;font-variant:normal;font-weight:normal;font-stretch:normal;font-size:21.33329964px;font-family:sans-serif;-inkscape-font-specification:sans-serif;fill:#000000;fill-opacity:1"
           id="path1098"
           inkscape:connector-curvature="0" />
        <path
           d="m 454.59035,1086.6517 v 1.7917 q -0.81249,-0.448 -1.63541,-0.6667 -0.8125,-0.2292 -1.64583,-0.2292 -1.86458,0 -2.89583,1.1875 -1.03125,1.1771 -1.03125,3.3125 0,2.1354 1.03125,3.3229 1.03125,1.1771 2.89583,1.1771 0.83333,0 1.64583,-0.2187 0.82292,-0.2292 1.63541,-0.6771 v 1.7708 q -0.80208,0.375 -1.66666,0.5625 -0.85417,0.1875 -1.82291,0.1875 -2.63542,0 -4.1875,-1.6562 -1.55208,-1.6563 -1.55208,-4.4688 0,-2.8541 1.5625,-4.4896 1.57291,-1.6354 4.30208,-1.6354 0.88541,0 1.72916,0.1875 0.84375,0.1771 1.63541,0.5417 z m -2.70833,11.2187 q 0.57292,0.6459 0.85417,1.1875 0.28125,0.5521 0.28125,1.0521 0,0.9271 -0.625,1.3958 -0.625,0.4792 -1.85416,0.4792 -0.47917,0 -0.9375,-0.062 -0.44792,-0.062 -0.89583,-0.1875 v -1.3646 q 0.35416,0.1771 0.73958,0.25 0.38541,0.083 0.875,0.083 0.61458,0 0.92708,-0.25 0.3125,-0.25 0.3125,-0.7292 0,-0.3125 -0.22917,-0.7708 -0.21875,-0.448 -0.6875,-1.0834 z"
           style="font-style:normal;font-variant:normal;font-weight:normal;font-stretch:normal;font-size:21.33329964px;font-family:sans-serif;-inkscape-font-specification:sans-serif;fill:#000000;fill-opacity:1"
           id="path1100"
           inkscape:connector-curvature="0" />
        <path
           d="m 457.92368,1086.2038 h 1.91667 v 11.6666 h -1.91667 z m 0.95833,-0.2813 z"
           style="font-style:normal;font-variant:normal;font-weight:normal;font-stretch:normal;font-size:21.33329964px;font-family:sans-serif;-inkscape-font-specification:sans-serif;fill:#000000;fill-opacity:1"
           id="path1102"
           inkscape:connector-curvature="0" />
      </g>
      <path
         style="fill:#afdde9;fill-opacity:1;stroke:#000000;stroke-width:0.5;stroke-linecap:butt;stroke-linejoin:miter;stroke-miterlimit:4;stroke-dasharray:none;stroke-opacity:1"
         d="M 62.041544,53.625265 43.280674,86.201597 69.798957,59.526784 Z"
         id="path1029"
         sodipodi:nodetypes="cccc"
         inkscape:connector-curvature="0" />
      <g
         aria-label="Birim Açı"
         transform="matrix(-0.11077383,0.13972942,-0.13972942,-0.11077383,258.75815,127.09038)"
         style="font-style:normal;font-weight:normal;font-size:14.66670036px;line-height:0.25;font-family:sans-serif;letter-spacing:0px;word-spacing:0px;fill:#000000;fill-opacity:1;stroke:none"
         id="flowRoot1037">
        <path
           d="m 371.34049,1090.4434 v 5.6979 h 3.37499 q 1.69792,0 2.51042,-0.6979 0.82291,-0.7084 0.82291,-2.1563 0,-1.4583 -0.82291,-2.1458 -0.8125,-0.6979 -2.51042,-0.6979 z m 0,-6.3959 v 4.6875 h 3.11458 q 1.54166,0 2.29166,-0.5729 0.76042,-0.5833 0.76042,-1.7708 0,-1.1771 -0.76042,-1.7604 -0.75,-0.5834 -2.29166,-0.5834 z m -2.10417,-1.7291 h 5.375 q 2.40624,0 3.70832,1 1.30209,1 1.30209,2.8437 0,1.4271 -0.66667,2.2708 -0.66667,0.8438 -1.95833,1.0521 1.55208,0.3334 2.40625,1.3959 0.86458,1.052 0.86458,2.6354 0,2.0833 -1.41667,3.2187 -1.41666,1.1354 -4.03124,1.1354 h -5.58333 z"
           style="font-style:normal;font-variant:normal;font-weight:normal;font-stretch:normal;font-size:21.33329964px;font-family:sans-serif;-inkscape-font-specification:sans-serif;fill:#000000;fill-opacity:1"
           id="path1105"
           inkscape:connector-curvature="0" />
        <path
           d="m 383.78838,1086.2038 h 1.91667 v 11.6666 h -1.91667 z m 0,-4.5417 h 1.91667 v 2.4271 h -1.91667 z"
           style="font-style:normal;font-variant:normal;font-weight:normal;font-stretch:normal;font-size:21.33329964px;font-family:sans-serif;-inkscape-font-specification:sans-serif;fill:#000000;fill-opacity:1"
           id="path1107"
           inkscape:connector-curvature="0" />
        <path
           d="m 396.47587,1087.9954 q -0.32292,-0.1875 -0.70834,-0.2708 -0.375,-0.094 -0.83333,-0.094 -1.625,0 -2.5,1.0625 -0.86458,1.052 -0.86458,3.0312 v 6.1458 h -1.92708 v -11.6666 h 1.92708 v 1.8125 q 0.60417,-1.0625 1.57292,-1.5729 0.96875,-0.5209 2.35416,-0.5209 0.19792,0 0.4375,0.031 0.23958,0.021 0.53125,0.073 z"
           style="font-style:normal;font-variant:normal;font-weight:normal;font-stretch:normal;font-size:21.33329964px;font-family:sans-serif;-inkscape-font-specification:sans-serif;fill:#000000;fill-opacity:1"
           id="path1109"
           inkscape:connector-curvature="0" />
        <path
           d="m 398.48628,1086.2038 h 1.91666 v 11.6666 h -1.91666 z m 0,-4.5417 h 1.91666 v 2.4271 h -1.91666 z"
           style="font-style:normal;font-variant:normal;font-weight:normal;font-stretch:normal;font-size:21.33329964px;font-family:sans-serif;-inkscape-font-specification:sans-serif;fill:#000000;fill-opacity:1"
           id="path1111"
           inkscape:connector-curvature="0" />
        <path
           d="m 413.49667,1088.4434 q 0.71875,-1.2917 1.71875,-1.9063 1,-0.6146 2.35416,-0.6146 1.82292,0 2.8125,1.2813 0.98958,1.2708 0.98958,3.625 v 7.0416 h -1.92708 v -6.9791 q 0,-1.6771 -0.59375,-2.4896 -0.59375,-0.8125 -1.8125,-0.8125 -1.48958,0 -2.35416,0.9896 -0.86458,0.9896 -0.86458,2.6979 v 6.5937 h -1.92708 v -6.9791 q 0,-1.6875 -0.59375,-2.4896 -0.59375,-0.8125 -1.83333,-0.8125 -1.46875,0 -2.33333,1 -0.86458,0.9896 -0.86458,2.6875 v 6.5937 h -1.92708 v -11.6666 h 1.92708 v 1.8125 q 0.65625,-1.0729 1.57291,-1.5834 0.91667,-0.5104 2.17708,-0.5104 1.27083,0 2.15625,0.6459 0.89583,0.6458 1.32291,1.875 z"
           style="font-style:normal;font-variant:normal;font-weight:normal;font-stretch:normal;font-size:21.33329964px;font-family:sans-serif;-inkscape-font-specification:sans-serif;fill:#000000;fill-opacity:1"
           id="path1113"
           inkscape:connector-curvature="0" />
        <path
           d="m 437.25705,1084.3913 -2.85416,7.7396 h 5.71874 z m -1.1875,-2.0729 h 2.38542 l 5.92707,15.552 h -2.1875 l -1.41666,-3.9895 h -7.01041 l -1.41666,3.9895 h -2.21875 z"
           style="font-style:normal;font-variant:normal;font-weight:normal;font-stretch:normal;font-size:21.33329964px;font-family:sans-serif;-inkscape-font-specification:sans-serif;fill:#000000;fill-opacity:1"
           id="path1115"
           inkscape:connector-curvature="0" />
        <path
           d="m 454.59035,1086.6517 v 1.7917 q -0.81249,-0.448 -1.63541,-0.6667 -0.8125,-0.2292 -1.64583,-0.2292 -1.86458,0 -2.89583,1.1875 -1.03125,1.1771 -1.03125,3.3125 0,2.1354 1.03125,3.3229 1.03125,1.1771 2.89583,1.1771 0.83333,0 1.64583,-0.2187 0.82292,-0.2292 1.63541,-0.6771 v 1.7708 q -0.80208,0.375 -1.66666,0.5625 -0.85417,0.1875 -1.82291,0.1875 -2.63542,0 -4.1875,-1.6562 -1.55208,-1.6563 -1.55208,-4.4688 0,-2.8541 1.5625,-4.4896 1.57291,-1.6354 4.30208,-1.6354 0.88541,0 1.72916,0.1875 0.84375,0.1771 1.63541,0.5417 z m -2.70833,11.2187 q 0.57292,0.6459 0.85417,1.1875 0.28125,0.5521 0.28125,1.0521 0,0.9271 -0.625,1.3958 -0.625,0.4792 -1.85416,0.4792 -0.47917,0 -0.9375,-0.062 -0.44792,-0.062 -0.89583,-0.1875 v -1.3646 q 0.35416,0.1771 0.73958,0.25 0.38541,0.083 0.875,0.083 0.61458,0 0.92708,-0.25 0.3125,-0.25 0.3125,-0.7292 0,-0.3125 -0.22917,-0.7708 -0.21875,-0.448 -0.6875,-1.0834 z"
           style="font-style:normal;font-variant:normal;font-weight:normal;font-stretch:normal;font-size:21.33329964px;font-family:sans-serif;-inkscape-font-specification:sans-serif;fill:#000000;fill-opacity:1"
           id="path1117"
           inkscape:connector-curvature="0" />
        <path
           d="m 457.92368,1086.2038 h 1.91667 v 11.6666 h -1.91667 z m 0.95833,-0.2813 z"
           style="font-style:normal;font-variant:normal;font-weight:normal;font-stretch:normal;font-size:21.33329964px;font-family:sans-serif;-inkscape-font-specification:sans-serif;fill:#000000;fill-opacity:1"
           id="path1119"
           inkscape:connector-curvature="0" />
      </g>
      <path
         style="fill:#afc6e9;fill-opacity:1;stroke:#000000;stroke-width:0.5;stroke-linecap:butt;stroke-linejoin:miter;stroke-miterlimit:4;stroke-dasharray:none;stroke-opacity:1"
         d="M 69.85439,59.618717 43.301406,86.229366 75.820051,67.326913 Z"
         id="path1041"
         sodipodi:nodetypes="cccc"
         inkscape:connector-curvature="0" />
      <g
         aria-label="Birim Açı"
         transform="matrix(-0.14316393,0.10629788,-0.10629788,-0.14316393,240.85387,181.49457)"
         style="font-style:normal;font-weight:normal;font-size:14.66670036px;line-height:0.25;font-family:sans-serif;letter-spacing:0px;word-spacing:0px;fill:#000000;fill-opacity:1;stroke:none"
         id="flowRoot1049">
        <path
           d="m 371.34049,1090.4434 v 5.6979 h 3.37499 q 1.69792,0 2.51042,-0.6979 0.82291,-0.7084 0.82291,-2.1563 0,-1.4583 -0.82291,-2.1458 -0.8125,-0.6979 -2.51042,-0.6979 z m 0,-6.3959 v 4.6875 h 3.11458 q 1.54166,0 2.29166,-0.5729 0.76042,-0.5833 0.76042,-1.7708 0,-1.1771 -0.76042,-1.7604 -0.75,-0.5834 -2.29166,-0.5834 z m -2.10417,-1.7291 h 5.375 q 2.40624,0 3.70832,1 1.30209,1 1.30209,2.8437 0,1.4271 -0.66667,2.2708 -0.66667,0.8438 -1.95833,1.0521 1.55208,0.3334 2.40625,1.3959 0.86458,1.052 0.86458,2.6354 0,2.0833 -1.41667,3.2187 -1.41666,1.1354 -4.03124,1.1354 h -5.58333 z"
           style="font-style:normal;font-variant:normal;font-weight:normal;font-stretch:normal;font-size:21.33329964px;font-family:sans-serif;-inkscape-font-specification:sans-serif;fill:#000000;fill-opacity:1"
           id="path1122"
           inkscape:connector-curvature="0" />
        <path
           d="m 383.78838,1086.2038 h 1.91667 v 11.6666 h -1.91667 z m 0,-4.5417 h 1.91667 v 2.4271 h -1.91667 z"
           style="font-style:normal;font-variant:normal;font-weight:normal;font-stretch:normal;font-size:21.33329964px;font-family:sans-serif;-inkscape-font-specification:sans-serif;fill:#000000;fill-opacity:1"
           id="path1124"
           inkscape:connector-curvature="0" />
        <path
           d="m 396.47587,1087.9954 q -0.32292,-0.1875 -0.70834,-0.2708 -0.375,-0.094 -0.83333,-0.094 -1.625,0 -2.5,1.0625 -0.86458,1.052 -0.86458,3.0312 v 6.1458 h -1.92708 v -11.6666 h 1.92708 v 1.8125 q 0.60417,-1.0625 1.57292,-1.5729 0.96875,-0.5209 2.35416,-0.5209 0.19792,0 0.4375,0.031 0.23958,0.021 0.53125,0.073 z"
           style="font-style:normal;font-variant:normal;font-weight:normal;font-stretch:normal;font-size:21.33329964px;font-family:sans-serif;-inkscape-font-specification:sans-serif;fill:#000000;fill-opacity:1"
           id="path1126"
           inkscape:connector-curvature="0" />
        <path
           d="m 398.48628,1086.2038 h 1.91666 v 11.6666 h -1.91666 z m 0,-4.5417 h 1.91666 v 2.4271 h -1.91666 z"
           style="font-style:normal;font-variant:normal;font-weight:normal;font-stretch:normal;font-size:21.33329964px;font-family:sans-serif;-inkscape-font-specification:sans-serif;fill:#000000;fill-opacity:1"
           id="path1128"
           inkscape:connector-curvature="0" />
        <path
           d="m 413.49667,1088.4434 q 0.71875,-1.2917 1.71875,-1.9063 1,-0.6146 2.35416,-0.6146 1.82292,0 2.8125,1.2813 0.98958,1.2708 0.98958,3.625 v 7.0416 h -1.92708 v -6.9791 q 0,-1.6771 -0.59375,-2.4896 -0.59375,-0.8125 -1.8125,-0.8125 -1.48958,0 -2.35416,0.9896 -0.86458,0.9896 -0.86458,2.6979 v 6.5937 h -1.92708 v -6.9791 q 0,-1.6875 -0.59375,-2.4896 -0.59375,-0.8125 -1.83333,-0.8125 -1.46875,0 -2.33333,1 -0.86458,0.9896 -0.86458,2.6875 v 6.5937 h -1.92708 v -11.6666 h 1.92708 v 1.8125 q 0.65625,-1.0729 1.57291,-1.5834 0.91667,-0.5104 2.17708,-0.5104 1.27083,0 2.15625,0.6459 0.89583,0.6458 1.32291,1.875 z"
           style="font-style:normal;font-variant:normal;font-weight:normal;font-stretch:normal;font-size:21.33329964px;font-family:sans-serif;-inkscape-font-specification:sans-serif;fill:#000000;fill-opacity:1"
           id="path1130"
           inkscape:connector-curvature="0" />
        <path
           d="m 437.25705,1084.3913 -2.85416,7.7396 h 5.71874 z m -1.1875,-2.0729 h 2.38542 l 5.92707,15.552 h -2.1875 l -1.41666,-3.9895 h -7.01041 l -1.41666,3.9895 h -2.21875 z"
           style="font-style:normal;font-variant:normal;font-weight:normal;font-stretch:normal;font-size:21.33329964px;font-family:sans-serif;-inkscape-font-specification:sans-serif;fill:#000000;fill-opacity:1"
           id="path1132"
           inkscape:connector-curvature="0" />
        <path
           d="m 454.59035,1086.6517 v 1.7917 q -0.81249,-0.448 -1.63541,-0.6667 -0.8125,-0.2292 -1.64583,-0.2292 -1.86458,0 -2.89583,1.1875 -1.03125,1.1771 -1.03125,3.3125 0,2.1354 1.03125,3.3229 1.03125,1.1771 2.89583,1.1771 0.83333,0 1.64583,-0.2187 0.82292,-0.2292 1.63541,-0.6771 v 1.7708 q -0.80208,0.375 -1.66666,0.5625 -0.85417,0.1875 -1.82291,0.1875 -2.63542,0 -4.1875,-1.6562 -1.55208,-1.6563 -1.55208,-4.4688 0,-2.8541 1.5625,-4.4896 1.57291,-1.6354 4.30208,-1.6354 0.88541,0 1.72916,0.1875 0.84375,0.1771 1.63541,0.5417 z m -2.70833,11.2187 q 0.57292,0.6459 0.85417,1.1875 0.28125,0.5521 0.28125,1.0521 0,0.9271 -0.625,1.3958 -0.625,0.4792 -1.85416,0.4792 -0.47917,0 -0.9375,-0.062 -0.44792,-0.062 -0.89583,-0.1875 v -1.3646 q 0.35416,0.1771 0.73958,0.25 0.38541,0.083 0.875,0.083 0.61458,0 0.92708,-0.25 0.3125,-0.25 0.3125,-0.7292 0,-0.3125 -0.22917,-0.7708 -0.21875,-0.448 -0.6875,-1.0834 z"
           style="font-style:normal;font-variant:normal;font-weight:normal;font-stretch:normal;font-size:21.33329964px;font-family:sans-serif;-inkscape-font-specification:sans-serif;fill:#000000;fill-opacity:1"
           id="path1134"
           inkscape:connector-curvature="0" />
        <path
           d="m 457.92368,1086.2038 h 1.91667 v 11.6666 h -1.91667 z m 0.95833,-0.2813 z"
           style="font-style:normal;font-variant:normal;font-weight:normal;font-stretch:normal;font-size:21.33329964px;font-family:sans-serif;-inkscape-font-specification:sans-serif;fill:#000000;fill-opacity:1"
           id="path1136"
           inkscape:connector-curvature="0" />
      </g>
      <path
         style="fill:#afafe9;fill-opacity:1;stroke:#000000;stroke-width:0.5;stroke-linecap:butt;stroke-linejoin:miter;stroke-miterlimit:4;stroke-dasharray:none;stroke-opacity:1"
         d="M 75.849801,67.430064 43.314246,86.261559 79.61716,76.419635 Z"
         id="path1053"
         sodipodi:nodetypes="cccc"
         inkscape:connector-curvature="0" />
      <g
         aria-label="Birim Açı"
         transform="matrix(-0.16579766,0.06562231,-0.06562231,-0.16579766,209.47883,229.41102)"
         style="font-style:normal;font-weight:normal;font-size:14.66670036px;line-height:0.25;font-family:sans-serif;letter-spacing:0px;word-spacing:0px;fill:#000000;fill-opacity:1;stroke:none"
         id="flowRoot1061">
        <path
           d="m 371.34049,1090.4434 v 5.6979 h 3.37499 q 1.69792,0 2.51042,-0.6979 0.82291,-0.7084 0.82291,-2.1563 0,-1.4583 -0.82291,-2.1458 -0.8125,-0.6979 -2.51042,-0.6979 z m 0,-6.3959 v 4.6875 h 3.11458 q 1.54166,0 2.29166,-0.5729 0.76042,-0.5833 0.76042,-1.7708 0,-1.1771 -0.76042,-1.7604 -0.75,-0.5834 -2.29166,-0.5834 z m -2.10417,-1.7291 h 5.375 q 2.40624,0 3.70832,1 1.30209,1 1.30209,2.8437 0,1.4271 -0.66667,2.2708 -0.66667,0.8438 -1.95833,1.0521 1.55208,0.3334 2.40625,1.3959 0.86458,1.052 0.86458,2.6354 0,2.0833 -1.41667,3.2187 -1.41666,1.1354 -4.03124,1.1354 h -5.58333 z"
           style="font-style:normal;font-variant:normal;font-weight:normal;font-stretch:normal;font-size:21.33329964px;font-family:sans-serif;-inkscape-font-specification:sans-serif;fill:#000000;fill-opacity:1"
           id="path1139"
           inkscape:connector-curvature="0" />
        <path
           d="m 383.78838,1086.2038 h 1.91667 v 11.6666 h -1.91667 z m 0,-4.5417 h 1.91667 v 2.4271 h -1.91667 z"
           style="font-style:normal;font-variant:normal;font-weight:normal;font-stretch:normal;font-size:21.33329964px;font-family:sans-serif;-inkscape-font-specification:sans-serif;fill:#000000;fill-opacity:1"
           id="path1141"
           inkscape:connector-curvature="0" />
        <path
           d="m 396.47587,1087.9954 q -0.32292,-0.1875 -0.70834,-0.2708 -0.375,-0.094 -0.83333,-0.094 -1.625,0 -2.5,1.0625 -0.86458,1.052 -0.86458,3.0312 v 6.1458 h -1.92708 v -11.6666 h 1.92708 v 1.8125 q 0.60417,-1.0625 1.57292,-1.5729 0.96875,-0.5209 2.35416,-0.5209 0.19792,0 0.4375,0.031 0.23958,0.021 0.53125,0.073 z"
           style="font-style:normal;font-variant:normal;font-weight:normal;font-stretch:normal;font-size:21.33329964px;font-family:sans-serif;-inkscape-font-specification:sans-serif;fill:#000000;fill-opacity:1"
           id="path1143"
           inkscape:connector-curvature="0" />
        <path
           d="m 398.48628,1086.2038 h 1.91666 v 11.6666 h -1.91666 z m 0,-4.5417 h 1.91666 v 2.4271 h -1.91666 z"
           style="font-style:normal;font-variant:normal;font-weight:normal;font-stretch:normal;font-size:21.33329964px;font-family:sans-serif;-inkscape-font-specification:sans-serif;fill:#000000;fill-opacity:1"
           id="path1145"
           inkscape:connector-curvature="0" />
        <path
           d="m 413.49667,1088.4434 q 0.71875,-1.2917 1.71875,-1.9063 1,-0.6146 2.35416,-0.6146 1.82292,0 2.8125,1.2813 0.98958,1.2708 0.98958,3.625 v 7.0416 h -1.92708 v -6.9791 q 0,-1.6771 -0.59375,-2.4896 -0.59375,-0.8125 -1.8125,-0.8125 -1.48958,0 -2.35416,0.9896 -0.86458,0.9896 -0.86458,2.6979 v 6.5937 h -1.92708 v -6.9791 q 0,-1.6875 -0.59375,-2.4896 -0.59375,-0.8125 -1.83333,-0.8125 -1.46875,0 -2.33333,1 -0.86458,0.9896 -0.86458,2.6875 v 6.5937 h -1.92708 v -11.6666 h 1.92708 v 1.8125 q 0.65625,-1.0729 1.57291,-1.5834 0.91667,-0.5104 2.17708,-0.5104 1.27083,0 2.15625,0.6459 0.89583,0.6458 1.32291,1.875 z"
           style="font-style:normal;font-variant:normal;font-weight:normal;font-stretch:normal;font-size:21.33329964px;font-family:sans-serif;-inkscape-font-specification:sans-serif;fill:#000000;fill-opacity:1"
           id="path1147"
           inkscape:connector-curvature="0" />
        <path
           d="m 437.25705,1084.3913 -2.85416,7.7396 h 5.71874 z m -1.1875,-2.0729 h 2.38542 l 5.92707,15.552 h -2.1875 l -1.41666,-3.9895 h -7.01041 l -1.41666,3.9895 h -2.21875 z"
           style="font-style:normal;font-variant:normal;font-weight:normal;font-stretch:normal;font-size:21.33329964px;font-family:sans-serif;-inkscape-font-specification:sans-serif;fill:#000000;fill-opacity:1"
           id="path1149"
           inkscape:connector-curvature="0" />
        <path
           d="m 454.59035,1086.6517 v 1.7917 q -0.81249,-0.448 -1.63541,-0.6667 -0.8125,-0.2292 -1.64583,-0.2292 -1.86458,0 -2.89583,1.1875 -1.03125,1.1771 -1.03125,3.3125 0,2.1354 1.03125,3.3229 1.03125,1.1771 2.89583,1.1771 0.83333,0 1.64583,-0.2187 0.82292,-0.2292 1.63541,-0.6771 v 1.7708 q -0.80208,0.375 -1.66666,0.5625 -0.85417,0.1875 -1.82291,0.1875 -2.63542,0 -4.1875,-1.6562 -1.55208,-1.6563 -1.55208,-4.4688 0,-2.8541 1.5625,-4.4896 1.57291,-1.6354 4.30208,-1.6354 0.88541,0 1.72916,0.1875 0.84375,0.1771 1.63541,0.5417 z m -2.70833,11.2187 q 0.57292,0.6459 0.85417,1.1875 0.28125,0.5521 0.28125,1.0521 0,0.9271 -0.625,1.3958 -0.625,0.4792 -1.85416,0.4792 -0.47917,0 -0.9375,-0.062 -0.44792,-0.062 -0.89583,-0.1875 v -1.3646 q 0.35416,0.1771 0.73958,0.25 0.38541,0.083 0.875,0.083 0.61458,0 0.92708,-0.25 0.3125,-0.25 0.3125,-0.7292 0,-0.3125 -0.22917,-0.7708 -0.21875,-0.448 -0.6875,-1.0834 z"
           style="font-style:normal;font-variant:normal;font-weight:normal;font-stretch:normal;font-size:21.33329964px;font-family:sans-serif;-inkscape-font-specification:sans-serif;fill:#000000;fill-opacity:1"
           id="path1151"
           inkscape:connector-curvature="0" />
        <path
           d="m 457.92368,1086.2038 h 1.91667 v 11.6666 h -1.91667 z m 0.95833,-0.2813 z"
           style="font-style:normal;font-variant:normal;font-weight:normal;font-stretch:normal;font-size:21.33329964px;font-family:sans-serif;-inkscape-font-specification:sans-serif;fill:#000000;fill-opacity:1"
           id="path1153"
           inkscape:connector-curvature="0" />
      </g>
      <path
         style="fill:#c6afe9;fill-opacity:1;stroke:#000000;stroke-width:0.5;stroke-linecap:butt;stroke-linejoin:miter;stroke-miterlimit:4;stroke-dasharray:none;stroke-opacity:1"
         d="M 79.619202,76.526976 43.318319,86.295983 80.931518,86.1853 Z"
         id="path1065"
         sodipodi:nodetypes="cccc"
         inkscape:connector-curvature="0" />
      <g
         aria-label="Birim Açı"
         transform="matrix(-0.17713254,0.02047469,-0.02047469,-0.17713254,166.77118,267.5743)"
         style="font-style:normal;font-weight:normal;font-size:14.66670036px;line-height:0.25;font-family:sans-serif;letter-spacing:0px;word-spacing:0px;fill:#000000;fill-opacity:1;stroke:none"
         id="flowRoot1073">
        <path
           d="m 371.34049,1090.4434 v 5.6979 h 3.37499 q 1.69792,0 2.51042,-0.6979 0.82291,-0.7084 0.82291,-2.1563 0,-1.4583 -0.82291,-2.1458 -0.8125,-0.6979 -2.51042,-0.6979 z m 0,-6.3959 v 4.6875 h 3.11458 q 1.54166,0 2.29166,-0.5729 0.76042,-0.5833 0.76042,-1.7708 0,-1.1771 -0.76042,-1.7604 -0.75,-0.5834 -2.29166,-0.5834 z m -2.10417,-1.7291 h 5.375 q 2.40624,0 3.70832,1 1.30209,1 1.30209,2.8437 0,1.4271 -0.66667,2.2708 -0.66667,0.8438 -1.95833,1.0521 1.55208,0.3334 2.40625,1.3959 0.86458,1.052 0.86458,2.6354 0,2.0833 -1.41667,3.2187 -1.41666,1.1354 -4.03124,1.1354 h -5.58333 z"
           style="font-style:normal;font-variant:normal;font-weight:normal;font-stretch:normal;font-size:21.33329964px;font-family:sans-serif;-inkscape-font-specification:sans-serif;fill:#000000;fill-opacity:1"
           id="path1156"
           inkscape:connector-curvature="0" />
        <path
           d="m 383.78838,1086.2038 h 1.91667 v 11.6666 h -1.91667 z m 0,-4.5417 h 1.91667 v 2.4271 h -1.91667 z"
           style="font-style:normal;font-variant:normal;font-weight:normal;font-stretch:normal;font-size:21.33329964px;font-family:sans-serif;-inkscape-font-specification:sans-serif;fill:#000000;fill-opacity:1"
           id="path1158"
           inkscape:connector-curvature="0" />
        <path
           d="m 396.47587,1087.9954 q -0.32292,-0.1875 -0.70834,-0.2708 -0.375,-0.094 -0.83333,-0.094 -1.625,0 -2.5,1.0625 -0.86458,1.052 -0.86458,3.0312 v 6.1458 h -1.92708 v -11.6666 h 1.92708 v 1.8125 q 0.60417,-1.0625 1.57292,-1.5729 0.96875,-0.5209 2.35416,-0.5209 0.19792,0 0.4375,0.031 0.23958,0.021 0.53125,0.073 z"
           style="font-style:normal;font-variant:normal;font-weight:normal;font-stretch:normal;font-size:21.33329964px;font-family:sans-serif;-inkscape-font-specification:sans-serif;fill:#000000;fill-opacity:1"
           id="path1160"
           inkscape:connector-curvature="0" />
        <path
           d="m 398.48628,1086.2038 h 1.91666 v 11.6666 h -1.91666 z m 0,-4.5417 h 1.91666 v 2.4271 h -1.91666 z"
           style="font-style:normal;font-variant:normal;font-weight:normal;font-stretch:normal;font-size:21.33329964px;font-family:sans-serif;-inkscape-font-specification:sans-serif;fill:#000000;fill-opacity:1"
           id="path1162"
           inkscape:connector-curvature="0" />
        <path
           d="m 413.49667,1088.4434 q 0.71875,-1.2917 1.71875,-1.9063 1,-0.6146 2.35416,-0.6146 1.82292,0 2.8125,1.2813 0.98958,1.2708 0.98958,3.625 v 7.0416 h -1.92708 v -6.9791 q 0,-1.6771 -0.59375,-2.4896 -0.59375,-0.8125 -1.8125,-0.8125 -1.48958,0 -2.35416,0.9896 -0.86458,0.9896 -0.86458,2.6979 v 6.5937 h -1.92708 v -6.9791 q 0,-1.6875 -0.59375,-2.4896 -0.59375,-0.8125 -1.83333,-0.8125 -1.46875,0 -2.33333,1 -0.86458,0.9896 -0.86458,2.6875 v 6.5937 h -1.92708 v -11.6666 h 1.92708 v 1.8125 q 0.65625,-1.0729 1.57291,-1.5834 0.91667,-0.5104 2.17708,-0.5104 1.27083,0 2.15625,0.6459 0.89583,0.6458 1.32291,1.875 z"
           style="font-style:normal;font-variant:normal;font-weight:normal;font-stretch:normal;font-size:21.33329964px;font-family:sans-serif;-inkscape-font-specification:sans-serif;fill:#000000;fill-opacity:1"
           id="path1164"
           inkscape:connector-curvature="0" />
        <path
           d="m 437.25705,1084.3913 -2.85416,7.7396 h 5.71874 z m -1.1875,-2.0729 h 2.38542 l 5.92707,15.552 h -2.1875 l -1.41666,-3.9895 h -7.01041 l -1.41666,3.9895 h -2.21875 z"
           style="font-style:normal;font-variant:normal;font-weight:normal;font-stretch:normal;font-size:21.33329964px;font-family:sans-serif;-inkscape-font-specification:sans-serif;fill:#000000;fill-opacity:1"
           id="path1166"
           inkscape:connector-curvature="0" />
        <path
           d="m 454.59035,1086.6517 v 1.7917 q -0.81249,-0.448 -1.63541,-0.6667 -0.8125,-0.2292 -1.64583,-0.2292 -1.86458,0 -2.89583,1.1875 -1.03125,1.1771 -1.03125,3.3125 0,2.1354 1.03125,3.3229 1.03125,1.1771 2.89583,1.1771 0.83333,0 1.64583,-0.2187 0.82292,-0.2292 1.63541,-0.6771 v 1.7708 q -0.80208,0.375 -1.66666,0.5625 -0.85417,0.1875 -1.82291,0.1875 -2.63542,0 -4.1875,-1.6562 -1.55208,-1.6563 -1.55208,-4.4688 0,-2.8541 1.5625,-4.4896 1.57291,-1.6354 4.30208,-1.6354 0.88541,0 1.72916,0.1875 0.84375,0.1771 1.63541,0.5417 z m -2.70833,11.2187 q 0.57292,0.6459 0.85417,1.1875 0.28125,0.5521 0.28125,1.0521 0,0.9271 -0.625,1.3958 -0.625,0.4792 -1.85416,0.4792 -0.47917,0 -0.9375,-0.062 -0.44792,-0.062 -0.89583,-0.1875 v -1.3646 q 0.35416,0.1771 0.73958,0.25 0.38541,0.083 0.875,0.083 0.61458,0 0.92708,-0.25 0.3125,-0.25 0.3125,-0.7292 0,-0.3125 -0.22917,-0.7708 -0.21875,-0.448 -0.6875,-1.0834 z"
           style="font-style:normal;font-variant:normal;font-weight:normal;font-stretch:normal;font-size:21.33329964px;font-family:sans-serif;-inkscape-font-specification:sans-serif;fill:#000000;fill-opacity:1"
           id="path1168"
           inkscape:connector-curvature="0" />
        <path
           d="m 457.92368,1086.2038 h 1.91667 v 11.6666 h -1.91667 z m 0.95833,-0.2813 z"
           style="font-style:normal;font-variant:normal;font-weight:normal;font-stretch:normal;font-size:21.33329964px;font-family:sans-serif;-inkscape-font-specification:sans-serif;fill:#000000;fill-opacity:1"
           id="path1170"
           inkscape:connector-curvature="0" />
      </g>
      <path
         inkscape:connector-curvature="0"
         id="path877"
         d="m 73.854122,214.27177 8.720747,32.54631 8.776944,-32.756"
         style="fill:none;stroke:#000000;stroke-width:0.5;stroke-linecap:butt;stroke-linejoin:miter;stroke-miterlimit:4;stroke-dasharray:none;stroke-opacity:1" />
      <path
         inkscape:connector-curvature="0"
         id="path879"
         d="m 110.39614,61.756873 v 33.27967 l 24.23535,-24.235341"
         style="fill:none;stroke:#000000;stroke-width:0.5;stroke-linecap:butt;stroke-linejoin:miter;stroke-miterlimit:4;stroke-dasharray:none;stroke-opacity:1" />
      <path
         inkscape:connector-curvature="0"
         sodipodi:nodetypes="ccc"
         id="path881"
         d="M 44.415842,241.94014 H 10.41375 l 17.147811,-29.70091"
         style="fill:none;stroke:#000000;stroke-width:0.5;stroke-linecap:butt;stroke-linejoin:miter;stroke-miterlimit:4;stroke-dasharray:none;stroke-opacity:1" />
      <path
         inkscape:connector-curvature="0"
         sodipodi:nodetypes="cc"
         id="path901"
         d="m 104.7932,117.64755 h 89.48224"
         style="fill:none;stroke:#000000;stroke-width:0.5;stroke-linecap:butt;stroke-linejoin:miter;stroke-miterlimit:4;stroke-dasharray:none;stroke-opacity:1" />
      <path
         inkscape:connector-curvature="0"
         id="path905"
         d="m 104.7932,295.98657 h 44.3381 l 33.58808,-19.39209"
         style="fill:none;stroke:#000000;stroke-width:0.5;stroke-linecap:butt;stroke-linejoin:miter;stroke-miterlimit:4;stroke-dasharray:none;stroke-opacity:1" />
      <path
         inkscape:connector-curvature="0"
         id="path907"
         d="m 7.1031523,281.46548 35.3587067,9.57795 32.859178,-18.97124"
         style="fill:none;stroke:#000000;stroke-width:0.5;stroke-linecap:butt;stroke-linejoin:miter;stroke-miterlimit:4;stroke-dasharray:none;stroke-opacity:1" />
      <path
         inkscape:connector-curvature="0"
         id="path909"
         d="m 17.248852,187.36516 40.882604,0.11131 18.54342,-32.11815"
         style="fill:none;stroke:#000000;stroke-width:0.5;stroke-linecap:butt;stroke-linejoin:miter;stroke-miterlimit:4;stroke-dasharray:none;stroke-opacity:1" />
      <path
         inkscape:connector-curvature="0"
         id="path911"
         d="m 153.27337,169.19579 -45.24717,-0.0675 -9.7177,-36.26695"
         style="fill:none;stroke:#000000;stroke-width:0.5;stroke-linecap:butt;stroke-linejoin:miter;stroke-miterlimit:4;stroke-dasharray:none;stroke-opacity:1" />
      <path
         inkscape:connector-curvature="0"
         id="path913"
         d="m 180.65443,234.46435 -29.88869,17.1292 -33.14875,-19.13844"
         style="fill:none;stroke:#000000;stroke-width:0.5;stroke-linecap:butt;stroke-linejoin:miter;stroke-miterlimit:4;stroke-dasharray:none;stroke-opacity:1" />
      <path
         inkscape:connector-curvature="0"
         id="path915"
         d="m 109.63376,64.261829 0.76238,-2.504956 0.70183,2.467833"
         style="fill:none;stroke:#000000;stroke-width:0.5;stroke-linecap:round;stroke-linejoin:round;stroke-miterlimit:4;stroke-dasharray:none;stroke-opacity:1" />
      <path
         inkscape:connector-curvature="0"
         id="path917"
         d="m 132.68139,71.698472 2.33917,-1.176573 -1.30201,2.210777"
         style="fill:none;stroke:#000000;stroke-width:0.5;stroke-linecap:round;stroke-linejoin:round;stroke-miterlimit:4;stroke-dasharray:none;stroke-opacity:1" />
      <path
         inkscape:connector-curvature="0"
         id="path923"
         d="m 106.56918,118.40993 -2.50496,-0.76238 2.46784,-0.70183"
         style="fill:none;stroke:#000000;stroke-width:0.5;stroke-linecap:round;stroke-linejoin:round;stroke-miterlimit:4;stroke-dasharray:none;stroke-opacity:1" />
      <path
         inkscape:connector-curvature="0"
         id="path925"
         d="m 192.59548,118.40993 2.50496,-0.76238 -2.46784,-0.70183"
         style="fill:none;stroke:#000000;stroke-width:0.5;stroke-linecap:round;stroke-linejoin:round;stroke-miterlimit:4;stroke-dasharray:none;stroke-opacity:1" />
      <path
         inkscape:connector-curvature="0"
         id="path927"
         d="m 18.908064,188.11585 -2.504957,-0.76238 2.467837,-0.70183"
         style="fill:none;stroke:#000000;stroke-width:0.5;stroke-linecap:round;stroke-linejoin:round;stroke-miterlimit:4;stroke-dasharray:none;stroke-opacity:1" />
      <path
         inkscape:connector-curvature="0"
         id="path931"
         d="m 151.64865,169.93686 2.50496,-0.76238 -2.46784,-0.70183"
         style="fill:none;stroke:#000000;stroke-width:0.5;stroke-linecap:round;stroke-linejoin:round;stroke-miterlimit:4;stroke-dasharray:none;stroke-opacity:1" />
      <path
         inkscape:connector-curvature="0"
         id="path933"
         d="m 42.765047,242.67916 2.50496,-0.76238 -2.46784,-0.70183"
         style="fill:none;stroke:#000000;stroke-width:0.5;stroke-linecap:round;stroke-linejoin:round;stroke-miterlimit:4;stroke-dasharray:none;stroke-opacity:1" />
      <path
         inkscape:connector-curvature="0"
         id="path935"
         d="m 106.49819,296.74895 -2.50496,-0.76238 2.46784,-0.70183"
         style="fill:none;stroke:#000000;stroke-width:0.5;stroke-linecap:round;stroke-linejoin:round;stroke-miterlimit:4;stroke-dasharray:none;stroke-opacity:1" />
      <g
         transform="matrix(1,0,0,-1,-2.9416763,230.00555)"
         id="g966">
        <path
           inkscape:connector-curvature="0"
           id="path885"
           d="M 12.27419,88.391449 44.751336,120.86859 80.15834,85.461589"
           style="fill:none;stroke:#000000;stroke-width:0.5;stroke-linecap:butt;stroke-linejoin:miter;stroke-miterlimit:4;stroke-dasharray:none;stroke-opacity:1" />
        <path
           inkscape:connector-curvature="0"
           id="path937"
           d="m 78.474898,86.075042 2.339167,-1.176573 -1.302008,2.210777"
           style="fill:none;stroke:#000000;stroke-width:0.5;stroke-linecap:round;stroke-linejoin:round;stroke-miterlimit:4;stroke-dasharray:none;stroke-opacity:1" />
        <path
           inkscape:connector-curvature="0"
           id="path939"
           d="m 13.969668,88.99695 -2.339166,-1.176573 1.302008,2.210777"
           style="fill:none;stroke:#000000;stroke-width:0.5;stroke-linecap:round;stroke-linejoin:round;stroke-miterlimit:4;stroke-dasharray:none;stroke-opacity:1" />
      </g>
      <path
         inkscape:connector-curvature="0"
         id="path941"
         d="m 99.45216,134.22224 -1.41092,-2.20575 -0.009,2.56568"
         style="fill:none;stroke:#000000;stroke-width:0.5;stroke-linecap:round;stroke-linejoin:round;stroke-miterlimit:4;stroke-dasharray:none;stroke-opacity:1" />
      <path
         inkscape:connector-curvature="0"
         id="path943"
         d="m 75.217131,156.41524 1.860801,-1.84214 -0.554559,2.50505"
         style="fill:none;stroke:#000000;stroke-width:0.5;stroke-linecap:round;stroke-linejoin:round;stroke-miterlimit:4;stroke-dasharray:none;stroke-opacity:1" />
      <g
         transform="matrix(1,0,0,-1,-5.5875097,375.0243)"
         id="g971">
        <path
           inkscape:connector-curvature="0"
           id="path903"
           d="m 115.39517,178.75427 39.32364,-0.036 40.06614,-10.73569"
           style="fill:none;stroke:#000000;stroke-width:0.5;stroke-linecap:butt;stroke-linejoin:miter;stroke-miterlimit:4;stroke-dasharray:none;stroke-opacity:1" />
        <path
           inkscape:connector-curvature="0"
           id="path929"
           d="m 117.09197,179.47399 -2.50496,-0.76238 2.46784,-0.70183"
           style="fill:none;stroke:#000000;stroke-width:0.5;stroke-linecap:round;stroke-linejoin:round;stroke-miterlimit:4;stroke-dasharray:none;stroke-opacity:1" />
        <path
           inkscape:connector-curvature="0"
           id="path945"
           d="m 193.29381,169.14872 2.28027,-1.287 -2.56127,-0.15047"
           style="fill:none;stroke:#000000;stroke-width:0.5;stroke-linecap:round;stroke-linejoin:round;stroke-miterlimit:4;stroke-dasharray:none;stroke-opacity:1" />
      </g>
      <path
         inkscape:connector-curvature="0"
         id="path947"
         d="m 26.09955,213.30944 1.860801,-1.84214 -0.554559,2.50505"
         style="fill:none;stroke:#000000;stroke-width:0.5;stroke-linecap:round;stroke-linejoin:round;stroke-miterlimit:4;stroke-dasharray:none;stroke-opacity:1" />
      <path
         inkscape:connector-curvature="0"
         id="path949"
         d="m 90.201823,215.4728 1.37799,-2.22646 0.0471,2.56526"
         style="fill:none;stroke:#000000;stroke-width:0.5;stroke-linecap:round;stroke-linejoin:round;stroke-miterlimit:4;stroke-dasharray:none;stroke-opacity:1" />
      <path
         inkscape:connector-curvature="0"
         id="path951"
         d="m 75.004679,215.66593 -1.37799,-2.22646 -0.0471,2.56526"
         style="fill:none;stroke:#000000;stroke-width:0.5;stroke-linecap:round;stroke-linejoin:round;stroke-miterlimit:4;stroke-dasharray:none;stroke-opacity:1" />
      <path
         inkscape:connector-curvature="0"
         id="path953"
         d="m 178.68126,234.7337 2.54898,-0.59888 -1.78139,1.84647"
         style="fill:none;stroke:#000000;stroke-width:0.5;stroke-linecap:round;stroke-linejoin:round;stroke-miterlimit:4;stroke-dasharray:none;stroke-opacity:1" />
      <path
         inkscape:connector-curvature="0"
         id="path955"
         d="m 119.38663,232.64638 -2.54898,-0.59888 1.78139,1.84647"
         style="fill:none;stroke:#000000;stroke-width:0.5;stroke-linecap:round;stroke-linejoin:round;stroke-miterlimit:4;stroke-dasharray:none;stroke-opacity:1" />
      <path
         inkscape:connector-curvature="0"
         id="path957"
         d="m 180.88751,276.8217 2.54898,-0.59888 -1.78139,1.84647"
         style="fill:none;stroke:#000000;stroke-width:0.5;stroke-linecap:round;stroke-linejoin:round;stroke-miterlimit:4;stroke-dasharray:none;stroke-opacity:1" />
      <path
         inkscape:connector-curvature="0"
         id="path959"
         d="m 73.467619,272.30096 2.54898,-0.59888 -1.78139,1.84647"
         style="fill:none;stroke:#000000;stroke-width:0.5;stroke-linecap:round;stroke-linejoin:round;stroke-miterlimit:4;stroke-dasharray:none;stroke-opacity:1" />
      <path
         inkscape:connector-curvature="0"
         id="path961"
         d="m 8.8392603,281.22405 -2.617751,-0.0577 2.125324,1.43729"
         style="fill:none;stroke:#000000;stroke-width:0.5;stroke-linecap:round;stroke-linejoin:round;stroke-miterlimit:4;stroke-dasharray:none;stroke-opacity:1" />
      <path
         id="path973"
         d="m 111.18392,95.087379 a 0.75,0.75 0 0 1 -0.75,0.75 0.75,0.75 0 0 1 -0.75,-0.75 0.75,0.75 0 0 1 0.75,-0.75 0.75,0.75 0 0 1 0.75,0.75 z"
         style="fill:#000000;fill-opacity:1;stroke-width:0.74999797;stroke-linecap:round;stroke-linejoin:round;stroke-miterlimit:4;stroke-dasharray:none" />
      <g
         transform="matrix(-1,0,0,1,335.02347,15.668219)"
         id="g1001">
        <path
           inkscape:connector-curvature="0"
           id="path883"
           d="m 142.94152,39.233271 9.44427,35.246505 34.27527,-19.788833"
           style="fill:none;stroke:#000000;stroke-width:0.5;stroke-linecap:butt;stroke-linejoin:miter;stroke-miterlimit:4;stroke-dasharray:none;stroke-opacity:1" />
        <path
           inkscape:connector-curvature="0"
           id="path919"
           d="m 184.83905,54.93308 2.52271,-0.701411 -1.70541,1.916855"
           style="fill:none;stroke:#000000;stroke-width:0.5;stroke-linecap:round;stroke-linejoin:round;stroke-miterlimit:4;stroke-dasharray:none;stroke-opacity:1" />
        <path
           inkscape:connector-curvature="0"
           id="path921"
           d="m 142.66593,41.020265 0.0614,-2.617683 1.339,2.188573"
           style="fill:none;stroke:#000000;stroke-width:0.5;stroke-linecap:round;stroke-linejoin:round;stroke-miterlimit:4;stroke-dasharray:none;stroke-opacity:1" />
        <path
           id="circle975"
           d="m 153.18292,74.447426 a 0.75,0.75 0 0 1 -0.75,0.75 0.75,0.75 0 0 1 -0.75,-0.75 0.75,0.75 0 0 1 0.75,-0.75 0.75,0.75 0 0 1 0.75,0.75 z"
           style="fill:#000000;fill-opacity:1;stroke-width:0.74999797;stroke-linecap:round;stroke-linejoin:round;stroke-miterlimit:4;stroke-dasharray:none" />
      </g>
      <path
         id="circle977"
         d="m 151.29953,117.6323 a 0.75,0.75 0 0 1 -0.75,0.75 0.75,0.75 0 0 1 -0.75,-0.75 0.75,0.75 0 0 1 0.75,-0.75 0.75,0.75 0 0 1 0.75,0.75 z"
         style="fill:#000000;fill-opacity:1;stroke-width:0.74999797;stroke-linecap:round;stroke-linejoin:round;stroke-miterlimit:4;stroke-dasharray:none" />
      <path
         id="circle979"
         d="m 42.595352,109.26935 a 0.75,0.75 0 0 1 -0.75,0.75 0.75,0.75 0 0 1 -0.75,-0.75 0.75,0.75 0 0 1 0.75,-0.75 0.75,0.75 0 0 1 0.75,0.75 z"
         style="fill:#000000;fill-opacity:1;stroke-width:0.74999797;stroke-linecap:round;stroke-linejoin:round;stroke-miterlimit:4;stroke-dasharray:none" />
      <path
         id="circle981"
         d="m 58.934826,187.4157 a 0.75,0.75 0 0 1 -0.75,0.75 0.75,0.75 0 0 1 -0.75,-0.75 0.75,0.75 0 0 1 0.75,-0.75 0.75,0.75 0 0 1 0.75,0.75 z"
         style="fill:#000000;fill-opacity:1;stroke-width:0.74999797;stroke-linecap:round;stroke-linejoin:round;stroke-miterlimit:4;stroke-dasharray:none" />
      <path
         id="circle983"
         d="m 108.68343,169.17187 a 0.75,0.75 0 0 1 -0.75,0.75 0.75,0.75 0 0 1 -0.75,-0.75 0.75,0.75 0 0 1 0.75,-0.75 0.75,0.75 0 0 1 0.75,0.75 z"
         style="fill:#000000;fill-opacity:1;stroke-width:0.74999797;stroke-linecap:round;stroke-linejoin:round;stroke-miterlimit:4;stroke-dasharray:none" />
      <path
         id="circle985"
         d="m 150.08315,196.35098 a 0.75,0.75 0 0 1 -0.75,0.75 0.75,0.75 0 0 1 -0.75,-0.75 0.75,0.75 0 0 1 0.75,-0.75 0.75,0.75 0 0 1 0.75,0.75 z"
         style="fill:#000000;fill-opacity:1;stroke-width:0.74999797;stroke-linecap:round;stroke-linejoin:round;stroke-miterlimit:4;stroke-dasharray:none" />
      <path
         id="circle987"
         d="m 151.41557,251.46324 a 0.75,0.75 0 0 1 -0.75,0.75 0.75,0.75 0 0 1 -0.75,-0.75 0.75,0.75 0 0 1 0.75,-0.75 0.75,0.75 0 0 1 0.75,0.75 z"
         style="fill:#000000;fill-opacity:1;stroke-width:0.74999797;stroke-linecap:round;stroke-linejoin:round;stroke-miterlimit:4;stroke-dasharray:none" />
      <path
         id="circle989"
         d="m 83.327507,247.03703 a 0.75,0.75 0 0 1 -0.75,0.75 0.75,0.75 0 0 1 -0.75,-0.75 0.75,0.75 0 0 1 0.75,-0.75 0.75,0.75 0 0 1 0.75,0.75 z"
         style="fill:#000000;fill-opacity:1;stroke-width:0.74999797;stroke-linecap:round;stroke-linejoin:round;stroke-miterlimit:4;stroke-dasharray:none" />
      <path
         id="circle991"
         d="m 11.276895,241.87123 a 0.75,0.75 0 0 1 -0.75,0.75 0.75,0.75 0 0 1 -0.7500004,-0.75 0.75,0.75 0 0 1 0.7500004,-0.75 0.75,0.75 0 0 1 0.75,0.75 z"
         style="fill:#000000;fill-opacity:1;stroke-width:0.74999797;stroke-linecap:round;stroke-linejoin:round;stroke-miterlimit:4;stroke-dasharray:none" />
      <path
         id="circle993"
         d="m 43.087337,290.99582 a 0.75,0.75 0 0 1 -0.75,0.75 0.75,0.75 0 0 1 -0.75,-0.75 0.75,0.75 0 0 1 0.75,-0.75 0.75,0.75 0 0 1 0.75,0.75 z"
         style="fill:#000000;fill-opacity:1;stroke-width:0.74999797;stroke-linecap:round;stroke-linejoin:round;stroke-miterlimit:4;stroke-dasharray:none" />
      <path
         id="circle995"
         d="m 149.94853,296.0538 a 0.75,0.75 0 0 1 -0.75,0.75 0.75,0.75 0 0 1 -0.75,-0.75 0.75,0.75 0 0 1 0.75,-0.75 0.75,0.75 0 0 1 0.75,0.75 z"
         style="fill:#000000;fill-opacity:1;stroke-width:0.74999797;stroke-linecap:round;stroke-linejoin:round;stroke-miterlimit:4;stroke-dasharray:none" />
      <g
         transform="matrix(-1,0,0,1,203.94524,52.025571)"
         id="g965">
        <path
           style="fill:none;stroke:#000000;stroke-width:0.5;stroke-linecap:butt;stroke-linejoin:miter;stroke-miterlimit:4;stroke-dasharray:2, 2;stroke-dashoffset:0;stroke-opacity:1"
           d="m 111.81638,-5.5052375 -0.0335,49.7302395 88.71133,-1e-6"
           id="path143"
           inkscape:connector-curvature="0"
           sodipodi:nodetypes="ccc" />
        <path
           style="fill:#000000;stroke-width:0.0158588"
           d="m 203.93575,46.28791 c -0.0947,0.596509 -0.57195,1.029433 -1.16657,1.0582 -0.37578,0.01818 -0.69181,-0.105696 -0.94401,-0.370028 -0.19003,-0.199182 -0.32989,-0.465543 -0.49042,-0.933993 -0.0538,-0.157002 -0.13444,-0.355759 -0.1792,-0.44168 -0.14551,-0.27933 -0.40812,-0.517253 -0.7734,-0.700706 l -0.13739,-0.069 -1.48889,0.617951 c -0.81888,0.339873 -1.56095,0.642792 -1.64904,0.673154 -0.2158,0.07438 -0.45334,0.109571 -0.59319,0.08787 -0.20536,-0.03186 -0.31925,-0.09371 -0.45686,-0.248114 -0.0742,-0.08326 -0.20916,-0.317148 -0.20916,-0.362506 0,-0.01203 0.89393,-0.390503 2.19248,-0.928258 1.20587,-0.499372 2.26699,-0.946918 2.35804,-0.994546 0.32437,-0.169674 0.5511,-0.358305 0.69144,-0.575244 0.0946,-0.146171 0.13324,-0.235226 0.2483,-0.571652 0.15753,-0.460592 0.29814,-0.727805 0.48729,-0.926064 0.2522,-0.264331 0.56823,-0.388208 0.94401,-0.370028 0.53455,0.02586 0.97281,0.372321 1.12796,0.891692 0.036,0.120641 0.0426,0.17218 0.0425,0.333036 -2.4e-4,0.356319 -0.11254,0.634767 -0.35539,0.881422 -0.18014,0.182957 -0.18842,0.187044 -1.36533,0.673692 -0.35544,0.146972 -0.64625,0.271434 -0.64625,0.276581 0,0.0051 0.29081,0.129609 0.64625,0.276581 0.96767,0.40013 1.04944,0.43593 1.16504,0.510099 0.18555,0.119043 0.35694,0.317025 0.44954,0.519276 0.0871,0.190201 0.13281,0.499809 0.10226,0.692267 z m -0.49974,-0.317186 c -0.0167,-0.125692 -0.10668,-0.286267 -0.21952,-0.391828 -0.15225,-0.142422 -0.31705,-0.210431 -0.50992,-0.210431 -0.27905,0 -0.54193,0.165424 -0.66725,0.419882 -0.24949,0.506626 0.15042,1.105295 0.71252,1.066638 0.27333,-0.0188 0.50326,-0.173909 0.62258,-0.419998 0.0339,-0.06985 0.0604,-0.153433 0.0679,-0.214094 0.0122,-0.09896 0.0119,-0.113787 -0.006,-0.250169 z m 0,-3.647533 c -0.0302,-0.227031 -0.2437,-0.474856 -0.48093,-0.558237 -0.62362,-0.219185 -1.20706,0.434547 -0.91576,1.026073 0.23006,0.467143 0.83955,0.562887 1.19918,0.188374 0.11236,-0.117007 0.18625,-0.265021 0.20408,-0.408769 0.0119,-0.09627 0.0115,-0.111209 -0.007,-0.247441 z m -2.94175,1.90181 c 0,-0.04943 -0.10717,-0.15508 -0.17616,-0.173657 -0.18263,-0.04918 -0.3545,0.124825 -0.30068,0.30443 0.0557,0.185797 0.27734,0.240817 0.4117,0.102187 0.0508,-0.05246 0.0844,-0.137734 0.0714,-0.181465 -0.003,-0.01162 -0.006,-0.03479 -0.006,-0.05149 z m -1.42308,-0.421785 -0.6443,0.266825 -1.28963,-0.534691 c -0.75991,-0.315066 -1.28963,-0.543039 -1.28963,-0.555015 0,-0.04537 0.13493,-0.279245 0.20916,-0.362522 0.13761,-0.154404 0.2515,-0.216252 0.45686,-0.248114 0.13335,-0.02069 0.3692,0.0119 0.56769,0.07845 0.13156,0.04411 2.60003,1.059416 2.62311,1.078909 0.006,0.0051 -0.27889,0.129403 -0.63326,0.276156 z"
           id="path961-3"
           inkscape:connector-curvature="0" />
      </g>
    </g>
  </g>
</svg>
