<?xml version="1.0" encoding="UTF-8" standalone="no"?>
<!-- Created with Inkscape (http://www.inkscape.org/) -->

<svg
   width="48"
   height="48"
   viewBox="0 0 12.7 12.7"
   version="1.1"
   id="svg1"
   inkscape:version="1.4 (e7c3feb100, 2024-10-09)"
   sodipodi:docname="f_screen_r.svg"
   xmlns:inkscape="http://www.inkscape.org/namespaces/inkscape"
   xmlns:sodipodi="http://sodipodi.sourceforge.net/DTD/sodipodi-0.dtd"
   xmlns="http://www.w3.org/2000/svg"
   xmlns:svg="http://www.w3.org/2000/svg">
  <sodipodi:namedview
     id="namedview1"
     pagecolor="#ffffff"
     bordercolor="#000000"
     borderopacity="0.25"
     inkscape:showpageshadow="2"
     inkscape:pageopacity="0.0"
     inkscape:pagecheckerboard="0"
     inkscape:deskcolor="#d1d1d1"
     inkscape:document-units="mm"
     inkscape:zoom="4.8317769"
     inkscape:cx="128.93807"
     inkscape:cy="3.3114112"
     inkscape:window-width="1870"
     inkscape:window-height="1054"
     inkscape:window-x="0"
     inkscape:window-y="0"
     inkscape:window-maximized="1"
     inkscape:current-layer="layer1" />
  <defs
     id="defs1" />
  <g
     inkscape:label="Katman 1"
     inkscape:groupmode="layer"
     id="layer1">
    <path
       style="fill:#ffe680;stroke:#000000;stroke-width:0.411824;stroke-dasharray:none"
       d="m 1.763806,5.4561478 c 1.056236,0 2.112659,0 3.16871,0 0.281982,0 0.524038,-0.231855 0.524038,-0.516572 -1.87e-4,-1.056052 -3.17e-4,-2.112288 -3.17e-4,-3.16834 -1.87e-4,-0.671775 -1.040796,-0.677665 -1.040796,-0.0075 1.87e-4,0.638852 1.87e-4,1.277519 1.87e-4,1.916325 -0.748241,-0.748242 -1.496714,-1.496669 -2.244956,-2.24477 -0.474096,-0.47409708 -1.20726598,0.264453 -0.731964,0.739755 0.747035,0.747035 1.493932,1.493746 2.240782,2.240596 -0.63607,0 -1.27228,0 -1.908349,0 -0.671683,-3.17e-4 -0.677572,1.040471 -0.0073,1.040471 z"
       id="path1" />
    <path
       style="fill:#ffe680;stroke:#000000;stroke-width:0.411824;stroke-dasharray:none"
       d="m 8.2842432,10.936021 c -1.87e-4,-0.638852 -1.87e-4,-1.2773329 -1.87e-4,-1.9161849 0.7482417,0.748241 1.4966677,1.4966669 2.2449558,2.2449549 0.474096,0.474096 1.207267,-0.264268 0.731965,-0.739755 C 10.513941,9.7780001 9.7672299,9.0312891 9.0201949,8.2842543 c 0.636255,0 1.2722791,-1.87e-4 1.9083491,-1.87e-4 0.671775,-1.87e-4 0.677664,-1.040795 0.0075,-1.040795 -1.0562361,1.86e-4 -2.1126591,3.22e-4 -3.1687098,3.22e-4 -0.281982,1.87e-4 -0.524038,0.231855 -0.524038,0.516572 1.87e-4,1.0560518 3.23e-4,2.1121028 3.23e-4,3.1682007 0,0.671961 1.040656,0.67785 1.040656,0.0077 z"
       id="path2" />
    <path
       style="fill:#ffe680;stroke:#000000;stroke-width:0.411824;stroke-dasharray:none"
       d="m 10.936236,4.4153383 c -0.638852,1.87e-4 -1.2773333,1.87e-4 -1.9161853,1.87e-4 0.748241,-0.748102 1.4966673,-1.496529 2.2449553,-2.244585 0.474096,-0.474096 -0.264268,-1.20726698 -0.739755,-0.731965 -0.7470363,0.74685 -1.4937473,1.493561 -2.240782,2.240458 0,-0.635885 -1.87e-4,-1.271955 -1.87e-4,-1.908025 -1.87e-4,-0.671775 -1.040795,-0.677664 -1.040795,-0.0075 1.86e-4,1.056051 3.22e-4,2.112288 3.22e-4,3.16834 0,0.281981 0.231855,0.524037 0.516572,0.524037 1.0560517,-1.86e-4 2.1121027,-3.17e-4 3.168201,-3.17e-4 0.671961,-4.6e-5 0.677896,-1.040656 0.0077,-1.040656 z"
       id="path3-5" />
    <path
       style="fill:#ffe680;stroke:#000000;stroke-width:0.411824;stroke-dasharray:none"
       d="m 1.7637509,8.2841515 c 0.638852,-1.87e-4 1.2775191,-1.87e-4 1.9161851,-1.87e-4 -0.748102,0.7481027 -1.4965291,1.4965287 -2.2445841,2.2445845 -0.47409698,0.474096 0.264268,1.207267 0.739755,0.731965 0.7470361,-0.74685 1.4937471,-1.4937468 2.2405971,-2.2405968 0,0.63607 0,1.2721398 0,1.9082098 0,0.671776 1.040795,0.677665 1.040795,0.0075 0,-1.0560518 0,-2.1122878 0,-3.1683395 0,-0.281981 -0.231855,-0.524038 -0.516572,-0.524038 -1.056237,1.87e-4 -2.112288,3.23e-4 -3.1683401,3.23e-4 -0.672193,0 -0.678082,1.04061 -0.0078,1.04061 z"
       id="path4-3" />
  </g>
</svg>
