<?xml version="1.0" encoding="UTF-8" standalone="no"?>
<!-- Created with Inkscape (http://www.inkscape.org/) -->

<svg
   width="48"
   height="48"
   viewBox="0 0 12.7 12.7"
   version="1.1"
   id="svg1"
   inkscape:version="1.4 (e7c3feb100, 2024-10-09)"
   sodipodi:docname="f_screen.svg"
   xmlns:inkscape="http://www.inkscape.org/namespaces/inkscape"
   xmlns:sodipodi="http://sodipodi.sourceforge.net/DTD/sodipodi-0.dtd"
   xmlns="http://www.w3.org/2000/svg"
   xmlns:svg="http://www.w3.org/2000/svg">
  <sodipodi:namedview
     id="namedview1"
     pagecolor="#ffffff"
     bordercolor="#000000"
     borderopacity="0.25"
     inkscape:showpageshadow="2"
     inkscape:pageopacity="0.0"
     inkscape:pagecheckerboard="0"
     inkscape:deskcolor="#d1d1d1"
     inkscape:document-units="mm"
     inkscape:zoom="10.894732"
     inkscape:cx="32.859918"
     inkscape:cy="23.497595"
     inkscape:window-width="1870"
     inkscape:window-height="1054"
     inkscape:window-x="0"
     inkscape:window-y="0"
     inkscape:window-maximized="1"
     inkscape:current-layer="layer1" />
  <defs
     id="defs1" />
  <g
     inkscape:label="Katman 1"
     inkscape:groupmode="layer"
     id="layer1">
    <g
       id="g4">
      <path
         style="fill:#ffe680;stroke:#000000;stroke-width:0.411824;stroke-dasharray:none"
         d="m 4.9569933,1.2642453 c -1.056236,0 -2.112659,0 -3.16871,0 -0.281982,0 -0.524038,0.231855 -0.524038,0.516572 1.87e-4,1.056052 3.17e-4,2.112288 3.17e-4,3.16834 1.87e-4,0.671775 1.040796,0.677665 1.040796,0.0075 -1.87e-4,-0.638852 -1.87e-4,-1.277519 -1.87e-4,-1.916325 0.748241,0.748242 1.496714,1.496669 2.244956,2.24477 0.474096,0.474097 1.207266,-0.264453 0.731964,-0.739755 -0.747035,-0.747035 -1.493932,-1.493746 -2.240782,-2.240596 0.63607,0 1.27228,0 1.908349,0 0.671683,3.17e-4 0.677572,-1.040471 0.0073,-1.040471 z"
         id="path1" />
      <path
         style="fill:#ffe680;stroke:#000000;stroke-width:0.411824;stroke-dasharray:none"
         d="m 7.7430053,2.3053653 c 0.638852,-1.87e-4 1.277333,-1.87e-4 1.916185,-1.87e-4 -0.748241,0.748102 -1.496667,1.496529 -2.244955,2.244585 -0.474096,0.474096 0.264268,1.207267 0.739755,0.731965 0.747036,-0.74685 1.493747,-1.493561 2.2407817,-2.240458 0,0.635885 1.87e-4,1.271955 1.87e-4,1.908025 1.87e-4,0.671775 1.040795,0.677664 1.040795,0.0075 -1.86e-4,-1.056051 -3.22e-4,-2.112288 -3.22e-4,-3.16834 0,-0.281981 -0.231855,-0.524037 -0.516572,-0.524037 -1.0560517,1.86e-4 -2.1121027,3.17e-4 -3.1682007,3.17e-4 -0.671961,4.6e-5 -0.677896,1.040656 -0.0077,1.040656 z"
         id="path3-5" />
      <path
         style="fill:#ffe680;stroke:#000000;stroke-width:0.411824;stroke-dasharray:none"
         d="m 4.9569933,11.435118 c -1.056236,0 -2.112659,0 -3.16871,0 -0.281982,0 -0.524038,-0.231855 -0.524038,-0.516572 1.87e-4,-1.0560523 3.17e-4,-2.1122883 3.17e-4,-3.1683403 1.87e-4,-0.671775 1.040796,-0.677665 1.040796,-0.0075 -1.87e-4,0.638852 -1.87e-4,1.277519 -1.87e-4,1.916325 0.748241,-0.748242 1.496714,-1.496669 2.244956,-2.24477 0.474096,-0.474097 1.207266,0.264453 0.731964,0.739755 -0.747035,0.747035 -1.493932,1.493746 -2.240782,2.2405963 0.63607,0 1.27228,0 1.908349,0 0.671683,-3.17e-4 0.677572,1.040471 0.0073,1.040471 z"
         id="path3" />
      <path
         style="fill:#ffe680;stroke:#000000;stroke-width:0.411824;stroke-dasharray:none"
         d="m 7.7430053,10.393998 c 0.638852,1.87e-4 1.277333,1.87e-4 1.916185,1.87e-4 -0.748241,-0.7481023 -1.496667,-1.4965293 -2.244955,-2.2445853 -0.474096,-0.474096 0.264268,-1.207267 0.739755,-0.731965 0.747036,0.74685 1.493747,1.493561 2.2407817,2.240458 0,-0.635885 1.87e-4,-1.271955 1.87e-4,-1.908025 1.87e-4,-0.671775 1.040795,-0.677664 1.040795,-0.0075 -1.86e-4,1.056051 -3.22e-4,2.112288 -3.22e-4,3.1683403 0,0.281981 -0.231855,0.524037 -0.516572,0.524037 -1.0560517,-1.86e-4 -2.1121027,-3.17e-4 -3.1682007,-3.17e-4 -0.671961,-4.6e-5 -0.677896,-1.040656 -0.0077,-1.040656 z"
         id="path4" />
    </g>
  </g>
</svg>
