<?xml version="1.0" encoding="UTF-8" standalone="no"?>
<!-- Created with Inkscape (http://www.inkscape.org/) -->

<svg
   width="48"
   height="48"
   viewBox="0 0 12.7 12.7"
   version="1.1"
   id="svg1"
   inkscape:version="1.4 (e7c3feb100, 2024-10-09)"
   sodipodi:docname="undo.svg"
   xmlns:inkscape="http://www.inkscape.org/namespaces/inkscape"
   xmlns:sodipodi="http://sodipodi.sourceforge.net/DTD/sodipodi-0.dtd"
   xmlns="http://www.w3.org/2000/svg"
   xmlns:svg="http://www.w3.org/2000/svg">
  <sodipodi:namedview
     id="namedview1"
     pagecolor="#ffffff"
     bordercolor="#000000"
     borderopacity="0.25"
     inkscape:showpageshadow="2"
     inkscape:pageopacity="0.0"
     inkscape:pagecheckerboard="0"
     inkscape:deskcolor="#d1d1d1"
     inkscape:document-units="mm"
     inkscape:zoom="2.3718718"
     inkscape:cx="73.992195"
     inkscape:cy="129.43364"
     inkscape:window-width="1870"
     inkscape:window-height="1054"
     inkscape:window-x="0"
     inkscape:window-y="0"
     inkscape:window-maximized="1"
     inkscape:current-layer="layer1" />
  <defs
     id="defs1" />
  <g
     inkscape:label="Katman 1"
     inkscape:groupmode="layer"
     id="layer1">
    <g
       id="g4">
      <path
         style="fill:#5fbcd3;stroke-width:0.529"
         d="M 2.6217348,6.3499999 3.2237042,6.6137419 3.6593399,8.3404431 4.6969447,9.5523025 5.9484071,10.035462 7.5166957,9.8295252 8.9661745,8.5622214 9.3542862,6.8275993 8.7285551,5.2355487 7.3820448,4.1979439 7.3028383,5.2672315 6.5979005,5.5919779 5.7187083,4.9741674 4.4989286,3.6038951 4.5702143,3.089053 6.4394876,1.2593832 6.9305677,1.2831451 7.2949175,1.6395743 7.3820448,2.7167826 8.9661745,3.564292 9.9087317,4.4751667 10.597828,5.9008835 10.629511,8.1186651 9.9166523,9.6631915 8.4275704,10.930495 6.8751232,11.429496 5.0929772,11.302766 3.4850855,10.407732 2.5108457,9.2592384 1.9722416,7.6751086 2.0435274,6.6454244 Z"
         id="path3" />
      <g
         id="g3"
         transform="matrix(0.02067057,0,0,0.02067057,1.0583333,1.0583333)">
	<g
   id="g2">
		<path
   d="M 412.978,133.021 C 385.632,105.676 351.929,86.042 315.095,75.923 V 43.525 C 315.095,19.525 295.57,0 271.57,0 259.944,0 249.013,4.527 240.792,12.747 L 169.68,83.86 c -8.222,8.222 -12.748,19.152 -12.748,30.777 0,11.627 4.526,22.557 12.748,30.777 l 71.114,71.114 c 8.222,8.221 19.151,12.747 30.776,12.747 24,0 43.525,-19.525 43.525,-43.524 v -17.055 c 45.913,22.434 75.856,69.482 75.856,121.303 0,74.413 -60.538,134.952 -134.951,134.952 -74.413,0 -134.951,-60.538 -134.951,-134.952 0,-23.999 -19.525,-43.524 -43.525,-43.524 -24,0 -43.525,19.525 -43.525,43.524 0,59.299 23.093,115.048 65.023,156.978 41.929,41.93 97.678,65.023 156.977,65.023 59.299,0 115.049,-23.093 156.979,-65.023 41.93,-41.93 65.023,-97.679 65.023,-156.978 0,-59.298 -23.093,-115.047 -65.023,-156.978 z M 398.554,432.552 C 360.477,470.631 309.85,491.601 256,491.601 202.15,491.601 151.522,470.63 113.447,432.553 75.368,394.476 54.398,343.85 54.398,289.999 c 0,-12.751 10.375,-23.126 23.127,-23.126 12.752,0 23.127,10.375 23.127,23.126 0,85.66 69.69,155.35 155.35,155.35 85.66,0 155.349,-69.69 155.349,-155.35 0,-65.375 -41.396,-124.154 -103.008,-146.263 -3.127,-1.124 -6.601,-0.652 -9.314,1.258 -2.715,1.91 -4.331,5.022 -4.331,8.342 v 32.415 c 0,12.751 -10.375,23.126 -23.127,23.126 -6.177,0 -11.985,-2.406 -16.352,-6.773 L 184.105,130.99 c -4.368,-4.367 -6.773,-10.176 -6.773,-16.352 0,-6.176 2.406,-11.985 6.774,-16.352 l 71.113,-71.112 c 4.367,-4.369 10.175,-6.774 16.352,-6.774 12.752,0 23.126,10.375 23.127,23.127 v 40.32 c 0,4.732 3.257,8.844 7.865,9.928 36.202,8.515 69.395,27.074 95.992,53.67 38.079,38.078 59.049,88.705 59.049,142.554 -10e-4,53.85 -20.972,104.477 -59.05,142.553 z"
   id="path1" />

	</g>

</g>
      <rect
         style="fill:#ffffff;stroke:#000000;stroke-width:0.3;stroke-dasharray:none"
         id="rect3"
         width="0.67804891"
         height="1.98706"
         x="0.99607044"
         y="6.0378952"
         ry="0.33902445"
         transform="rotate(-46.196608)" />
    </g>
  </g>
</svg>
