<?xml version="1.0" encoding="UTF-8" standalone="no"?>
<!-- Created with Inkscape (http://www.inkscape.org/) -->

<svg
   xmlns:dc="http://purl.org/dc/elements/1.1/"
   xmlns:cc="http://creativecommons.org/ns#"
   xmlns:rdf="http://www.w3.org/1999/02/22-rdf-syntax-ns#"
   xmlns:svg="http://www.w3.org/2000/svg"
   xmlns="http://www.w3.org/2000/svg"
   xmlns:sodipodi="http://sodipodi.sourceforge.net/DTD/sodipodi-0.dtd"
   xmlns:inkscape="http://www.inkscape.org/namespaces/inkscape"
   version="1.1"
   id="svg2"
   xml:space="preserve"
   width="170mm"
   height="127.17mm"
   viewBox="0 0 642.51969 480.64252"
   sodipodi:docname="egim_9.svg"
   inkscape:version="0.92.5 (2060ec1f9f, 2020-04-08)"><metadata
     id="metadata8"><rdf:RDF><cc:Work
         rdf:about=""><dc:format>image/svg+xml</dc:format><dc:type
           rdf:resource="http://purl.org/dc/dcmitype/StillImage" /><dc:title /></cc:Work></rdf:RDF></metadata><defs
     id="defs6" /><sodipodi:namedview
     pagecolor="#ffffff"
     bordercolor="#666666"
     borderopacity="1"
     objecttolerance="10"
     gridtolerance="10"
     guidetolerance="10"
     inkscape:pageopacity="0"
     inkscape:pageshadow="2"
     inkscape:window-width="1920"
     inkscape:window-height="1031"
     id="namedview4"
     showgrid="false"
     units="mm"
     inkscape:zoom="1.1893045"
     inkscape:cx="435.83997"
     inkscape:cy="208.1622"
     inkscape:window-x="0"
     inkscape:window-y="25"
     inkscape:window-maximized="1"
     inkscape:current-layer="g10" /><g
     id="g10"
     inkscape:groupmode="layer"
     inkscape:label="Egim_2"
     transform="matrix(1.3333333,0,0,1.3333333,0,-641.87717)"><g
       id="g572"
       transform="translate(-298.91422,311.86406)"><path
         inkscape:connector-curvature="0"
         id="path574"
         style="fill:#ffd5d5;fill-opacity:1;fill-rule:nonzero;stroke:#000000;stroke-width:1.41732299;stroke-linecap:butt;stroke-linejoin:miter;stroke-miterlimit:4;stroke-dasharray:none;stroke-opacity:1"
         d="M 312.152,225.816 H 412.379 V 170.742 Z" /></g><g
       id="g582"
       transform="translate(-312.07161,305.38512)"><path
         inkscape:connector-curvature="0"
         id="path584"
         style="fill:#ffe6d5;fill-opacity:1;fill-rule:nonzero;stroke:#000000;stroke-width:1.41732299;stroke-linecap:butt;stroke-linejoin:miter;stroke-miterlimit:4;stroke-dasharray:none;stroke-opacity:1"
         d="M 312.152,302.316 H 487.379 V 282.309 Z" /></g><g
       id="g592"
       transform="translate(-312.05185,303.76257)"><path
         inkscape:connector-curvature="0"
         id="path594"
         style="fill:#f4eed7;fill-opacity:1;fill-rule:nonzero;stroke:#000000;stroke-width:1.41732299;stroke-linecap:butt;stroke-linejoin:miter;stroke-miterlimit:4;stroke-dasharray:none;stroke-opacity:1"
         d="m 312.152,360.816 h 80.664 v -11.515 z" /></g><g
       id="g602"
       transform="translate(-311.92759,319.09604)"><path
         inkscape:connector-curvature="0"
         id="path604"
         style="fill:#eef4d7;fill-opacity:1;fill-rule:nonzero;stroke:#000000;stroke-width:1.41732299;stroke-linecap:butt;stroke-linejoin:miter;stroke-miterlimit:4;stroke-dasharray:none;stroke-opacity:1"
         d="m 312.152,420.816 h 51.692 v -17.257 z" /></g><g
       id="g612"
       transform="translate(-312.05748,332.1887)"><path
         inkscape:connector-curvature="0"
         id="path614"
         style="fill:#e3f4d7;fill-opacity:1;fill-rule:nonzero;stroke:#000000;stroke-width:1.41732299;stroke-linecap:butt;stroke-linejoin:miter;stroke-miterlimit:4;stroke-dasharray:none;stroke-opacity:1"
         d="M 312.152,467.316 H 427.379 V 451.809 Z" /></g><g
       id="g622"
       transform="translate(-298.91422,311.86406)"><path
         inkscape:connector-curvature="0"
         id="path624"
         style="fill:none;stroke:#000000;stroke-width:1.41732299;stroke-linecap:butt;stroke-linejoin:miter;stroke-miterlimit:4;stroke-dasharray:none;stroke-opacity:1"
         d="m 404.023,225.555 v -7.348 h 7.637" /></g><path
       inkscape:connector-curvature="0"
       id="path626"
       style="fill:#000000;fill-opacity:1;fill-rule:nonzero;stroke:none"
       d="m 110.22278,533.89085 c 0,0.586 -0.473,1.063 -1.063,1.063 -0.586,0 -1.062,-0.477 -1.062,-1.063 0,-0.586 0.476,-1.062 1.062,-1.062 0.59,0 1.063,0.476 1.063,1.062 z" /><g
       id="g628"
       transform="translate(-312.07161,305.38512)"><path
         inkscape:connector-curvature="0"
         id="path630"
         style="fill:none;stroke:#000000;stroke-width:1.41732299;stroke-linecap:butt;stroke-linejoin:miter;stroke-miterlimit:4;stroke-dasharray:none;stroke-opacity:1"
         d="m 479.227,301.938 v -7.348 h 7.632" /></g><path
       inkscape:connector-curvature="0"
       id="path632"
       style="fill:#000000;fill-opacity:1;fill-rule:nonzero;stroke:none"
       d="m 172.26839,603.79482 c 0,0.586 -0.477,1.063 -1.063,1.063 -0.586,0 -1.062,-0.477 -1.062,-1.063 0,-0.586 0.476,-1.062 1.062,-1.062 0.586,0 1.063,0.476 1.063,1.062 z" /><g
       id="g634"
       transform="translate(-312.05185,303.76257)"><path
         inkscape:connector-curvature="0"
         id="path636"
         style="fill:none;stroke:#000000;stroke-width:1.41732299;stroke-linecap:butt;stroke-linejoin:miter;stroke-miterlimit:4;stroke-dasharray:none;stroke-opacity:1"
         d="m 385.004,361.055 v -7.348 h 7.633" /></g><path
       inkscape:connector-curvature="0"
       id="path638"
       style="fill:#000000;fill-opacity:1;fill-rule:nonzero;stroke:none"
       d="m 78.065148,661.28921 c 0,0.586 -0.476,1.063 -1.062,1.063 -0.586,0 -1.063,-0.477 -1.063,-1.063 0,-0.586 0.477,-1.062 1.063,-1.062 0.586,0 1.062,0.476 1.062,1.062 z" /><g
       id="g640"
       transform="translate(-311.92759,319.09604)"><path
         inkscape:connector-curvature="0"
         id="path642"
         style="fill:none;stroke:#000000;stroke-width:1.41732299;stroke-linecap:butt;stroke-linejoin:miter;stroke-miterlimit:4;stroke-dasharray:none;stroke-opacity:1"
         d="m 355.66,420.852 v -7.348 h 7.633" /></g><path
       inkscape:connector-curvature="0"
       id="path644"
       style="fill:#000000;fill-opacity:1;fill-rule:nonzero;stroke:none"
       d="m 48.84541,736.41963 c 0,0.586 -0.476,1.063 -1.062,1.063 -0.586,0 -1.063,-0.477 -1.063,-1.063 0,-0.586 0.477,-1.062 1.063,-1.062 0.586,0 1.062,0.476 1.062,1.062 z" /><g
       id="g646"
       transform="translate(-312.05748,332.1887)"><path
         inkscape:connector-curvature="0"
         id="path648"
         style="fill:none;stroke:#000000;stroke-width:1.41732299;stroke-linecap:butt;stroke-linejoin:miter;stroke-miterlimit:4;stroke-dasharray:none;stroke-opacity:1"
         d="m 419.605,467.57 v -7.347 h 7.633" /></g><path
       inkscape:connector-curvature="0"
       id="path650"
       style="fill:#000000;fill-opacity:1;fill-rule:nonzero;stroke:none"
       d="m 112.66152,796.23124 c 0,0.586 -0.477,1.062 -1.063,1.062 -0.586,0 -1.062,-0.476 -1.062,-1.062 0,-0.586 0.476,-1.063 1.062,-1.063 0.586,0 1.063,0.477 1.063,1.063 z" /><g
       id="g652"
       transform="translate(-88.914221,83.4315)"><path
         inkscape:connector-curvature="0"
         id="path654"
         style="fill:#d7f4e3;fill-opacity:1;fill-rule:nonzero;stroke:#000000;stroke-width:1.41732299;stroke-linecap:butt;stroke-linejoin:miter;stroke-miterlimit:4;stroke-dasharray:none;stroke-opacity:1"
         d="M 311.898,548.316 H 533.25 v -27.507 z" /></g><g
       id="g662"
       transform="translate(-88.914221,83.4315)"><path
         inkscape:connector-curvature="0"
         id="path664"
         style="fill:none;stroke:#000000;stroke-width:1.41732299;stroke-linecap:butt;stroke-linejoin:miter;stroke-miterlimit:4;stroke-dasharray:none;stroke-opacity:1"
         d="m 525.023,547.938 v -7.348 h 7.637" /></g><path
       inkscape:connector-curvature="0"
       id="path666"
       style="fill:#000000;fill-opacity:1;fill-rule:nonzero;stroke:none"
       d="m 441.22678,627.84096 c 0,0.586 -0.477,1.063 -1.067,1.063 -0.586,0 -1.062,-0.477 -1.062,-1.063 0,-0.586 0.476,-1.062 1.062,-1.062 0.59,0 1.067,0.476 1.067,1.062 z" /><g
       id="g668"
       transform="translate(-89.17669,-106.21755)"><path
         inkscape:connector-curvature="0"
         id="path670"
         style="fill:#d7eef4;fill-opacity:1;fill-rule:nonzero;stroke:#000000;stroke-width:1.41732299;stroke-linecap:butt;stroke-linejoin:miter;stroke-miterlimit:4;stroke-dasharray:none;stroke-opacity:1"
         d="M 312.152,623.316 H 490.379 V 603.309 Z" /></g><g
       id="g678"
       transform="translate(-89.17669,-106.21755)"><path
         inkscape:connector-curvature="0"
         id="path680"
         style="fill:none;stroke:#000000;stroke-width:1.41732299;stroke-linecap:butt;stroke-linejoin:miter;stroke-miterlimit:4;stroke-dasharray:none;stroke-opacity:1"
         d="m 482.066,622.707 v -7.348 h 7.633" /></g><path
       inkscape:connector-curvature="0"
       id="path682"
       style="fill:#000000;fill-opacity:1;fill-rule:nonzero;stroke:none"
       d="m 398.00331,512.96184 c 0,0.586 -0.477,1.062 -1.063,1.062 -0.586,0 -1.062,-0.476 -1.062,-1.062 0,-0.586 0.476,-1.063 1.062,-1.063 0.586,0 1.063,0.477 1.063,1.063 z" /><g
       id="g684"
       transform="translate(-89.175464,21.820151)"><path
         inkscape:connector-curvature="0"
         id="path686"
         style="fill:#d7d7f4;fill-opacity:1;fill-rule:nonzero;stroke:#000000;stroke-width:1.41732299;stroke-linecap:butt;stroke-linejoin:miter;stroke-miterlimit:4;stroke-dasharray:none;stroke-opacity:1"
         d="m 312.152,698.316 h 118.227 v -13.48 z" /></g><g
       id="g694"
       transform="translate(-89.175464,21.820151)"><path
         inkscape:connector-curvature="0"
         id="path696"
         style="fill:none;stroke:#000000;stroke-width:1.41732299;stroke-linecap:butt;stroke-linejoin:miter;stroke-miterlimit:4;stroke-dasharray:none;stroke-opacity:1"
         d="m 422.555,697.707 v -7.348 h 7.636" /></g><path
       inkscape:connector-curvature="0"
       id="path698"
       style="fill:#000000;fill-opacity:1;fill-rule:nonzero;stroke:none"
       d="m 338.49654,715.99946 c 0,0.586 -0.477,1.062 -1.063,1.062 -0.589,0 -1.066,-0.476 -1.066,-1.062 0,-0.586 0.477,-1.063 1.066,-1.063 0.586,0 1.063,0.477 1.063,1.063 z" /><g
       id="g700"
       transform="translate(-89.1523,29.685455)"><path
         inkscape:connector-curvature="0"
         id="path702"
         style="fill:#eed7f4;fill-opacity:1;fill-rule:nonzero;stroke:#000000;stroke-width:1.41732299;stroke-linecap:butt;stroke-linejoin:miter;stroke-miterlimit:4;stroke-dasharray:none;stroke-opacity:1"
         d="M 312.152,786.816 H 535.293 V 753.891 Z" /></g><g
       id="g710"
       transform="translate(-89.1523,29.685455)"><path
         inkscape:connector-curvature="0"
         id="path712"
         style="fill:none;stroke:#000000;stroke-width:1.41732299;stroke-linecap:butt;stroke-linejoin:miter;stroke-miterlimit:4;stroke-dasharray:none;stroke-opacity:1"
         d="m 527.023,786.555 v -7.348 h 7.637" /></g><path
       inkscape:connector-curvature="0"
       id="path714"
       style="fill:#000000;fill-opacity:1;fill-rule:nonzero;stroke:none"
       d="m 442.9847,812.71168 c 0,0.586 -0.473,1.063 -1.063,1.063 -0.586,0 -1.062,-0.477 -1.062,-1.063 0,-0.586 0.476,-1.062 1.062,-1.062 0.59,0 1.063,0.476 1.063,1.062 z" /><g
       aria-label="5 cm"
       transform="matrix(0.75000002,0,0,0.75000002,-8.1980689,435.05727)"
       style="font-style:normal;font-weight:normal;font-size:40px;line-height:1.25;font-family:sans-serif;letter-spacing:0px;word-spacing:0px;fill:#000000;fill-opacity:1;stroke:none"
       id="flowRoot928"><path
         d="m 168.42904,101.57682 q 1.5039,0 2.36328,0.7487 0.86588,0.74219 0.86588,2.03776 0,1.47787 -0.94401,2.31771 -0.9375,0.83984 -2.59114,0.83984 -1.60808,0 -2.45443,-0.51432 v -1.04167 q 0.45573,0.29297 1.13281,0.46224 0.67709,0.16276 1.33464,0.16276 1.14583,0 1.77734,-0.54036 0.63802,-0.54037 0.63802,-1.5625 0,-1.99219 -2.4414,-1.99219 -0.61849,0 -1.65365,0.1888 l -0.5599,-0.35807 0.35808,-4.453124 h 4.73307 v 0.996094 h -3.80859 l -0.24089,2.85807 q 0.7487,-0.14974 1.49089,-0.14974 z"
         style="font-style:normal;font-variant:normal;font-weight:normal;font-stretch:normal;font-size:13.33333302px;font-family:'Open Sans';-inkscape-font-specification:'Open Sans'"
         id="path1311" /><path
         d="m 179.88737,107.52083 q -1.54948,0 -2.40234,-0.95052 -0.84636,-0.95703 -0.84636,-2.70182 0,-1.79036 0.85938,-2.76693 0.86588,-0.97656 2.46093,-0.97656 0.51433,0 1.02865,0.11068 0.51432,0.11067 0.80729,0.26041 l -0.33203,0.91797 q -0.35807,-0.14323 -0.78125,-0.23437 -0.42318,-0.0977 -0.7487,-0.0977 -2.17448,0 -2.17448,2.77344 0,1.3151 0.52735,2.01823 0.53385,0.70312 1.57552,0.70312 0.89192,0 1.82942,-0.38411 v 0.95703 q -0.71614,0.37109 -1.80338,0.37109 z"
         style="font-style:normal;font-variant:normal;font-weight:normal;font-stretch:normal;font-size:13.33333302px;font-family:'Open Sans';-inkscape-font-specification:'Open Sans'"
         id="path1313" /><path
         d="m 192.47851,107.39063 v -4.64193 q 0,-0.85287 -0.36458,-1.27604 -0.36458,-0.42969 -1.13281,-0.42969 -1.00912,0 -1.49089,0.57943 -0.48177,0.57942 -0.48177,1.78385 v 3.98438 h -1.08073 v -4.64193 q 0,-0.85287 -0.36458,-1.27604 -0.36458,-0.42969 -1.13932,-0.42969 -1.01563,0 -1.49089,0.61198 -0.46875,0.60547 -0.46875,1.99219 v 3.74349 h -1.08073 v -7.13542 h 0.87891 l 0.17578,0.97656 h 0.0521 q 0.30599,-0.52083 0.85938,-0.8138 0.55989,-0.29297 1.25,-0.29297 1.67318,0 2.1875,1.21094 h 0.0521 q 0.31901,-0.5599 0.92448,-0.88542 0.60547,-0.32552 1.38021,-0.32552 1.21094,0 1.80989,0.625 0.60547,0.61849 0.60547,1.98568 v 4.65495 z"
         style="font-style:normal;font-variant:normal;font-weight:normal;font-stretch:normal;font-size:13.33333302px;font-family:'Open Sans';-inkscape-font-specification:'Open Sans'"
         id="path1315" /></g><g
       aria-label="25 cm"
       transform="matrix(0.75000002,0,0,0.75000002,-66.148552,467.09313)"
       style="font-style:normal;font-weight:normal;font-size:40px;line-height:1.25;font-family:sans-serif;letter-spacing:0px;word-spacing:0px;fill:#000000;fill-opacity:1;stroke:none"
       id="flowRoot1057"><path
         d="m 171.71029,107.39063 h -6.25651 v -0.93099 l 2.50651,-2.51954 q 1.14583,-1.15885 1.51041,-1.65364 0.36459,-0.49479 0.54688,-0.96354 0.18229,-0.46875 0.18229,-1.00912 0,-0.761716 -0.46224,-1.204425 -0.46224,-0.449219 -1.28255,-0.449219 -0.59245,0 -1.1263,0.195313 -0.52735,0.195312 -1.17839,0.709635 l -0.57292,-0.735677 q 1.31511,-1.09375 2.86459,-1.09375 1.34114,0 2.10286,0.690104 0.76172,0.683594 0.76172,1.842449 0,0.90495 -0.50781,1.79036 -0.50781,0.88542 -1.90104,2.23959 l -2.08334,2.03776 v 0.0521 h 4.89584 z"
         style="font-style:normal;font-variant:normal;font-weight:normal;font-stretch:normal;font-size:13.33333302px;font-family:'Open Sans';-inkscape-font-specification:'Open Sans'"
         id="path1318" /><path
         d="m 176.05273,101.57682 q 1.50391,0 2.36329,0.7487 0.86588,0.74219 0.86588,2.03776 0,1.47787 -0.94401,2.31771 -0.9375,0.83984 -2.59115,0.83984 -1.60807,0 -2.45442,-0.51432 v -1.04167 q 0.45573,0.29297 1.13281,0.46224 0.67708,0.16276 1.33464,0.16276 1.14583,0 1.77734,-0.54036 0.63802,-0.54037 0.63802,-1.5625 0,-1.99219 -2.44141,-1.99219 -0.61849,0 -1.65364,0.1888 l -0.5599,-0.35807 0.35808,-4.453124 h 4.73307 v 0.996094 h -3.8086 l -0.24088,2.85807 q 0.7487,-0.14974 1.49088,-0.14974 z"
         style="font-style:normal;font-variant:normal;font-weight:normal;font-stretch:normal;font-size:13.33333302px;font-family:'Open Sans';-inkscape-font-specification:'Open Sans'"
         id="path1320" /><path
         d="m 187.51107,107.52083 q -1.54948,0 -2.40235,-0.95052 -0.84635,-0.95703 -0.84635,-2.70182 0,-1.79036 0.85937,-2.76693 0.86589,-0.97656 2.46094,-0.97656 0.51433,0 1.02865,0.11068 0.51432,0.11067 0.80729,0.26041 l -0.33203,0.91797 q -0.35807,-0.14323 -0.78125,-0.23437 -0.42318,-0.0977 -0.7487,-0.0977 -2.17448,0 -2.17448,2.77344 0,1.3151 0.52735,2.01823 0.53385,0.70312 1.57552,0.70312 0.89192,0 1.82942,-0.38411 v 0.95703 q -0.71614,0.37109 -1.80338,0.37109 z"
         style="font-style:normal;font-variant:normal;font-weight:normal;font-stretch:normal;font-size:13.33333302px;font-family:'Open Sans';-inkscape-font-specification:'Open Sans'"
         id="path1322" /><path
         d="m 200.10221,107.39063 v -4.64193 q 0,-0.85287 -0.36458,-1.27604 -0.36458,-0.42969 -1.13281,-0.42969 -1.00912,0 -1.49089,0.57943 -0.48177,0.57942 -0.48177,1.78385 v 3.98438 h -1.08073 v -4.64193 q 0,-0.85287 -0.36458,-1.27604 -0.36458,-0.42969 -1.13932,-0.42969 -1.01563,0 -1.49089,0.61198 -0.46875,0.60547 -0.46875,1.99219 v 3.74349 h -1.08073 v -7.13542 h 0.87891 l 0.17578,0.97656 h 0.0521 q 0.30599,-0.52083 0.85938,-0.8138 0.55989,-0.29297 1.25,-0.29297 1.67317,0 2.1875,1.21094 h 0.0521 q 0.31901,-0.5599 0.92448,-0.88542 0.60547,-0.32552 1.38021,-0.32552 1.21094,0 1.80989,0.625 0.60547,0.61849 0.60547,1.98568 v 4.65495 z"
         style="font-style:normal;font-variant:normal;font-weight:normal;font-stretch:normal;font-size:13.33333302px;font-family:'Open Sans';-inkscape-font-specification:'Open Sans'"
         id="path1324" /></g><g
       aria-label="100 cm"
       transform="matrix(0.75000002,0,0,0.75000002,-41.615969,537.05727)"
       style="font-style:normal;font-weight:normal;font-size:40px;line-height:1.25;font-family:sans-serif;letter-spacing:0px;word-spacing:0px;fill:#000000;fill-opacity:1;stroke:none"
       id="flowRoot1065"><path
         d="m 169.45768,107.39063 h -1.05469 v -6.78386 q 0,-0.846353 0.0521,-1.601561 -0.13672,0.136718 -0.30599,0.286458 -0.16927,0.149739 -1.54948,1.269533 l -0.57292,-0.742189 2.51953,-1.946615 h 0.91146 z"
         style="font-style:normal;font-variant:normal;font-weight:normal;font-stretch:normal;font-size:13.33333302px;font-family:'Open Sans';-inkscape-font-specification:'Open Sans'"
         id="path1300"
         inkscape:connector-curvature="0" /><path
         d="m 179.38607,102.61849 q 0,2.46745 -0.78125,3.6849 -0.77474,1.21744 -2.3763,1.21744 -1.53646,0 -2.33724,-1.24349 -0.80079,-1.25 -0.80079,-3.65885 0,-2.48698 0.77474,-3.691406 0.77474,-1.204428 2.36329,-1.204428 1.54947,0 2.35026,1.256511 0.80729,1.256513 0.80729,3.639323 z m -5.20183,0 q 0,2.07682 0.48829,3.02734 0.48828,0.94401 1.55599,0.94401 1.08072,0 1.5625,-0.95703 0.48828,-0.96354 0.48828,-3.01432 0,-2.05078 -0.48828,-3.001302 -0.48178,-0.957032 -1.5625,-0.957032 -1.06771,0 -1.55599,0.944011 -0.48829,0.937503 -0.48829,3.014323 z"
         style="font-style:normal;font-variant:normal;font-weight:normal;font-stretch:normal;font-size:13.33333302px;font-family:'Open Sans';-inkscape-font-specification:'Open Sans'"
         id="path1302"
         inkscape:connector-curvature="0" /><path
         d="m 187.00977,102.61849 q 0,2.46745 -0.78125,3.6849 -0.77474,1.21744 -2.37631,1.21744 -1.53646,0 -2.33724,-1.24349 -0.80078,-1.25 -0.80078,-3.65885 0,-2.48698 0.77474,-3.691406 0.77474,-1.204428 2.36328,-1.204428 1.54948,0 2.35026,1.256511 0.8073,1.256513 0.8073,3.639323 z m -5.20183,0 q 0,2.07682 0.48828,3.02734 0.48828,0.94401 1.55599,0.94401 1.08073,0 1.5625,-0.95703 0.48828,-0.96354 0.48828,-3.01432 0,-2.05078 -0.48828,-3.001302 -0.48177,-0.957032 -1.5625,-0.957032 -1.06771,0 -1.55599,0.944011 -0.48828,0.937503 -0.48828,3.014323 z"
         style="font-style:normal;font-variant:normal;font-weight:normal;font-stretch:normal;font-size:13.33333302px;font-family:'Open Sans';-inkscape-font-specification:'Open Sans'"
         id="path1304"
         inkscape:connector-curvature="0" /><path
         d="m 195.13476,107.52083 q -1.54947,0 -2.40234,-0.95052 -0.84635,-0.95703 -0.84635,-2.70182 0,-1.79036 0.85937,-2.76693 0.86589,-0.97656 2.46094,-0.97656 0.51432,0 1.02865,0.11068 0.51432,0.11067 0.80729,0.26041 l -0.33203,0.91797 q -0.35808,-0.14323 -0.78125,-0.23437 -0.42318,-0.0977 -0.7487,-0.0977 -2.17448,0 -2.17448,2.77344 0,1.3151 0.52734,2.01823 0.53386,0.70312 1.57552,0.70312 0.89193,0 1.82943,-0.38411 v 0.95703 q -0.71615,0.37109 -1.80339,0.37109 z"
         style="font-style:normal;font-variant:normal;font-weight:normal;font-stretch:normal;font-size:13.33333302px;font-family:'Open Sans';-inkscape-font-specification:'Open Sans'"
         id="path1306"
         inkscape:connector-curvature="0" /><path
         d="m 207.72591,107.39063 v -4.64193 q 0,-0.85287 -0.36458,-1.27604 -0.36459,-0.42969 -1.13282,-0.42969 -1.00911,0 -1.49088,0.57943 -0.48177,0.57942 -0.48177,1.78385 v 3.98438 h -1.08073 v -4.64193 q 0,-0.85287 -0.36459,-1.27604 -0.36458,-0.42969 -1.13932,-0.42969 -1.01562,0 -1.49088,0.61198 -0.46875,0.60547 -0.46875,1.99219 v 3.74349 h -1.08073 v -7.13542 h 0.8789 l 0.17578,0.97656 h 0.0521 q 0.30599,-0.52083 0.85937,-0.8138 0.5599,-0.29297 1.25,-0.29297 1.67318,0 2.1875,1.21094 h 0.0521 q 0.31901,-0.5599 0.92447,-0.88542 0.60547,-0.32552 1.38021,-0.32552 1.21094,0 1.8099,0.625 0.60547,0.61849 0.60547,1.98568 v 4.65495 z"
         style="font-style:normal;font-variant:normal;font-weight:normal;font-stretch:normal;font-size:13.33333302px;font-family:'Open Sans';-inkscape-font-specification:'Open Sans'"
         id="path1308"
         inkscape:connector-curvature="0" /></g><g
       aria-label="8 cm"
       transform="matrix(0.75000002,0,0,0.75000002,54.384031,520.55727)"
       style="font-style:normal;font-weight:normal;font-size:40px;line-height:1.25;font-family:sans-serif;letter-spacing:0px;word-spacing:0px;fill:#000000;fill-opacity:1;stroke:none"
       id="flowRoot1073"><path
         d="m 168.60482,97.735677 q 1.30208,0 2.0638,0.605469 0.76172,0.605469 0.76172,1.673174 0,0.70313 -0.4362,1.28256 -0.4362,0.57942 -1.39323,1.05468 1.15886,0.55339 1.64714,1.16537 0.48828,0.60547 0.48828,1.40625 0,1.18489 -0.82682,1.89453 -0.82683,0.70312 -2.26563,0.70312 -1.52344,0 -2.34375,-0.66406 -0.82031,-0.67057 -0.82031,-1.89453 0,-1.63411 1.99219,-2.54557 -0.89844,-0.50782 -1.28907,-1.09375 -0.39062,-0.59245 -0.39062,-1.32162 0,-1.035154 0.76172,-1.647133 0.76823,-0.61849 2.05078,-0.61849 z m -2.05729,7.252603 q 0,0.78125 0.54036,1.21745 0.54688,0.4362 1.52995,0.4362 0.97005,0 1.51042,-0.45573 0.54036,-0.45573 0.54036,-1.25 0,-0.63151 -0.50781,-1.11979 -0.50782,-0.4948 -1.77084,-0.95703 -0.97005,0.41666 -1.40625,0.92447 -0.43619,0.50131 -0.43619,1.20443 z m 2.04427,-6.373696 q -0.81381,0 -1.27604,0.390625 -0.46224,0.390625 -0.46224,1.041671 0,0.59895 0.38411,1.02864 0.38411,0.42969 1.41927,0.85938 0.93099,-0.39063 1.31511,-0.83985 0.39062,-0.44922 0.39062,-1.04817 0,-0.657557 -0.47526,-1.041671 -0.46875,-0.390625 -1.29557,-0.390625 z"
         style="font-style:normal;font-variant:normal;font-weight:normal;font-stretch:normal;font-size:13.33333302px;font-family:'Open Sans';-inkscape-font-specification:'Open Sans'"
         id="path1293"
         inkscape:connector-curvature="0" /><path
         d="m 179.88737,107.52083 q -1.54948,0 -2.40234,-0.95052 -0.84636,-0.95703 -0.84636,-2.70182 0,-1.79036 0.85938,-2.76693 0.86588,-0.97656 2.46093,-0.97656 0.51433,0 1.02865,0.11068 0.51432,0.11067 0.80729,0.26041 l -0.33203,0.91797 q -0.35807,-0.14323 -0.78125,-0.23437 -0.42318,-0.0977 -0.7487,-0.0977 -2.17448,0 -2.17448,2.77344 0,1.3151 0.52735,2.01823 0.53385,0.70312 1.57552,0.70312 0.89192,0 1.82942,-0.38411 v 0.95703 q -0.71614,0.37109 -1.80338,0.37109 z"
         style="font-style:normal;font-variant:normal;font-weight:normal;font-stretch:normal;font-size:13.33333302px;font-family:'Open Sans';-inkscape-font-specification:'Open Sans'"
         id="path1295"
         inkscape:connector-curvature="0" /><path
         d="m 192.47851,107.39063 v -4.64193 q 0,-0.85287 -0.36458,-1.27604 -0.36458,-0.42969 -1.13281,-0.42969 -1.00912,0 -1.49089,0.57943 -0.48177,0.57942 -0.48177,1.78385 v 3.98438 h -1.08073 v -4.64193 q 0,-0.85287 -0.36458,-1.27604 -0.36458,-0.42969 -1.13932,-0.42969 -1.01563,0 -1.49089,0.61198 -0.46875,0.60547 -0.46875,1.99219 v 3.74349 h -1.08073 v -7.13542 h 0.87891 l 0.17578,0.97656 h 0.0521 q 0.30599,-0.52083 0.85938,-0.8138 0.55989,-0.29297 1.25,-0.29297 1.67318,0 2.1875,1.21094 h 0.0521 q 0.31901,-0.5599 0.92448,-0.88542 0.60547,-0.32552 1.38021,-0.32552 1.21094,0 1.80989,0.625 0.60547,0.61849 0.60547,1.98568 v 4.65495 z"
         style="font-style:normal;font-variant:normal;font-weight:normal;font-stretch:normal;font-size:13.33333302px;font-family:'Open Sans';-inkscape-font-specification:'Open Sans'"
         id="path1297"
         inkscape:connector-curvature="0" /></g><g
       aria-label="10 cm"
       transform="matrix(0.75000002,0,0,0.75000002,-109.84837,669.05727)"
       style="font-style:normal;font-weight:normal;font-size:40px;line-height:1.25;font-family:sans-serif;letter-spacing:0px;word-spacing:0px;fill:#000000;fill-opacity:1;stroke:none"
       id="flowRoot1081"><path
         d="m 169.45768,107.39063 h -1.05469 v -6.78386 q 0,-0.846353 0.0521,-1.601561 -0.13672,0.136718 -0.30599,0.286458 -0.16927,0.149739 -1.54948,1.269533 l -0.57292,-0.742189 2.51953,-1.946615 h 0.91146 z"
         style="font-style:normal;font-variant:normal;font-weight:normal;font-stretch:normal;font-size:13.33333302px;font-family:'Open Sans';-inkscape-font-specification:'Open Sans'"
         id="path1284"
         inkscape:connector-curvature="0" /><path
         d="m 179.38607,102.61849 q 0,2.46745 -0.78125,3.6849 -0.77474,1.21744 -2.3763,1.21744 -1.53646,0 -2.33724,-1.24349 -0.80079,-1.25 -0.80079,-3.65885 0,-2.48698 0.77474,-3.691406 0.77474,-1.204428 2.36329,-1.204428 1.54947,0 2.35026,1.256511 0.80729,1.256513 0.80729,3.639323 z m -5.20183,0 q 0,2.07682 0.48829,3.02734 0.48828,0.94401 1.55599,0.94401 1.08072,0 1.5625,-0.95703 0.48828,-0.96354 0.48828,-3.01432 0,-2.05078 -0.48828,-3.001302 -0.48178,-0.957032 -1.5625,-0.957032 -1.06771,0 -1.55599,0.944011 -0.48829,0.937503 -0.48829,3.014323 z"
         style="font-style:normal;font-variant:normal;font-weight:normal;font-stretch:normal;font-size:13.33333302px;font-family:'Open Sans';-inkscape-font-specification:'Open Sans'"
         id="path1286"
         inkscape:connector-curvature="0" /><path
         d="m 187.51107,107.52083 q -1.54948,0 -2.40235,-0.95052 -0.84635,-0.95703 -0.84635,-2.70182 0,-1.79036 0.85937,-2.76693 0.86589,-0.97656 2.46094,-0.97656 0.51433,0 1.02865,0.11068 0.51432,0.11067 0.80729,0.26041 l -0.33203,0.91797 q -0.35807,-0.14323 -0.78125,-0.23437 -0.42318,-0.0977 -0.7487,-0.0977 -2.17448,0 -2.17448,2.77344 0,1.3151 0.52735,2.01823 0.53385,0.70312 1.57552,0.70312 0.89192,0 1.82942,-0.38411 v 0.95703 q -0.71614,0.37109 -1.80338,0.37109 z"
         style="font-style:normal;font-variant:normal;font-weight:normal;font-stretch:normal;font-size:13.33333302px;font-family:'Open Sans';-inkscape-font-specification:'Open Sans'"
         id="path1288"
         inkscape:connector-curvature="0" /><path
         d="m 200.10221,107.39063 v -4.64193 q 0,-0.85287 -0.36458,-1.27604 -0.36458,-0.42969 -1.13281,-0.42969 -1.00912,0 -1.49089,0.57943 -0.48177,0.57942 -0.48177,1.78385 v 3.98438 h -1.08073 v -4.64193 q 0,-0.85287 -0.36458,-1.27604 -0.36458,-0.42969 -1.13932,-0.42969 -1.01563,0 -1.49089,0.61198 -0.46875,0.60547 -0.46875,1.99219 v 3.74349 h -1.08073 v -7.13542 h 0.87891 l 0.17578,0.97656 h 0.0521 q 0.30599,-0.52083 0.85938,-0.8138 0.55989,-0.29297 1.25,-0.29297 1.67317,0 2.1875,1.21094 h 0.0521 q 0.31901,-0.5599 0.92448,-0.88542 0.60547,-0.32552 1.38021,-0.32552 1.21094,0 1.80989,0.625 0.60547,0.61849 0.60547,1.98568 v 4.65495 z"
         style="font-style:normal;font-variant:normal;font-weight:normal;font-stretch:normal;font-size:13.33333302px;font-family:'Open Sans';-inkscape-font-specification:'Open Sans'"
         id="path1290"
         inkscape:connector-curvature="0" /></g><g
       aria-label="3 cm"
       transform="matrix(0.75000002,0,0,0.75000002,-69.34837,654.05727)"
       style="font-style:normal;font-weight:normal;font-size:40px;line-height:1.25;font-family:sans-serif;letter-spacing:0px;word-spacing:0px;fill:#000000;fill-opacity:1;stroke:none"
       id="flowRoot1089"><path
         d="m 171.35221,100.11198 q 0,0.91146 -0.51432,1.49088 -0.50781,0.57943 -1.44531,0.77474 v 0.0521 q 1.14583,0.14323 1.69922,0.72916 0.55338,0.58594 0.55338,1.53646 0,1.36068 -0.94401,2.09636 -0.94401,0.72916 -2.68229,0.72916 -0.75521,0 -1.38672,-0.11718 -0.625,-0.11068 -1.21745,-0.39714 v -1.02865 q 0.61849,0.30599 1.31511,0.46875 0.70312,0.15625 1.32812,0.15625 2.46745,0 2.46745,-1.93359 0,-1.73177 -2.72135,-1.73177 h -0.9375 v -0.93099 h 0.95052 q 1.11328,0 1.76432,-0.48828 0.65104,-0.49479 0.65104,-1.36719 0,-0.696613 -0.48177,-1.093748 -0.47526,-0.397136 -1.29557,-0.397136 -0.625,0 -1.17839,0.169271 -0.55338,0.169271 -1.26302,0.625 l -0.54687,-0.729166 q 0.58593,-0.46224 1.34765,-0.722657 0.76823,-0.266927 1.61459,-0.266927 1.38672,0 2.15494,0.638021 0.76823,0.631511 0.76823,1.738282 z"
         style="font-style:normal;font-variant:normal;font-weight:normal;font-stretch:normal;font-size:13.33333302px;font-family:'Open Sans';-inkscape-font-specification:'Open Sans'"
         id="path1277"
         inkscape:connector-curvature="0" /><path
         d="m 179.88737,107.52083 q -1.54948,0 -2.40234,-0.95052 -0.84636,-0.95703 -0.84636,-2.70182 0,-1.79036 0.85938,-2.76693 0.86588,-0.97656 2.46093,-0.97656 0.51433,0 1.02865,0.11068 0.51432,0.11067 0.80729,0.26041 l -0.33203,0.91797 q -0.35807,-0.14323 -0.78125,-0.23437 -0.42318,-0.0977 -0.7487,-0.0977 -2.17448,0 -2.17448,2.77344 0,1.3151 0.52735,2.01823 0.53385,0.70312 1.57552,0.70312 0.89192,0 1.82942,-0.38411 v 0.95703 q -0.71614,0.37109 -1.80338,0.37109 z"
         style="font-style:normal;font-variant:normal;font-weight:normal;font-stretch:normal;font-size:13.33333302px;font-family:'Open Sans';-inkscape-font-specification:'Open Sans'"
         id="path1279"
         inkscape:connector-curvature="0" /><path
         d="m 192.47851,107.39063 v -4.64193 q 0,-0.85287 -0.36458,-1.27604 -0.36458,-0.42969 -1.13281,-0.42969 -1.00912,0 -1.49089,0.57943 -0.48177,0.57942 -0.48177,1.78385 v 3.98438 h -1.08073 v -4.64193 q 0,-0.85287 -0.36458,-1.27604 -0.36458,-0.42969 -1.13932,-0.42969 -1.01563,0 -1.49089,0.61198 -0.46875,0.60547 -0.46875,1.99219 v 3.74349 h -1.08073 v -7.13542 h 0.87891 l 0.17578,0.97656 h 0.0521 q 0.30599,-0.52083 0.85938,-0.8138 0.55989,-0.29297 1.25,-0.29297 1.67318,0 2.1875,1.21094 h 0.0521 q 0.31901,-0.5599 0.92448,-0.88542 0.60547,-0.32552 1.38021,-0.32552 1.21094,0 1.80989,0.625 0.60547,0.61849 0.60547,1.98568 v 4.65495 z"
         style="font-style:normal;font-variant:normal;font-weight:normal;font-stretch:normal;font-size:13.33333302px;font-family:'Open Sans';-inkscape-font-specification:'Open Sans'"
         id="path1281"
         inkscape:connector-curvature="0" /></g><g
       aria-label="5 cm"
       transform="matrix(0.75000002,0,0,0.75000002,-3.8910439,714.05727)"
       style="font-style:normal;font-weight:normal;font-size:40px;line-height:1.25;font-family:sans-serif;letter-spacing:0px;word-spacing:0px;fill:#000000;fill-opacity:1;stroke:none"
       id="flowRoot1097"><path
         d="m 168.42904,101.57682 q 1.5039,0 2.36328,0.7487 0.86588,0.74219 0.86588,2.03776 0,1.47787 -0.94401,2.31771 -0.9375,0.83984 -2.59114,0.83984 -1.60808,0 -2.45443,-0.51432 v -1.04167 q 0.45573,0.29297 1.13281,0.46224 0.67709,0.16276 1.33464,0.16276 1.14583,0 1.77734,-0.54036 0.63802,-0.54037 0.63802,-1.5625 0,-1.99219 -2.4414,-1.99219 -0.61849,0 -1.65365,0.1888 l -0.5599,-0.35807 0.35808,-4.453124 h 4.73307 v 0.996094 h -3.80859 l -0.24089,2.85807 q 0.7487,-0.14974 1.49089,-0.14974 z"
         style="font-style:normal;font-variant:normal;font-weight:normal;font-stretch:normal;font-size:13.33333302px;font-family:'Open Sans';-inkscape-font-specification:'Open Sans'"
         id="path1261"
         inkscape:connector-curvature="0" /><path
         d="m 179.88737,107.52083 q -1.54948,0 -2.40234,-0.95052 -0.84636,-0.95703 -0.84636,-2.70182 0,-1.79036 0.85938,-2.76693 0.86588,-0.97656 2.46093,-0.97656 0.51433,0 1.02865,0.11068 0.51432,0.11067 0.80729,0.26041 l -0.33203,0.91797 q -0.35807,-0.14323 -0.78125,-0.23437 -0.42318,-0.0977 -0.7487,-0.0977 -2.17448,0 -2.17448,2.77344 0,1.3151 0.52735,2.01823 0.53385,0.70312 1.57552,0.70312 0.89192,0 1.82942,-0.38411 v 0.95703 q -0.71614,0.37109 -1.80338,0.37109 z"
         style="font-style:normal;font-variant:normal;font-weight:normal;font-stretch:normal;font-size:13.33333302px;font-family:'Open Sans';-inkscape-font-specification:'Open Sans'"
         id="path1263"
         inkscape:connector-curvature="0" /><path
         d="m 192.47851,107.39063 v -4.64193 q 0,-0.85287 -0.36458,-1.27604 -0.36458,-0.42969 -1.13281,-0.42969 -1.00912,0 -1.49089,0.57943 -0.48177,0.57942 -0.48177,1.78385 v 3.98438 h -1.08073 v -4.64193 q 0,-0.85287 -0.36458,-1.27604 -0.36458,-0.42969 -1.13932,-0.42969 -1.01563,0 -1.49089,0.61198 -0.46875,0.60547 -0.46875,1.99219 v 3.74349 h -1.08073 v -7.13542 h 0.87891 l 0.17578,0.97656 h 0.0521 q 0.30599,-0.52083 0.85938,-0.8138 0.55989,-0.29297 1.25,-0.29297 1.67318,0 2.1875,1.21094 h 0.0521 q 0.31901,-0.5599 0.92448,-0.88542 0.60547,-0.32552 1.38021,-0.32552 1.21094,0 1.80989,0.625 0.60547,0.61849 0.60547,1.98568 v 4.65495 z"
         style="font-style:normal;font-variant:normal;font-weight:normal;font-stretch:normal;font-size:13.33333302px;font-family:'Open Sans';-inkscape-font-specification:'Open Sans'"
         id="path1265"
         inkscape:connector-curvature="0" /></g><g
       aria-label="50 cm"
       transform="matrix(0.75000002,0,0,0.75000002,-69.891044,729.05727)"
       style="font-style:normal;font-weight:normal;font-size:40px;line-height:1.25;font-family:sans-serif;letter-spacing:0px;word-spacing:0px;fill:#000000;fill-opacity:1;stroke:none"
       id="flowRoot1105"><path
         d="m 168.42904,101.57682 q 1.5039,0 2.36328,0.7487 0.86588,0.74219 0.86588,2.03776 0,1.47787 -0.94401,2.31771 -0.9375,0.83984 -2.59114,0.83984 -1.60808,0 -2.45443,-0.51432 v -1.04167 q 0.45573,0.29297 1.13281,0.46224 0.67709,0.16276 1.33464,0.16276 1.14583,0 1.77734,-0.54036 0.63802,-0.54037 0.63802,-1.5625 0,-1.99219 -2.4414,-1.99219 -0.61849,0 -1.65365,0.1888 l -0.5599,-0.35807 0.35808,-4.453124 h 4.73307 v 0.996094 h -3.80859 l -0.24089,2.85807 q 0.7487,-0.14974 1.49089,-0.14974 z"
         style="font-style:normal;font-variant:normal;font-weight:normal;font-stretch:normal;font-size:13.33333302px;font-family:'Open Sans';-inkscape-font-specification:'Open Sans'"
         id="path1268"
         inkscape:connector-curvature="0" /><path
         d="m 179.38607,102.61849 q 0,2.46745 -0.78125,3.6849 -0.77474,1.21744 -2.3763,1.21744 -1.53646,0 -2.33724,-1.24349 -0.80079,-1.25 -0.80079,-3.65885 0,-2.48698 0.77474,-3.691406 0.77474,-1.204428 2.36329,-1.204428 1.54947,0 2.35026,1.256511 0.80729,1.256513 0.80729,3.639323 z m -5.20183,0 q 0,2.07682 0.48829,3.02734 0.48828,0.94401 1.55599,0.94401 1.08072,0 1.5625,-0.95703 0.48828,-0.96354 0.48828,-3.01432 0,-2.05078 -0.48828,-3.001302 -0.48178,-0.957032 -1.5625,-0.957032 -1.06771,0 -1.55599,0.944011 -0.48829,0.937503 -0.48829,3.014323 z"
         style="font-style:normal;font-variant:normal;font-weight:normal;font-stretch:normal;font-size:13.33333302px;font-family:'Open Sans';-inkscape-font-specification:'Open Sans'"
         id="path1270"
         inkscape:connector-curvature="0" /><path
         d="m 187.51107,107.52083 q -1.54948,0 -2.40235,-0.95052 -0.84635,-0.95703 -0.84635,-2.70182 0,-1.79036 0.85937,-2.76693 0.86589,-0.97656 2.46094,-0.97656 0.51433,0 1.02865,0.11068 0.51432,0.11067 0.80729,0.26041 l -0.33203,0.91797 q -0.35807,-0.14323 -0.78125,-0.23437 -0.42318,-0.0977 -0.7487,-0.0977 -2.17448,0 -2.17448,2.77344 0,1.3151 0.52735,2.01823 0.53385,0.70312 1.57552,0.70312 0.89192,0 1.82942,-0.38411 v 0.95703 q -0.71614,0.37109 -1.80338,0.37109 z"
         style="font-style:normal;font-variant:normal;font-weight:normal;font-stretch:normal;font-size:13.33333302px;font-family:'Open Sans';-inkscape-font-specification:'Open Sans'"
         id="path1272"
         inkscape:connector-curvature="0" /><path
         d="m 200.10221,107.39063 v -4.64193 q 0,-0.85287 -0.36458,-1.27604 -0.36458,-0.42969 -1.13281,-0.42969 -1.00912,0 -1.49089,0.57943 -0.48177,0.57942 -0.48177,1.78385 v 3.98438 h -1.08073 v -4.64193 q 0,-0.85287 -0.36458,-1.27604 -0.36458,-0.42969 -1.13932,-0.42969 -1.01563,0 -1.49089,0.61198 -0.46875,0.60547 -0.46875,1.99219 v 3.74349 h -1.08073 v -7.13542 h 0.87891 l 0.17578,0.97656 h 0.0521 q 0.30599,-0.52083 0.85938,-0.8138 0.55989,-0.29297 1.25,-0.29297 1.67317,0 2.1875,1.21094 h 0.0521 q 0.31901,-0.5599 0.92448,-0.88542 0.60547,-0.32552 1.38021,-0.32552 1.21094,0 1.80989,0.625 0.60547,0.61849 0.60547,1.98568 v 4.65495 z"
         style="font-style:normal;font-variant:normal;font-weight:normal;font-stretch:normal;font-size:13.33333302px;font-family:'Open Sans';-inkscape-font-specification:'Open Sans'"
         id="path1274"
         inkscape:connector-curvature="0" /></g><g
       aria-label="20 cm"
       transform="matrix(0.75000002,0,0,0.75000002,-90.042132,594.05727)"
       style="font-style:normal;font-weight:normal;font-size:40px;line-height:1.25;font-family:sans-serif;letter-spacing:0px;word-spacing:0px;fill:#000000;fill-opacity:1;stroke:none"
       id="flowRoot1113"><path
         d="m 171.71029,107.39063 h -6.25651 v -0.93099 l 2.50651,-2.51954 q 1.14583,-1.15885 1.51041,-1.65364 0.36459,-0.49479 0.54688,-0.96354 0.18229,-0.46875 0.18229,-1.00912 0,-0.761716 -0.46224,-1.204425 -0.46224,-0.449219 -1.28255,-0.449219 -0.59245,0 -1.1263,0.195313 -0.52735,0.195312 -1.17839,0.709635 l -0.57292,-0.735677 q 1.31511,-1.09375 2.86459,-1.09375 1.34114,0 2.10286,0.690104 0.76172,0.683594 0.76172,1.842449 0,0.90495 -0.50781,1.79036 -0.50781,0.88542 -1.90104,2.23959 l -2.08334,2.03776 v 0.0521 h 4.89584 z"
         style="font-style:normal;font-variant:normal;font-weight:normal;font-stretch:normal;font-size:13.33333302px;font-family:'Open Sans';-inkscape-font-specification:'Open Sans'"
         id="path1252"
         inkscape:connector-curvature="0" /><path
         d="m 179.38607,102.61849 q 0,2.46745 -0.78125,3.6849 -0.77474,1.21744 -2.3763,1.21744 -1.53646,0 -2.33724,-1.24349 -0.80079,-1.25 -0.80079,-3.65885 0,-2.48698 0.77474,-3.691406 0.77474,-1.204428 2.36329,-1.204428 1.54947,0 2.35026,1.256511 0.80729,1.256513 0.80729,3.639323 z m -5.20183,0 q 0,2.07682 0.48829,3.02734 0.48828,0.94401 1.55599,0.94401 1.08072,0 1.5625,-0.95703 0.48828,-0.96354 0.48828,-3.01432 0,-2.05078 -0.48828,-3.001302 -0.48178,-0.957032 -1.5625,-0.957032 -1.06771,0 -1.55599,0.944011 -0.48829,0.937503 -0.48829,3.014323 z"
         style="font-style:normal;font-variant:normal;font-weight:normal;font-stretch:normal;font-size:13.33333302px;font-family:'Open Sans';-inkscape-font-specification:'Open Sans'"
         id="path1254"
         inkscape:connector-curvature="0" /><path
         d="m 187.51107,107.52083 q -1.54948,0 -2.40235,-0.95052 -0.84635,-0.95703 -0.84635,-2.70182 0,-1.79036 0.85937,-2.76693 0.86589,-0.97656 2.46094,-0.97656 0.51433,0 1.02865,0.11068 0.51432,0.11067 0.80729,0.26041 l -0.33203,0.91797 q -0.35807,-0.14323 -0.78125,-0.23437 -0.42318,-0.0977 -0.7487,-0.0977 -2.17448,0 -2.17448,2.77344 0,1.3151 0.52735,2.01823 0.53385,0.70312 1.57552,0.70312 0.89192,0 1.82942,-0.38411 v 0.95703 q -0.71614,0.37109 -1.80338,0.37109 z"
         style="font-style:normal;font-variant:normal;font-weight:normal;font-stretch:normal;font-size:13.33333302px;font-family:'Open Sans';-inkscape-font-specification:'Open Sans'"
         id="path1256"
         inkscape:connector-curvature="0" /><path
         d="m 200.10221,107.39063 v -4.64193 q 0,-0.85287 -0.36458,-1.27604 -0.36458,-0.42969 -1.13281,-0.42969 -1.00912,0 -1.49089,0.57943 -0.48177,0.57942 -0.48177,1.78385 v 3.98438 h -1.08073 v -4.64193 q 0,-0.85287 -0.36458,-1.27604 -0.36458,-0.42969 -1.13932,-0.42969 -1.01563,0 -1.49089,0.61198 -0.46875,0.60547 -0.46875,1.99219 v 3.74349 h -1.08073 v -7.13542 h 0.87891 l 0.17578,0.97656 h 0.0521 q 0.30599,-0.52083 0.85938,-0.8138 0.55989,-0.29297 1.25,-0.29297 1.67317,0 2.1875,1.21094 h 0.0521 q 0.31901,-0.5599 0.92448,-0.88542 0.60547,-0.32552 1.38021,-0.32552 1.21094,0 1.80989,0.625 0.60547,0.61849 0.60547,1.98568 v 4.65495 z"
         style="font-style:normal;font-variant:normal;font-weight:normal;font-stretch:normal;font-size:13.33333302px;font-family:'Open Sans';-inkscape-font-specification:'Open Sans'"
         id="path1258"
         inkscape:connector-curvature="0" /></g><g
       aria-label="1 cm"
       transform="matrix(0.75000002,0,0,0.75000002,-40.542132,582.05727)"
       style="font-style:normal;font-weight:normal;font-size:40px;line-height:1.25;font-family:sans-serif;letter-spacing:0px;word-spacing:0px;fill:#000000;fill-opacity:1;stroke:none"
       id="flowRoot1121"><path
         d="m 169.45768,107.39063 h -1.05469 v -6.78386 q 0,-0.846353 0.0521,-1.601561 -0.13672,0.136718 -0.30599,0.286458 -0.16927,0.149739 -1.54948,1.269533 l -0.57292,-0.742189 2.51953,-1.946615 h 0.91146 z"
         style="font-style:normal;font-variant:normal;font-weight:normal;font-stretch:normal;font-size:13.33333302px;font-family:'Open Sans';-inkscape-font-specification:'Open Sans'"
         id="path1245"
         inkscape:connector-curvature="0" /><path
         d="m 179.88737,107.52083 q -1.54948,0 -2.40234,-0.95052 -0.84636,-0.95703 -0.84636,-2.70182 0,-1.79036 0.85938,-2.76693 0.86588,-0.97656 2.46093,-0.97656 0.51433,0 1.02865,0.11068 0.51432,0.11067 0.80729,0.26041 l -0.33203,0.91797 q -0.35807,-0.14323 -0.78125,-0.23437 -0.42318,-0.0977 -0.7487,-0.0977 -2.17448,0 -2.17448,2.77344 0,1.3151 0.52735,2.01823 0.53385,0.70312 1.57552,0.70312 0.89192,0 1.82942,-0.38411 v 0.95703 q -0.71614,0.37109 -1.80338,0.37109 z"
         style="font-style:normal;font-variant:normal;font-weight:normal;font-stretch:normal;font-size:13.33333302px;font-family:'Open Sans';-inkscape-font-specification:'Open Sans'"
         id="path1247"
         inkscape:connector-curvature="0" /><path
         d="m 192.47851,107.39063 v -4.64193 q 0,-0.85287 -0.36458,-1.27604 -0.36458,-0.42969 -1.13281,-0.42969 -1.00912,0 -1.49089,0.57943 -0.48177,0.57942 -0.48177,1.78385 v 3.98438 h -1.08073 v -4.64193 q 0,-0.85287 -0.36458,-1.27604 -0.36458,-0.42969 -1.13932,-0.42969 -1.01563,0 -1.49089,0.61198 -0.46875,0.60547 -0.46875,1.99219 v 3.74349 h -1.08073 v -7.13542 h 0.87891 l 0.17578,0.97656 h 0.0521 q 0.30599,-0.52083 0.85938,-0.8138 0.55989,-0.29297 1.25,-0.29297 1.67318,0 2.1875,1.21094 h 0.0521 q 0.31901,-0.5599 0.92448,-0.88542 0.60547,-0.32552 1.38021,-0.32552 1.21094,0 1.80989,0.625 0.60547,0.61849 0.60547,1.98568 v 4.65495 z"
         style="font-style:normal;font-variant:normal;font-weight:normal;font-stretch:normal;font-size:13.33333302px;font-family:'Open Sans';-inkscape-font-specification:'Open Sans'"
         id="path1249"
         inkscape:connector-curvature="0" /></g><g
       aria-label="2 m"
       transform="matrix(0.75000002,0,0,0.75000002,212.30193,561.05727)"
       style="font-style:normal;font-weight:normal;font-size:40px;line-height:1.25;font-family:sans-serif;letter-spacing:0px;word-spacing:0px;fill:#000000;fill-opacity:1;stroke:none"
       id="flowRoot1129"><path
         d="m 171.71029,107.39063 h -6.25651 v -0.93099 l 2.50651,-2.51954 q 1.14583,-1.15885 1.51041,-1.65364 0.36459,-0.49479 0.54688,-0.96354 0.18229,-0.46875 0.18229,-1.00912 0,-0.761716 -0.46224,-1.204425 -0.46224,-0.449219 -1.28255,-0.449219 -0.59245,0 -1.1263,0.195313 -0.52735,0.195312 -1.17839,0.709635 l -0.57292,-0.735677 q 1.31511,-1.09375 2.86459,-1.09375 1.34114,0 2.10286,0.690104 0.76172,0.683594 0.76172,1.842449 0,0.90495 -0.50781,1.79036 -0.50781,0.88542 -1.90104,2.23959 l -2.08334,2.03776 v 0.0521 h 4.89584 z"
         style="font-style:normal;font-variant:normal;font-weight:normal;font-stretch:normal;font-size:13.33333302px;font-family:'Open Sans';-inkscape-font-specification:'Open Sans'"
         id="path1231"
         inkscape:connector-curvature="0" /><path
         d="m 186.13086,107.39063 v -4.64193 q 0,-0.85287 -0.36458,-1.27604 -0.36459,-0.42969 -1.13282,-0.42969 -1.00911,0 -1.49088,0.57943 -0.48177,0.57942 -0.48177,1.78385 v 3.98438 h -1.08073 v -4.64193 q 0,-0.85287 -0.36459,-1.27604 -0.36458,-0.42969 -1.13932,-0.42969 -1.01562,0 -1.49088,0.61198 -0.46875,0.60547 -0.46875,1.99219 v 3.74349 h -1.08073 v -7.13542 h 0.8789 l 0.17578,0.97656 h 0.0521 q 0.30599,-0.52083 0.85937,-0.8138 0.5599,-0.29297 1.25,-0.29297 1.67318,0 2.1875,1.21094 h 0.0521 q 0.31901,-0.5599 0.92448,-0.88542 0.60546,-0.32552 1.3802,-0.32552 1.21094,0 1.8099,0.625 0.60547,0.61849 0.60547,1.98568 v 4.65495 z"
         style="font-style:normal;font-variant:normal;font-weight:normal;font-stretch:normal;font-size:13.33333302px;font-family:'Open Sans';-inkscape-font-specification:'Open Sans'"
         id="path1233"
         inkscape:connector-curvature="0" /></g><g
       aria-label="13 cm"
       transform="matrix(0.75000002,0,0,0.75000002,323.30193,540.05727)"
       style="font-style:normal;font-weight:normal;font-size:40px;line-height:1.25;font-family:sans-serif;letter-spacing:0px;word-spacing:0px;fill:#000000;fill-opacity:1;stroke:none"
       id="flowRoot1137"><path
         d="m 169.45768,107.39063 h -1.05469 v -6.78386 q 0,-0.846353 0.0521,-1.601561 -0.13672,0.136718 -0.30599,0.286458 -0.16927,0.149739 -1.54948,1.269533 l -0.57292,-0.742189 2.51953,-1.946615 h 0.91146 z"
         style="font-style:normal;font-variant:normal;font-weight:normal;font-stretch:normal;font-size:13.33333302px;font-family:'Open Sans';-inkscape-font-specification:'Open Sans'"
         id="path1236"
         inkscape:connector-curvature="0" /><path
         d="m 178.97591,100.11198 q 0,0.91146 -0.51432,1.49088 -0.50781,0.57943 -1.44531,0.77474 v 0.0521 q 1.14583,0.14323 1.69921,0.72916 0.55339,0.58594 0.55339,1.53646 0,1.36068 -0.94401,2.09636 -0.94401,0.72916 -2.68229,0.72916 -0.75521,0 -1.38672,-0.11718 -0.625,-0.11068 -1.21745,-0.39714 v -1.02865 q 0.61849,0.30599 1.31511,0.46875 0.70312,0.15625 1.32812,0.15625 2.46745,0 2.46745,-1.93359 0,-1.73177 -2.72136,-1.73177 h -0.9375 v -0.93099 h 0.95052 q 1.11329,0 1.76433,-0.48828 0.65104,-0.49479 0.65104,-1.36719 0,-0.696613 -0.48177,-1.093748 -0.47526,-0.397136 -1.29557,-0.397136 -0.625,0 -1.17839,0.169271 -0.55338,0.169271 -1.26302,0.625 l -0.54688,-0.729166 q 0.58594,-0.46224 1.34766,-0.722657 0.76823,-0.266927 1.61458,-0.266927 1.38672,0 2.15495,0.638021 0.76823,0.631511 0.76823,1.738282 z"
         style="font-style:normal;font-variant:normal;font-weight:normal;font-stretch:normal;font-size:13.33333302px;font-family:'Open Sans';-inkscape-font-specification:'Open Sans'"
         id="path1238"
         inkscape:connector-curvature="0" /><path
         d="m 187.51107,107.52083 q -1.54948,0 -2.40235,-0.95052 -0.84635,-0.95703 -0.84635,-2.70182 0,-1.79036 0.85937,-2.76693 0.86589,-0.97656 2.46094,-0.97656 0.51433,0 1.02865,0.11068 0.51432,0.11067 0.80729,0.26041 l -0.33203,0.91797 q -0.35807,-0.14323 -0.78125,-0.23437 -0.42318,-0.0977 -0.7487,-0.0977 -2.17448,0 -2.17448,2.77344 0,1.3151 0.52735,2.01823 0.53385,0.70312 1.57552,0.70312 0.89192,0 1.82942,-0.38411 v 0.95703 q -0.71614,0.37109 -1.80338,0.37109 z"
         style="font-style:normal;font-variant:normal;font-weight:normal;font-stretch:normal;font-size:13.33333302px;font-family:'Open Sans';-inkscape-font-specification:'Open Sans'"
         id="path1240"
         inkscape:connector-curvature="0" /><path
         d="m 200.10221,107.39063 v -4.64193 q 0,-0.85287 -0.36458,-1.27604 -0.36458,-0.42969 -1.13281,-0.42969 -1.00912,0 -1.49089,0.57943 -0.48177,0.57942 -0.48177,1.78385 v 3.98438 h -1.08073 v -4.64193 q 0,-0.85287 -0.36458,-1.27604 -0.36458,-0.42969 -1.13932,-0.42969 -1.01563,0 -1.49089,0.61198 -0.46875,0.60547 -0.46875,1.99219 v 3.74349 h -1.08073 v -7.13542 h 0.87891 l 0.17578,0.97656 h 0.0521 q 0.30599,-0.52083 0.85938,-0.8138 0.55989,-0.29297 1.25,-0.29297 1.67317,0 2.1875,1.21094 h 0.0521 q 0.31901,-0.5599 0.92448,-0.88542 0.60547,-0.32552 1.38021,-0.32552 1.21094,0 1.80989,0.625 0.60547,0.61849 0.60547,1.98568 v 4.65495 z"
         style="font-style:normal;font-variant:normal;font-weight:normal;font-stretch:normal;font-size:13.33333302px;font-family:'Open Sans';-inkscape-font-specification:'Open Sans'"
         id="path1242"
         inkscape:connector-curvature="0" /></g><g
       aria-label="1 m"
       transform="matrix(0.75000002,0,0,0.75000002,182.03946,445.55727)"
       style="font-style:normal;font-weight:normal;font-size:40px;line-height:1.25;font-family:sans-serif;letter-spacing:0px;word-spacing:0px;fill:#000000;fill-opacity:1;stroke:none"
       id="flowRoot1145"><path
         d="m 169.45768,107.39063 h -1.05469 v -6.78386 q 0,-0.846353 0.0521,-1.601561 -0.13672,0.136718 -0.30599,0.286458 -0.16927,0.149739 -1.54948,1.269533 l -0.57292,-0.742189 2.51953,-1.946615 h 0.91146 z"
         style="font-style:normal;font-variant:normal;font-weight:normal;font-stretch:normal;font-size:13.33333302px;font-family:'Open Sans';-inkscape-font-specification:'Open Sans'"
         id="path1194"
         inkscape:connector-curvature="0" /><path
         d="m 186.13086,107.39063 v -4.64193 q 0,-0.85287 -0.36458,-1.27604 -0.36459,-0.42969 -1.13282,-0.42969 -1.00911,0 -1.49088,0.57943 -0.48177,0.57942 -0.48177,1.78385 v 3.98438 h -1.08073 v -4.64193 q 0,-0.85287 -0.36459,-1.27604 -0.36458,-0.42969 -1.13932,-0.42969 -1.01562,0 -1.49088,0.61198 -0.46875,0.60547 -0.46875,1.99219 v 3.74349 h -1.08073 v -7.13542 h 0.8789 l 0.17578,0.97656 h 0.0521 q 0.30599,-0.52083 0.85937,-0.8138 0.5599,-0.29297 1.25,-0.29297 1.67318,0 2.1875,1.21094 h 0.0521 q 0.31901,-0.5599 0.92448,-0.88542 0.60546,-0.32552 1.3802,-0.32552 1.21094,0 1.8099,0.625 0.60547,0.61849 0.60547,1.98568 v 4.65495 z"
         style="font-style:normal;font-variant:normal;font-weight:normal;font-stretch:normal;font-size:13.33333302px;font-family:'Open Sans';-inkscape-font-specification:'Open Sans'"
         id="path1196"
         inkscape:connector-curvature="0" /></g><g
       aria-label="9 cm"
       transform="matrix(0.75000002,0,0,0.75000002,279.48112,430.10334)"
       style="font-style:normal;font-weight:normal;font-size:40px;line-height:1.25;font-family:sans-serif;letter-spacing:0px;word-spacing:0px;fill:#000000;fill-opacity:1;stroke:none"
       id="flowRoot1153"><path
         d="m 171.71029,101.9349 q 0,5.58593 -4.32292,5.58593 -0.75521,0 -1.19792,-0.1302 v -0.93099 q 0.52084,0.16927 1.1849,0.16927 1.5625,0 2.35677,-0.96355 0.80078,-0.97005 0.8724,-2.96875 h -0.0781 q -0.35807,0.54037 -0.95052,0.82683 -0.59245,0.27995 -1.33464,0.27995 -1.26302,0 -2.0052,-0.75521 -0.74219,-0.75521 -0.74219,-2.10938 0,-1.484373 0.82682,-2.343748 0.83333,-0.859375 2.1875,-0.859375 0.97005,0 1.69271,0.501302 0.72917,0.494792 1.11979,1.451823 0.39063,0.950518 0.39063,2.246098 z m -3.20313,-3.274744 q -0.93099,0 -1.4388,0.598959 -0.50781,0.598958 -0.50781,1.666665 0,0.9375 0.46875,1.47787 0.46875,0.53385 1.42578,0.53385 0.59245,0 1.08724,-0.24089 0.5013,-0.24088 0.78776,-0.65755 0.28646,-0.41666 0.28646,-0.87239 0,-0.6836 -0.26693,-1.263024 -0.26693,-0.579427 -0.7487,-0.911458 -0.47526,-0.332032 -1.09375,-0.332032 z"
         style="font-style:normal;font-variant:normal;font-weight:normal;font-stretch:normal;font-size:13.33333302px;font-family:'Open Sans';-inkscape-font-specification:'Open Sans'"
         id="path1187"
         inkscape:connector-curvature="0" /><path
         d="m 179.88737,107.52083 q -1.54948,0 -2.40234,-0.95052 -0.84636,-0.95703 -0.84636,-2.70182 0,-1.79036 0.85938,-2.76693 0.86588,-0.97656 2.46093,-0.97656 0.51433,0 1.02865,0.11068 0.51432,0.11067 0.80729,0.26041 l -0.33203,0.91797 q -0.35807,-0.14323 -0.78125,-0.23437 -0.42318,-0.0977 -0.7487,-0.0977 -2.17448,0 -2.17448,2.77344 0,1.3151 0.52735,2.01823 0.53385,0.70312 1.57552,0.70312 0.89192,0 1.82942,-0.38411 v 0.95703 q -0.71614,0.37109 -1.80338,0.37109 z"
         style="font-style:normal;font-variant:normal;font-weight:normal;font-stretch:normal;font-size:13.33333302px;font-family:'Open Sans';-inkscape-font-specification:'Open Sans'"
         id="path1189"
         inkscape:connector-curvature="0" /><path
         d="m 192.47851,107.39063 v -4.64193 q 0,-0.85287 -0.36458,-1.27604 -0.36458,-0.42969 -1.13281,-0.42969 -1.00912,0 -1.49089,0.57943 -0.48177,0.57942 -0.48177,1.78385 v 3.98438 h -1.08073 v -4.64193 q 0,-0.85287 -0.36458,-1.27604 -0.36458,-0.42969 -1.13932,-0.42969 -1.01563,0 -1.49089,0.61198 -0.46875,0.60547 -0.46875,1.99219 v 3.74349 h -1.08073 v -7.13542 h 0.87891 l 0.17578,0.97656 h 0.0521 q 0.30599,-0.52083 0.85938,-0.8138 0.55989,-0.29297 1.25,-0.29297 1.67318,0 2.1875,1.21094 h 0.0521 q 0.31901,-0.5599 0.92448,-0.88542 0.60547,-0.32552 1.38021,-0.32552 1.21094,0 1.80989,0.625 0.60547,0.61849 0.60547,1.98568 v 4.65495 z"
         style="font-style:normal;font-variant:normal;font-weight:normal;font-stretch:normal;font-size:13.33333302px;font-family:'Open Sans';-inkscape-font-specification:'Open Sans'"
         id="path1191"
         inkscape:connector-curvature="0" /></g><g
       aria-label="3 m"
       transform="matrix(0.75000002,0,0,0.75000002,213.37507,745.55727)"
       style="font-style:normal;font-weight:normal;font-size:40px;line-height:1.25;font-family:sans-serif;letter-spacing:0px;word-spacing:0px;fill:#000000;fill-opacity:1;stroke:none"
       id="flowRoot1161"><path
         d="m 171.35221,100.11198 q 0,0.91146 -0.51432,1.49088 -0.50781,0.57943 -1.44531,0.77474 v 0.0521 q 1.14583,0.14323 1.69922,0.72916 0.55338,0.58594 0.55338,1.53646 0,1.36068 -0.94401,2.09636 -0.94401,0.72916 -2.68229,0.72916 -0.75521,0 -1.38672,-0.11718 -0.625,-0.11068 -1.21745,-0.39714 v -1.02865 q 0.61849,0.30599 1.31511,0.46875 0.70312,0.15625 1.32812,0.15625 2.46745,0 2.46745,-1.93359 0,-1.73177 -2.72135,-1.73177 h -0.9375 v -0.93099 h 0.95052 q 1.11328,0 1.76432,-0.48828 0.65104,-0.49479 0.65104,-1.36719 0,-0.696613 -0.48177,-1.093748 -0.47526,-0.397136 -1.29557,-0.397136 -0.625,0 -1.17839,0.169271 -0.55338,0.169271 -1.26302,0.625 l -0.54687,-0.729166 q 0.58593,-0.46224 1.34765,-0.722657 0.76823,-0.266927 1.61459,-0.266927 1.38672,0 2.15494,0.638021 0.76823,0.631511 0.76823,1.738282 z"
         style="font-style:normal;font-variant:normal;font-weight:normal;font-stretch:normal;font-size:13.33333302px;font-family:'Open Sans';-inkscape-font-specification:'Open Sans'"
         id="path1210"
         inkscape:connector-curvature="0" /><path
         d="m 186.13086,107.39063 v -4.64193 q 0,-0.85287 -0.36458,-1.27604 -0.36459,-0.42969 -1.13282,-0.42969 -1.00911,0 -1.49088,0.57943 -0.48177,0.57942 -0.48177,1.78385 v 3.98438 h -1.08073 v -4.64193 q 0,-0.85287 -0.36459,-1.27604 -0.36458,-0.42969 -1.13932,-0.42969 -1.01562,0 -1.49088,0.61198 -0.46875,0.60547 -0.46875,1.99219 v 3.74349 h -1.08073 v -7.13542 h 0.8789 l 0.17578,0.97656 h 0.0521 q 0.30599,-0.52083 0.85937,-0.8138 0.5599,-0.29297 1.25,-0.29297 1.67318,0 2.1875,1.21094 h 0.0521 q 0.31901,-0.5599 0.92448,-0.88542 0.60546,-0.32552 1.3802,-0.32552 1.21094,0 1.8099,0.625 0.60547,0.61849 0.60547,1.98568 v 4.65495 z"
         style="font-style:normal;font-variant:normal;font-weight:normal;font-stretch:normal;font-size:13.33333302px;font-family:'Open Sans';-inkscape-font-specification:'Open Sans'"
         id="path1212"
         inkscape:connector-curvature="0" /></g><g
       aria-label="0,24 m"
       transform="matrix(0.75000002,0,0,0.75000002,324.6797,722.75374)"
       style="font-style:normal;font-weight:normal;font-size:40px;line-height:1.25;font-family:sans-serif;letter-spacing:0px;word-spacing:0px;fill:#000000;fill-opacity:1;stroke:none"
       id="flowRoot1169"><path
         d="m 171.76237,102.61849 q 0,2.46745 -0.78125,3.6849 -0.77474,1.21744 -2.3763,1.21744 -1.53646,0 -2.33724,-1.24349 -0.80078,-1.25 -0.80078,-3.65885 0,-2.48698 0.77474,-3.691406 0.77474,-1.204428 2.36328,-1.204428 1.54948,0 2.35026,1.256511 0.80729,1.256513 0.80729,3.639323 z m -5.20182,0 q 0,2.07682 0.48828,3.02734 0.48828,0.94401 1.55599,0.94401 1.08073,0 1.5625,-0.95703 0.48828,-0.96354 0.48828,-3.01432 0,-2.05078 -0.48828,-3.001302 -0.48177,-0.957032 -1.5625,-0.957032 -1.06771,0 -1.55599,0.944011 -0.48828,0.937503 -0.48828,3.014323 z"
         style="font-style:normal;font-variant:normal;font-weight:normal;font-stretch:normal;font-size:13.33333302px;font-family:'Open Sans';-inkscape-font-specification:'Open Sans'"
         id="path1199"
         inkscape:connector-curvature="0" /><path
         d="m 174.70508,105.84115 0.0976,0.14974 q -0.16927,0.65104 -0.48828,1.51041 -0.31901,0.86589 -0.66406,1.60807 h -0.8138 q 0.17578,-0.67708 0.38411,-1.67317 0.21485,-0.9961 0.29948,-1.59505 z"
         style="font-style:normal;font-variant:normal;font-weight:normal;font-stretch:normal;font-size:13.33333302px;font-family:'Open Sans';-inkscape-font-specification:'Open Sans'"
         id="path1201"
         inkscape:connector-curvature="0" /><path
         d="m 182.60221,107.39063 h -6.25651 v -0.93099 l 2.50651,-2.51954 q 1.14584,-1.15885 1.51042,-1.65364 0.36458,-0.49479 0.54687,-0.96354 0.1823,-0.46875 0.1823,-1.00912 0,-0.761716 -0.46224,-1.204425 -0.46224,-0.449219 -1.28256,-0.449219 -0.59244,0 -1.1263,0.195313 -0.52734,0.195312 -1.17838,0.709635 l -0.57292,-0.735677 q 1.3151,-1.09375 2.86458,-1.09375 1.34115,0 2.10287,0.690104 0.76172,0.683594 0.76172,1.842449 0,0.90495 -0.50782,1.79036 -0.50781,0.88542 -1.90104,2.23959 l -2.08333,2.03776 v 0.0521 h 4.89583 z"
         style="font-style:normal;font-variant:normal;font-weight:normal;font-stretch:normal;font-size:13.33333302px;font-family:'Open Sans';-inkscape-font-specification:'Open Sans'"
         id="path1203"
         inkscape:connector-curvature="0" /><path
         d="m 190.67513,105.20313 h -1.41276 v 2.1875 h -1.03516 v -2.1875 h -4.6289 v -0.94402 l 4.51823,-6.438797 h 1.14583 v 6.399737 h 1.41276 z m -2.44792,-0.98308 v -3.16406 q 0,-0.93099 0.0651,-2.102865 h -0.0521 q -0.3125,0.625 -0.58593,1.035156 l -2.97526,4.231769 z"
         style="font-style:normal;font-variant:normal;font-weight:normal;font-stretch:normal;font-size:13.33333302px;font-family:'Open Sans';-inkscape-font-specification:'Open Sans'"
         id="path1205"
         inkscape:connector-curvature="0" /><path
         d="m 204.64648,107.39063 v -4.64193 q 0,-0.85287 -0.36458,-1.27604 -0.36458,-0.42969 -1.13281,-0.42969 -1.00912,0 -1.49089,0.57943 -0.48177,0.57942 -0.48177,1.78385 v 3.98438 h -1.08073 v -4.64193 q 0,-0.85287 -0.36458,-1.27604 -0.36458,-0.42969 -1.13932,-0.42969 -1.01563,0 -1.49089,0.61198 -0.46875,0.60547 -0.46875,1.99219 v 3.74349 h -1.08073 v -7.13542 h 0.87891 l 0.17578,0.97656 h 0.0521 q 0.30599,-0.52083 0.85938,-0.8138 0.55989,-0.29297 1.25,-0.29297 1.67317,0 2.1875,1.21094 h 0.0521 q 0.31901,-0.5599 0.92448,-0.88542 0.60547,-0.32552 1.38021,-0.32552 1.21093,0 1.80989,0.625 0.60547,0.61849 0.60547,1.98568 v 4.65495 z"
         style="font-style:normal;font-variant:normal;font-weight:normal;font-stretch:normal;font-size:13.33333302px;font-family:'Open Sans';-inkscape-font-specification:'Open Sans'"
         id="path1207"
         inkscape:connector-curvature="0" /></g><g
       aria-label="0,5 m"
       transform="matrix(0.75000002,0,0,0.75000002,161.79119,649.55727)"
       style="font-style:normal;font-weight:normal;font-size:40px;line-height:1.25;font-family:sans-serif;letter-spacing:0px;word-spacing:0px;fill:#000000;fill-opacity:1;stroke:none"
       id="flowRoot1177"><path
         d="m 171.76237,102.61849 q 0,2.46745 -0.78125,3.6849 -0.77474,1.21744 -2.3763,1.21744 -1.53646,0 -2.33724,-1.24349 -0.80078,-1.25 -0.80078,-3.65885 0,-2.48698 0.77474,-3.691406 0.77474,-1.204428 2.36328,-1.204428 1.54948,0 2.35026,1.256511 0.80729,1.256513 0.80729,3.639323 z m -5.20182,0 q 0,2.07682 0.48828,3.02734 0.48828,0.94401 1.55599,0.94401 1.08073,0 1.5625,-0.95703 0.48828,-0.96354 0.48828,-3.01432 0,-2.05078 -0.48828,-3.001302 -0.48177,-0.957032 -1.5625,-0.957032 -1.06771,0 -1.55599,0.944011 -0.48828,0.937503 -0.48828,3.014323 z"
         style="font-style:normal;font-variant:normal;font-weight:normal;font-stretch:normal;font-size:13.33333302px;font-family:'Open Sans';-inkscape-font-specification:'Open Sans'"
         id="path1222"
         inkscape:connector-curvature="0" /><path
         d="m 174.70508,105.84115 0.0976,0.14974 q -0.16927,0.65104 -0.48828,1.51041 -0.31901,0.86589 -0.66406,1.60807 h -0.8138 q 0.17578,-0.67708 0.38411,-1.67317 0.21485,-0.9961 0.29948,-1.59505 z"
         style="font-style:normal;font-variant:normal;font-weight:normal;font-stretch:normal;font-size:13.33333302px;font-family:'Open Sans';-inkscape-font-specification:'Open Sans'"
         id="path1224"
         inkscape:connector-curvature="0" /><path
         d="m 179.32096,101.57682 q 1.50391,0 2.36328,0.7487 0.86589,0.74219 0.86589,2.03776 0,1.47787 -0.94401,2.31771 -0.9375,0.83984 -2.59115,0.83984 -1.60807,0 -2.45442,-0.51432 v -1.04167 q 0.45573,0.29297 1.13281,0.46224 0.67708,0.16276 1.33463,0.16276 1.14584,0 1.77735,-0.54036 0.63802,-0.54037 0.63802,-1.5625 0,-1.99219 -2.44141,-1.99219 -0.61849,0 -1.65364,0.1888 l -0.5599,-0.35807 0.35807,-4.453124 h 4.73308 v 0.996094 h -3.8086 l -0.24088,2.85807 q 0.7487,-0.14974 1.49088,-0.14974 z"
         style="font-style:normal;font-variant:normal;font-weight:normal;font-stretch:normal;font-size:13.33333302px;font-family:'Open Sans';-inkscape-font-specification:'Open Sans'"
         id="path1226"
         inkscape:connector-curvature="0" /><path
         d="m 197.02279,107.39063 v -4.64193 q 0,-0.85287 -0.36459,-1.27604 -0.36458,-0.42969 -1.13281,-0.42969 -1.00911,0 -1.49089,0.57943 -0.48177,0.57942 -0.48177,1.78385 v 3.98438 H 192.472 v -4.64193 q 0,-0.85287 -0.36458,-1.27604 -0.36458,-0.42969 -1.13932,-0.42969 -1.01563,0 -1.49089,0.61198 -0.46875,0.60547 -0.46875,1.99219 v 3.74349 h -1.08073 v -7.13542 h 0.87891 l 0.17578,0.97656 h 0.0521 q 0.30599,-0.52083 0.85938,-0.8138 0.5599,-0.29297 1.25,-0.29297 1.67318,0 2.1875,1.21094 h 0.0521 q 0.31901,-0.5599 0.92448,-0.88542 0.60547,-0.32552 1.38021,-0.32552 1.21094,0 1.8099,0.625 0.60546,0.61849 0.60546,1.98568 v 4.65495 z"
         style="font-style:normal;font-variant:normal;font-weight:normal;font-stretch:normal;font-size:13.33333302px;font-family:'Open Sans';-inkscape-font-specification:'Open Sans'"
         id="path1228"
         inkscape:connector-curvature="0" /></g><g
       aria-label="2 cm"
       transform="matrix(0.75000002,0,0,0.75000002,221.79119,636.05727)"
       style="font-style:normal;font-weight:normal;font-size:40px;line-height:1.25;font-family:sans-serif;letter-spacing:0px;word-spacing:0px;fill:#000000;fill-opacity:1;stroke:none"
       id="flowRoot1185"><path
         d="m 171.71029,107.39063 h -6.25651 v -0.93099 l 2.50651,-2.51954 q 1.14583,-1.15885 1.51041,-1.65364 0.36459,-0.49479 0.54688,-0.96354 0.18229,-0.46875 0.18229,-1.00912 0,-0.761716 -0.46224,-1.204425 -0.46224,-0.449219 -1.28255,-0.449219 -0.59245,0 -1.1263,0.195313 -0.52735,0.195312 -1.17839,0.709635 l -0.57292,-0.735677 q 1.31511,-1.09375 2.86459,-1.09375 1.34114,0 2.10286,0.690104 0.76172,0.683594 0.76172,1.842449 0,0.90495 -0.50781,1.79036 -0.50781,0.88542 -1.90104,2.23959 l -2.08334,2.03776 v 0.0521 h 4.89584 z"
         style="font-style:normal;font-variant:normal;font-weight:normal;font-stretch:normal;font-size:13.33333302px;font-family:'Open Sans';-inkscape-font-specification:'Open Sans'"
         id="path1215"
         inkscape:connector-curvature="0" /><path
         d="m 179.88737,107.52083 q -1.54948,0 -2.40234,-0.95052 -0.84636,-0.95703 -0.84636,-2.70182 0,-1.79036 0.85938,-2.76693 0.86588,-0.97656 2.46093,-0.97656 0.51433,0 1.02865,0.11068 0.51432,0.11067 0.80729,0.26041 l -0.33203,0.91797 q -0.35807,-0.14323 -0.78125,-0.23437 -0.42318,-0.0977 -0.7487,-0.0977 -2.17448,0 -2.17448,2.77344 0,1.3151 0.52735,2.01823 0.53385,0.70312 1.57552,0.70312 0.89192,0 1.82942,-0.38411 v 0.95703 q -0.71614,0.37109 -1.80338,0.37109 z"
         style="font-style:normal;font-variant:normal;font-weight:normal;font-stretch:normal;font-size:13.33333302px;font-family:'Open Sans';-inkscape-font-specification:'Open Sans'"
         id="path1217"
         inkscape:connector-curvature="0" /><path
         d="m 192.47851,107.39063 v -4.64193 q 0,-0.85287 -0.36458,-1.27604 -0.36458,-0.42969 -1.13281,-0.42969 -1.00912,0 -1.49089,0.57943 -0.48177,0.57942 -0.48177,1.78385 v 3.98438 h -1.08073 v -4.64193 q 0,-0.85287 -0.36458,-1.27604 -0.36458,-0.42969 -1.13932,-0.42969 -1.01563,0 -1.49089,0.61198 -0.46875,0.60547 -0.46875,1.99219 v 3.74349 h -1.08073 v -7.13542 h 0.87891 l 0.17578,0.97656 h 0.0521 q 0.30599,-0.52083 0.85938,-0.8138 0.55989,-0.29297 1.25,-0.29297 1.67318,0 2.1875,1.21094 h 0.0521 q 0.31901,-0.5599 0.92448,-0.88542 0.60547,-0.32552 1.38021,-0.32552 1.21094,0 1.80989,0.625 0.60547,0.61849 0.60547,1.98568 v 4.65495 z"
         style="font-style:normal;font-variant:normal;font-weight:normal;font-stretch:normal;font-size:13.33333302px;font-family:'Open Sans';-inkscape-font-specification:'Open Sans'"
         id="path1219"
         inkscape:connector-curvature="0" /></g><g
       aria-label="a."
       transform="matrix(0.75000002,0,0,0.75000002,3.3637696,521.7633)"
       style="font-style:normal;font-weight:normal;font-size:40px;line-height:1.25;font-family:sans-serif;letter-spacing:0px;word-spacing:0px;fill:#000000;fill-opacity:1;stroke:none"
       id="flowRoot131"><path
         d="m 0.61914049,-44.798828 -0.38411457,-0.989583 h -0.0520833 q -0.50130207,0.63151 -1.03515622,0.878906 -0.52734376,0.240885 -1.38020826,0.240885 -1.0481771,0 -1.6536458,-0.598958 -0.5989584,-0.598958 -0.5989584,-1.705729 0,-1.158854 0.8072917,-1.705729 0.8138021,-0.553386 2.4479166,-0.61198 l 1.2630208,-0.03906 v -0.31901 q 0,-1.106771 -1.1328125,-1.106771 -0.8723958,0 -2.0507812,0.527344 l -0.657552,-1.341146 q 1.2565103,-0.657552 2.7864582,-0.657552 1.46484374,0 2.2460937,0.63802 0.78125,0.638021 0.78125,1.940105 v 4.85026 z m -0.58593749,-3.372396 -0.76822914,0.02604 q -0.86588536,0.02604 -1.28906246,0.3125 -0.4231771,0.286458 -0.4231771,0.872396 0,0.839843 0.9635417,0.839843 0.69010411,0 1.10026035,-0.397135 0.41666665,-0.397135 0.41666665,-1.054688 z"
         style="font-style:normal;font-variant:normal;font-weight:bold;font-stretch:normal;font-size:13.33333302px;font-family:'Open Sans';-inkscape-font-specification:'Open Sans Bold'"
         id="path223" /><path
         d="m 3.7701816,-45.729818 q 0,-0.546875 0.2929688,-0.826823 0.2929687,-0.279947 0.8528645,-0.279947 0.5403646,0 0.8333334,0.286458 0.2994791,0.286458 0.2994791,0.820312 0,0.514323 -0.2994791,0.813802 -0.2994792,0.292969 -0.8333334,0.292969 -0.5468749,0 -0.8463541,-0.286458 -0.2994792,-0.292969 -0.2994792,-0.820313 z"
         style="font-style:normal;font-variant:normal;font-weight:bold;font-stretch:normal;font-size:13.33333302px;font-family:'Open Sans';-inkscape-font-specification:'Open Sans Bold'"
         id="path225" /></g><g
       aria-label="b."
       transform="matrix(0.75000002,0,0,0.75000002,3.3637696,626.7633)"
       style="font-style:normal;font-weight:normal;font-size:40px;line-height:1.25;font-family:sans-serif;letter-spacing:0px;word-spacing:0px;fill:#000000;fill-opacity:1;stroke:none"
       id="flowRoot145"><path
         d="m 0.04622384,-52.214193 q 1.28906246,0 2.01822916,1.009115 0.7291666,1.002604 0.7291666,2.753906 0,1.803386 -0.7552083,2.792969 -0.7486979,0.989583 -2.0442708,0.989583 -1.282552,0 -2.0117187,-0.930989 h -0.1367187 l -0.3320313,0.800781 h -1.516927 v -10.130208 h 1.985677 v 2.356771 q 0,0.449218 -0.078125,1.438802 h 0.078125 q 0.6966146,-1.08073 2.06380204,-1.08073 z m -0.63802082,1.588542 q -0.73567702,0 -1.07421872,0.455729 -0.3385417,0.449219 -0.3515625,1.490886 v 0.214843 q 0,1.171875 0.3450521,1.679688 0.3515625,0.507812 1.10677078,0.507812 0.61197916,0 0.97005207,-0.559895 0.36458332,-0.566407 0.36458332,-1.640625 0,-1.074219 -0.36458332,-1.608073 -0.36458333,-0.540365 -0.99609373,-0.540365 z"
         style="font-style:normal;font-variant:normal;font-weight:bold;font-stretch:normal;font-size:13.33333302px;font-family:'Open Sans';-inkscape-font-specification:'Open Sans Bold'"
         id="path218" /><path
         d="m 4.1542969,-45.729818 q 0,-0.546875 0.2929687,-0.826823 0.2929687,-0.279947 0.8528646,-0.279947 0.5403645,0 0.8333333,0.286458 0.2994791,0.286458 0.2994791,0.820312 0,0.514323 -0.2994791,0.813802 -0.2994792,0.292969 -0.8333333,0.292969 -0.546875,0 -0.8463542,-0.286458 -0.2994791,-0.292969 -0.2994791,-0.820313 z"
         style="font-style:normal;font-variant:normal;font-weight:bold;font-stretch:normal;font-size:13.33333302px;font-family:'Open Sans';-inkscape-font-specification:'Open Sans Bold'"
         id="path220" /></g><g
       aria-label="c."
       transform="matrix(0.75000002,0,0,0.75000002,3.3637696,686.7633)"
       style="font-style:normal;font-weight:normal;font-size:40px;line-height:1.25;font-family:sans-serif;letter-spacing:0px;word-spacing:0px;fill:#000000;fill-opacity:1;stroke:none"
       id="flowRoot153"><path
         d="m -1.0475261,-44.66862 q -3.3984375,0 -3.3984375,-3.730468 0,-1.855469 0.9244792,-2.832032 0.9244791,-0.983073 2.64973951,-0.983073 1.2630208,0 2.26562499,0.494792 l -0.58593753,1.536458 q -0.46874999,-0.188802 -0.87239581,-0.305989 -0.40364583,-0.123698 -0.80729165,-0.123698 -1.54947911,0 -1.54947911,2.200521 0,2.135416 1.54947911,2.135416 0.57291665,0 1.06119789,-0.149739 0.48828124,-0.15625 0.9765625,-0.481771 v 1.699219 q -0.48177084,0.305989 -0.9765625,0.423177 -0.48828124,0.117187 -1.2369791,0.117187 z"
         style="font-style:normal;font-variant:normal;font-weight:bold;font-stretch:normal;font-size:13.33333302px;font-family:'Open Sans';-inkscape-font-specification:'Open Sans Bold'"
         id="path213" /><path
         d="m 2.5722656,-45.729818 q 0,-0.546875 0.2929687,-0.826823 0.2929688,-0.279947 0.8528646,-0.279947 0.5403646,0 0.8333333,0.286458 0.2994792,0.286458 0.2994792,0.820312 0,0.514323 -0.2994792,0.813802 -0.2994791,0.292969 -0.8333333,0.292969 -0.546875,0 -0.8463541,-0.286458 -0.2994792,-0.292969 -0.2994792,-0.820313 z"
         style="font-style:normal;font-variant:normal;font-weight:bold;font-stretch:normal;font-size:13.33333302px;font-family:'Open Sans';-inkscape-font-specification:'Open Sans Bold'"
         id="path215" /></g><g
       aria-label="d."
       transform="matrix(0.75000002,0,0,0.75000002,3.3637696,761.7633)"
       style="font-style:normal;font-weight:normal;font-size:40px;line-height:1.25;font-family:sans-serif;letter-spacing:0px;word-spacing:0px;fill:#000000;fill-opacity:1;stroke:none"
       id="flowRoot161"><path
         d="m -1.6985678,-44.66862 q -1.282552,0 -2.0182291,-0.996094 -0.7291667,-0.996093 -0.7291667,-2.760416 0,-1.790365 0.7421875,-2.786458 0.7486979,-1.002605 2.0572916,-1.002605 1.37369793,0 2.09635416,1.067709 h 0.0651042 q -0.14973958,-0.813802 -0.14973958,-1.451823 v -2.330729 H 2.3574217 v 10.130208 H 0.83398423 l -0.38411457,-0.944011 h -0.0846354 q -0.67708332,1.074219 -2.06380205,1.074219 z m 0.6966146,-1.582031 q 0.76171871,0 1.1132812,-0.442708 0.35807291,-0.442709 0.39062499,-1.503907 v -0.214843 q 0,-1.171875 -0.36458332,-1.679688 -0.35807291,-0.507812 -1.17187497,-0.507812 -0.6640625,0 -1.0351562,0.566406 -0.3645834,0.559896 -0.3645834,1.634115 0,1.074218 0.3710938,1.614583 0.3710937,0.533854 1.0611979,0.533854 z"
         style="font-style:normal;font-variant:normal;font-weight:bold;font-stretch:normal;font-size:13.33333302px;font-family:'Open Sans';-inkscape-font-specification:'Open Sans Bold'"
         id="path208" /><path
         d="m 4.1542969,-45.729818 q 0,-0.546875 0.2929687,-0.826823 0.2929687,-0.279947 0.8528646,-0.279947 0.5403645,0 0.8333333,0.286458 0.2994791,0.286458 0.2994791,0.820312 0,0.514323 -0.2994791,0.813802 -0.2994792,0.292969 -0.8333333,0.292969 -0.546875,0 -0.8463542,-0.286458 -0.2994791,-0.292969 -0.2994791,-0.820313 z"
         style="font-style:normal;font-variant:normal;font-weight:bold;font-stretch:normal;font-size:13.33333302px;font-family:'Open Sans';-inkscape-font-specification:'Open Sans Bold'"
         id="path210" /></g><g
       aria-label="e."
       transform="matrix(0.75000002,0,0,0.75000002,3.3637696,821.7633)"
       style="font-style:normal;font-weight:normal;font-size:40px;line-height:1.25;font-family:sans-serif;letter-spacing:0px;word-spacing:0px;fill:#000000;fill-opacity:1;stroke:none"
       id="flowRoot169"><path
         d="m -0.98893239,-50.801432 q -0.63151041,0 -0.98958331,0.403646 -0.3580729,0.397135 -0.4101562,1.132812 h 2.78645823 q -0.0130208,-0.735677 -0.38411458,-1.132812 -0.37109374,-0.403646 -1.00260414,-0.403646 z m 0.27994791,6.132812 q -1.75781242,0 -2.74739572,-0.970052 -0.9895834,-0.970052 -0.9895834,-2.747396 0,-1.829427 0.9114584,-2.82552 0.9179687,-1.002605 2.532552,-1.002605 1.54296869,0 2.4023437,0.878907 0.859375,0.878906 0.859375,2.428385 v 0.963542 h -4.6940104 q 0.032552,0.846354 0.5013021,1.321614 0.46875,0.475261 1.31510415,0.475261 0.65755207,0 1.24348956,-0.136719 0.58593749,-0.136719 1.22395829,-0.436198 v 1.536458 q -0.5208333,0.260417 -1.11328121,0.384115 -0.59244791,0.130208 -1.44531247,0.130208 z"
         style="font-style:normal;font-variant:normal;font-weight:bold;font-stretch:normal;font-size:13.33333302px;font-family:'Open Sans';-inkscape-font-specification:'Open Sans Bold'"
         id="path203" /><path
         d="m 3.5944009,-45.729818 q 0,-0.546875 0.2929687,-0.826823 0.2929688,-0.279947 0.8528646,-0.279947 0.5403645,0 0.8333333,0.286458 0.2994791,0.286458 0.2994791,0.820312 0,0.514323 -0.2994791,0.813802 -0.2994792,0.292969 -0.8333333,0.292969 -0.546875,0 -0.8463542,-0.286458 -0.2994791,-0.292969 -0.2994791,-0.820313 z"
         style="font-style:normal;font-variant:normal;font-weight:bold;font-stretch:normal;font-size:13.33333302px;font-family:'Open Sans';-inkscape-font-specification:'Open Sans Bold'"
         id="path205" /></g><g
       aria-label="f."
       transform="matrix(0.75000002,0,0,0.75000002,226.26003,521.7633)"
       style="font-style:normal;font-weight:normal;font-size:40px;line-height:1.25;font-family:sans-serif;letter-spacing:0px;word-spacing:0px;fill:#000000;fill-opacity:1;stroke:none"
       id="flowRoot177"><path
         d="M 0.02018217,-50.586588 H -1.6985678 v 5.78776 h -1.985677 v -5.78776 h -1.09375 v -0.957032 l 1.09375,-0.533854 v -0.533854 q 0,-1.243489 0.6119791,-1.816406 0.6119792,-0.572917 1.9596354,-0.572917 1.02864581,0 1.82942704,0.30599 l -0.50781249,1.458333 q -0.59895832,-0.188802 -1.10677081,-0.188802 -0.42317704,0 -0.61197914,0.253906 -0.1888021,0.247396 -0.1888021,0.638021 v 0.455729 h 1.71874997 z"
         style="font-style:normal;font-variant:normal;font-weight:bold;font-stretch:normal;font-size:13.33333302px;font-family:'Open Sans';-inkscape-font-specification:'Open Sans Bold'"
         id="path243" /><path
         d="m 0.87955711,-45.729818 q 0,-0.546875 0.29296879,-0.826823 0.2929687,-0.279947 0.8528645,-0.279947 0.5403646,0 0.8333333,0.286458 0.2994792,0.286458 0.2994792,0.820312 0,0.514323 -0.2994792,0.813802 -0.2994791,0.292969 -0.8333333,0.292969 -0.546875,0 -0.8463541,-0.286458 -0.29947919,-0.292969 -0.29947919,-0.820313 z"
         style="font-style:normal;font-variant:normal;font-weight:bold;font-stretch:normal;font-size:13.33333302px;font-family:'Open Sans';-inkscape-font-specification:'Open Sans Bold'"
         id="path245" /></g><g
       aria-label="g."
       transform="matrix(0.75000002,0,0,0.75000002,226.26003,641.7633)"
       style="font-style:normal;font-weight:normal;font-size:40px;line-height:1.25;font-family:sans-serif;letter-spacing:0px;word-spacing:0px;fill:#000000;fill-opacity:1;stroke:none"
       id="flowRoot185"><path
         d="m 2.33138,-52.077474 v 1.009115 l -1.1393229,0.292969 q 0.3125,0.488281 0.3125,1.093749 0,1.171875 -0.82031244,1.829428 -0.81380207,0.651041 -2.26562496,0.651041 l -0.3580729,-0.01953 -0.2929687,-0.03255 q -0.3059896,0.234375 -0.3059896,0.520833 0,0.429688 1.09375,0.429688 h 1.23697909 q 1.19791664,0 1.82291661,0.514323 0.6315104,0.514322 0.6315104,1.510416 0,1.276042 -1.0677083,1.979167 -1.06119788,0.703125 -3.0533853,0.703125 -1.5234375,0 -2.3307291,-0.533854 -0.8007813,-0.527344 -0.8007813,-1.484375 0,-0.657552 0.4101563,-1.100261 0.4101562,-0.442708 1.204427,-0.63151 -0.3059896,-0.130208 -0.5338541,-0.423177 -0.2278646,-0.299479 -0.2278646,-0.631511 0,-0.416666 0.2408854,-0.690104 0.2408854,-0.279948 0.6966146,-0.546875 -0.5729167,-0.247396 -0.9114583,-0.794271 -0.3320313,-0.546875 -0.3320313,-1.289062 0,-1.191406 0.7747396,-1.842448 0.7747395,-0.651042 2.2135416,-0.651042 0.3059896,0 0.72265622,0.05859 0.42317708,0.05208 0.54036457,0.07813 z m -5.6184894,8.307292 q 0,0.410156 0.390625,0.644531 0.3971354,0.234375 1.1067708,0.234375 1.06770829,0 1.67317702,-0.292969 0.60546874,-0.292969 0.60546874,-0.800781 0,-0.410156 -0.35807291,-0.566406 -0.35807291,-0.15625 -1.10677081,-0.15625 H -2.0045574 q -0.546875,0 -0.9179687,0.253906 -0.3645833,0.260417 -0.3645833,0.683594 z m 0.7226562,-5.924479 q 0,0.592448 0.2669271,0.9375 0.2734375,0.345052 0.8268229,0.345052 0.55989581,0 0.82031247,-0.345052 0.26041666,-0.345052 0.26041666,-0.9375 0,-1.315104 -1.08072913,-1.315104 -1.09375,0 -1.09375,1.315104 z"
         style="font-style:normal;font-variant:normal;font-weight:bold;font-stretch:normal;font-size:13.33333302px;font-family:'Open Sans';-inkscape-font-specification:'Open Sans Bold'"
         id="path238" /><path
         d="m 3.2493486,-45.729818 q 0,-0.546875 0.2929688,-0.826823 0.2929687,-0.279947 0.8528645,-0.279947 0.5403646,0 0.8333333,0.286458 0.2994792,0.286458 0.2994792,0.820312 0,0.514323 -0.2994792,0.813802 -0.2994791,0.292969 -0.8333333,0.292969 -0.546875,0 -0.8463541,-0.286458 -0.2994792,-0.292969 -0.2994792,-0.820313 z"
         style="font-style:normal;font-variant:normal;font-weight:bold;font-stretch:normal;font-size:13.33333302px;font-family:'Open Sans';-inkscape-font-specification:'Open Sans Bold'"
         id="path240" /></g><g
       aria-label="h."
       transform="matrix(0.75000002,0,0,0.75000002,226.26003,746.7633)"
       style="font-style:normal;font-weight:normal;font-size:40px;line-height:1.25;font-family:sans-serif;letter-spacing:0px;word-spacing:0px;fill:#000000;fill-opacity:1;stroke:none"
       id="flowRoot193"><path
         d="M 2.7154946,-44.798828 H 0.72981757 v -4.251302 q 0,-1.575521 -1.17187497,-1.575521 -0.8333333,0 -1.2044271,0.566406 -0.3710937,0.566407 -0.3710937,1.835938 v 3.424479 h -1.985677 v -10.130208 h 1.985677 v 2.063802 q 0,0.240885 -0.045573,1.132812 l -0.045573,0.585938 h 0.1041666 q 0.6640625,-1.067709 2.10937499,-1.067709 1.28255201,0 1.94661451,0.690105 0.6640625,0.690104 0.6640625,1.979166 z"
         style="font-style:normal;font-variant:normal;font-weight:bold;font-stretch:normal;font-size:13.33333302px;font-family:'Open Sans';-inkscape-font-specification:'Open Sans Bold'"
         id="path233" /><path
         d="m 4.4798174,-45.729818 q 0,-0.546875 0.2929687,-0.826823 0.2929688,-0.279947 0.8528646,-0.279947 0.5403645,0 0.8333333,0.286458 0.2994792,0.286458 0.2994792,0.820312 0,0.514323 -0.2994792,0.813802 -0.2994792,0.292969 -0.8333333,0.292969 -0.546875,0 -0.8463542,-0.286458 -0.2994791,-0.292969 -0.2994791,-0.820313 z"
         style="font-style:normal;font-variant:normal;font-weight:bold;font-stretch:normal;font-size:13.33333302px;font-family:'Open Sans';-inkscape-font-specification:'Open Sans Bold'"
         id="path235" /></g><g
       aria-label="i."
       transform="matrix(0.75000002,0,0,0.75000002,226.26003,836.7633)"
       style="font-style:normal;font-weight:normal;font-size:40px;line-height:1.25;font-family:sans-serif;letter-spacing:0px;word-spacing:0px;fill:#000000;fill-opacity:1;stroke:none"
       id="flowRoot201"><path
         d="m -4.0878906,-53.958984 q 0,-0.970052 1.0807291,-0.970052 1.0807291,0 1.0807291,0.970052 0,0.462239 -0.2734375,0.722656 -0.266927,0.253906 -0.8072916,0.253906 -1.0807291,0 -1.0807291,-0.976562 z m 2.0703124,9.160156 h -1.985677 v -7.278646 h 1.985677 z"
         style="font-style:normal;font-variant:normal;font-weight:bold;font-stretch:normal;font-size:13.33333302px;font-family:'Open Sans';-inkscape-font-specification:'Open Sans Bold'"
         id="path228" /><path
         d="m -0.21419289,-45.729818 q 0,-0.546875 0.29296875,-0.826823 0.29296874,-0.279947 0.85286456,-0.279947 0.54036458,0 0.83333328,0.286458 0.2994792,0.286458 0.2994792,0.820312 0,0.514323 -0.2994792,0.813802 -0.2994791,0.292969 -0.83333328,0.292969 -0.54687499,0 -0.84635415,-0.286458 -0.29947916,-0.292969 -0.29947916,-0.820313 z"
         style="font-style:normal;font-variant:normal;font-weight:bold;font-stretch:normal;font-size:13.33333302px;font-family:'Open Sans';-inkscape-font-specification:'Open Sans Bold'"
         id="path230" /></g></g></svg>