<?xml version="1.0" encoding="UTF-8" standalone="no"?>
<svg
   xmlns:dc="http://purl.org/dc/elements/1.1/"
   xmlns:cc="http://creativecommons.org/ns#"
   xmlns:rdf="http://www.w3.org/1999/02/22-rdf-syntax-ns#"
   xmlns:svg="http://www.w3.org/2000/svg"
   xmlns="http://www.w3.org/2000/svg"
   xmlns:sodipodi="http://sodipodi.sourceforge.net/DTD/sodipodi-0.dtd"
   xmlns:inkscape="http://www.inkscape.org/namespaces/inkscape"
   sodipodi:docname="egim_27.svg"
   inkscape:version="0.92.5 (2060ec1f9f, 2020-04-08)"
   id="svg8"
   version="1.1"
   viewBox="0 0 170 43.594002"
   height="43.594002mm"
   width="170mm">
  <defs
     id="defs2" />
  <sodipodi:namedview
     inkscape:document-rotation="0"
     inkscape:snap-global="true"
     inkscape:window-maximized="1"
     inkscape:window-y="25"
     inkscape:window-x="0"
     inkscape:window-height="1031"
     inkscape:window-width="1920"
     showgrid="false"
     inkscape:current-layer="layer1"
     inkscape:document-units="mm"
     inkscape:cy="104.41684"
     inkscape:cx="440.6023"
     inkscape:zoom="2"
     inkscape:pageshadow="2"
     inkscape:pageopacity="0.0"
     borderopacity="1.0"
     bordercolor="#666666"
     pagecolor="#ffffff"
     id="base"
     inkscape:pagecheckerboard="0" />
  <metadata
     id="metadata5">
    <rdf:RDF>
      <cc:Work
         rdf:about="">
        <dc:format>image/svg+xml</dc:format>
        <dc:type
           rdf:resource="http://purl.org/dc/dcmitype/StillImage" />
        <dc:title></dc:title>
      </cc:Work>
    </rdf:RDF>
  </metadata>
  <g
     id="layer1"
     inkscape:groupmode="layer"
     inkscape:label="Layer 1"
     transform="translate(0,-253.406)">
    <g
       id="g7717"
       transform="matrix(1.000004,0,0,1.0000075,-69.294271,216.11231)">
      <path
         inkscape:connector-curvature="0"
         id="path1155"
         d="m 188.1053,49.660068 h -1.0875 v 16.74753 h 1.05194"
         style="fill:#fff6d5;stroke:#000000;stroke-width:0.26458299px;stroke-linecap:butt;stroke-linejoin:miter;stroke-opacity:1" />
      <path
         sodipodi:nodetypes="ccccc"
         inkscape:connector-curvature="0"
         id="path1053"
         d="m 158.40557,76.597788 22.9442,-10.07364 h 6.48803 v 9.76605 z"
         style="fill:#eef4d7;fill-opacity:1;stroke:#000000;stroke-width:0.5;stroke-linecap:butt;stroke-linejoin:miter;stroke-miterlimit:4;stroke-dasharray:none;stroke-opacity:1" />
      <path
         sodipodi:nodetypes="ccccc"
         inkscape:connector-curvature="0"
         id="path1055"
         d="m 188.06931,66.524148 v -28.97269 h 1.61485 v 38.74835 l -1.61485,-0.01"
         style="fill:#deaa87;fill-opacity:1;stroke:#000000;stroke-width:0.5;stroke-linecap:butt;stroke-linejoin:miter;stroke-miterlimit:4;stroke-dasharray:none;stroke-opacity:1" />
      <path
         style="fill:#ffaaaa;fill-opacity:1;stroke:#000000;stroke-width:0.5;stroke-linecap:butt;stroke-linejoin:miter;stroke-miterlimit:4;stroke-dasharray:none;stroke-opacity:1"
         d="m 189.69416,74.684958 h 3.67741 v 1.61485 h -3.68741 l 0.01,-1.61485"
         id="path1057"
         inkscape:connector-curvature="0"
         sodipodi:nodetypes="ccccc" />
      <path
         sodipodi:nodetypes="ccccc"
         inkscape:connector-curvature="0"
         id="path1059"
         d="m 193.37157,74.684958 h 3.67741 v 1.61485 h -3.68741 l 0.01,-1.61485"
         style="fill:#ffaaaa;fill-opacity:1;stroke:#000000;stroke-width:0.5;stroke-linecap:butt;stroke-linejoin:miter;stroke-miterlimit:4;stroke-dasharray:none;stroke-opacity:1" />
      <path
         sodipodi:nodetypes="ccccc"
         inkscape:connector-curvature="0"
         id="path1061"
         d="m 189.70416,73.070108 h 3.67741 v 1.61485 h -3.68741 l 0.01,-1.61485"
         style="fill:#ffaaaa;fill-opacity:1;stroke:#000000;stroke-width:0.5;stroke-linecap:butt;stroke-linejoin:miter;stroke-miterlimit:4;stroke-dasharray:none;stroke-opacity:1" />
      <path
         style="fill:#ffaaaa;fill-opacity:1;stroke:#000000;stroke-width:0.5;stroke-linecap:butt;stroke-linejoin:miter;stroke-miterlimit:4;stroke-dasharray:none;stroke-opacity:1"
         d="m 193.38157,73.070108 h 3.67741 v 1.61485 h -3.68741 l 0.01,-1.61485"
         id="path1063"
         inkscape:connector-curvature="0"
         sodipodi:nodetypes="ccccc" />
      <path
         sodipodi:nodetypes="ccccc"
         inkscape:connector-curvature="0"
         id="path1065"
         d="m 189.71416,71.455258 h 3.67741 v 1.61485 h -3.68741 l 0.01,-1.61485"
         style="fill:#ffaaaa;fill-opacity:1;stroke:#000000;stroke-width:0.5;stroke-linecap:butt;stroke-linejoin:miter;stroke-miterlimit:4;stroke-dasharray:none;stroke-opacity:1" />
      <path
         style="fill:#ffaaaa;fill-opacity:1;stroke:#000000;stroke-width:0.5;stroke-linecap:butt;stroke-linejoin:miter;stroke-miterlimit:4;stroke-dasharray:none;stroke-opacity:1"
         d="m 193.39157,71.455258 h 3.67741 v 1.61485 h -3.68741 l 0.01,-1.61485"
         id="path1067"
         inkscape:connector-curvature="0"
         sodipodi:nodetypes="ccccc" />
      <path
         style="fill:#ffaaaa;fill-opacity:1;stroke:#000000;stroke-width:0.5;stroke-linecap:butt;stroke-linejoin:miter;stroke-miterlimit:4;stroke-dasharray:none;stroke-opacity:1"
         d="m 189.72416,69.840408 h 3.67741 v 1.61485 h -3.68741 l 0.01,-1.61485"
         id="path1069"
         inkscape:connector-curvature="0"
         sodipodi:nodetypes="ccccc" />
      <path
         sodipodi:nodetypes="ccccc"
         inkscape:connector-curvature="0"
         id="path1071"
         d="m 193.40157,69.840408 h 3.67741 v 1.61485 h -3.68741 l 0.01,-1.61485"
         style="fill:#ffaaaa;fill-opacity:1;stroke:#000000;stroke-width:0.5;stroke-linecap:butt;stroke-linejoin:miter;stroke-miterlimit:4;stroke-dasharray:none;stroke-opacity:1" />
      <path
         sodipodi:nodetypes="ccccc"
         inkscape:connector-curvature="0"
         id="path1073"
         d="m 189.73416,68.225558 h 3.67741 v 1.61485 h -3.68741 l 0.01,-1.61485"
         style="fill:#ffaaaa;fill-opacity:1;stroke:#000000;stroke-width:0.5;stroke-linecap:butt;stroke-linejoin:miter;stroke-miterlimit:4;stroke-dasharray:none;stroke-opacity:1" />
      <path
         style="fill:#ffaaaa;fill-opacity:1;stroke:#000000;stroke-width:0.5;stroke-linecap:butt;stroke-linejoin:miter;stroke-miterlimit:4;stroke-dasharray:none;stroke-opacity:1"
         d="m 193.41157,68.225558 h 3.67741 v 1.61485 h -3.68741 l 0.01,-1.61485"
         id="path1075"
         inkscape:connector-curvature="0"
         sodipodi:nodetypes="ccccc" />
      <path
         style="fill:#ffaaaa;fill-opacity:1;stroke:#000000;stroke-width:0.5;stroke-linecap:butt;stroke-linejoin:miter;stroke-miterlimit:4;stroke-dasharray:none;stroke-opacity:1"
         d="m 189.74416,66.610708 h 3.67741 v 1.61485 h -3.68741 l 0.01,-1.61485"
         id="path1077"
         inkscape:connector-curvature="0"
         sodipodi:nodetypes="ccccc" />
      <path
         sodipodi:nodetypes="ccccc"
         inkscape:connector-curvature="0"
         id="path1079"
         d="m 193.42157,66.610708 h 3.67741 v 1.61485 h -3.68741 l 0.01,-1.61485"
         style="fill:#ffaaaa;fill-opacity:1;stroke:#000000;stroke-width:0.5;stroke-linecap:butt;stroke-linejoin:miter;stroke-miterlimit:4;stroke-dasharray:none;stroke-opacity:1" />
      <path
         style="fill:#ffaaaa;fill-opacity:1;stroke:#000000;stroke-width:0.5;stroke-linecap:butt;stroke-linejoin:miter;stroke-miterlimit:4;stroke-dasharray:none;stroke-opacity:1"
         d="m 189.75416,64.995858 h 3.67741 v 1.61485 h -3.68741 l 0.01,-1.61485"
         id="path1081"
         inkscape:connector-curvature="0"
         sodipodi:nodetypes="ccccc" />
      <path
         sodipodi:nodetypes="ccccc"
         inkscape:connector-curvature="0"
         id="path1083"
         d="m 193.43157,64.995858 h 3.67741 v 1.61485 h -3.68741 l 0.01,-1.61485"
         style="fill:#ffaaaa;fill-opacity:1;stroke:#000000;stroke-width:0.5;stroke-linecap:butt;stroke-linejoin:miter;stroke-miterlimit:4;stroke-dasharray:none;stroke-opacity:1" />
      <path
         sodipodi:nodetypes="ccccc"
         inkscape:connector-curvature="0"
         id="path1085"
         d="m 189.76416,63.381008 h 3.67741 v 1.61485 h -3.68741 l 0.01,-1.61485"
         style="fill:#ffaaaa;fill-opacity:1;stroke:#000000;stroke-width:0.5;stroke-linecap:butt;stroke-linejoin:miter;stroke-miterlimit:4;stroke-dasharray:none;stroke-opacity:1" />
      <path
         style="fill:#ffaaaa;fill-opacity:1;stroke:#000000;stroke-width:0.5;stroke-linecap:butt;stroke-linejoin:miter;stroke-miterlimit:4;stroke-dasharray:none;stroke-opacity:1"
         d="m 193.44157,63.381008 h 3.67741 v 1.61485 h -3.68741 l 0.01,-1.61485"
         id="path1087"
         inkscape:connector-curvature="0"
         sodipodi:nodetypes="ccccc" />
      <path
         sodipodi:nodetypes="ccccc"
         inkscape:connector-curvature="0"
         id="path1089"
         d="m 189.77416,61.766158 h 3.67741 v 1.61485 h -3.68741 l 0.01,-1.61485"
         style="fill:#ffaaaa;fill-opacity:1;stroke:#000000;stroke-width:0.5;stroke-linecap:butt;stroke-linejoin:miter;stroke-miterlimit:4;stroke-dasharray:none;stroke-opacity:1" />
      <path
         style="fill:#ffaaaa;fill-opacity:1;stroke:#000000;stroke-width:0.5;stroke-linecap:butt;stroke-linejoin:miter;stroke-miterlimit:4;stroke-dasharray:none;stroke-opacity:1"
         d="m 193.45157,61.766158 h 3.67741 v 1.61485 h -3.68741 l 0.01,-1.61485"
         id="path1091"
         inkscape:connector-curvature="0"
         sodipodi:nodetypes="ccccc" />
      <path
         style="fill:#ffaaaa;fill-opacity:1;stroke:#000000;stroke-width:0.5;stroke-linecap:butt;stroke-linejoin:miter;stroke-miterlimit:4;stroke-dasharray:none;stroke-opacity:1"
         d="m 189.78416,60.151308 h 3.67741 v 1.61485 h -3.68741 l 0.01,-1.61485"
         id="path1093"
         inkscape:connector-curvature="0"
         sodipodi:nodetypes="ccccc" />
      <path
         sodipodi:nodetypes="ccccc"
         inkscape:connector-curvature="0"
         id="path1095"
         d="m 193.46157,60.151308 h 3.67741 v 1.61485 h -3.68741 l 0.01,-1.61485"
         style="fill:#ffaaaa;fill-opacity:1;stroke:#000000;stroke-width:0.5;stroke-linecap:butt;stroke-linejoin:miter;stroke-miterlimit:4;stroke-dasharray:none;stroke-opacity:1" />
      <path
         style="fill:#ffaaaa;fill-opacity:1;stroke:#000000;stroke-width:0.5;stroke-linecap:butt;stroke-linejoin:miter;stroke-miterlimit:4;stroke-dasharray:none;stroke-opacity:1"
         d="m 189.79416,58.536458 h 3.67741 v 1.61485 h -3.68741 l 0.01,-1.61485"
         id="path1097"
         inkscape:connector-curvature="0"
         sodipodi:nodetypes="ccccc" />
      <path
         sodipodi:nodetypes="ccccc"
         inkscape:connector-curvature="0"
         id="path1099"
         d="m 193.47157,58.536458 h 3.67741 v 1.61485 h -3.68741 l 0.01,-1.61485"
         style="fill:#ffaaaa;fill-opacity:1;stroke:#000000;stroke-width:0.5;stroke-linecap:butt;stroke-linejoin:miter;stroke-miterlimit:4;stroke-dasharray:none;stroke-opacity:1" />
      <path
         sodipodi:nodetypes="ccccc"
         inkscape:connector-curvature="0"
         id="path1101"
         d="m 189.80416,56.921608 h 3.67741 v 1.61485 h -3.68741 l 0.01,-1.61485"
         style="fill:#ffaaaa;fill-opacity:1;stroke:#000000;stroke-width:0.5;stroke-linecap:butt;stroke-linejoin:miter;stroke-miterlimit:4;stroke-dasharray:none;stroke-opacity:1" />
      <path
         style="fill:#ffaaaa;fill-opacity:1;stroke:#000000;stroke-width:0.5;stroke-linecap:butt;stroke-linejoin:miter;stroke-miterlimit:4;stroke-dasharray:none;stroke-opacity:1"
         d="m 193.48157,56.921608 h 3.67741 v 1.61485 h -3.68741 l 0.01,-1.61485"
         id="path1103"
         inkscape:connector-curvature="0"
         sodipodi:nodetypes="ccccc" />
      <path
         style="fill:#ffaaaa;fill-opacity:1;stroke:#000000;stroke-width:0.5;stroke-linecap:butt;stroke-linejoin:miter;stroke-miterlimit:4;stroke-dasharray:none;stroke-opacity:1"
         d="m 189.81416,55.306758 h 3.67741 v 1.61485 h -3.68741 l 0.01,-1.61485"
         id="path1105"
         inkscape:connector-curvature="0"
         sodipodi:nodetypes="ccccc" />
      <path
         sodipodi:nodetypes="ccccc"
         inkscape:connector-curvature="0"
         id="path1107"
         d="m 193.49157,55.306758 h 3.67741 v 1.61485 h -3.68741 l 0.01,-1.61485"
         style="fill:#ffaaaa;fill-opacity:1;stroke:#000000;stroke-width:0.5;stroke-linecap:butt;stroke-linejoin:miter;stroke-miterlimit:4;stroke-dasharray:none;stroke-opacity:1" />
      <path
         sodipodi:nodetypes="ccccc"
         inkscape:connector-curvature="0"
         id="path1109"
         d="m 189.82416,53.691908 h 3.67741 v 1.61485 h -3.68741 l 0.01,-1.61485"
         style="fill:#ffaaaa;fill-opacity:1;stroke:#000000;stroke-width:0.5;stroke-linecap:butt;stroke-linejoin:miter;stroke-miterlimit:4;stroke-dasharray:none;stroke-opacity:1" />
      <path
         style="fill:#ffaaaa;fill-opacity:1;stroke:#000000;stroke-width:0.5;stroke-linecap:butt;stroke-linejoin:miter;stroke-miterlimit:4;stroke-dasharray:none;stroke-opacity:1"
         d="m 193.50157,53.691908 h 3.67741 v 1.61485 h -3.68741 l 0.01,-1.61485"
         id="path1111"
         inkscape:connector-curvature="0"
         sodipodi:nodetypes="ccccc" />
      <path
         sodipodi:nodetypes="ccccc"
         inkscape:connector-curvature="0"
         id="path1113"
         d="m 189.83416,52.077058 h 3.67741 v 1.61485 h -3.68741 l 0.01,-1.61485"
         style="fill:#ffaaaa;fill-opacity:1;stroke:#000000;stroke-width:0.5;stroke-linecap:butt;stroke-linejoin:miter;stroke-miterlimit:4;stroke-dasharray:none;stroke-opacity:1" />
      <path
         style="fill:#ffaaaa;fill-opacity:1;stroke:#000000;stroke-width:0.5;stroke-linecap:butt;stroke-linejoin:miter;stroke-miterlimit:4;stroke-dasharray:none;stroke-opacity:1"
         d="m 193.51157,52.077058 h 3.67741 v 1.61485 h -3.68741 l 0.01,-1.61485"
         id="path1115"
         inkscape:connector-curvature="0"
         sodipodi:nodetypes="ccccc" />
      <path
         style="fill:#ffaaaa;fill-opacity:1;stroke:#000000;stroke-width:0.5;stroke-linecap:butt;stroke-linejoin:miter;stroke-miterlimit:4;stroke-dasharray:none;stroke-opacity:1"
         d="m 189.84416,50.462208 h 3.67741 v 1.61485 h -3.68741 l 0.01,-1.61485"
         id="path1117"
         inkscape:connector-curvature="0"
         sodipodi:nodetypes="ccccc" />
      <path
         sodipodi:nodetypes="ccccc"
         inkscape:connector-curvature="0"
         id="path1119"
         d="m 193.52157,50.462208 h 3.67741 v 1.61485 h -3.68741 l 0.01,-1.61485"
         style="fill:#ffaaaa;fill-opacity:1;stroke:#000000;stroke-width:0.5;stroke-linecap:butt;stroke-linejoin:miter;stroke-miterlimit:4;stroke-dasharray:none;stroke-opacity:1" />
      <path
         style="fill:#ffaaaa;fill-opacity:1;stroke:#000000;stroke-width:0.5;stroke-linecap:butt;stroke-linejoin:miter;stroke-miterlimit:4;stroke-dasharray:none;stroke-opacity:1"
         d="m 189.85416,48.847358 h 3.67741 v 1.61485 h -3.68741 l 0.01,-1.61485"
         id="path1121"
         inkscape:connector-curvature="0"
         sodipodi:nodetypes="ccccc" />
      <path
         sodipodi:nodetypes="ccccc"
         inkscape:connector-curvature="0"
         id="path1123"
         d="m 193.53157,48.847358 h 3.67741 v 1.61485 h -3.68741 l 0.01,-1.61485"
         style="fill:#ffaaaa;fill-opacity:1;stroke:#000000;stroke-width:0.5;stroke-linecap:butt;stroke-linejoin:miter;stroke-miterlimit:4;stroke-dasharray:none;stroke-opacity:1" />
      <path
         sodipodi:nodetypes="ccccc"
         inkscape:connector-curvature="0"
         id="path1125"
         d="m 189.86416,47.232508 h 3.67741 v 1.61485 h -3.68741 l 0.01,-1.61485"
         style="fill:#ffaaaa;fill-opacity:1;stroke:#000000;stroke-width:0.5;stroke-linecap:butt;stroke-linejoin:miter;stroke-miterlimit:4;stroke-dasharray:none;stroke-opacity:1" />
      <path
         style="fill:#ffaaaa;fill-opacity:1;stroke:#000000;stroke-width:0.5;stroke-linecap:butt;stroke-linejoin:miter;stroke-miterlimit:4;stroke-dasharray:none;stroke-opacity:1"
         d="m 193.54157,47.232508 h 3.67741 v 1.61485 h -3.68741 l 0.01,-1.61485"
         id="path1127"
         inkscape:connector-curvature="0"
         sodipodi:nodetypes="ccccc" />
      <path
         sodipodi:nodetypes="ccccc"
         inkscape:connector-curvature="0"
         id="path1129"
         d="m 189.87416,45.617658 h 3.67741 v 1.61485 h -3.68741 l 0.01,-1.61485"
         style="fill:#ffaaaa;fill-opacity:1;stroke:#000000;stroke-width:0.5;stroke-linecap:butt;stroke-linejoin:miter;stroke-miterlimit:4;stroke-dasharray:none;stroke-opacity:1" />
      <path
         style="fill:#ffaaaa;fill-opacity:1;stroke:#000000;stroke-width:0.5;stroke-linecap:butt;stroke-linejoin:miter;stroke-miterlimit:4;stroke-dasharray:none;stroke-opacity:1"
         d="m 193.55157,45.617658 h 3.67741 v 1.61485 h -3.68741 l 0.01,-1.61485"
         id="path1131"
         inkscape:connector-curvature="0"
         sodipodi:nodetypes="ccccc" />
      <path
         style="fill:#ffaaaa;fill-opacity:1;stroke:#000000;stroke-width:0.5;stroke-linecap:butt;stroke-linejoin:miter;stroke-miterlimit:4;stroke-dasharray:none;stroke-opacity:1"
         d="m 189.88416,44.002808 h 3.67741 v 1.61485 h -3.68741 l 0.01,-1.61485"
         id="path1133"
         inkscape:connector-curvature="0"
         sodipodi:nodetypes="ccccc" />
      <path
         sodipodi:nodetypes="ccccc"
         inkscape:connector-curvature="0"
         id="path1135"
         d="m 193.56157,44.002808 h 3.67741 v 1.61485 h -3.68741 l 0.01,-1.61485"
         style="fill:#ffaaaa;fill-opacity:1;stroke:#000000;stroke-width:0.5;stroke-linecap:butt;stroke-linejoin:miter;stroke-miterlimit:4;stroke-dasharray:none;stroke-opacity:1" />
      <path
         sodipodi:nodetypes="ccccc"
         inkscape:connector-curvature="0"
         id="path1137"
         d="m 189.89416,42.387958 h 3.67741 v 1.61485 h -3.68741 l 0.01,-1.61485"
         style="fill:#ffaaaa;fill-opacity:1;stroke:#000000;stroke-width:0.5;stroke-linecap:butt;stroke-linejoin:miter;stroke-miterlimit:4;stroke-dasharray:none;stroke-opacity:1" />
      <path
         style="fill:#ffaaaa;fill-opacity:1;stroke:#000000;stroke-width:0.5;stroke-linecap:butt;stroke-linejoin:miter;stroke-miterlimit:4;stroke-dasharray:none;stroke-opacity:1"
         d="m 193.57157,42.387958 h 3.67741 v 1.61485 h -3.68741 l 0.01,-1.61485"
         id="path1139"
         inkscape:connector-curvature="0"
         sodipodi:nodetypes="ccccc" />
      <path
         style="fill:#ffaaaa;fill-opacity:1;stroke:#000000;stroke-width:0.5;stroke-linecap:butt;stroke-linejoin:miter;stroke-miterlimit:4;stroke-dasharray:none;stroke-opacity:1"
         d="m 189.90416,40.773108 h 3.67741 v 1.61485 h -3.68741 l 0.01,-1.61485"
         id="path1141"
         inkscape:connector-curvature="0"
         sodipodi:nodetypes="ccccc" />
      <path
         sodipodi:nodetypes="ccccc"
         inkscape:connector-curvature="0"
         id="path1143"
         d="m 193.58157,40.773108 h 3.67741 v 1.61485 h -3.68741 l 0.01,-1.61485"
         style="fill:#ffaaaa;fill-opacity:1;stroke:#000000;stroke-width:0.5;stroke-linecap:butt;stroke-linejoin:miter;stroke-miterlimit:4;stroke-dasharray:none;stroke-opacity:1" />
      <path
         style="fill:#ffaaaa;fill-opacity:1;stroke:#000000;stroke-width:0.5;stroke-linecap:butt;stroke-linejoin:miter;stroke-miterlimit:4;stroke-dasharray:none;stroke-opacity:1"
         d="m 189.91416,39.158258 h 3.67741 v 1.61485 h -3.68741 l 0.01,-1.61485"
         id="path1145"
         inkscape:connector-curvature="0"
         sodipodi:nodetypes="ccccc" />
      <path
         sodipodi:nodetypes="ccccc"
         inkscape:connector-curvature="0"
         id="path1147"
         d="m 193.59157,39.158258 h 3.67741 v 1.61485 h -3.68741 l 0.01,-1.61485"
         style="fill:#ffaaaa;fill-opacity:1;stroke:#000000;stroke-width:0.5;stroke-linecap:butt;stroke-linejoin:miter;stroke-miterlimit:4;stroke-dasharray:none;stroke-opacity:1" />
      <path
         sodipodi:nodetypes="ccccc"
         inkscape:connector-curvature="0"
         id="path1149"
         d="m 189.92416,37.543408 h 3.67741 v 1.61485 h -3.68741 l 0.01,-1.61485"
         style="fill:#ffaaaa;fill-opacity:1;stroke:#000000;stroke-width:0.5;stroke-linecap:butt;stroke-linejoin:miter;stroke-miterlimit:4;stroke-dasharray:none;stroke-opacity:1" />
      <path
         style="fill:#ffaaaa;fill-opacity:1;stroke:#000000;stroke-width:0.5;stroke-linecap:butt;stroke-linejoin:miter;stroke-miterlimit:4;stroke-dasharray:none;stroke-opacity:1"
         d="m 193.60157,37.543408 h 3.67741 v 1.61485 h -3.68741 l 0.01,-1.61485"
         id="path1151"
         inkscape:connector-curvature="0"
         sodipodi:nodetypes="ccccc" />
      <rect
         y="76.299812"
         x="112.60661"
         height="1.0294495"
         width="84.445854"
         id="rect1153"
         style="fill:#cccccc;fill-opacity:1;stroke:#000000;stroke-width:0.5;stroke-linecap:round;stroke-linejoin:round;stroke-miterlimit:4;stroke-dasharray:none;stroke-dashoffset:0;stroke-opacity:1" />
      <circle
         r="0.86090279"
         cy="76.814018"
         cx="112.05833"
         id="path1157"
         style="fill:#000000;fill-opacity:1;stroke:#000000;stroke-width:0.27819401;stroke-linecap:round;stroke-linejoin:round;stroke-miterlimit:4;stroke-dasharray:none;stroke-dashoffset:0;stroke-opacity:1" />
      <circle
         r="0.86090279"
         style="fill:#000000;fill-opacity:1;stroke:#000000;stroke-width:0.27819401;stroke-linecap:round;stroke-linejoin:round;stroke-miterlimit:4;stroke-dasharray:none;stroke-dashoffset:0;stroke-opacity:1"
         id="circle1159"
         cx="123.43595"
         cy="76.814018" />
      <circle
         r="0.86090279"
         cy="76.814018"
         cx="134.6158"
         id="circle1161"
         style="fill:#000000;fill-opacity:1;stroke:#000000;stroke-width:0.27819401;stroke-linecap:round;stroke-linejoin:round;stroke-miterlimit:4;stroke-dasharray:none;stroke-dashoffset:0;stroke-opacity:1" />
      <circle
         r="0.86090279"
         style="fill:#000000;fill-opacity:1;stroke:#000000;stroke-width:0.27819401;stroke-linecap:round;stroke-linejoin:round;stroke-miterlimit:4;stroke-dasharray:none;stroke-dashoffset:0;stroke-opacity:1"
         id="circle1163"
         cx="145.77368"
         cy="76.814018" />
      <circle
         r="0.86090279"
         cy="76.814018"
         cx="159.94156"
         id="circle1165"
         style="fill:#000000;fill-opacity:1;stroke:#000000;stroke-width:0.27819401;stroke-linecap:round;stroke-linejoin:round;stroke-miterlimit:4;stroke-dasharray:none;stroke-dashoffset:0;stroke-opacity:1" />
      <g
         aria-label="N"
         transform="matrix(0.26458333,0,0,0.26458333,13.773766,-210.85274)"
         style="font-style:normal;font-weight:normal;font-size:14.66670036px;line-height:1.25;font-family:sans-serif;letter-spacing:0px;word-spacing:0px;fill:#000000;fill-opacity:1;stroke:none"
         id="flowRoot1173">
        <path
           d="m 375.88605,1102.6387 h -1.26302 l -5.20181,-7.9883 h -0.0521 q 0.10417,1.4063 0.10417,2.5782 v 5.4101 h -1.02213 v -9.5182 h 1.25 l 5.18878,7.9557 h 0.0521 q -0.013,-0.1758 -0.0586,-1.1263 -0.0456,-0.957 -0.0326,-1.3672 v -5.4622 h 1.03516 z"
           style="font-style:normal;font-variant:normal;font-weight:normal;font-stretch:normal;font-size:13.33329964px;line-height:1.25;font-family:'Open Sans';-inkscape-font-specification:'Open Sans';fill:#000000;fill-opacity:1"
           id="path359" />
      </g>
      <g
         aria-label="M"
         transform="matrix(0.26458333,0,0,0.26458333,24.886266,-210.85274)"
         style="font-style:normal;font-weight:normal;font-size:14.66670036px;line-height:1.25;font-family:sans-serif;letter-spacing:0px;word-spacing:0px;fill:#000000;fill-opacity:1;stroke:none"
         id="flowRoot1183">
        <path
           d="m 372.6634,1102.6387 -3.22916,-8.4375 h -0.0521 q 0.0911,1.0026 0.0911,2.3828 v 6.0547 h -1.02213 v -9.5182 h 1.66666 l 3.01432,7.8515 h 0.0521 l 3.04036,-7.8515 h 1.65364 v 9.5182 h -1.10677 v -6.1328 q 0,-1.0547 0.0912,-2.2917 h -0.0521 l -3.2552,8.4245 z"
           style="font-style:normal;font-variant:normal;font-weight:normal;font-stretch:normal;font-size:13.33329964px;line-height:1.25;font-family:'Open Sans';-inkscape-font-specification:'Open Sans';fill:#000000;fill-opacity:1"
           id="path356" />
      </g>
      <g
         aria-label="L"
         transform="matrix(0.26458333,0,0,0.26458333,36.527934,-210.85274)"
         style="font-style:normal;font-weight:normal;font-size:14.66670036px;line-height:1.25;font-family:sans-serif;letter-spacing:0px;word-spacing:0px;fill:#000000;fill-opacity:1;stroke:none"
         id="flowRoot1191">
        <path
           d="m 368.45117,1102.6387 v -9.5182 h 1.10677 v 8.5156 h 4.1992 v 1.0026 z"
           style="font-style:normal;font-variant:normal;font-weight:normal;font-stretch:normal;font-size:13.33329964px;line-height:1.25;font-family:'Open Sans';-inkscape-font-specification:'Open Sans';fill:#000000;fill-opacity:1"
           id="path353" />
      </g>
      <g
         aria-label="K"
         transform="matrix(0.26458333,0,0,0.26458333,47.640435,-210.85274)"
         style="font-style:normal;font-weight:normal;font-size:14.66670036px;line-height:1.25;font-family:sans-serif;letter-spacing:0px;word-spacing:0px;fill:#000000;fill-opacity:1;stroke:none"
         id="flowRoot1199">
        <path
           d="m 375.32615,1102.6387 h -1.30208 l -3.47004,-4.6159 -0.99609,0.8854 v 3.7305 h -1.10677 v -9.5182 h 1.10677 v 4.72 l 4.31639,-4.72 h 1.30859 l -3.82811,4.1341 z"
           style="font-style:normal;font-variant:normal;font-weight:normal;font-stretch:normal;font-size:13.33329964px;line-height:1.25;font-family:'Open Sans';-inkscape-font-specification:'Open Sans';fill:#000000;fill-opacity:1"
           id="path350" />
      </g>
      <g
         aria-label="R"
         transform="matrix(0.26458333,0,0,0.26458333,61.927935,-210.85274)"
         style="font-style:normal;font-weight:normal;font-size:14.66670036px;line-height:1.25;font-family:sans-serif;letter-spacing:0px;word-spacing:0px;fill:#000000;fill-opacity:1;stroke:none"
         id="flowRoot1207">
        <path
           d="m 369.55794,1098.6804 v 3.9583 h -1.10677 v -9.5182 h 2.61067 q 1.7513,0 2.58463,0.6706 0.83984,0.6705 0.83984,2.0182 0,1.888 -1.91406,2.5521 l 2.58463,4.2773 h -1.30859 l -2.30468,-3.9583 z m 0,-0.9505 h 1.51692 q 1.17187,0 1.71875,-0.4623 0.54687,-0.4687 0.54687,-1.3997 0,-0.944 -0.5599,-1.3607 -0.55338,-0.4167 -1.78384,-0.4167 h -1.4388 z"
           style="font-style:normal;font-variant:normal;font-weight:normal;font-stretch:normal;font-size:13.33329964px;line-height:1.25;font-family:'Open Sans';-inkscape-font-specification:'Open Sans';fill:#000000;fill-opacity:1"
           id="path347" />
      </g>
      <g
         aria-label="1 m"
         transform="matrix(0.26458333,0,0,0.26458333,77.70149,-219.30766)"
         style="font-style:normal;font-weight:normal;font-size:14.66670036px;line-height:1.25;font-family:sans-serif;letter-spacing:0px;word-spacing:0px;fill:#000000;fill-opacity:1;stroke:none"
         id="flowRoot1215">
        <path
           d="m 371.79751,1102.6387 h -1.05468 v -6.7838 q 0,-0.8464 0.0521,-1.6016 -0.13672,0.1367 -0.30599,0.2865 -0.16927,0.1497 -1.54947,1.2695 l -0.57292,-0.7422 2.51953,-1.9466 h 0.91145 z"
           style="font-style:normal;font-variant:normal;font-weight:normal;font-stretch:normal;font-size:13.33329964px;line-height:1.25;font-family:'Open Sans';-inkscape-font-specification:'Open Sans';fill:#000000;fill-opacity:1"
           id="path342" />
        <path
           d="m 388.47065,1102.6387 v -4.6419 q 0,-0.8529 -0.36458,-1.2761 -0.36459,-0.4296 -1.13281,-0.4296 -1.00911,0 -1.49088,0.5794 -0.48177,0.5794 -0.48177,1.7838 v 3.9844 h -1.08073 v -4.6419 q 0,-0.8529 -0.36458,-1.2761 -0.36459,-0.4296 -1.13932,-0.4296 -1.01563,0 -1.49088,0.6119 -0.46875,0.6055 -0.46875,1.9922 v 3.7435 h -1.08073 v -7.1354 h 0.8789 l 0.17579,0.9766 h 0.0521 q 0.30599,-0.5209 0.85937,-0.8138 0.5599,-0.293 1.25,-0.293 1.67317,0 2.18749,1.2109 h 0.0521 q 0.31901,-0.5599 0.92447,-0.8854 0.60547,-0.3255 1.38021,-0.3255 1.21093,0 1.80989,0.625 0.60547,0.6185 0.60547,1.9857 v 4.6549 z"
           style="font-style:normal;font-variant:normal;font-weight:normal;font-stretch:normal;font-size:13.33329964px;line-height:1.25;font-family:'Open Sans';-inkscape-font-specification:'Open Sans';fill:#000000;fill-opacity:1"
           id="path344" />
      </g>
      <path
         inkscape:connector-curvature="0"
         id="path1217"
         d="m 181.74545,75.669348 v -8.46663"
         style="fill:none;stroke:#000000;stroke-width:0.5;stroke-linecap:butt;stroke-linejoin:miter;stroke-miterlimit:4;stroke-dasharray:none;stroke-opacity:1"
         sodipodi:nodetypes="cc" />
      <path
         sodipodi:nodetypes="ccc"
         inkscape:connector-curvature="0"
         id="path1219"
         d="m 181.13021,68.462168 0.61524,-1.25945 0.61146,1.24235"
         style="fill:none;stroke:#000000;stroke-width:0.5;stroke-linecap:round;stroke-linejoin:round;stroke-miterlimit:4;stroke-dasharray:none;stroke-opacity:1" />
      <path
         style="fill:none;stroke:#000000;stroke-width:0.5;stroke-linecap:round;stroke-linejoin:round;stroke-miterlimit:4;stroke-dasharray:none;stroke-opacity:1"
         d="m 181.13021,74.409898 0.61524,1.25945 0.61146,-1.24235"
         id="path1221"
         inkscape:connector-curvature="0"
         sodipodi:nodetypes="ccc" />
      <g
         aria-label="1 m"
         transform="matrix(0.26458333,0,0,0.26458333,52.599145,-216.66181)"
         style="font-style:normal;font-weight:normal;font-size:14.66670036px;line-height:1.25;font-family:sans-serif;letter-spacing:0px;word-spacing:0px;fill:#000000;fill-opacity:1;stroke:none"
         id="flowRoot1229">
        <path
           d="m 371.79751,1102.6387 h -1.05468 v -6.7838 q 0,-0.8464 0.0521,-1.6016 -0.13672,0.1367 -0.30599,0.2865 -0.16927,0.1497 -1.54947,1.2695 l -0.57292,-0.7422 2.51953,-1.9466 h 0.91145 z"
           style="font-style:normal;font-variant:normal;font-weight:normal;font-stretch:normal;font-size:13.33329964px;line-height:1.25;font-family:'Open Sans';-inkscape-font-specification:'Open Sans';fill:#000000;fill-opacity:1"
           id="path337" />
        <path
           d="m 388.47065,1102.6387 v -4.6419 q 0,-0.8529 -0.36458,-1.2761 -0.36459,-0.4296 -1.13281,-0.4296 -1.00911,0 -1.49088,0.5794 -0.48177,0.5794 -0.48177,1.7838 v 3.9844 h -1.08073 v -4.6419 q 0,-0.8529 -0.36458,-1.2761 -0.36459,-0.4296 -1.13932,-0.4296 -1.01563,0 -1.49088,0.6119 -0.46875,0.6055 -0.46875,1.9922 v 3.7435 h -1.08073 v -7.1354 h 0.8789 l 0.17579,0.9766 h 0.0521 q 0.30599,-0.5209 0.85937,-0.8138 0.5599,-0.293 1.25,-0.293 1.67317,0 2.18749,1.2109 h 0.0521 q 0.31901,-0.5599 0.92447,-0.8854 0.60547,-0.3255 1.38021,-0.3255 1.21093,0 1.80989,0.625 0.60547,0.6185 0.60547,1.9857 v 4.6549 z"
           style="font-style:normal;font-variant:normal;font-weight:normal;font-stretch:normal;font-size:13.33329964px;line-height:1.25;font-family:'Open Sans';-inkscape-font-specification:'Open Sans';fill:#000000;fill-opacity:1"
           id="path339" />
      </g>
      <g
         aria-label="0,5 m"
         transform="matrix(0.26458333,0,0,0.26458333,38.311642,-216.66181)"
         style="font-style:normal;font-weight:normal;font-size:14.66670036px;line-height:1.25;font-family:sans-serif;letter-spacing:0px;word-spacing:0px;fill:#000000;fill-opacity:1;stroke:none"
         id="flowRoot1237">
        <path
           d="m 374.1022,1097.8666 q 0,2.4674 -0.78125,3.6849 -0.77474,1.2174 -2.3763,1.2174 -1.53645,0 -2.33723,-1.2435 -0.80078,-1.25 -0.80078,-3.6588 0,-2.487 0.77474,-3.6914 0.77473,-1.2044 2.36327,-1.2044 1.54948,0 2.35026,1.2565 0.80729,1.2565 0.80729,3.6393 z m -5.20181,0 q 0,2.0768 0.48828,3.0273 0.48828,0.944 1.55598,0.944 1.08073,0 1.5625,-0.957 0.48828,-0.9635 0.48828,-3.0143 0,-2.0508 -0.48828,-3.0013 -0.48177,-0.957 -1.5625,-0.957 -1.0677,0 -1.55598,0.944 -0.48828,0.9375 -0.48828,3.0143 z"
           style="font-style:normal;font-variant:normal;font-weight:normal;font-stretch:normal;font-size:13.33329964px;line-height:1.25;font-family:'Open Sans';-inkscape-font-specification:'Open Sans';fill:#000000;fill-opacity:1"
           id="path328" />
        <path
           d="m 377.0449,1101.0892 0.0977,0.1498 q -0.16927,0.651 -0.48828,1.5104 -0.31901,0.8659 -0.66406,1.608 h -0.8138 q 0.17578,-0.677 0.38412,-1.6731 0.21484,-0.9961 0.29947,-1.5951 z"
           style="font-style:normal;font-variant:normal;font-weight:normal;font-stretch:normal;font-size:13.33329964px;line-height:1.25;font-family:'Open Sans';-inkscape-font-specification:'Open Sans';fill:#000000;fill-opacity:1"
           id="path330" />
        <path
           d="m 381.66077,1096.8249 q 1.5039,0 2.36328,0.7487 0.86588,0.7422 0.86588,2.0378 0,1.4778 -0.94401,2.3177 -0.9375,0.8398 -2.59114,0.8398 -1.60807,0 -2.45442,-0.5143 v -1.0417 q 0.45573,0.293 1.13281,0.4623 0.67708,0.1627 1.33463,0.1627 1.14583,0 1.77734,-0.5403 0.63802,-0.5404 0.63802,-1.5625 0,-1.9922 -2.4414,-1.9922 -0.61849,0 -1.65364,0.1888 l -0.5599,-0.3581 0.35808,-4.4531 h 4.73306 v 0.9961 h -3.80859 l -0.24088,2.8581 q 0.74869,-0.1498 1.49088,-0.1498 z"
           style="font-style:normal;font-variant:normal;font-weight:normal;font-stretch:normal;font-size:13.33329964px;line-height:1.25;font-family:'Open Sans';-inkscape-font-specification:'Open Sans';fill:#000000;fill-opacity:1"
           id="path332" />
        <path
           d="m 399.36255,1102.6387 v -4.6419 q 0,-0.8529 -0.36458,-1.2761 -0.36459,-0.4296 -1.13281,-0.4296 -1.00912,0 -1.49089,0.5794 -0.48176,0.5794 -0.48176,1.7838 v 3.9844 h -1.08073 v -4.6419 q 0,-0.8529 -0.36458,-1.2761 -0.36459,-0.4296 -1.13932,-0.4296 -1.01563,0 -1.49089,0.6119 -0.46874,0.6055 -0.46874,1.9922 v 3.7435 h -1.08073 v -7.1354 h 0.8789 l 0.17578,0.9766 h 0.0521 q 0.30599,-0.5209 0.85937,-0.8138 0.55989,-0.293 1.25,-0.293 1.67317,0 2.18749,1.2109 h 0.0521 q 0.31901,-0.5599 0.92448,-0.8854 0.60547,-0.3255 1.38021,-0.3255 1.21093,0 1.80989,0.625 0.60546,0.6185 0.60546,1.9857 v 4.6549 z"
           style="font-style:normal;font-variant:normal;font-weight:normal;font-stretch:normal;font-size:13.33329964px;line-height:1.25;font-family:'Open Sans';-inkscape-font-specification:'Open Sans';fill:#000000;fill-opacity:1"
           id="path334" />
      </g>
      <g
         aria-label="0,5 m"
         transform="matrix(0.26458333,0,0,0.26458333,27.199141,-216.66181)"
         style="font-style:normal;font-weight:normal;font-size:14.66670036px;line-height:1.25;font-family:sans-serif;letter-spacing:0px;word-spacing:0px;fill:#000000;fill-opacity:1;stroke:none"
         id="flowRoot1245">
        <path
           d="m 374.1022,1097.8666 q 0,2.4674 -0.78125,3.6849 -0.77474,1.2174 -2.3763,1.2174 -1.53645,0 -2.33723,-1.2435 -0.80078,-1.25 -0.80078,-3.6588 0,-2.487 0.77474,-3.6914 0.77473,-1.2044 2.36327,-1.2044 1.54948,0 2.35026,1.2565 0.80729,1.2565 0.80729,3.6393 z m -5.20181,0 q 0,2.0768 0.48828,3.0273 0.48828,0.944 1.55598,0.944 1.08073,0 1.5625,-0.957 0.48828,-0.9635 0.48828,-3.0143 0,-2.0508 -0.48828,-3.0013 -0.48177,-0.957 -1.5625,-0.957 -1.0677,0 -1.55598,0.944 -0.48828,0.9375 -0.48828,3.0143 z"
           style="font-style:normal;font-variant:normal;font-weight:normal;font-stretch:normal;font-size:13.33329964px;line-height:1.25;font-family:'Open Sans';-inkscape-font-specification:'Open Sans';fill:#000000;fill-opacity:1"
           id="path319" />
        <path
           d="m 377.0449,1101.0892 0.0977,0.1498 q -0.16927,0.651 -0.48828,1.5104 -0.31901,0.8659 -0.66406,1.608 h -0.8138 q 0.17578,-0.677 0.38412,-1.6731 0.21484,-0.9961 0.29947,-1.5951 z"
           style="font-style:normal;font-variant:normal;font-weight:normal;font-stretch:normal;font-size:13.33329964px;line-height:1.25;font-family:'Open Sans';-inkscape-font-specification:'Open Sans';fill:#000000;fill-opacity:1"
           id="path321" />
        <path
           d="m 381.66077,1096.8249 q 1.5039,0 2.36328,0.7487 0.86588,0.7422 0.86588,2.0378 0,1.4778 -0.94401,2.3177 -0.9375,0.8398 -2.59114,0.8398 -1.60807,0 -2.45442,-0.5143 v -1.0417 q 0.45573,0.293 1.13281,0.4623 0.67708,0.1627 1.33463,0.1627 1.14583,0 1.77734,-0.5403 0.63802,-0.5404 0.63802,-1.5625 0,-1.9922 -2.4414,-1.9922 -0.61849,0 -1.65364,0.1888 l -0.5599,-0.3581 0.35808,-4.4531 h 4.73306 v 0.9961 h -3.80859 l -0.24088,2.8581 q 0.74869,-0.1498 1.49088,-0.1498 z"
           style="font-style:normal;font-variant:normal;font-weight:normal;font-stretch:normal;font-size:13.33329964px;line-height:1.25;font-family:'Open Sans';-inkscape-font-specification:'Open Sans';fill:#000000;fill-opacity:1"
           id="path323" />
        <path
           d="m 399.36255,1102.6387 v -4.6419 q 0,-0.8529 -0.36458,-1.2761 -0.36459,-0.4296 -1.13281,-0.4296 -1.00912,0 -1.49089,0.5794 -0.48176,0.5794 -0.48176,1.7838 v 3.9844 h -1.08073 v -4.6419 q 0,-0.8529 -0.36458,-1.2761 -0.36459,-0.4296 -1.13932,-0.4296 -1.01563,0 -1.49089,0.6119 -0.46874,0.6055 -0.46874,1.9922 v 3.7435 h -1.08073 v -7.1354 h 0.8789 l 0.17578,0.9766 h 0.0521 q 0.30599,-0.5209 0.85937,-0.8138 0.55989,-0.293 1.25,-0.293 1.67317,0 2.18749,1.2109 h 0.0521 q 0.31901,-0.5599 0.92448,-0.8854 0.60547,-0.3255 1.38021,-0.3255 1.21093,0 1.80989,0.625 0.60546,0.6185 0.60546,1.9857 v 4.6549 z"
           style="font-style:normal;font-variant:normal;font-weight:normal;font-stretch:normal;font-size:13.33329964px;line-height:1.25;font-family:'Open Sans';-inkscape-font-specification:'Open Sans';fill:#000000;fill-opacity:1"
           id="path325" />
      </g>
      <g
         aria-label="0,5 m"
         transform="matrix(0.26458333,0,0,0.26458333,16.086641,-216.66181)"
         style="font-style:normal;font-weight:normal;font-size:14.66670036px;line-height:1.25;font-family:sans-serif;letter-spacing:0px;word-spacing:0px;fill:#000000;fill-opacity:1;stroke:none"
         id="flowRoot1253">
        <path
           d="m 374.1022,1097.8666 q 0,2.4674 -0.78125,3.6849 -0.77474,1.2174 -2.3763,1.2174 -1.53645,0 -2.33723,-1.2435 -0.80078,-1.25 -0.80078,-3.6588 0,-2.487 0.77474,-3.6914 0.77473,-1.2044 2.36327,-1.2044 1.54948,0 2.35026,1.2565 0.80729,1.2565 0.80729,3.6393 z m -5.20181,0 q 0,2.0768 0.48828,3.0273 0.48828,0.944 1.55598,0.944 1.08073,0 1.5625,-0.957 0.48828,-0.9635 0.48828,-3.0143 0,-2.0508 -0.48828,-3.0013 -0.48177,-0.957 -1.5625,-0.957 -1.0677,0 -1.55598,0.944 -0.48828,0.9375 -0.48828,3.0143 z"
           style="font-style:normal;font-variant:normal;font-weight:normal;font-stretch:normal;font-size:13.33329964px;line-height:1.25;font-family:'Open Sans';-inkscape-font-specification:'Open Sans';fill:#000000;fill-opacity:1"
           id="path310" />
        <path
           d="m 377.0449,1101.0892 0.0977,0.1498 q -0.16927,0.651 -0.48828,1.5104 -0.31901,0.8659 -0.66406,1.608 h -0.8138 q 0.17578,-0.677 0.38412,-1.6731 0.21484,-0.9961 0.29947,-1.5951 z"
           style="font-style:normal;font-variant:normal;font-weight:normal;font-stretch:normal;font-size:13.33329964px;line-height:1.25;font-family:'Open Sans';-inkscape-font-specification:'Open Sans';fill:#000000;fill-opacity:1"
           id="path312" />
        <path
           d="m 381.66077,1096.8249 q 1.5039,0 2.36328,0.7487 0.86588,0.7422 0.86588,2.0378 0,1.4778 -0.94401,2.3177 -0.9375,0.8398 -2.59114,0.8398 -1.60807,0 -2.45442,-0.5143 v -1.0417 q 0.45573,0.293 1.13281,0.4623 0.67708,0.1627 1.33463,0.1627 1.14583,0 1.77734,-0.5403 0.63802,-0.5404 0.63802,-1.5625 0,-1.9922 -2.4414,-1.9922 -0.61849,0 -1.65364,0.1888 l -0.5599,-0.3581 0.35808,-4.4531 h 4.73306 v 0.9961 h -3.80859 l -0.24088,2.8581 q 0.74869,-0.1498 1.49088,-0.1498 z"
           style="font-style:normal;font-variant:normal;font-weight:normal;font-stretch:normal;font-size:13.33329964px;line-height:1.25;font-family:'Open Sans';-inkscape-font-specification:'Open Sans';fill:#000000;fill-opacity:1"
           id="path314" />
        <path
           d="m 399.36255,1102.6387 v -4.6419 q 0,-0.8529 -0.36458,-1.2761 -0.36459,-0.4296 -1.13281,-0.4296 -1.00912,0 -1.49089,0.5794 -0.48176,0.5794 -0.48176,1.7838 v 3.9844 h -1.08073 v -4.6419 q 0,-0.8529 -0.36458,-1.2761 -0.36459,-0.4296 -1.13932,-0.4296 -1.01563,0 -1.49089,0.6119 -0.46874,0.6055 -0.46874,1.9922 v 3.7435 h -1.08073 v -7.1354 h 0.8789 l 0.17578,0.9766 h 0.0521 q 0.30599,-0.5209 0.85937,-0.8138 0.55989,-0.293 1.25,-0.293 1.67317,0 2.18749,1.2109 h 0.0521 q 0.31901,-0.5599 0.92448,-0.8854 0.60547,-0.3255 1.38021,-0.3255 1.21093,0 1.80989,0.625 0.60546,0.6185 0.60546,1.9857 v 4.6549 z"
           style="font-style:normal;font-variant:normal;font-weight:normal;font-stretch:normal;font-size:13.33329964px;line-height:1.25;font-family:'Open Sans';-inkscape-font-specification:'Open Sans';fill:#000000;fill-opacity:1"
           id="path316" />
      </g>
    </g>
  </g>
</svg>
