<?xml version="1.0" encoding="UTF-8" standalone="no"?>
<svg
   xmlns:dc="http://purl.org/dc/elements/1.1/"
   xmlns:cc="http://creativecommons.org/ns#"
   xmlns:rdf="http://www.w3.org/1999/02/22-rdf-syntax-ns#"
   xmlns:svg="http://www.w3.org/2000/svg"
   xmlns="http://www.w3.org/2000/svg"
   xmlns:sodipodi="http://sodipodi.sourceforge.net/DTD/sodipodi-0.dtd"
   xmlns:inkscape="http://www.inkscape.org/namespaces/inkscape"
   sodipodi:docname="egim_22.svg"
   inkscape:version="0.92.5 (2060ec1f9f, 2020-04-08)"
   id="svg8"
   version="1.1"
   viewBox="0 0 170 51.748001"
   height="51.748001mm"
   width="170mm">
  <defs
     id="defs2" />
  <sodipodi:namedview
     inkscape:document-rotation="0"
     inkscape:snap-global="true"
     inkscape:window-maximized="0"
     inkscape:window-y="25"
     inkscape:window-x="0"
     inkscape:window-height="1030"
     inkscape:window-width="958"
     showgrid="false"
     inkscape:current-layer="layer1"
     inkscape:document-units="mm"
     inkscape:cy="63.74271"
     inkscape:cx="331.54053"
     inkscape:zoom="1"
     inkscape:pageshadow="2"
     inkscape:pageopacity="0.0"
     borderopacity="1.0"
     bordercolor="#666666"
     pagecolor="#ffffff"
     id="base"
     inkscape:pagecheckerboard="0" />
  <metadata
     id="metadata5">
    <rdf:RDF>
      <cc:Work
         rdf:about="">
        <dc:format>image/svg+xml</dc:format>
        <dc:type
           rdf:resource="http://purl.org/dc/dcmitype/StillImage" />
        <dc:title></dc:title>
      </cc:Work>
    </rdf:RDF>
  </metadata>
  <g
     id="layer1"
     inkscape:groupmode="layer"
     inkscape:label="Layer 1"
     transform="translate(0,-245.252)">
    <g
       id="g8897"
       transform="matrix(0.99999384,0,0,1,114.01304,193.1016)">
      <path
         sodipodi:nodetypes="cc"
         inkscape:connector-curvature="0"
         id="path146"
         d="M -54.662548,79.2633 H -5.5852723"
         style="fill:none;stroke:#000000;stroke-width:0.5;stroke-linecap:butt;stroke-linejoin:miter;stroke-miterlimit:4;stroke-dasharray:none;stroke-opacity:1" />
      <path
         sodipodi:nodetypes="cc"
         style="fill:none;stroke:#000000;stroke-width:0.5;stroke-linecap:butt;stroke-linejoin:miter;stroke-miterlimit:4;stroke-dasharray:none;stroke-opacity:1"
         d="M -29.988902,54.556903 V 103.70353"
         id="path206"
         inkscape:connector-curvature="0" />
      <g
         aria-label="y"
         transform="matrix(0.26458333,0,0,0.26458333,-443.27039,-226.81278)"
         style="font-style:normal;font-weight:normal;font-size:40px;line-height:1.25;font-family:sans-serif;letter-spacing:0px;word-spacing:0px;fill:#000000;fill-opacity:1;stroke:none"
         id="flowRoot2798">
        <path
           d="m 1567.0156,1054.3477 h 1.3907 l 1.875,4.8828 q 0.6171,1.6718 0.7656,2.414 h 0.062 q 0.1015,-0.3984 0.4219,-1.3593 0.3281,-0.9688 2.125,-5.9375 h 1.3906 l -3.6797,9.75 q -0.5469,1.4453 -1.2813,2.0468 -0.7265,0.6094 -1.789,0.6094 -0.5938,0 -1.1719,-0.1328 v -1.0391 q 0.4297,0.094 0.9609,0.094 1.336,0 1.9063,-1.5 l 0.4766,-1.2188 z"
           style="font-style:normal;font-variant:normal;font-weight:normal;font-stretch:normal;font-size:16px;font-family:'Open Sans';-inkscape-font-specification:'Open Sans'"
           id="path176"
           inkscape:connector-curvature="0" />
      </g>
      <circle
         r="1"
         cy="79.263809"
         cx="-29.931015"
         id="path2491"
         style="fill:#000000;fill-opacity:1;stroke:none;stroke-width:0.39015299;stroke-linecap:round;stroke-linejoin:round;stroke-miterlimit:4;stroke-dasharray:none;stroke-opacity:1" />
      <g
         aria-label="x"
         transform="matrix(0.26458333,0,0,0.26458333,-419.90734,-203.13878)"
         style="font-style:normal;font-weight:normal;font-size:40px;line-height:1.25;font-family:sans-serif;letter-spacing:0px;word-spacing:0px;fill:#000000;fill-opacity:1;stroke:none"
         id="flowRoot2644">
        <path
           d="m 1570.4375,1058.5273 -2.9766,-4.1796 h 1.4766 l 2.2578,3.2812 2.25,-3.2812 h 1.461 l -2.9766,4.1796 3.1328,4.3829 h -1.4687 l -2.3985,-3.4688 -2.4219,3.4688 h -1.4687 z"
           style="font-style:normal;font-variant:normal;font-weight:normal;font-stretch:normal;font-size:16px;font-family:'Open Sans';-inkscape-font-specification:'Open Sans'"
           id="path170"
           inkscape:connector-curvature="0" />
      </g>
      <g
         aria-label="0"
         transform="matrix(0.26458333,0,0,0.26458333,-446.99114,-202.54063)"
         style="font-style:normal;font-weight:normal;font-size:40px;line-height:1.25;font-family:sans-serif;letter-spacing:0px;word-spacing:0px;fill:#000000;fill-opacity:1;stroke:none"
         id="flowRoot3124">
        <path
           d="m 1573.9596,1058.138 q 0,2.4675 -0.7812,3.6849 -0.7748,1.2175 -2.3763,1.2175 -1.5365,0 -2.3373,-1.2435 -0.8007,-1.25 -0.8007,-3.6589 0,-2.4869 0.7747,-3.6914 0.7747,-1.2044 2.3633,-1.2044 1.5494,0 2.3502,1.2565 0.8073,1.2565 0.8073,3.6393 z m -5.2018,0 q 0,2.0769 0.4883,3.0274 0.4883,0.944 1.556,0.944 1.0807,0 1.5625,-0.9571 0.4882,-0.9635 0.4882,-3.0143 0,-2.0507 -0.4882,-3.0013 -0.4818,-0.957 -1.5625,-0.957 -1.0677,0 -1.556,0.944 -0.4883,0.9375 -0.4883,3.0143 z"
           style="font-style:normal;font-variant:normal;font-weight:normal;font-stretch:normal;font-size:13.33329964px;font-family:'Open Sans';-inkscape-font-specification:'Open Sans'"
           id="path173"
           inkscape:connector-curvature="0" />
      </g>
      <path
         style="fill:none;stroke:#000000;stroke-width:0.5;stroke-linecap:round;stroke-linejoin:round;stroke-miterlimit:4;stroke-dasharray:none;stroke-opacity:1"
         d="m -28.843932,56.984504 -1.14497,-2.37569 -1.07672,2.40696"
         id="path8589"
         inkscape:connector-curvature="0"
         sodipodi:nodetypes="ccc" />
      <path
         sodipodi:nodetypes="ccc"
         inkscape:connector-curvature="0"
         id="path8591"
         d="m -28.843932,101.27274 -1.14497,2.37569 -1.07672,-2.40696"
         style="fill:none;stroke:#000000;stroke-width:0.5;stroke-linecap:round;stroke-linejoin:round;stroke-miterlimit:4;stroke-dasharray:none;stroke-opacity:1" />
      <path
         sodipodi:nodetypes="ccc"
         inkscape:connector-curvature="0"
         id="path8593"
         d="M -8.0178224,80.40827 -5.6421323,79.2633 -8.0490924,78.18657"
         style="fill:none;stroke:#000000;stroke-width:0.5;stroke-linecap:round;stroke-linejoin:round;stroke-miterlimit:4;stroke-dasharray:none;stroke-opacity:1" />
      <path
         style="fill:none;stroke:#000000;stroke-width:0.5;stroke-linecap:round;stroke-linejoin:round;stroke-miterlimit:4;stroke-dasharray:none;stroke-opacity:1"
         d="m -52.228721,80.40827 -2.37569,-1.14497 2.40696,-1.07673"
         id="path8595"
         inkscape:connector-curvature="0"
         sodipodi:nodetypes="ccc" />
      <circle
         style="fill:#000000;fill-opacity:1;stroke:none;stroke-width:0.39015299;stroke-linecap:round;stroke-linejoin:round;stroke-miterlimit:4;stroke-dasharray:none;stroke-opacity:1"
         id="circle8863"
         cx="-40.514351"
         cy="63.388813"
         r="1" />
      <g
         aria-label="A"
         transform="matrix(0.26458333,0,0,0.26458333,-458.79818,-218.74637)"
         style="font-style:normal;font-weight:normal;font-size:40px;line-height:1.25;font-family:sans-serif;letter-spacing:0px;word-spacing:0px;fill:#000000;fill-opacity:1;stroke:none"
         id="flowRoot8871">
        <path
           d="m 1574.2916,1062.9102 -1.1848,-3.0274 h -3.8151 l -1.1719,3.0274 H 1567 l 3.763,-9.5573 h 0.931 l 3.7435,9.5573 z m -1.5299,-4.0235 -1.1068,-2.9492 q -0.2148,-0.5599 -0.4427,-1.3737 -0.1432,0.625 -0.4101,1.3737 l -1.1198,2.9492 z"
           style="font-style:normal;font-variant:normal;font-weight:normal;font-stretch:normal;font-size:13.33329964px;font-family:'Open Sans';-inkscape-font-specification:'Open Sans'"
           id="path179"
           inkscape:connector-curvature="0" />
      </g>
    </g>
  </g>
</svg>
