<?xml version="1.0" encoding="UTF-8" standalone="no"?>
<svg
   xmlns:dc="http://purl.org/dc/elements/1.1/"
   xmlns:cc="http://creativecommons.org/ns#"
   xmlns:rdf="http://www.w3.org/1999/02/22-rdf-syntax-ns#"
   xmlns:svg="http://www.w3.org/2000/svg"
   xmlns="http://www.w3.org/2000/svg"
   xmlns:sodipodi="http://sodipodi.sourceforge.net/DTD/sodipodi-0.dtd"
   xmlns:inkscape="http://www.inkscape.org/namespaces/inkscape"
   sodipodi:docname="egim_28.svg"
   inkscape:version="0.92.5 (2060ec1f9f, 2020-04-08)"
   id="svg8"
   version="1.1"
   viewBox="0 0 170 52.199001"
   height="52.199001mm"
   width="170mm">
  <defs
     id="defs2" />
  <sodipodi:namedview
     inkscape:document-rotation="0"
     inkscape:snap-global="true"
     inkscape:window-maximized="1"
     inkscape:window-y="25"
     inkscape:window-x="0"
     inkscape:window-height="1031"
     inkscape:window-width="1920"
     showgrid="false"
     inkscape:current-layer="layer1"
     inkscape:document-units="mm"
     inkscape:cy="117.40097"
     inkscape:cx="386.30114"
     inkscape:zoom="2.8284271"
     inkscape:pageshadow="2"
     inkscape:pageopacity="0.0"
     borderopacity="1.0"
     bordercolor="#666666"
     pagecolor="#ffffff"
     id="base"
     inkscape:pagecheckerboard="0" />
  <metadata
     id="metadata5">
    <rdf:RDF>
      <cc:Work
         rdf:about="">
        <dc:format>image/svg+xml</dc:format>
        <dc:type
           rdf:resource="http://purl.org/dc/dcmitype/StillImage" />
        <dc:title></dc:title>
      </cc:Work>
    </rdf:RDF>
  </metadata>
  <g
     id="layer1"
     inkscape:groupmode="layer"
     inkscape:label="Layer 1"
     transform="translate(0,-244.801)">
    <g
       id="g7036"
       transform="matrix(0.99999651,0,0,0.99999609,41.76024,106.64688)">
      <rect
         style="opacity:1;fill:#ffaaaa;fill-opacity:1;stroke:#000000;stroke-width:0.5;stroke-linecap:round;stroke-linejoin:round;stroke-miterlimit:4;stroke-dasharray:none;stroke-dashoffset:0;stroke-opacity:1"
         id="rect7021"
         width="9.7601185"
         height="46.22245"
         x="16.34432"
         y="139.43456" />
      <rect
         style="opacity:1;fill:#cccccc;fill-opacity:1;stroke:#000000;stroke-width:0.5;stroke-linecap:round;stroke-linejoin:round;stroke-miterlimit:4;stroke-dasharray:none;stroke-dashoffset:0;stroke-opacity:1"
         id="rect7023"
         width="59.757706"
         height="1.2890649"
         x="16.34432"
         y="185.65701" />
      <rect
         style="opacity:1;fill:#deaa87;fill-opacity:1;stroke:#000000;stroke-width:0.5;stroke-linecap:round;stroke-linejoin:round;stroke-miterlimit:4;stroke-dasharray:none;stroke-dashoffset:0;stroke-opacity:1"
         id="rect7025"
         width="61.066803"
         height="1.8638937"
         x="122.1805"
         y="70.513458"
         transform="rotate(48.858142)" />
      <rect
         transform="rotate(43.462001)"
         y="96.884399"
         x="129.60619"
         height="1.8409368"
         width="36.197773"
         id="rect7027"
         style="opacity:1;fill:#deaa87;fill-opacity:1;stroke:#000000;stroke-width:0.5;stroke-linecap:round;stroke-linejoin:round;stroke-miterlimit:4;stroke-dasharray:none;stroke-dashoffset:0;stroke-opacity:1" />
      <g
         aria-label="3,2 m"
         transform="matrix(0,-0.26458333,0.26458333,0,-277.11721,251.644)"
         style="font-style:normal;font-weight:normal;font-size:14.66670036px;line-height:0.25;font-family:sans-serif;letter-spacing:0px;word-spacing:0px;fill:#000000;fill-opacity:1;stroke:none"
         id="flowRoot7071">
        <path
           d="m 373.69204,1088.0267 q 0,0.9115 -0.51432,1.4909 -0.50781,0.5794 -1.44531,0.7747 v 0.052 q 1.14583,0.1433 1.69921,0.7292 0.55339,0.5859 0.55339,1.5364 0,1.3607 -0.94401,2.0964 -0.94401,0.7292 -2.68228,0.7292 -0.75521,0 -1.38672,-0.1172 -0.625,-0.1107 -1.21744,-0.3972 v -1.0286 q 0.61848,0.306 1.3151,0.4687 0.70312,0.1563 1.32812,0.1563 2.46744,0 2.46744,-1.9336 0,-1.7318 -2.72135,-1.7318 h -0.9375 v -0.9309 h 0.95052 q 1.11328,0 1.76432,-0.4883 0.65104,-0.4948 0.65104,-1.3672 0,-0.6966 -0.48177,-1.0938 -0.47526,-0.3971 -1.29557,-0.3971 -0.625,0 -1.17838,0.1693 -0.55338,0.1692 -1.26302,0.625 l -0.54687,-0.7292 q 0.58593,-0.4622 1.34765,-0.7226 0.76823,-0.267 1.61458,-0.267 1.38672,0 2.15494,0.638 0.76823,0.6316 0.76823,1.7383 z"
           style="font-style:normal;font-variant:normal;font-weight:normal;font-stretch:normal;font-size:13.33329964px;font-family:'Open Sans';-inkscape-font-specification:'Open Sans';fill:#000000;fill-opacity:1"
           id="path354" />
        <path
           d="m 377.0449,1093.7559 0.0977,0.1497 q -0.16927,0.6511 -0.48828,1.5104 -0.31901,0.8659 -0.66406,1.6081 h -0.8138 q 0.17578,-0.6771 0.38412,-1.6732 0.21484,-0.9961 0.29947,-1.595 z"
           style="font-style:normal;font-variant:normal;font-weight:normal;font-stretch:normal;font-size:13.33329964px;font-family:'Open Sans';-inkscape-font-specification:'Open Sans';fill:#000000;fill-opacity:1"
           id="path356" />
        <path
           d="m 384.94201,1095.3054 h -6.25649 v -0.931 l 2.5065,-2.5196 q 1.14583,-1.1588 1.51041,-1.6536 0.36459,-0.4948 0.54688,-0.9635 0.18229,-0.4688 0.18229,-1.0092 0,-0.7617 -0.46224,-1.2044 -0.46224,-0.4492 -1.28255,-0.4492 -0.59244,0 -1.1263,0.1953 -0.52734,0.1953 -1.17838,0.7097 l -0.57292,-0.7357 q 1.31511,-1.0938 2.86458,-1.0938 1.34114,0 2.10286,0.6901 0.76172,0.6836 0.76172,1.8425 0,0.9049 -0.50781,1.7903 -0.50782,0.8854 -1.90104,2.2396 l -2.08333,2.0378 v 0.052 h 4.89582 z"
           style="font-style:normal;font-variant:normal;font-weight:normal;font-stretch:normal;font-size:13.33329964px;font-family:'Open Sans';-inkscape-font-specification:'Open Sans';fill:#000000;fill-opacity:1"
           id="path358" />
        <path
           d="m 399.36255,1095.3054 v -4.642 q 0,-0.8528 -0.36458,-1.276 -0.36459,-0.4297 -1.13281,-0.4297 -1.00912,0 -1.49089,0.5794 -0.48176,0.5795 -0.48176,1.7839 v 3.9844 h -1.08073 v -4.642 q 0,-0.8528 -0.36458,-1.276 -0.36459,-0.4297 -1.13932,-0.4297 -1.01563,0 -1.49089,0.612 -0.46874,0.6055 -0.46874,1.9922 v 3.7435 h -1.08073 v -7.1354 h 0.8789 l 0.17578,0.9765 h 0.0521 q 0.30599,-0.5208 0.85937,-0.8138 0.55989,-0.293 1.25,-0.293 1.67317,0 2.18749,1.211 h 0.0521 q 0.31901,-0.5599 0.92448,-0.8854 0.60547,-0.3256 1.38021,-0.3256 1.21093,0 1.80989,0.625 0.60546,0.6185 0.60546,1.9857 v 4.655 z"
           style="font-style:normal;font-variant:normal;font-weight:normal;font-stretch:normal;font-size:13.33329964px;font-family:'Open Sans';-inkscape-font-specification:'Open Sans';fill:#000000;fill-opacity:1"
           id="path360" />
      </g>
      <path
         inkscape:connector-curvature="0"
         id="path7073"
         d="M 13.827407,159.96309 V 139.97213"
         style="fill:none;stroke:#000000;stroke-width:0.5;stroke-linecap:butt;stroke-linejoin:miter;stroke-miterlimit:4;stroke-dasharray:none;stroke-opacity:1"
         sodipodi:nodetypes="cc" />
      <path
         sodipodi:nodetypes="ccc"
         inkscape:connector-curvature="0"
         id="path7075"
         d="m 13.212162,141.23158 0.615245,-1.25945 0.611453,1.24235"
         style="fill:none;stroke:#000000;stroke-width:0.5;stroke-linecap:round;stroke-linejoin:round;stroke-miterlimit:4;stroke-dasharray:none;stroke-opacity:1" />
      <path
         style="fill:none;stroke:#000000;stroke-width:0.5;stroke-linecap:round;stroke-linejoin:round;stroke-miterlimit:4;stroke-dasharray:none;stroke-opacity:1"
         d="m 13.212162,158.95594 0.615245,1.25945 0.611453,-1.24235"
         id="path7077"
         inkscape:connector-curvature="0"
         sodipodi:nodetypes="ccc" />
      <path
         style="fill:none;stroke:#000000;stroke-width:0.5;stroke-linecap:round;stroke-linejoin:miter;stroke-miterlimit:4;stroke-dasharray:2.00000006, 2.00000006;stroke-dashoffset:0;stroke-opacity:1"
         d="M 26.161552,160.81048 H 13.674099"
         id="path7094"
         inkscape:connector-curvature="0"
         sodipodi:nodetypes="cc" />
      <path
         sodipodi:nodetypes="cc"
         inkscape:connector-curvature="0"
         id="path7096"
         d="M 26.104442,139.4346 H 13.616989"
         style="fill:none;stroke:#000000;stroke-width:0.5;stroke-linecap:round;stroke-linejoin:miter;stroke-miterlimit:4;stroke-dasharray:2.00000006, 2.00000006;stroke-dashoffset:0;stroke-opacity:1" />
      <g
         aria-label="0,8 m"
         transform="matrix(0.26458333,0,0,0.26458333,-65.831296,-99.900418)"
         style="font-style:normal;font-weight:normal;font-size:14.66670036px;line-height:0.25;font-family:sans-serif;letter-spacing:0px;word-spacing:0px;fill:#000000;fill-opacity:1;stroke:none"
         id="flowRoot7104">
        <path
           d="m 374.1022,1090.5332 q 0,2.4675 -0.78125,3.6849 -0.77474,1.2175 -2.3763,1.2175 -1.53645,0 -2.33723,-1.2435 -0.80078,-1.25 -0.80078,-3.6589 0,-2.4869 0.77474,-3.6914 0.77473,-1.2044 2.36327,-1.2044 1.54948,0 2.35026,1.2565 0.80729,1.2565 0.80729,3.6393 z m -5.20181,0 q 0,2.0768 0.48828,3.0274 0.48828,0.944 1.55598,0.944 1.08073,0 1.5625,-0.9571 0.48828,-0.9635 0.48828,-3.0143 0,-2.0507 -0.48828,-3.0013 -0.48177,-0.957 -1.5625,-0.957 -1.0677,0 -1.55598,0.944 -0.48828,0.9375 -0.48828,3.0143 z"
           style="font-style:normal;font-variant:normal;font-weight:normal;font-stretch:normal;font-size:13.33329964px;font-family:'Open Sans';-inkscape-font-specification:'Open Sans';fill:#000000;fill-opacity:1"
           id="path345" />
        <path
           d="m 377.0449,1093.7559 0.0977,0.1497 q -0.16927,0.6511 -0.48828,1.5104 -0.31901,0.8659 -0.66406,1.6081 h -0.8138 q 0.17578,-0.6771 0.38412,-1.6732 0.21484,-0.9961 0.29947,-1.595 z"
           style="font-style:normal;font-variant:normal;font-weight:normal;font-stretch:normal;font-size:13.33329964px;font-family:'Open Sans';-inkscape-font-specification:'Open Sans';fill:#000000;fill-opacity:1"
           id="path347" />
        <path
           d="m 381.83655,1085.6504 q 1.30208,0 2.0638,0.6055 0.76171,0.6055 0.76171,1.6732 0,0.7031 -0.43619,1.2825 -0.4362,0.5794 -1.39323,1.0547 1.15885,0.5534 1.64713,1.1654 0.48828,0.6054 0.48828,1.4062 0,1.1849 -0.82682,1.8945 -0.82682,0.7032 -2.26562,0.7032 -1.52343,0 -2.34374,-0.6641 -0.82031,-0.6706 -0.82031,-1.8945 0,-1.6341 1.99218,-2.5456 -0.89843,-0.5078 -1.28906,-1.0937 -0.39062,-0.5925 -0.39062,-1.3217 0,-1.0351 0.76171,-1.6471 0.76823,-0.6185 2.05078,-0.6185 z m -2.05729,7.2526 q 0,0.7813 0.54037,1.2175 0.54687,0.4362 1.52994,0.4362 0.97005,0 1.51041,-0.4558 0.54037,-0.4557 0.54037,-1.25 0,-0.6315 -0.50781,-1.1198 -0.50781,-0.4947 -1.77083,-0.957 -0.97005,0.4167 -1.40625,0.9245 -0.4362,0.5013 -0.4362,1.2044 z m 2.04427,-6.3737 q -0.8138,0 -1.27604,0.3907 -0.46224,0.3906 -0.46224,1.0416 0,0.599 0.38412,1.0287 0.38411,0.4296 1.41926,0.8593 0.93099,-0.3906 1.31511,-0.8398 0.39062,-0.4492 0.39062,-1.0482 0,-0.6575 -0.47526,-1.0416 -0.46875,-0.3907 -1.29557,-0.3907 z"
           style="font-style:normal;font-variant:normal;font-weight:normal;font-stretch:normal;font-size:13.33329964px;font-family:'Open Sans';-inkscape-font-specification:'Open Sans';fill:#000000;fill-opacity:1"
           id="path349" />
        <path
           d="m 399.36255,1095.3054 v -4.642 q 0,-0.8528 -0.36458,-1.276 -0.36459,-0.4297 -1.13281,-0.4297 -1.00912,0 -1.49089,0.5794 -0.48176,0.5795 -0.48176,1.7839 v 3.9844 h -1.08073 v -4.642 q 0,-0.8528 -0.36458,-1.276 -0.36459,-0.4297 -1.13932,-0.4297 -1.01563,0 -1.49089,0.612 -0.46874,0.6055 -0.46874,1.9922 v 3.7435 h -1.08073 v -7.1354 h 0.8789 l 0.17578,0.9765 h 0.0521 q 0.30599,-0.5208 0.85937,-0.8138 0.55989,-0.293 1.25,-0.293 1.67317,0 2.18749,1.211 h 0.0521 q 0.31901,-0.5599 0.92448,-0.8854 0.60547,-0.3256 1.38021,-0.3256 1.21093,0 1.80989,0.625 0.60546,0.6185 0.60546,1.9857 v 4.655 z"
           style="font-style:normal;font-variant:normal;font-weight:normal;font-stretch:normal;font-size:13.33329964px;font-family:'Open Sans';-inkscape-font-specification:'Open Sans';fill:#000000;fill-opacity:1"
           id="path351" />
      </g>
      <g
         aria-label="0,2 m"
         transform="matrix(0.26458333,0,0,0.26458333,-42.018796,-99.900418)"
         style="font-style:normal;font-weight:normal;font-size:14.66670036px;line-height:0.25;font-family:sans-serif;letter-spacing:0px;word-spacing:0px;fill:#000000;fill-opacity:1;stroke:none"
         id="flowRoot7112">
        <path
           d="m 374.1022,1090.5332 q 0,2.4675 -0.78125,3.6849 -0.77474,1.2175 -2.3763,1.2175 -1.53645,0 -2.33723,-1.2435 -0.80078,-1.25 -0.80078,-3.6589 0,-2.4869 0.77474,-3.6914 0.77473,-1.2044 2.36327,-1.2044 1.54948,0 2.35026,1.2565 0.80729,1.2565 0.80729,3.6393 z m -5.20181,0 q 0,2.0768 0.48828,3.0274 0.48828,0.944 1.55598,0.944 1.08073,0 1.5625,-0.9571 0.48828,-0.9635 0.48828,-3.0143 0,-2.0507 -0.48828,-3.0013 -0.48177,-0.957 -1.5625,-0.957 -1.0677,0 -1.55598,0.944 -0.48828,0.9375 -0.48828,3.0143 z"
           style="font-style:normal;font-variant:normal;font-weight:normal;font-stretch:normal;font-size:13.33329964px;font-family:'Open Sans';-inkscape-font-specification:'Open Sans';fill:#000000;fill-opacity:1"
           id="path336" />
        <path
           d="m 377.0449,1093.7559 0.0977,0.1497 q -0.16927,0.6511 -0.48828,1.5104 -0.31901,0.8659 -0.66406,1.6081 h -0.8138 q 0.17578,-0.6771 0.38412,-1.6732 0.21484,-0.9961 0.29947,-1.595 z"
           style="font-style:normal;font-variant:normal;font-weight:normal;font-stretch:normal;font-size:13.33329964px;font-family:'Open Sans';-inkscape-font-specification:'Open Sans';fill:#000000;fill-opacity:1"
           id="path338" />
        <path
           d="m 384.94201,1095.3054 h -6.25649 v -0.931 l 2.5065,-2.5196 q 1.14583,-1.1588 1.51041,-1.6536 0.36459,-0.4948 0.54688,-0.9635 0.18229,-0.4688 0.18229,-1.0092 0,-0.7617 -0.46224,-1.2044 -0.46224,-0.4492 -1.28255,-0.4492 -0.59244,0 -1.1263,0.1953 -0.52734,0.1953 -1.17838,0.7097 l -0.57292,-0.7357 q 1.31511,-1.0938 2.86458,-1.0938 1.34114,0 2.10286,0.6901 0.76172,0.6836 0.76172,1.8425 0,0.9049 -0.50781,1.7903 -0.50782,0.8854 -1.90104,2.2396 l -2.08333,2.0378 v 0.052 h 4.89582 z"
           style="font-style:normal;font-variant:normal;font-weight:normal;font-stretch:normal;font-size:13.33329964px;font-family:'Open Sans';-inkscape-font-specification:'Open Sans';fill:#000000;fill-opacity:1"
           id="path340" />
        <path
           d="m 399.36255,1095.3054 v -4.642 q 0,-0.8528 -0.36458,-1.276 -0.36459,-0.4297 -1.13281,-0.4297 -1.00912,0 -1.49089,0.5794 -0.48176,0.5795 -0.48176,1.7839 v 3.9844 h -1.08073 v -4.642 q 0,-0.8528 -0.36458,-1.276 -0.36459,-0.4297 -1.13932,-0.4297 -1.01563,0 -1.49089,0.612 -0.46874,0.6055 -0.46874,1.9922 v 3.7435 h -1.08073 v -7.1354 h 0.8789 l 0.17578,0.9765 h 0.0521 q 0.30599,-0.5208 0.85937,-0.8138 0.55989,-0.293 1.25,-0.293 1.67317,0 2.18749,1.211 h 0.0521 q 0.31901,-0.5599 0.92448,-0.8854 0.60547,-0.3256 1.38021,-0.3256 1.21093,0 1.80989,0.625 0.60546,0.6185 0.60546,1.9857 v 4.655 z"
           style="font-style:normal;font-variant:normal;font-weight:normal;font-stretch:normal;font-size:13.33329964px;font-family:'Open Sans';-inkscape-font-specification:'Open Sans';fill:#000000;fill-opacity:1"
           id="path342" />
      </g>
    </g>
  </g>
</svg>
