<?xml version="1.0" encoding="UTF-8" standalone="no"?>
<svg
   xmlns:dc="http://purl.org/dc/elements/1.1/"
   xmlns:cc="http://creativecommons.org/ns#"
   xmlns:rdf="http://www.w3.org/1999/02/22-rdf-syntax-ns#"
   xmlns:svg="http://www.w3.org/2000/svg"
   xmlns="http://www.w3.org/2000/svg"
   xmlns:sodipodi="http://sodipodi.sourceforge.net/DTD/sodipodi-0.dtd"
   xmlns:inkscape="http://www.inkscape.org/namespaces/inkscape"
   sodipodi:docname="egim_20.svg"
   inkscape:version="0.92.5 (2060ec1f9f, 2020-04-08)"
   id="svg8"
   version="1.1"
   viewBox="0 0 170 16.688"
   height="16.688mm"
   width="170mm">
  <defs
     id="defs2" />
  <sodipodi:namedview
     inkscape:document-rotation="0"
     inkscape:snap-global="true"
     inkscape:window-maximized="1"
     inkscape:window-y="25"
     inkscape:window-x="0"
     inkscape:window-height="1031"
     inkscape:window-width="1920"
     showgrid="false"
     inkscape:current-layer="layer1"
     inkscape:document-units="mm"
     inkscape:cy="-17.157081"
     inkscape:cx="345.3935"
     inkscape:zoom="2"
     inkscape:pageshadow="2"
     inkscape:pageopacity="0.0"
     borderopacity="1.0"
     bordercolor="#666666"
     pagecolor="#ffffff"
     id="base"
     inkscape:pagecheckerboard="0" />
  <metadata
     id="metadata5">
    <rdf:RDF>
      <cc:Work
         rdf:about="">
        <dc:format>image/svg+xml</dc:format>
        <dc:type
           rdf:resource="http://purl.org/dc/dcmitype/StillImage" />
        <dc:title></dc:title>
      </cc:Work>
    </rdf:RDF>
  </metadata>
  <g
     id="layer1"
     inkscape:groupmode="layer"
     inkscape:label="Layer 1"
     transform="translate(0,-280.312)">
    <path
       style="fill:#f4e3d7;stroke:#000000;stroke-width:0.50000298;stroke-linecap:butt;stroke-linejoin:miter;stroke-miterlimit:4;stroke-dasharray:none;stroke-opacity:1"
       d="m 90.353284,283.78639 v 6.45447 l 32.419206,-6.45447 z m 0,6.45447 H 57.933565 v 6.45446 z"
       id="path8172"
       inkscape:connector-curvature="0"
       sodipodi:nodetypes="cccccccc" />
    <path
       style="fill:#e6e6e6;stroke:#000000;stroke-width:0.50000298;stroke-linecap:butt;stroke-linejoin:miter;stroke-miterlimit:4;stroke-dasharray:none;stroke-opacity:1"
       d="m 57.933565,296.69532 64.839245,-12.90893 -0.006,12.90893 z"
       id="path8179"
       inkscape:connector-curvature="0"
       sodipodi:nodetypes="cccc" />
    <g
       aria-label="15 cm"
       transform="matrix(0.26458332,0,0,0.26458651,36.653255,281.38253)"
       style="font-style:normal;font-weight:normal;font-size:13.33333397px;line-height:1.25;font-family:sans-serif;letter-spacing:0px;word-spacing:0px;fill:#000000;fill-opacity:1;stroke:none"
       id="flowRoot8187">
      <path
         d="m 42.44987,49.60891 h -1.054688 v -6.783855 q 0,-0.846354 0.05208,-1.601562 -0.136719,0.136719 -0.30599,0.286458 -0.169271,0.14974 -1.549479,1.269531 L 39.01888,42.037295 41.538412,40.09068 h 0.911458 z"
         style="font-style:normal;font-variant:normal;font-weight:normal;font-stretch:normal;font-size:13.33333397px;font-family:'Open Sans';-inkscape-font-specification:'Open Sans'"
         id="path320"
         inkscape:connector-curvature="0" />
      <path
         d="m 49.044922,43.795107 q 1.503907,0 2.363282,0.748698 0.865885,0.742188 0.865885,2.037761 0,1.477865 -0.94401,2.317708 -0.9375,0.839844 -2.591146,0.839844 -1.608073,0 -2.454427,-0.514323 v -1.041667 q 0.455729,0.292969 1.132812,0.46224 0.677083,0.162761 1.334636,0.162761 1.145833,0 1.777343,-0.540365 0.638021,-0.540365 0.638021,-1.5625 0,-1.992188 -2.441406,-1.992188 -0.61849,0 -1.653646,0.188802 L 46.51237,44.543805 46.870443,40.09068 h 4.733073 v 0.996094 h -3.808594 l -0.240885,2.858073 q 0.748698,-0.14974 1.490885,-0.14974 z"
         style="font-style:normal;font-variant:normal;font-weight:normal;font-stretch:normal;font-size:13.33333397px;font-family:'Open Sans';-inkscape-font-specification:'Open Sans'"
         id="path322"
         inkscape:connector-curvature="0" />
      <path
         d="m 60.503255,49.739118 q -1.549479,0 -2.402343,-0.950521 -0.846355,-0.957031 -0.846355,-2.701823 0,-1.790364 0.859375,-2.766927 0.865886,-0.976563 2.460938,-0.976563 0.514323,0 1.028646,0.110678 0.514323,0.110677 0.807292,0.260416 l -0.332032,0.917969 q -0.358073,-0.143229 -0.78125,-0.234375 -0.423177,-0.09766 -0.748698,-0.09766 -2.174479,0 -2.174479,2.773437 0,1.315105 0.527344,2.01823 0.533854,0.703125 1.575521,0.703125 0.891927,0 1.829427,-0.384115 v 0.957031 q -0.716146,0.371094 -1.803386,0.371094 z"
         style="font-style:normal;font-variant:normal;font-weight:normal;font-stretch:normal;font-size:13.33333397px;font-family:'Open Sans';-inkscape-font-specification:'Open Sans'"
         id="path324"
         inkscape:connector-curvature="0" />
      <path
         d="m 73.094403,49.60891 v -4.641927 q 0,-0.852865 -0.364583,-1.276042 -0.364583,-0.429688 -1.132812,-0.429688 -1.009115,0 -1.490886,0.579427 -0.481771,0.579427 -0.481771,1.783855 v 3.984375 h -1.080729 v -4.641927 q 0,-0.852865 -0.364583,-1.276042 -0.364584,-0.429688 -1.139323,-0.429688 -1.015625,0 -1.490886,0.611979 -0.46875,0.605469 -0.46875,1.992188 v 3.74349 h -1.080729 v -7.135417 h 0.878906 l 0.175781,0.976562 h 0.05208 q 0.305989,-0.520833 0.859375,-0.813802 0.559896,-0.292969 1.25,-0.292969 1.673177,0 2.1875,1.210938 h 0.05208 q 0.319011,-0.559896 0.92448,-0.885417 0.605468,-0.325521 1.380208,-0.325521 1.210938,0 1.809896,0.625 0.605469,0.61849 0.605469,1.985678 v 4.654948 z"
         style="font-style:normal;font-variant:normal;font-weight:normal;font-stretch:normal;font-size:13.33333397px;font-family:'Open Sans';-inkscape-font-specification:'Open Sans'"
         id="path326"
         inkscape:connector-curvature="0" />
    </g>
    <g
       aria-label="125 cm"
       transform="matrix(0.26458332,0,0,0.26458651,55.703225,276.0908)"
       style="font-style:normal;font-weight:normal;font-size:13.33333397px;line-height:1.25;font-family:sans-serif;letter-spacing:0px;word-spacing:0px;fill:#000000;fill-opacity:1;stroke:none"
       id="flowRoot8195">
      <path
         d="m 42.44987,49.60891 h -1.054688 v -6.783855 q 0,-0.846354 0.05208,-1.601562 -0.136719,0.136719 -0.30599,0.286458 -0.169271,0.14974 -1.549479,1.269531 L 39.01888,42.037295 41.538412,40.09068 h 0.911458 z"
         style="font-style:normal;font-variant:normal;font-weight:normal;font-stretch:normal;font-size:13.33333397px;font-family:'Open Sans';-inkscape-font-specification:'Open Sans'"
         id="path309"
         inkscape:connector-curvature="0" />
      <path
         d="m 52.326173,49.60891 h -6.256511 v -0.93099 l 2.50651,-2.519531 q 1.145834,-1.158854 1.510417,-1.653646 0.364583,-0.494792 0.546875,-0.963542 0.182292,-0.46875 0.182292,-1.009114 0,-0.761719 -0.46224,-1.204428 -0.462239,-0.449218 -1.282552,-0.449218 -0.592448,0 -1.126302,0.195312 -0.527344,0.195313 -1.178386,0.709636 L 46.19336,41.047711 q 1.315104,-1.09375 2.864583,-1.09375 1.341146,0 2.102865,0.690105 0.761719,0.683593 0.761719,1.842448 0,0.904948 -0.507813,1.790364 -0.507812,0.885417 -1.901042,2.239584 l -2.083333,2.03776 v 0.05208 h 4.895834 z"
         style="font-style:normal;font-variant:normal;font-weight:normal;font-stretch:normal;font-size:13.33333397px;font-family:'Open Sans';-inkscape-font-specification:'Open Sans'"
         id="path311"
         inkscape:connector-curvature="0" />
      <path
         d="m 56.668621,43.795107 q 1.503906,0 2.363281,0.748698 0.865885,0.742188 0.865885,2.037761 0,1.477865 -0.94401,2.317708 -0.9375,0.839844 -2.591146,0.839844 -1.608073,0 -2.454427,-0.514323 v -1.041667 q 0.455729,0.292969 1.132812,0.46224 0.677084,0.162761 1.334636,0.162761 1.145833,0 1.777344,-0.540365 0.638021,-0.540365 0.638021,-1.5625 0,-1.992188 -2.441407,-1.992188 -0.618489,0 -1.653646,0.188802 l -0.559896,-0.358073 0.358073,-4.453125 h 4.733073 v 0.996094 h -3.808593 l -0.240886,2.858073 q 0.748698,-0.14974 1.490886,-0.14974 z"
         style="font-style:normal;font-variant:normal;font-weight:normal;font-stretch:normal;font-size:13.33333397px;font-family:'Open Sans';-inkscape-font-specification:'Open Sans'"
         id="path313"
         inkscape:connector-curvature="0" />
      <path
         d="m 68.126955,49.739118 q -1.54948,0 -2.402344,-0.950521 -0.846354,-0.957031 -0.846354,-2.701823 0,-1.790364 0.859375,-2.766927 0.865885,-0.976563 2.460937,-0.976563 0.514323,0 1.028646,0.110678 0.514323,0.110677 0.807292,0.260416 l -0.332032,0.917969 q -0.358072,-0.143229 -0.78125,-0.234375 -0.423177,-0.09766 -0.748697,-0.09766 -2.17448,0 -2.17448,2.773437 0,1.315105 0.527344,2.01823 0.533854,0.703125 1.575521,0.703125 0.891927,0 1.829427,-0.384115 v 0.957031 q -0.716146,0.371094 -1.803385,0.371094 z"
         style="font-style:normal;font-variant:normal;font-weight:normal;font-stretch:normal;font-size:13.33333397px;font-family:'Open Sans';-inkscape-font-specification:'Open Sans'"
         id="path315"
         inkscape:connector-curvature="0" />
      <path
         d="m 80.718101,49.60891 v -4.641927 q 0,-0.852865 -0.364584,-1.276042 -0.364583,-0.429688 -1.132812,-0.429688 -1.009115,0 -1.490886,0.579427 -0.481771,0.579427 -0.481771,1.783855 v 3.984375 h -1.080729 v -4.641927 q 0,-0.852865 -0.364583,-1.276042 -0.364583,-0.429688 -1.139323,-0.429688 -1.015625,0 -1.490886,0.611979 -0.46875,0.605469 -0.46875,1.992188 v 3.74349 h -1.080729 v -7.135417 h 0.878906 l 0.175782,0.976562 h 0.05208 q 0.30599,-0.520833 0.859375,-0.813802 0.559896,-0.292969 1.25,-0.292969 1.673177,0 2.1875,1.210938 h 0.05208 q 0.31901,-0.559896 0.924479,-0.885417 0.605469,-0.325521 1.380208,-0.325521 1.210938,0 1.809896,0.625 0.605469,0.61849 0.605469,1.985678 v 4.654948 z"
         style="font-style:normal;font-variant:normal;font-weight:normal;font-stretch:normal;font-size:13.33333397px;font-family:'Open Sans';-inkscape-font-specification:'Open Sans'"
         id="path317"
         inkscape:connector-curvature="0" />
    </g>
    <g
       aria-label="125 cm"
       transform="matrix(0.26458332,0,0,0.26458651,89.040754,269.74072)"
       style="font-style:normal;font-weight:normal;font-size:13.33333397px;line-height:1.25;font-family:sans-serif;letter-spacing:0px;word-spacing:0px;fill:#000000;fill-opacity:1;stroke:none"
       id="flowRoot8203">
      <path
         d="m 42.44987,49.60891 h -1.054688 v -6.783855 q 0,-0.846354 0.05208,-1.601562 -0.136719,0.136719 -0.30599,0.286458 -0.169271,0.14974 -1.549479,1.269531 L 39.01888,42.037295 41.538412,40.09068 h 0.911458 z"
         style="font-style:normal;font-variant:normal;font-weight:normal;font-stretch:normal;font-size:13.33333397px;font-family:'Open Sans';-inkscape-font-specification:'Open Sans'"
         id="path289"
         inkscape:connector-curvature="0" />
      <path
         d="m 52.326173,49.60891 h -6.256511 v -0.93099 l 2.50651,-2.519531 q 1.145834,-1.158854 1.510417,-1.653646 0.364583,-0.494792 0.546875,-0.963542 0.182292,-0.46875 0.182292,-1.009114 0,-0.761719 -0.46224,-1.204428 -0.462239,-0.449218 -1.282552,-0.449218 -0.592448,0 -1.126302,0.195312 -0.527344,0.195313 -1.178386,0.709636 L 46.19336,41.047711 q 1.315104,-1.09375 2.864583,-1.09375 1.341146,0 2.102865,0.690105 0.761719,0.683593 0.761719,1.842448 0,0.904948 -0.507813,1.790364 -0.507812,0.885417 -1.901042,2.239584 l -2.083333,2.03776 v 0.05208 h 4.895834 z"
         style="font-style:normal;font-variant:normal;font-weight:normal;font-stretch:normal;font-size:13.33333397px;font-family:'Open Sans';-inkscape-font-specification:'Open Sans'"
         id="path291"
         inkscape:connector-curvature="0" />
      <path
         d="m 56.668621,43.795107 q 1.503906,0 2.363281,0.748698 0.865885,0.742188 0.865885,2.037761 0,1.477865 -0.94401,2.317708 -0.9375,0.839844 -2.591146,0.839844 -1.608073,0 -2.454427,-0.514323 v -1.041667 q 0.455729,0.292969 1.132812,0.46224 0.677084,0.162761 1.334636,0.162761 1.145833,0 1.777344,-0.540365 0.638021,-0.540365 0.638021,-1.5625 0,-1.992188 -2.441407,-1.992188 -0.618489,0 -1.653646,0.188802 l -0.559896,-0.358073 0.358073,-4.453125 h 4.733073 v 0.996094 h -3.808593 l -0.240886,2.858073 q 0.748698,-0.14974 1.490886,-0.14974 z"
         style="font-style:normal;font-variant:normal;font-weight:normal;font-stretch:normal;font-size:13.33333397px;font-family:'Open Sans';-inkscape-font-specification:'Open Sans'"
         id="path293"
         inkscape:connector-curvature="0" />
      <path
         d="m 68.126955,49.739118 q -1.54948,0 -2.402344,-0.950521 -0.846354,-0.957031 -0.846354,-2.701823 0,-1.790364 0.859375,-2.766927 0.865885,-0.976563 2.460937,-0.976563 0.514323,0 1.028646,0.110678 0.514323,0.110677 0.807292,0.260416 l -0.332032,0.917969 q -0.358072,-0.143229 -0.78125,-0.234375 -0.423177,-0.09766 -0.748697,-0.09766 -2.17448,0 -2.17448,2.773437 0,1.315105 0.527344,2.01823 0.533854,0.703125 1.575521,0.703125 0.891927,0 1.829427,-0.384115 v 0.957031 q -0.716146,0.371094 -1.803385,0.371094 z"
         style="font-style:normal;font-variant:normal;font-weight:normal;font-stretch:normal;font-size:13.33333397px;font-family:'Open Sans';-inkscape-font-specification:'Open Sans'"
         id="path295"
         inkscape:connector-curvature="0" />
      <path
         d="m 80.718101,49.60891 v -4.641927 q 0,-0.852865 -0.364584,-1.276042 -0.364583,-0.429688 -1.132812,-0.429688 -1.009115,0 -1.490886,0.579427 -0.481771,0.579427 -0.481771,1.783855 v 3.984375 h -1.080729 v -4.641927 q 0,-0.852865 -0.364583,-1.276042 -0.364583,-0.429688 -1.139323,-0.429688 -1.015625,0 -1.490886,0.611979 -0.46875,0.605469 -0.46875,1.992188 v 3.74349 h -1.080729 v -7.135417 h 0.878906 l 0.175782,0.976562 h 0.05208 q 0.30599,-0.520833 0.859375,-0.813802 0.559896,-0.292969 1.25,-0.292969 1.673177,0 2.1875,1.210938 h 0.05208 q 0.31901,-0.559896 0.924479,-0.885417 0.605469,-0.325521 1.380208,-0.325521 1.210938,0 1.809896,0.625 0.605469,0.61849 0.605469,1.985678 v 4.654948 z"
         style="font-style:normal;font-variant:normal;font-weight:normal;font-stretch:normal;font-size:13.33333397px;font-family:'Open Sans';-inkscape-font-specification:'Open Sans'"
         id="path297"
         inkscape:connector-curvature="0" />
    </g>
    <g
       aria-label="15 cm"
       transform="matrix(0.26458332,0,0,0.26458651,69.461584,274.6115)"
       style="font-style:normal;font-weight:normal;font-size:13.33333397px;line-height:1.25;font-family:sans-serif;letter-spacing:0px;word-spacing:0px;fill:#000000;fill-opacity:1;stroke:none"
       id="flowRoot8211">
      <path
         d="m 42.44987,49.60891 h -1.054688 v -6.783855 q 0,-0.846354 0.05208,-1.601562 -0.136719,0.136719 -0.30599,0.286458 -0.169271,0.14974 -1.549479,1.269531 L 39.01888,42.037295 41.538412,40.09068 h 0.911458 z"
         style="font-style:normal;font-variant:normal;font-weight:normal;font-stretch:normal;font-size:13.33333397px;font-family:'Open Sans';-inkscape-font-specification:'Open Sans'"
         id="path300"
         inkscape:connector-curvature="0" />
      <path
         d="m 49.044922,43.795107 q 1.503907,0 2.363282,0.748698 0.865885,0.742188 0.865885,2.037761 0,1.477865 -0.94401,2.317708 -0.9375,0.839844 -2.591146,0.839844 -1.608073,0 -2.454427,-0.514323 v -1.041667 q 0.455729,0.292969 1.132812,0.46224 0.677083,0.162761 1.334636,0.162761 1.145833,0 1.777343,-0.540365 0.638021,-0.540365 0.638021,-1.5625 0,-1.992188 -2.441406,-1.992188 -0.61849,0 -1.653646,0.188802 L 46.51237,44.543805 46.870443,40.09068 h 4.733073 v 0.996094 h -3.808594 l -0.240885,2.858073 q 0.748698,-0.14974 1.490885,-0.14974 z"
         style="font-style:normal;font-variant:normal;font-weight:normal;font-stretch:normal;font-size:13.33333397px;font-family:'Open Sans';-inkscape-font-specification:'Open Sans'"
         id="path302"
         inkscape:connector-curvature="0" />
      <path
         d="m 60.503255,49.739118 q -1.549479,0 -2.402343,-0.950521 -0.846355,-0.957031 -0.846355,-2.701823 0,-1.790364 0.859375,-2.766927 0.865886,-0.976563 2.460938,-0.976563 0.514323,0 1.028646,0.110678 0.514323,0.110677 0.807292,0.260416 l -0.332032,0.917969 q -0.358073,-0.143229 -0.78125,-0.234375 -0.423177,-0.09766 -0.748698,-0.09766 -2.174479,0 -2.174479,2.773437 0,1.315105 0.527344,2.01823 0.533854,0.703125 1.575521,0.703125 0.891927,0 1.829427,-0.384115 v 0.957031 q -0.716146,0.371094 -1.803386,0.371094 z"
         style="font-style:normal;font-variant:normal;font-weight:normal;font-stretch:normal;font-size:13.33333397px;font-family:'Open Sans';-inkscape-font-specification:'Open Sans'"
         id="path304"
         inkscape:connector-curvature="0" />
      <path
         d="m 73.094403,49.60891 v -4.641927 q 0,-0.852865 -0.364583,-1.276042 -0.364583,-0.429688 -1.132812,-0.429688 -1.009115,0 -1.490886,0.579427 -0.481771,0.579427 -0.481771,1.783855 v 3.984375 h -1.080729 v -4.641927 q 0,-0.852865 -0.364583,-1.276042 -0.364584,-0.429688 -1.139323,-0.429688 -1.015625,0 -1.490886,0.611979 -0.46875,0.605469 -0.46875,1.992188 v 3.74349 h -1.080729 v -7.135417 h 0.878906 l 0.175781,0.976562 h 0.05208 q 0.305989,-0.520833 0.859375,-0.813802 0.559896,-0.292969 1.25,-0.292969 1.673177,0 2.1875,1.210938 h 0.05208 q 0.319011,-0.559896 0.92448,-0.885417 0.605468,-0.325521 1.380208,-0.325521 1.210938,0 1.809896,0.625 0.605469,0.61849 0.605469,1.985678 v 4.654948 z"
         style="font-style:normal;font-variant:normal;font-weight:normal;font-stretch:normal;font-size:13.33333397px;font-family:'Open Sans';-inkscape-font-specification:'Open Sans'"
         id="path306"
         inkscape:connector-curvature="0" />
    </g>
  </g>
</svg>
