<?xml version="1.0" encoding="UTF-8" standalone="no"?>
<svg
   xmlns:dc="http://purl.org/dc/elements/1.1/"
   xmlns:cc="http://creativecommons.org/ns#"
   xmlns:rdf="http://www.w3.org/1999/02/22-rdf-syntax-ns#"
   xmlns:svg="http://www.w3.org/2000/svg"
   xmlns="http://www.w3.org/2000/svg"
   xmlns:sodipodi="http://sodipodi.sourceforge.net/DTD/sodipodi-0.dtd"
   xmlns:inkscape="http://www.inkscape.org/namespaces/inkscape"
   sodipodi:docname="egim_26.svg"
   inkscape:version="0.92.5 (2060ec1f9f, 2020-04-08)"
   id="svg8"
   version="1.1"
   viewBox="0 0 170 51.581001"
   height="51.581001mm"
   width="170mm">
  <defs
     id="defs2" />
  <sodipodi:namedview
     inkscape:document-rotation="0"
     inkscape:snap-global="true"
     inkscape:window-maximized="1"
     inkscape:window-y="25"
     inkscape:window-x="0"
     inkscape:window-height="1031"
     inkscape:window-width="1920"
     showgrid="false"
     inkscape:current-layer="layer1"
     inkscape:document-units="mm"
     inkscape:cy="99.576445"
     inkscape:cx="459.0852"
     inkscape:zoom="1"
     inkscape:pageshadow="2"
     inkscape:pageopacity="0.0"
     borderopacity="1.0"
     bordercolor="#666666"
     pagecolor="#ffffff"
     id="base"
     inkscape:pagecheckerboard="0" />
  <metadata
     id="metadata5">
    <rdf:RDF>
      <cc:Work
         rdf:about="">
        <dc:format>image/svg+xml</dc:format>
        <dc:type
           rdf:resource="http://purl.org/dc/dcmitype/StillImage" />
        <dc:title></dc:title>
      </cc:Work>
    </rdf:RDF>
  </metadata>
  <g
     id="layer1"
     inkscape:groupmode="layer"
     inkscape:label="Layer 1"
     transform="translate(0,-245.419)">
    <g
       id="g388"
       transform="matrix(1.0000049,0,0,1.0000089,38.829981,24.461774)">
      <rect
         y="265.51038"
         x="12.643055"
         height="2.0745544"
         width="67.259415"
         id="rect20372"
         style="fill:#cccccc;fill-opacity:1;stroke-width:0.49999902;stroke-linecap:round;stroke-linejoin:round" />
      <path
         style="fill:#000000;stroke:none;stroke-width:0.26458299px;stroke-linecap:butt;stroke-linejoin:miter;stroke-opacity:1"
         d="m 79.531865,253.43371 0.19533,-2.79964 H 53.032923 l 0.199234,2.78743 z"
         id="path7231"
         inkscape:connector-curvature="0" />
      <path
         style="fill:#e9ddaf;stroke:none;stroke-width:0.26458299px;stroke-linecap:butt;stroke-linejoin:miter;stroke-opacity:1"
         d="m 79.531865,253.43371 -18.064372,0.1973 4.834023,6.39933 h 13.351109 z"
         id="path7229"
         inkscape:connector-curvature="0" />
      <path
         style="fill:#afdde9;stroke:none;stroke-width:0.26458299px;stroke-linecap:butt;stroke-linejoin:miter;stroke-opacity:1"
         d="m 79.727195,250.63407 0.26043,-29.42881 H 53.032923 v 29.42881 z"
         id="path7227"
         inkscape:connector-curvature="0" />
      <path
         style="fill:#afdde9;fill-opacity:1;stroke:#000000;stroke-width:0.5;stroke-linecap:butt;stroke-linejoin:miter;stroke-miterlimit:4;stroke-dasharray:none;stroke-opacity:1"
         d="m 53.092193,251.44631 -32.092359,13.74031 h 4.467069 L 53.232157,253.4215"
         id="path7225"
         inkscape:connector-curvature="0"
         sodipodi:nodetypes="cccc" />
      <path
         style="fill:none;stroke:#000000;stroke-width:0.5;stroke-linecap:butt;stroke-linejoin:miter;stroke-miterlimit:4;stroke-dasharray:none;stroke-opacity:1"
         d="m 61.467493,253.63101 4.834023,6.39933 h 13.351109"
         id="path7209"
         inkscape:connector-curvature="0" />
      <path
         style="fill:none;stroke:#000000;stroke-width:0.5;stroke-linecap:butt;stroke-linejoin:miter;stroke-miterlimit:4;stroke-dasharray:none;stroke-opacity:1"
         d="M 79.727195,250.63407 H 53.032923 v -29.42881 h 26.954702"
         id="path7183"
         inkscape:connector-curvature="0" />
      <path
         style="fill:none;stroke:#000000;stroke-width:0.5;stroke-linecap:butt;stroke-linejoin:miter;stroke-miterlimit:4;stroke-dasharray:none;stroke-opacity:1"
         d="m 53.032923,250.63407 v 2.79964 h 26.498942"
         id="path7185"
         inkscape:connector-curvature="0" />
      <circle
         style="fill:#000000;fill-opacity:1;stroke:#000000;stroke-width:0.5;stroke-linecap:round;stroke-linejoin:round;stroke-miterlimit:4;stroke-dasharray:none;stroke-dashoffset:0;stroke-opacity:1"
         id="path7187"
         cx="70.262794"
         cy="259.77292"
         r="5.2518048" />
      <circle
         r="3.3840854"
         cy="259.79593"
         cx="70.285805"
         id="circle7189"
         style="fill:#ececec;fill-opacity:1;stroke:#000000;stroke-width:0.32218304;stroke-linecap:round;stroke-linejoin:round;stroke-miterlimit:4;stroke-dasharray:none;stroke-dashoffset:0;stroke-opacity:1" />
      <circle
         style="fill:#ffffff;fill-opacity:1;stroke:#000000;stroke-width:0.25;stroke-linecap:round;stroke-linejoin:round;stroke-miterlimit:4;stroke-dasharray:none;stroke-dashoffset:0;stroke-opacity:1"
         id="path7191"
         cx="70.270264"
         cy="258.40631"
         r="0.34999999" />
      <circle
         r="0.34999999"
         cy="261.05219"
         cx="70.270264"
         id="circle7193"
         style="fill:#ffffff;fill-opacity:1;stroke:#000000;stroke-width:0.25;stroke-linecap:round;stroke-linejoin:round;stroke-miterlimit:4;stroke-dasharray:none;stroke-dashoffset:0;stroke-opacity:1" />
      <g
         id="g7201"
         transform="rotate(117.67334,74.472582,260.39518)">
        <circle
           style="opacity:1;fill:#ffffff;fill-opacity:1;stroke:#000000;stroke-width:0.25;stroke-linecap:round;stroke-linejoin:round;stroke-miterlimit:4;stroke-dasharray:none;stroke-dashoffset:0;stroke-opacity:1"
           id="circle7195"
           cx="75.834518"
           cy="263.10315"
           r="0.34999999" />
        <circle
           r="0.34999999"
           cy="265.74902"
           cx="75.834518"
           id="circle7197"
           style="opacity:1;fill:#ffffff;fill-opacity:1;stroke:#000000;stroke-width:0.25;stroke-linecap:round;stroke-linejoin:round;stroke-miterlimit:4;stroke-dasharray:none;stroke-dashoffset:0;stroke-opacity:1" />
      </g>
      <g
         transform="rotate(57.67334,77.317661,257.02466)"
         id="g7207">
        <circle
           r="0.34999999"
           cy="263.10315"
           cx="75.834518"
           id="circle7203"
           style="opacity:1;fill:#ffffff;fill-opacity:1;stroke:#000000;stroke-width:0.25;stroke-linecap:round;stroke-linejoin:round;stroke-miterlimit:4;stroke-dasharray:none;stroke-dashoffset:0;stroke-opacity:1" />
        <circle
           style="opacity:1;fill:#ffffff;fill-opacity:1;stroke:#000000;stroke-width:0.25;stroke-linecap:round;stroke-linejoin:round;stroke-miterlimit:4;stroke-dasharray:none;stroke-dashoffset:0;stroke-opacity:1"
           id="circle7205"
           cx="75.834518"
           cy="265.74902"
           r="0.34999999" />
      </g>
      <path
         style="fill:#808080;fill-opacity:1;stroke:#000000;stroke-width:0.5;stroke-linecap:butt;stroke-linejoin:miter;stroke-miterlimit:4;stroke-dasharray:none;stroke-opacity:1"
         d="m 57.09386,253.40082 v 7.55027 h 1.289071 v -7.41216"
         id="path7211"
         inkscape:connector-curvature="0" />
      <path
         style="fill:#000000;fill-opacity:1;stroke:#000000;stroke-width:0.5;stroke-linecap:butt;stroke-linejoin:miter;stroke-miterlimit:4;stroke-dasharray:none;stroke-opacity:1"
         d="m 56.886686,258.37295 h -1.841532 v 5.38648 h 1.86455 z"
         id="path7213"
         inkscape:connector-curvature="0"
         sodipodi:nodetypes="ccccc" />
      <path
         inkscape:connector-curvature="0"
         style="color:#000000;font-style:normal;font-variant:normal;font-weight:normal;font-stretch:normal;font-size:medium;line-height:normal;font-family:sans-serif;font-variant-ligatures:normal;font-variant-position:normal;font-variant-caps:normal;font-variant-numeric:normal;font-variant-alternates:normal;font-feature-settings:normal;text-indent:0;text-align:start;text-decoration:none;text-decoration-line:none;text-decoration-style:solid;text-decoration-color:#000000;letter-spacing:normal;word-spacing:normal;text-transform:none;writing-mode:lr-tb;direction:ltr;text-orientation:mixed;dominant-baseline:auto;baseline-shift:baseline;text-anchor:start;white-space:normal;shape-padding:0;clip-rule:nonzero;display:inline;overflow:visible;visibility:visible;isolation:auto;mix-blend-mode:normal;color-interpolation:sRGB;color-interpolation-filters:linearRGB;solid-color:#000000;solid-opacity:1;vector-effect:none;fill:#000000;fill-opacity:1;fill-rule:nonzero;stroke:none;stroke-width:0.49999902;stroke-linecap:round;stroke-linejoin:round;stroke-miterlimit:4;stroke-dasharray:none;stroke-dashoffset:0;stroke-opacity:1;color-rendering:auto;image-rendering:auto;shape-rendering:auto;text-rendering:auto;enable-background:accumulate"
         d="m 12.601555,265.24845 a 0.250025,0.250025 0 0 0 -0.249597,0.25011 v 2.06449 a 0.250025,0.250025 0 0 0 0.249597,0.25011 h 67.0512 a 0.250025,0.250025 0 0 0 0.2496,-0.25011 V 267.315 l -0.65835,-0.003 H 12.851669 v -1.56427 h 66.392336 0.15864 0.49971 v -0.25011 a 0.250025,0.250025 0 0 0 -0.2496,-0.25011 z"
         id="rect7215" />
      <ellipse
         style="fill:none;fill-opacity:1;stroke:#ffffff;stroke-width:0.49860403;stroke-linecap:round;stroke-linejoin:round;stroke-miterlimit:4;stroke-dasharray:none;stroke-dashoffset:0;stroke-opacity:1"
         id="path7223"
         cx="54.499107"
         cy="252.0652"
         rx="0.75069803"
         ry="0.75069809" />
      <g
         id="g7247"
         transform="matrix(0.41143174,0,0,0.41143174,-58.89414,185.9118)">
        <circle
           style="opacity:1;fill:#000000;fill-opacity:1;stroke:none;stroke-width:0.63500601;stroke-linecap:round;stroke-linejoin:bevel;stroke-miterlimit:4;stroke-dasharray:none;stroke-dashoffset:0;stroke-opacity:1"
           id="circle7233"
           cx="282.13547"
           cy="94.785439"
           r="5.9602871" />
        <path
           style="fill:#ffffff;fill-opacity:1;stroke:none;stroke-width:0.0531143px;stroke-linecap:butt;stroke-linejoin:miter;stroke-opacity:1"
           d="m 1073.0176,9.1972656 c -2.3876,-0.050088 -5.6935,0.4528261 -7.2735,0.9394534 -2.1066,0.648831 -3.416,1.972656 -3.416,1.972656 0,0 -1.9037,-2.156838 -3.2617,-2.2011719 -1.3579,-0.044334 -2.4637,1.5077159 -3.6426,2.1249999 -1.1789,0.617284 -2.32,0.07088 -3.414,1.59375 -1.0939,1.52287 -0.8983,5.345302 -0.834,7.435547 0.021,0.670143 10e-5,1.681261 -0.031,2.736328 -0.7331,0.0047 -1.5903,0.227143 -2.2129,1.091797 -1.3103,1.819725 0,4.07866 0,5.349609 0,1.27095 -0.1768,1.341938 0,2.275391 0.1768,0.93346 0.6111,2.267166 1.252,3.1875 0.2366,0.339779 0.6298,0.701346 1.0312,1.037109 -0.043,0.741639 -0.1841,3.307978 -0.066,4.509766 0.1357,1.387559 0.2266,2.308064 0.6973,3.220703 0.4708,0.912635 0.6406,1.290339 1.9316,2.119141 1.2911,0.828805 4.1791,1.651929 6.0372,1.93164 1.858,0.279723 3.8196,-0.354517 4.9355,-0.05469 1.116,0.29983 1.7168,1.019531 1.7168,1.019531 0,0 1.1751,-1.039368 2.3867,-1.314453 1.2116,-0.275112 3.1834,0.426182 4.7227,0.267578 1.5392,-0.158627 3.2153,-0.623031 4.3984,-1.179687 1.1832,-0.556657 2.0061,-1.037073 2.6836,-1.904297 0.6775,-0.86722 1.207,-3.085938 1.207,-3.085938 l -0.074,-5.505859 c 0.2777,-0.253214 0.5325,-0.512818 0.7031,-0.757813 0.6409,-0.920326 1.0752,-2.25209 1.252,-3.185547 0.1769,-0.933456 0,-1.00639 0,-2.277343 0,-1.270946 1.3103,-3.52988 0,-5.34961 -0.718,-0.997157 -1.7452,-1.14374 -2.5352,-1.080078 0,-0.129698 0,-0.272842 0.012,-0.394531 0.1436,-1.953668 1.5913,-3.517343 1.5937,-4.705078 0,-1.187739 -0.3585,-0.988981 -0.6836,-2.048828 -0.3252,-1.059852 -0.273,-3.34237 -1.2148,-4.324219 -0.9419,-0.981842 -2.493,-0.583444 -3.4903,-1.138672 -0.9972,-0.555224 -0.4524,-1.408236 -2.4277,-2.048828 -0.4938,-0.160148 -1.1866,-0.2391633 -1.9824,-0.2558594 z"
           transform="matrix(0.26458333,0,0,0.26458333,0,87)"
           id="path7235"
           inkscape:connector-curvature="0" />
        <path
           inkscape:connector-curvature="0"
           style="fill:#000000;fill-opacity:1;stroke:none;stroke-width:0.0140532px;stroke-linecap:butt;stroke-linejoin:miter;stroke-opacity:1"
           d="m 279.86701,92.812206 c -0.73887,-5.49e-4 -2.19048,0.12969 -2.19048,0.12969 l -0.0569,0.534239 c 0,0 0.14574,0.260507 0.23087,0.567149 0.0851,0.306643 0.11965,2.154558 1.9062,2.241038 1.78653,0.08648 2.15916,-2.361505 2.15916,-2.361505 l 0.38646,0.01004 c 0,0 0.33273,2.413692 2.09524,2.379869 1.7625,-0.03382 1.8889,-1.73427 1.93,-2.08876 0.0411,-0.35449 0.27604,-0.682593 0.27604,-0.682593 l -0.0602,-0.567149 c 0,0 -1.32456,-0.158888 -2.03873,-0.145884 -0.71416,0.013 -1.76236,0.240002 -2.22874,0.241319 -0.46638,0.0013 -0.17495,-0.01546 -0.55365,-0.05679 -0.37869,-0.04133 -1.0412,-0.178322 -1.71769,-0.198747 -0.0423,-0.0013 -0.0884,-0.0019 -0.13762,-0.0019 z m 0.0383,0.321384 c 1.16916,0.0021 1.49027,0.463013 1.49027,0.463013 0,0 0.0511,1.011774 -0.23089,1.445443 -0.28198,0.433669 -0.8405,0.887073 -1.37517,0.89339 -0.5347,0.0063 -1.05519,-0.383918 -1.33506,-0.823125 -0.27987,-0.439206 -0.18068,-1.545846 -0.18068,-1.545846 0,0 0.25181,-0.402182 1.51574,-0.431613 0.0395,-9.2e-4 0.0781,-0.0013 0.11579,-0.0013 z m 4.34232,0 c 0.0377,-7.1e-5 0.0763,3.43e-4 0.11579,0.0013 1.26393,0.02943 1.51574,0.431613 1.51574,0.431613 0,0 0.0992,1.10664 -0.18068,1.545846 -0.27987,0.439207 -0.80037,0.829442 -1.33506,0.823125 -0.53468,-0.0063 -1.09322,-0.459721 -1.3752,-0.893391 -0.28198,-0.433668 -0.23086,-1.445443 -0.23086,-1.445443 0,0 0.32111,-0.460959 1.49027,-0.463012 z"
           id="path7237" />
        <path
           style="opacity:1;fill:#000000;fill-opacity:1;stroke:none;stroke-width:0.00765969;stroke-miterlimit:4;stroke-dasharray:none;stroke-dashoffset:0;stroke-opacity:1"
           d="m 280.30801,94.006063 c -0.13564,-6.47e-4 -0.25917,0.03032 -0.36856,0.07694 a 0.48402336,0.46075305 0 0 0 -0.0902,0.267229 0.48402336,0.46075305 0 0 0 0.31387,0.430735 c 0.0841,0.01632 0.16664,0.02573 0.2425,0.02412 10e-4,-2.8e-5 0.003,-1.54e-4 0.004,-1.92e-4 a 0.48402336,0.46075305 0 0 0 0.40732,-0.454669 0.48402336,0.46075305 0 0 0 -0.0809,-0.254493 c -0.0908,-0.03674 -0.19562,-0.06615 -0.31658,-0.08204 -0.0381,-0.005 -0.0754,-0.0075 -0.11182,-0.0076 z"
           id="path7239"
           inkscape:connector-curvature="0" />
        <ellipse
           style="opacity:1;fill:#ffffff;fill-opacity:1;stroke:none;stroke-width:0.00531143;stroke-miterlimit:4;stroke-dasharray:none;stroke-dashoffset:0;stroke-opacity:1"
           id="ellipse7241"
           cx="280.26138"
           cy="94.221451"
           rx="0.15558842"
           ry="0.15809791" />
        <path
           inkscape:connector-curvature="0"
           id="path7243"
           d="m 284.07001,93.974124 c 0.13565,-6.38e-4 0.25918,0.03032 0.36856,0.07693 a 0.4840235,0.46075319 0 0 1 0.0902,0.267229 0.4840235,0.46075319 0 0 1 -0.31387,0.430735 c -0.0841,0.01632 -0.16663,0.02573 -0.24249,0.02412 -0.001,-2.8e-5 -0.003,-1.59e-4 -0.004,-2.12e-4 a 0.4840235,0.46075319 0 0 1 -0.40732,-0.454669 0.4840235,0.46075319 0 0 1 0.0809,-0.254493 c 0.0908,-0.03674 0.19563,-0.06615 0.31658,-0.08204 0.0381,-0.005 0.0754,-0.0075 0.11183,-0.0076 z"
           style="opacity:1;fill:#000000;fill-opacity:1;stroke:none;stroke-width:0.00765969;stroke-miterlimit:4;stroke-dasharray:none;stroke-dashoffset:0;stroke-opacity:1" />
        <ellipse
           ry="0.15809792"
           rx="0.15558842"
           cy="94.189514"
           cx="-283.94986"
           id="ellipse7245"
           style="opacity:1;fill:#ffffff;fill-opacity:1;stroke:none;stroke-width:0.00531143;stroke-miterlimit:4;stroke-dasharray:none;stroke-dashoffset:0;stroke-opacity:1"
           transform="scale(-1,1)" />
      </g>
      <g
         id="flowRoot7249"
         style="font-style:normal;font-weight:normal;font-size:40px;line-height:1.25;font-family:sans-serif;letter-spacing:0px;word-spacing:0px;fill:#000000;fill-opacity:1;stroke:none"
         transform="matrix(0.13901907,0,0,0.13901907,25.116476,100.98985)"
         aria-label="Dede Na">
        <path
           id="path310"
           style="font-style:normal;font-variant:normal;font-weight:normal;font-stretch:normal;font-size:30.45145798px;font-family:'Open Sans';-inkscape-font-specification:'Open Sans'"
           d="m 274.78398,890.91292 q 0,5.38253 -2.92917,8.23736 -2.9143,2.83995 -8.40091,2.83995 h -6.0219 v -21.73829 h 6.66126 q 5.07029,0 7.8805,2.81022 2.81022,2.81021 2.81022,7.85076 z m -2.6764,0.0892 q 0,-4.2525 -2.14111,-6.40849 -2.12625,-2.15599 -6.33415,-2.15599 h -3.67261 v 17.36685 h 3.07786 q 4.52014,0 6.79508,-2.21546 2.27493,-2.23033 2.27493,-6.58691 z"
           inkscape:connector-curvature="0" />
        <path
           id="path312"
           style="font-style:normal;font-variant:normal;font-weight:normal;font-stretch:normal;font-size:30.45145798px;font-family:'Open Sans';-inkscape-font-specification:'Open Sans'"
           d="m 286.1438,902.28761 q -3.61313,0 -5.70965,-2.20059 -2.08164,-2.2006 -2.08164,-6.11111 0,-3.94025 1.93296,-6.2598 1.94782,-2.31954 5.21897,-2.31954 3.06299,0 4.84726,2.02217 1.78426,2.00729 1.78426,5.30818 v 1.56124 h -11.226 q 0.0743,2.86969 1.44228,4.35658 1.38281,1.48688 3.88078,1.48688 2.63179,0 5.2041,-1.10029 v 2.20059 q -1.30846,0.56502 -2.4831,0.80292 -1.15977,0.25277 -2.81022,0.25277 z m -0.6691,-14.82427 q -1.96269,0 -3.13733,1.27873 -1.15977,1.27872 -1.36794,3.53879 h 8.51987 q 0,-2.33442 -1.04082,-3.56853 -1.04082,-1.24899 -2.97378,-1.24899 z"
           inkscape:connector-curvature="0" />
        <path
           id="path314"
           style="font-style:normal;font-variant:normal;font-weight:normal;font-stretch:normal;font-size:30.45145798px;font-family:'Open Sans';-inkscape-font-specification:'Open Sans'"
           d="m 307.43603,899.80451 h -0.13382 q -1.70992,2.4831 -5.11489,2.4831 -3.19681,0 -4.98107,-2.18572 -1.7694,-2.18573 -1.7694,-6.21519 0,-4.02947 1.78426,-6.2598 1.78427,-2.23033 4.96621,-2.23033 3.31576,0 5.08515,2.40876 h 0.1933 l -0.10408,-1.17464 -0.0595,-1.14491 v -6.63152 h 2.46824 v 23.13597 h -2.0073 z m -4.93646,0.41633 q 2.5277,0 3.65774,-1.36794 1.1449,-1.3828 1.1449,-4.44579 v -0.52041 q 0,-3.46445 -1.15977,-4.93647 -1.1449,-1.48689 -3.67261,-1.48689 -2.17086,0 -3.33063,1.69505 -1.1449,1.68019 -1.1449,4.75804 0,3.12247 1.1449,4.71344 1.1449,1.59097 3.36037,1.59097 z"
           inkscape:connector-curvature="0" />
        <path
           id="path316"
           style="font-style:normal;font-variant:normal;font-weight:normal;font-stretch:normal;font-size:30.45145798px;font-family:'Open Sans';-inkscape-font-specification:'Open Sans'"
           d="m 321.88858,902.28761 q -3.61314,0 -5.70965,-2.20059 -2.08164,-2.2006 -2.08164,-6.11111 0,-3.94025 1.93295,-6.2598 1.94782,-2.31954 5.21898,-2.31954 3.06299,0 4.84725,2.02217 1.78427,2.00729 1.78427,5.30818 v 1.56124 h -11.22601 q 0.0744,2.86969 1.44229,4.35658 1.3828,1.48688 3.88077,1.48688 2.63179,0 5.20411,-1.10029 v 2.20059 q -1.30846,0.56502 -2.4831,0.80292 -1.15978,0.25277 -2.81022,0.25277 z m -0.6691,-14.82427 q -1.96269,0 -3.13733,1.27873 -1.15978,1.27872 -1.36794,3.53879 h 8.51987 q 0,-2.33442 -1.04083,-3.56853 -1.04082,-1.24899 -2.97377,-1.24899 z"
           inkscape:connector-curvature="0" />
        <path
           id="path318"
           style="font-style:normal;font-variant:normal;font-weight:normal;font-stretch:normal;font-size:30.45145798px;font-family:'Open Sans';-inkscape-font-specification:'Open Sans'"
           d="m 357.35085,901.99023 h -2.88456 l -11.88023,-18.24411 h -0.11895 q 0.2379,3.21168 0.2379,5.88808 v 12.35603 h -2.33442 v -21.73829 h 2.85483 l 11.85049,18.16976 h 0.11895 q -0.0297,-0.40146 -0.13382,-2.57231 -0.10408,-2.18573 -0.0743,-3.12247 v -12.47498 h 2.36415 z"
           inkscape:connector-curvature="0" />
        <path
           id="path320"
           style="font-style:normal;font-variant:normal;font-weight:normal;font-stretch:normal;font-size:30.45145798px;font-family:'Open Sans';-inkscape-font-specification:'Open Sans'"
           d="m 372.97804,901.99023 -0.49068,-2.31954 h -0.11895 q -1.21924,1.53149 -2.43849,2.08164 -1.20438,0.53528 -3.01838,0.53528 -2.42363,0 -3.80644,-1.24898 -1.36793,-1.24899 -1.36793,-3.55367 0,-4.93646 7.89537,-5.17436 l 2.76561,-0.0892 v -1.01108 q 0,-1.91809 -0.83266,-2.82509 -0.81778,-0.92187 -2.63179,-0.92187 -2.03703,0 -4.60935,1.24899 l -0.75831,-1.88835 q 1.20438,-0.65423 2.63179,-1.02595 1.44228,-0.37172 2.88456,-0.37172 2.9143,0 4.31198,1.29359 1.41254,1.29359 1.41254,4.14842 v 11.12191 z m -5.57583,-1.73965 q 2.30467,0 3.61314,-1.26386 1.32333,-1.26385 1.32333,-3.53879 v -1.47202 l -2.46824,0.10408 q -2.94404,0.10408 -4.2525,0.92187 -1.29359,0.80292 -1.29359,2.51284 0,1.3382 0.80292,2.03704 0.81779,0.69884 2.27494,0.69884 z"
           inkscape:connector-curvature="0" />
      </g>
      <g
         id="flowRoot7298"
         style="font-style:normal;font-weight:normal;font-size:14.66670036px;line-height:1.25;font-family:sans-serif;letter-spacing:0px;word-spacing:0px;fill:#000000;fill-opacity:1;stroke:none"
         transform="matrix(0.26458333,0,0,0.26458333,-57.103583,-30.066951)"
         aria-label="0,75 m">
        <path
           id="path326"
           style="font-style:normal;font-variant:normal;font-weight:normal;font-stretch:normal;font-size:13.33329964px;line-height:1.25;font-family:'Open Sans';-inkscape-font-specification:'Open Sans';fill:#000000;fill-opacity:1"
           d="m 374.1022,1097.8666 q 0,2.4674 -0.78125,3.6849 -0.77474,1.2174 -2.3763,1.2174 -1.53645,0 -2.33723,-1.2435 -0.80078,-1.25 -0.80078,-3.6588 0,-2.487 0.77474,-3.6914 0.77473,-1.2044 2.36327,-1.2044 1.54948,0 2.35026,1.2565 0.80729,1.2565 0.80729,3.6393 z m -5.20181,0 q 0,2.0768 0.48828,3.0273 0.48828,0.944 1.55598,0.944 1.08073,0 1.5625,-0.957 0.48828,-0.9635 0.48828,-3.0143 0,-2.0508 -0.48828,-3.0013 -0.48177,-0.957 -1.5625,-0.957 -1.0677,0 -1.55598,0.944 -0.48828,0.9375 -0.48828,3.0143 z"
           inkscape:connector-curvature="0" />
        <path
           id="path328"
           style="font-style:normal;font-variant:normal;font-weight:normal;font-stretch:normal;font-size:13.33329964px;line-height:1.25;font-family:'Open Sans';-inkscape-font-specification:'Open Sans';fill:#000000;fill-opacity:1"
           d="m 377.0449,1101.0892 0.0977,0.1498 q -0.16927,0.651 -0.48828,1.5104 -0.31901,0.8659 -0.66406,1.608 h -0.8138 q 0.17578,-0.677 0.38412,-1.6731 0.21484,-0.9961 0.29947,-1.5951 z"
           inkscape:connector-curvature="0" />
        <path
           id="path330"
           style="font-style:normal;font-variant:normal;font-weight:normal;font-stretch:normal;font-size:13.33329964px;line-height:1.25;font-family:'Open Sans';-inkscape-font-specification:'Open Sans';fill:#000000;fill-opacity:1"
           d="m 379.88994,1102.6387 3.9453,-8.5221 h -5.18879 v -0.9961 h 6.33462 v 0.8659 l -3.89322,8.6523 z"
           inkscape:connector-curvature="0" />
        <path
           id="path332"
           style="font-style:normal;font-variant:normal;font-weight:normal;font-stretch:normal;font-size:13.33329964px;line-height:1.25;font-family:'Open Sans';-inkscape-font-specification:'Open Sans';fill:#000000;fill-opacity:1"
           d="m 389.28445,1096.8249 q 1.5039,0 2.36328,0.7487 0.86588,0.7422 0.86588,2.0378 0,1.4778 -0.94401,2.3177 -0.9375,0.8398 -2.59114,0.8398 -1.60807,0 -2.45442,-0.5143 v -1.0417 q 0.45573,0.293 1.13281,0.4623 0.67708,0.1627 1.33463,0.1627 1.14583,0 1.77734,-0.5403 0.63802,-0.5404 0.63802,-1.5625 0,-1.9922 -2.4414,-1.9922 -0.61849,0 -1.65364,0.1888 l -0.5599,-0.3581 0.35808,-4.4531 h 4.73306 v 0.9961 h -3.80859 l -0.24088,2.8581 q 0.74869,-0.1498 1.49088,-0.1498 z"
           inkscape:connector-curvature="0" />
        <path
           id="path334"
           style="font-style:normal;font-variant:normal;font-weight:normal;font-stretch:normal;font-size:13.33329964px;line-height:1.25;font-family:'Open Sans';-inkscape-font-specification:'Open Sans';fill:#000000;fill-opacity:1"
           d="m 406.98623,1102.6387 v -4.6419 q 0,-0.8529 -0.36458,-1.2761 -0.36459,-0.4296 -1.13281,-0.4296 -1.00912,0 -1.49089,0.5794 -0.48176,0.5794 -0.48176,1.7838 v 3.9844 h -1.08073 v -4.6419 q 0,-0.8529 -0.36458,-1.2761 -0.36459,-0.4296 -1.13932,-0.4296 -1.01563,0 -1.49089,0.6119 -0.46874,0.6055 -0.46874,1.9922 v 3.7435 h -1.08073 v -7.1354 h 0.8789 l 0.17578,0.9766 h 0.0521 q 0.30599,-0.5209 0.85937,-0.8138 0.55989,-0.293 1.25,-0.293 1.67317,0 2.18749,1.2109 h 0.0521 q 0.31901,-0.5599 0.92448,-0.8854 0.60547,-0.3255 1.38021,-0.3255 1.21093,0 1.80989,0.625 0.60546,0.6185 0.60546,1.9857 v 4.6549 z"
           inkscape:connector-curvature="0" />
      </g>
      <path
         inkscape:connector-curvature="0"
         id="path7321"
         d="M 53.032923,264.86816 V 254.1499"
         style="fill:none;stroke:#000000;stroke-width:0.5;stroke-linecap:butt;stroke-linejoin:miter;stroke-miterlimit:4;stroke-dasharray:none;stroke-opacity:1"
         sodipodi:nodetypes="cc" />
      <path
         sodipodi:nodetypes="ccc"
         inkscape:connector-curvature="0"
         id="path7323"
         d="m 52.417677,255.40935 0.615246,-1.25945 0.611453,1.24235"
         style="fill:none;stroke:#000000;stroke-width:0.5;stroke-linecap:round;stroke-linejoin:round;stroke-miterlimit:4;stroke-dasharray:none;stroke-opacity:1" />
      <path
         style="fill:none;stroke:#000000;stroke-width:0.5;stroke-linecap:round;stroke-linejoin:round;stroke-miterlimit:4;stroke-dasharray:none;stroke-opacity:1"
         d="m 52.417677,263.60871 0.615246,1.25945 0.611453,-1.24235"
         id="path7325"
         inkscape:connector-curvature="0"
         sodipodi:nodetypes="ccc" />
      <path
         sodipodi:nodetypes="cc"
         style="fill:none;stroke:#000000;stroke-width:0.5;stroke-linecap:butt;stroke-linejoin:miter;stroke-miterlimit:4;stroke-dasharray:none;stroke-opacity:1"
         d="M 52.665915,269.33844 H 25.01432"
         id="path7327"
         inkscape:connector-curvature="0" />
      <path
         style="fill:none;stroke:#000000;stroke-width:0.5;stroke-linecap:round;stroke-linejoin:round;stroke-miterlimit:4;stroke-dasharray:none;stroke-opacity:1"
         d="m 26.27377,269.95369 -1.25945,-0.61525 1.24235,-0.61145"
         id="path7329"
         inkscape:connector-curvature="0"
         sodipodi:nodetypes="ccc" />
      <path
         sodipodi:nodetypes="ccc"
         inkscape:connector-curvature="0"
         id="path7331"
         d="m 51.406466,269.95369 1.259449,-0.61525 -1.242349,-0.61145"
         style="fill:none;stroke:#000000;stroke-width:0.5;stroke-linecap:round;stroke-linejoin:round;stroke-miterlimit:4;stroke-dasharray:none;stroke-opacity:1" />
      <g
         id="flowRoot7347"
         style="font-style:normal;font-weight:normal;font-size:14.66670036px;line-height:1.25;font-family:sans-serif;letter-spacing:0px;word-spacing:0px;fill:#000000;fill-opacity:1;stroke:none"
         transform="matrix(0.26458333,0,0,0.26458333,-59.110154,-19.253971)"
         aria-label="?">
        <path
           id="path323"
           style="font-style:normal;font-variant:normal;font-weight:normal;font-stretch:normal;font-size:13.33329964px;line-height:1.25;font-family:'Open Sans';-inkscape-font-specification:'Open Sans';fill:#000000;fill-opacity:1"
           d="m 369.02408,1100.015 v -0.3516 q 0,-0.7617 0.23438,-1.2499 0.23437,-0.4948 0.87239,-1.0417 0.88542,-0.7487 1.11328,-1.1263 0.23437,-0.3776 0.23437,-0.9115 0,-0.664 -0.42968,-1.0221 -0.42318,-0.3646 -1.22396,-0.3646 -0.51432,0 -1.0026,0.1237 -0.48828,0.1172 -1.11979,0.4362 l -0.38411,-0.8789 q 1.23046,-0.6445 2.57161,-0.6445 1.24348,0 1.93359,0.612 0.6901,0.6119 0.6901,1.7252 0,0.4753 -0.13021,0.8399 -0.1237,0.358 -0.37109,0.6835 -0.2474,0.3191 -1.06771,1.0352 -0.65755,0.5599 -0.87239,0.931 -0.20833,0.3711 -0.20833,0.9896 v 0.2148 z m -0.31901,1.9336 q 0,-0.8854 0.78125,-0.8854 0.37761,0 0.57943,0.2278 0.20833,0.2279 0.20833,0.6576 0,0.4167 -0.20833,0.651 -0.20833,0.2279 -0.57943,0.2279 -0.33854,0 -0.55989,-0.2018 -0.22136,-0.2084 -0.22136,-0.6771 z"
           inkscape:connector-curvature="0" />
      </g>
    </g>
  </g>
</svg>
