<?xml version="1.0" encoding="UTF-8" standalone="no"?>
<svg
   xmlns:dc="http://purl.org/dc/elements/1.1/"
   xmlns:cc="http://creativecommons.org/ns#"
   xmlns:rdf="http://www.w3.org/1999/02/22-rdf-syntax-ns#"
   xmlns:svg="http://www.w3.org/2000/svg"
   xmlns="http://www.w3.org/2000/svg"
   xmlns:sodipodi="http://sodipodi.sourceforge.net/DTD/sodipodi-0.dtd"
   xmlns:inkscape="http://www.inkscape.org/namespaces/inkscape"
   sodipodi:docname="Egim_25.svg"
   inkscape:version="0.92.5 (2060ec1f9f, 2020-04-08)"
   id="svg8"
   version="1.1"
   viewBox="0 0 170 39.945"
   height="39.945mm"
   width="170mm">
  <defs
     id="defs2" />
  <sodipodi:namedview
     inkscape:document-rotation="0"
     inkscape:snap-global="true"
     inkscape:window-maximized="1"
     inkscape:window-y="25"
     inkscape:window-x="0"
     inkscape:window-height="1031"
     inkscape:window-width="1920"
     showgrid="false"
     inkscape:current-layer="layer1"
     inkscape:document-units="mm"
     inkscape:cy="78.52093"
     inkscape:cx="427.62709"
     inkscape:zoom="2"
     inkscape:pageshadow="2"
     inkscape:pageopacity="0.0"
     borderopacity="1.0"
     bordercolor="#666666"
     pagecolor="#ffffff"
     id="base"
     inkscape:pagecheckerboard="0" />
  <metadata
     id="metadata5">
    <rdf:RDF>
      <cc:Work
         rdf:about="">
        <dc:format>image/svg+xml</dc:format>
        <dc:type
           rdf:resource="http://purl.org/dc/dcmitype/StillImage" />
        <dc:title></dc:title>
      </cc:Work>
    </rdf:RDF>
  </metadata>
  <g
     id="layer1"
     inkscape:groupmode="layer"
     inkscape:label="Layer 1"
     transform="translate(0,-257.055)">
    <g
       id="g7916"
       transform="matrix(0.99999995,0,0,1.0000074,-45.284462,110.21911)">
      <rect
         style="opacity:1;fill:#ffaaaa;fill-opacity:1;stroke:#000000;stroke-width:0.5;stroke-linecap:round;stroke-linejoin:round;stroke-miterlimit:4;stroke-dasharray:none;stroke-dashoffset:0;stroke-opacity:1"
         id="rect1149"
         width="9.7601166"
         height="32.479042"
         x="110.39197"
         y="148.24312" />
      <rect
         style="opacity:1;fill:#cccccc;fill-opacity:1;stroke:#000000;stroke-width:0.5;stroke-linecap:round;stroke-linejoin:round;stroke-miterlimit:4;stroke-dasharray:none;stroke-dashoffset:0;stroke-opacity:1"
         id="rect1151"
         width="39.784805"
         height="1.2890625"
         x="110.39197"
         y="180.72215" />
      <rect
         style="opacity:1;fill:#deaa87;fill-opacity:1;stroke:#000000;stroke-width:0.49999997;stroke-linecap:round;stroke-linejoin:round;stroke-miterlimit:4;stroke-dasharray:none;stroke-dashoffset:0;stroke-opacity:1"
         id="rect1154"
         width="43.208057"
         height="1.6118066"
         x="190.67822"
         y="5.3019238"
         transform="rotate(48.858142)" />
      <g
         aria-label="5 m"
         transform="matrix(0,-0.26458333,0.26458333,0,106.17756,178.11282)"
         style="font-style:normal;font-weight:normal;font-size:13.33333397px;line-height:1.25;font-family:sans-serif;letter-spacing:0px;word-spacing:0px;fill:#000000;fill-opacity:1;stroke:none"
         id="flowRoot7759">
        <path
           d="m 41.421224,43.795107 q 1.503906,0 2.363281,0.748698 0.865886,0.742188 0.865886,2.037761 0,1.477865 -0.944011,2.317708 -0.9375,0.839844 -2.591145,0.839844 -1.608073,0 -2.454428,-0.514323 v -1.041667 q 0.45573,0.292969 1.132813,0.46224 0.677083,0.162761 1.334635,0.162761 1.145834,0 1.777344,-0.540365 0.638021,-0.540365 0.638021,-1.5625 0,-1.992188 -2.441406,-1.992188 -0.61849,0 -1.653646,0.188802 l -0.559896,-0.358073 0.358073,-4.453125 h 4.733073 v 0.996094 h -3.808594 l -0.240885,2.858073 q 0.748698,-0.14974 1.490885,-0.14974 z"
           style="font-style:normal;font-variant:normal;font-weight:normal;font-stretch:normal;font-size:13.33333397px;font-family:'Open Sans';-inkscape-font-specification:'Open Sans'"
           id="path329"
           inkscape:connector-curvature="0" />
        <path
           d="m 59.123048,49.60891 v -4.641927 q 0,-0.852865 -0.364583,-1.276042 -0.364584,-0.429688 -1.132813,-0.429688 -1.009115,0 -1.490885,0.579427 -0.481771,0.579427 -0.481771,1.783855 v 3.984375 h -1.080729 v -4.641927 q 0,-0.852865 -0.364584,-1.276042 -0.364583,-0.429688 -1.139323,-0.429688 -1.015625,0 -1.490885,0.611979 -0.46875,0.605469 -0.46875,1.992188 v 3.74349 h -1.08073 v -7.135417 h 0.878907 l 0.175781,0.976562 h 0.05208 q 0.30599,-0.520833 0.859375,-0.813802 0.559896,-0.292969 1.25,-0.292969 1.673178,0 2.187501,1.210938 h 0.05208 q 0.31901,-0.559896 0.924479,-0.885417 0.605469,-0.325521 1.380209,-0.325521 1.210937,0 1.809895,0.625 0.605469,0.61849 0.605469,1.985678 v 4.654948 z"
           style="font-style:normal;font-variant:normal;font-weight:normal;font-stretch:normal;font-size:13.33333397px;font-family:'Open Sans';-inkscape-font-specification:'Open Sans'"
           id="path331"
           inkscape:connector-curvature="0" />
      </g>
      <g
         aria-label="?"
         transform="matrix(0.26458333,0,0,0.26458333,36.692802,-103.07)"
         style="font-style:normal;font-weight:normal;font-size:14.66670036px;line-height:0.25;font-family:sans-serif;letter-spacing:0px;word-spacing:0px;fill:#000000;fill-opacity:1;stroke:none"
         id="flowRoot7846">
        <path
           d="m 369.02408,1092.6817 v -0.3516 q 0,-0.7617 0.23438,-1.25 0.23437,-0.4948 0.87239,-1.0417 0.88542,-0.7487 1.11328,-1.1263 0.23437,-0.3776 0.23437,-0.9114 0,-0.6641 -0.42968,-1.0222 -0.42318,-0.3645 -1.22396,-0.3645 -0.51432,0 -1.0026,0.1237 -0.48828,0.1172 -1.11979,0.4362 l -0.38411,-0.8789 q 1.23046,-0.6446 2.57161,-0.6446 1.24348,0 1.93359,0.612 0.6901,0.612 0.6901,1.7253 0,0.4752 -0.13021,0.8398 -0.1237,0.3581 -0.37109,0.6836 -0.2474,0.319 -1.06771,1.0351 -0.65755,0.5599 -0.87239,0.931 -0.20833,0.3711 -0.20833,0.9896 v 0.2149 z m -0.31901,1.9335 q 0,-0.8854 0.78125,-0.8854 0.37761,0 0.57943,0.2279 0.20833,0.2279 0.20833,0.6575 0,0.4167 -0.20833,0.6511 -0.20833,0.2279 -0.57943,0.2279 -0.33854,0 -0.55989,-0.2019 -0.22136,-0.2083 -0.22136,-0.6771 z"
           style="font-style:normal;font-variant:normal;font-weight:normal;font-stretch:normal;font-size:13.33329964px;font-family:'Open Sans';-inkscape-font-specification:'Open Sans';fill:#000000;fill-opacity:1"
           id="path334"
           inkscape:connector-curvature="0" />
      </g>
      <path
         inkscape:connector-curvature="0"
         id="path7848"
         d="M 149.09654,183.53624 H 120.32981"
         style="fill:none;stroke:#000000;stroke-width:0.5;stroke-linecap:butt;stroke-linejoin:miter;stroke-miterlimit:4;stroke-dasharray:none;stroke-opacity:1"
         sodipodi:nodetypes="cc" />
      <path
         sodipodi:nodetypes="ccc"
         inkscape:connector-curvature="0"
         id="path7850"
         d="m 121.58926,184.15148 -1.25945,-0.61524 1.24236,-0.61146"
         style="fill:none;stroke:#000000;stroke-width:0.5;stroke-linecap:round;stroke-linejoin:round;stroke-miterlimit:4;stroke-dasharray:none;stroke-opacity:1" />
      <path
         style="fill:none;stroke:#000000;stroke-width:0.5;stroke-linecap:round;stroke-linejoin:round;stroke-miterlimit:4;stroke-dasharray:none;stroke-opacity:1"
         d="m 147.8371,184.15148 1.25945,-0.61524 -1.24235,-0.61146"
         id="path7852"
         inkscape:connector-curvature="0"
         sodipodi:nodetypes="ccc" />
    </g>
  </g>
</svg>
