<?xml version="1.0" encoding="UTF-8" standalone="no"?>
<!-- Created with Inkscape (http://www.inkscape.org/) -->

<svg
   xmlns:dc="http://purl.org/dc/elements/1.1/"
   xmlns:cc="http://creativecommons.org/ns#"
   xmlns:rdf="http://www.w3.org/1999/02/22-rdf-syntax-ns#"
   xmlns:svg="http://www.w3.org/2000/svg"
   xmlns="http://www.w3.org/2000/svg"
   xmlns:sodipodi="http://sodipodi.sourceforge.net/DTD/sodipodi-0.dtd"
   xmlns:inkscape="http://www.inkscape.org/namespaces/inkscape"
   width="170mm"
   height="44.349998mm"
   viewBox="0 0 170 44.349998"
   version="1.1"
   id="svg8"
   inkscape:version="0.92.5 (2060ec1f9f, 2020-04-08)"
   sodipodi:docname="egim_17.svg">
  <defs
     id="defs2" />
  <sodipodi:namedview
     id="base"
     pagecolor="#ffffff"
     bordercolor="#666666"
     borderopacity="1.0"
     inkscape:pageopacity="0.0"
     inkscape:pageshadow="2"
     inkscape:zoom="3.3867188"
     inkscape:cx="364.13766"
     inkscape:cy="76.541951"
     inkscape:document-units="mm"
     inkscape:current-layer="layer1"
     showgrid="false"
     inkscape:window-width="1920"
     inkscape:window-height="1031"
     inkscape:window-x="0"
     inkscape:window-y="25"
     inkscape:window-maximized="1"
     inkscape:snap-global="true" />
  <metadata
     id="metadata5">
    <rdf:RDF>
      <cc:Work
         rdf:about="">
        <dc:format>image/svg+xml</dc:format>
        <dc:type
           rdf:resource="http://purl.org/dc/dcmitype/StillImage" />
        <dc:title />
      </cc:Work>
    </rdf:RDF>
  </metadata>
  <g
     inkscape:label="Layer 1"
     inkscape:groupmode="layer"
     id="layer1"
     transform="translate(0,-252.65)">
    <g
       transform="matrix(1,0,0,0.99999601,51.823911,87.499982)"
       id="g8411">
      <path
         sodipodi:nodetypes="cc"
         inkscape:connector-curvature="0"
         id="path8405"
         d="m 11.251061,189.0956 h 40.3965"
         style="fill:none;stroke:#000000;stroke-width:0.5;stroke-linecap:butt;stroke-linejoin:miter;stroke-miterlimit:4;stroke-dasharray:none;stroke-opacity:1" />
      <path
         style="fill:none;stroke:#000000;stroke-width:0.5;stroke-linecap:round;stroke-linejoin:round;stroke-miterlimit:4;stroke-dasharray:none;stroke-opacity:1"
         d="m 50.123388,188.27419 1.524173,0.82141 -1.532934,0.83797"
         id="path8407"
         inkscape:connector-curvature="0"
         sodipodi:nodetypes="ccc" />
      <path
         style="fill:none;stroke:#000000;stroke-width:0.5;stroke-linecap:round;stroke-linejoin:round;stroke-miterlimit:4;stroke-dasharray:none;stroke-opacity:1"
         d="m 12.775233,189.91701 -1.524172,-0.82141 1.532933,-0.83797"
         id="path8409"
         inkscape:connector-curvature="0"
         sodipodi:nodetypes="ccc" />
    </g>
    <g
       transform="matrix(1,0,0,0.99999601,51.823911,87.499982)"
       id="g8419">
      <path
         sodipodi:nodetypes="cc"
         style="fill:none;stroke:#000000;stroke-width:0.5;stroke-linecap:butt;stroke-linejoin:miter;stroke-miterlimit:4;stroke-dasharray:none;stroke-opacity:1"
         d="m 31.509464,168.81973 v 40.43115"
         id="path8413"
         inkscape:connector-curvature="0" />
      <path
         sodipodi:nodetypes="ccc"
         inkscape:connector-curvature="0"
         id="path8415"
         d="m 30.688054,170.34391 0.82141,-1.52418 0.837971,1.53294"
         style="fill:none;stroke:#000000;stroke-width:0.5;stroke-linecap:round;stroke-linejoin:round;stroke-miterlimit:4;stroke-dasharray:none;stroke-opacity:1" />
      <path
         sodipodi:nodetypes="ccc"
         inkscape:connector-curvature="0"
         id="path8417"
         d="m 32.330876,207.72671 -0.821412,1.52417 -0.83797,-1.53293"
         style="fill:none;stroke:#000000;stroke-width:0.5;stroke-linecap:round;stroke-linejoin:round;stroke-miterlimit:4;stroke-dasharray:none;stroke-opacity:1" />
    </g>
    <g
       transform="matrix(0.88092554,0.47325304,-0.47325494,0.88092201,139.23737,92.500895)"
       id="g8427">
      <path
         inkscape:connector-curvature="0"
         id="path8421"
         d="m 31.509464,168.81973 v 40.43115"
         style="fill:none;stroke:#000000;stroke-width:0.5;stroke-linecap:butt;stroke-linejoin:miter;stroke-miterlimit:4;stroke-dasharray:none;stroke-opacity:1"
         sodipodi:nodetypes="cc" />
      <path
         style="fill:none;stroke:#000000;stroke-width:0.5;stroke-linecap:round;stroke-linejoin:round;stroke-miterlimit:4;stroke-dasharray:none;stroke-opacity:1"
         d="m 30.688054,170.34391 0.82141,-1.52418 0.837971,1.53294"
         id="path8423"
         inkscape:connector-curvature="0"
         sodipodi:nodetypes="ccc" />
      <path
         style="fill:none;stroke:#000000;stroke-width:0.5;stroke-linecap:round;stroke-linejoin:round;stroke-miterlimit:4;stroke-dasharray:none;stroke-opacity:1"
         d="m 32.330876,207.72671 -0.821412,1.52417 -0.83797,-1.53293"
         id="path8425"
         inkscape:connector-curvature="0"
         sodipodi:nodetypes="ccc" />
    </g>
    <g
       aria-label="x"
       transform="matrix(0.26458334,0,0,0.26458227,-313.20242,-6.5810224)"
       style="font-style:normal;font-weight:normal;font-size:40px;line-height:1.25;font-family:sans-serif;letter-spacing:0px;word-spacing:0px;fill:#000000;fill-opacity:1;stroke:none"
       id="flowRoot8435">
      <path
         d="m 1569.8646,1059.2578 -2.4805,-3.4831 h 1.2305 l 1.8815,2.7344 1.875,-2.7344 h 1.2174 l -2.4804,3.4831 2.6107,3.6524 h -1.224 l -1.9987,-2.8907 -2.0182,2.8907 h -1.224 z"
         style="font-style:normal;font-variant:normal;font-weight:normal;font-stretch:normal;font-size:13.33333397px;font-family:'Open Sans';-inkscape-font-specification:'Open Sans'"
         id="path44" />
    </g>
    <g
       aria-label="y"
       transform="matrix(0.26458334,0,0,0.26458227,-332.78156,-26.689283)"
       style="font-style:normal;font-weight:normal;font-size:40px;line-height:1.25;font-family:sans-serif;letter-spacing:0px;word-spacing:0px;fill:#000000;fill-opacity:1;stroke:none"
       id="flowRoot8443">
      <path
         d="m 1567.013,1055.7747 h 1.1589 l 1.5625,4.069 q 0.5143,1.3933 0.638,2.0118 h 0.052 q 0.085,-0.3321 0.3515,-1.1328 0.2735,-0.8073 1.7709,-4.948 h 1.1588 l -3.0664,8.125 q -0.4557,1.2045 -1.0677,1.7058 -0.6055,0.5078 -1.4909,0.5078 -0.4948,0 -0.9765,-0.1107 v -0.8659 q 0.358,0.078 0.8007,0.078 1.1133,0 1.5886,-1.25 l 0.3971,-1.0156 z"
         style="font-style:normal;font-variant:normal;font-weight:normal;font-stretch:normal;font-size:13.33333397px;font-family:'Open Sans';-inkscape-font-specification:'Open Sans'"
         id="path55" />
    </g>
    <g
       aria-label="-3"
       transform="matrix(0.26458334,0,0,0.26458227,-338.73178,-1.0017647)"
       style="font-style:normal;font-weight:normal;font-size:40px;line-height:1.25;font-family:sans-serif;letter-spacing:0px;word-spacing:0px;fill:#000000;fill-opacity:1;stroke:none"
       id="flowRoot8451">
      <path
         d="m 1567.5469,1059.8307 v -0.9896 h 3.1966 v 0.9896 z"
         style="font-style:normal;font-variant:normal;font-weight:normal;font-stretch:normal;font-size:13.33333397px;font-family:'Open Sans';-inkscape-font-specification:'Open Sans'"
         id="path50" />
      <path
         d="m 1577.8398,1055.6315 q 0,0.9115 -0.5143,1.4909 -0.5078,0.5794 -1.4453,0.7747 v 0.052 q 1.1458,0.1432 1.6992,0.7292 0.5534,0.5859 0.5534,1.5364 0,1.3607 -0.944,2.0964 -0.944,0.7292 -2.6823,0.7292 -0.7552,0 -1.3867,-0.1172 -0.625,-0.1107 -1.2175,-0.3972 v -1.0286 q 0.6185,0.306 1.3151,0.4687 0.7032,0.1563 1.3282,0.1563 2.4674,0 2.4674,-1.9336 0,-1.7318 -2.7213,-1.7318 h -0.9375 v -0.931 h 0.9505 q 1.1133,0 1.7643,-0.4882 0.6511,-0.4948 0.6511,-1.3672 0,-0.6966 -0.4818,-1.0938 -0.4753,-0.3971 -1.2956,-0.3971 -0.625,0 -1.1784,0.1693 -0.5534,0.1692 -1.263,0.625 l -0.5469,-0.7292 q 0.586,-0.4622 1.3477,-0.7227 0.7682,-0.2669 1.6146,-0.2669 1.3867,0 2.1549,0.638 0.7682,0.6315 0.7682,1.7383 z"
         style="font-style:normal;font-variant:normal;font-weight:normal;font-stretch:normal;font-size:13.33333397px;font-family:'Open Sans';-inkscape-font-specification:'Open Sans'"
         id="path52" />
    </g>
    <ellipse
       style="opacity:1;fill:#000000;fill-opacity:1;stroke:none;stroke-width:0.62187582;stroke-linecap:round;stroke-linejoin:round;stroke-miterlimit:4;stroke-dasharray:none;stroke-dashoffset:0;stroke-opacity:1"
       id="path8453"
       cx="76.118118"
       cy="276.64395"
       rx="0.75"
       ry="0.74999702" />
    <ellipse
       cy="263.28253"
       cx="83.320343"
       id="circle8455"
       style="opacity:1;fill:#000000;fill-opacity:1;stroke:none;stroke-width:0.62187582;stroke-linecap:round;stroke-linejoin:round;stroke-miterlimit:4;stroke-dasharray:none;stroke-dashoffset:0;stroke-opacity:1"
       rx="0.75"
       ry="0.74999702" />
    <g
       aria-label="a"
       transform="matrix(0.26458334,0,0,0.26458227,-330.2506,-16.635153)"
       style="font-style:normal;font-weight:normal;font-size:40px;line-height:1.25;font-family:sans-serif;letter-spacing:0px;word-spacing:0px;fill:#000000;fill-opacity:1;stroke:none"
       id="flowRoot8463">
      <path
         d="m 1572.5339,1062.9102 -0.2149,-1.0157 h -0.052 q -0.5338,0.6706 -1.0677,0.9115 -0.5273,0.2344 -1.3216,0.2344 -1.0612,0 -1.6667,-0.5469 -0.5989,-0.5469 -0.5989,-1.556 0,-2.1615 3.457,-2.2656 l 1.2109,-0.039 v -0.4427 q 0,-0.8398 -0.3645,-1.237 -0.3581,-0.4036 -1.1524,-0.4036 -0.8919,0 -2.0182,0.5469 l -0.332,-0.8269 q 0.5273,-0.2864 1.1523,-0.4492 0.6315,-0.1627 1.263,-0.1627 1.2761,0 1.888,0.5664 0.6185,0.5664 0.6185,1.8164 v 4.8698 z m -2.4415,-0.7618 q 1.0092,0 1.5821,-0.5533 0.5794,-0.5534 0.5794,-1.5495 v -0.6446 l -1.0807,0.046 q -1.2891,0.046 -1.862,0.4037 -0.5664,0.3515 -0.5664,1.1002 0,0.586 0.3516,0.8919 0.358,0.306 0.996,0.306 z"
         style="font-style:normal;font-variant:normal;font-weight:normal;font-stretch:normal;font-size:13.33333397px;font-family:'Open Sans';-inkscape-font-specification:'Open Sans'"
         id="path47" />
    </g>
    <g
       aria-label="d"
       transform="matrix(0.26458334,0,0,0.26458227,-326.96075,-23.514305)"
       style="font-style:normal;font-weight:normal;font-size:40px;line-height:1.25;font-family:sans-serif;letter-spacing:0px;word-spacing:0px;fill:#000000;fill-opacity:1;stroke:none"
       id="flowRoot8471">
      <path
         d="m 1573.0026,1061.9531 h -0.059 q -0.7487,1.0873 -2.2396,1.0873 -1.3997,0 -2.181,-0.9571 -0.7747,-0.957 -0.7747,-2.7213 0,-1.7643 0.7812,-2.7409 0.7813,-0.9766 2.1745,-0.9766 1.4519,0 2.2266,1.0547 h 0.085 l -0.045,-0.5143 -0.026,-0.5013 v -2.9037 h 1.0807 v 10.1303 h -0.8789 z m -2.1615,0.1823 q 1.1068,0 1.6016,-0.5989 0.5013,-0.6055 0.5013,-1.9467 v -0.2278 q 0,-1.5169 -0.5078,-2.1615 -0.5013,-0.651 -1.6081,-0.651 -0.9505,0 -1.4583,0.7422 -0.5013,0.7356 -0.5013,2.0833 0,1.3672 0.5013,2.0638 0.5013,0.6966 1.4713,0.6966 z"
         style="font-style:normal;font-variant:normal;font-weight:normal;font-stretch:normal;font-size:13.33333397px;font-family:'Open Sans';-inkscape-font-specification:'Open Sans'"
         id="path41" />
    </g>
  </g>
</svg>
