<?xml version="1.0" encoding="UTF-8" standalone="no"?>
<svg
   xmlns:dc="http://purl.org/dc/elements/1.1/"
   xmlns:cc="http://creativecommons.org/ns#"
   xmlns:rdf="http://www.w3.org/1999/02/22-rdf-syntax-ns#"
   xmlns:svg="http://www.w3.org/2000/svg"
   xmlns="http://www.w3.org/2000/svg"
   xmlns:sodipodi="http://sodipodi.sourceforge.net/DTD/sodipodi-0.dtd"
   xmlns:inkscape="http://www.inkscape.org/namespaces/inkscape"
   sodipodi:docname="egim_21.svg"
   inkscape:version="0.92.5 (2060ec1f9f, 2020-04-08)"
   id="svg8"
   version="1.1"
   viewBox="0 0 170 52.337002"
   height="52.337002mm"
   width="170mm">
  <defs
     id="defs2" />
  <sodipodi:namedview
     inkscape:document-rotation="0"
     inkscape:snap-global="true"
     inkscape:window-maximized="1"
     inkscape:window-y="25"
     inkscape:window-x="0"
     inkscape:window-height="1031"
     inkscape:window-width="1920"
     showgrid="false"
     inkscape:current-layer="layer1"
     inkscape:document-units="mm"
     inkscape:cy="184.11017"
     inkscape:cx="565.74715"
     inkscape:zoom="1.4142136"
     inkscape:pageshadow="2"
     inkscape:pageopacity="0.0"
     borderopacity="1.0"
     bordercolor="#666666"
     pagecolor="#ffffff"
     id="base"
     inkscape:pagecheckerboard="0" />
  <metadata
     id="metadata5">
    <rdf:RDF>
      <cc:Work
         rdf:about="">
        <dc:format>image/svg+xml</dc:format>
        <dc:type
           rdf:resource="http://purl.org/dc/dcmitype/StillImage" />
        <dc:title></dc:title>
      </cc:Work>
    </rdf:RDF>
  </metadata>
  <g
     id="layer1"
     inkscape:groupmode="layer"
     inkscape:label="Layer 1"
     transform="translate(0,-244.663)">
    <path
       style="fill:#dde9af;stroke:none;stroke-width:0.26458332px;stroke-linecap:butt;stroke-linejoin:miter;stroke-opacity:1"
       d="m 82.08669,276.35822 5.10986,-0.59635 1.36809,0.22217 0.95882,-0.30402 0.81624,-0.90712 1.96671,0.87204 1.63702,0.31571 1.22777,-0.53788 0.93545,-1.43825 0.80682,-2.06966 2.56077,-2.61925 0.0818,-4.86432 1.57856,-3.95225 -0.30401,-1.89427 -1.40317,-1.70719 -3.60146,-1.98782 -0.80682,-1.3447 -0.56126,-3.27406 -1.73057,-1.89428 -1.56687,-0.5028 -3.43775,1.13423 -1.08746,-0.77174 -1.36808,-2.60756 -1.28624,-0.76005 -3.76516,0.14032 -2.60754,1.19269 -0.97053,1.55518 -0.72497,2.15152 -3.49622,0.3391 -1.80072,1.12253 -1.22777,2.06968 -0.0819,1.90597 1.55518,3.94056 -0.18709,0.73666 -1.89427,3.27406 -0.19878,1.34471 1.07576,2.26845 3.74177,3.06357 -0.90037,1.64873 0.73667,1.61364 1.6838,1.83581 2.26845,1.12253 2.50231,0.28064 z"
       id="path8242"
       inkscape:connector-curvature="0" />
    <path
       style="fill:#e9c6af;stroke:none;stroke-width:0.26458332px;stroke-linecap:butt;stroke-linejoin:miter;stroke-opacity:1"
       d="m 78.05091,292.62218 12.30671,0.24107 -2.65411,-0.66145 -0.73587,-1.19063 -0.15709,-6.58152 -0.0331,-8.81395 -0.12003,-1.95254 2.19536,-1.37956 3.44785,-1.9265 -0.1819,-0.65319 -3.54707,1.18236 -2.17455,0.28939 -0.99112,-0.14039 1.05727,-3.26613 1.2485,-3.48093 -1.2733,-0.14883 -1.00873,2.73679 -1.23196,2.17454 -1.07487,1.23197 -0.73588,0.008 -3.77858,-2.67891 -0.15709,1.4056 3.43958,2.68718 0.44648,1.0666 0.16537,1.4056 0.0661,9.00413 -0.1819,7.63158 -0.75241,0.90124 -1.53789,0.66972 z"
       id="path8244"
       inkscape:connector-curvature="0"
       sodipodi:nodetypes="cccccccccccccccccccccccccccccc" />
    <path
       style="fill:#000000;stroke-width:0.21508585"
       d="m 78.05091,292.62218 c -0.0514,-0.0832 0.48234,-0.2035 1.18615,-0.26732 1.46015,-0.1324 2.72336,-0.79894 3.02682,-1.5971 0.10968,-0.28846 0.19942,-3.59123 0.19942,-7.33947 l 1e-5,-6.81498 h -2.41973 c -2.21029,0 -2.53536,-0.0534 -3.75575,-0.61717 -1.58839,-0.73373 -3.58557,-2.69727 -3.81749,-3.75321 -0.11509,-0.524 -0.037,-0.8902 0.31821,-1.49224 0.43989,-0.74556 0.44628,-0.81217 0.0977,-1.01654 -1.34683,-0.7896 -2.95786,-2.16408 -3.55665,-3.03438 -1.03673,-1.50685 -1.08929,-2.66153 -0.20307,-4.46171 0.38171,-0.77536 0.87694,-1.57528 1.10053,-1.77763 0.6094,-0.55149 0.49903,-1.56819 -0.34628,-3.18994 -0.5738,-1.10084 -0.7528,-1.70569 -0.7528,-2.5437 0,-2.87958 2.55449,-5.08883 5.6133,-4.85467 1.03318,0.0791 1.28438,-0.1999 1.69735,-1.88521 0.49764,-2.0308 2.7795,-3.31391 5.89339,-3.31391 2.3335,0 2.9595,0.38683 4.00282,2.4735 0.9063,1.81257 1.26522,1.92733 3.38015,1.08067 1.75382,-0.70211 2.28702,-0.60544 3.7082,0.67233 1.14602,1.03037 1.36711,1.54559 1.63655,3.81377 0.19177,1.61447 0.70622,2.18188 3.06405,3.37952 1.40327,0.71278 1.93489,1.12021 2.47349,1.89567 0.94023,1.35377 0.90519,2.36894 -0.16332,4.73091 -0.79998,1.76841 -0.81448,1.84592 -0.67249,3.5959 0.20343,2.50713 -0.0711,3.29026 -1.6357,4.66757 -1.0413,0.91659 -1.32151,1.32123 -1.69763,2.4515 -0.85915,2.58173 -1.96407,3.09773 -4.70589,2.19764 l -1.3513,-0.44361 -0.43823,0.47038 c -0.38387,0.41204 -0.60083,0.45731 -1.74919,0.36501 l -1.31097,-0.10537 0.0604,7.33776 c 0.0376,4.56083 0.14755,7.55763 0.29061,7.91876 0.31851,0.80402 1.16451,1.3007 2.26538,1.33001 0.51142,0.0137 0.93045,0.11084 0.93117,0.21604 0.002,0.29644 -2.06658,-0.0194 -2.65586,-0.40557 -1.06425,-0.69733 -1.10682,-1.08894 -1.10682,-10.18186 v -8.46037 l 0.64525,-0.54281 c 0.70895,-0.59639 4.86793,-2.9053 4.99833,-2.77489 0.0987,0.0987 -2.00992,1.38086 -3.49273,2.12369 -1.26358,0.63299 -1.73231,1.11599 -1.87917,1.93635 -0.23199,1.29594 1.77491,1.93449 2.84819,0.9062 l 0.56239,-0.5388 1.58414,0.5388 c 2.0149,0.6853 2.19586,0.67779 3.11509,-0.12929 0.5441,-0.47773 0.85929,-1.01399 1.10617,-1.882 0.28083,-0.98739 0.57692,-1.43467 1.58673,-2.39689 0.68281,-0.65064 1.35383,-1.40181 1.49117,-1.66927 0.15365,-0.29924 0.232,-1.37472 0.20368,-2.79611 -0.0443,-2.22246 -0.0189,-2.36592 0.67093,-3.79206 1.50324,-3.10785 0.98562,-4.67948 -2.04063,-6.19595 -2.77262,-1.38939 -3.10825,-1.85713 -3.44193,-4.79683 -0.13427,-1.18287 -0.23398,-1.37525 -1.19545,-2.30639 -1.29356,-1.25275 -1.90125,-1.42862 -3.1966,-0.92508 -2.12767,0.82707 -2.54294,0.88284 -3.15746,0.42404 -0.31053,-0.23184 -0.75404,-0.9294 -0.9856,-1.55013 -0.27592,-0.73968 -0.68086,-1.32679 -1.17508,-1.70376 -0.66238,-0.50523 -0.95481,-0.57633 -2.40442,-0.58466 -3.29908,-0.0189 -5.25146,1.13093 -5.90374,3.47708 -0.19483,0.70078 -0.50514,1.39938 -0.68958,1.55245 -0.19984,0.16586 -0.97116,0.28793 -1.90898,0.30212 -1.37517,0.0208 -1.6904,0.10474 -2.49924,0.66543 -2.24961,1.55939 -2.65291,3.60613 -1.24176,6.30182 0.44361,0.84744 0.80657,1.749 0.80657,2.00346 0,0.25446 -0.37829,1.02916 -0.84066,1.72155 -1.26843,1.8995 -1.64524,3.03151 -1.34389,4.03734 0.39928,1.33266 1.40041,2.48882 3.12062,3.60386 0.88932,0.57646 1.62325,1.12964 1.63096,1.22928 0.007,0.0996 -0.17958,0.42724 -0.41617,0.72803 -0.74895,0.95215 -0.57054,1.80621 0.65814,3.15059 1.57606,1.72446 2.98141,2.35336 5.5056,2.46376 1.09651,0.048 2.2392,0.0256 2.5393,-0.0498 0.51181,-0.12846 0.54536,-0.22008 0.54093,-1.47714 -0.007,-1.93136 -0.52536,-2.92757 -2.0721,-3.98083 -1.23548,-0.84132 -2.23704,-1.76863 -1.91023,-1.76863 0.0914,0 0.47646,0.26617 0.85559,0.59149 0.37914,0.32531 1.12403,0.89138 1.65533,1.25791 1.83513,1.266 1.80975,1.10136 1.72081,11.16332 -0.0428,4.85019 -0.16263,8.97927 -0.26613,9.17571 -0.33421,0.63431 -1.60548,1.24914 -2.96812,1.4355 -0.73111,0.1 -1.37138,0.11371 -1.42281,0.0305 z m 7.3551,-21.58691 c -0.14661,-0.38202 2.11449,-6.97597 2.32121,-6.76926 0.0494,0.0494 -0.39238,1.48409 -0.98173,3.18818 -0.58935,1.70408 -1.01765,3.2388 -0.95177,3.41047 0.17179,0.44769 1.90522,0.20483 4.28877,-0.60088 1.96757,-0.66508 2.75979,-0.73509 1.27634,-0.11279 -2.47535,1.03841 -5.70934,1.51881 -5.95282,0.88428 z m -4.37003,-1.42223 c -1.60793,-1.09675 -2.56296,-1.88878 -2.43356,-2.01818 0.0558,-0.0558 0.72951,0.37821 1.4972,0.96441 0.76768,0.58621 1.67494,1.21749 2.01613,1.40285 0.57549,0.31266 0.65997,0.30745 1.16828,-0.072 0.65772,-0.49107 1.76268,-2.42212 2.53477,-4.42981 0.30969,-0.80528 0.61033,-1.4169 0.6681,-1.35913 0.0578,0.0578 -0.0967,0.64432 -0.34335,1.30345 -1.09639,2.93036 -2.53897,5.06878 -3.41942,5.06878 -0.23479,0 -0.99447,-0.38715 -1.68815,-0.86031 z"
       id="path8240"
       inkscape:connector-curvature="0" />
    <rect
       style="fill:#deaa87;fill-opacity:1;stroke:none;stroke-width:0.5;stroke-linecap:butt;stroke-linejoin:round;stroke-miterlimit:4;stroke-dasharray:none;stroke-dashoffset:0"
       id="rect8246"
       width="51.527603"
       height="1.7859404"
       x="59.236"
       y="292.58215" />
    <path
       style="fill:none;stroke:#000000;stroke-width:1;stroke-linecap:butt;stroke-linejoin:miter;stroke-miterlimit:4;stroke-dasharray:none;stroke-opacity:1"
       d="m 72.70887,292.51803 9.84554,-9.84556"
       id="path8248"
       inkscape:connector-curvature="0" />
    <path
       inkscape:connector-curvature="0"
       id="path8250"
       d="m 96.6796,292.51803 -9.84554,-15.6664"
       style="fill:none;stroke:#000000;stroke-width:1;stroke-linecap:butt;stroke-linejoin:miter;stroke-miterlimit:4;stroke-dasharray:none;stroke-opacity:1"
       sodipodi:nodetypes="cc" />
    <g
       aria-label="45 cm"
       transform="matrix(0.26458333,0,0,0.26458378,62.24667,283.83984)"
       style="font-style:normal;font-weight:normal;font-size:13.33333397px;line-height:1.25;font-family:sans-serif;letter-spacing:0px;word-spacing:0px;fill:#000000;fill-opacity:1;stroke:none"
       id="flowRoot8258">
      <path
         d="m 45.151693,47.42141 h -1.41276 v 2.1875 h -1.035157 v -2.1875 H 38.07487 v -0.944011 l 4.518229,-6.438802 h 1.145834 v 6.39974 h 1.41276 z m -2.447917,-0.983073 v -3.164063 q 0,-0.93099 0.0651,-2.102865 h -0.05208 q -0.3125,0.625 -0.585937,1.035157 l -2.975261,4.231771 z"
         style="font-style:normal;font-variant:normal;font-weight:normal;font-stretch:normal;font-size:13.33333397px;font-family:'Open Sans';-inkscape-font-specification:'Open Sans'"
         id="path307" />
      <path
         d="m 49.044922,43.795107 q 1.503907,0 2.363282,0.748698 0.865885,0.742188 0.865885,2.037761 0,1.477865 -0.94401,2.317708 -0.9375,0.839844 -2.591146,0.839844 -1.608073,0 -2.454427,-0.514323 v -1.041667 q 0.455729,0.292969 1.132812,0.46224 0.677083,0.162761 1.334636,0.162761 1.145833,0 1.777343,-0.540365 0.638021,-0.540365 0.638021,-1.5625 0,-1.992188 -2.441406,-1.992188 -0.61849,0 -1.653646,0.188802 L 46.51237,44.543805 46.870443,40.09068 h 4.733073 v 0.996094 h -3.808594 l -0.240885,2.858073 q 0.748698,-0.14974 1.490885,-0.14974 z"
         style="font-style:normal;font-variant:normal;font-weight:normal;font-stretch:normal;font-size:13.33333397px;font-family:'Open Sans';-inkscape-font-specification:'Open Sans'"
         id="path309" />
      <path
         d="m 60.503255,49.739118 q -1.549479,0 -2.402343,-0.950521 -0.846355,-0.957031 -0.846355,-2.701823 0,-1.790364 0.859375,-2.766927 0.865886,-0.976563 2.460938,-0.976563 0.514323,0 1.028646,0.110678 0.514323,0.110677 0.807292,0.260416 l -0.332032,0.917969 q -0.358073,-0.143229 -0.78125,-0.234375 -0.423177,-0.09766 -0.748698,-0.09766 -2.174479,0 -2.174479,2.773437 0,1.315105 0.527344,2.01823 0.533854,0.703125 1.575521,0.703125 0.891927,0 1.829427,-0.384115 v 0.957031 q -0.716146,0.371094 -1.803386,0.371094 z"
         style="font-style:normal;font-variant:normal;font-weight:normal;font-stretch:normal;font-size:13.33333397px;font-family:'Open Sans';-inkscape-font-specification:'Open Sans'"
         id="path311" />
      <path
         d="m 73.094403,49.60891 v -4.641927 q 0,-0.852865 -0.364583,-1.276042 -0.364583,-0.429688 -1.132812,-0.429688 -1.009115,0 -1.490886,0.579427 -0.481771,0.579427 -0.481771,1.783855 v 3.984375 h -1.080729 v -4.641927 q 0,-0.852865 -0.364583,-1.276042 -0.364584,-0.429688 -1.139323,-0.429688 -1.015625,0 -1.490886,0.611979 -0.46875,0.605469 -0.46875,1.992188 v 3.74349 h -1.080729 v -7.135417 h 0.878906 l 0.175781,0.976562 h 0.05208 q 0.305989,-0.520833 0.859375,-0.813802 0.559896,-0.292969 1.25,-0.292969 1.673177,0 2.1875,1.210938 h 0.05208 q 0.319011,-0.559896 0.92448,-0.885417 0.605468,-0.325521 1.380208,-0.325521 1.210938,0 1.809896,0.625 0.605469,0.61849 0.605469,1.985678 v 4.654948 z"
         style="font-style:normal;font-variant:normal;font-weight:normal;font-stretch:normal;font-size:13.33333397px;font-family:'Open Sans';-inkscape-font-specification:'Open Sans'"
         id="path313" />
    </g>
    <g
       aria-label="60 cm"
       transform="matrix(0.26458333,0,0,0.26458378,76.53417,283.83984)"
       style="font-style:normal;font-weight:normal;font-size:13.33333397px;line-height:1.25;font-family:sans-serif;letter-spacing:0px;word-spacing:0px;fill:#000000;fill-opacity:1;stroke:none"
       id="flowRoot8266">
      <path
         d="m 38.556641,45.539899 q 0,-2.80599 1.087239,-4.192708 1.09375,-1.39323 3.229167,-1.39323 0.735677,0 1.158854,0.123698 v 0.93099 q -0.501302,-0.16276 -1.145833,-0.16276 -1.529948,0 -2.33724,0.957031 -0.807291,0.950521 -0.885416,2.994792 h 0.07813 q 0.716145,-1.119792 2.265625,-1.119792 1.282552,0 2.018229,0.77474 0.742187,0.774739 0.742187,2.102864 0,1.484375 -0.813802,2.33724 -0.807291,0.846354 -2.1875,0.846354 -1.477864,0 -2.34375,-1.106771 -0.865885,-1.113281 -0.865885,-3.092448 z m 3.196614,3.28125 q 0.92448,0 1.432292,-0.579427 0.514323,-0.585937 0.514323,-1.686198 0,-0.94401 -0.47526,-1.484375 -0.475261,-0.540364 -1.419271,-0.540364 -0.585938,0 -1.074219,0.240885 -0.488281,0.240885 -0.78125,0.664063 -0.286458,0.423177 -0.286458,0.878906 0,0.670573 0.260416,1.25 0.260417,0.579427 0.735677,0.917969 0.481771,0.338541 1.09375,0.338541 z"
         style="font-style:normal;font-variant:normal;font-weight:normal;font-stretch:normal;font-size:13.33333397px;font-family:'Open Sans';-inkscape-font-specification:'Open Sans'"
         id="path298" />
      <path
         d="m 52.378256,44.836774 q 0,2.467448 -0.78125,3.684896 -0.77474,1.217448 -2.376302,1.217448 -1.536459,0 -2.33724,-1.243489 -0.800781,-1.250001 -0.800781,-3.658855 0,-2.486979 0.774739,-3.691406 0.77474,-1.204427 2.363282,-1.204427 1.549479,0 2.35026,1.25651 0.807292,1.256511 0.807292,3.639323 z m -5.201823,0 q 0,2.076823 0.488281,3.027344 0.488281,0.944011 1.55599,0.944011 1.080729,0 1.5625,-0.957032 0.488281,-0.963541 0.488281,-3.014323 0,-2.050781 -0.488281,-3.001302 -0.481771,-0.957031 -1.5625,-0.957031 -1.067709,0 -1.55599,0.94401 -0.488281,0.9375 -0.488281,3.014323 z"
         style="font-style:normal;font-variant:normal;font-weight:normal;font-stretch:normal;font-size:13.33333397px;font-family:'Open Sans';-inkscape-font-specification:'Open Sans'"
         id="path300" />
      <path
         d="m 60.503255,49.739118 q -1.549479,0 -2.402343,-0.950521 -0.846355,-0.957031 -0.846355,-2.701823 0,-1.790364 0.859375,-2.766927 0.865886,-0.976563 2.460938,-0.976563 0.514323,0 1.028646,0.110678 0.514323,0.110677 0.807292,0.260416 l -0.332032,0.917969 q -0.358073,-0.143229 -0.78125,-0.234375 -0.423177,-0.09766 -0.748698,-0.09766 -2.174479,0 -2.174479,2.773437 0,1.315105 0.527344,2.01823 0.533854,0.703125 1.575521,0.703125 0.891927,0 1.829427,-0.384115 v 0.957031 q -0.716146,0.371094 -1.803386,0.371094 z"
         style="font-style:normal;font-variant:normal;font-weight:normal;font-stretch:normal;font-size:13.33333397px;font-family:'Open Sans';-inkscape-font-specification:'Open Sans'"
         id="path302" />
      <path
         d="m 73.094403,49.60891 v -4.641927 q 0,-0.852865 -0.364583,-1.276042 -0.364583,-0.429688 -1.132812,-0.429688 -1.009115,0 -1.490886,0.579427 -0.481771,0.579427 -0.481771,1.783855 v 3.984375 h -1.080729 v -4.641927 q 0,-0.852865 -0.364583,-1.276042 -0.364584,-0.429688 -1.139323,-0.429688 -1.015625,0 -1.490886,0.611979 -0.46875,0.605469 -0.46875,1.992188 v 3.74349 h -1.080729 v -7.135417 h 0.878906 l 0.175781,0.976562 h 0.05208 q 0.305989,-0.520833 0.859375,-0.813802 0.559896,-0.292969 1.25,-0.292969 1.673177,0 2.1875,1.210938 h 0.05208 q 0.319011,-0.559896 0.92448,-0.885417 0.605468,-0.325521 1.380208,-0.325521 1.210938,0 1.809896,0.625 0.605469,0.61849 0.605469,1.985678 v 4.654948 z"
         style="font-style:normal;font-variant:normal;font-weight:normal;font-stretch:normal;font-size:13.33333397px;font-family:'Open Sans';-inkscape-font-specification:'Open Sans'"
         id="path304" />
    </g>
    <g
       aria-label="20 cm"
       transform="matrix(0.26458333,0,0,0.26458378,60.16486,266.7955)"
       style="font-style:normal;font-weight:normal;font-size:13.33333397px;line-height:1.25;font-family:sans-serif;letter-spacing:0px;word-spacing:0px;fill:#000000;fill-opacity:1;stroke:none"
       id="flowRoot8274">
      <path
         d="m 44.702474,49.60891 h -6.25651 v -0.93099 l 2.50651,-2.519531 q 1.145833,-1.158854 1.510417,-1.653646 0.364583,-0.494792 0.546875,-0.963542 0.182292,-0.46875 0.182292,-1.009114 0,-0.761719 -0.46224,-1.204428 -0.46224,-0.449218 -1.282552,-0.449218 -0.592448,0 -1.126302,0.195312 -0.527344,0.195313 -1.178386,0.709636 l -0.572917,-0.735678 q 1.315105,-1.09375 2.864584,-1.09375 1.341146,0 2.102865,0.690105 0.761718,0.683593 0.761718,1.842448 0,0.904948 -0.507812,1.790364 -0.507813,0.885417 -1.901042,2.239584 l -2.083333,2.03776 v 0.05208 h 4.895833 z"
         style="font-style:normal;font-variant:normal;font-weight:normal;font-stretch:normal;font-size:13.33333397px;font-family:'Open Sans';-inkscape-font-specification:'Open Sans'"
         id="path289" />
      <path
         d="m 52.378256,44.836774 q 0,2.467448 -0.78125,3.684896 -0.77474,1.217448 -2.376302,1.217448 -1.536459,0 -2.33724,-1.243489 -0.800781,-1.250001 -0.800781,-3.658855 0,-2.486979 0.774739,-3.691406 0.77474,-1.204427 2.363282,-1.204427 1.549479,0 2.35026,1.25651 0.807292,1.256511 0.807292,3.639323 z m -5.201823,0 q 0,2.076823 0.488281,3.027344 0.488281,0.944011 1.55599,0.944011 1.080729,0 1.5625,-0.957032 0.488281,-0.963541 0.488281,-3.014323 0,-2.050781 -0.488281,-3.001302 -0.481771,-0.957031 -1.5625,-0.957031 -1.067709,0 -1.55599,0.94401 -0.488281,0.9375 -0.488281,3.014323 z"
         style="font-style:normal;font-variant:normal;font-weight:normal;font-stretch:normal;font-size:13.33333397px;font-family:'Open Sans';-inkscape-font-specification:'Open Sans'"
         id="path291" />
      <path
         d="m 60.503255,49.739118 q -1.549479,0 -2.402343,-0.950521 -0.846355,-0.957031 -0.846355,-2.701823 0,-1.790364 0.859375,-2.766927 0.865886,-0.976563 2.460938,-0.976563 0.514323,0 1.028646,0.110678 0.514323,0.110677 0.807292,0.260416 l -0.332032,0.917969 q -0.358073,-0.143229 -0.78125,-0.234375 -0.423177,-0.09766 -0.748698,-0.09766 -2.174479,0 -2.174479,2.773437 0,1.315105 0.527344,2.01823 0.533854,0.703125 1.575521,0.703125 0.891927,0 1.829427,-0.384115 v 0.957031 q -0.716146,0.371094 -1.803386,0.371094 z"
         style="font-style:normal;font-variant:normal;font-weight:normal;font-stretch:normal;font-size:13.33333397px;font-family:'Open Sans';-inkscape-font-specification:'Open Sans'"
         id="path293" />
      <path
         d="m 73.094403,49.60891 v -4.641927 q 0,-0.852865 -0.364583,-1.276042 -0.364583,-0.429688 -1.132812,-0.429688 -1.009115,0 -1.490886,0.579427 -0.481771,0.579427 -0.481771,1.783855 v 3.984375 h -1.080729 v -4.641927 q 0,-0.852865 -0.364583,-1.276042 -0.364584,-0.429688 -1.139323,-0.429688 -1.015625,0 -1.490886,0.611979 -0.46875,0.605469 -0.46875,1.992188 v 3.74349 h -1.080729 v -7.135417 h 0.878906 l 0.175781,0.976562 h 0.05208 q 0.305989,-0.520833 0.859375,-0.813802 0.559896,-0.292969 1.25,-0.292969 1.673177,0 2.1875,1.210938 h 0.05208 q 0.319011,-0.559896 0.92448,-0.885417 0.605468,-0.325521 1.380208,-0.325521 1.210938,0 1.809896,0.625 0.605469,0.61849 0.605469,1.985678 v 4.654948 z"
         style="font-style:normal;font-variant:normal;font-weight:normal;font-stretch:normal;font-size:13.33333397px;font-family:'Open Sans';-inkscape-font-specification:'Open Sans'"
         id="path295" />
    </g>
    <path
       style="fill:none;stroke:#000000;stroke-width:0.26458332px;stroke-linecap:butt;stroke-linejoin:round;stroke-opacity:1"
       d="m 82.46331,276.60331 c 0,0 -0.84914,0.36405 -1.03538,0.84795 -0.18624,0.4839 0.50277,1.24804 0.29381,1.58916 -0.20896,0.34112 -0.62454,0.36214 -0.62454,0.36214 0,0 0.28674,0.0654 0.49254,0.45188 0.2058,0.38647 -0.51608,1.40819 -0.29818,1.88258 0.2179,0.47439 0.8419,0.56128 0.8419,0.56128"
       id="path8278"
       inkscape:connector-curvature="0"
       sodipodi:nodetypes="czzczzc" />
  </g>
</svg>
