<?xml version="1.0" encoding="UTF-8" standalone="no"?>
<svg
   xmlns:dc="http://purl.org/dc/elements/1.1/"
   xmlns:cc="http://creativecommons.org/ns#"
   xmlns:rdf="http://www.w3.org/1999/02/22-rdf-syntax-ns#"
   xmlns:svg="http://www.w3.org/2000/svg"
   xmlns="http://www.w3.org/2000/svg"
   xmlns:sodipodi="http://sodipodi.sourceforge.net/DTD/sodipodi-0.dtd"
   xmlns:inkscape="http://www.inkscape.org/namespaces/inkscape"
   sodipodi:docname="egim_29.svg"
   inkscape:version="0.92.5 (2060ec1f9f, 2020-04-08)"
   id="svg8"
   version="1.1"
   viewBox="0 0 170 22.320999"
   height="22.320999mm"
   width="170mm">
  <defs
     id="defs2" />
  <sodipodi:namedview
     inkscape:document-rotation="0"
     inkscape:snap-global="true"
     inkscape:window-maximized="1"
     inkscape:window-y="25"
     inkscape:window-x="0"
     inkscape:window-height="1031"
     inkscape:window-width="1920"
     showgrid="false"
     inkscape:current-layer="layer1"
     inkscape:document-units="mm"
     inkscape:cy="89.703498"
     inkscape:cx="456.90922"
     inkscape:zoom="2.8284271"
     inkscape:pageshadow="2"
     inkscape:pageopacity="0.0"
     borderopacity="1.0"
     bordercolor="#666666"
     pagecolor="#ffffff"
     id="base"
     inkscape:pagecheckerboard="0" />
  <metadata
     id="metadata5">
    <rdf:RDF>
      <cc:Work
         rdf:about="">
        <dc:format>image/svg+xml</dc:format>
        <dc:type
           rdf:resource="http://purl.org/dc/dcmitype/StillImage" />
        <dc:title></dc:title>
      </cc:Work>
    </rdf:RDF>
  </metadata>
  <g
     id="layer1"
     inkscape:groupmode="layer"
     inkscape:label="Layer 1"
     transform="translate(0,-274.679)">
    <g
       id="g8055"
       transform="matrix(1.0000068,0,0,1.0000071,-56.252916,42.532223)">
      <path
         inkscape:connector-curvature="0"
         id="path1185"
         d="m 110.29761,254.21597 h 30.88324 v -21.64882 z"
         style="fill:#afdde9;fill-opacity:1;stroke:#000000;stroke-width:0.5;stroke-linecap:round;stroke-linejoin:round;stroke-miterlimit:4;stroke-dasharray:none;stroke-opacity:1" />
      <path
         inkscape:connector-curvature="0"
         id="path1187"
         d="m 141.18085,232.56715 v 21.64882 h 31.02539 v -21.82084 z"
         style="fill:#ffaaaa;fill-opacity:1;stroke:#000000;stroke-width:0.5;stroke-linecap:round;stroke-linejoin:round;stroke-miterlimit:4;stroke-dasharray:none;stroke-opacity:1" />
      <g
         aria-label="Rampa"
         transform="matrix(0.209765,-0.16125441,0.16125441,0.209765,-130.78426,77.916169)"
         style="font-style:normal;font-weight:normal;font-size:14.66670036px;line-height:1.25;font-family:sans-serif;letter-spacing:0px;word-spacing:0px;fill:#000000;fill-opacity:1;stroke:none"
         id="flowRoot1197">
        <path
           d="m 369.55794,1098.6804 v 3.9583 h -1.10677 v -9.5182 h 2.61067 q 1.7513,0 2.58463,0.6706 0.83984,0.6705 0.83984,2.0182 0,1.888 -1.91406,2.5521 l 2.58463,4.2773 h -1.30859 l -2.30468,-3.9583 z m 0,-0.9505 h 1.51692 q 1.17187,0 1.71875,-0.4623 0.54687,-0.4687 0.54687,-1.3997 0,-0.944 -0.5599,-1.3607 -0.55338,-0.4167 -1.78384,-0.4167 h -1.4388 z"
           style="font-style:normal;font-variant:normal;font-weight:normal;font-stretch:normal;font-size:13.33329964px;line-height:1.25;font-family:'Open Sans';-inkscape-font-specification:'Open Sans';fill:#000000;fill-opacity:1"
           id="path327" />
        <path
           d="m 380.91858,1102.6387 -0.21484,-1.0156 h -0.0521 q -0.53385,0.6706 -1.06771,0.9114 -0.52734,0.2344 -1.32161,0.2344 -1.06119,0 -1.66666,-0.5469 -0.59896,-0.5468 -0.59896,-1.5559 0,-2.1615 3.45702,-2.2657 l 1.21094,-0.039 v -0.4427 q 0,-0.8399 -0.36458,-1.237 -0.35808,-0.4037 -1.15234,-0.4037 -0.89193,0 -2.01823,0.5469 l -0.33203,-0.8268 q 0.52734,-0.2865 1.15234,-0.4492 0.63151,-0.1628 1.26302,-0.1628 1.27604,0 1.88802,0.5664 0.61848,0.5664 0.61848,1.8164 v 4.8698 z m -2.4414,-0.7617 q 1.00912,0 1.58203,-0.5534 0.57943,-0.5534 0.57943,-1.5495 v -0.6445 l -1.08073,0.046 q -1.28906,0.046 -1.86197,0.4036 -0.56641,0.3516 -0.56641,1.1003 0,0.5859 0.35156,0.8919 0.35808,0.306 0.99609,0.306 z"
           style="font-style:normal;font-variant:normal;font-weight:normal;font-stretch:normal;font-size:13.33329964px;line-height:1.25;font-family:'Open Sans';-inkscape-font-specification:'Open Sans';fill:#000000;fill-opacity:1"
           id="path329" />
        <path
           d="m 393.04095,1102.6387 v -4.6419 q 0,-0.8529 -0.36458,-1.2761 -0.36458,-0.4296 -1.13281,-0.4296 -1.00911,0 -1.49088,0.5794 -0.48177,0.5794 -0.48177,1.7838 v 3.9844 h -1.08073 v -4.6419 q 0,-0.8529 -0.36458,-1.2761 -0.36458,-0.4296 -1.13932,-0.4296 -1.01562,0 -1.49088,0.6119 -0.46875,0.6055 -0.46875,1.9922 v 3.7435 h -1.08073 v -7.1354 h 0.87891 l 0.17578,0.9766 h 0.0521 q 0.30599,-0.5209 0.85937,-0.8138 0.5599,-0.293 1.25,-0.293 1.67317,0 2.18749,1.2109 h 0.0521 q 0.31901,-0.5599 0.92447,-0.8854 0.60547,-0.3255 1.38021,-0.3255 1.21093,0 1.80989,0.625 0.60547,0.6185 0.60547,1.9857 v 4.6549 z"
           style="font-style:normal;font-variant:normal;font-weight:normal;font-stretch:normal;font-size:13.33329964px;line-height:1.25;font-family:'Open Sans';-inkscape-font-specification:'Open Sans';fill:#000000;fill-opacity:1"
           id="path331" />
        <path
           d="m 399.66854,1102.7689 q -0.69662,0 -1.27604,-0.2539 -0.57292,-0.2604 -0.96354,-0.7943 h -0.0781 q 0.0781,0.625 0.0781,1.1849 v 2.9362 h -1.08073 v -10.3385 h 0.87891 l 0.14974,0.9766 h 0.0521 q 0.41666,-0.586 0.97005,-0.8464 0.55338,-0.2604 1.26953,-0.2604 1.41926,0 2.18749,0.97 0.77474,0.9701 0.77474,2.7214 0,1.7578 -0.78776,2.7344 -0.78125,0.97 -2.17447,0.97 z m -0.15625,-6.4778 q -1.09375,0 -1.58203,0.6054 -0.48828,0.6055 -0.5013,1.9271 v 0.2409 q 0,1.5039 0.5013,2.1549 0.5013,0.6446 1.60807,0.6446 0.92448,0 1.44531,-0.7487 0.52734,-0.7487 0.52734,-2.0638 0,-1.3347 -0.52734,-2.0443 -0.52083,-0.7161 -1.47135,-0.7161 z"
           style="font-style:normal;font-variant:normal;font-weight:normal;font-stretch:normal;font-size:13.33329964px;line-height:1.25;font-family:'Open Sans';-inkscape-font-specification:'Open Sans';fill:#000000;fill-opacity:1"
           id="path333" />
        <path
           d="m 408.9068,1102.6387 -0.21485,-1.0156 h -0.0521 q -0.53385,0.6706 -1.06771,0.9114 -0.52734,0.2344 -1.32161,0.2344 -1.06119,0 -1.66666,-0.5469 -0.59896,-0.5468 -0.59896,-1.5559 0,-2.1615 3.45703,-2.2657 l 1.21093,-0.039 v -0.4427 q 0,-0.8399 -0.36458,-1.237 -0.35807,-0.4037 -1.15234,-0.4037 -0.89193,0 -2.01823,0.5469 l -0.33203,-0.8268 q 0.52734,-0.2865 1.15234,-0.4492 0.63151,-0.1628 1.26302,-0.1628 1.27604,0 1.88802,0.5664 0.61848,0.5664 0.61848,1.8164 v 4.8698 z m -2.4414,-0.7617 q 1.00911,0 1.58202,-0.5534 0.57943,-0.5534 0.57943,-1.5495 v -0.6445 l -1.08073,0.046 q -1.28906,0.046 -1.86197,0.4036 -0.56641,0.3516 -0.56641,1.1003 0,0.5859 0.35156,0.8919 0.35808,0.306 0.9961,0.306 z"
           style="font-style:normal;font-variant:normal;font-weight:normal;font-stretch:normal;font-size:13.33329964px;line-height:1.25;font-family:'Open Sans';-inkscape-font-specification:'Open Sans';fill:#000000;fill-opacity:1"
           id="path335" />
      </g>
      <g
         aria-label="Platform"
         transform="matrix(0.26458333,0,0,0.26458333,52.476271,-46.897128)"
         style="font-style:normal;font-weight:normal;font-size:14.66670036px;line-height:1.25;font-family:sans-serif;letter-spacing:0px;word-spacing:0px;fill:#000000;fill-opacity:1;stroke:none"
         id="flowRoot1208">
        <path
           d="m 374.48631,1095.8939 q 0,1.4453 -0.98958,2.2266 -0.98307,0.7747 -2.819,0.7747 h -1.11979 v 3.7435 h -1.10677 v -9.5182 h 2.46744 q 3.5677,0 3.5677,2.7734 z m -4.92837,2.0508 h 0.99609 q 1.47135,0 2.1289,-0.4753 0.65755,-0.4752 0.65755,-1.5234 0,-0.944 -0.61849,-1.4062 -0.61849,-0.4623 -1.92708,-0.4623 h -1.23697 z"
           style="font-style:normal;font-variant:normal;font-weight:normal;font-stretch:normal;font-size:13.33329964px;line-height:1.25;font-family:'Open Sans';-inkscape-font-specification:'Open Sans';fill:#000000;fill-opacity:1"
           id="path310" />
        <path
           d="m 377.39646,1102.6387 h -1.08073 v -10.1302 h 1.08073 z"
           style="font-style:normal;font-variant:normal;font-weight:normal;font-stretch:normal;font-size:13.33329964px;line-height:1.25;font-family:'Open Sans';-inkscape-font-specification:'Open Sans';fill:#000000;fill-opacity:1"
           id="path312" />
        <path
           d="m 384.07613,1102.6387 -0.21484,-1.0156 h -0.0521 q -0.53385,0.6706 -1.0677,0.9114 -0.52734,0.2344 -1.32161,0.2344 -1.0612,0 -1.66667,-0.5469 -0.59895,-0.5468 -0.59895,-1.5559 0,-2.1615 3.45702,-2.2657 l 1.21093,-0.039 v -0.4427 q 0,-0.8399 -0.36458,-1.237 -0.35807,-0.4037 -1.15234,-0.4037 -0.89192,0 -2.01822,0.5469 l -0.33203,-0.8268 q 0.52734,-0.2865 1.15234,-0.4492 0.63151,-0.1628 1.26302,-0.1628 1.27603,0 1.88801,0.5664 0.61849,0.5664 0.61849,1.8164 v 4.8698 z m -2.4414,-0.7617 q 1.00911,0 1.58203,-0.5534 0.57942,-0.5534 0.57942,-1.5495 v -0.6445 l -1.08072,0.046 q -1.28906,0.046 -1.86198,0.4036 -0.5664,0.3516 -0.5664,1.1003 0,0.5859 0.35156,0.8919 0.35807,0.306 0.99609,0.306 z"
           style="font-style:normal;font-variant:normal;font-weight:normal;font-stretch:normal;font-size:13.33329964px;line-height:1.25;font-family:'Open Sans';-inkscape-font-specification:'Open Sans';fill:#000000;fill-opacity:1"
           id="path314" />
        <path
           d="m 389.40815,1101.877 q 0.28645,0 0.55338,-0.039 0.26693,-0.046 0.42318,-0.091 v 0.8268 q -0.17578,0.085 -0.52084,0.1367 -0.33854,0.059 -0.61197,0.059 -2.07031,0 -2.07031,-2.181 v -4.2448 h -1.02213 v -0.5208 l 1.02213,-0.4492 0.45573,-1.5234 h 0.625 v 1.6536 h 2.0703 v 0.8398 h -2.0703 v 4.1993 q 0,0.6445 0.30598,0.9895 0.30599,0.3451 0.83985,0.3451 z"
           style="font-style:normal;font-variant:normal;font-weight:normal;font-stretch:normal;font-size:13.33329964px;line-height:1.25;font-family:'Open Sans';-inkscape-font-specification:'Open Sans';fill:#000000;fill-opacity:1"
           id="path316" />
        <path
           d="m 395.02662,1096.3431 h -1.8164 v 6.2956 h -1.08073 v -6.2956 h -1.27603 v -0.4882 l 1.27603,-0.3907 v -0.3971 q 0,-2.6302 2.29818,-2.6302 0.5664,0 1.32812,0.2279 l -0.27995,0.8659 q -0.625,-0.2019 -1.06771,-0.2019 -0.61197,0 -0.90494,0.4102 -0.29297,0.4036 -0.29297,1.3021 v 0.4622 h 1.8164 z"
           style="font-style:normal;font-variant:normal;font-weight:normal;font-stretch:normal;font-size:13.33329964px;line-height:1.25;font-family:'Open Sans';-inkscape-font-specification:'Open Sans';fill:#000000;fill-opacity:1"
           id="path318" />
        <path
           d="m 402.48754,1099.0645 q 0,1.7448 -0.8789,2.7278 -0.87891,0.9766 -2.42838,0.9766 -0.95703,0 -1.69922,-0.4492 -0.74218,-0.4492 -1.14583,-1.2891 -0.40364,-0.8398 -0.40364,-1.9661 0,-1.7448 0.87239,-2.7148 0.8724,-0.9766 2.42187,-0.9766 1.49739,0 2.3763,0.9961 0.88541,0.9961 0.88541,2.6953 z m -5.43618,0 q 0,1.3672 0.54687,2.0833 0.54687,0.7162 1.60807,0.7162 1.0612,0 1.60807,-0.7097 0.55338,-0.7161 0.55338,-2.0898 0,-1.3607 -0.55338,-2.0638 -0.54687,-0.7096 -1.62109,-0.7096 -1.0612,0 -1.60156,0.6966 -0.54036,0.6966 -0.54036,2.0768 z"
           style="font-style:normal;font-variant:normal;font-weight:normal;font-stretch:normal;font-size:13.33329964px;line-height:1.25;font-family:'Open Sans';-inkscape-font-specification:'Open Sans';fill:#000000;fill-opacity:1"
           id="path320" />
        <path
           d="m 407.63727,1095.3731 q 0.47526,0 0.85286,0.078 l -0.14974,1.0026 q -0.44271,-0.098 -0.78125,-0.098 -0.86588,0 -1.48437,0.7031 -0.61198,0.7031 -0.61198,1.7513 v 3.8281 h -1.08072 v -7.1354 h 0.89192 l 0.1237,1.3216 h 0.0521 q 0.39714,-0.6966 0.95703,-1.0742 0.5599,-0.3776 1.23047,-0.3776 z"
           style="font-style:normal;font-variant:normal;font-weight:normal;font-stretch:normal;font-size:13.33329964px;line-height:1.25;font-family:'Open Sans';-inkscape-font-specification:'Open Sans';fill:#000000;fill-opacity:1"
           id="path322" />
        <path
           d="m 418.91979,1102.6387 v -4.6419 q 0,-0.8529 -0.36458,-1.2761 -0.36458,-0.4296 -1.13281,-0.4296 -1.00911,0 -1.49088,0.5794 -0.48177,0.5794 -0.48177,1.7838 v 3.9844 h -1.08073 v -4.6419 q 0,-0.8529 -0.36458,-1.2761 -0.36458,-0.4296 -1.13932,-0.4296 -1.01562,0 -1.49088,0.6119 -0.46875,0.6055 -0.46875,1.9922 v 3.7435 h -1.08073 v -7.1354 h 0.87891 l 0.17578,0.9766 h 0.0521 q 0.30599,-0.5209 0.85937,-0.8138 0.5599,-0.293 1.25,-0.293 1.67317,0 2.18749,1.2109 h 0.0521 q 0.31901,-0.5599 0.92447,-0.8854 0.60547,-0.3255 1.38021,-0.3255 1.21093,0 1.80989,0.625 0.60547,0.6185 0.60547,1.9857 v 4.6549 z"
           style="font-style:normal;font-variant:normal;font-weight:normal;font-stretch:normal;font-size:13.33329964px;line-height:1.25;font-family:'Open Sans';-inkscape-font-specification:'Open Sans';fill:#000000;fill-opacity:1"
           id="path324" />
      </g>
    </g>
  </g>
</svg>
