<?xml version="1.0" encoding="UTF-8" standalone="no"?>
<svg
   xmlns:dc="http://purl.org/dc/elements/1.1/"
   xmlns:cc="http://creativecommons.org/ns#"
   xmlns:rdf="http://www.w3.org/1999/02/22-rdf-syntax-ns#"
   xmlns:svg="http://www.w3.org/2000/svg"
   xmlns="http://www.w3.org/2000/svg"
   xmlns:sodipodi="http://sodipodi.sourceforge.net/DTD/sodipodi-0.dtd"
   xmlns:inkscape="http://www.inkscape.org/namespaces/inkscape"
   sodipodi:docname="egim_24.svg"
   inkscape:version="0.92.5 (2060ec1f9f, 2020-04-08)"
   id="svg8"
   version="1.1"
   viewBox="0 0 170 78.030998"
   height="78.030998mm"
   width="170mm">
  <defs
     id="defs2" />
  <sodipodi:namedview
     inkscape:document-rotation="0"
     inkscape:snap-global="true"
     inkscape:window-maximized="1"
     inkscape:window-y="25"
     inkscape:window-x="0"
     inkscape:window-height="1031"
     inkscape:window-width="1920"
     showgrid="false"
     inkscape:current-layer="layer1"
     inkscape:document-units="mm"
     inkscape:cy="275.46539"
     inkscape:cx="727.17351"
     inkscape:zoom="1"
     inkscape:pageshadow="2"
     inkscape:pageopacity="0.0"
     borderopacity="1.0"
     bordercolor="#666666"
     pagecolor="#ffffff"
     id="base"
     inkscape:pagecheckerboard="0" />
  <metadata
     id="metadata5">
    <rdf:RDF>
      <cc:Work
         rdf:about="">
        <dc:format>image/svg+xml</dc:format>
        <dc:type
           rdf:resource="http://purl.org/dc/dcmitype/StillImage" />
        <dc:title></dc:title>
      </cc:Work>
    </rdf:RDF>
  </metadata>
  <g
     id="layer1"
     inkscape:groupmode="layer"
     inkscape:label="Layer 1"
     transform="translate(0,-218.969)">
    <g
       id="g1198"
       transform="matrix(1.000004,0,0,0.99999715,32.09199,187.69382)">
      <path
         sodipodi:nodetypes="ccc"
         inkscape:connector-curvature="0"
         id="path6861"
         d="m 22.453889,109.05649 h 73.30874 l 0.0025,-43.10124 z"
         style="fill:#deaa87;fill-opacity:1;stroke:#000000;stroke-width:0.5;stroke-linecap:butt;stroke-linejoin:bevel;stroke-miterlimit:4;stroke-dasharray:none;stroke-opacity:1" />
      <path
         sodipodi:nodetypes="ccccccccccccccccc"
         inkscape:connector-curvature="0"
         id="path5844"
         d="M 77.437095,65.955251 V 76.730304 L 95.765176,65.955251 Z m 0,10.775053 H 59.109532 V 87.505873 Z M 59.109532,87.505873 H 40.781453 v 10.775572 l 2.94803,-1.73323 z M 40.781453,98.281445 H 22.45389 V 109.0565 Z"
         style="fill:#deaa87;stroke:#000000;stroke-width:0.5;stroke-linecap:butt;stroke-linejoin:bevel;stroke-miterlimit:4;stroke-dasharray:none;stroke-opacity:1" />
      <g
         transform="translate(-4.4684989,-8.570949)"
         id="g6703"
         style="fill:#e6e6e6">
        <path
           style="fill:#e6e6e6;stroke:#000000;stroke-width:0.5;stroke-linecap:butt;stroke-linejoin:miter;stroke-miterlimit:4;stroke-dasharray:none;stroke-opacity:1"
           d="m 26.92215,106.85214 0.57422,-3.42015 h 1.243034 l 0.892889,3.3323 z"
           id="path6657"
           inkscape:connector-curvature="0" />
        <path
           style="fill:#e6e6e6;stroke:#000000;stroke-width:0.5;stroke-linecap:butt;stroke-linejoin:miter;stroke-miterlimit:4;stroke-dasharray:none;stroke-opacity:1"
           d="M 28.739404,103.43199 H 27.49637 V 74.312768 l 1.243034,0.138116"
           id="path6659"
           inkscape:connector-curvature="0" />
        <path
           style="fill:#e6e6e6;stroke:#000000;stroke-width:0.5;stroke-linecap:butt;stroke-linejoin:miter;stroke-miterlimit:4;stroke-dasharray:none;stroke-opacity:1"
           d="M 28.739404,103.43199 V 74.450884"
           id="path6661"
           inkscape:connector-curvature="0" />
      </g>
      <g
         transform="translate(13.859303,-19.346267)"
         id="g6711"
         style="fill:#e6e6e6">
        <path
           inkscape:connector-curvature="0"
           id="path6705"
           d="m 26.92215,106.85214 0.57422,-3.42015 h 1.243034 l 0.892889,3.3323 z"
           style="fill:#e6e6e6;stroke:#000000;stroke-width:0.5;stroke-linecap:butt;stroke-linejoin:miter;stroke-miterlimit:4;stroke-dasharray:none;stroke-opacity:1" />
        <path
           inkscape:connector-curvature="0"
           id="path6707"
           d="M 28.739404,103.43199 H 27.49637 V 74.312768 l 1.243034,0.138116"
           style="fill:#e6e6e6;stroke:#000000;stroke-width:0.5;stroke-linecap:butt;stroke-linejoin:miter;stroke-miterlimit:4;stroke-dasharray:none;stroke-opacity:1" />
        <path
           inkscape:connector-curvature="0"
           id="path6709"
           d="M 28.739404,103.43199 V 74.450884"
           style="fill:#e6e6e6;stroke:#000000;stroke-width:0.5;stroke-linecap:butt;stroke-linejoin:miter;stroke-miterlimit:4;stroke-dasharray:none;stroke-opacity:1" />
      </g>
      <g
         id="g6719"
         transform="translate(32.187382,-30.121836)"
         style="fill:#e6e6e6">
        <path
           style="fill:#e6e6e6;stroke:#000000;stroke-width:0.5;stroke-linecap:butt;stroke-linejoin:miter;stroke-miterlimit:4;stroke-dasharray:none;stroke-opacity:1"
           d="m 26.92215,106.85214 0.57422,-3.42015 h 1.243034 l 0.892889,3.3323 z"
           id="path6713"
           inkscape:connector-curvature="0" />
        <path
           style="fill:#e6e6e6;stroke:#000000;stroke-width:0.5;stroke-linecap:butt;stroke-linejoin:miter;stroke-miterlimit:4;stroke-dasharray:none;stroke-opacity:1"
           d="M 28.739404,103.43199 H 27.49637 V 74.312768 l 1.243034,0.138116"
           id="path6715"
           inkscape:connector-curvature="0" />
        <path
           style="fill:#e6e6e6;stroke:#000000;stroke-width:0.5;stroke-linecap:butt;stroke-linejoin:miter;stroke-miterlimit:4;stroke-dasharray:none;stroke-opacity:1"
           d="M 28.739404,103.43199 V 74.450884"
           id="path6717"
           inkscape:connector-curvature="0" />
      </g>
      <g
         transform="translate(50.515191,-40.897061)"
         id="g6727"
         style="fill:#e6e6e6">
        <path
           inkscape:connector-curvature="0"
           id="path6721"
           d="m 26.92215,106.85214 0.57422,-3.42015 h 1.243034 l 0.892889,3.3323 z"
           style="fill:#e6e6e6;stroke:#000000;stroke-width:0.5;stroke-linecap:butt;stroke-linejoin:miter;stroke-miterlimit:4;stroke-dasharray:none;stroke-opacity:1" />
        <path
           inkscape:connector-curvature="0"
           id="path6723"
           d="M 28.739404,103.43199 H 27.49637 V 74.312768 l 1.243034,0.138116"
           style="fill:#e6e6e6;stroke:#000000;stroke-width:0.5;stroke-linecap:butt;stroke-linejoin:miter;stroke-miterlimit:4;stroke-dasharray:none;stroke-opacity:1" />
        <path
           inkscape:connector-curvature="0"
           id="path6725"
           d="M 28.739404,103.43199 V 74.450884"
           style="fill:#e6e6e6;stroke:#000000;stroke-width:0.5;stroke-linecap:butt;stroke-linejoin:miter;stroke-miterlimit:4;stroke-dasharray:none;stroke-opacity:1" />
      </g>
      <path
         sodipodi:nodetypes="ccccc"
         inkscape:connector-curvature="0"
         id="path6694"
         d="M 24.270906,65.879935 79.254595,33.553823 v -1.84554 L 25.083994,62.983694 Z"
         style="fill:#cccccc;fill-opacity:1;stroke:#000000;stroke-width:0.5;stroke-linecap:butt;stroke-linejoin:miter;stroke-miterlimit:4;stroke-dasharray:none;stroke-opacity:1" />
      <ellipse
         ry="2.6817305"
         rx="2.5781446"
         cy="63.40538"
         cx="23.683916"
         id="path6663"
         style="fill:#cccccc;fill-opacity:1;stroke:#000000;stroke-width:0.5;stroke-linecap:round;stroke-linejoin:round;stroke-miterlimit:4;stroke-dasharray:none;stroke-dashoffset:0;stroke-opacity:1" />
      <g
         aria-label="15 cm"
         transform="matrix(0.26458333,0,0,0.26458333,-87.663177,-185.22199)"
         style="font-style:normal;font-weight:normal;font-size:14.66670036px;line-height:0.25;font-family:sans-serif;letter-spacing:0px;word-spacing:0px;fill:#000000;fill-opacity:1;stroke:none"
         id="flowRoot6735">
        <path
           d="m 371.79751,1095.3054 h -1.05468 v -6.7839 q 0,-0.8463 0.0521,-1.6015 -0.13672,0.1367 -0.30599,0.2864 -0.16927,0.1498 -1.54947,1.2695 l -0.57292,-0.7421 2.51953,-1.9467 h 0.91145 z"
           style="font-style:normal;font-variant:normal;font-weight:normal;font-stretch:normal;font-size:13.33329964px;font-family:'Open Sans';-inkscape-font-specification:'Open Sans';fill:#000000;fill-opacity:1"
           id="path319"
           inkscape:connector-curvature="0" />
        <path
           d="m 378.39255,1089.4916 q 1.5039,0 2.36328,0.7487 0.86588,0.7421 0.86588,2.0377 0,1.4779 -0.94401,2.3177 -0.9375,0.8399 -2.59114,0.8399 -1.60807,0 -2.45442,-0.5144 v -1.0416 q 0.45573,0.2929 1.13281,0.4622 0.67708,0.1628 1.33463,0.1628 1.14583,0 1.77734,-0.5404 0.63802,-0.5404 0.63802,-1.5625 0,-1.9922 -2.4414,-1.9922 -0.61849,0 -1.65364,0.1888 l -0.5599,-0.358 0.35808,-4.4532 h 4.73306 v 0.9961 h -3.80859 l -0.24088,2.8581 q 0.74869,-0.1497 1.49088,-0.1497 z"
           style="font-style:normal;font-variant:normal;font-weight:normal;font-stretch:normal;font-size:13.33329964px;font-family:'Open Sans';-inkscape-font-specification:'Open Sans';fill:#000000;fill-opacity:1"
           id="path321"
           inkscape:connector-curvature="0" />
        <path
           d="m 389.85085,1095.4356 q -1.54947,0 -2.40233,-0.9506 -0.84636,-0.957 -0.84636,-2.7018 0,-1.7903 0.85938,-2.7669 0.86588,-0.9766 2.46093,-0.9766 0.51432,0 1.02864,0.1107 0.51432,0.1107 0.80729,0.2604 l -0.33203,0.918 q -0.35807,-0.1432 -0.78125,-0.2344 -0.42317,-0.098 -0.74869,-0.098 -2.17448,0 -2.17448,2.7734 0,1.3151 0.52735,2.0182 0.53385,0.7032 1.57551,0.7032 0.89193,0 1.82942,-0.3842 v 0.9571 q -0.71614,0.3711 -1.80338,0.3711 z"
           style="font-style:normal;font-variant:normal;font-weight:normal;font-stretch:normal;font-size:13.33329964px;font-family:'Open Sans';-inkscape-font-specification:'Open Sans';fill:#000000;fill-opacity:1"
           id="path323"
           inkscape:connector-curvature="0" />
        <path
           d="m 402.44197,1095.3054 v -4.642 q 0,-0.8528 -0.36458,-1.276 -0.36459,-0.4297 -1.13281,-0.4297 -1.00912,0 -1.49089,0.5794 -0.48176,0.5795 -0.48176,1.7839 v 3.9844 h -1.08073 v -4.642 q 0,-0.8528 -0.36458,-1.276 -0.36459,-0.4297 -1.13932,-0.4297 -1.01563,0 -1.49089,0.612 -0.46874,0.6055 -0.46874,1.9922 v 3.7435 h -1.08073 v -7.1354 h 0.8789 l 0.17578,0.9765 h 0.0521 q 0.30599,-0.5208 0.85937,-0.8138 0.55989,-0.293 1.25,-0.293 1.67317,0 2.18749,1.211 h 0.0521 q 0.31901,-0.5599 0.92448,-0.8854 0.60547,-0.3256 1.38021,-0.3256 1.21093,0 1.80989,0.625 0.60546,0.6185 0.60546,1.9857 v 4.655 z"
           style="font-style:normal;font-variant:normal;font-weight:normal;font-stretch:normal;font-size:13.33329964px;font-family:'Open Sans';-inkscape-font-specification:'Open Sans';fill:#000000;fill-opacity:1"
           id="path325"
           inkscape:connector-curvature="0" />
      </g>
      <g
         transform="translate(-3.1794267,3.399008)"
         id="g6754">
        <path
           style="fill:none;stroke:#000000;stroke-width:0.5;stroke-linecap:butt;stroke-linejoin:miter;stroke-miterlimit:4;stroke-dasharray:none;stroke-opacity:1"
           d="M 24.045815,105.65749 V 94.882432"
           id="path6745"
           inkscape:connector-curvature="0" />
        <path
           style="fill:none;stroke:#000000;stroke-width:0.5;stroke-linecap:round;stroke-linejoin:round;stroke-miterlimit:4;stroke-dasharray:none;stroke-opacity:1"
           d="m 23.43057,96.14188 0.615245,-1.259448 0.611453,1.242352"
           id="path6747"
           inkscape:connector-curvature="0"
           sodipodi:nodetypes="ccc" />
        <path
           sodipodi:nodetypes="ccc"
           inkscape:connector-curvature="0"
           id="path6749"
           d="m 23.43057,104.39804 0.615245,1.25945 0.611453,-1.24235"
           style="fill:none;stroke:#000000;stroke-width:0.5;stroke-linecap:round;stroke-linejoin:round;stroke-miterlimit:4;stroke-dasharray:none;stroke-opacity:1" />
      </g>
      <g
         transform="translate(-3.1794267,3.399008)"
         id="g6774">
        <g
           aria-label="20 cm"
           transform="matrix(0.26458333,0,0,0.26458333,-66.861857,-197.30697)"
           style="font-style:normal;font-weight:normal;font-size:14.66670036px;line-height:0.25;font-family:sans-serif;letter-spacing:0px;word-spacing:0px;fill:#000000;fill-opacity:1;stroke:none"
           id="flowRoot6743">
          <path
             d="m 374.05011,1095.3054 h -6.25649 v -0.931 l 2.5065,-2.5196 q 1.14583,-1.1588 1.51042,-1.6536 0.36458,-0.4948 0.54687,-0.9635 0.18229,-0.4688 0.18229,-1.0092 0,-0.7617 -0.46224,-1.2044 -0.46224,-0.4492 -1.28255,-0.4492 -0.59244,0 -1.1263,0.1953 -0.52734,0.1953 -1.17838,0.7097 l -0.57291,-0.7357 q 1.3151,-1.0938 2.86457,-1.0938 1.34114,0 2.10286,0.6901 0.76172,0.6836 0.76172,1.8425 0,0.9049 -0.50781,1.7903 -0.50781,0.8854 -1.90104,2.2396 l -2.08333,2.0378 v 0.052 h 4.89582 z"
             style="font-style:normal;font-variant:normal;font-weight:normal;font-stretch:normal;font-size:13.33329964px;font-family:'Open Sans';-inkscape-font-specification:'Open Sans';fill:#000000;fill-opacity:1"
             id="path310"
             inkscape:connector-curvature="0" />
          <path
             d="m 381.72587,1090.5332 q 0,2.4675 -0.78124,3.6849 -0.77474,1.2175 -2.3763,1.2175 -1.53645,0 -2.33723,-1.2435 -0.80078,-1.25 -0.80078,-3.6589 0,-2.4869 0.77474,-3.6914 0.77473,-1.2044 2.36327,-1.2044 1.54948,0 2.35026,1.2565 0.80728,1.2565 0.80728,3.6393 z m -5.20181,0 q 0,2.0768 0.48828,3.0274 0.48828,0.944 1.55599,0.944 1.08073,0 1.5625,-0.9571 0.48828,-0.9635 0.48828,-3.0143 0,-2.0507 -0.48828,-3.0013 -0.48177,-0.957 -1.5625,-0.957 -1.06771,0 -1.55599,0.944 -0.48828,0.9375 -0.48828,3.0143 z"
             style="font-style:normal;font-variant:normal;font-weight:normal;font-stretch:normal;font-size:13.33329964px;font-family:'Open Sans';-inkscape-font-specification:'Open Sans';fill:#000000;fill-opacity:1"
             id="path312"
             inkscape:connector-curvature="0" />
          <path
             d="m 389.85085,1095.4356 q -1.54947,0 -2.40233,-0.9506 -0.84636,-0.957 -0.84636,-2.7018 0,-1.7903 0.85938,-2.7669 0.86588,-0.9766 2.46093,-0.9766 0.51432,0 1.02864,0.1107 0.51432,0.1107 0.80729,0.2604 l -0.33203,0.918 q -0.35807,-0.1432 -0.78125,-0.2344 -0.42317,-0.098 -0.74869,-0.098 -2.17448,0 -2.17448,2.7734 0,1.3151 0.52735,2.0182 0.53385,0.7032 1.57551,0.7032 0.89193,0 1.82942,-0.3842 v 0.9571 q -0.71614,0.3711 -1.80338,0.3711 z"
             style="font-style:normal;font-variant:normal;font-weight:normal;font-stretch:normal;font-size:13.33329964px;font-family:'Open Sans';-inkscape-font-specification:'Open Sans';fill:#000000;fill-opacity:1"
             id="path314"
             inkscape:connector-curvature="0" />
          <path
             d="m 402.44197,1095.3054 v -4.642 q 0,-0.8528 -0.36458,-1.276 -0.36459,-0.4297 -1.13281,-0.4297 -1.00912,0 -1.49089,0.5794 -0.48176,0.5795 -0.48176,1.7839 v 3.9844 h -1.08073 v -4.642 q 0,-0.8528 -0.36458,-1.276 -0.36459,-0.4297 -1.13932,-0.4297 -1.01563,0 -1.49089,0.612 -0.46874,0.6055 -0.46874,1.9922 v 3.7435 h -1.08073 v -7.1354 h 0.8789 l 0.17578,0.9765 h 0.0521 q 0.30599,-0.5208 0.85937,-0.8138 0.55989,-0.293 1.25,-0.293 1.67317,0 2.18749,1.211 h 0.0521 q 0.31901,-0.5599 0.92448,-0.8854 0.60547,-0.3256 1.38021,-0.3256 1.21093,0 1.80989,0.625 0.60546,0.6185 0.60546,1.9857 v 4.655 z"
             style="font-style:normal;font-variant:normal;font-weight:normal;font-stretch:normal;font-size:13.33329964px;font-family:'Open Sans';-inkscape-font-specification:'Open Sans';fill:#000000;fill-opacity:1"
             id="path316"
             inkscape:connector-curvature="0" />
        </g>
        <path
           inkscape:connector-curvature="0"
           id="path6756"
           d="M 43.30142,93.561944 H 26.176361"
           style="fill:none;stroke:#000000;stroke-width:0.5;stroke-linecap:butt;stroke-linejoin:miter;stroke-miterlimit:4;stroke-dasharray:none;stroke-opacity:1"
           sodipodi:nodetypes="cc" />
        <path
           sodipodi:nodetypes="ccc"
           inkscape:connector-curvature="0"
           id="path6758"
           d="m 27.435809,94.177189 -1.259448,-0.615245 1.242352,-0.611453"
           style="fill:none;stroke:#000000;stroke-width:0.5;stroke-linecap:round;stroke-linejoin:round;stroke-miterlimit:4;stroke-dasharray:none;stroke-opacity:1" />
        <path
           style="fill:none;stroke:#000000;stroke-width:0.5;stroke-linecap:round;stroke-linejoin:round;stroke-miterlimit:4;stroke-dasharray:none;stroke-opacity:1"
           d="m 42.04197,94.177189 1.25945,-0.615245 -1.24235,-0.611453"
           id="path6760"
           inkscape:connector-curvature="0"
           sodipodi:nodetypes="ccc" />
      </g>
    </g>
  </g>
</svg>
