<?xml version="1.0" encoding="UTF-8" standalone="no"?>
<!-- Created with Inkscape (http://www.inkscape.org/) -->

<svg
   width="1080"
   height="1080"
   viewBox="0 0 285.74999 285.75"
   version="1.1"
   id="svg1"
   inkscape:version="1.3 (0e150ed6c4, 2023-07-21)"
   sodipodi:docname="16_9.svg"
   xmlns:inkscape="http://www.inkscape.org/namespaces/inkscape"
   xmlns:sodipodi="http://sodipodi.sourceforge.net/DTD/sodipodi-0.dtd"
   xmlns="http://www.w3.org/2000/svg"
   xmlns:svg="http://www.w3.org/2000/svg">
  <sodipodi:namedview
     id="namedview1"
     pagecolor="#ffffff"
     bordercolor="#000000"
     borderopacity="0.25"
     inkscape:showpageshadow="2"
     inkscape:pageopacity="0.0"
     inkscape:pagecheckerboard="0"
     inkscape:deskcolor="#d1d1d1"
     inkscape:document-units="mm"
     inkscape:zoom="0.44048475"
     inkscape:cx="917.17137"
     inkscape:cy="675.39228"
     inkscape:window-width="1920"
     inkscape:window-height="1011"
     inkscape:window-x="0"
     inkscape:window-y="0"
     inkscape:window-maximized="1"
     inkscape:current-layer="layer1">
    <inkscape:page
       x="0"
       y="0"
       width="285.75"
       height="285.75"
       id="page8"
       margin="0"
       bleed="0" />
  </sodipodi:namedview>
  <defs
     id="defs1">
    <rect
       x="50"
       y="50"
       width="1819.9999"
       height="979.99994"
       id="rect4" />
    <rect
       x="1670.511"
       y="952.60815"
       width="304.31076"
       height="91.389221"
       id="rect2" />
    <rect
       x="1670.511"
       y="952.60815"
       width="259.73462"
       height="100.93469"
       id="rect8" />
    <rect
       x="1670.511"
       y="952.60815"
       width="259.73462"
       height="100.93469"
       id="rect16" />
    <rect
       x="50"
       y="50"
       width="1819.9999"
       height="979.99994"
       id="rect17" />
    <rect
       x="1670.511"
       y="952.60815"
       width="259.73462"
       height="100.93469"
       id="rect18" />
    <rect
       x="1670.511"
       y="952.60815"
       width="259.73462"
       height="100.93469"
       id="rect19" />
    <rect
       x="50"
       y="50"
       width="1819.9999"
       height="979.99994"
       id="rect20" />
    <rect
       x="1670.511"
       y="952.60815"
       width="259.73462"
       height="100.93469"
       id="rect21" />
    <rect
       x="1670.511"
       y="952.60815"
       width="259.73462"
       height="100.93469"
       id="rect68" />
    <rect
       x="50"
       y="50"
       width="1819.9999"
       height="979.99994"
       id="rect69" />
    <rect
       x="1670.511"
       y="952.60815"
       width="259.73462"
       height="100.93469"
       id="rect70" />
    <rect
       x="50"
       y="50"
       width="1819.9999"
       height="979.99994"
       id="rect71" />
    <rect
       x="50"
       y="50"
       width="1819.9999"
       height="979.99994"
       id="rect74" />
    <rect
       x="50"
       y="50"
       width="1819.9999"
       height="979.99994"
       id="rect79" />
    <rect
       x="1670.511"
       y="952.60815"
       width="259.73462"
       height="100.93469"
       id="rect128" />
    <rect
       x="50"
       y="50"
       width="1819.9999"
       height="979.99994"
       id="rect129" />
    <rect
       x="1670.511"
       y="952.60815"
       width="259.73462"
       height="100.93469"
       id="rect130" />
    <rect
       x="50"
       y="50"
       width="1819.9999"
       height="979.99994"
       id="rect131" />
    <rect
       x="50"
       y="50"
       width="1819.9999"
       height="979.99994"
       id="rect132" />
    <rect
       x="50"
       y="50"
       width="1819.9999"
       height="979.99994"
       id="rect133" />
    <rect
       x="50"
       y="50"
       width="1819.9999"
       height="979.99994"
       id="rect134" />
    <rect
       x="1670.511"
       y="952.60815"
       width="259.73462"
       height="100.93469"
       id="rect184" />
    <rect
       x="50"
       y="50"
       width="1819.9999"
       height="979.99994"
       id="rect185" />
    <rect
       x="1670.511"
       y="952.60815"
       width="259.73462"
       height="100.93469"
       id="rect186" />
    <rect
       x="50"
       y="50"
       width="1819.9999"
       height="979.99994"
       id="rect187" />
    <rect
       x="50"
       y="50"
       width="1819.9999"
       height="979.99994"
       id="rect188" />
    <rect
       x="50"
       y="50"
       width="1819.9999"
       height="979.99994"
       id="rect189" />
    <rect
       x="50"
       y="50"
       width="1819.9999"
       height="979.99994"
       id="rect190" />
    <rect
       x="50"
       y="50"
       width="1819.9999"
       height="979.99994"
       id="rect191" />
    <rect
       x="50"
       y="50"
       width="1819.9999"
       height="979.99994"
       id="rect195" />
    <rect
       x="50"
       y="50"
       width="1819.9999"
       height="979.99994"
       id="rect200" />
    <rect
       x="50"
       y="50"
       width="1819.9999"
       height="979.99994"
       id="rect203" />
    <rect
       x="50"
       y="50"
       width="1819.9999"
       height="979.99994"
       id="rect205" />
    <rect
       x="50"
       y="50"
       width="1819.9999"
       height="979.99994"
       id="rect208" />
    <rect
       x="1670.511"
       y="952.60815"
       width="259.73462"
       height="100.93469"
       id="rect231" />
    <rect
       x="50"
       y="50"
       width="1819.9999"
       height="979.99994"
       id="rect232" />
    <rect
       x="1670.511"
       y="952.60815"
       width="259.73462"
       height="100.93469"
       id="rect233" />
    <rect
       x="50"
       y="50"
       width="1819.9999"
       height="979.99994"
       id="rect234" />
    <rect
       x="50"
       y="50"
       width="1819.9999"
       height="979.99994"
       id="rect235" />
    <rect
       x="50"
       y="50"
       width="1819.9999"
       height="979.99994"
       id="rect236" />
    <rect
       x="50"
       y="50"
       width="1819.9999"
       height="979.99994"
       id="rect237" />
    <rect
       x="50"
       y="50"
       width="1819.9999"
       height="979.99994"
       id="rect238" />
    <rect
       x="50"
       y="50"
       width="1819.9999"
       height="979.99994"
       id="rect239" />
    <rect
       x="50"
       y="50"
       width="1819.9999"
       height="979.99994"
       id="rect240" />
    <rect
       x="50"
       y="50"
       width="1819.9999"
       height="979.99994"
       id="rect241" />
    <rect
       x="50"
       y="50"
       width="1819.9999"
       height="979.99994"
       id="rect242" />
    <rect
       x="50"
       y="50"
       width="1819.9999"
       height="979.99994"
       id="rect244" />
    <rect
       x="50"
       y="50"
       width="1819.9999"
       height="979.99994"
       id="rect245" />
    <rect
       x="50"
       y="50"
       width="1819.9999"
       height="979.99994"
       id="rect246" />
    <rect
       x="50"
       y="50"
       width="1819.9999"
       height="979.99994"
       id="rect124" />
    <rect
       x="50"
       y="50"
       width="1819.9999"
       height="979.99994"
       id="rect125" />
    <rect
       x="50"
       y="50"
       width="1819.9999"
       height="979.99994"
       id="rect126" />
    <rect
       x="50"
       y="50"
       width="1819.9999"
       height="979.99994"
       id="rect127" />
    <rect
       x="50"
       y="50"
       width="1819.9999"
       height="979.99994"
       id="rect135" />
    <rect
       x="50"
       y="50"
       width="1819.9999"
       height="979.99994"
       id="rect137" />
    <rect
       x="50"
       y="50"
       width="1819.9999"
       height="979.99994"
       id="rect145" />
    <rect
       x="50"
       y="50"
       width="1819.9999"
       height="979.99994"
       id="rect146" />
    <rect
       x="50"
       y="50"
       width="1819.9999"
       height="979.99994"
       id="rect147" />
    <rect
       x="50"
       y="50"
       width="1819.9999"
       height="979.99994"
       id="rect148" />
    <rect
       x="50"
       y="50"
       width="1819.9999"
       height="979.99994"
       id="rect151" />
    <rect
       x="50"
       y="50"
       width="1819.9999"
       height="979.99994"
       id="rect152" />
    <rect
       x="1670.511"
       y="952.60815"
       width="259.73462"
       height="100.93469"
       id="rect218" />
    <rect
       x="1670.511"
       y="952.60815"
       width="259.73462"
       height="100.93469"
       id="rect219" />
    <rect
       x="50"
       y="50"
       width="1819.9999"
       height="979.99994"
       id="rect220" />
    <rect
       x="50"
       y="50"
       width="1819.9999"
       height="979.99994"
       id="rect221" />
    <rect
       x="50"
       y="50"
       width="1819.9999"
       height="979.99994"
       id="rect222" />
    <rect
       x="50"
       y="50"
       width="1819.9999"
       height="979.99994"
       id="rect223" />
    <rect
       x="50"
       y="50"
       width="1819.9999"
       height="979.99994"
       id="rect224" />
    <rect
       x="50"
       y="50"
       width="1819.9999"
       height="979.99994"
       id="rect225" />
    <rect
       x="50"
       y="50"
       width="1819.9999"
       height="979.99994"
       id="rect226" />
    <rect
       x="50"
       y="50"
       width="1819.9999"
       height="979.99994"
       id="rect227" />
    <rect
       x="50"
       y="50"
       width="1819.9999"
       height="979.99994"
       id="rect228" />
    <rect
       x="50"
       y="50"
       width="1819.9999"
       height="979.99994"
       id="rect229" />
    <rect
       x="50"
       y="50"
       width="1819.9999"
       height="979.99994"
       id="rect230" />
    <rect
       x="50"
       y="50"
       width="1819.9999"
       height="979.99994"
       id="rect243" />
    <rect
       x="50"
       y="50"
       width="1819.9999"
       height="979.99994"
       id="rect247" />
    <rect
       x="50"
       y="50"
       width="1819.9999"
       height="979.99994"
       id="rect248" />
    <rect
       x="50"
       y="50"
       width="1819.9999"
       height="979.99994"
       id="rect249" />
    <rect
       x="50"
       y="50"
       width="1819.9999"
       height="979.99994"
       id="rect250" />
    <rect
       x="50"
       y="50"
       width="1819.9999"
       height="979.99994"
       id="rect251" />
    <rect
       x="50"
       y="50"
       width="1819.9999"
       height="979.99994"
       id="rect252" />
    <rect
       x="50"
       y="50"
       width="1819.9999"
       height="979.99994"
       id="rect253" />
    <rect
       x="1670.511"
       y="952.60815"
       width="259.73462"
       height="100.93469"
       id="rect383" />
    <rect
       x="1670.511"
       y="952.60815"
       width="259.73462"
       height="100.93469"
       id="rect384" />
    <rect
       x="50"
       y="50"
       width="1819.9999"
       height="979.99994"
       id="rect385" />
    <marker
       style="overflow:visible"
       id="TriangleInM-0"
       refX="0"
       refY="0"
       orient="auto"
       inkscape:stockid="TriangleInM"
       inkscape:isstock="true"
       viewBox="0 0 4.2595265 4.9243081"
       markerWidth="4.2595263"
       markerHeight="4.9243078"
       preserveAspectRatio="xMidYMid">
      <path
         transform="scale(-0.4)"
         style="fill:context-stroke;fill-rule:evenodd;stroke:context-stroke;stroke-width:1pt"
         d="M 5.77,0 -2.88,5 V -5 Z"
         id="path8169-2" />
    </marker>
    <marker
       style="overflow:visible"
       id="TriangleOutM-3"
       refX="0"
       refY="0"
       orient="auto"
       inkscape:stockid="TriangleOutM"
       inkscape:isstock="true"
       viewBox="0 0 4.2595265 4.9243081"
       markerWidth="4.2595263"
       markerHeight="4.9243078"
       preserveAspectRatio="xMidYMid">
      <path
         transform="scale(0.4)"
         style="fill:context-stroke;fill-rule:evenodd;stroke:context-stroke;stroke-width:1pt"
         d="M 5.77,0 -2.88,5 V -5 Z"
         id="path8178-7" />
    </marker>
    <marker
       style="overflow:visible"
       id="marker1"
       refX="0"
       refY="0"
       orient="auto"
       inkscape:stockid="TriangleInM"
       inkscape:isstock="true"
       viewBox="0 0 4.2595265 4.9243081"
       markerWidth="4.2595263"
       markerHeight="4.9243078"
       preserveAspectRatio="xMidYMid">
      <path
         transform="scale(-0.4)"
         style="fill:context-stroke;fill-rule:evenodd;stroke:context-stroke;stroke-width:1pt"
         d="M 5.77,0 -2.88,5 V -5 Z"
         id="path1" />
    </marker>
    <marker
       style="overflow:visible"
       id="marker2"
       refX="0"
       refY="0"
       orient="auto"
       inkscape:stockid="TriangleOutM"
       inkscape:isstock="true"
       viewBox="0 0 4.2595265 4.9243081"
       markerWidth="4.2595263"
       markerHeight="4.9243078"
       preserveAspectRatio="xMidYMid">
      <path
         transform="scale(0.4)"
         style="fill:context-stroke;fill-rule:evenodd;stroke:context-stroke;stroke-width:1pt"
         d="M 5.77,0 -2.88,5 V -5 Z"
         id="path2" />
    </marker>
    <marker
       style="overflow:visible"
       id="marker3"
       refX="0"
       refY="0"
       orient="auto"
       inkscape:stockid="TriangleInM"
       inkscape:isstock="true"
       viewBox="0 0 4.2595265 4.9243081"
       markerWidth="4.2595263"
       markerHeight="4.9243078"
       preserveAspectRatio="xMidYMid">
      <path
         transform="scale(-0.4)"
         style="fill:context-stroke;fill-rule:evenodd;stroke:context-stroke;stroke-width:1pt"
         d="M 5.77,0 -2.88,5 V -5 Z"
         id="path3" />
    </marker>
    <marker
       style="overflow:visible"
       id="marker4"
       refX="0"
       refY="0"
       orient="auto"
       inkscape:stockid="TriangleOutM"
       inkscape:isstock="true"
       viewBox="0 0 4.2595265 4.9243081"
       markerWidth="4.2595263"
       markerHeight="4.9243078"
       preserveAspectRatio="xMidYMid">
      <path
         transform="scale(0.4)"
         style="fill:context-stroke;fill-rule:evenodd;stroke:context-stroke;stroke-width:1pt"
         d="M 5.77,0 -2.88,5 V -5 Z"
         id="path4" />
    </marker>
    <marker
       style="overflow:visible"
       id="marker5"
       refX="0"
       refY="0"
       orient="auto"
       inkscape:stockid="TriangleInM"
       inkscape:isstock="true"
       viewBox="0 0 4.2595265 4.9243081"
       markerWidth="4.2595263"
       markerHeight="4.9243078"
       preserveAspectRatio="xMidYMid">
      <path
         transform="scale(-0.4)"
         style="fill:context-stroke;fill-rule:evenodd;stroke:context-stroke;stroke-width:1pt"
         d="M 5.77,0 -2.88,5 V -5 Z"
         id="path5" />
    </marker>
    <marker
       style="overflow:visible"
       id="marker6"
       refX="0"
       refY="0"
       orient="auto"
       inkscape:stockid="TriangleOutM"
       inkscape:isstock="true"
       viewBox="0 0 4.2595265 4.9243081"
       markerWidth="4.2595263"
       markerHeight="4.9243078"
       preserveAspectRatio="xMidYMid">
      <path
         transform="scale(0.4)"
         style="fill:context-stroke;fill-rule:evenodd;stroke:context-stroke;stroke-width:1pt"
         d="M 5.77,0 -2.88,5 V -5 Z"
         id="path6" />
    </marker>
    <marker
       style="overflow:visible"
       id="marker7"
       refX="0"
       refY="0"
       orient="auto"
       inkscape:stockid="TriangleInM"
       inkscape:isstock="true"
       viewBox="0 0 4.2595265 4.9243081"
       markerWidth="4.2595263"
       markerHeight="4.9243078"
       preserveAspectRatio="xMidYMid">
      <path
         transform="scale(-0.4)"
         style="fill:context-stroke;fill-rule:evenodd;stroke:context-stroke;stroke-width:1pt"
         d="M 5.77,0 -2.88,5 V -5 Z"
         id="path7" />
    </marker>
    <marker
       style="overflow:visible"
       id="marker8"
       refX="0"
       refY="0"
       orient="auto"
       inkscape:stockid="TriangleOutM"
       inkscape:isstock="true"
       viewBox="0 0 4.2595265 4.9243081"
       markerWidth="4.2595263"
       markerHeight="4.9243078"
       preserveAspectRatio="xMidYMid">
      <path
         transform="scale(0.4)"
         style="fill:context-stroke;fill-rule:evenodd;stroke:context-stroke;stroke-width:1pt"
         d="M 5.77,0 -2.88,5 V -5 Z"
         id="path8" />
    </marker>
    <marker
       style="overflow:visible"
       id="marker9"
       refX="0"
       refY="0"
       orient="auto"
       inkscape:stockid="TriangleInM"
       inkscape:isstock="true"
       viewBox="0 0 4.2595265 4.9243081"
       markerWidth="4.2595263"
       markerHeight="4.9243078"
       preserveAspectRatio="xMidYMid">
      <path
         transform="scale(-0.4)"
         style="fill:context-stroke;fill-rule:evenodd;stroke:context-stroke;stroke-width:1pt"
         d="M 5.77,0 -2.88,5 V -5 Z"
         id="path9" />
    </marker>
    <marker
       style="overflow:visible"
       id="marker10"
       refX="0"
       refY="0"
       orient="auto"
       inkscape:stockid="TriangleOutM"
       inkscape:isstock="true"
       viewBox="0 0 4.2595265 4.9243081"
       markerWidth="4.2595263"
       markerHeight="4.9243078"
       preserveAspectRatio="xMidYMid">
      <path
         transform="scale(0.4)"
         style="fill:context-stroke;fill-rule:evenodd;stroke:context-stroke;stroke-width:1pt"
         d="M 5.77,0 -2.88,5 V -5 Z"
         id="path10-7" />
    </marker>
    <rect
       x="1670.511"
       y="952.60815"
       width="259.73462"
       height="100.93469"
       id="rect502" />
    <rect
       x="1670.511"
       y="952.60815"
       width="259.73462"
       height="100.93469"
       id="rect503" />
    <rect
       x="50"
       y="50"
       width="1819.9999"
       height="979.99994"
       id="rect504" />
    <marker
       style="overflow:visible"
       id="TriangleInM-0-7"
       refX="0"
       refY="0"
       orient="auto"
       inkscape:stockid="TriangleInM"
       inkscape:isstock="true"
       viewBox="0 0 4.2595265 4.9243081"
       markerWidth="4.2595263"
       markerHeight="4.9243078"
       preserveAspectRatio="xMidYMid">
      <path
         transform="scale(-0.4)"
         style="fill:context-stroke;fill-rule:evenodd;stroke:context-stroke;stroke-width:1pt"
         d="M 5.77,0 -2.88,5 V -5 Z"
         id="path8169-2-8" />
    </marker>
    <marker
       style="overflow:visible"
       id="TriangleOutM-3-6"
       refX="0"
       refY="0"
       orient="auto"
       inkscape:stockid="TriangleOutM"
       inkscape:isstock="true"
       viewBox="0 0 4.2595265 4.9243081"
       markerWidth="4.2595263"
       markerHeight="4.9243078"
       preserveAspectRatio="xMidYMid">
      <path
         transform="scale(0.4)"
         style="fill:context-stroke;fill-rule:evenodd;stroke:context-stroke;stroke-width:1pt"
         d="M 5.77,0 -2.88,5 V -5 Z"
         id="path8178-7-8" />
    </marker>
    <marker
       style="overflow:visible"
       id="marker1-8"
       refX="0"
       refY="0"
       orient="auto"
       inkscape:stockid="TriangleInM"
       inkscape:isstock="true"
       viewBox="0 0 4.2595265 4.9243081"
       markerWidth="4.2595263"
       markerHeight="4.9243078"
       preserveAspectRatio="xMidYMid">
      <path
         transform="scale(-0.4)"
         style="fill:context-stroke;fill-rule:evenodd;stroke:context-stroke;stroke-width:1pt"
         d="M 5.77,0 -2.88,5 V -5 Z"
         id="path1-4" />
    </marker>
    <marker
       style="overflow:visible"
       id="marker2-3"
       refX="0"
       refY="0"
       orient="auto"
       inkscape:stockid="TriangleOutM"
       inkscape:isstock="true"
       viewBox="0 0 4.2595265 4.9243081"
       markerWidth="4.2595263"
       markerHeight="4.9243078"
       preserveAspectRatio="xMidYMid">
      <path
         transform="scale(0.4)"
         style="fill:context-stroke;fill-rule:evenodd;stroke:context-stroke;stroke-width:1pt"
         d="M 5.77,0 -2.88,5 V -5 Z"
         id="path2-1" />
    </marker>
    <marker
       style="overflow:visible"
       id="marker3-4"
       refX="0"
       refY="0"
       orient="auto"
       inkscape:stockid="TriangleInM"
       inkscape:isstock="true"
       viewBox="0 0 4.2595265 4.9243081"
       markerWidth="4.2595263"
       markerHeight="4.9243078"
       preserveAspectRatio="xMidYMid">
      <path
         transform="scale(-0.4)"
         style="fill:context-stroke;fill-rule:evenodd;stroke:context-stroke;stroke-width:1pt"
         d="M 5.77,0 -2.88,5 V -5 Z"
         id="path3-9" />
    </marker>
    <marker
       style="overflow:visible"
       id="marker4-2"
       refX="0"
       refY="0"
       orient="auto"
       inkscape:stockid="TriangleOutM"
       inkscape:isstock="true"
       viewBox="0 0 4.2595265 4.9243081"
       markerWidth="4.2595263"
       markerHeight="4.9243078"
       preserveAspectRatio="xMidYMid">
      <path
         transform="scale(0.4)"
         style="fill:context-stroke;fill-rule:evenodd;stroke:context-stroke;stroke-width:1pt"
         d="M 5.77,0 -2.88,5 V -5 Z"
         id="path4-0" />
    </marker>
    <marker
       style="overflow:visible"
       id="marker5-6"
       refX="0"
       refY="0"
       orient="auto"
       inkscape:stockid="TriangleInM"
       inkscape:isstock="true"
       viewBox="0 0 4.2595265 4.9243081"
       markerWidth="4.2595263"
       markerHeight="4.9243078"
       preserveAspectRatio="xMidYMid">
      <path
         transform="scale(-0.4)"
         style="fill:context-stroke;fill-rule:evenodd;stroke:context-stroke;stroke-width:1pt"
         d="M 5.77,0 -2.88,5 V -5 Z"
         id="path5-8" />
    </marker>
    <marker
       style="overflow:visible"
       id="marker6-9"
       refX="0"
       refY="0"
       orient="auto"
       inkscape:stockid="TriangleOutM"
       inkscape:isstock="true"
       viewBox="0 0 4.2595265 4.9243081"
       markerWidth="4.2595263"
       markerHeight="4.9243078"
       preserveAspectRatio="xMidYMid">
      <path
         transform="scale(0.4)"
         style="fill:context-stroke;fill-rule:evenodd;stroke:context-stroke;stroke-width:1pt"
         d="M 5.77,0 -2.88,5 V -5 Z"
         id="path6-2" />
    </marker>
    <marker
       style="overflow:visible"
       id="marker7-6"
       refX="0"
       refY="0"
       orient="auto"
       inkscape:stockid="TriangleInM"
       inkscape:isstock="true"
       viewBox="0 0 4.2595265 4.9243081"
       markerWidth="4.2595263"
       markerHeight="4.9243078"
       preserveAspectRatio="xMidYMid">
      <path
         transform="scale(-0.4)"
         style="fill:context-stroke;fill-rule:evenodd;stroke:context-stroke;stroke-width:1pt"
         d="M 5.77,0 -2.88,5 V -5 Z"
         id="path7-6" />
    </marker>
    <marker
       style="overflow:visible"
       id="marker8-4"
       refX="0"
       refY="0"
       orient="auto"
       inkscape:stockid="TriangleOutM"
       inkscape:isstock="true"
       viewBox="0 0 4.2595265 4.9243081"
       markerWidth="4.2595263"
       markerHeight="4.9243078"
       preserveAspectRatio="xMidYMid">
      <path
         transform="scale(0.4)"
         style="fill:context-stroke;fill-rule:evenodd;stroke:context-stroke;stroke-width:1pt"
         d="M 5.77,0 -2.88,5 V -5 Z"
         id="path8-9" />
    </marker>
    <marker
       style="overflow:visible"
       id="marker9-5"
       refX="0"
       refY="0"
       orient="auto"
       inkscape:stockid="TriangleInM"
       inkscape:isstock="true"
       viewBox="0 0 4.2595265 4.9243081"
       markerWidth="4.2595263"
       markerHeight="4.9243078"
       preserveAspectRatio="xMidYMid">
      <path
         transform="scale(-0.4)"
         style="fill:context-stroke;fill-rule:evenodd;stroke:context-stroke;stroke-width:1pt"
         d="M 5.77,0 -2.88,5 V -5 Z"
         id="path9-0" />
    </marker>
    <marker
       style="overflow:visible"
       id="marker10-4"
       refX="0"
       refY="0"
       orient="auto"
       inkscape:stockid="TriangleOutM"
       inkscape:isstock="true"
       viewBox="0 0 4.2595265 4.9243081"
       markerWidth="4.2595263"
       markerHeight="4.9243078"
       preserveAspectRatio="xMidYMid">
      <path
         transform="scale(0.4)"
         style="fill:context-stroke;fill-rule:evenodd;stroke:context-stroke;stroke-width:1pt"
         d="M 5.77,0 -2.88,5 V -5 Z"
         id="path10-8" />
    </marker>
    <rect
       x="1670.511"
       y="952.60815"
       width="259.73462"
       height="100.93469"
       id="rect513" />
    <rect
       x="1670.511"
       y="952.60815"
       width="259.73462"
       height="100.93469"
       id="rect514" />
    <marker
       style="overflow:visible"
       id="TriangleInM-0-72"
       refX="0"
       refY="0"
       orient="auto"
       inkscape:stockid="TriangleInM"
       inkscape:isstock="true"
       viewBox="0 0 4.2595265 4.9243081"
       markerWidth="4.2595263"
       markerHeight="4.9243078"
       preserveAspectRatio="xMidYMid">
      <path
         transform="scale(-0.4)"
         style="fill:context-stroke;fill-rule:evenodd;stroke:context-stroke;stroke-width:1pt"
         d="M 5.77,0 -2.88,5 V -5 Z"
         id="path8169-2-2" />
    </marker>
    <marker
       style="overflow:visible"
       id="TriangleOutM-3-61"
       refX="0"
       refY="0"
       orient="auto"
       inkscape:stockid="TriangleOutM"
       inkscape:isstock="true"
       viewBox="0 0 4.2595265 4.9243081"
       markerWidth="4.2595263"
       markerHeight="4.9243078"
       preserveAspectRatio="xMidYMid">
      <path
         transform="scale(0.4)"
         style="fill:context-stroke;fill-rule:evenodd;stroke:context-stroke;stroke-width:1pt"
         d="M 5.77,0 -2.88,5 V -5 Z"
         id="path8178-7-0" />
    </marker>
    <marker
       style="overflow:visible"
       id="marker1-6"
       refX="0"
       refY="0"
       orient="auto"
       inkscape:stockid="TriangleInM"
       inkscape:isstock="true"
       viewBox="0 0 4.2595265 4.9243081"
       markerWidth="4.2595263"
       markerHeight="4.9243078"
       preserveAspectRatio="xMidYMid">
      <path
         transform="scale(-0.4)"
         style="fill:context-stroke;fill-rule:evenodd;stroke:context-stroke;stroke-width:1pt"
         d="M 5.77,0 -2.88,5 V -5 Z"
         id="path1-1" />
    </marker>
    <marker
       style="overflow:visible"
       id="marker2-5"
       refX="0"
       refY="0"
       orient="auto"
       inkscape:stockid="TriangleOutM"
       inkscape:isstock="true"
       viewBox="0 0 4.2595265 4.9243081"
       markerWidth="4.2595263"
       markerHeight="4.9243078"
       preserveAspectRatio="xMidYMid">
      <path
         transform="scale(0.4)"
         style="fill:context-stroke;fill-rule:evenodd;stroke:context-stroke;stroke-width:1pt"
         d="M 5.77,0 -2.88,5 V -5 Z"
         id="path2-9" />
    </marker>
    <rect
       x="1670.511"
       y="952.60815"
       width="304.31076"
       height="91.389221"
       id="rect22" />
    <rect
       x="50"
       y="50"
       width="1819.9999"
       height="979.99994"
       id="rect9" />
  </defs>
  <g
     inkscape:label="Katman 1"
     inkscape:groupmode="layer"
     id="layer1">
    <g
       id="g3"
       transform="matrix(0.5625,0,0,0.5625,5.0000001e-6,62.507812)">
      <rect
         style="fill:#ffffff;stroke:#000000;stroke-width:1;stroke-dasharray:none"
         id="rect1"
         width="507"
         height="284.75"
         x="0.5"
         y="0.5" />
      <g
         id="g1">
        <rect
           style="fill:#ffe680;stroke:none;stroke-width:0.315288"
           id="rect3"
           width="100.40069"
           height="21.19849"
           x="394.37012"
           y="251.32231" />
        <g
           id="g914"
           transform="matrix(1.6777715,0,0,1.6777715,-65.949878,102.89325)">
          <circle
             style="opacity:1;fill:#000000;fill-opacity:1;stroke:none;stroke-width:0.635006;stroke-linecap:round;stroke-linejoin:bevel;stroke-miterlimit:4;stroke-dasharray:none;stroke-dashoffset:0;stroke-opacity:1"
             id="path952-3"
             cx="282.13547"
             cy="94.785439"
             r="5.9602871" />
          <path
             style="fill:#ffffff;fill-opacity:1;stroke:none;stroke-width:0.0531143px;stroke-linecap:butt;stroke-linejoin:miter;stroke-opacity:1"
             d="m 1073.0176,9.1972656 c -2.3876,-0.050088 -5.6935,0.4528261 -7.2735,0.9394534 -2.1066,0.648831 -3.416,1.972656 -3.416,1.972656 0,0 -1.9037,-2.156838 -3.2617,-2.2011719 -1.3579,-0.044334 -2.4637,1.5077159 -3.6426,2.1249999 -1.1789,0.617284 -2.32,0.07088 -3.414,1.59375 -1.0939,1.52287 -0.8983,5.345302 -0.834,7.435547 0.021,0.670143 10e-5,1.681261 -0.031,2.736328 -0.7331,0.0047 -1.5903,0.227143 -2.2129,1.091797 -1.3103,1.819725 0,4.07866 0,5.349609 0,1.27095 -0.1768,1.341938 0,2.275391 0.1768,0.93346 0.6111,2.267166 1.252,3.1875 0.2366,0.339779 0.6298,0.701346 1.0312,1.037109 -0.043,0.741639 -0.1841,3.307978 -0.066,4.509766 0.1357,1.387559 0.2266,2.308064 0.6973,3.220703 0.4708,0.912635 0.6406,1.290339 1.9316,2.119141 1.2911,0.828805 4.1791,1.651929 6.0372,1.93164 1.858,0.279723 3.8196,-0.354517 4.9355,-0.05469 1.116,0.29983 1.7168,1.019531 1.7168,1.019531 0,0 1.1751,-1.039368 2.3867,-1.314453 1.2116,-0.275112 3.1834,0.426182 4.7227,0.267578 1.5392,-0.158627 3.2153,-0.623031 4.3984,-1.179687 1.1832,-0.556657 2.0061,-1.037073 2.6836,-1.904297 0.6775,-0.86722 1.207,-3.085938 1.207,-3.085938 l -0.074,-5.505859 c 0.2777,-0.253214 0.5325,-0.512818 0.7031,-0.757813 0.6409,-0.920326 1.0752,-2.25209 1.252,-3.185547 0.1769,-0.933456 0,-1.00639 0,-2.277343 0,-1.270946 1.3103,-3.52988 0,-5.34961 -0.718,-0.997157 -1.7452,-1.14374 -2.5352,-1.080078 0,-0.129698 0,-0.272842 0.012,-0.394531 0.1436,-1.953668 1.5913,-3.517343 1.5937,-4.705078 0,-1.187739 -0.3585,-0.988981 -0.6836,-2.048828 -0.3252,-1.059852 -0.273,-3.34237 -1.2148,-4.324219 -0.9419,-0.981842 -2.493,-0.583444 -3.4903,-1.138672 -0.9972,-0.555224 -0.4524,-1.408236 -2.4277,-2.048828 -0.4938,-0.160148 -1.1866,-0.2391633 -1.9824,-0.2558594 z"
             transform="matrix(0.26458333,0,0,0.26458333,0,87)"
             id="path1290-6"
             inkscape:connector-curvature="0" />
          <path
             inkscape:connector-curvature="0"
             style="fill:#000000;fill-opacity:1;stroke:none;stroke-width:0.0140532px;stroke-linecap:butt;stroke-linejoin:miter;stroke-opacity:1"
             d="m 279.86701,92.812206 c -0.73887,-5.49e-4 -2.19048,0.12969 -2.19048,0.12969 l -0.0569,0.534239 c 0,0 0.14574,0.260507 0.23087,0.567149 0.0851,0.306643 0.11965,2.154558 1.9062,2.241038 1.78653,0.08648 2.15916,-2.361505 2.15916,-2.361505 l 0.38646,0.01004 c 0,0 0.33273,2.413692 2.09524,2.379869 1.7625,-0.03382 1.8889,-1.73427 1.93,-2.08876 0.0411,-0.35449 0.27604,-0.682593 0.27604,-0.682593 l -0.0602,-0.567149 c 0,0 -1.32456,-0.158888 -2.03873,-0.145884 -0.71416,0.013 -1.76236,0.240002 -2.22874,0.241319 -0.46638,0.0013 -0.17495,-0.01546 -0.55365,-0.05679 -0.37869,-0.04133 -1.0412,-0.178322 -1.71769,-0.198747 -0.0423,-0.0013 -0.0884,-0.0019 -0.13762,-0.0019 z m 0.0383,0.321384 c 1.16916,0.0021 1.49027,0.463013 1.49027,0.463013 0,0 0.0511,1.011774 -0.23089,1.445443 -0.28198,0.433669 -0.8405,0.887073 -1.37517,0.89339 -0.5347,0.0063 -1.05519,-0.383918 -1.33506,-0.823125 -0.27987,-0.439206 -0.18068,-1.545846 -0.18068,-1.545846 0,0 0.25181,-0.402182 1.51574,-0.431613 0.0395,-9.2e-4 0.0781,-0.0013 0.11579,-0.0013 z m 4.34232,0 c 0.0377,-7.1e-5 0.0763,3.43e-4 0.11579,0.0013 1.26393,0.02943 1.51574,0.431613 1.51574,0.431613 0,0 0.0992,1.10664 -0.18068,1.545846 -0.27987,0.439207 -0.80037,0.829442 -1.33506,0.823125 -0.53468,-0.0063 -1.09322,-0.459721 -1.3752,-0.893391 -0.28198,-0.433668 -0.23086,-1.445443 -0.23086,-1.445443 0,0 0.32111,-0.460959 1.49027,-0.463012 z"
             id="path1234-7" />
          <path
             style="opacity:1;fill:#000000;fill-opacity:1;stroke:none;stroke-width:0.00765969;stroke-miterlimit:4;stroke-dasharray:none;stroke-dashoffset:0;stroke-opacity:1"
             d="m 280.30801,94.006063 c -0.13564,-6.47e-4 -0.25917,0.03032 -0.36856,0.07694 a 0.48402336,0.46075305 0 0 0 -0.0902,0.267229 0.48402336,0.46075305 0 0 0 0.31387,0.430735 c 0.0841,0.01632 0.16664,0.02573 0.2425,0.02412 10e-4,-2.8e-5 0.003,-1.54e-4 0.004,-1.92e-4 a 0.48402336,0.46075305 0 0 0 0.40732,-0.454669 0.48402336,0.46075305 0 0 0 -0.0809,-0.254493 c -0.0908,-0.03674 -0.19562,-0.06615 -0.31658,-0.08204 -0.0381,-0.005 -0.0754,-0.0075 -0.11182,-0.0076 z"
             id="path1244-5"
             inkscape:connector-curvature="0" />
          <ellipse
             style="opacity:1;fill:#ffffff;fill-opacity:1;stroke:none;stroke-width:0.00531143;stroke-miterlimit:4;stroke-dasharray:none;stroke-dashoffset:0;stroke-opacity:1"
             id="path1254-3"
             cx="280.26138"
             cy="94.221451"
             rx="0.15558842"
             ry="0.15809791" />
          <path
             inkscape:connector-curvature="0"
             id="path1264-5"
             d="m 284.07001,93.974124 c 0.13565,-6.38e-4 0.25918,0.03032 0.36856,0.07693 a 0.4840235,0.46075319 0 0 1 0.0902,0.267229 0.4840235,0.46075319 0 0 1 -0.31387,0.430735 c -0.0841,0.01632 -0.16663,0.02573 -0.24249,0.02412 -0.001,-2.8e-5 -0.003,-1.59e-4 -0.004,-2.12e-4 a 0.4840235,0.46075319 0 0 1 -0.40732,-0.454669 0.4840235,0.46075319 0 0 1 0.0809,-0.254493 c 0.0908,-0.03674 0.19563,-0.06615 0.31658,-0.08204 0.0381,-0.005 0.0754,-0.0075 0.11183,-0.0076 z"
             style="opacity:1;fill:#000000;fill-opacity:1;stroke:none;stroke-width:0.00765969;stroke-miterlimit:4;stroke-dasharray:none;stroke-dashoffset:0;stroke-opacity:1" />
          <ellipse
             ry="0.15809792"
             rx="0.15558842"
             cy="94.189514"
             cx="-283.94986"
             id="ellipse1268-6"
             style="opacity:1;fill:#ffffff;fill-opacity:1;stroke:none;stroke-width:0.00531143;stroke-miterlimit:4;stroke-dasharray:none;stroke-dashoffset:0;stroke-opacity:1"
             transform="scale(-1,1)" />
        </g>
        <path
           d="m 1694.0117,968.82886 q 0,4.625 -3.1666,7.12501 -3.1459,2.47916 -9.0209,2.47916 h -3.5833 v 11.97918 h -3.5417 v -30.45836 h 7.8959 q 11.4166,0 11.4166,8.87501 z m -15.7708,6.56251 h 3.1875 q 4.7083,0 6.8125,-1.52084 2.1042,-1.52083 2.1042,-4.875 0,-3.02084 -1.9792,-4.50001 -1.9792,-1.47916 -6.1667,-1.47916 h -3.9583 z m 32.0417,-8.22918 q 1.5208,0 2.7292,0.25 l -0.4792,3.20834 q -1.4167,-0.3125 -2.5,-0.3125 -2.7709,0 -4.75,2.25 -1.9584,2.25 -1.9584,5.60417 v 12.25001 h -3.4583 v -22.83335 h 2.8542 l 0.3958,4.22917 h 0.1667 q 1.2708,-2.22917 3.0625,-3.4375 1.7916,-1.20834 3.9375,-1.20834 z m 25.8542,11.81251 q 0,5.58334 -2.8125,8.72917 -2.8125,3.12501 -7.7709,3.12501 -3.0625,0 -5.4375,-1.4375 -2.375,-1.43751 -3.6666,-4.12501 -1.2917,-2.6875 -1.2917,-6.29167 0,-5.58334 2.7917,-8.68751 2.7916,-3.125 7.75,-3.125 4.7916,0 7.6041,3.1875 2.8334,3.18751 2.8334,8.62501 z m -17.3959,0 q 0,4.375 1.75,6.66667 1.75,2.29167 5.1459,2.29167 3.3958,0 5.1458,-2.27083 1.7708,-2.29167 1.7708,-6.68751 0,-4.35417 -1.7708,-6.60417 -1.75,-2.27084 -5.1875,-2.27084 -3.3958,0 -5.125,2.22917 -1.7292,2.22917 -1.7292,6.64584 z m 34.0834,-11.77084 q 4.5,0 6.9791,3.08333 2.5001,3.06251 2.5001,8.68751 0,5.62501 -2.5209,8.75001 -2.5,3.10417 -6.9583,3.10417 -2.2292,0 -4.0834,-0.8125 -1.8333,-0.83334 -3.0833,-2.54167 h -0.25 l -0.7292,2.9375 h -2.4791 v -32.41669 h 3.4583 v 7.875 q 0,2.64584 -0.1667,4.75001 h 0.1667 q 2.4167,-3.41667 7.1667,-3.41667 z m -0.5,2.89583 q -3.5417,0 -5.1042,2.04167 -1.5625,2.02084 -1.5625,6.83334 0,4.8125 1.6042,6.89584 1.6041,2.0625 5.1458,2.0625 3.1875,0 4.75,-2.3125 1.5625,-2.33334 1.5625,-6.68751 0,-4.45833 -1.5625,-6.64583 -1.5625,-2.18751 -4.8333,-2.18751 z m 19.4792,20.31252 h -3.4584 v -32.41669 h 3.4584 z m 16.9791,0.41667 q -5.0625,0 -8,-3.08334 -2.9166,-3.08333 -2.9166,-8.56251 0,-5.52083 2.7083,-8.77084 2.7292,-3.25 7.3125,-3.25 4.2917,0 6.7917,2.83334 2.5,2.8125 2.5,7.4375 v 2.1875 h -15.7292 q 0.1042,4.02084 2.0208,6.10418 1.9375,2.08333 5.4375,2.08333 3.6875,0 7.2917,-1.54167 v 3.08334 q -1.8333,0.79167 -3.4792,1.125 -1.625,0.35417 -3.9375,0.35417 z m -0.9375,-20.77085 q -2.75,0 -4.3958,1.79167 -1.625,1.79166 -1.9167,4.95833 h 11.9375 q 0,-3.27083 -1.4583,-5 -1.4583,-1.75 -4.1667,-1.75 z m 44.3334,20.35418 v -14.85418 q 0,-2.72917 -1.1667,-4.08333 -1.1666,-1.37501 -3.625,-1.37501 -3.2291,0 -4.7708,1.85417 -1.5417,1.85417 -1.5417,5.70834 v 12.75001 h -3.4583 v -14.85418 q 0,-2.72917 -1.1667,-4.08333 -1.1666,-1.37501 -3.6458,-1.37501 -3.25,0 -4.7708,1.95834 -1.5,1.9375 -1.5,6.375 v 11.97918 h -3.4584 v -22.83335 h 2.8125 l 0.5625,3.125 h 0.1667 q 0.9792,-1.66667 2.75,-2.60417 1.7917,-0.9375 4,-0.9375 5.3542,0 7,3.87501 h 0.1667 q 1.0208,-1.79167 2.9583,-2.83334 1.9375,-1.04167 4.4167,-1.04167 3.875,0 5.7916,2 1.9375,1.97917 1.9375,6.35418 v 14.89584 z m 35.4167,-15.52085 q 0,7.54168 -4.1042,11.54168 -4.0833,3.97917 -11.7708,3.97917 h -8.4375 v -30.45836 h 9.3333 q 7.1042,0 11.0417,3.93751 3.9375,3.9375 3.9375,11 z m -3.75,0.125 q 0,-5.95833 -3,-8.97917 -2.9792,-3.02083 -8.875,-3.02083 h -5.1458 v 24.33335 h 4.3125 q 6.3333,0 9.5208,-3.10417 3.1875,-3.125 3.1875,-9.22918 z m 19.6667,15.81252 q -5.0625,0 -8,-3.08334 -2.9167,-3.08333 -2.9167,-8.56251 0,-5.52083 2.7083,-8.77084 2.7292,-3.25 7.3125,-3.25 4.2917,0 6.7917,2.83334 2.5,2.8125 2.5,7.4375 v 2.1875 h -15.7292 q 0.1042,4.02084 2.0209,6.10418 1.9375,2.08333 5.4375,2.08333 3.6875,0 7.2917,-1.54167 v 3.08334 q -1.8334,0.79167 -3.4792,1.125 -1.625,0.35417 -3.9375,0.35417 z m -0.9375,-20.77085 q -2.75,0 -4.3959,1.79167 -1.625,1.79166 -1.9166,4.95833 h 11.9375 q 0,-3.27083 -1.4583,-5 -1.4584,-1.75 -4.1667,-1.75 z m 30.7708,17.29168 h -0.1875 q -2.3958,3.47917 -7.1666,3.47917 -4.4792,0 -6.9792,-3.06251 -2.4792,-3.0625 -2.4792,-8.70834 0,-5.64583 2.5,-8.77084 2.5,-3.125 6.9584,-3.125 4.6458,0 7.125,3.375 h 0.2708 l -0.1458,-1.64583 -0.083,-1.60417 v -9.29167 h 3.4584 v 32.41669 h -2.8125 z m -6.9166,0.58333 q 3.5416,0 5.125,-1.91667 1.6041,-1.9375 1.6041,-6.22917 v -0.72917 q 0,-4.85417 -1.625,-6.91667 -1.6041,-2.08333 -5.1458,-2.08333 -3.0417,0 -4.6667,2.375 -1.6041,2.35417 -1.6041,6.66667 0,4.375 1.6041,6.60417 1.6042,2.22917 4.7084,2.22917 z m 27.1666,2.89584 q -5.0625,0 -8,-3.08334 -2.9166,-3.08333 -2.9166,-8.56251 0,-5.52083 2.7083,-8.77084 2.7292,-3.25 7.3125,-3.25 4.2917,0 6.7917,2.83334 2.5,2.8125 2.5,7.4375 v 2.1875 h -15.7292 q 0.1042,4.02084 2.0208,6.10418 1.9375,2.08333 5.4375,2.08333 3.6875,0 7.2917,-1.54167 v 3.08334 q -1.8333,0.79167 -3.4792,1.125 -1.625,0.35417 -3.9375,0.35417 z m -0.9375,-20.77085 q -2.75,0 -4.3958,1.79167 -1.625,1.79166 -1.9167,4.95833 h 11.9375 q 0,-3.27083 -1.4583,-5 -1.4583,-1.75 -4.1667,-1.75 z"
           id="text1"
           style="-inkscape-font-specification:'Open Sans';stroke-width:1.13386"
           transform="matrix(0.26458333,0,0,0.26458333,-22.472619,3.7185181)"
           aria-label="ProblemDede" />
      </g>
      <g
         id="g2"
         transform="translate(-518.00002)">
        <rect
           style="fill:#ffe680;stroke:none;stroke-width:0.207015"
           id="rect15"
           width="43.284023"
           height="21.19849"
           x="531.22919"
           y="251.32231" />
        <path
           d="m 1803.0768,990.41221 h -3.375 v -21.70835 q 0,-2.70834 0.1667,-5.125 -0.4375,0.4375 -0.9792,0.91666 -0.5416,0.47917 -4.9583,4.06251 l -1.8333,-2.37501 8.0625,-6.22917 h 2.9166 z"
           id="text16"
           style="-inkscape-font-specification:'Open Sans';stroke-width:1.13386"
           transform="matrix(0.26458333,0,0,0.26458333,76.55127,3.539373)"
           aria-label="1" />
      </g>
      <g
         id="g9"
         transform="translate(0.36756569,0.18992648)">
        <path
           style="-inkscape-font-specification:'Open Sans';stroke-width:1.13386"
           d="m 721.41619,167.38594 q 0,16.50003 -11.91669,26.00005 -11.83336,9.50002 -33.00007,9.50002 -19.50004,0 -34.50006,-7.33335 v -24.00005 q 12.33335,5.50002 20.83337,7.75002 8.58335,2.25 15.6667,2.25 8.50001,0 13.00002,-3.25 4.58335,-3.25001 4.58335,-9.66669 0,-3.58334 -2.00001,-6.33334 -2,-2.83334 -5.91668,-5.41668 -3.83334,-2.58334 -15.75003,-8.25002 -11.16669,-5.25001 -16.75003,-10.08335 -5.58335,-4.83334 -8.91669,-11.25002 -3.33334,-6.41668 -3.33334,-15.00003 0,-16.166703 10.91669,-25.416721 11.00002,-9.250019 30.3334,-9.250019 9.50002,0 18.08337,2.250005 8.66668,2.250004 18.08337,6.333346 l -8.33335,20.083369 q -9.75002,-4 -16.1667,-5.58334 -6.33335,-1.583337 -12.50003,-1.583337 -7.33335,0 -11.25002,3.416677 -3.91668,3.41667 -3.91668,8.91668 0,3.41667 1.58334,6.00001 1.58334,2.50001 5.00001,4.91668 3.50001,2.33334 16.4167,8.50002 17.08337,8.16668 23.41671,16.4167 6.33335,8.16668 6.33335,20.08337 z M 842.66644,79.385764 v 78.833486 q 0,13.50003 -6.08335,23.66672 -6.00001,10.16669 -17.4167,15.58336 -11.41669,5.41668 -27.00006,5.41668 -23.50004,0 -36.50007,-12.00002 -13.00002,-12.08336 -13.00002,-33.00007 V 79.385764 h 25.75005 v 74.583486 q 0,14.08336 5.66668,20.6667 5.66667,6.58335 18.75003,6.58335 12.66669,0 18.33337,-6.58335 5.75001,-6.66668 5.75001,-20.83337 V 79.385764 Z M 980.58339,201.21934 h -32.8334 l -53.00011,-92.16685 h -0.75 q 1.58334,24.41672 1.58334,34.8334 v 57.33345 H 872.49984 V 79.385764 h 32.5834 l 52.91677,91.250186 h 0.58333 q -1.25,-23.75005 -1.25,-33.5834 V 79.385764 h 23.25005 z M 1110.417,79.385764 v 78.833486 q 0,13.50003 -6.0834,23.66672 -6,10.16669 -17.4167,15.58336 -11.4167,5.41668 -27,5.41668 -23.5001,0 -36.5001,-12.00002 -13,-12.08336 -13,-33.00007 V 79.385764 h 25.75 v 74.583486 q 0,14.08336 5.6667,20.6667 5.6667,6.58335 18.75,6.58335 12.6667,0 18.3334,-6.58335 5.75,-6.66668 5.75,-20.83337 V 79.385764 Z m 81.4168,121.833576 -29.3334,-95.58352 h -0.75 q 1.5833,29.16672 1.5833,38.91674 v 56.66678 h -23.0833 V 79.385764 h 35.1667 l 28.8334,93.166856 h 0.5 l 30.5834,-93.166856 h 35.1667 V 201.21934 h -24.0834 v -57.66678 q 0,-4.08334 0.083,-9.41669 0.1666,-5.33334 1.1666,-28.33339 h -0.75 l -31.4167,95.41686 z"
           id="text3"
           transform="matrix(0.26458333,0,0,0.26458333,0.74507021,85.877389)"
           aria-label="SUNUM" />
        <path
           style="-inkscape-font-specification:'Open Sans';stroke-width:1.13386"
           d="m 467.08235,201.21934 h -13.50003 v -86.83351 q 0,-10.83335 0.66667,-20.500037 -1.75,1.750003 -3.91667,3.666674 -2.16668,1.91667 -19.83338,16.250033 l -7.33335,-9.50002 32.25007,-24.916716 h 11.66669 z m 126.41692,-69.83347 q 0,71.50014 -55.33345,71.50014 -9.66668,0 -15.33336,-1.66667 v -11.91669 q 6.66668,2.16667 15.1667,2.16667 20.00004,0 30.16672,-12.33336 10.25002,-12.41669 11.16669,-38.00007 h -1 q -4.58334,6.91668 -12.16669,10.58335 -7.58335,3.58334 -17.08337,3.58334 -16.1667,0 -25.66672,-9.66668 -9.50002,-9.66669 -9.50002,-27.00006 0,-19.000036 10.58336,-30.000058 10.66669,-11.000022 28.00005,-11.000022 12.4167,0 21.66671,6.41668 9.33336,6.333346 14.33337,18.58337 5.00001,12.16669 5.00001,28.75006 z M 552.49918,89.469117 q -11.91669,0 -18.4167,7.666682 -6.50001,7.666681 -6.50001,21.333381 0,12.00002 6.00001,18.9167 6.00001,6.83335 18.25004,6.83335 7.58335,0 13.91669,-3.08334 6.41668,-3.08334 10.08335,-8.41669 3.66668,-5.33334 3.66668,-11.16669 0,-8.75001 -3.41667,-16.16669 -3.41668,-7.416686 -9.58336,-11.666694 -6.08334,-4.250009 -14.00003,-4.250009 z M 691.08279,201.21934 H 610.9993 v -11.91669 l 32.0834,-32.25006 q 14.66669,-14.83337 19.33337,-21.16671 4.66668,-6.33335 7.00001,-12.33336 2.33334,-6.00001 2.33334,-12.91669 0,-9.75002 -5.91668,-15.416701 -5.91668,-5.750012 -16.4167,-5.750012 -7.58335,0 -14.41669,2.500005 -6.75002,2.500005 -15.08337,9.083348 l -7.33334,-9.416682 Q 629.416,77.63576 649.24938,77.63576 q 17.1667,0 26.91672,8.833351 9.75002,8.750018 9.75002,23.583379 0,11.58336 -6.50002,22.91671 -6.50001,11.33336 -24.33338,28.66673 L 628.416,187.71931 v 0.66667 h 62.66679 z m 98.2502,-61.08345 q 0,31.58339 -10.00002,47.16676 -9.91669,15.58336 -30.41673,15.58336 -19.66671,0 -29.91673,-15.9167 -10.25002,-16.00003 -10.25002,-46.83342 0,-31.8334 9.91669,-47.250099 9.91669,-15.416698 30.25006,-15.416698 19.83337,0 30.08339,16.083366 10.33336,16.083361 10.33336,46.583431 z m -66.58347,0 q 0,26.58338 6.25001,38.75007 6.25002,12.08336 19.91671,12.08336 13.83336,0 20.00004,-12.25002 6.25001,-12.33336 6.25001,-38.58341 0,-26.25006 -6.25001,-38.41675 -6.16668,-12.250023 -20.00004,-12.250023 -13.66669,0 -19.91671,12.083353 -6.25001,12.00003 -6.25001,38.58342 z m 111.75022,14.33336 -31.75006,-44.58343 h 15.75003 l 24.08338,35.00007 24.00005,-35.00007 h 15.58336 l -31.75006,44.58343 33.41673,46.75009 h -15.66669 l -25.58339,-37.00007 -25.83338,37.00007 h -15.6667 z m 112.33356,46.75009 h -13.50003 v -86.83351 q 0,-10.83335 0.66667,-20.500037 -1.75001,1.750003 -3.91668,3.666674 -2.16667,1.91667 -19.83337,16.250033 l -7.33335,-9.50002 32.25007,-24.916716 h 11.66669 z m 127.0836,-61.08345 q 0,31.58339 -10,47.16676 -9.9167,15.58336 -30.4168,15.58336 -19.6667,0 -29.9167,-15.9167 -10.25001,-16.00003 -10.25001,-46.83342 0,-31.8334 9.91671,-47.250099 9.9167,-15.416698 30.25,-15.416698 19.8334,0 30.0834,16.083366 10.3334,16.083361 10.3334,46.583431 z m -66.5835,0 q 0,26.58338 6.25,38.75007 6.25,12.08336 19.9167,12.08336 13.8334,0 20.0001,-12.25002 6.25,-12.33336 6.25,-38.58341 0,-26.25006 -6.25,-38.41675 -6.1667,-12.250023 -20.0001,-12.250023 -13.6667,0 -19.9167,12.083353 -6.25,12.00003 -6.25,38.58342 z m 123.7503,-62.50013 q 16.6667,0 26.4167,7.750016 9.75,7.750015 9.75,21.416714 0,9.00001 -5.5833,16.41669 -5.5834,7.41669 -17.8334,13.50003 14.8334,7.08335 21.0834,14.9167 6.25,7.75001 6.25,18.00003 0,15.1667 -10.5834,24.25005 -10.5833,9.00002 -29,9.00002 -19.5,0 -30.0001,-8.50002 -10.5,-8.58335 -10.5,-24.25005 0,-20.9167 25.5001,-32.58339 -11.5001,-6.50002 -16.5001,-14.00003 -5,-7.58335 -5,-16.9167 0,-13.250028 9.75,-21.083377 9.8334,-7.916683 26.2501,-7.916683 z m -26.3334,92.83352 q 0,10.00002 6.9167,15.58336 7,5.58335 19.5834,5.58335 12.4166,0 19.3333,-5.83335 6.9167,-5.83334 6.9167,-16.00003 0,-8.08335 -6.5,-14.33336 -6.5,-6.33335 -22.6667,-12.25003 -12.4167,5.33335 -18.0001,11.83336 -5.5833,6.41668 -5.5833,15.4167 z m 26.1667,-81.583497 q -10.4167,0 -16.3333,5.00001 -5.9167,5.00001 -5.9167,13.333357 0,7.66668 4.9167,13.1667 4.9166,5.50001 18.1667,11.00002 11.9166,-5.00001 16.8333,-10.75002 5,-5.75002 5,-13.4167 0,-8.416681 -6.0833,-13.333357 -6,-5.00001 -16.5834,-5.00001 z m 138.1669,51.250107 q 0,31.58339 -10,47.16676 -9.9167,15.58336 -30.4167,15.58336 -19.6667,0 -29.9167,-15.9167 -10.2501,-16.00003 -10.2501,-46.83342 0,-31.8334 9.9167,-47.250099 9.9167,-15.416698 30.2501,-15.416698 19.8334,0 30.0834,16.083366 10.3333,16.083361 10.3333,46.583431 z m -66.5834,0 q 0,26.58338 6.25,38.75007 6.25,12.08336 19.9167,12.08336 13.8333,0 20,-12.25002 6.25,-12.33336 6.25,-38.58341 0,-26.25006 -6.25,-38.41675 -6.1667,-12.250023 -20,-12.250023 -13.6667,0 -19.9167,12.083353 -6.25,12.00003 -6.25,38.58342 z m 176.5836,62.75012 q -8.9166,0 -16.3333,-3.25001 -7.3334,-3.33334 -12.3334,-10.16668 h -1 q 1,8.00001 1,15.16669 v 37.58341 h -13.8334 v -132.3336 h 11.2501 l 1.9166,12.50003 h 0.6667 q 5.3334,-7.50002 12.4167,-10.83336 7.0833,-3.33334 16.25,-3.33334 18.1667,0 28.0001,12.4167 9.9167,12.41669 9.9167,34.8334 0,22.50004 -10.0834,35.00007 -10,12.41669 -27.8334,12.41669 z m -2,-82.91683 q -14,0 -20.25,7.75001 -6.25,7.75002 -6.4167,24.66672 v 3.08334 q 0,19.25004 6.4167,27.58339 6.4167,8.25001 20.5834,8.25001 11.8333,0 18.5,-9.58335 6.75,-9.58335 6.75,-26.41672 0,-17.08337 -6.75,-26.16672 -6.6667,-9.16668 -18.8334,-9.16668 z m 82.6669,34.50007 -31.75,-44.58343 h 15.75 l 24.0834,35.00007 24,-35.00007 h 15.5834 l -31.7501,44.58343 33.4168,46.75009 h -15.6667 l -25.5834,-37.00007 -25.8334,37.00007 h -15.6667 z"
           id="text2"
           transform="matrix(0.15267871,0,0,0.15267871,106.49328,142.17156)"
           aria-label="1920x1080 px" />
      </g>
    </g>
  </g>
</svg>
