<?xml version="1.0" encoding="UTF-8" standalone="no"?>
<!-- Created with Inkscape (http://www.inkscape.org/) -->

<svg
   width="1080"
   height="1080"
   viewBox="0 0 285.74999 285.75"
   version="1.1"
   id="svg1"
   inkscape:version="1.3 (0e150ed6c4, 2023-07-21)"
   sodipodi:docname="A4.svg"
   xmlns:inkscape="http://www.inkscape.org/namespaces/inkscape"
   xmlns:sodipodi="http://sodipodi.sourceforge.net/DTD/sodipodi-0.dtd"
   xmlns="http://www.w3.org/2000/svg"
   xmlns:svg="http://www.w3.org/2000/svg">
  <sodipodi:namedview
     id="namedview1"
     pagecolor="#ffffff"
     bordercolor="#000000"
     borderopacity="0.25"
     inkscape:showpageshadow="2"
     inkscape:pageopacity="0.0"
     inkscape:pagecheckerboard="0"
     inkscape:deskcolor="#d1d1d1"
     inkscape:document-units="mm"
     inkscape:zoom="0.56784229"
     inkscape:cx="711.46515"
     inkscape:cy="638.38148"
     inkscape:window-width="1920"
     inkscape:window-height="1011"
     inkscape:window-x="0"
     inkscape:window-y="0"
     inkscape:window-maximized="1"
     inkscape:current-layer="layer1" />
  <defs
     id="defs1" />
  <g
     inkscape:label="Katman 1"
     inkscape:groupmode="layer"
     id="layer1">
    <g
       id="g1"
       transform="matrix(0.96212117,0,0,0.96212117,41.852286,3.769437e-7)">
      <rect
         style="fill:#ffffff;stroke:#000000;stroke-width:0.3;stroke-dasharray:none"
         id="rect1"
         width="209.69998"
         height="296.70001"
         x="0.15000001"
         y="0.15000001" />
      <path
         style="color:#000000;font-style:normal;font-variant:normal;font-weight:normal;font-stretch:normal;font-size:medium;line-height:normal;font-family:sans-serif;font-variant-ligatures:normal;font-variant-position:normal;font-variant-caps:normal;font-variant-numeric:normal;font-variant-alternates:normal;font-feature-settings:normal;text-indent:0;text-align:start;text-decoration:none;text-decoration-line:none;text-decoration-style:solid;text-decoration-color:#000000;letter-spacing:normal;word-spacing:normal;text-transform:none;writing-mode:lr-tb;direction:ltr;text-orientation:mixed;dominant-baseline:auto;baseline-shift:baseline;text-anchor:start;white-space:normal;shape-padding:0;clip-rule:nonzero;display:inline;overflow:visible;visibility:visible;isolation:auto;mix-blend-mode:normal;color-interpolation:sRGB;color-interpolation-filters:linearRGB;solid-color:#000000;solid-opacity:1;vector-effect:none;fill:#000000;fill-opacity:1;fill-rule:nonzero;stroke:none;stroke-width:0.499999;stroke-linecap:butt;stroke-linejoin:miter;stroke-miterlimit:4;stroke-dasharray:none;stroke-dashoffset:0;stroke-opacity:1;color-rendering:auto;image-rendering:auto;shape-rendering:auto;text-rendering:auto;enable-background:accumulate"
         d="m 10,10 v 7.224882 0.249597 0.250114 H 200.00028 V 17.224882 H 10.500228 V 10 Z"
         id="path6776" />
      <g
         id="g914"
         transform="matrix(0.55400497,0,0,0.55400497,40.086157,-38.89023)">
        <circle
           style="opacity:1;fill:#000000;fill-opacity:1;stroke:none;stroke-width:0.635006;stroke-linecap:round;stroke-linejoin:bevel;stroke-miterlimit:4;stroke-dasharray:none;stroke-dashoffset:0;stroke-opacity:1"
           id="path952-3"
           cx="282.13547"
           cy="94.785439"
           r="5.9602871" />
        <path
           style="fill:#ffffff;fill-opacity:1;stroke:none;stroke-width:0.0531143px;stroke-linecap:butt;stroke-linejoin:miter;stroke-opacity:1"
           d="m 1073.0176,9.1972656 c -2.3876,-0.050088 -5.6935,0.4528261 -7.2735,0.9394534 -2.1066,0.648831 -3.416,1.972656 -3.416,1.972656 0,0 -1.9037,-2.156838 -3.2617,-2.2011719 -1.3579,-0.044334 -2.4637,1.5077159 -3.6426,2.1249999 -1.1789,0.617284 -2.32,0.07088 -3.414,1.59375 -1.0939,1.52287 -0.8983,5.345302 -0.834,7.435547 0.021,0.670143 10e-5,1.681261 -0.031,2.736328 -0.7331,0.0047 -1.5903,0.227143 -2.2129,1.091797 -1.3103,1.819725 0,4.07866 0,5.349609 0,1.27095 -0.1768,1.341938 0,2.275391 0.1768,0.93346 0.6111,2.267166 1.252,3.1875 0.2366,0.339779 0.6298,0.701346 1.0312,1.037109 -0.043,0.741639 -0.1841,3.307978 -0.066,4.509766 0.1357,1.387559 0.2266,2.308064 0.6973,3.220703 0.4708,0.912635 0.6406,1.290339 1.9316,2.119141 1.2911,0.828805 4.1791,1.651929 6.0372,1.93164 1.858,0.279723 3.8196,-0.354517 4.9355,-0.05469 1.116,0.29983 1.7168,1.019531 1.7168,1.019531 0,0 1.1751,-1.039368 2.3867,-1.314453 1.2116,-0.275112 3.1834,0.426182 4.7227,0.267578 1.5392,-0.158627 3.2153,-0.623031 4.3984,-1.179687 1.1832,-0.556657 2.0061,-1.037073 2.6836,-1.904297 0.6775,-0.86722 1.207,-3.085938 1.207,-3.085938 l -0.074,-5.505859 c 0.2777,-0.253214 0.5325,-0.512818 0.7031,-0.757813 0.6409,-0.920326 1.0752,-2.25209 1.252,-3.185547 0.1769,-0.933456 0,-1.00639 0,-2.277343 0,-1.270946 1.3103,-3.52988 0,-5.34961 -0.718,-0.997157 -1.7452,-1.14374 -2.5352,-1.080078 0,-0.129698 0,-0.272842 0.012,-0.394531 0.1436,-1.953668 1.5913,-3.517343 1.5937,-4.705078 0,-1.187739 -0.3585,-0.988981 -0.6836,-2.048828 -0.3252,-1.059852 -0.273,-3.34237 -1.2148,-4.324219 -0.9419,-0.981842 -2.493,-0.583444 -3.4903,-1.138672 -0.9972,-0.555224 -0.4524,-1.408236 -2.4277,-2.048828 -0.4938,-0.160148 -1.1866,-0.2391633 -1.9824,-0.2558594 z"
           transform="matrix(0.26458333,0,0,0.26458333,0,87)"
           id="path1290-6"
           inkscape:connector-curvature="0" />
        <path
           inkscape:connector-curvature="0"
           style="fill:#000000;fill-opacity:1;stroke:none;stroke-width:0.0140532px;stroke-linecap:butt;stroke-linejoin:miter;stroke-opacity:1"
           d="m 279.86701,92.812206 c -0.73887,-5.49e-4 -2.19048,0.12969 -2.19048,0.12969 l -0.0569,0.534239 c 0,0 0.14574,0.260507 0.23087,0.567149 0.0851,0.306643 0.11965,2.154558 1.9062,2.241038 1.78653,0.08648 2.15916,-2.361505 2.15916,-2.361505 l 0.38646,0.01004 c 0,0 0.33273,2.413692 2.09524,2.379869 1.7625,-0.03382 1.8889,-1.73427 1.93,-2.08876 0.0411,-0.35449 0.27604,-0.682593 0.27604,-0.682593 l -0.0602,-0.567149 c 0,0 -1.32456,-0.158888 -2.03873,-0.145884 -0.71416,0.013 -1.76236,0.240002 -2.22874,0.241319 -0.46638,0.0013 -0.17495,-0.01546 -0.55365,-0.05679 -0.37869,-0.04133 -1.0412,-0.178322 -1.71769,-0.198747 -0.0423,-0.0013 -0.0884,-0.0019 -0.13762,-0.0019 z m 0.0383,0.321384 c 1.16916,0.0021 1.49027,0.463013 1.49027,0.463013 0,0 0.0511,1.011774 -0.23089,1.445443 -0.28198,0.433669 -0.8405,0.887073 -1.37517,0.89339 -0.5347,0.0063 -1.05519,-0.383918 -1.33506,-0.823125 -0.27987,-0.439206 -0.18068,-1.545846 -0.18068,-1.545846 0,0 0.25181,-0.402182 1.51574,-0.431613 0.0395,-9.2e-4 0.0781,-0.0013 0.11579,-0.0013 z m 4.34232,0 c 0.0377,-7.1e-5 0.0763,3.43e-4 0.11579,0.0013 1.26393,0.02943 1.51574,0.431613 1.51574,0.431613 0,0 0.0992,1.10664 -0.18068,1.545846 -0.27987,0.439207 -0.80037,0.829442 -1.33506,0.823125 -0.53468,-0.0063 -1.09322,-0.459721 -1.3752,-0.893391 -0.28198,-0.433668 -0.23086,-1.445443 -0.23086,-1.445443 0,0 0.32111,-0.460959 1.49027,-0.463012 z"
           id="path1234-7" />
        <path
           style="opacity:1;fill:#000000;fill-opacity:1;stroke:none;stroke-width:0.00765969;stroke-miterlimit:4;stroke-dasharray:none;stroke-dashoffset:0;stroke-opacity:1"
           d="m 280.30801,94.006063 c -0.13564,-6.47e-4 -0.25917,0.03032 -0.36856,0.07694 a 0.48402336,0.46075305 0 0 0 -0.0902,0.267229 0.48402336,0.46075305 0 0 0 0.31387,0.430735 c 0.0841,0.01632 0.16664,0.02573 0.2425,0.02412 10e-4,-2.8e-5 0.003,-1.54e-4 0.004,-1.92e-4 a 0.48402336,0.46075305 0 0 0 0.40732,-0.454669 0.48402336,0.46075305 0 0 0 -0.0809,-0.254493 c -0.0908,-0.03674 -0.19562,-0.06615 -0.31658,-0.08204 -0.0381,-0.005 -0.0754,-0.0075 -0.11182,-0.0076 z"
           id="path1244-5"
           inkscape:connector-curvature="0" />
        <ellipse
           style="opacity:1;fill:#ffffff;fill-opacity:1;stroke:none;stroke-width:0.00531143;stroke-miterlimit:4;stroke-dasharray:none;stroke-dashoffset:0;stroke-opacity:1"
           id="path1254-3"
           cx="280.26138"
           cy="94.221451"
           rx="0.15558842"
           ry="0.15809791" />
        <path
           inkscape:connector-curvature="0"
           id="path1264-5"
           d="m 284.07001,93.974124 c 0.13565,-6.38e-4 0.25918,0.03032 0.36856,0.07693 a 0.4840235,0.46075319 0 0 1 0.0902,0.267229 0.4840235,0.46075319 0 0 1 -0.31387,0.430735 c -0.0841,0.01632 -0.16663,0.02573 -0.24249,0.02412 -0.001,-2.8e-5 -0.003,-1.59e-4 -0.004,-2.12e-4 a 0.4840235,0.46075319 0 0 1 -0.40732,-0.454669 0.4840235,0.46075319 0 0 1 0.0809,-0.254493 c 0.0908,-0.03674 0.19563,-0.06615 0.31658,-0.08204 0.0381,-0.005 0.0754,-0.0075 0.11183,-0.0076 z"
           style="opacity:1;fill:#000000;fill-opacity:1;stroke:none;stroke-width:0.00765969;stroke-miterlimit:4;stroke-dasharray:none;stroke-dashoffset:0;stroke-opacity:1" />
        <ellipse
           ry="0.15809792"
           rx="0.15558842"
           cy="94.189514"
           cx="-283.94986"
           id="ellipse1268-6"
           style="opacity:1;fill:#ffffff;fill-opacity:1;stroke:none;stroke-width:0.00531143;stroke-miterlimit:4;stroke-dasharray:none;stroke-dashoffset:0;stroke-opacity:1"
           transform="scale(-1,1)" />
      </g>
      <path
         style="font-weight:bold;font-size:16px;line-height:1.25;font-family:Arimo;-inkscape-font-specification:'Arimo Bold';letter-spacing:0px;word-spacing:0px"
         d="m 48.623047,70.044922 q 0,1.5 -1.125,2.320312 -1.125,0.820313 -3.125,0.820313 H 38.865234 V 62.177734 h 5.039063 q 2.015625,0 3.046875,0.703125 1.039062,0.695313 1.039062,2.0625 0,0.9375 -0.523437,1.585938 -0.515625,0.640625 -1.578125,0.867187 1.335937,0.15625 2.03125,0.84375 0.703125,0.679688 0.703125,1.804688 z m -2.953125,-4.789063 q 0,-0.742187 -0.476563,-1.054687 -0.46875,-0.3125 -1.398437,-0.3125 h -2.625 v 2.726562 h 2.640625 q 0.976562,0 1.414062,-0.335937 0.445313,-0.34375 0.445313,-1.023438 z m 0.640625,4.609375 q 0,-1.546875 -2.21875,-1.546875 h -2.921875 v 3.15625 h 3.007812 q 1.109375,0 1.617188,-0.398437 0.515625,-0.40625 0.515625,-1.210938 z m 11.890625,3.320313 -0.976563,-2.8125 h -4.195312 l -0.976563,2.8125 h -2.304687 l 4.015625,-11.007813 h 2.71875 l 4,11.007813 z m -3.078125,-9.3125 -0.04687,0.171875 q -0.07813,0.28125 -0.1875,0.640625 -0.109375,0.359375 -1.34375,3.953125 h 3.164062 l -1.085937,-3.164063 -0.335938,-1.0625 z m 15.828125,6.140625 q 0,1.617187 -1.203125,2.476562 -1.195313,0.851563 -3.515625,0.851563 -2.117188,0 -3.320313,-0.75 -1.203125,-0.75 -1.546875,-2.273438 l 2.226563,-0.367187 q 0.226562,0.875 0.882812,1.273437 0.65625,0.390625 1.820313,0.390625 2.414062,0 2.414062,-1.46875 0,-0.46875 -0.28125,-0.773437 -0.273437,-0.304688 -0.78125,-0.507813 -0.5,-0.203125 -1.929687,-0.492187 -1.234375,-0.289063 -1.71875,-0.460938 -0.484375,-0.179687 -0.875,-0.414062 -0.390625,-0.242188 -0.664063,-0.578125 -0.273437,-0.335938 -0.429687,-0.789063 -0.148438,-0.453125 -0.148438,-1.039062 0,-1.492188 1.117188,-2.28125 1.125,-0.796875 3.265625,-0.796875 2.046875,0 3.070312,0.640625 1.03125,0.640625 1.328125,2.117187 l -2.234375,0.304688 q -0.171875,-0.710938 -0.703125,-1.070313 -0.523437,-0.359375 -1.507812,-0.359375 -2.09375,0 -2.09375,1.3125 0,0.429688 0.21875,0.703125 0.226562,0.273438 0.664062,0.46875 0.4375,0.1875 1.773438,0.476563 1.585937,0.335937 2.265625,0.625 0.6875,0.28125 1.085937,0.664062 0.398438,0.375 0.609375,0.90625 0.210938,0.523438 0.210938,1.210938 z m -2.84375,5.007812 q 0,0.734375 -0.609375,1.109375 -0.609375,0.375 -1.757813,0.375 -0.351562,0 -0.789062,-0.04687 v -0.921875 q 0.273437,0.05469 0.65625,0.05469 1.070312,0 1.070312,-0.539063 0,-0.273437 -0.21875,-0.40625 -0.21875,-0.132812 -0.734375,-0.132812 -0.296875,0 -0.40625,0.01563 l 0.484375,-1.34375 h 1.117188 l -0.257813,0.640625 q 0.734375,0.03906 1.085938,0.359375 0.359375,0.320312 0.359375,0.835937 z m 4.539062,-1.835937 V 62.177734 h 2.304688 v 9.226563 h 5.90625 v 1.78125 z m 9.773438,0 V 62.177734 h 2.304687 v 11.007813 z m 12.0625,0 -3.953125,-5.054688 -1.359375,1.039063 v 4.015625 H 86.865234 V 62.177734 h 2.304688 v 4.992188 l 4.960937,-4.992188 h 2.6875 l -4.703125,4.65625 5.085938,6.351563 z"
         id="flowRoot6778"
         transform="matrix(0.26458333,0,0,0.26458333,1.7498131,-4.256625)"
         aria-label="BAŞLIK" />
      <path
         style="color:#000000;font-style:normal;font-variant:normal;font-weight:normal;font-stretch:normal;font-size:medium;line-height:normal;font-family:sans-serif;font-variant-ligatures:normal;font-variant-position:normal;font-variant-caps:normal;font-variant-numeric:normal;font-variant-alternates:normal;font-feature-settings:normal;text-indent:0;text-align:start;text-decoration:none;text-decoration-line:none;text-decoration-style:solid;text-decoration-color:#000000;letter-spacing:normal;word-spacing:normal;text-transform:none;writing-mode:lr-tb;direction:ltr;text-orientation:mixed;dominant-baseline:auto;baseline-shift:baseline;text-anchor:start;white-space:normal;shape-padding:0;clip-rule:nonzero;display:inline;overflow:visible;visibility:visible;isolation:auto;mix-blend-mode:normal;color-interpolation:sRGB;color-interpolation-filters:linearRGB;solid-color:#000000;solid-opacity:1;vector-effect:none;fill:#000000;fill-opacity:1;fill-rule:nonzero;stroke:none;stroke-width:0.499999;stroke-linecap:butt;stroke-linejoin:miter;stroke-miterlimit:4;stroke-dasharray:none;stroke-dashoffset:0;stroke-opacity:1;color-rendering:auto;image-rendering:auto;shape-rendering:auto;text-rendering:auto;enable-background:accumulate"
         d="m 10,286.49992 v 0.50022 h 90.00019 v -0.50022 z m 100.00009,0 v 0.50022 h 90.00019 v -0.50022 z"
         id="path6793" />
      <path
         style="font-size:16px;line-height:1.25;font-family:Arimo;-inkscape-font-specification:Arimo;text-align:center;letter-spacing:0px;word-spacing:0px;text-anchor:middle"
         d="m 65.222656,73.185547 v -1.195313 h 2.804688 v -8.46875 l -2.484375,1.773438 v -1.328125 l 2.601562,-1.789063 h 1.296875 v 9.8125 h 2.679688 v 1.195313 z"
         id="flowRoot6801"
         transform="matrix(0.26458333,0,0,0.26458333,86.825507,268.79347)"
         aria-label="1" />
      <g
         id="g2"
         transform="translate(-0.05444001,17.657663)">
        <path
           style="font-size:13.3231px;line-height:1.25;font-family:Arimo;-inkscape-font-specification:Arimo;letter-spacing:0px;word-spacing:0px"
           d="M 45.386747,49.795763 44.339374,47.11553 h -4.176479 l -1.053878,2.680233 h -1.288073 l 3.740616,-9.166137 h 1.411676 l 3.682068,9.166137 z m -3.135612,-8.229356 -0.05855,0.182152 q -0.162636,0.53995 -0.481401,1.385654 l -1.170976,3.01201 h 3.428356 L 42.791083,43.121202 Q 42.608932,42.672328 42.42678,42.106357 Z m 10.161466,6.154127 v 2.075229 H 51.30668 v -2.075229 h -4.319599 v -0.910759 l 4.195996,-6.180149 h 1.229524 v 6.167139 h 1.288073 v 0.923769 z M 51.30668,41.950227 q -0.01301,0.03903 -0.182152,0.344787 -0.169141,0.305755 -0.253712,0.429358 l -2.348456,3.460883 -0.351293,0.481401 -0.104087,0.130109 h 3.2397 z"
           id="flowRoot6828"
           transform="matrix(7.4140508,0,0,7.4140508,-234.21852,-220.04156)"
           aria-label="A4" />
        <path
           style="font-size:2.85494px;line-height:1.25;font-family:Arimo;-inkscape-font-specification:Arimo;letter-spacing:0px;word-spacing:0px"
           d="m 37.938505,40.366522 v -0.17704 q 0.07109,-0.1631 0.172858,-0.287167 0.103157,-0.125461 0.216072,-0.22583 0.112915,-0.101763 0.223042,-0.188192 0.111521,-0.08643 0.200738,-0.172858 0.08922,-0.08643 0.143584,-0.181221 0.05576,-0.09479 0.05576,-0.214679 0,-0.161705 -0.09479,-0.250922 -0.09479,-0.08922 -0.263468,-0.08922 -0.160312,0 -0.264863,0.08782 -0.103157,0.08643 -0.121279,0.243952 l -0.256499,-0.0237 q 0.02788,-0.235588 0.199344,-0.374989 0.172858,-0.139402 0.443297,-0.139402 0.296925,0 0.455842,0.140796 0.160312,0.139401 0.160312,0.397293 0,0.11431 -0.05297,0.227225 -0.05158,0.112915 -0.154735,0.22583 -0.103157,0.112915 -0.394506,0.349897 -0.160312,0.131038 -0.255105,0.236983 -0.09479,0.104551 -0.136613,0.202132 h 1.0246 v 0.213284 z m 1.661665,0 v -0.213284 h 0.50045 v -1.511111 l -0.443296,0.316441 v -0.236982 l 0.464207,-0.31923 h 0.231406 v 1.750882 h 0.478147 v 0.213284 z m 2.846575,-0.98278 q 0,0.492087 -0.174251,0.751373 -0.172858,0.259287 -0.511603,0.259287 -0.338746,0 -0.508815,-0.257893 -0.17007,-0.257892 -0.17007,-0.752767 0,-0.506027 0.164494,-0.758343 0.165887,-0.252317 0.522755,-0.252317 0.347109,0 0.511603,0.255105 0.165887,0.255104 0.165887,0.755555 z m -0.255104,0 q 0,-0.425174 -0.09897,-0.616154 -0.09758,-0.19098 -0.323411,-0.19098 -0.231406,0 -0.333169,0.188192 -0.100369,0.188192 -0.100369,0.618942 0,0.418204 0.101763,0.611972 0.103157,0.193768 0.326199,0.193768 0.221648,0 0.324805,-0.19795 0.103157,-0.19795 0.103157,-0.60779 z m 1.483231,0.98278 -0.405658,-0.618942 -0.408446,0.618942 h -0.270439 l 0.536695,-0.775072 -0.511603,-0.733251 h 0.277409 l 0.376384,0.58688 0.373595,-0.58688 h 0.280197 l -0.511603,0.730463 0.543665,0.77786 z m 0.454448,0 v -0.17704 q 0.07109,-0.1631 0.172857,-0.287167 0.103157,-0.125461 0.216073,-0.22583 0.112915,-0.101763 0.223042,-0.188192 0.111521,-0.08643 0.200738,-0.172858 0.08922,-0.08643 0.143583,-0.181221 0.05576,-0.09479 0.05576,-0.214679 0,-0.161705 -0.09479,-0.250922 -0.09479,-0.08922 -0.263469,-0.08922 -0.160311,0 -0.264862,0.08782 -0.103157,0.08643 -0.12128,0.243952 l -0.256498,-0.0237 q 0.02788,-0.235588 0.199344,-0.374989 0.172858,-0.139402 0.443296,-0.139402 0.296925,0 0.455843,0.140796 0.160311,0.139401 0.160311,0.397293 0,0.11431 -0.05297,0.227225 -0.05158,0.112915 -0.154736,0.22583 -0.103157,0.112915 -0.394506,0.349897 -0.160311,0.131038 -0.255104,0.236983 -0.09479,0.104551 -0.136614,0.202132 h 1.024601 v 0.213284 z m 2.89676,-1.021812 q 0,0.506027 -0.185404,0.777859 -0.18401,0.271833 -0.525543,0.271833 -0.230012,0 -0.369414,-0.09619 -0.138007,-0.09758 -0.197949,-0.313653 l 0.23977,-0.03764 q 0.07528,0.245346 0.331775,0.245346 0.216072,0 0.334563,-0.200738 0.118492,-0.200738 0.124068,-0.57294 -0.05576,0.125462 -0.19098,0.202132 -0.13522,0.07528 -0.296925,0.07528 -0.264863,0 -0.42378,-0.181222 -0.158918,-0.181221 -0.158918,-0.480934 0,-0.308077 0.172858,-0.483723 0.172857,-0.17704 0.480935,-0.17704 0.327593,0 0.496268,0.242559 0.168676,0.242558 0.168676,0.729069 z m -0.273227,-0.242559 q 0,-0.236982 -0.108733,-0.380565 -0.108733,-0.144978 -0.291349,-0.144978 -0.181221,0 -0.285772,0.124067 -0.104551,0.122674 -0.104551,0.33317 0,0.214678 0.104551,0.340139 0.104551,0.124067 0.282984,0.124067 0.108733,0 0.202132,-0.04879 0.0934,-0.05018 0.146372,-0.140796 0.05437,-0.09061 0.05437,-0.206314 z m 1.852645,-0.496269 q -0.301107,0.460025 -0.425174,0.720705 -0.124068,0.260681 -0.186798,0.514392 -0.06134,0.25371 -0.06134,0.525543 h -0.262074 q 0,-0.376384 0.158917,-0.7918 0.160312,-0.41681 0.533907,-0.959081 h -1.055268 v -0.213285 h 1.297827 z m 1.214185,1.76064 v -0.956294 q 0,-0.21886 -0.05994,-0.302501 -0.05994,-0.08364 -0.216073,-0.08364 -0.160311,0 -0.25371,0.122673 -0.0934,0.122673 -0.0934,0.345715 v 0.874047 h -0.249528 v -1.186306 q 0,-0.263469 -0.0084,-0.322017 h 0.236982 q 0.0014,0.007 0.0028,0.03764 0.0014,0.03067 0.0028,0.07109 0.0028,0.03903 0.0056,0.149159 h 0.0042 q 0.08085,-0.160311 0.185404,-0.223042 0.104551,-0.06273 0.255104,-0.06273 0.171464,0 0.270439,0.06831 0.100369,0.06831 0.139401,0.217466 h 0.0042 q 0.07807,-0.151947 0.188192,-0.21886 0.111521,-0.06691 0.269045,-0.06691 0.228618,0 0.331775,0.124067 0.104551,0.124067 0.104551,0.407052 v 1.005084 h -0.248134 v -0.956294 q 0,-0.21886 -0.05994,-0.302501 -0.05994,-0.08364 -0.216072,-0.08364 -0.164494,0 -0.256499,0.122673 -0.09061,0.121279 -0.09061,0.345715 v 0.874047 z m 2.378187,0 v -0.956294 q 0,-0.21886 -0.05994,-0.302501 -0.05994,-0.08364 -0.216072,-0.08364 -0.160312,0 -0.253711,0.122673 -0.0934,0.122673 -0.0934,0.345715 v 0.874047 h -0.249528 v -1.186306 q 0,-0.263469 -0.0084,-0.322017 h 0.236982 q 0.0014,0.007 0.0028,0.03764 0.0014,0.03067 0.0028,0.07109 0.0028,0.03903 0.0056,0.149159 h 0.0042 q 0.08085,-0.160311 0.185404,-0.223042 0.104551,-0.06273 0.255104,-0.06273 0.171464,0 0.270439,0.06831 0.100369,0.06831 0.139401,0.217466 h 0.0042 q 0.07806,-0.151947 0.188191,-0.21886 0.111521,-0.06691 0.269045,-0.06691 0.228618,0 0.331775,0.124067 0.104551,0.124067 0.104551,0.407052 v 1.005084 h -0.248134 v -0.956294 q 0,-0.21886 -0.05994,-0.302501 -0.05994,-0.08364 -0.216072,-0.08364 -0.164493,0 -0.256498,0.122673 -0.09061,0.121279 -0.09061,0.345715 v 0.874047 z"
           id="flowRoot2"
           transform="matrix(7.6555682,0,0,7.6555682,-244.25294,-128.74598)"
           aria-label="210x297mm" />
      </g>
    </g>
  </g>
</svg>
