<svg xmlns="http://www.w3.org/2000/svg" xml:space="preserve" width="300" height="300" viewBox="0 0 79.375 79.375"><defs><marker id="a" markerHeight="1" markerWidth="1" orient="auto-start-reverse" preserveAspectRatio="xMidYMid" refX="0" refY="0" style="overflow:visible" viewBox="0 0 1 1"><path d="m5.77 0-8.65 5V-5Z" style="fill:context-stroke;fill-rule:evenodd;stroke:context-stroke;stroke-width:1pt" transform="scale(.5)"/></marker></defs><path d="M0 0h79.375v79.375H0z" style="fill:#ffe680;stroke-width:.264999;fill-opacity:1"/><rect width="68.792" height="68.792" x="5.292" y="5.292" ry="0" style="fill:#eff1f3;stroke:#000;stroke-width:.264999;fill-opacity:1"/><path d="M5.292 66.528v7.555l68.792.001-.001-7.556z" style="fill:#fff;stroke:#000;stroke-width:.264999"/><rect width="3.969" height="3.969" x="68.403" y="68.125" ry="1.048" style="fill:#f8fafc;stroke:#000;stroke-width:.264999;fill-opacity:1"/><path d="M69.913 69.043h-.355a.237.237 0 0 0-.237.237v.355m2.133 0v-.355a.237.237 0 0 0-.237-.237h-.355m0 2.133h.355a.237.237 0 0 0 .237-.237v-.356m-2.133 0v.356a.237.237 0 0 0 .237.237h.355" style="stroke-width:.118519;stroke:#000;fill:none"/><rect width="3.969" height="3.969" x="63.111" y="68.125" ry="1.048" style="fill:#f8fafc;fill-opacity:1;stroke:#000;stroke-width:.264999"/><path d="M6 9V2h12v7" style="fill:none;stroke:#000" transform="translate(63.738 68.778)scale(.11318)"/><path d="M64.417 70.815h-.227a.226.226 0 0 1-.226-.226v-.566a.226.226 0 0 1 .226-.227h1.811a.226.226 0 0 1 .227.227v.566a.226.226 0 0 1-.227.226h-.226" style="fill:none;stroke:#000;stroke-width:.113177"/><path d="M64.417 70.362h1.358v.905h-1.358z" style="fill:none;stroke:#000;stroke-width:.113177"/><rect width="3.969" height="3.969" x="57.82" y="68.125" ry="1.048" style="fill:#dcfce7;fill-opacity:1;stroke:#000;stroke-width:.264999"/><rect width="3.969" height="3.969" x="52.528" y="68.125" ry="1.048" style="fill:#f8fafc;fill-opacity:1;stroke:#000;stroke-width:.264999"/><rect width="3.969" height="3.969" x="47.236" y="68.125" ry="1.048" style="fill:#f8fafc;fill-opacity:1;stroke:#000;stroke-width:.264999"/><path d="m6 9 6 6 6-6" style="fill:none;stroke:#000;stroke-opacity:1" transform="translate(58.137 68.418)scale(.13892)"/><path d="m6 9 6 6 6-6" style="fill:none;stroke:#000;stroke-opacity:1" transform="matrix(.13892 0 0 -.13892 52.846 71.8)"/><path d="m6 9 6 6 6-6" style="fill:none;stroke:#000;stroke-opacity:1" transform="matrix(0 .13892 .13892 0 47.53 68.442)"/><rect width="3.969" height="3.969" x="26.07" y="68.125" ry="1.048" style="fill:#f8fafc;fill-opacity:1;stroke:#000;stroke-width:.264999"/><path d="m6 9 6 6 6-6" style="fill:none;stroke:#000;stroke-opacity:1" transform="rotate(90 -19.348 49.094)scale(.13892)"/><g transform="translate(-90.675 36.443)scale(.35518)"><circle cx="282.135" cy="94.785" r="5.96" style="opacity:1;fill:#000;fill-opacity:1;stroke:none;stroke-width:.635006;stroke-linecap:round;stroke-linejoin:bevel;stroke-miterlimit:4;stroke-dasharray:none;stroke-dashoffset:0;stroke-opacity:1"/><path d="M1073.018 9.197c-2.388-.05-5.694.453-7.274.94-2.107.649-3.416 1.972-3.416 1.972s-1.904-2.156-3.262-2.2-2.463 1.507-3.642 2.124c-1.18.617-2.32.071-3.414 1.594s-.898 5.345-.834 7.435c.02.67 0 1.682-.031 2.737-.733.005-1.59.227-2.213 1.092-1.31 1.82 0 4.078 0 5.35 0 1.27-.177 1.341 0 2.275s.611 2.267 1.252 3.187c.237.34.63.701 1.031 1.037-.043.742-.184 3.308-.066 4.51.136 1.388.227 2.308.697 3.22.471.913.641 1.291 1.932 2.12s4.18 1.652 6.037 1.931 3.82-.354 4.936-.054 1.716 1.02 1.716 1.02 1.176-1.04 2.387-1.315 3.184.426 4.723.267c1.54-.158 3.215-.623 4.398-1.18s2.006-1.036 2.684-1.904c.677-.867 1.207-3.085 1.207-3.085l-.074-5.506c.278-.254.532-.513.703-.758.64-.92 1.075-2.252 1.252-3.186.177-.933 0-1.006 0-2.277s1.31-3.53 0-5.35c-.718-.997-1.745-1.143-2.535-1.08 0-.13 0-.273.012-.394.143-1.954 1.591-3.518 1.593-4.705 0-1.188-.358-.99-.683-2.05s-.273-3.342-1.215-4.323-2.493-.584-3.49-1.139-.453-1.408-2.428-2.049c-.494-.16-1.187-.239-1.982-.256z" style="fill:#fff;fill-opacity:1;stroke:none;stroke-width:.0531143px;stroke-linecap:butt;stroke-linejoin:miter;stroke-opacity:1" transform="translate(0 87)scale(.26458)"/><path d="M279.867 92.812c-.739 0-2.19.13-2.19.13l-.057.534s.145.26.23.567.12 2.155 1.907 2.241 2.159-2.361 2.159-2.361l.386.01s.333 2.414 2.096 2.38c1.762-.034 1.888-1.735 1.93-2.089.04-.355.276-.683.276-.683l-.06-.567s-1.325-.159-2.04-.146c-.713.013-1.762.24-2.228.242-.466.001-.175-.016-.554-.057-.378-.041-1.04-.178-1.717-.199zm.038.322c1.17.002 1.49.463 1.49.463s.052 1.011-.23 1.445-.84.887-1.375.893-1.056-.383-1.336-.823-.18-1.546-.18-1.546.252-.402 1.516-.431zm4.343 0h.115c1.264.03 1.516.433 1.516.433s.1 1.106-.18 1.545c-.28.44-.8.83-1.336.823-.534-.006-1.093-.46-1.375-.893-.282-.434-.23-1.445-.23-1.445s.32-.461 1.49-.463" style="fill:#000;fill-opacity:1;stroke:none;stroke-width:.0140532px;stroke-linecap:butt;stroke-linejoin:miter;stroke-opacity:1"/><path d="M280.308 94.006c-.136 0-.26.03-.369.077a.484.46 0 0 0-.09.267.484.46 0 0 0 .314.431q.127.026.243.024h.004a.484.46 0 0 0 .407-.455.484.46 0 0 0-.081-.254 1.3 1.3 0 0 0-.428-.09" style="opacity:1;fill:#000;fill-opacity:1;stroke:none;stroke-width:.00765969;stroke-miterlimit:4;stroke-dasharray:none;stroke-dashoffset:0;stroke-opacity:1"/><ellipse cx="280.261" cy="94.221" rx=".156" ry=".158" style="opacity:1;fill:#fff;fill-opacity:1;stroke:none;stroke-width:.00531143;stroke-miterlimit:4;stroke-dasharray:none;stroke-dashoffset:0;stroke-opacity:1"/><path d="M284.07 93.974c.136 0 .26.03.369.077a.484.46 0 0 1 .09.267.484.46 0 0 1-.314.431 1.2 1.2 0 0 1-.243.024h-.004a.484.46 0 0 1-.407-.455.484.46 0 0 1 .081-.254 1.3 1.3 0 0 1 .428-.09" style="opacity:1;fill:#000;fill-opacity:1;stroke:none;stroke-width:.00765969;stroke-miterlimit:4;stroke-dasharray:none;stroke-dashoffset:0;stroke-opacity:1"/><ellipse cx="-283.95" cy="94.19" rx=".156" ry=".158" style="opacity:1;fill:#fff;fill-opacity:1;stroke:none;stroke-width:.00531143;stroke-miterlimit:4;stroke-dasharray:none;stroke-dashoffset:0;stroke-opacity:1" transform="scale(-1 1)"/></g><path d="M49.14 250.396V239.9h2.991q1.184 0 2.064.304.88.288 1.376.96t.496 1.824q0 1.104-.496 1.824-.48.704-1.36 1.072-.864.352-2.016.352h-1.728v4.16zm1.327-5.248h1.568q1.376 0 2.032-.528.672-.528.672-1.632 0-1.136-.704-1.568-.688-.448-2.064-.448h-1.504zm7.6 5.248v-7.776h1.088l.112 1.408h.048q.384-.736.96-1.168t1.248-.432q.256 0 .448.032t.384.128l-.288 1.12q-.176-.048-.336-.064-.144-.032-.384-.032-.496 0-1.04.4-.528.4-.928 1.392v4.992zm8.416.192q-.944 0-1.776-.48-.816-.48-1.328-1.392-.496-.912-.496-2.192 0-1.312.496-2.224.512-.912 1.328-1.392.832-.48 1.776-.48.96 0 1.776.48t1.312 1.392q.512.912.512 2.224 0 1.28-.512 2.192-.496.912-1.312 1.392t-1.776.48m0-1.088q.672 0 1.184-.368.512-.384.784-1.056t.272-1.552q0-.896-.272-1.568-.272-.688-.784-1.056-.512-.384-1.184-.384t-1.184.384q-.496.368-.784 1.056-.272.672-.272 1.568 0 .88.272 1.552.288.672.784 1.056.512.368 1.184.368m9.088 1.088q-.544 0-1.12-.256-.576-.272-1.104-.736H73.3l-.112.8h-1.056v-11.392h1.312v3.104l-.032 1.408q.528-.464 1.152-.768.64-.32 1.28-.32 1.008 0 1.696.496.688.48 1.04 1.376.352.88.352 2.08 0 1.328-.48 2.272-.464.944-1.232 1.44t-1.648.496m-.224-1.104q.64 0 1.136-.368.512-.368.8-1.056.288-.704.288-1.664 0-.848-.208-1.488-.208-.656-.656-1.008-.448-.368-1.184-.368-.48 0-1.008.272-.512.256-1.072.784v4.08q.512.448 1.008.64.512.176.896.176m7.024 1.056q-.496 0-.8-.192-.304-.208-.448-.592-.144-.4-.144-.96v-9.792h1.312v9.888q0 .32.112.448.112.112.272.112h.112q.064-.016.16-.032l.192.992q-.144.048-.336.08-.176.048-.432.048m5.84.048q-1.04 0-1.904-.48-.848-.496-1.344-1.392-.496-.912-.496-2.208 0-1.264.512-2.176t1.312-1.408 1.696-.496q.992 0 1.68.464.704.448 1.056 1.264t.352 1.92q0 .208-.016.4 0 .192-.048.384h-5.6v-1.04h4.48q0-1.12-.496-1.712-.48-.608-1.392-.608-.528 0-1.04.304-.512.288-.848.944-.32.656-.32 1.744 0 .992.336 1.664.352.672.944 1.024.592.336 1.296.336.56 0 1.04-.16.496-.16.896-.432l.48.864q-.512.352-1.152.576-.624.224-1.424.224m4.784-.192v-7.776h1.088l.112 1.12h.048q.512-.544 1.104-.928.608-.384 1.312-.384.896 0 1.392.4.512.4.752 1.088.608-.672 1.232-1.072.624-.416 1.328-.416 1.216 0 1.792.784.576.768.576 2.256v4.928h-1.312v-4.752q0-1.104-.352-1.584-.352-.496-1.088-.496-.464 0-.944.304-.464.288-1.008.896v5.632h-1.312v-4.752q0-1.104-.352-1.584-.352-.496-1.104-.496-.88 0-1.952 1.2v5.632zm13.392 0V239.9h2.624q1.616 0 2.72.608t1.664 1.776q.576 1.152.576 2.816t-.576 2.864q-.56 1.184-1.648 1.808t-2.672.624zm1.328-1.088h1.2q1.232 0 2.048-.496.816-.512 1.216-1.44t.4-2.272q0-1.312-.4-2.24t-1.216-1.392q-.816-.48-2.048-.48h-1.2zm8.512 1.088V239.9h6.048v1.12h-4.72v3.296h3.984v1.136h-3.984v3.808h4.88v1.136zm8.432 0V239.9h2.624q1.616 0 2.72.608t1.664 1.776q.576 1.152.576 2.816t-.576 2.864q-.56 1.184-1.648 1.808t-2.672.624zm1.328-1.088h1.2q1.232 0 2.048-.496.816-.512 1.216-1.44t.4-2.272q0-1.312-.4-2.24t-1.216-1.392q-.816-.48-2.048-.48h-1.2zm8.512 1.088V239.9h6.048v1.12h-4.72v3.296h3.984v1.136h-3.984v3.808h4.88v1.136z" aria-label="ProblemDEDE" style="font-size:16px;font-family:&quot;Source Sans 3&quot;;-inkscape-font-specification:&quot;Source Sans 3, &quot;;white-space:pre;fill:#0e8ac9;stroke-width:1.00157" transform="translate(5.308 35.272)scale(.14207)"/><rect width="3.969" height="3.969" x="31.361" y="68.125" ry="1.048" style="fill:#f8fafc;fill-opacity:1;stroke:#000;stroke-width:.264999"/><rect width="3.969" height="3.969" x="36.653" y="68.125" ry="1.048" style="fill:#f8fafc;fill-opacity:1;stroke:#000;stroke-width:.264999"/><path d="M119.795 270.986v-1.088h2.336v-7.52h-1.856v-.848q.688-.128 1.216-.304.528-.192.944-.448h1.008v9.12h2.112v1.088z" aria-label="1" style="font-size:16px;font-family:&quot;Source Sans 3&quot;;-inkscape-font-specification:&quot;Source Sans 3, &quot;;white-space:pre;stroke-width:1.00157" transform="translate(13.514 27.125)scale(.16166)"/><path d="M119.171 270.986v-.8q1.52-1.504 2.592-2.656 1.088-1.168 1.648-2.112t.56-1.76q0-.88-.48-1.44t-1.456-.56q-.64 0-1.184.352t-.992.88l-.736-.72q.64-.72 1.36-1.152.736-.432 1.712-.432.944 0 1.632.384.688.368 1.056 1.04t.368 1.568q0 .992-.56 1.968-.544.976-1.504 2.048t-2.208 2.352q.416-.048.864-.064.448-.032.848-.032h3.072v1.136z" aria-label="2" style="font-size:16px;font-family:&quot;Source Sans 3&quot;;-inkscape-font-specification:&quot;Source Sans 3, &quot;;white-space:pre;stroke-width:1.00157" transform="translate(18.805 27.125)scale(.16166)"/><rect width="63.5" height="55.149" x="7.937" y="8.016" ry="4.158" style="fill:#fff;stroke:#000;stroke-width:.264999"/><rect width="6.386" height="33.818" x="23.821" y="14.808" ry="0" style="fill:#faa;fill-opacity:1;stroke:#000;stroke-width:.264999;stroke-opacity:1"/><rect width="6.386" height="26.804" x="32.288" y="21.822" ry="0" style="fill:#cdde87;fill-opacity:1;stroke:#000;stroke-width:.264999;stroke-opacity:1"/><rect width="6.386" height="19.873" x="40.848" y="28.752" ry="0" style="fill:#ffb380;fill-opacity:1;stroke:#000;stroke-width:.264999;stroke-opacity:1"/><rect width="6.386" height="23.631" x="49.408" y="24.995" ry="0" style="fill:#87cdde;fill-opacity:1;stroke:#000;stroke-width:.264999;stroke-opacity:1"/><path d="M61.086 48.625H18.204V12.386" style="fill:none;fill-opacity:1;stroke:#000;stroke-width:.264999;stroke-opacity:1;marker-start:url(#a);marker-end:url(#a)"/><path d="M11.65 52.809h17.696m3.471 0h7.112m3.471 0h12.404m3.471 0h1.82m3.472 0h1.82M11.65 58.1h1.82m3.472 0h7.112m3.471 0h7.113m3.471 0h7.112m3.471 0h12.404m3.471 0h1.82" style="fill:none;fill-opacity:.4;stroke:#000;stroke-width:.264999"/></svg>