<?xml version="1.0" encoding="UTF-8" standalone="no"?>
<svg
   sodipodi:docname="problemdede.svg"
   inkscape:version="1.4 (e7c3feb100, 2024-10-09)"
   id="svg8"
   version="1.1"
   viewBox="0 0 52.916665 11.377083"
   height="43"
   width="200"
   inkscape:export-filename="problemdede.png"
   inkscape:export-xdpi="96"
   inkscape:export-ydpi="96"
   xmlns:inkscape="http://www.inkscape.org/namespaces/inkscape"
   xmlns:sodipodi="http://sodipodi.sourceforge.net/DTD/sodipodi-0.dtd"
   xmlns="http://www.w3.org/2000/svg"
   xmlns:svg="http://www.w3.org/2000/svg"
   xmlns:rdf="http://www.w3.org/1999/02/22-rdf-syntax-ns#"
   xmlns:cc="http://creativecommons.org/ns#"
   xmlns:dc="http://purl.org/dc/elements/1.1/">
  <defs
     id="defs2">
    <rect
       x="19.99996"
       y="1.019035"
       width="85.220467"
       height="18.980965"
       id="rect1" />
    <marker
       style="overflow:visible"
       id="TriangleInM"
       refX="0"
       refY="0"
       orient="auto"
       inkscape:stockid="TriangleInM"
       inkscape:isstock="true">
      <path
         transform="scale(-0.4)"
         style="fill:context-stroke;fill-rule:evenodd;stroke:context-stroke;stroke-width:1pt"
         d="M 5.77,0 -2.88,5 V -5 Z"
         id="path8169" />
    </marker>
    <marker
       style="overflow:visible"
       id="TriangleOutM"
       refX="0"
       refY="0"
       orient="auto"
       inkscape:stockid="TriangleOutM"
       inkscape:isstock="true">
      <path
         transform="scale(0.4)"
         style="fill:context-stroke;fill-rule:evenodd;stroke:context-stroke;stroke-width:1pt"
         d="M 5.77,0 -2.88,5 V -5 Z"
         id="path8178" />
    </marker>
    <marker
       style="overflow:visible"
       id="TriangleInM-3"
       refX="0"
       refY="0"
       orient="auto"
       inkscape:stockid="TriangleInM"
       inkscape:isstock="true">
      <path
         transform="scale(-0.4)"
         style="fill:context-stroke;fill-rule:evenodd;stroke:context-stroke;stroke-width:1pt"
         d="M 5.77,0 -2.88,5 V -5 Z"
         id="path8169-0" />
    </marker>
    <marker
       style="overflow:visible"
       id="marker18079"
       refX="0"
       refY="0"
       orient="auto"
       inkscape:stockid="TriangleInM"
       inkscape:isstock="true">
      <path
         transform="scale(-0.4)"
         style="fill:context-stroke;fill-rule:evenodd;stroke:context-stroke;stroke-width:1pt"
         d="M 5.77,0 -2.88,5 V -5 Z"
         id="path18077" />
    </marker>
  </defs>
  <sodipodi:namedview
     inkscape:document-rotation="0"
     inkscape:snap-global="true"
     inkscape:window-maximized="1"
     inkscape:window-y="0"
     inkscape:window-x="0"
     inkscape:window-height="1014"
     inkscape:window-width="1920"
     showgrid="false"
     inkscape:current-layer="layer1"
     inkscape:document-units="mm"
     inkscape:cy="49.624777"
     inkscape:cx="123.63117"
     inkscape:zoom="5.8035525"
     inkscape:pageshadow="2"
     inkscape:pageopacity="0.0"
     borderopacity="1.0"
     bordercolor="#666666"
     pagecolor="#ffffff"
     id="base"
     inkscape:pagecheckerboard="0"
     inkscape:showpageshadow="2"
     inkscape:deskcolor="#ffffff" />
  <metadata
     id="metadata5">
    <rdf:RDF>
      <cc:Work
         rdf:about="">
        <dc:format>image/svg+xml</dc:format>
        <dc:type
           rdf:resource="http://purl.org/dc/dcmitype/StillImage" />
      </cc:Work>
    </rdf:RDF>
  </metadata>
  <g
     id="layer1"
     inkscape:groupmode="layer"
     inkscape:label="Layer 1">
    <g
       id="g914"
       transform="matrix(0.95423407,0,0,0.95423407,-263.53578,-84.759987)">
      <circle
         style="opacity:1;fill:#000000;fill-opacity:1;stroke:none;stroke-width:0.635006;stroke-linecap:round;stroke-linejoin:bevel;stroke-miterlimit:4;stroke-dasharray:none;stroke-dashoffset:0;stroke-opacity:1"
         id="path952-3"
         cx="282.13547"
         cy="94.785439"
         r="5.9602871" />
      <path
         style="fill:#ffffff;fill-opacity:1;stroke:none;stroke-width:0.0531143px;stroke-linecap:butt;stroke-linejoin:miter;stroke-opacity:1"
         d="m 1073.0176,9.1972656 c -2.3876,-0.050088 -5.6935,0.4528261 -7.2735,0.9394534 -2.1066,0.648831 -3.416,1.972656 -3.416,1.972656 0,0 -1.9037,-2.156838 -3.2617,-2.2011719 -1.3579,-0.044334 -2.4637,1.5077159 -3.6426,2.1249999 -1.1789,0.617284 -2.32,0.07088 -3.414,1.59375 -1.0939,1.52287 -0.8983,5.345302 -0.834,7.435547 0.021,0.670143 10e-5,1.681261 -0.031,2.736328 -0.7331,0.0047 -1.5903,0.227143 -2.2129,1.091797 -1.3103,1.819725 0,4.07866 0,5.349609 0,1.27095 -0.1768,1.341938 0,2.275391 0.1768,0.93346 0.6111,2.267166 1.252,3.1875 0.2366,0.339779 0.6298,0.701346 1.0312,1.037109 -0.043,0.741639 -0.1841,3.307978 -0.066,4.509766 0.1357,1.387559 0.2266,2.308064 0.6973,3.220703 0.4708,0.912635 0.6406,1.290339 1.9316,2.119141 1.2911,0.828805 4.1791,1.651929 6.0372,1.93164 1.858,0.279723 3.8196,-0.354517 4.9355,-0.05469 1.116,0.29983 1.7168,1.019531 1.7168,1.019531 0,0 1.1751,-1.039368 2.3867,-1.314453 1.2116,-0.275112 3.1834,0.426182 4.7227,0.267578 1.5392,-0.158627 3.2153,-0.623031 4.3984,-1.179687 1.1832,-0.556657 2.0061,-1.037073 2.6836,-1.904297 0.6775,-0.86722 1.207,-3.085938 1.207,-3.085938 l -0.074,-5.505859 c 0.2777,-0.253214 0.5325,-0.512818 0.7031,-0.757813 0.6409,-0.920326 1.0752,-2.25209 1.252,-3.185547 0.1769,-0.933456 0,-1.00639 0,-2.277343 0,-1.270946 1.3103,-3.52988 0,-5.34961 -0.718,-0.997157 -1.7452,-1.14374 -2.5352,-1.080078 0,-0.129698 0,-0.272842 0.012,-0.394531 0.1436,-1.953668 1.5913,-3.517343 1.5937,-4.705078 0,-1.187739 -0.3585,-0.988981 -0.6836,-2.048828 -0.3252,-1.059852 -0.273,-3.34237 -1.2148,-4.324219 -0.9419,-0.981842 -2.493,-0.583444 -3.4903,-1.138672 -0.9972,-0.555224 -0.4524,-1.408236 -2.4277,-2.048828 -0.4938,-0.160148 -1.1866,-0.2391633 -1.9824,-0.2558594 z"
         transform="matrix(0.26458333,0,0,0.26458333,0,87)"
         id="path1290-6"
         inkscape:connector-curvature="0" />
      <path
         inkscape:connector-curvature="0"
         style="fill:#000000;fill-opacity:1;stroke:none;stroke-width:0.0140532px;stroke-linecap:butt;stroke-linejoin:miter;stroke-opacity:1"
         d="m 279.86701,92.812206 c -0.73887,-5.49e-4 -2.19048,0.12969 -2.19048,0.12969 l -0.0569,0.534239 c 0,0 0.14574,0.260507 0.23087,0.567149 0.0851,0.306643 0.11965,2.154558 1.9062,2.241038 1.78653,0.08648 2.15916,-2.361505 2.15916,-2.361505 l 0.38646,0.01004 c 0,0 0.33273,2.413692 2.09524,2.379869 1.7625,-0.03382 1.8889,-1.73427 1.93,-2.08876 0.0411,-0.35449 0.27604,-0.682593 0.27604,-0.682593 l -0.0602,-0.567149 c 0,0 -1.32456,-0.158888 -2.03873,-0.145884 -0.71416,0.013 -1.76236,0.240002 -2.22874,0.241319 -0.46638,0.0013 -0.17495,-0.01546 -0.55365,-0.05679 -0.37869,-0.04133 -1.0412,-0.178322 -1.71769,-0.198747 -0.0423,-0.0013 -0.0884,-0.0019 -0.13762,-0.0019 z m 0.0383,0.321384 c 1.16916,0.0021 1.49027,0.463013 1.49027,0.463013 0,0 0.0511,1.011774 -0.23089,1.445443 -0.28198,0.433669 -0.8405,0.887073 -1.37517,0.89339 -0.5347,0.0063 -1.05519,-0.383918 -1.33506,-0.823125 -0.27987,-0.439206 -0.18068,-1.545846 -0.18068,-1.545846 0,0 0.25181,-0.402182 1.51574,-0.431613 0.0395,-9.2e-4 0.0781,-0.0013 0.11579,-0.0013 z m 4.34232,0 c 0.0377,-7.1e-5 0.0763,3.43e-4 0.11579,0.0013 1.26393,0.02943 1.51574,0.431613 1.51574,0.431613 0,0 0.0992,1.10664 -0.18068,1.545846 -0.27987,0.439207 -0.80037,0.829442 -1.33506,0.823125 -0.53468,-0.0063 -1.09322,-0.459721 -1.3752,-0.893391 -0.28198,-0.433668 -0.23086,-1.445443 -0.23086,-1.445443 0,0 0.32111,-0.460959 1.49027,-0.463012 z"
         id="path1234-7" />
      <path
         style="opacity:1;fill:#000000;fill-opacity:1;stroke:none;stroke-width:0.00765969;stroke-miterlimit:4;stroke-dasharray:none;stroke-dashoffset:0;stroke-opacity:1"
         d="m 280.30801,94.006063 c -0.13564,-6.47e-4 -0.25917,0.03032 -0.36856,0.07694 a 0.48402336,0.46075305 0 0 0 -0.0902,0.267229 0.48402336,0.46075305 0 0 0 0.31387,0.430735 c 0.0841,0.01632 0.16664,0.02573 0.2425,0.02412 10e-4,-2.8e-5 0.003,-1.54e-4 0.004,-1.92e-4 a 0.48402336,0.46075305 0 0 0 0.40732,-0.454669 0.48402336,0.46075305 0 0 0 -0.0809,-0.254493 c -0.0908,-0.03674 -0.19562,-0.06615 -0.31658,-0.08204 -0.0381,-0.005 -0.0754,-0.0075 -0.11182,-0.0076 z"
         id="path1244-5"
         inkscape:connector-curvature="0" />
      <ellipse
         style="opacity:1;fill:#ffffff;fill-opacity:1;stroke:none;stroke-width:0.00531143;stroke-miterlimit:4;stroke-dasharray:none;stroke-dashoffset:0;stroke-opacity:1"
         id="path1254-3"
         cx="280.26138"
         cy="94.221451"
         rx="0.15558842"
         ry="0.15809791" />
      <path
         inkscape:connector-curvature="0"
         id="path1264-5"
         d="m 284.07001,93.974124 c 0.13565,-6.38e-4 0.25918,0.03032 0.36856,0.07693 a 0.4840235,0.46075319 0 0 1 0.0902,0.267229 0.4840235,0.46075319 0 0 1 -0.31387,0.430735 c -0.0841,0.01632 -0.16663,0.02573 -0.24249,0.02412 -0.001,-2.8e-5 -0.003,-1.59e-4 -0.004,-2.12e-4 a 0.4840235,0.46075319 0 0 1 -0.40732,-0.454669 0.4840235,0.46075319 0 0 1 0.0809,-0.254493 c 0.0908,-0.03674 0.19563,-0.06615 0.31658,-0.08204 0.0381,-0.005 0.0754,-0.0075 0.11183,-0.0076 z"
         style="opacity:1;fill:#000000;fill-opacity:1;stroke:none;stroke-width:0.00765969;stroke-miterlimit:4;stroke-dasharray:none;stroke-dashoffset:0;stroke-opacity:1" />
      <ellipse
         ry="0.15809792"
         rx="0.15558842"
         cy="94.189514"
         cx="-283.94986"
         id="ellipse1268-6"
         style="opacity:1;fill:#ffffff;fill-opacity:1;stroke:none;stroke-width:0.00531143;stroke-miterlimit:4;stroke-dasharray:none;stroke-dashoffset:0;stroke-opacity:1"
         transform="scale(-1,1)" />
    </g>
    <path
       style="font-family:Roboto;-inkscape-font-specification:'Roboto Bold';text-align:center;text-anchor:middle;white-space:pre;stroke-width:0.569643"
       d="m 13.286272,5.8962334 v 1.8995391 h -0.639844 v -4.852156 h 1.789565 q 0.796474,0 1.246365,0.406568 0.453224,0.406568 0.453224,1.0764055 0,0.7064952 -0.443226,1.0897356 -0.439894,0.3799078 -1.263027,0.3799078 z m 0,-0.5232064 h 1.149721 q 0.513209,0 0.786476,-0.2399418 0.273267,-0.2432742 0.273267,-0.6998302 0,-0.4332282 -0.273267,-0.693165 -0.273267,-0.2599371 -0.749818,-0.2699346 h -1.186379 z m 5.312045,-0.6298471 q -0.139966,-0.023328 -0.30326,-0.023328 -0.60652,0 -0.823134,0.5165413 V 7.7957725 H 16.855406 V 4.1899807 h 0.599854 l 0.01,0.4165657 q 0.303258,-0.4832162 0.85979,-0.4832162 0.179957,0 0.273268,0.046655 z m 0.336585,1.2163716 q 0,-0.5298715 0.206616,-0.9531022 0.20995,-0.4232306 0.57986,-0.6531748 0.373242,-0.2299443 0.849793,-0.2299443 0.736489,0 1.189712,0.5098764 0.456556,0.5098762 0.456556,1.3563375 v 0.043323 q 0,0.526539 -0.203284,0.9464369 -0.199952,0.4165653 -0.576527,0.6498425 -0.373243,0.2332766 -0.859791,0.2332766 -0.733155,0 -1.189711,-0.5098767 -0.453224,-0.5098761 -0.453224,-1.3496723 z m 0.619849,0.073316 q 0,0.5998544 0.276601,0.9630995 0.279931,0.3632453 0.746485,0.3632453 0.469885,0 0.746485,-0.3665776 0.2766,-0.3699103 0.2766,-1.0330827 0,-0.5931895 -0.283264,-0.9597672 -0.279933,-0.3699102 -0.746487,-0.3699102 -0.456555,0 -0.736487,0.3632452 -0.279933,0.3632451 -0.279933,1.0397477 z m 6.488427,0 q 0,0.8264662 -0.379908,1.3296776 -0.379908,0.4998787 -1.019754,0.4998787 -0.683167,0 -1.056409,-0.4832165 L 23.557117,7.795773 H 22.990582 V 2.677015 h 0.616517 v 1.9095366 q 0.373243,-0.463221 1.02975,-0.463221 0.656508,0 1.02975,0.4965462 0.376576,0.4965462 0.376576,1.3596702 z M 25.42666,5.9628844 q 0,-0.6298472 -0.243274,-0.9730972 -0.243275,-0.3432501 -0.699831,-0.3432501 -0.609851,0 -0.876453,0.5665292 v 1.5596216 q 0.283264,0.5665293 0.883119,0.5665293 0.443226,0 0.689832,-0.3432502 0.246607,-0.34325 0.246607,-1.0330826 z m 2.062833,1.8328881 H 26.872976 V 2.6770146 h 0.616517 z m 2.482731,0.066651 q -0.733156,0 -1.193044,-0.4798836 Q 28.319292,6.8993234 28.319292,6.0928524 V 5.9795466 q 0,-0.5365366 0.203284,-0.9564347 0.206617,-0.4232306 0.573194,-0.6598399 0.36991,-0.2399418 0.799806,-0.2399418 0.703162,0 1.093068,0.463221 0.389906,0.4632209 0.389906,1.3263449 v 0.2566044 h -2.442741 q 0.01333,0.533204 0.309925,0.8631237 0.299927,0.3265876 0.759815,0.3265876 0.326587,0 0.5532,-0.133301 0.226611,-0.133301 0.39657,-0.3532476 l 0.376575,0.293262 q -0.453223,0.6964981 -1.35967,0.6964983 z M 29.895579,4.629874 q -0.373243,0 -0.626514,0.273267 -0.253272,0.2699346 -0.313258,0.7598157 h 1.806229 V 5.6163013 Q 30.735373,5.1464154 30.508761,4.889811 30.282149,4.629874 29.895576,4.629874 Z m 2.775994,-0.4398933 0.01666,0.3999031 q 0.39657,-0.4665536 1.069739,-0.4665536 0.756483,0 1.02975,0.5798593 0.179957,-0.2599368 0.466554,-0.4198981 0.28993,-0.1599612 0.683167,-0.1599612 1.186379,0 1.206374,1.2563619 V 7.7957725 H 36.527301 V 5.4163499 q 0,-0.3865729 -0.176625,-0.5765268 -0.176623,-0.1932865 -0.593188,-0.1932865 -0.343251,0 -0.569863,0.2066165 -0.226612,0.2032841 -0.263269,0.5498667 v 2.3927527 h -0.61985 v -2.36276 q 0,-0.7864759 -0.769813,-0.7864759 -0.606519,0 -0.829798,0.5165414 V 7.7957725 H 32.088377 V 4.1899807 Z m 5.498662,3.6057918 v -4.852156 h 1.369667 q 0.633181,0 1.119729,0.279932 0.486549,0.2799322 0.749818,0.7964735 0.266602,0.5165414 0.269935,1.1863789 v 0.3099247 q 0,0.6865001 -0.266602,1.2030414 -0.26327,0.5165412 -0.756483,0.7931408 -0.489881,0.2766 -1.143056,0.2832647 z M 38.81008,3.4701554 V 7.272566 h 0.67317 q 0.73982,0 1.14972,-0.4598882 0.413234,-0.4598885 0.413234,-1.3096823 V 5.2197309 q 0,-0.8264661 -0.389905,-1.283022 -0.386573,-0.4598884 -1.099734,-0.4665535 z m 5.235396,4.3922679 q -0.733155,0 -1.193043,-0.4798836 Q 42.392544,6.8993234 42.392544,6.0928524 V 5.9795466 q 0,-0.5365366 0.203284,-0.9564347 0.206616,-0.4232306 0.573195,-0.6598399 0.369909,-0.2399418 0.799805,-0.2399418 0.703163,0 1.093069,0.463221 0.389905,0.4632209 0.389905,1.3263449 v 0.2566044 h -2.44274 q 0.01333,0.533204 0.309924,0.8631237 0.299926,0.3265876 0.759815,0.3265876 0.326588,0 0.5532,-0.133301 0.226612,-0.133301 0.396571,-0.3532476 l 0.376575,0.293262 Q 44.951923,7.8624233 44.045476,7.8624233 Z M 43.968831,4.629874 q -0.373242,0 -0.626514,0.273267 -0.253272,0.2699346 -0.313257,0.7598157 h 1.806227 V 5.6163013 Q 44.808625,5.1464154 44.582013,4.889811 44.355401,4.629874 43.968828,4.629874 Z m 2.046171,1.33301 q 0,-0.8297988 0.393238,-1.33301 0.393237,-0.5065438 1.02975,-0.5065438 0.633179,0 1.00309,0.4332283 V 2.6770146 h 0.616517 v 5.1187579 h -0.56653 L 48.46108,7.4091999 q -0.369915,0.4532234 -1.029756,0.4532234 -0.626514,0 -1.023084,-0.513209 -0.393241,-0.5132088 -0.393241,-1.339675 z m 0.616516,0.069983 q 0,0.6131845 0.253273,0.9597672 0.253271,0.3465825 0.69983,0.3465825 0.586524,0 0.856459,-0.5265389 V 5.1564129 q -0.2766,-0.5098763 -0.849794,-0.5098763 -0.453224,0 -0.706495,0.3499151 -0.253273,0.3499151 -0.253273,1.0364153 z m 4.878814,1.8295566 q -0.733156,0 -1.193044,-0.4798836 Q 49.857399,6.8993234 49.857399,6.0928524 V 5.9795466 q 0,-0.5365366 0.203284,-0.9564347 0.206617,-0.4232306 0.573195,-0.6598399 0.36991,-0.2399418 0.799806,-0.2399418 0.703162,0 1.093068,0.463221 0.389906,0.4632209 0.389906,1.3263449 v 0.2566044 h -2.442741 q 0.01333,0.533204 0.309925,0.8631237 0.299927,0.3265876 0.759815,0.3265876 0.326587,0 0.553199,-0.133301 0.226612,-0.133301 0.396571,-0.3532476 l 0.376575,0.293262 q -0.453224,0.6964981 -1.35967,0.6964984 z M 51.433687,4.629874 q -0.373243,0 -0.626515,0.273267 -0.253271,0.2699346 -0.313257,0.7598157 h 1.806229 V 5.6163013 Q 52.27348,5.1464154 52.046869,4.889811 51.820257,4.629874 51.433684,4.629874 Z"
       id="text1"
       aria-label="ProblemDede" />
  </g>
</svg>
