<?xml version="1.0" encoding="UTF-8" standalone="no"?>
<svg
   sodipodi:docname="problemdede_sidebar_pen.svg"
   inkscape:version="1.2.1 (9c6d41e410, 2022-07-14)"
   id="svg8"
   version="1.1"
   viewBox="0 0 92.604165 16.933333"
   height="64"
   width="350"
   inkscape:export-filename="problemdede.png"
   inkscape:export-xdpi="96"
   inkscape:export-ydpi="96"
   xmlns:inkscape="http://www.inkscape.org/namespaces/inkscape"
   xmlns:sodipodi="http://sodipodi.sourceforge.net/DTD/sodipodi-0.dtd"
   xmlns="http://www.w3.org/2000/svg"
   xmlns:svg="http://www.w3.org/2000/svg"
   xmlns:rdf="http://www.w3.org/1999/02/22-rdf-syntax-ns#"
   xmlns:cc="http://creativecommons.org/ns#"
   xmlns:dc="http://purl.org/dc/elements/1.1/">
  <defs
     id="defs2">
    <rect
       x="37.938938"
       y="-35.439758"
       width="178.20152"
       height="129.12642"
       id="rect973" />
    <rect
       x="-348.57712"
       y="-47.852032"
       width="262.33542"
       height="137.44348"
       id="rect852" />
    <marker
       style="overflow:visible"
       id="TriangleInM"
       refX="0"
       refY="0"
       orient="auto"
       inkscape:stockid="TriangleInM"
       inkscape:isstock="true">
      <path
         transform="scale(-0.4)"
         style="fill:context-stroke;fill-rule:evenodd;stroke:context-stroke;stroke-width:1pt"
         d="M 5.77,0 -2.88,5 V -5 Z"
         id="path8169" />
    </marker>
    <marker
       style="overflow:visible"
       id="TriangleOutM"
       refX="0"
       refY="0"
       orient="auto"
       inkscape:stockid="TriangleOutM"
       inkscape:isstock="true">
      <path
         transform="scale(0.4)"
         style="fill:context-stroke;fill-rule:evenodd;stroke:context-stroke;stroke-width:1pt"
         d="M 5.77,0 -2.88,5 V -5 Z"
         id="path8178" />
    </marker>
    <marker
       style="overflow:visible"
       id="TriangleInM-3"
       refX="0"
       refY="0"
       orient="auto"
       inkscape:stockid="TriangleInM"
       inkscape:isstock="true">
      <path
         transform="scale(-0.4)"
         style="fill:context-stroke;fill-rule:evenodd;stroke:context-stroke;stroke-width:1pt"
         d="M 5.77,0 -2.88,5 V -5 Z"
         id="path8169-0" />
    </marker>
    <marker
       style="overflow:visible"
       id="marker18079"
       refX="0"
       refY="0"
       orient="auto"
       inkscape:stockid="TriangleInM"
       inkscape:isstock="true">
      <path
         transform="scale(-0.4)"
         style="fill:context-stroke;fill-rule:evenodd;stroke:context-stroke;stroke-width:1pt"
         d="M 5.77,0 -2.88,5 V -5 Z"
         id="path18077" />
    </marker>
  </defs>
  <sodipodi:namedview
     inkscape:document-rotation="0"
     inkscape:snap-global="true"
     inkscape:window-maximized="1"
     inkscape:window-y="0"
     inkscape:window-x="0"
     inkscape:window-height="1007"
     inkscape:window-width="1920"
     showgrid="false"
     inkscape:current-layer="layer1"
     inkscape:document-units="mm"
     inkscape:cy="114.05486"
     inkscape:cx="233.95156"
     inkscape:zoom="1.7973806"
     inkscape:pageshadow="2"
     inkscape:pageopacity="0.0"
     borderopacity="1.0"
     bordercolor="#666666"
     pagecolor="#ffffff"
     id="base"
     inkscape:pagecheckerboard="0"
     inkscape:showpageshadow="2"
     inkscape:deskcolor="#ffffff"
     showguides="false" />
  <metadata
     id="metadata5">
    <rdf:RDF>
      <cc:Work
         rdf:about="">
        <dc:format>image/svg+xml</dc:format>
        <dc:type
           rdf:resource="http://purl.org/dc/dcmitype/StillImage" />
      </cc:Work>
    </rdf:RDF>
  </metadata>
  <g
     id="layer1"
     inkscape:groupmode="layer"
     inkscape:label="Layer 1">
    <g
       id="g216"
       transform="matrix(2.1333333,0,0,2.1333333,-16.933326,1.7564845e-8)">
      <g
         id="g914"
         transform="matrix(0.66586558,0,0,0.66586558,-175.95805,-59.145611)">
        <circle
           style="opacity:1;fill:#000000;fill-opacity:1;stroke:none;stroke-width:0.635006;stroke-linecap:round;stroke-linejoin:bevel;stroke-miterlimit:4;stroke-dasharray:none;stroke-dashoffset:0;stroke-opacity:1"
           id="path952-3"
           cx="282.13547"
           cy="94.785439"
           r="5.9602871" />
        <path
           style="fill:#ffffff;fill-opacity:1;stroke:none;stroke-width:0.0531143px;stroke-linecap:butt;stroke-linejoin:miter;stroke-opacity:1"
           d="m 1073.0176,9.1972656 c -2.3876,-0.050088 -5.6935,0.4528261 -7.2735,0.9394534 -2.1066,0.648831 -3.416,1.972656 -3.416,1.972656 0,0 -1.9037,-2.156838 -3.2617,-2.2011719 -1.3579,-0.044334 -2.4637,1.5077159 -3.6426,2.1249999 -1.1789,0.617284 -2.32,0.07088 -3.414,1.59375 -1.0939,1.52287 -0.8983,5.345302 -0.834,7.435547 0.021,0.670143 10e-5,1.681261 -0.031,2.736328 -0.7331,0.0047 -1.5903,0.227143 -2.2129,1.091797 -1.3103,1.819725 0,4.07866 0,5.349609 0,1.27095 -0.1768,1.341938 0,2.275391 0.1768,0.93346 0.6111,2.267166 1.252,3.1875 0.2366,0.339779 0.6298,0.701346 1.0312,1.037109 -0.043,0.741639 -0.1841,3.307978 -0.066,4.509766 0.1357,1.387559 0.2266,2.308064 0.6973,3.220703 0.4708,0.912635 0.6406,1.290339 1.9316,2.119141 1.2911,0.828805 4.1791,1.651929 6.0372,1.93164 1.858,0.279723 3.8196,-0.354517 4.9355,-0.05469 1.116,0.29983 1.7168,1.019531 1.7168,1.019531 0,0 1.1751,-1.039368 2.3867,-1.314453 1.2116,-0.275112 3.1834,0.426182 4.7227,0.267578 1.5392,-0.158627 3.2153,-0.623031 4.3984,-1.179687 1.1832,-0.556657 2.0061,-1.037073 2.6836,-1.904297 0.6775,-0.86722 1.207,-3.085938 1.207,-3.085938 l -0.074,-5.505859 c 0.2777,-0.253214 0.5325,-0.512818 0.7031,-0.757813 0.6409,-0.920326 1.0752,-2.25209 1.252,-3.185547 0.1769,-0.933456 0,-1.00639 0,-2.277343 0,-1.270946 1.3103,-3.52988 0,-5.34961 -0.718,-0.997157 -1.7452,-1.14374 -2.5352,-1.080078 0,-0.129698 0,-0.272842 0.012,-0.394531 0.1436,-1.953668 1.5913,-3.517343 1.5937,-4.705078 0,-1.187739 -0.3585,-0.988981 -0.6836,-2.048828 -0.3252,-1.059852 -0.273,-3.34237 -1.2148,-4.324219 -0.9419,-0.981842 -2.493,-0.583444 -3.4903,-1.138672 -0.9972,-0.555224 -0.4524,-1.408236 -2.4277,-2.048828 -0.4938,-0.160148 -1.1866,-0.2391633 -1.9824,-0.2558594 z"
           transform="matrix(0.26458333,0,0,0.26458333,0,87)"
           id="path1290-6"
           inkscape:connector-curvature="0" />
        <path
           inkscape:connector-curvature="0"
           style="fill:#000000;fill-opacity:1;stroke:none;stroke-width:0.0140532px;stroke-linecap:butt;stroke-linejoin:miter;stroke-opacity:1"
           d="m 279.86701,92.812206 c -0.73887,-5.49e-4 -2.19048,0.12969 -2.19048,0.12969 l -0.0569,0.534239 c 0,0 0.14574,0.260507 0.23087,0.567149 0.0851,0.306643 0.11965,2.154558 1.9062,2.241038 1.78653,0.08648 2.15916,-2.361505 2.15916,-2.361505 l 0.38646,0.01004 c 0,0 0.33273,2.413692 2.09524,2.379869 1.7625,-0.03382 1.8889,-1.73427 1.93,-2.08876 0.0411,-0.35449 0.27604,-0.682593 0.27604,-0.682593 l -0.0602,-0.567149 c 0,0 -1.32456,-0.158888 -2.03873,-0.145884 -0.71416,0.013 -1.76236,0.240002 -2.22874,0.241319 -0.46638,0.0013 -0.17495,-0.01546 -0.55365,-0.05679 -0.37869,-0.04133 -1.0412,-0.178322 -1.71769,-0.198747 -0.0423,-0.0013 -0.0884,-0.0019 -0.13762,-0.0019 z m 0.0383,0.321384 c 1.16916,0.0021 1.49027,0.463013 1.49027,0.463013 0,0 0.0511,1.011774 -0.23089,1.445443 -0.28198,0.433669 -0.8405,0.887073 -1.37517,0.89339 -0.5347,0.0063 -1.05519,-0.383918 -1.33506,-0.823125 -0.27987,-0.439206 -0.18068,-1.545846 -0.18068,-1.545846 0,0 0.25181,-0.402182 1.51574,-0.431613 0.0395,-9.2e-4 0.0781,-0.0013 0.11579,-0.0013 z m 4.34232,0 c 0.0377,-7.1e-5 0.0763,3.43e-4 0.11579,0.0013 1.26393,0.02943 1.51574,0.431613 1.51574,0.431613 0,0 0.0992,1.10664 -0.18068,1.545846 -0.27987,0.439207 -0.80037,0.829442 -1.33506,0.823125 -0.53468,-0.0063 -1.09322,-0.459721 -1.3752,-0.893391 -0.28198,-0.433668 -0.23086,-1.445443 -0.23086,-1.445443 0,0 0.32111,-0.460959 1.49027,-0.463012 z"
           id="path1234-7" />
        <path
           style="opacity:1;fill:#000000;fill-opacity:1;stroke:none;stroke-width:0.00765969;stroke-miterlimit:4;stroke-dasharray:none;stroke-dashoffset:0;stroke-opacity:1"
           d="m 280.30801,94.006063 c -0.13564,-6.47e-4 -0.25917,0.03032 -0.36856,0.07694 a 0.48402336,0.46075305 0 0 0 -0.0902,0.267229 0.48402336,0.46075305 0 0 0 0.31387,0.430735 c 0.0841,0.01632 0.16664,0.02573 0.2425,0.02412 10e-4,-2.8e-5 0.003,-1.54e-4 0.004,-1.92e-4 a 0.48402336,0.46075305 0 0 0 0.40732,-0.454669 0.48402336,0.46075305 0 0 0 -0.0809,-0.254493 c -0.0908,-0.03674 -0.19562,-0.06615 -0.31658,-0.08204 -0.0381,-0.005 -0.0754,-0.0075 -0.11182,-0.0076 z"
           id="path1244-5"
           inkscape:connector-curvature="0" />
        <ellipse
           style="opacity:1;fill:#ffffff;fill-opacity:1;stroke:none;stroke-width:0.00531143;stroke-miterlimit:4;stroke-dasharray:none;stroke-dashoffset:0;stroke-opacity:1"
           id="path1254-3"
           cx="280.26138"
           cy="94.221451"
           rx="0.15558842"
           ry="0.15809791" />
        <path
           inkscape:connector-curvature="0"
           id="path1264-5"
           d="m 284.07001,93.974124 c 0.13565,-6.38e-4 0.25918,0.03032 0.36856,0.07693 a 0.4840235,0.46075319 0 0 1 0.0902,0.267229 0.4840235,0.46075319 0 0 1 -0.31387,0.430735 c -0.0841,0.01632 -0.16663,0.02573 -0.24249,0.02412 -0.001,-2.8e-5 -0.003,-1.59e-4 -0.004,-2.12e-4 a 0.4840235,0.46075319 0 0 1 -0.40732,-0.454669 0.4840235,0.46075319 0 0 1 0.0809,-0.254493 c 0.0908,-0.03674 0.19563,-0.06615 0.31658,-0.08204 0.0381,-0.005 0.0754,-0.0075 0.11183,-0.0076 z"
           style="opacity:1;fill:#000000;fill-opacity:1;stroke:none;stroke-width:0.00765969;stroke-miterlimit:4;stroke-dasharray:none;stroke-dashoffset:0;stroke-opacity:1" />
        <ellipse
           ry="0.15809792"
           rx="0.15558842"
           cy="94.189514"
           cx="-283.94986"
           id="ellipse1268-6"
           style="opacity:1;fill:#ffffff;fill-opacity:1;stroke:none;stroke-width:0.00531143;stroke-miterlimit:4;stroke-dasharray:none;stroke-dashoffset:0;stroke-opacity:1"
           transform="scale(-1,1)" />
      </g>
      <g
         aria-label="ProblemDede"
         transform="matrix(0.26458333,0,0,0.26458333,6.9958008,10.278633)"
         id="text971"
         style="font-size:21.3333px;font-family:Arimo;-inkscape-font-specification:Arimo;white-space:pre">
        <path
           d="m 51.043599,-26.48379 q 0,2.08333 -1.364581,3.312495 -1.354165,1.229165 -3.687494,1.229165 h -4.312493 v 5.718741 H 39.68945 v -14.67706 h 6.177074 q 2.468746,0 3.822911,1.156248 1.354164,1.156248 1.354164,3.260411 z m -1.999997,0.02083 q 0,-2.843746 -3.416661,-2.843746 h -3.94791 v 5.791658 h 4.031243 q 3.333328,0 3.333328,-2.947912 z"
           id="path1146" />
        <path
           d="m 53.647762,-16.223389 v -8.64582 q 0,-1.187498 -0.0625,-2.624996 h 1.77083 q 0.08333,1.916664 0.08333,2.30208 h 0.04167 q 0.447916,-1.447914 1.031248,-1.979164 0.583333,-0.531249 1.645831,-0.531249 0.375,0 0.760416,0.104167 v 1.718747 q -0.375,-0.104166 -0.999999,-0.104166 -1.166665,0 -1.781247,1.010415 -0.614582,0.999998 -0.614582,2.874995 v 5.874991 z"
           id="path1148" />
        <path
           d="m 70.241485,-21.869214 q 0,2.958329 -1.302081,4.406243 -1.302081,1.447915 -3.781244,1.447915 -2.468746,0 -3.729161,-1.499998 -1.260414,-1.510414 -1.260414,-4.35416 0,-5.833324 5.052075,-5.833324 2.583329,0 3.802077,1.427081 1.218748,1.416665 1.218748,4.406243 z m -1.968746,0 q 0,-2.333329 -0.697916,-3.385411 -0.687499,-1.062498 -2.322913,-1.062498 -1.645831,0 -2.385413,1.083331 -0.729165,1.072915 -0.729165,3.364578 0,2.229164 0.718748,3.354162 0.729166,1.114581 2.281247,1.114581 1.687497,0 2.406246,-1.083331 0.729166,-1.083332 0.729166,-3.385412 z"
           id="path1150" />
        <path
           d="m 82.10605,-21.91088 q 0,5.895824 -4.145826,5.895824 -1.281248,0 -2.135414,-0.458333 -0.843748,-0.468749 -1.374998,-1.499997 h -0.02083 q 0,0.322916 -0.04167,0.989581 -0.04167,0.656249 -0.0625,0.760416 h -1.812498 q 0.0625,-0.562499 0.0625,-2.322913 v -13.135396 h 1.874997 v 4.406243 q 0,0.677082 -0.04167,1.593747 h 0.04167 q 0.520833,-1.083331 1.374998,-1.55208 0.864582,-0.46875 2.135414,-0.46875 2.135413,0 3.135411,1.437498 1.010415,1.437498 1.010415,4.35416 z m -1.968747,0.0625 q 0,-2.36458 -0.624999,-3.385412 -0.624999,-1.020831 -2.031246,-1.020831 -1.583331,0 -2.312497,1.083331 -0.718749,1.083332 -0.718749,3.437495 0,2.218746 0.708333,3.281245 0.708332,1.052081 2.302079,1.052081 1.416665,0 2.041664,-1.041665 0.635415,-1.052081 0.635415,-3.406244 z"
           id="path1152" />
        <path
           d="m 84.439382,-16.223389 v -15.458309 h 1.874997 v 15.458309 z"
           id="path1154" />
        <path
           d="m 90.616454,-21.462964 q 0,1.937497 0.802082,2.989578 0.802082,1.052082 2.343747,1.052082 1.218748,0 1.947913,-0.489582 0.739582,-0.489583 0.999999,-1.239582 l 1.64583,0.468749 q -1.010415,2.666663 -4.593742,2.666663 -2.499996,0 -3.812494,-1.489581 -1.302082,-1.489581 -1.302082,-4.427076 0,-2.791663 1.302082,-4.281244 1.312498,-1.489581 3.739577,-1.489581 4.968742,0 4.968742,5.989574 v 0.25 z m 6.104157,-1.437498 q -0.156249,-1.781247 -0.906248,-2.593746 -0.749999,-0.822915 -2.156247,-0.822915 -1.364581,0 -2.166663,0.916665 -0.791665,0.906249 -0.854165,2.499996 z"
           id="path1156" />
        <path
           d="m 107.60601,-16.223389 v -7.145822 q 0,-1.635414 -0.44792,-2.260413 -0.44791,-0.624999 -1.61458,-0.624999 -1.19791,0 -1.89583,0.916665 -0.69791,0.916665 -0.69791,2.583329 v 6.53124 h -1.86458 v -8.864569 q 0,-1.968747 -0.0625,-2.406247 h 1.77083 q 0.0104,0.05208 0.0208,0.28125 0.0104,0.229166 0.0208,0.531249 0.0208,0.291666 0.0417,1.114582 h 0.0312 q 0.60417,-1.197915 1.38541,-1.666664 0.78125,-0.46875 1.90625,-0.46875 1.28125,0 2.02083,0.510416 0.75,0.510416 1.04167,1.624998 h 0.0312 q 0.58333,-1.135415 1.40624,-1.635414 0.83334,-0.5 2.01042,-0.5 1.70833,0 2.47916,0.927082 0.78125,0.927082 0.78125,3.041662 v 7.510405 h -1.85416 v -7.145822 q 0,-1.635414 -0.44792,-2.260413 -0.44792,-0.624999 -1.61458,-0.624999 -1.22917,0 -1.91666,0.916665 -0.67709,0.906249 -0.67709,2.583329 v 6.53124 z"
           id="path1158" />
        <path
           d="m 131.76222,-23.712961 q 0,2.27083 -0.88541,3.979161 -0.88542,1.697914 -2.51041,2.604162 -1.625,0.906249 -3.75,0.906249 h -5.48957 v -14.67706 h 4.85416 q 3.72916,0 5.74999,1.874997 2.03124,1.86458 2.03124,5.312491 z m -1.99999,0 q 0,-2.729162 -1.5,-4.156243 -1.48958,-1.437498 -4.32291,-1.437498 h -2.82291 v 11.489565 h 3.27083 q 1.61458,0 2.83333,-0.708332 1.22916,-0.708332 1.88541,-2.041663 0.65625,-1.333331 0.65625,-3.145829 z"
           id="path1160" />
        <path
           d="m 135.65805,-21.462964 q 0,1.937497 0.80208,2.989578 0.80208,1.052082 2.34374,1.052082 1.21875,0 1.94792,-0.489582 0.73958,-0.489583 1,-1.239582 l 1.64583,0.468749 q -1.01042,2.666663 -4.59375,2.666663 -2.49999,0 -3.81249,-1.489581 -1.30208,-1.489581 -1.30208,-4.427076 0,-2.791663 1.30208,-4.281244 1.3125,-1.489581 3.73958,-1.489581 4.96874,0 4.96874,5.989574 v 0.25 z m 6.10415,-1.437498 q -0.15625,-1.781247 -0.90625,-2.593746 -0.74999,-0.822915 -2.15624,-0.822915 -1.36458,0 -2.16667,0.916665 -0.79166,0.906249 -0.85416,2.499996 z"
           id="path1162" />
        <path
           d="m 153.19969,-18.035886 q -0.52083,1.083331 -1.38541,1.552081 -0.85417,0.468749 -2.125,0.468749 -2.13541,0 -3.14583,-1.437498 -1,-1.437498 -1,-4.35416 0,-5.895824 4.14583,-5.895824 1.28125,0 2.13541,0.46875 0.85417,0.468749 1.375,1.489581 h 0.0208 l -0.0208,-1.260415 v -4.677076 h 1.875 v 13.135396 q 0,1.760414 0.0625,2.322913 h -1.79167 q -0.0312,-0.166667 -0.0729,-0.770832 -0.0312,-0.604166 -0.0312,-1.041665 z m -5.68749,-3.833328 q 0,2.36458 0.625,3.385412 0.625,1.020831 2.03125,1.020831 1.59374,0 2.31249,-1.104164 0.71875,-1.104165 0.71875,-3.427078 0,-2.23958 -0.71875,-3.281245 -0.71875,-1.041665 -2.29166,-1.041665 -1.41667,0 -2.05208,1.052081 -0.625,1.041666 -0.625,3.395828 z"
           id="path1164" />
        <path
           d="m 159.38718,-21.462964 q 0,1.937497 0.80208,2.989578 0.80208,1.052082 2.34375,1.052082 1.21875,0 1.94791,-0.489582 0.73958,-0.489583 1,-1.239582 l 1.64583,0.468749 q -1.01041,2.666663 -4.59374,2.666663 -2.5,0 -3.8125,-1.489581 -1.30208,-1.489581 -1.30208,-4.427076 0,-2.791663 1.30208,-4.281244 1.3125,-1.489581 3.73958,-1.489581 4.96874,0 4.96874,5.989574 v 0.25 z m 6.10416,-1.437498 q -0.15625,-1.781247 -0.90625,-2.593746 -0.75,-0.822915 -2.15625,-0.822915 -1.36458,0 -2.16666,0.916665 -0.79167,0.906249 -0.85417,2.499996 z"
           id="path1166" />
      </g>
    </g>
  </g>
</svg>

