<svg xmlns="http://www.w3.org/2000/svg" width="51.969" height="75" viewBox="0 0 13.75 19.844"><path d="m445.486 52.915 2.305.014-.071-6.182-.996.548-.505.028-.733-.455z" style="fill:#fff;fill-rule:evenodd;stroke-width:.264999" transform="translate(-443.312 -33.559)scale(1.00822)"/><path d="m447.803 52.95 1.275-.117-.38-2.65 1.227-.087-.048-.465-.73-1.844-.908-1.183-.605.07.11 3.884z" style="fill:#87aade;fill-rule:evenodd;stroke-width:.264999" transform="translate(-443.312 -33.559)scale(1.00822)"/><path d="m440.687 41.47-.267-.651-.628-1.552.319-1.607 1.22-1.756 1.381-1.428 1.465-.75 2.382-.334 1.523.236.954.805 1.608.31 1.189 1.45 1.065 1.81.36 1.178-.335 1.161-.796.948z" style="fill:#666;fill-rule:evenodd;stroke:none;stroke-width:.264999" transform="translate(-443.312 -33.559)scale(1.00822)"/><path d="m444.301 52.892-.63-.033.092-2.142.65.03zM440.15 41.62l.614-.376.99-.262.422.03.948-.036.849-.009.843-.313.385-.207.105.126 1.298-.472.999-.946.66-1.15.568 1.027.97.825.439.126.716.063.373.43.199.506.677.316.259.876-.105.548-.434.533-.433.226-.413 1.544-.897.794-1.91.78-.814.13-.716.625-.822-.15-.575-.545-2.492-.43-1.622-1.334-.747-1.423-.56-.359-.087-.98zM449.757 52.751l-.252-2.505-.765.123.323 2.468z" style="fill:#ffe6d5;fill-rule:evenodd;stroke:none;stroke-width:.264999" transform="translate(-443.312 -33.559)scale(1.00822)"/><path d="m446.29 44.882.639-.496-.11-.265-.863.07-.083.317z" style="fill:#faa;fill-rule:evenodd;stroke-width:.264999" transform="translate(-443.312 -33.559)scale(1.00822)"/><path d="m443.467 50.647.976.024-.107 2.25 1.154-.015v-6.233l-.4.01-.816 1.076-.69 1.777z" style="fill:#87aade;fill-rule:evenodd;stroke-width:.264999" transform="translate(-443.312 -33.559)scale(1.00822)"/><path d="M446.596 33.288a7.3 7.3 0 0 0-3.2.673c-.844.397-2.354 1.858-2.939 2.843-.909 1.53-.99 2.532-.307 3.754.437.782.45.827.243.827-.08 0-.228.09-.327.199-.529.584-.445 1.69.146 1.914.237.09.34.225.428.562.332 1.287 1.66 2.254 3.546 2.582l.726.127-.374.49c-.53.694-.79 1.278-1.06 2.385-.232.949-.233.969-.027 1.119.185.135.205.274.176 1.215-.023.755 0 1.015.08.898.062-.09.114-.57.115-1.067.002-.85.015-.903.237-.903.227 0 .233.03.171.983-.037.571-.02 1.01.04 1.047.164.102.19-.115.249-2.14.053-1.787-.018-2.05-.2-.738-.067.49-.09.52-.402.52-.329 0-.331-.004-.255-.465.111-.673.566-2.075.755-2.328.155-.208.161-.203.14.1-.019.27.033.334.361.448.315.109.376.179.344.395-.073.487.116 4.039.215 4.039.055 0 .098-1.228.098-2.791 0-1.535.018-2.79.041-2.79s.208.069.41.153c.437.183.869.123 1.177-.165.123-.114.274-.208.337-.208.076 0 .114.977.114 2.949 0 1.847.04 2.973.11 3.016.132.082.124.251.11-2.363l-.013-2.144.362-.105c.305-.089.36-.155.356-.428a2.4 2.4 0 0 0-.097-.596c-.089-.267-.085-.269.126-.08.413.368 1.358 2.62 1.176 2.801-.027.028-.26.055-.515.06-.44.009-.468-.01-.502-.319-.02-.18-.085-.378-.146-.438-.075-.074-.085.21-.032.876.12 1.492.315 2.605.464 2.655.17.057.166-.136-.03-1.33-.088-.535-.133-1.015-.101-1.067s.15-.094.262-.094c.172 0 .214.115.27.739.122 1.33.182 1.669.296 1.669.071 0 .09-.195.051-.52-.218-1.82-.215-1.962.046-2.03.218-.057.238-.115.184-.518-.08-.6-.831-2.145-1.269-2.61-.187-.2-.328-.373-.319-.391h.001v-.001c.017-.012.351-.134.742-.272 1.317-.464 2.185-1.321 2.412-2.381.087-.409.183-.59.34-.64.302-.095.64-.687.64-1.122 0-.198-.076-.509-.17-.69-.163-.317-.16-.338.103-.545.15-.118.406-.485.567-.815.243-.495.285-.707.244-1.205-.064-.773-.78-2.215-1.635-3.29-.79-.993-1.234-1.274-2.045-1.29-.558-.01-.64-.043-.842-.34-.352-.516-1.195-.792-2.204-.82zm.478.238q.394.021.646.092c.55.154 1.138.581 1.138.827 0 .109.139.156.465.157 1.154.006 2.226 1.018 3.3 3.112.698 1.36.677 1.824-.132 2.918-.369.5-.377.504-.69.348-.299-.15-.388-.392-.325-.881.01-.075-.084-.137-.21-.137-.317 0-.76-.312-1-.706-.175-.287-.204-.301-.204-.102 0 .127.106.367.237.533l.237.302-.265-.084c-1.04-.33-1.843-1.333-1.857-2.32-.006-.409-.008-.407-.202.198-.238.747-.737 1.492-1.269 1.898-.439.335-.579.317-.383-.047.07-.13.106-.258.082-.283-.025-.025-.114.083-.198.24s-.36.428-.613.602c-.531.365-.753.426-.324.088a2 2 0 0 0 .46-.575l.171-.346-.281.345c-.155.19-.512.498-.793.684s-.44.34-.35.34a.53.53 0 0 0 .305-.137c.107-.101.158-.104.192-.01.065.175 1.14-.213 1.751-.633.462-.318 1.24-1.321 1.24-1.6 0-.281.193-.126.26.209.154.77 1.232 1.61 1.903 1.481.162-.03.424.01.582.092.346.18.426.656.427 2.573 0 1.144-.026 1.319-.285 1.837-.535 1.075-1.79 1.753-3.453 1.868-1.033.07-1.32.186-.748.3l.364.073-.249.202c-.287.232-.711.257-1.091.063-.348-.178-.42-.409-.128-.409.126 0 .228-.048.228-.107 0-.065-.095-.07-.248-.012-.326.124-1.214-.022-2.267-.373-2.12-.706-2.793-1.671-2.715-3.894l.032-.913.328-.068c.18-.037.438-.125.57-.197.277-.148.976-1.112.808-1.112-.061 0-.165.1-.23.223-.183.342-.981.872-1.313.872-.25 0-.35-.1-.629-.63-.182-.346-.365-.83-.405-1.078-.137-.845.502-2.209 1.711-3.649 1.15-1.37 2.583-2.06 4.494-2.165a9 9 0 0 1 .926-.009m-2.13 5.985c-.04.002-.185.13-.484.412-.329.31-.803.667-1.055.795-.251.129-.457.258-.457.288 0 .092.586-.075.876-.25.432-.261.88-.71 1.064-1.067.06-.117.085-.179.056-.178m-1.574.501c-.045-.003-.181.09-.34.239-.196.182-.498.438-.671.569s-.271.237-.216.237c.239 0 1.243-.83 1.243-1.027q0-.017-.016-.018m4.981.737a.3.3 0 0 0-.088.016c-.25.096-.21.27.075.324.454.087.63.078.63-.035 0-.14-.385-.316-.617-.305m-4.184.089c-.188 0-.453.195-.453.334 0 .039.169.018.375-.046.38-.12.426-.288.078-.288m7.478.257c.032 0 .08.025.15.061.472.253.72 1.158.453 1.656a.94.94 0 0 1-.328.325c-.199.107-.217.08-.217-.31 0-.233-.032-.733-.071-1.11-.05-.476-.064-.62.013-.622m-11.105.35v.894c0 .491-.042.92-.094.952-.194.12-.483-.37-.483-.82 0-.34.07-.52.289-.738zm3.679.323c-.294 0-.656.518-.564.808.1.313.451.294.667-.036.228-.348.171-.772-.103-.772m4.204.101a.25.25 0 0 0-.165.061c-.233.193-.207.618.053.878.276.276.4.276.55-.004.192-.361-.132-.932-.438-.935m-1.68 2.152c-.079 0-.183.004-.32.012-.53.03-.577.056-.608.324-.024.203.041.343.215.465.317.221.333.22.679-.052.173-.136.288-.336.288-.498 0-.194-.015-.25-.253-.251m-.082.134c.127.009.14.079.082.228-.034.089-.16.214-.28.278-.18.096-.25.073-.392-.13-.168-.24-.162-.248.23-.33.167-.035.284-.051.36-.046m1.286 2.592c.166 0 .236.122.33.575.065.316.097.611.07.657-.027.045-.145.082-.262.082-.16 0-.212-.076-.212-.315 0-.173-.031-.468-.069-.657-.057-.288-.035-.342.143-.342m-2.668.022c.102-.003.122.139.094.605-.041.71-.077.77-.432.711-.202-.033-.237-.087-.176-.279.244-.773.355-1.007.492-1.034z" style="fill:#000;stroke-width:.413628" transform="translate(-443.312 -33.559)scale(1.00822)"/></svg>