<svg xmlns="http://www.w3.org/2000/svg" width="647.111" height="300" viewBox="0 0 171.214 79.375"><defs><path id="a" d="M9.18 58.304h51.357v42.674H9.18z"/><path id="b" d="M9.18 58.304h51.357v42.674H9.18z"/><path id="c" d="M9.18 58.304h51.357v42.674H9.18z"/><path id="d" d="M9.18 58.304h51.357v42.674H9.18z"/><path id="e" d="M9.18 58.304h51.357v42.674H9.18z"/><path id="f" d="M9.18 58.304h51.357v42.674H9.18z"/><path id="g" d="M9.18 58.304h51.357v42.674H9.18z"/><path id="h" d="M9.18 58.304h51.357v42.674H9.18z"/><path id="i" d="M9.18 58.304h51.357v42.674H9.18z"/><path id="j" d="M9.18 58.304h51.357v42.674H9.18z"/><path id="k" d="M9.18 58.304h51.357v42.674H9.18z"/><path id="l" d="M9.18 58.304h51.357v42.674H9.18z"/><path id="m" d="M9.18 58.304h51.357v42.674H9.18z"/><path id="n" d="M9.18 58.304h51.357v42.674H9.18z"/><path id="o" d="M9.18 58.304h51.357v42.674H9.18z"/><path id="p" d="M9.18 58.304h51.357v42.674H9.18z"/><path id="q" d="M9.18 58.304h51.357v42.674H9.18z"/></defs><path d="M.328 13.448h13.12v13.12H.328z" style="fill:#fff;fill-opacity:1;fill-rule:evenodd;stroke:#000;stroke-width:.66145874;stroke-linejoin:round;stroke-dasharray:none"/><path d="M.328 39.688h13.12v13.12H.328z" style="fill:#faa;fill-opacity:1;fill-rule:evenodd;stroke:#000;stroke-width:.66145874;stroke-linejoin:round;stroke-dasharray:none"/><path d="M26.568 39.688h13.12v13.12h-13.12zM26.568 13.448h13.12v13.12h-13.12zM52.808 13.448h13.12v13.12h-13.12z" style="fill:#fff;fill-opacity:1;fill-rule:evenodd;stroke:#000;stroke-width:.66145874;stroke-linejoin:round;stroke-dasharray:none"/><path d="M52.808 39.688h13.12v13.12h-13.12z" style="fill:#afe9c6;fill-opacity:1;fill-rule:evenodd;stroke:#000;stroke-width:.66145874;stroke-linejoin:round;stroke-dasharray:none"/><path d="M79.047 39.688h13.12v13.12h-13.12zM79.047 13.448h13.12v13.12h-13.12zM105.287 13.448h13.12v13.12h-13.12zM105.287 39.688h13.12v13.12h-13.12zM131.527 39.688h13.12v13.12h-13.12zM131.527 13.448h13.12v13.12h-13.12zM157.767 13.448h13.12v13.12h-13.12zM157.767 39.688h13.12v13.12h-13.12zM26.568 65.927h13.12v13.12h-13.12zM79.047 65.927h13.12v13.12h-13.12zM131.527 65.927h13.12v13.12h-13.12z" style="fill:#fff;fill-opacity:1;fill-rule:evenodd;stroke:#000;stroke-width:.66145874;stroke-linejoin:round;stroke-dasharray:none"/><path d="M13.447 20.008h13.12M6.887 26.568V39.69M13.447 46.251h13.12" style="fill:#c6e9af;fill-opacity:1;fill-rule:evenodd;stroke:#000;stroke-width:.66145874;stroke-linejoin:round;stroke-dasharray:none"/><path d="m33.127 26.568 19.68 13.123-45.92-13.123M33.126 26.568V39.69M59.366 26.568v13.12M65.926 20.008h13.12M92.166 20.008h13.119M118.405 26.568l13.12 13.123M144.644 39.691l13.12-13.123M157.763 20.008h-13.118M164.325 26.568V39.69M131.524 46.251h-13.119M105.286 46.247h-13.12M79.046 46.247h-13.12M52.806 46.251h-13.12M33.127 52.811v13.12M39.687 65.93l13.12-13.119M79.046 65.93l-13.12-13.119M85.605 52.811l.001 13.116M138.084 52.811v13.12M92.165 52.811l39.36 13.12M92.165 72.49h39.36M79.046 72.49h-39.36M26.567 72.49H6.887V52.81M144.644 72.49h19.68V52.81M138.084 13.448v-6.56H98.725l-6.56 6.56" style="fill:none;fill-opacity:1;fill-rule:evenodd;stroke:#000;stroke-width:.66145874;stroke-linejoin:round;stroke-dasharray:none"/><path d="M164.325 13.448V.328H98.727l-6.56 13.12M6.887 13.448V.328h65.599l6.56 13.12" style="fill:none;fill-opacity:1;fill-rule:evenodd;stroke:#000;stroke-width:.66145874;stroke-linejoin:round;stroke-dasharray:none"/><path d="m33.126 13.448.001-6.56h39.359l6.56 6.56" style="fill:none;fill-opacity:1;fill-rule:evenodd;stroke:#000;stroke-width:.66145874;stroke-linejoin:round;stroke-dasharray:none"/><path d="M14.059 58.081q0 .794-.596 1.228-.595.434-1.653.434H8.895v-5.825h2.667q1.066 0 1.612.372.55.368.55 1.092 0 .496-.277.839-.273.339-.835.459.707.082 1.075.446.372.36.372.955m-1.563-2.534q0-.393-.252-.558-.248-.165-.74-.165h-1.39v1.442h1.398q.517 0 .748-.177.236-.182.236-.542m.339 2.44q0-.82-1.174-.82h-1.546v1.67h1.591q.587 0 .856-.21.273-.215.273-.64" aria-label="B" style="font-weight:700;font-size:32px;font-family:&quot;Liberation Sans&quot;;-inkscape-font-specification:&quot;Liberation Sans Bold&quot;;white-space:pre;stroke-width:.661459"/><path d="M59.494 58.873q.476 0 .922-.136.447-.141.69-.356v-.806h-1.422v-.901h2.539v2.141q-.463.476-1.208.744-.74.269-1.554.269-1.422 0-2.187-.786-.765-.79-.765-2.236 0-1.439.77-2.204.768-.769 2.211-.769 2.05 0 2.609 1.518l-1.125.339q-.182-.443-.57-.67-.389-.227-.914-.227-.86 0-1.306.52-.447.521-.447 1.493 0 .988.459 1.53.463.537 1.298.537" aria-label="G" style="font-weight:700;font-size:32px;font-family:&quot;Liberation Sans&quot;;-inkscape-font-specification:&quot;Liberation Sans Bold&quot;;white-space:pre;stroke-width:.661459"/><text xml:space="preserve" style="font-weight:700;font-size:32px;font-family:&quot;Liberation Sans&quot;;-inkscape-font-specification:&quot;Liberation Sans Bold&quot;;writing-mode:lr-tb;direction:ltr;white-space:pre;shape-inside:url(#a);fill:#000;stroke-width:2.5" transform="translate(2.063 -.217)scale(.26458)"><tspan x="9.18" y="87.129">4</tspan></text><text xml:space="preserve" style="font-weight:700;font-size:32px;font-family:&quot;Liberation Sans&quot;;-inkscape-font-specification:&quot;Liberation Sans Bold&quot;;writing-mode:lr-tb;direction:ltr;white-space:pre;shape-inside:url(#b);fill:#000;stroke-width:2.5" transform="translate(28.522 -.217)scale(.26458)"><tspan x="9.18" y="87.129">4</tspan></text><text xml:space="preserve" style="font-weight:700;font-size:32px;font-family:&quot;Liberation Sans&quot;;-inkscape-font-specification:&quot;Liberation Sans Bold&quot;;writing-mode:lr-tb;direction:ltr;white-space:pre;shape-inside:url(#c);fill:#000;stroke-width:2.5" transform="translate(54.451 -.217)scale(.26458)"><tspan x="9.18" y="87.129">2</tspan></text><text xml:space="preserve" style="font-weight:700;font-size:32px;font-family:&quot;Liberation Sans&quot;;-inkscape-font-specification:&quot;Liberation Sans Bold&quot;;writing-mode:lr-tb;direction:ltr;white-space:pre;shape-inside:url(#d);fill:#000;stroke-width:2.5" transform="translate(80.91 -.217)scale(.26458)"><tspan x="9.18" y="87.129">6</tspan></text><text xml:space="preserve" style="font-weight:700;font-size:32px;font-family:&quot;Liberation Sans&quot;;-inkscape-font-specification:&quot;Liberation Sans Bold&quot;;writing-mode:lr-tb;direction:ltr;white-space:pre;shape-inside:url(#e);fill:#000;stroke-width:2.5" transform="translate(106.987 -.217)scale(.26458)"><tspan x="9.18" y="87.129">2</tspan></text><text xml:space="preserve" style="font-weight:700;font-size:32px;font-family:&quot;Liberation Sans&quot;;-inkscape-font-specification:&quot;Liberation Sans Bold&quot;;writing-mode:lr-tb;direction:ltr;white-space:pre;shape-inside:url(#f);fill:#000;stroke-width:2.5" transform="translate(133.23 -.217)scale(.26458)"><tspan x="9.18" y="87.129">2</tspan></text><text xml:space="preserve" style="font-weight:700;font-size:32px;font-family:&quot;Liberation Sans&quot;;-inkscape-font-specification:&quot;Liberation Sans Bold&quot;;writing-mode:lr-tb;direction:ltr;white-space:pre;shape-inside:url(#g);fill:#000;stroke-width:2.5" transform="translate(159.822 -.217)scale(.26458)"><tspan x="9.18" y="87.129">4</tspan></text><text xml:space="preserve" style="font-weight:700;font-size:32px;font-family:&quot;Liberation Sans&quot;;-inkscape-font-specification:&quot;Liberation Sans Bold&quot;;writing-mode:lr-tb;direction:ltr;white-space:pre;shape-inside:url(#h);fill:#000;stroke-width:2.5" transform="translate(159.566 26.283)scale(.26458)"><tspan x="9.18" y="87.129">2</tspan></text><text xml:space="preserve" style="font-weight:700;font-size:32px;font-family:&quot;Liberation Sans&quot;;-inkscape-font-specification:&quot;Liberation Sans Bold&quot;;writing-mode:lr-tb;direction:ltr;white-space:pre;shape-inside:url(#i);fill:#000;stroke-width:2.5" transform="translate(2.063 26.241)scale(.26458)"><tspan x="9.18" y="87.129">3</tspan></text><text xml:space="preserve" style="font-weight:700;font-size:32px;font-family:&quot;Liberation Sans&quot;;-inkscape-font-specification:&quot;Liberation Sans Bold&quot;;writing-mode:lr-tb;direction:ltr;white-space:pre;shape-inside:url(#j);fill:#000;stroke-width:2.5" transform="translate(28.072 26.208)scale(.26458)"><tspan x="9.18" y="87.129">4</tspan></text><text xml:space="preserve" style="font-weight:700;font-size:32px;font-family:&quot;Liberation Sans&quot;;-inkscape-font-specification:&quot;Liberation Sans Bold&quot;;writing-mode:lr-tb;direction:ltr;white-space:pre;shape-inside:url(#k);fill:#000;stroke-width:2.5" transform="translate(54.537 26.208)scale(.26458)"><tspan x="9.18" y="87.129">7</tspan></text><text xml:space="preserve" style="font-weight:700;font-size:32px;font-family:&quot;Liberation Sans&quot;;-inkscape-font-specification:&quot;Liberation Sans Bold&quot;;writing-mode:lr-tb;direction:ltr;white-space:pre;shape-inside:url(#l);fill:#000;stroke-width:2.5" transform="translate(80.988 26.208)scale(.26458)"><tspan x="9.18" y="87.129">4</tspan></text><text xml:space="preserve" style="font-weight:700;font-size:32px;font-family:&quot;Liberation Sans&quot;;-inkscape-font-specification:&quot;Liberation Sans Bold&quot;;writing-mode:lr-tb;direction:ltr;white-space:pre;shape-inside:url(#m);fill:#000;stroke-width:2.5" transform="translate(106.987 26.241)scale(.26458)"><tspan x="9.18" y="87.129">2</tspan></text><text xml:space="preserve" style="font-weight:700;font-size:32px;font-family:&quot;Liberation Sans&quot;;-inkscape-font-specification:&quot;Liberation Sans Bold&quot;;writing-mode:lr-tb;direction:ltr;white-space:pre;shape-inside:url(#n);fill:#000;stroke-width:2.5" transform="translate(133.376 26.208)scale(.26458)"><tspan x="9.18" y="87.129">4</tspan></text><text xml:space="preserve" style="font-weight:700;font-size:32px;font-family:&quot;Liberation Sans&quot;;-inkscape-font-specification:&quot;Liberation Sans Bold&quot;;writing-mode:lr-tb;direction:ltr;white-space:pre;shape-inside:url(#o);fill:#000;stroke-width:2.5" transform="translate(133.376 52.138)scale(.26458)"><tspan x="9.18" y="87.129">4</tspan></text><text xml:space="preserve" style="font-weight:700;font-size:32px;font-family:&quot;Liberation Sans&quot;;-inkscape-font-specification:&quot;Liberation Sans Bold&quot;;writing-mode:lr-tb;direction:ltr;white-space:pre;shape-inside:url(#p);fill:#000;stroke-width:2.5" transform="translate(80.46 52.138)scale(.26458)"><tspan x="9.18" y="87.129">4</tspan></text><text xml:space="preserve" style="font-weight:700;font-size:32px;font-family:&quot;Liberation Sans&quot;;-inkscape-font-specification:&quot;Liberation Sans Bold&quot;;writing-mode:lr-tb;direction:ltr;white-space:pre;shape-inside:url(#q);fill:#000;stroke-width:2.5" transform="translate(28.072 52.138)scale(.26458)"><tspan x="9.18" y="87.129">4</tspan></text></svg>