<svg xmlns="http://www.w3.org/2000/svg" width="402.47" height="402.497" viewBox="0 0 106.486 106.494"><defs><path id="a" d="M37.795 37.795h483.78v718.11H37.795z"/><path id="c" d="M37.795 37.795h483.78v718.11H37.795z"/><path id="d" d="M37.795 37.795h483.78v718.11H37.795z"/><path id="e" d="M37.795 37.795h483.78v718.11H37.795z"/></defs><path d="M.331.331h26.457v26.461H.331zm26.458 0h26.457v26.461H26.789z" style="fill:none;fill-opacity:1;stroke:#000;stroke-width:.66246;stroke-linejoin:round"/><path d="M53.244.331h26.457v26.461H53.244z" style="fill:none;fill-opacity:1;stroke:#000;stroke-width:.66246;stroke-linejoin:round"/><path d="M79.699.331h26.457v26.461H79.699zM.331 26.788h26.457v26.461H.331zm26.458 0h26.457v26.461H26.789z" style="fill:none;fill-opacity:1;stroke:#000;stroke-width:.66246;stroke-linejoin:round"/><path d="M53.244 26.788h26.457v26.461H53.244z" style="fill:none;fill-opacity:1;stroke:#000;stroke-width:.66246;stroke-linejoin:round"/><path d="M79.699 26.788h26.457v26.461H79.699zM.331 53.245h26.457v26.461H.331zm26.458 0h26.457v26.461H26.789z" style="fill:none;fill-opacity:1;stroke:#000;stroke-width:.66246;stroke-linejoin:round"/><path d="M53.244 53.245h26.457v26.461H53.244z" style="fill:none;fill-opacity:1;stroke:#000;stroke-width:.66246;stroke-linejoin:round"/><path d="M79.699 53.245h26.457v26.461H79.699zM.331 79.702h26.457v26.461H.331zm26.458 0h26.457v26.461H26.789z" style="fill:none;fill-opacity:1;stroke:#000;stroke-width:.66246;stroke-linejoin:round"/><path d="M53.244 79.702h26.457v26.461H53.244z" style="fill:none;fill-opacity:1;stroke:#000;stroke-width:.66246;stroke-linejoin:round"/><path d="M79.699 79.702h26.457v26.461H79.699z" style="fill:none;fill-opacity:1;stroke:#000;stroke-width:.66246;stroke-linejoin:round"/><text xml:space="preserve" style="font-size:12.8007px;font-family:Gargle;-inkscape-font-specification:Gargle;white-space:pre;shape-inside:url(#a);display:inline;fill:#000" transform="translate(12.476 10.473)scale(.66142)"><tspan x="37.795" y="48.868"><tspan style="font-family:&quot;Source Sans 3&quot;;-inkscape-font-specification:&quot;Source Sans 3, &quot;">D</tspan></tspan></text><text xml:space="preserve" style="font-size:12.8007px;font-family:Gargle;-inkscape-font-specification:Gargle;white-space:pre;shape-inside:url(#c);display:inline;fill:#000" transform="translate(38.976 -15.983)scale(.66142)"><tspan x="37.795" y="48.868"><tspan style="font-family:&quot;Source Sans 3&quot;;-inkscape-font-specification:&quot;Source Sans 3, &quot;">C</tspan></tspan></text><text xml:space="preserve" style="font-size:12.8007px;font-family:Gargle;-inkscape-font-specification:Gargle;white-space:pre;shape-inside:url(#d);display:inline;fill:#000" transform="translate(65.228 10.473)scale(.66142)"><tspan x="37.795" y="48.868"><tspan style="font-family:&quot;Source Sans 3&quot;;-inkscape-font-specification:&quot;Source Sans 3, &quot;">B</tspan></tspan></text><text xml:space="preserve" style="font-style:normal;font-variant:normal;font-weight:400;font-stretch:normal;font-size:12.8007px;font-family:&quot;Source Sans 3&quot;;-inkscape-font-specification:&quot;Source Sans 3, &quot;;white-space:pre;shape-inside:url(#e);display:inline;fill:#000" transform="translate(38.773 37.107)scale(.66142)"><tspan x="37.795" y="48.6">B</tspan></text></svg>