<?xml version="1.0" encoding="UTF-8" standalone="no"?>
<!-- Created with Inkscape (http://www.inkscape.org/) -->

<svg
   viewBox="0 0 250 180"
   version="1.1"
   id="svg1"
   inkscape:version="1.4.4 (dcaf3e7d9e, 2026-05-05)"
   sodipodi:docname="1.svg"
   xmlns:inkscape="http://www.inkscape.org/namespaces/inkscape"
   xmlns:sodipodi="http://sodipodi.sourceforge.net/DTD/sodipodi-0.dtd"
   xmlns="http://www.w3.org/2000/svg"
   xmlns:svg="http://www.w3.org/2000/svg">
  <sodipodi:namedview
     id="namedview1"
     pagecolor="#ffffff"
     bordercolor="#000000"
     borderopacity="0.25"
     inkscape:showpageshadow="2"
     inkscape:pageopacity="0.0"
     inkscape:pagecheckerboard="0"
     inkscape:deskcolor="#d1d1d1"
     inkscape:document-units="mm"
     inkscape:zoom="1.4633048"
     inkscape:cx="84.398003"
     inkscape:cy="170.84616"
     inkscape:window-width="1920"
     inkscape:window-height="1008"
     inkscape:window-x="0"
     inkscape:window-y="0"
     inkscape:window-maximized="1"
     inkscape:current-layer="layer1" />
  <defs
     id="defs1" />
  <g
     inkscape:label="Katman 1"
     inkscape:groupmode="layer"
     id="layer1">
    <desc
       id="desc1">Generated with Qt</desc>
    <g
       fill="none"
       stroke="#000000"
       stroke-opacity="1"
       stroke-width="1"
       stroke-linecap="square"
       stroke-linejoin="bevel"
       font-family="Cantarell"
       font-size="45.8333px"
       font-weight="400"
       font-style="normal"
       id="g1"
       transform="matrix(0.26458333,0,0,0.26458333,-342.9,-174.625)"
       style="fill-rule:evenodd" />
    <g
       fill="none"
       stroke="#000000"
       stroke-opacity="1"
       stroke-width="1"
       stroke-linecap="square"
       stroke-linejoin="bevel"
       transform="matrix(3.1242264,0,0,3.1242264,-342.9,-174.625)"
       font-family="Cantarell"
       font-size="45.8333px"
       font-weight="400"
       font-style="normal"
       id="g2"
       style="fill-rule:evenodd" />
    <g
       fill="none"
       stroke="#000000"
       stroke-opacity="1"
       stroke-width="1"
       stroke-linecap="square"
       stroke-linejoin="bevel"
       transform="matrix(3.1242264,0,0,3.1242264,-342.9,-174.625)"
       font-family="Cantarell"
       font-size="45.8333px"
       font-weight="400"
       font-style="normal"
       id="g4"
       style="fill-rule:evenodd" />
    <g
       fill="none"
       stroke="#000000"
       stroke-opacity="1"
       stroke-width="1"
       stroke-linecap="square"
       stroke-linejoin="bevel"
       transform="matrix(3.1242264,0,0,3.1242264,-342.9,-174.625)"
       font-family="Cantarell"
       font-size="45.8333px"
       font-weight="400"
       font-style="normal"
       id="g5"
       style="fill-rule:evenodd" />
    <g
       fill="none"
       stroke="#000000"
       stroke-opacity="1"
       stroke-width="1"
       stroke-linecap="square"
       stroke-linejoin="bevel"
       transform="matrix(3.1242264,0,0,3.1242264,-342.9,-174.625)"
       font-family="Cantarell"
       font-size="45.8333px"
       font-weight="400"
       font-style="normal"
       id="g6"
       style="fill-rule:evenodd" />
    <g
       fill="none"
       stroke="#000000"
       stroke-opacity="1"
       stroke-width="1"
       stroke-linecap="square"
       stroke-linejoin="bevel"
       transform="matrix(3.1242264,0,0,3.1242264,-342.9,-174.625)"
       font-family="Cantarell"
       font-size="45.8333px"
       font-weight="400"
       font-style="normal"
       id="g7"
       style="fill-rule:evenodd" />
    <g
       fill="none"
       stroke="#000000"
       stroke-opacity="1"
       stroke-width="1"
       stroke-linecap="square"
       stroke-linejoin="bevel"
       transform="matrix(3.1242264,0,0,3.1242264,-342.9,-174.625)"
       font-family="Cantarell"
       font-size="45.8333px"
       font-weight="400"
       font-style="normal"
       id="g9"
       style="fill-rule:evenodd" />
    <g
       fill="#fefee9"
       fill-opacity="1"
       stroke="#dcdccc"
       stroke-opacity="1"
       stroke-width="3.07087"
       stroke-linecap="square"
       stroke-linejoin="bevel"
       transform="matrix(0.10213663,0,0,0.10213663,-56.48401,-36.970714)"
       font-family="Cantarell"
       font-size="45.8333px"
       font-weight="400"
       font-style="normal"
       id="g18"
       style="fill:#aade87;fill-rule:evenodd;stroke:#000000;stroke-width:9.78203;stroke-dasharray:none">
      <path
         vector-effect="none"
         fill-rule="evenodd"
         d="m 2752.22,930.267 0.01,0.027 63.36,110.566 44.45,118.27 20.02,125.85 111.29,215.38 -20.38,120.11 24.98,112.95 -36,5.05 -70.71,17.45 -182.55,-0.87 -88.71,12.63 -86.87,20.66 -76.95,1.42 -147.29,-36.04 -152.44,-3.49 -73.09,-31.27 -108.36,-93.71 -53.63,-15.66 -12.49,6.25 -23.5,15.84 11.75,43.43 -27.18,23.97 -36.73,0.78 -85.4,-108.72 -121.95,-62.59 -55.1,31.87 -20.57,72.36 -27.73,21.76 -36.55,8.22 -105.97,-10.42 -415.244,-127.73 -118.458,-93.85 -26.814,-104.27 -74.932,-33.2 -29.385,31.87 -36.548,23.37 -38.2,-1.61 -32.507,-20.85 -32.691,-67.86 -15.243,-162.72 4.775,-88.98 50.138,-215.427 0.016,-0.078 14.493,-9.297 20.969,-3.615 58.423,3.615 33.405,8.532 54.663,35.285 39.913,4.628 29.934,-7.809 48.301,-23.499 35.863,-4.989 20.824,-5.496 95.445,-42.949 10.7,-7.665 6.36,-7.23 10.27,-6.219 21.26,-4.41 111.49,20.39 25.31,19.45 45.12,45.191 105.71,70.281 67.53,29.501 70.43,10.412 35.72,-8.604 36.15,-13.449 35.29,-3.76 48.15,26.319 19.96,1.663 38.9,-2.169 15.91,4.122 105.85,64.062 31.53,11.425 34.12,5.419 28.78,-15.976 112.08,-29.356 43.38,-3.254 102.1,72.446 51.33,26.47 71.58,10.34 29.79,-3.83 52.93,-16.71 40.93,-7.37 63.77,-18.66 41.22,-21.038 82.42,-17.353 91.08,-45.582"
         id="path18"
         style="fill:#aade87;stroke:#000000;stroke-width:9.78203;stroke-dasharray:none" />
    </g>
    <g
       fill="none"
       stroke="#000000"
       stroke-opacity="1"
       stroke-width="1"
       stroke-linecap="square"
       stroke-linejoin="bevel"
       transform="matrix(3.1242264,0,0,3.1242264,-342.9,-174.625)"
       font-family="Cantarell"
       font-size="45.8333px"
       font-weight="400"
       font-style="normal"
       id="g19"
       style="fill-rule:evenodd" />
    <g
       fill="none"
       stroke="#000000"
       stroke-opacity="1"
       stroke-width="1"
       stroke-linecap="square"
       stroke-linejoin="bevel"
       transform="matrix(3.1242264,0,0,3.1242264,-342.9,-174.625)"
       font-family="Cantarell"
       font-size="45.8333px"
       font-weight="400"
       font-style="normal"
       id="g20"
       style="fill-rule:evenodd" />
    <g
       fill="none"
       stroke="#000000"
       stroke-opacity="1"
       stroke-width="1"
       stroke-linecap="square"
       stroke-linejoin="bevel"
       transform="matrix(3.1242264,0,0,3.1242264,-342.9,-174.625)"
       font-family="Cantarell"
       font-size="45.8333px"
       font-weight="400"
       font-style="normal"
       id="g21"
       style="fill-rule:evenodd" />
    <g
       fill="none"
       stroke="#000000"
       stroke-opacity="1"
       stroke-width="1"
       stroke-linecap="square"
       stroke-linejoin="bevel"
       font-family="Cantarell"
       font-size="45.8333px"
       font-weight="400"
       font-style="normal"
       id="g22"
       transform="matrix(0.26458333,0,0,0.26458333,-342.9,-174.625)"
       style="fill-rule:evenodd" />
    <g
       fill="none"
       stroke="#000000"
       stroke-opacity="1"
       stroke-width="1"
       stroke-linecap="square"
       stroke-linejoin="bevel"
       transform="matrix(3.1242264,0,0,3.1242264,-342.9,-174.625)"
       font-family="Cantarell"
       font-size="45.8333px"
       font-weight="400"
       font-style="normal"
       id="g23"
       style="fill-rule:evenodd" />
    <g
       fill="none"
       stroke="#000000"
       stroke-opacity="1"
       stroke-width="1"
       stroke-linecap="square"
       stroke-linejoin="bevel"
       transform="matrix(3.1242264,0,0,3.1242264,-342.9,-174.625)"
       font-family="Cantarell"
       font-size="45.8333px"
       font-weight="400"
       font-style="normal"
       id="g24"
       style="fill-rule:evenodd" />
    <g
       fill="none"
       stroke="#000000"
       stroke-opacity="1"
       stroke-width="1"
       stroke-linecap="square"
       stroke-linejoin="bevel"
       transform="matrix(3.1242264,0,0,3.1242264,-342.9,-174.625)"
       font-family="Cantarell"
       font-size="45.8333px"
       font-weight="400"
       font-style="normal"
       id="g25"
       style="fill-rule:evenodd" />
    <g
       fill="none"
       stroke="#000000"
       stroke-opacity="1"
       stroke-width="1"
       stroke-linecap="square"
       stroke-linejoin="bevel"
       transform="matrix(3.1242264,0,0,3.1242264,-342.9,-174.625)"
       font-family="Cantarell"
       font-size="45.8333px"
       font-weight="400"
       font-style="normal"
       id="g26"
       style="fill-rule:evenodd" />
    <g
       fill="none"
       stroke="#000000"
       stroke-opacity="1"
       stroke-width="1"
       stroke-linecap="square"
       stroke-linejoin="bevel"
       transform="matrix(3.1242264,0,0,3.1242264,-342.9,-174.625)"
       font-family="Cantarell"
       font-size="45.8333px"
       font-weight="400"
       font-style="normal"
       id="g27"
       style="fill-rule:evenodd" />
    <g
       fill="none"
       stroke="#000000"
       stroke-opacity="1"
       stroke-width="1"
       stroke-linecap="square"
       stroke-linejoin="bevel"
       transform="matrix(3.1242264,0,0,3.1242264,-342.9,-174.625)"
       font-family="Cantarell"
       font-size="45.8333px"
       font-weight="400"
       font-style="normal"
       id="g28"
       style="fill-rule:evenodd" />
    <g
       fill="none"
       stroke="#000000"
       stroke-opacity="1"
       stroke-width="1"
       stroke-linecap="square"
       stroke-linejoin="bevel"
       font-family="Cantarell"
       font-size="45.8333px"
       font-weight="400"
       font-style="normal"
       id="g29"
       transform="matrix(0.26458333,0,0,0.26458333,-342.9,-174.625)"
       style="fill-rule:evenodd" />
  </g>
</svg>
