<?xml version="1.0" encoding="UTF-8" standalone="no"?>
<!-- Created with Inkscape (http://www.inkscape.org/) -->

<svg
   version="1.1"
   viewBox="0 0 250 180"
   id="svg3"
   sodipodi:docname="2.svg"
   inkscape:version="1.4.4 (dcaf3e7d9e, 2026-05-05)"
   xmlns:inkscape="http://www.inkscape.org/namespaces/inkscape"
   xmlns:sodipodi="http://sodipodi.sourceforge.net/DTD/sodipodi-0.dtd"
   xmlns="http://www.w3.org/2000/svg"
   xmlns:svg="http://www.w3.org/2000/svg">
  <defs
     id="defs3" />
  <sodipodi:namedview
     id="namedview3"
     pagecolor="#ffffff"
     bordercolor="#000000"
     borderopacity="0.25"
     inkscape:showpageshadow="2"
     inkscape:pageopacity="0.0"
     inkscape:pagecheckerboard="0"
     inkscape:deskcolor="#d1d1d1"
     inkscape:zoom="1.545168"
     inkscape:cx="-33.329709"
     inkscape:cy="80.897353"
     inkscape:window-width="1920"
     inkscape:window-height="1008"
     inkscape:window-x="0"
     inkscape:window-y="0"
     inkscape:window-maximized="1"
     inkscape:current-layer="svg3" />
  <desc
     id="desc1">Generated with Qt</desc>
  <g
     fill="none"
     stroke="#000000"
     stroke-opacity="1"
     stroke-width="1"
     stroke-linecap="square"
     stroke-linejoin="bevel"
     font-family="Cantarell"
     font-size="45.8333px"
     font-weight="400"
     font-style="normal"
     id="g1"
     transform="translate(-1610,-1100)"
     style="fill-rule:evenodd" />
  <g
     fill="none"
     stroke="#000000"
     stroke-opacity="1"
     stroke-width="1"
     stroke-linecap="square"
     stroke-linejoin="bevel"
     transform="matrix(11.8081,0,0,11.8081,-1610,-1100)"
     font-family="Cantarell"
     font-size="45.8333px"
     font-weight="400"
     font-style="normal"
     id="g2"
     style="fill-rule:evenodd" />
  <g
     fill="none"
     stroke="#000000"
     stroke-opacity="1"
     stroke-width="1"
     stroke-linecap="square"
     stroke-linejoin="bevel"
     transform="matrix(11.8081,0,0,11.8081,-1610,-1100)"
     font-family="Cantarell"
     font-size="45.8333px"
     font-weight="400"
     font-style="normal"
     id="g4"
     style="fill-rule:evenodd" />
  <g
     fill="none"
     stroke="#000000"
     stroke-opacity="1"
     stroke-width="1"
     stroke-linecap="square"
     stroke-linejoin="bevel"
     transform="matrix(11.8081,0,0,11.8081,-1610,-1100)"
     font-family="Cantarell"
     font-size="45.8333px"
     font-weight="400"
     font-style="normal"
     id="g5"
     style="fill-rule:evenodd" />
  <g
     fill="none"
     stroke="#000000"
     stroke-opacity="1"
     stroke-width="1"
     stroke-linecap="square"
     stroke-linejoin="bevel"
     transform="matrix(11.8081,0,0,11.8081,-1610,-1100)"
     font-family="Cantarell"
     font-size="45.8333px"
     font-weight="400"
     font-style="normal"
     id="g6"
     style="fill-rule:evenodd" />
  <g
     fill="none"
     stroke="#000000"
     stroke-opacity="1"
     stroke-width="1"
     stroke-linecap="square"
     stroke-linejoin="bevel"
     transform="matrix(11.8081,0,0,11.8081,-1610,-1100)"
     font-family="Cantarell"
     font-size="45.8333px"
     font-weight="400"
     font-style="normal"
     id="g7"
     style="fill-rule:evenodd" />
  <g
     fill="none"
     stroke="#000000"
     stroke-opacity="1"
     stroke-width="1"
     stroke-linecap="square"
     stroke-linejoin="bevel"
     transform="matrix(11.8081,0,0,11.8081,-1610,-1100)"
     font-family="Cantarell"
     font-size="45.8333px"
     font-weight="400"
     font-style="normal"
     id="g9"
     style="fill-rule:evenodd" />
  <g
     fill="#000000"
     fill-opacity="0"
     stroke="none"
     transform="matrix(0.999751,0,0,0.999751,-1610,-1100)"
     font-family="Cantarell"
     font-size="45.8333px"
     font-weight="400"
     font-style="normal"
     id="g10"
     style="fill-rule:evenodd;stroke-width:1;stroke-linecap:square;stroke-linejoin:bevel">
    <path
       vector-effect="non-scaling-stroke"
       fill-rule="evenodd"
       d="M 0,0 H 3508 V 2481 H 0 V 0"
       id="path9" />
  </g>
  <path
     vector-effect="none"
     fill-rule="evenodd"
     d="m 49.536424,122.46611 0.804901,0.12703 h 0.635474 l 0.571964,0.17434 0.656674,0.66753 2.160563,-0.92158 0.762589,1.26586 -0.169426,4.54837 -0.8791,1.96495 -2.065251,-0.15331 -4.236589,-2.25579 -3.834051,-1.39815 -1.747601,-1.03284 -0.730788,-1.57249 1.038014,-1.0486 2.372388,-0.38721 4.660239,0.0219"
     id="path27"
     style="font-style:normal;font-weight:400;font-size:45.8333px;font-family:Cantarell;fill:#ff5555;fill-opacity:1;stroke:#000000;stroke-width:0.997137;stroke-linecap:square;stroke-linejoin:bevel;stroke-dasharray:none;stroke-opacity:1" />
  <path
     vector-effect="none"
     fill-rule="evenodd"
     d="m 39.517046,81.847912 1.28155,0.5081 2.351276,-0.550149 1.938138,-1.18615 h 0.826187 v 2.6684 l -2.859725,1.191406 -2.923151,0.79982 -8.769629,1.043357 -5.740477,1.938663 -11.756378,1.392018 -2.690214,-0.14805 L 8.039559,88.658203 6.493271,87.990665 5.8471958,87.291589 0.49856886,85.87767 v -0.810332 l 2.98675104,-3.701244 4.2683015,-3.431426 5.2109146,-2.542252 8.833228,-1.286894 11.247929,-3.209001 1.641688,-0.201225 1.599288,0.153569 0.836701,0.603763 0.698988,0.958644 1.016812,0.852382 1.821713,0.254049 v 0.884795 l -0.338938,1.085406 -0.254225,1.657457 0.0318,1.646944 0.561363,1.022333 -1.143837,2.033274"
     id="path28"
     style="font-style:normal;font-weight:400;font-size:45.8333px;font-family:Cantarell;fill:#ff5555;fill-opacity:1;stroke:#000000;stroke-width:0.997137;stroke-linecap:square;stroke-linejoin:bevel;stroke-dasharray:none;stroke-opacity:1" />
  <path
     vector-effect="none"
     fill-rule="evenodd"
     d="m 213.95578,42.633642 1.34559,1.86937 1.93779,3.971676 -1.77923,0.963813 h -0.88917 l -0.59308,-0.561275 -0.043,-0.0636 -0.19009,0.254225 -0.954,0.37065 5.61362,4.665495 7.20188,3.669883 7.73188,2.616101 9.23603,1.721056 3.64343,-0.0053 1.39814,-0.217169 1.32194,-0.673233 0.002,0.0049 0.57906,1.183697 -1.53394,5.696501 -6.24087,2.89871 -9.06607,7.25698 -1.99123,0.578182 -1.45247,0.948745 2.44852,3.937774 5.11079,1.667093 2.30046,0.275951 0.56504,0.848001 -0.76653,2.518598 -1.73542,4.203212 -0.57818,3.446319 -1.45334,3.023194 -0.92772,0.945239 -1.33157,2.1787 2.27331,2.80856 2.16555,1.41568 -0.60534,5.25883 -2.32674,5.33679 -2.79806,4.89265 -5.1248,2.9794 -5.52865,1.81251 -5.17824,2.81119 -5.58209,1.74244 -9.56366,-2.48881 -9.57769,-1.24397 -3.60488,1.5129 -4.03501,-0.39333 -6.03938,-0.0236 -5.51464,3.49713 -9.41561,2.95662 -4.85586,3.19052 -5.54179,1.43318 -11.79668,-1.14321 -5.21941,0.83398 -4.1962,10.2496 0.36268,10.487 -27.38834,3.86068 -2.93384,0.93736 -1.313174,1.14411 -1.3342,-0.0158 -5.719627,2.54138 -1.0162,0.57731 h -1.568102 l -6.862851,-0.95838 -1.398151,0.14279 -1.695127,0.67805 -1.386762,0.13754 -1.175637,1.10643 -0.212,0.27069 -0.391588,0.66667 -0.879539,-0.25405 -1.39815,-0.89969 -10.273253,1.99123 -5.18989,0.005 -5.041489,-1.99648 -0.550763,-2.83309 3.251577,-6.80504 2.044137,-6.4187 4.88284,-3.66445 1.111688,-3.01882 0.89005,-7.14931 -0.551025,-1.39728 -2.436251,-3.6224 -0.55015,-1.68461 0.1901,-1.15374 0.551025,-0.43451 0.603587,-0.30224 0.413489,-0.7674 v -3.10905 l 0.656149,-3.40514 -0.423124,-1.17039 -1.991226,-0.31712 0.709588,-1.48838 1.937788,-6.5028 -0.09549,-0.79456 -0.699076,-2.55277 -0.09461,-1.18089 0.349537,-1.14848 1.175639,-1.76959 0.254049,-1.0854 0.529125,-1.17564 2.732351,-3.66971 1.187026,-0.92159 6.947828,1.82215 2.0543,-1.06963 4.342501,-1.47262 1.398151,-0.662277 5.486602,-4.252271 1.165126,-1.471738 0.370563,-1.080149 0.158561,-1.674103 0.445026,-0.805075 0.09548,-0.508099 -0.116512,-0.582563 -0.01051,-0.487075 0.444149,-0.201488 1.429688,0.04293 0.678051,-0.132282 0.551025,-0.397719 0.826101,-1.641688 0.508099,-2.361788 -0.06307,-2.462533 -0.869026,-1.932531 0.848001,-1.911507 0.666662,-0.810331 0.900563,-0.159439 1.652205,0.05344 1.800246,-0.275951 3.39989,-1.222943 4.32148,-0.905819 2.42573,-1.588251 5.76169,-5.857164 1.15373,-0.571963 1.15461,-0.317737 1.76872,-0.730788 1.64169,-1.016813 13.92807,-13.03793 2.73234,-1.684001 5.34819,-0.254137 11.23777,0.730787 4.4485,-0.815587 1.42969,0.317738 3.4104,1.461663 7.42439,0.503106 2.84887,-0.503106 3.63291,-2.229507 3.18788,-3.113864 3.98246,-2.441245 6.07967,-0.211825 4.41609,0.667188 4.98902,0.143056 2.89092,-0.540162 4.41695,-2.081195 2.01225,-0.04765 2.13928,1.270951"
     id="path29"
     style="font-style:normal;font-weight:400;font-size:45.8333px;font-family:Cantarell;fill:#ff5555;fill-opacity:1;stroke:#000000;stroke-width:0.997137;stroke-linecap:square;stroke-linejoin:bevel;stroke-dasharray:none;stroke-opacity:1" />
  <path
     vector-effect="none"
     fill-rule="evenodd"
     d="m 165.67841,9.2591912 -0.0675,10.2899858 4.11385,9.734229 -1.77747,0.19045 -4.97763,1.149182 -7.5409,3.590514 -1.95969,1.413919 -2.2882,1.191494 -8.01746,0.905557 -2.43538,1.133325 -4.21547,2.827838 -1.79062,0.566619 -1.46123,0.767932 -1.17563,3.876364 -1.36662,1.578088 -4.20408,1.758201 -0.86903,0.985013 -0.25405,2.181763 -0.80508,2.107739 -1.96932,1.742256 -7.13881,5.020289 -0.91107,0.503019 -3.8125,0.720276 -1.71614,1.069725 -2.75339,2.155307 -0.0324,0.492506 -0.64563,0.487163 -3.41041,3.15092 -2.361788,1.477432 -2.976761,1.413919 -3.092402,1.053869 -2.700813,0.413488 -1.768713,1.090662 0.424,2.398582 1.631177,2.441508 1.885225,1.180894 -6.227728,4.528221 -1.949175,1.127456 -5.189627,2.272433 -3.929013,2.83835 -1.599639,0.767407 -6.905777,1.843175 -1.377126,0.111257 -1.238712,-0.709588 0.328512,-1.5462 1.038101,-1.557589 0.762149,-0.709588 2.128764,-1.249224 1.462101,-2.74374 1.016199,-2.748119 0.709588,-1.255357 5.867677,-6.301315 1.589126,-4.67627 -0.657025,-3.558713 -2.478301,-2.780183 -3.876452,-2.308964 1.356102,-0.857899 0.423124,-0.868501 -0.572051,-0.677788 -1.6522,-0.264825 -0.6141,-0.593075 1.18615,-1.239238 1.705639,-1.117382 0.857638,-0.195881 1.483125,-1.038013 6.671877,-1.975282 2.563276,-0.06352 1.949176,-2.621357 6.460752,-3.19332 6.121725,-3.902907 7.66793,-2.171163 5.75117,-3.770539 3.71701,-1.816369 4.0464,-1.42452 3.55845,-0.640819 6.1007,0.587819 1.82127,-0.587819 1.75821,-1.445719 2.73323,-3.262088 1.88522,-1.599288 3.05036,1.165037 4.17255,-1.053869 3.69686,-2.345932 1.59876,-2.737869 -3.98246,-6.450153 -1.03809,-1.175638 -1.28077,0.158912 -0.002,1.76e-4 0.0806,-0.653872 0.83398,-7.6334123 -0.14804,-0.3632037 19.00643,1.4258332"
     id="path30"
     style="font-style:normal;font-weight:400;font-size:45.8333px;font-family:Cantarell;fill:#ff5555;fill-opacity:1;stroke:#000000;stroke-width:0.997137;stroke-linecap:square;stroke-linejoin:bevel;stroke-dasharray:none;stroke-opacity:1" />
  <g
     fill="none"
     stroke="#000000"
     stroke-opacity="1"
     stroke-width="1"
     stroke-linecap="square"
     stroke-linejoin="bevel"
     transform="matrix(11.8081,0,0,11.8081,-1610,-1100)"
     font-family="Cantarell"
     font-size="45.8333px"
     font-weight="400"
     font-style="normal"
     id="g31"
     style="fill-rule:evenodd" />
  <g
     fill="none"
     stroke="#000000"
     stroke-opacity="1"
     stroke-width="1"
     stroke-linecap="square"
     stroke-linejoin="bevel"
     transform="matrix(11.8081,0,0,11.8081,-1610,-1100)"
     font-family="Cantarell"
     font-size="45.8333px"
     font-weight="400"
     font-style="normal"
     id="g32"
     style="fill-rule:evenodd" />
  <g
     fill="none"
     stroke="#000000"
     stroke-opacity="1"
     stroke-width="1"
     stroke-linecap="square"
     stroke-linejoin="bevel"
     transform="matrix(11.8081,0,0,11.8081,-1610,-1100)"
     font-family="Cantarell"
     font-size="45.8333px"
     font-weight="400"
     font-style="normal"
     id="g33"
     style="fill-rule:evenodd" />
  <g
     fill="none"
     stroke="#000000"
     stroke-opacity="1"
     stroke-width="1"
     stroke-linecap="square"
     stroke-linejoin="bevel"
     font-family="Cantarell"
     font-size="45.8333px"
     font-weight="400"
     font-style="normal"
     id="g34"
     transform="translate(-1610,-1100)"
     style="fill-rule:evenodd" />
  <g
     fill="none"
     stroke="#000000"
     stroke-opacity="1"
     stroke-width="1"
     stroke-linecap="square"
     stroke-linejoin="bevel"
     transform="matrix(11.8081,0,0,11.8081,-1610,-1100)"
     font-family="Cantarell"
     font-size="45.8333px"
     font-weight="400"
     font-style="normal"
     id="g35"
     style="fill-rule:evenodd" />
  <g
     fill="none"
     stroke="#000000"
     stroke-opacity="1"
     stroke-width="1"
     stroke-linecap="square"
     stroke-linejoin="bevel"
     transform="matrix(11.8081,0,0,11.8081,-1610,-1100)"
     font-family="Cantarell"
     font-size="45.8333px"
     font-weight="400"
     font-style="normal"
     id="g36"
     style="fill-rule:evenodd" />
  <g
     fill="none"
     stroke="#000000"
     stroke-opacity="1"
     stroke-width="1"
     stroke-linecap="square"
     stroke-linejoin="bevel"
     transform="matrix(11.8081,0,0,11.8081,-1610,-1100)"
     font-family="Cantarell"
     font-size="45.8333px"
     font-weight="400"
     font-style="normal"
     id="g37"
     style="fill-rule:evenodd" />
  <g
     fill="none"
     stroke="#000000"
     stroke-opacity="1"
     stroke-width="1"
     stroke-linecap="square"
     stroke-linejoin="bevel"
     transform="matrix(11.8081,0,0,11.8081,-1610,-1100)"
     font-family="Cantarell"
     font-size="45.8333px"
     font-weight="400"
     font-style="normal"
     id="g38"
     style="fill-rule:evenodd" />
  <g
     fill="none"
     stroke="#000000"
     stroke-opacity="1"
     stroke-width="1"
     stroke-linecap="square"
     stroke-linejoin="bevel"
     transform="matrix(11.8081,0,0,11.8081,-1610,-1100)"
     font-family="Cantarell"
     font-size="45.8333px"
     font-weight="400"
     font-style="normal"
     id="g39"
     style="fill-rule:evenodd" />
  <g
     fill="none"
     stroke="#000000"
     stroke-opacity="1"
     stroke-width="1"
     stroke-linecap="square"
     stroke-linejoin="bevel"
     transform="matrix(11.8081,0,0,11.8081,-1610,-1100)"
     font-family="Cantarell"
     font-size="45.8333px"
     font-weight="400"
     font-style="normal"
     id="g40"
     style="fill-rule:evenodd" />
  <g
     fill="none"
     stroke="#000000"
     stroke-opacity="1"
     stroke-width="1"
     stroke-linecap="square"
     stroke-linejoin="bevel"
     font-family="Cantarell"
     font-size="45.8333px"
     font-weight="400"
     font-style="normal"
     id="g41"
     transform="translate(-1610,-1100)"
     style="fill-rule:evenodd" />
</svg>
