<?xml version="1.0" encoding="UTF-8" standalone="no"?>
<!-- Created with Inkscape (http://www.inkscape.org/) -->

<svg
   version="1.1"
   viewBox="0 0 250 180"
   id="svg3"
   sodipodi:docname="3.svg"
   inkscape:version="1.4.4 (dcaf3e7d9e, 2026-05-05)"
   xmlns:inkscape="http://www.inkscape.org/namespaces/inkscape"
   xmlns:sodipodi="http://sodipodi.sourceforge.net/DTD/sodipodi-0.dtd"
   xmlns="http://www.w3.org/2000/svg"
   xmlns:svg="http://www.w3.org/2000/svg">
  <defs
     id="defs3" />
  <sodipodi:namedview
     id="namedview3"
     pagecolor="#ffffff"
     bordercolor="#000000"
     borderopacity="0.25"
     inkscape:showpageshadow="2"
     inkscape:pageopacity="0.0"
     inkscape:pagecheckerboard="0"
     inkscape:deskcolor="#d1d1d1"
     inkscape:zoom="2.4286579"
     inkscape:cx="130.73064"
     inkscape:cy="111.58426"
     inkscape:window-width="1920"
     inkscape:window-height="1008"
     inkscape:window-x="0"
     inkscape:window-y="0"
     inkscape:window-maximized="1"
     inkscape:current-layer="svg3" />
  <desc
     id="desc2">Generated with Qt</desc>
  <path
     style="opacity:0.998;fill:#ffe680;fill-opacity:1;stroke:#000000;stroke-width:1;stroke-linecap:butt;stroke-linejoin:miter;stroke-miterlimit:4;stroke-dasharray:none;stroke-opacity:1"
     d="M 34.761572,178.92961 24.41002,170.10914 c 0,0 -15.4639346,-9.97594 -16.1776226,-10.95186 -0.7136881,-0.9759 -2.859415,-13.91751 -3.2162591,-14.45968 -0.356844,-0.54215 -2.8548513,-2.81927 -2.9737994,-4.4458 -0.118948,-1.62649 -2.02221532,-7.80726 -1.42747529,-8.45789 0.59473999,-0.65058 5.94769809,-5.0964 6.54243809,-5.0964 0.59474,0 5.8287483,-6.61449 7.4940213,-6.83135 1.665371,-0.21689 3.568639,-2.38555 4.877166,-3.46991 1.308428,-1.08436 5.709703,0.10843 6.542439,-0.75905 0.832635,-0.86744 1.308427,-2.81931 3.687487,-3.68676 2.379058,-0.86748 11.780912,-4.19103 12.732595,-6.25128 0.951584,-2.06024 3.806436,-9.325359 3.806436,-9.759099 0,-0.433708 -1.308428,-13.879585 -1.308428,-13.879585 0,0 -11.419505,-7.373546 -10.705817,-8.241024 0.713689,-0.867467 2.735904,-0.759024 3.092747,-1.843377 0.356943,-1.084361 2.260111,-8.240983 2.616956,-9.000038 0.356943,-0.759035 6.304542,-8.457878 7.018329,-10.626571 0.713687,-2.168664 1.18948,-9.108471 5.471806,-15.07237 4.282328,-5.963888 9.278441,-11.819335 10.111078,-11.819335 0.832636,0 11.195696,-4.47792 13.719099,-4.784616 2.523405,-0.306696 13.45809,-1.840192 14.635665,-1.840192 1.177575,0 5.383216,0.536725 6.056131,-0.306695 0.672913,-0.84343 6.813068,-6.977398 6.897198,-8.8175896 0.0843,-1.840192 1.00942,-1.9168684 2.01874,-1.6868493 1.00932,0.2300389 3.95336,0.9967823 5.29908,0.2300389 1.34574,-0.7667533 5.38323,-5.1372147 6.47667,-5.1372147 1.09346,0 2.60753,-0.2300191 3.61686,-0.9200961 1.00942,-0.6900671 1.42996,-2.30023028 2.8598,-1.45681053 1.42997,0.84342973 4.79443,4.60048053 5.97201,4.37045143 1.17758,-0.230019 5.38322,-2.3769066 6.47666,-1.9935448 1.09356,0.3833817 3.1122,2.5302692 3.36459,5.213881 0.25228,2.6836117 -1.34584,5.1372047 0.6729,5.6739297 2.01875,0.536714 1.42986,0.996772 9.4206,0.230018 7.99075,-0.766743 18.92544,-1.073438 22.45817,-0.153343 3.53262,0.920097 4.37379,0.383373 7.5701,0 3.19632,-0.383371 4.45803,1.303458 6.72905,-0.153352 2.27102,-1.456821 1.26161,-3.373689 4.45792,-2.146897 3.19632,1.226801 4.54215,3.220346 6.8973,2.760288 2.35515,-0.460039 5.04662,0.773112 7.56999,-1.06708 2.5234,-1.840192 3.44862,-4.6004802 5.13089,-5.2138809 1.68224,-0.6134006 4.20563,0.3067054 4.28974,0.9967724 0.0467,0.3824591 -0.4328,2.5483045 0.67401,4.4381195 0.89022,1.519926 3.45766,2.688989 3.19518,3.919422 -0.58879,2.760278 -6.67149,14.94349 -8.35373,19.160599 -1.68226,4.217099 -3.44863,9.891038 -2.94394,10.964477 0.50466,1.073449 2.60749,2.146887 1.76636,3.680384 -0.84113,1.533487 -5.63557,3.527041 -3.95328,5.137204 1.68223,1.610163 5.13086,-1.303477 7.31778,-0.153353 2.18695,1.150116 2.52339,2.376907 3.1122,4.063757 0.58877,1.686839 1.85048,1.303458 3.86915,2.990297 2.01871,1.68685 0.3365,5.290567 -2.6916,6.28734 -3.02803,0.996762 -4.96265,1.610153 -6.89724,0.536704 -1.93458,-1.073439 -3.53274,-3.450355 -6.30845,-3.450355 -2.77568,0 -5.13093,0.536714 -6.39254,-0.460058 -1.26179,-0.996753 -3.53281,-0.766734 -4.54214,0.766753 -1.00933,1.533507 1.76636,3.603718 3.11219,5.980625 1.34583,2.376916 8.74785,7.431086 9.08431,8.734564 0.33646,1.303438 -0.67291,3.680374 -3.1122,4.983832 -2.43928,1.303468 -5.97201,1.763526 -3.95326,3.220346 2.01874,1.456821 7.09203,-2.59888 8.52195,-1.832126 1.42989,0.766763 5.38321,-1.150126 7.99069,-0.920106 2.60752,0.230048 3.19629,-0.460028 4.96268,2.913661 1.76636,3.373669 5.04675,6.747368 7.31781,8.127501 2.27105,1.380132 2.35516,1.456818 5.38322,0.920101 3.02806,-0.536719 6.42167,-2.240235 8.32489,0.470599 1.90326,2.710863 0.83269,9.216923 2.617,11.277173 1.78431,2.06026 6.54241,3.79519 4.52025,5.31326 -2.02225,1.51809 -4.1634,0.65063 -7.61306,2.38557 -3.44965,1.73497 -2.97383,1.40966 -3.80649,3.1446 -0.83268,1.73495 -2.85487,0.9759 -3.09279,3.7952 -0.23793,2.81929 -4.04442,3.7952 -6.66139,4.22896 -2.617,0.43373 -12.72802,1.30118 -16.89139,2.38551 -4.16336,1.08436 -8.9215,4.3374 -10.11108,6.93984 -1.18948,2.60239 -0.2379,5.85545 -1.54632,7.69885 -1.30854,1.84338 -4.76794,5.49597 -7.71188,5.49597 -2.94394,0 -10.59828,-0.0767 -14.88795,-1.5335 -4.28977,-1.45684 -7.99074,-5.06055 -10.51415,-4.67717 -2.52341,0.38339 -8.32715,0.76676 -11.35522,1.61019 -3.02807,0.84342 -1.42985,2.53027 -6.30841,3.68039 -4.87855,1.15012 -9.75711,1.15012 -13.28983,0.38333 -3.53273,-0.76672 -8.66366,-3.2203 -11.6076,-2.9903 -2.94393,0.23003 -6.81308,2.60697 -8.66356,2.53029 -1.8505,-0.0767 -6.05613,-3.45038 -6.14026,-6.6707 -0.0843,-3.22035 -0.67292,-6.6707 -2.85981,-7.28409 -2.1869,-0.6134 -5.887878,-2.14689 -9.084198,-1.30347 -3.196319,0.84341 -7.570212,3.14368 -9.084195,4.21711 -1.513982,1.07343 -7.233705,3.06696 -8.663561,3.45037 -1.429955,0.38337 -5.383216,0.8434 -7.065552,2.68358 -1.682237,1.8402 -4.037387,2.14691 -4.962582,2.37691 -0.925294,0.23003 -1.009422,-1.15011 -3.869234,0.30672 -2.859811,1.45681 -8.158899,6.21065 -8.915942,7.36076 -0.75704,1.1501 -6.981324,9.43097 -7.233704,10.5811 -0.252282,1.15011 -1.09345,3.067 -1.766364,3.29702 -0.672914,0.23002 -7.65424,3.60369 -8.495407,5.36721 -0.841069,1.76354 -0.841069,3.14366 -0.841069,3.14366 z"
     id="path958"
     sodipodi:nodetypes="ccssssssssssscsssssssssssssssssssssssssssssssssssssssssssssssssssssssssssssssssssssssssssssssssc" />
</svg>
