<?xml version="1.0" encoding="UTF-8" standalone="no"?>
<!-- Created with Inkscape (http://www.inkscape.org/) -->

<svg
   width="6mm"
   height="6mm"
   viewBox="0 0 6 6"
   version="1.1"
   id="svg1"
   inkscape:version="1.4.2 (ebf0e940d0, 2025-05-08)"
   sodipodi:docname="5_1_1_16.svg"
   xmlns:inkscape="http://www.inkscape.org/namespaces/inkscape"
   xmlns:sodipodi="http://sodipodi.sourceforge.net/DTD/sodipodi-0.dtd"
   xmlns="http://www.w3.org/2000/svg"
   xmlns:svg="http://www.w3.org/2000/svg">
  <sodipodi:namedview
     id="namedview1"
     pagecolor="#ffffff"
     bordercolor="#000000"
     borderopacity="0.25"
     inkscape:showpageshadow="2"
     inkscape:pageopacity="0.0"
     inkscape:pagecheckerboard="0"
     inkscape:deskcolor="#d1d1d1"
     inkscape:document-units="mm"
     inkscape:zoom="16.594952"
     inkscape:cx="30.220033"
     inkscape:cy="10.12356"
     inkscape:window-width="1920"
     inkscape:window-height="1014"
     inkscape:window-x="0"
     inkscape:window-y="0"
     inkscape:window-maximized="1"
     inkscape:current-layer="layer1" />
  <defs
     id="defs1">
    <rect
       x="13.485725"
       y="-52.819092"
       width="225.2477"
       height="118.63495"
       id="rect1" />
    <rect
       x="37.795277"
       y="37.795277"
       width="483.77954"
       height="718.11023"
       id="rect2721" />
    <rect
       x="37.795277"
       y="37.795277"
       width="483.77954"
       height="718.11023"
       id="rect2722" />
    <rect
       x="37.795277"
       y="37.795277"
       width="483.77954"
       height="718.11023"
       id="rect2723" />
    <rect
       x="37.795277"
       y="37.795277"
       width="483.77954"
       height="718.11023"
       id="rect2724" />
    <rect
       x="37.795277"
       y="37.795277"
       width="483.77954"
       height="718.11023"
       id="rect2725" />
    <rect
       x="37.795277"
       y="37.795277"
       width="483.77954"
       height="718.11023"
       id="rect2726" />
    <rect
       x="37.795277"
       y="37.795277"
       width="483.77954"
       height="718.11023"
       id="rect2727" />
    <rect
       x="37.795277"
       y="37.795277"
       width="483.77954"
       height="718.11023"
       id="rect2728" />
    <rect
       x="37.795277"
       y="37.795277"
       width="483.77954"
       height="718.11023"
       id="rect2729" />
    <rect
       x="37.795277"
       y="37.795277"
       width="483.77954"
       height="718.11023"
       id="rect2730" />
    <rect
       x="37.795277"
       y="37.795277"
       width="483.77954"
       height="718.11023"
       id="rect2731" />
    <rect
       x="37.795277"
       y="37.795277"
       width="483.77954"
       height="718.11023"
       id="rect2732" />
    <rect
       x="37.795277"
       y="37.795277"
       width="483.77954"
       height="718.11023"
       id="rect2733" />
    <rect
       x="37.795277"
       y="37.795277"
       width="483.77954"
       height="718.11023"
       id="rect2734" />
  </defs>
  <g
     inkscape:label="Katman 1"
     inkscape:groupmode="layer"
     id="layer1">
    <g
       id="g14"
       transform="matrix(0.74999999,0,0,0.74999999,-719.29541,-41.561332)">
      <ellipse
         style="fill:#e6e6e6;fill-opacity:1;stroke:none;stroke-width:0.262552;stroke-dasharray:none"
         id="path4003"
         cx="963.08344"
         cy="59.415108"
         rx="3.9244447"
         ry="3.9170337" />
      <ellipse
         style="fill:#b3b3b3;fill-opacity:1;stroke:none;stroke-width:0.264999;stroke-dasharray:none"
         id="path4004"
         cx="962.00562"
         cy="58.782337"
         rx="0.97527683"
         ry="0.98215097" />
      <ellipse
         style="fill:#b3b3b3;fill-opacity:1;stroke:none;stroke-width:0.264999;stroke-dasharray:none"
         id="path4005"
         cx="964.06152"
         cy="61.931561"
         rx="0.72350556"
         ry="0.66577965" />
      <ellipse
         style="fill:#b3b3b3;fill-opacity:1;stroke:none;stroke-width:0.113581;stroke-dasharray:none"
         id="ellipse4005"
         cx="964.19086"
         cy="59.700466"
         rx="0.31010184"
         ry="0.28535992" />
      <ellipse
         style="fill:#b3b3b3;fill-opacity:1;stroke:none;stroke-width:0.134507;stroke-dasharray:none"
         id="ellipse4006"
         cx="964.35876"
         cy="57.474762"
         rx="0.36723405"
         ry="0.33793378" />
      <path
         style="fill:#b3b3b3;fill-opacity:1;stroke:none;stroke-width:0.264999;stroke-dasharray:none"
         d="m 959.91382,61.724756 0.59616,0.647621 0.70149,0.48541 0.72806,0.304257 0.13282,-0.83757 -0.14216,-0.516697 -0.43971,-0.460645 -0.60357,-0.128894 -0.40153,0.102481 z"
         id="path4006" />
      <path
         style="fill:#b3b3b3;fill-opacity:1;stroke:none;stroke-width:0.264999;stroke-dasharray:none"
         d="m 959.15899,59.700466 v -0.884774 l 0.25025,-0.776907 0.35711,0.430363 0.0806,0.550979 -0.21579,0.394981 -0.31565,0.310353 z"
         id="path4007" />
      <path
         style="fill:#b3b3b3;fill-opacity:1;stroke:none;stroke-width:0.264999;stroke-dasharray:none"
         d="m 966.8839,60.391939 -0.80208,-0.206455 -0.42992,-0.612613 -0.0861,-0.620504 0.0984,-0.627094 0.54491,-0.541861 0.3025,-0.128778 0.28374,0.488688 0.14435,1.050004 -0.0482,0.972754 z"
         id="path4008" />
      <path
         style="fill:#000000;stroke-width:0.243978"
         d="m 962.05334,63.291705 c -1.15754,-0.303467 -2.0594,-1.035155 -2.59375,-2.104315 -0.28815,-0.576554 -0.39903,-1.083525 -0.39903,-1.82443 0,-2.223964 1.72541,-3.947852 3.95133,-3.947852 0.72874,0 1.24928,0.112135 1.78868,0.385299 2.19374,1.110995 2.92409,3.800003 1.58091,5.820451 -0.93424,1.405285 -2.71658,2.093341 -4.32814,1.670847 z m 2.04872,-0.218625 c 0.74686,-0.234722 1.49701,-0.737714 1.92065,-1.28785 0.27738,-0.360197 0.5534,-0.871593 0.62475,-1.157513 0.0388,-0.155835 0.0256,-0.177645 -0.10793,-0.17858 -0.2675,-0.0019 -0.65444,-0.275367 -0.86003,-0.607897 -0.17378,-0.280901 -0.19574,-0.372537 -0.19452,-0.806131 0.001,-0.378791 0.0337,-0.550285 0.14472,-0.759816 0.13862,-0.261893 0.44035,-0.538091 0.68084,-0.62307 0.11281,-0.03988 0.11281,-0.0485 0,-0.248371 -0.0642,-0.113883 -0.32025,-0.413315 -0.56879,-0.665412 -0.75498,-0.76583 -1.63345,-1.130364 -2.72051,-1.128909 -1.29256,0.0017 -2.40763,0.590442 -3.11142,1.642671 -0.43734,0.653878 -0.44797,0.702614 -0.21187,0.971511 0.23484,0.267459 0.30156,0.564997 0.20618,0.919263 -0.0659,0.244554 -0.38143,0.604489 -0.59133,0.674453 -0.1746,0.05823 0.40527,1.730162 0.60013,1.730162 0.0329,0 0.15244,-0.06994 0.26549,-0.155429 0.68397,-0.517351 1.65225,-0.224498 1.91778,0.580011 0.05,0.151506 0.0661,0.406905 0.0429,0.683055 -0.0348,0.416043 -0.0289,0.442765 0.10447,0.471103 0.0779,0.01646 0.1996,0.04427 0.27058,0.06167 0.23181,0.05677 1.28393,-0.01931 1.58794,-0.11492 z m -0.40905,-0.464597 c -0.49279,-0.267383 -0.4847,-1.092799 0.0122,-1.350285 0.38683,-0.200043 0.88332,-0.06626 1.06615,0.287279 0.36793,0.711494 -0.37633,1.444468 -1.07936,1.063006 z m 0.79493,-0.281298 c 0.12886,-0.128782 0.18862,-0.253332 0.18862,-0.39228 0,-0.277701 -0.30328,-0.580971 -0.58096,-0.580971 -0.27771,0 -0.58098,0.30327 -0.58098,0.580971 0,0.138944 0.06,0.263498 0.18862,0.39228 0.12886,0.128782 0.25333,0.188702 0.39228,0.188702 0.13902,0 0.2635,-0.05992 0.39228,-0.188702 z m -1.96171,-1.531363 c -0.0915,-0.09138 -0.0396,-0.216518 0.0894,-0.216518 0.0902,0 0.12704,0.03506 0.11301,0.107623 -0.023,0.118802 -0.13333,0.178091 -0.20244,0.108903 z m 1.44032,-0.862044 c -0.0709,-0.07102 -0.12907,-0.172685 -0.12907,-0.225934 0,-0.05325 0.0581,-0.15492 0.12907,-0.225931 0.0709,-0.07102 0.17277,-0.129107 0.22594,-0.129107 0.0533,0 0.15488,0.05809 0.22592,0.129107 0.0709,0.071 0.12906,0.172685 0.12906,0.225931 0,0.05325 -0.0581,0.154921 -0.12906,0.225934 -0.0709,0.07102 -0.17257,0.129107 -0.22592,0.129107 -0.0532,0 -0.15488,-0.05809 -0.22594,-0.129107 z m 0.31498,-0.299847 c -0.0563,-0.06779 -0.0951,-0.0714 -0.16301,-0.01524 -0.0679,0.05626 -0.0713,0.09518 -0.0142,0.162969 0.0563,0.06779 0.0951,0.0714 0.16301,0.01524 0.0679,-0.05626 0.0713,-0.09518 0.0142,-0.162969 z m -2.83318,0.02549 c -0.4884,-0.332398 -0.63999,-0.850254 -0.39551,-1.351182 0.3809,-0.780515 1.49487,-0.809444 1.88287,-0.0489 0.26449,0.518422 0.0575,1.216851 -0.42916,1.44776 -0.31219,0.148132 -0.80297,0.126038 -1.0582,-0.04768 z m 0.967,-0.130997 c 0.23783,-0.120347 0.45381,-0.480429 0.45381,-0.756599 0,-0.498644 -0.52602,-0.956224 -0.99753,-0.867768 -0.78712,0.147665 -1.00694,1.173075 -0.33881,1.58046 0.23503,0.143294 0.64574,0.163721 0.88253,0.0439 z m 1.62043,-1.765866 c -0.0736,-0.09356 -0.13374,-0.225588 -0.13374,-0.29342 0,-0.164514 0.28299,-0.440229 0.45187,-0.440229 0.16891,0 0.45186,0.275713 0.45186,0.440229 0,0.209529 -0.24761,0.463505 -0.45186,0.463505 -0.12215,0 -0.22937,-0.0573 -0.31809,-0.170083 z m 0.50923,-0.14799 c 0.11626,-0.21712 -0.061,-0.437903 -0.28299,-0.352697 -0.22405,0.08598 -0.14878,0.477125 0.0919,0.477125 0.0685,0 0.15448,-0.056 0.19106,-0.124432 z m -2.5508,-1.043138 c -0.0608,-0.09827 0.0711,-0.213031 0.19167,-0.16677 0.0579,0.02226 0.0842,0.08014 0.062,0.137685 -0.0441,0.114818 -0.19024,0.131586 -0.25368,0.02911 z m -0.0695,6.315624 c 0.0213,-0.07988 0.0388,-0.290485 0.0388,-0.468006 -4.9e-4,-0.884492 -0.88816,-1.390329 -1.60608,-0.91523 -0.14512,0.0961 -0.264,0.21474 -0.264,0.263668 0,0.159961 0.75921,0.796308 1.23267,1.033168 0.25468,0.1274 0.48481,0.231641 0.51139,0.231641 0.0266,0 0.0659,-0.06537 0.0872,-0.145245 z m 4.90073,-2.953274 c 0.11361,-0.613936 -0.1435,-2.130232 -0.36127,-2.130232 -0.16524,0 -0.54728,0.32463 -0.66017,0.560893 -0.0646,0.135306 -0.13049,0.398191 -0.14634,0.584183 -0.0532,0.627896 0.4526,1.338007 0.92174,1.293769 0.17276,-0.01626 0.19776,-0.04766 0.24597,-0.308613 z m -7.1648,-0.715512 c 0.0821,-0.156242 0.10488,-0.29525 0.0776,-0.477022 -0.036,-0.24095 -0.18476,-0.485829 -0.29506,-0.485829 -0.0754,0 -0.18903,0.608479 -0.18903,1.011613 0,0.357876 6.3e-4,0.35925 0.14533,0.265735 0.0799,-0.05171 0.19736,-0.193234 0.2612,-0.314497 z"
         id="path3852"
         sodipodi:nodetypes="sssssssssscscssssssssssssssssssssssssssssssssssssssssssssssssssssssssssssssssssssssssssssssssssssssssss" />
    </g>
  </g>
</svg>
