<?xml version="1.0" encoding="UTF-8" standalone="no"?>
<!-- Created with Inkscape (http://www.inkscape.org/) -->

<svg
   width="37.742001mm"
   height="7.145mm"
   viewBox="0 0 37.742001 7.145"
   version="1.1"
   id="svg1"
   inkscape:version="1.4.2 (ebf0e940d0, 2025-05-08)"
   sodipodi:docname="5_1_1_49.svg"
   xmlns:inkscape="http://www.inkscape.org/namespaces/inkscape"
   xmlns:sodipodi="http://sodipodi.sourceforge.net/DTD/sodipodi-0.dtd"
   xmlns="http://www.w3.org/2000/svg"
   xmlns:svg="http://www.w3.org/2000/svg">
  <sodipodi:namedview
     id="namedview1"
     pagecolor="#ffffff"
     bordercolor="#000000"
     borderopacity="0.25"
     inkscape:showpageshadow="2"
     inkscape:pageopacity="0.0"
     inkscape:pagecheckerboard="0"
     inkscape:deskcolor="#d1d1d1"
     inkscape:document-units="mm"
     inkscape:zoom="1.7186782"
     inkscape:cx="75.639524"
     inkscape:cy="-28.510282"
     inkscape:window-width="1079"
     inkscape:window-height="994"
     inkscape:window-x="0"
     inkscape:window-y="0"
     inkscape:window-maximized="0"
     inkscape:current-layer="layer1" />
  <defs
     id="defs1">
    <rect
       x="13.485725"
       y="-52.819092"
       width="225.2477"
       height="118.63495"
       id="rect1" />
    <rect
       x="37.795277"
       y="37.795277"
       width="483.77954"
       height="718.11023"
       id="rect2721" />
    <rect
       x="37.795277"
       y="37.795277"
       width="483.77954"
       height="718.11023"
       id="rect2722" />
    <rect
       x="37.795277"
       y="37.795277"
       width="483.77954"
       height="718.11023"
       id="rect2723" />
    <rect
       x="37.795277"
       y="37.795277"
       width="483.77954"
       height="718.11023"
       id="rect2724" />
    <rect
       x="37.795277"
       y="37.795277"
       width="483.77954"
       height="718.11023"
       id="rect2725" />
    <rect
       x="37.795277"
       y="37.795277"
       width="483.77954"
       height="718.11023"
       id="rect2726" />
    <rect
       x="37.795277"
       y="37.795277"
       width="483.77954"
       height="718.11023"
       id="rect2727" />
    <rect
       x="37.795277"
       y="37.795277"
       width="483.77954"
       height="718.11023"
       id="rect2728" />
    <rect
       x="37.795277"
       y="37.795277"
       width="483.77954"
       height="718.11023"
       id="rect2729" />
    <rect
       x="37.795277"
       y="37.795277"
       width="483.77954"
       height="718.11023"
       id="rect2730" />
    <rect
       x="37.795277"
       y="37.795277"
       width="483.77954"
       height="718.11023"
       id="rect2731" />
    <rect
       x="37.795277"
       y="37.795277"
       width="483.77954"
       height="718.11023"
       id="rect2732" />
    <rect
       x="37.795277"
       y="37.795277"
       width="483.77954"
       height="718.11023"
       id="rect2733" />
    <rect
       x="37.795277"
       y="37.795277"
       width="483.77954"
       height="718.11023"
       id="rect2734" />
  </defs>
  <g
     inkscape:label="Katman 1"
     inkscape:groupmode="layer"
     id="layer1">
    <g
       id="g1741"
       transform="matrix(0.58799091,0,0,0.58799091,-75.201732,-16.214275)">
      <path
         style="fill:#005500;fill-opacity:0.5;stroke:none;stroke-width:0.264583px;stroke-linecap:butt;stroke-linejoin:miter;stroke-opacity:1"
         d="m 128.30076,32.028497 2.97509,5.146006 -2.02025,1.896486 1.91403,0.313192 1.0363,-1.641938 1.80981,1.441606 3.42186,0.0897 1.54658,-1.742874 -2.45771,-3.250356 -7.04569,-3.298431 z"
         id="path1740" />
      <path
         style="fill:#005500;stroke-width:0.32002"
         d="m 127.9285,39.310535 c -0.10849,-0.175613 0.0639,-0.41155 0.38299,-0.524305 2.72312,-0.961918 3.2177,-1.489788 2.19282,-2.340353 -0.2572,-0.213468 -0.55962,-0.699129 -0.67205,-1.07925 -0.11249,-0.38014 -0.57176,-1.234261 -1.02072,-1.898061 -0.69387,-1.025891 -0.76209,-1.325883 -0.45488,-2.000139 0.5532,-1.214121 1.96848,-1.056363 3.98911,0.444642 0.91651,0.68081 2.35864,1.495563 3.20473,1.810551 3.05103,1.13586 4.90242,4.640689 2.92689,5.540788 -1.31098,0.597331 -3.99989,0.457603 -5.19301,-0.269845 -1.28884,-0.785803 -1.45934,-0.796648 -1.06938,-0.06797 0.278,0.519459 0.10776,0.576783 -1.89184,0.637051 -1.20852,0.0364 -2.28613,-0.07744 -2.39466,-0.253058 z m 3.36348,-0.954824 c 0.35203,-0.352016 0.64003,-0.928056 0.64003,-1.280081 0,-0.352025 0.14401,-0.640041 0.32003,-0.640041 0.176,0 0.32001,0.35496 0.32001,0.788793 0,0.836526 0.7955,1.451349 1.87784,1.451349 0.46009,0 0.66826,-0.247208 0.74109,-0.880053 0.0879,-0.764049 0.25945,-0.893154 1.30133,-0.979383 0.66005,-0.05469 1.20009,0.02312 1.20009,0.172633 0,0.14957 -0.39207,0.266261 -0.87127,0.259335 -0.58016,-0.0084 -0.90878,0.17449 -0.98354,0.547415 -0.0788,0.39338 0.0908,0.560033 0.57014,0.560033 0.37532,0 0.59339,-0.143998 0.48461,-0.320011 -0.11212,-0.181509 0.15669,-0.320029 0.62116,-0.320029 1.84571,0 0.17143,-2.396406 -2.45389,-3.512276 -0.92813,-0.394494 -2.13776,-1.055472 -2.68806,-1.468842 -0.55032,-0.41337 -1.09184,-0.660318 -1.20339,-0.548761 -0.11152,0.11152 -0.39652,-0.06212 -0.63326,-0.385868 -0.28101,-0.38429 -0.62832,-0.512746 -1.00033,-0.369992 -0.52895,0.202985 -0.53227,0.260226 -0.0463,0.797243 0.65212,0.720577 0.68953,1.224297 0.0516,0.694876 -0.46395,-0.385042 0.70864,2.029414 1.61185,3.318919 0.68777,0.981927 0.56836,1.418175 -0.57985,2.118251 -0.69231,0.422107 -0.8528,0.634544 -0.48003,0.635342 0.30802,6.41e-4 0.84805,-0.286827 1.20009,-0.638852 z m 6.31375,0.446703 c -0.10632,-0.106321 -0.38237,-0.117695 -0.61337,-0.02535 -0.2553,0.102208 -0.17947,0.178 0.19333,0.193338 0.33736,0.01384 0.52637,-0.06165 0.42004,-0.168065 z"
         id="path1741"
         sodipodi:nodetypes="scsssssssssssssssssssscssssssssssssssssscsss" />
    </g>
    <g
       id="g1790"
       transform="matrix(0.58795683,0,0,0.58795683,-39.181512,-17.025427)">
      <path
         style="fill:#aa4400;fill-opacity:0.5;stroke:none;stroke-width:0.264583px;stroke-linecap:butt;stroke-linejoin:miter;stroke-opacity:1"
         d="m 102.58788,40.813132 -0.27358,-6.819217 0.52389,-4.580324 0.9312,-0.186028 0.2274,7.058376 -0.44403,4.447977 z"
         id="path1789" />
      <path
         style="fill:#aa4400;stroke-width:0.32002"
         d="m 102.06431,35.721723 c 0.0787,-5.631789 0.31866,-6.764789 1.4324,-6.764789 0.54792,0 0.62982,0.245082 0.66845,2.000138 0.0979,4.446961 0.0552,6.5681 -0.16752,8.320556 -0.22132,1.741565 -0.28139,1.840114 -1.12132,1.840114 h -0.88747 z m 1.31024,3.235875 c 0.43995,-2.741207 0.32754,-6.725356 -0.20475,-7.257451 -0.42668,-0.426527 -0.48002,0.03445 -0.48002,4.14888 0,4.716258 0.24687,5.837021 0.68477,3.108571 z m 0.11527,-8.739468 c 0,-0.362406 -0.13773,-0.573812 -0.30605,-0.469776 -0.16833,0.104018 -0.22492,0.400548 -0.12577,0.658926 0.25385,0.661517 0.43182,0.583561 0.43182,-0.18915 z"
         id="path1790"
         sodipodi:nodetypes="ssssscsssssssss" />
    </g>
    <g
       id="g2"
       transform="matrix(0.58799091,0,0,0.58799091,-68.322564,-16.214275)">
      <path
         style="fill:#005500;fill-opacity:0.5;stroke:none;stroke-width:0.264583px;stroke-linecap:butt;stroke-linejoin:miter;stroke-opacity:1"
         d="m 128.30076,32.028497 2.97509,5.146006 -2.02025,1.896486 1.91403,0.313192 1.0363,-1.641938 1.80981,1.441606 3.42186,0.0897 1.54658,-1.742874 -2.45771,-3.250356 -7.04569,-3.298431 z"
         id="path1" />
      <path
         style="fill:#005500;stroke-width:0.32002"
         d="m 127.9285,39.310535 c -0.10849,-0.175613 0.0639,-0.41155 0.38299,-0.524305 2.72312,-0.961918 3.2177,-1.489788 2.19282,-2.340353 -0.2572,-0.213468 -0.55962,-0.699129 -0.67205,-1.07925 -0.11249,-0.38014 -0.57176,-1.234261 -1.02072,-1.898061 -0.69387,-1.025891 -0.76209,-1.325883 -0.45488,-2.000139 0.5532,-1.214121 1.96848,-1.056363 3.98911,0.444642 0.91651,0.68081 2.35864,1.495563 3.20473,1.810551 3.05103,1.13586 4.90242,4.640689 2.92689,5.540788 -1.31098,0.597331 -3.99989,0.457603 -5.19301,-0.269845 -1.28884,-0.785803 -1.45934,-0.796648 -1.06938,-0.06797 0.278,0.519459 0.10776,0.576783 -1.89184,0.637051 -1.20852,0.0364 -2.28613,-0.07744 -2.39466,-0.253058 z m 3.36348,-0.954824 c 0.35203,-0.352016 0.64003,-0.928056 0.64003,-1.280081 0,-0.352025 0.14401,-0.640041 0.32003,-0.640041 0.176,0 0.32001,0.35496 0.32001,0.788793 0,0.836526 0.7955,1.451349 1.87784,1.451349 0.46009,0 0.66826,-0.247208 0.74109,-0.880053 0.0879,-0.764049 0.25945,-0.893154 1.30133,-0.979383 0.66005,-0.05469 1.20009,0.02312 1.20009,0.172633 0,0.14957 -0.39207,0.266261 -0.87127,0.259335 -0.58016,-0.0084 -0.90878,0.17449 -0.98354,0.547415 -0.0788,0.39338 0.0908,0.560033 0.57014,0.560033 0.37532,0 0.59339,-0.143998 0.48461,-0.320011 -0.11212,-0.181509 0.15669,-0.320029 0.62116,-0.320029 1.84571,0 0.17143,-2.396406 -2.45389,-3.512276 -0.92813,-0.394494 -2.13776,-1.055472 -2.68806,-1.468842 -0.55032,-0.41337 -1.09184,-0.660318 -1.20339,-0.548761 -0.11152,0.11152 -0.39652,-0.06212 -0.63326,-0.385868 -0.28101,-0.38429 -0.62832,-0.512746 -1.00033,-0.369992 -0.52895,0.202985 -0.53227,0.260226 -0.0463,0.797243 0.65212,0.720577 0.68953,1.224297 0.0516,0.694876 -0.46395,-0.385042 0.70864,2.029414 1.61185,3.318919 0.68777,0.981927 0.56836,1.418175 -0.57985,2.118251 -0.69231,0.422107 -0.8528,0.634544 -0.48003,0.635342 0.30802,6.41e-4 0.84805,-0.286827 1.20009,-0.638852 z m 6.31375,0.446703 c -0.10632,-0.106321 -0.38237,-0.117695 -0.61337,-0.02535 -0.2553,0.102208 -0.17947,0.178 0.19333,0.193338 0.33736,0.01384 0.52637,-0.06165 0.42004,-0.168065 z"
         id="path2"
         sodipodi:nodetypes="scsssssssssssssssssssscssssssssssssssssscsss" />
    </g>
    <g
       id="g4"
       transform="matrix(0.58799091,0,0,0.58799091,-61.443396,-16.214275)">
      <path
         style="fill:#005500;fill-opacity:0.5;stroke:none;stroke-width:0.264583px;stroke-linecap:butt;stroke-linejoin:miter;stroke-opacity:1"
         d="m 128.30076,32.028497 2.97509,5.146006 -2.02025,1.896486 1.91403,0.313192 1.0363,-1.641938 1.80981,1.441606 3.42186,0.0897 1.54658,-1.742874 -2.45771,-3.250356 -7.04569,-3.298431 z"
         id="path3" />
      <path
         style="fill:#005500;stroke-width:0.32002"
         d="m 127.9285,39.310535 c -0.10849,-0.175613 0.0639,-0.41155 0.38299,-0.524305 2.72312,-0.961918 3.2177,-1.489788 2.19282,-2.340353 -0.2572,-0.213468 -0.55962,-0.699129 -0.67205,-1.07925 -0.11249,-0.38014 -0.57176,-1.234261 -1.02072,-1.898061 -0.69387,-1.025891 -0.76209,-1.325883 -0.45488,-2.000139 0.5532,-1.214121 1.96848,-1.056363 3.98911,0.444642 0.91651,0.68081 2.35864,1.495563 3.20473,1.810551 3.05103,1.13586 4.90242,4.640689 2.92689,5.540788 -1.31098,0.597331 -3.99989,0.457603 -5.19301,-0.269845 -1.28884,-0.785803 -1.45934,-0.796648 -1.06938,-0.06797 0.278,0.519459 0.10776,0.576783 -1.89184,0.637051 -1.20852,0.0364 -2.28613,-0.07744 -2.39466,-0.253058 z m 3.36348,-0.954824 c 0.35203,-0.352016 0.64003,-0.928056 0.64003,-1.280081 0,-0.352025 0.14401,-0.640041 0.32003,-0.640041 0.176,0 0.32001,0.35496 0.32001,0.788793 0,0.836526 0.7955,1.451349 1.87784,1.451349 0.46009,0 0.66826,-0.247208 0.74109,-0.880053 0.0879,-0.764049 0.25945,-0.893154 1.30133,-0.979383 0.66005,-0.05469 1.20009,0.02312 1.20009,0.172633 0,0.14957 -0.39207,0.266261 -0.87127,0.259335 -0.58016,-0.0084 -0.90878,0.17449 -0.98354,0.547415 -0.0788,0.39338 0.0908,0.560033 0.57014,0.560033 0.37532,0 0.59339,-0.143998 0.48461,-0.320011 -0.11212,-0.181509 0.15669,-0.320029 0.62116,-0.320029 1.84571,0 0.17143,-2.396406 -2.45389,-3.512276 -0.92813,-0.394494 -2.13776,-1.055472 -2.68806,-1.468842 -0.55032,-0.41337 -1.09184,-0.660318 -1.20339,-0.548761 -0.11152,0.11152 -0.39652,-0.06212 -0.63326,-0.385868 -0.28101,-0.38429 -0.62832,-0.512746 -1.00033,-0.369992 -0.52895,0.202985 -0.53227,0.260226 -0.0463,0.797243 0.65212,0.720577 0.68953,1.224297 0.0516,0.694876 -0.46395,-0.385042 0.70864,2.029414 1.61185,3.318919 0.68777,0.981927 0.56836,1.418175 -0.57985,2.118251 -0.69231,0.422107 -0.8528,0.634544 -0.48003,0.635342 0.30802,6.41e-4 0.84805,-0.286827 1.20009,-0.638852 z m 6.31375,0.446703 c -0.10632,-0.106321 -0.38237,-0.117695 -0.61337,-0.02535 -0.2553,0.102208 -0.17947,0.178 0.19333,0.193338 0.33736,0.01384 0.52637,-0.06165 0.42004,-0.168065 z"
         id="path4"
         sodipodi:nodetypes="scsssssssssssssssssssscssssssssssssssssscsss" />
    </g>
    <path
       style="fill:#442178;stroke-width:0.25812"
       d="M 24.238123,6.4646681 C 24.069321,6.145244 23.600615,5.4799253 23.196509,4.986189 22.352899,3.9555457 22.251997,2.9272325 22.933806,2.3101977 c 1.004213,-0.9088221 2.216729,-0.296854 2.063227,1.0414103 -0.067,0.5795474 -0.212903,0.7254393 -0.72841,0.7254393 -0.493606,0 -0.665308,-0.151682 -0.730109,-0.6453083 -0.083,-0.628458 -0.075,-0.631818 0.305204,-0.1290517 0.455106,0.6022278 1.065713,0.2379031 0.79291,-0.473076 -0.290804,-0.7578866 -1.658621,-0.3539045 -1.658621,0.4898663 0,0.1653821 0.464406,0.9842726 1.031913,1.8197433 0.567507,0.8354708 1.032113,1.6061508 1.032413,1.7126221 0,0.4125653 -0.512406,0.1652422 -0.80421,-0.3871749 z"
       id="path5"
       sodipodi:nodetypes="ssssssssssss" />
    <path
       style="fill:#442178;stroke-width:0.25812"
       d="M 27.413125,6.4646681 C 27.244323,6.145244 26.775617,5.4799253 26.371511,4.986189 25.527901,3.9555457 25.426999,2.9272325 26.108808,2.3101977 c 1.004213,-0.9088221 2.216729,-0.296854 2.063227,1.0414103 -0.067,0.5795474 -0.212903,0.7254393 -0.72841,0.7254393 -0.493606,0 -0.665308,-0.151682 -0.730109,-0.6453083 -0.083,-0.628458 -0.075,-0.631818 0.305204,-0.1290517 0.455106,0.6022278 1.065713,0.2379031 0.79291,-0.473076 -0.290804,-0.7578866 -1.658621,-0.3539045 -1.658621,0.4898663 0,0.1653821 0.464406,0.9842726 1.031913,1.8197433 0.567507,0.8354708 1.032113,1.6061508 1.032413,1.7126221 0,0.4125653 -0.512406,0.1652422 -0.80421,-0.3871749 z"
       id="path6"
       sodipodi:nodetypes="ssssssssssss" />
    <path
       style="fill:#442178;stroke-width:0.25812"
       d="M 30.588127,6.4646681 C 30.419325,6.145244 29.950619,5.4799253 29.546513,4.986189 28.702903,3.9555457 28.602001,2.9272325 29.28381,2.3101977 c 1.004213,-0.9088221 2.216729,-0.296854 2.063227,1.0414103 -0.067,0.5795474 -0.212903,0.7254393 -0.72841,0.7254393 -0.493606,0 -0.665308,-0.151682 -0.730109,-0.6453083 -0.083,-0.628458 -0.075,-0.631818 0.305204,-0.1290517 0.455106,0.6022278 1.065713,0.2379031 0.79291,-0.473076 -0.290804,-0.7578866 -1.658621,-0.3539045 -1.658621,0.4898663 0,0.1653821 0.464406,0.9842726 1.031913,1.8197433 0.567507,0.8354708 1.032113,1.6061508 1.032413,1.7126221 0,0.4125653 -0.512406,0.1652422 -0.80421,-0.3871749 z"
       id="path7"
       sodipodi:nodetypes="ssssssssssss" />
    <path
       style="fill:#442178;stroke-width:0.25812"
       d="M 33.763129,6.4646681 C 33.594327,6.145244 33.125621,5.4799253 32.721515,4.986189 31.877905,3.9555457 31.777003,2.9272325 32.458812,2.3101977 c 1.004213,-0.9088221 2.216729,-0.296854 2.063227,1.0414103 -0.067,0.5795474 -0.212903,0.7254393 -0.72841,0.7254393 -0.493606,0 -0.665308,-0.151682 -0.730109,-0.6453083 -0.083,-0.628458 -0.075,-0.631818 0.305204,-0.1290517 0.455106,0.6022278 1.065713,0.2379031 0.79291,-0.473076 -0.290804,-0.7578866 -1.658621,-0.3539045 -1.658621,0.4898663 0,0.1653821 0.464406,0.9842726 1.031913,1.8197433 0.567507,0.8354708 1.032113,1.6061508 1.032413,1.7126221 0,0.4125653 -0.512406,0.1652422 -0.80421,-0.3871749 z"
       id="path8"
       sodipodi:nodetypes="ssssssssssss" />
    <path
       style="fill:#442178;stroke-width:0.25812"
       d="M 36.938131,6.4646681 C 36.769329,6.145244 36.300623,5.4799253 35.896517,4.986189 35.052907,3.9555457 34.952005,2.9272325 35.633814,2.3101977 c 1.004213,-0.9088221 2.216729,-0.296854 2.063227,1.0414103 -0.067,0.5795474 -0.212903,0.7254393 -0.72841,0.7254393 -0.493606,0 -0.665308,-0.151682 -0.730109,-0.6453083 -0.083,-0.628458 -0.075,-0.631818 0.305204,-0.1290517 0.455106,0.6022278 1.065713,0.2379031 0.79291,-0.473076 -0.290804,-0.7578866 -1.658621,-0.3539045 -1.658621,0.4898663 0,0.1653821 0.464406,0.9842726 1.031913,1.8197433 0.567507,0.8354708 1.032113,1.6061508 1.032413,1.7126221 0,0.4125653 -0.512406,0.1652422 -0.80421,-0.3871749 z"
       id="path9"
       sodipodi:nodetypes="ssssssssssss" />
  </g>
</svg>
