<?xml version="1.0" encoding="UTF-8" standalone="no"?>
<!-- Created with Inkscape (http://www.inkscape.org/) -->

<svg
   width="29.566mm"
   height="18.877001mm"
   viewBox="0 0 29.566 18.877001"
   version="1.1"
   id="svg1"
   inkscape:version="1.4.2 (ebf0e940d0, 2025-05-08)"
   sodipodi:docname="5_1_1_63.svg"
   xmlns:inkscape="http://www.inkscape.org/namespaces/inkscape"
   xmlns:sodipodi="http://sodipodi.sourceforge.net/DTD/sodipodi-0.dtd"
   xmlns="http://www.w3.org/2000/svg"
   xmlns:svg="http://www.w3.org/2000/svg">
  <sodipodi:namedview
     id="namedview1"
     pagecolor="#ffffff"
     bordercolor="#000000"
     borderopacity="0.25"
     inkscape:showpageshadow="2"
     inkscape:pageopacity="0.0"
     inkscape:pagecheckerboard="0"
     inkscape:deskcolor="#d1d1d1"
     inkscape:document-units="mm"
     inkscape:zoom="2.6972018"
     inkscape:cx="121.23676"
     inkscape:cy="88.981106"
     inkscape:window-width="1075"
     inkscape:window-height="991"
     inkscape:window-x="26"
     inkscape:window-y="23"
     inkscape:window-maximized="0"
     inkscape:current-layer="layer1" />
  <defs
     id="defs1">
    <rect
       x="-26.458582"
       y="130.73653"
       width="155.86105"
       height="46.469273"
       id="rect2" />
    <rect
       x="13.485725"
       y="-52.819092"
       width="225.2477"
       height="118.63495"
       id="rect1" />
    <rect
       x="37.795277"
       y="37.795277"
       width="483.77954"
       height="718.11023"
       id="rect2721" />
    <rect
       x="37.795277"
       y="37.795277"
       width="483.77954"
       height="718.11023"
       id="rect2722" />
    <rect
       x="37.795277"
       y="37.795277"
       width="483.77954"
       height="718.11023"
       id="rect2723" />
    <rect
       x="37.795277"
       y="37.795277"
       width="483.77954"
       height="718.11023"
       id="rect2724" />
    <rect
       x="37.795277"
       y="37.795277"
       width="483.77954"
       height="718.11023"
       id="rect2725" />
    <rect
       x="37.795277"
       y="37.795277"
       width="483.77954"
       height="718.11023"
       id="rect2726" />
    <rect
       x="37.795277"
       y="37.795277"
       width="483.77954"
       height="718.11023"
       id="rect2727" />
    <rect
       x="37.795277"
       y="37.795277"
       width="483.77954"
       height="718.11023"
       id="rect2728" />
    <rect
       x="37.795277"
       y="37.795277"
       width="483.77954"
       height="718.11023"
       id="rect2729" />
    <rect
       x="37.795277"
       y="37.795277"
       width="483.77954"
       height="718.11023"
       id="rect2730" />
    <rect
       x="37.795277"
       y="37.795277"
       width="483.77954"
       height="718.11023"
       id="rect2731" />
    <rect
       x="37.795277"
       y="37.795277"
       width="483.77954"
       height="718.11023"
       id="rect2732" />
    <rect
       x="37.795277"
       y="37.795277"
       width="483.77954"
       height="718.11023"
       id="rect2733" />
    <rect
       x="37.795277"
       y="37.795277"
       width="483.77954"
       height="718.11023"
       id="rect2734" />
    <rect
       x="37.795277"
       y="37.795277"
       width="483.77954"
       height="718.11023"
       id="rect6439" />
    <rect
       x="37.795277"
       y="37.795277"
       width="483.77954"
       height="718.11023"
       id="rect6440" />
    <rect
       x="37.795277"
       y="37.795277"
       width="483.77954"
       height="718.11023"
       id="rect6441" />
    <rect
       x="37.795277"
       y="37.795277"
       width="483.77954"
       height="718.11023"
       id="rect6442" />
    <rect
       x="37.795277"
       y="37.795277"
       width="483.77954"
       height="718.11023"
       id="rect2743" />
    <rect
       x="37.795277"
       y="37.795277"
       width="483.77954"
       height="718.11023"
       id="rect2744" />
    <rect
       x="37.795277"
       y="37.795277"
       width="483.77954"
       height="718.11023"
       id="rect2745" />
    <rect
       x="37.795277"
       y="37.795277"
       width="483.77954"
       height="718.11023"
       id="rect6403" />
    <rect
       x="37.795277"
       y="37.795277"
       width="483.77954"
       height="718.11023"
       id="rect6443" />
    <rect
       x="37.795277"
       y="37.795277"
       width="483.77954"
       height="718.11023"
       id="rect6444" />
    <rect
       x="37.795277"
       y="37.795277"
       width="483.77954"
       height="718.11023"
       id="rect6445" />
    <rect
       x="37.795277"
       y="37.795277"
       width="483.77954"
       height="718.11023"
       id="rect6446" />
    <rect
       x="37.795277"
       y="37.795277"
       width="483.77954"
       height="718.11023"
       id="rect6469" />
    <rect
       x="37.795277"
       y="37.795277"
       width="483.77954"
       height="718.11023"
       id="rect6470" />
    <rect
       x="37.795277"
       y="37.795277"
       width="483.77954"
       height="718.11023"
       id="rect6471" />
    <rect
       x="37.795277"
       y="37.795277"
       width="483.77954"
       height="718.11023"
       id="rect6472" />
    <rect
       x="-26.458582"
       y="130.73653"
       width="155.86105"
       height="46.469273"
       id="rect30" />
    <rect
       x="-26.458582"
       y="130.73653"
       width="155.86105"
       height="46.469273"
       id="rect31" />
    <rect
       x="-26.458582"
       y="130.73653"
       width="155.86105"
       height="46.469273"
       id="rect32" />
    <rect
       x="-26.458582"
       y="130.73653"
       width="155.86105"
       height="46.469273"
       id="rect33" />
    <rect
       x="-26.458582"
       y="130.73653"
       width="155.86105"
       height="46.469273"
       id="rect34" />
    <rect
       x="-26.458582"
       y="130.73653"
       width="155.86105"
       height="46.469273"
       id="rect35" />
    <rect
       x="-26.458582"
       y="130.73653"
       width="155.86105"
       height="46.469273"
       id="rect38" />
    <rect
       x="-26.458582"
       y="130.73653"
       width="155.86105"
       height="46.469273"
       id="rect39" />
    <rect
       x="-26.458582"
       y="130.73653"
       width="155.86105"
       height="46.469273"
       id="rect40" />
    <rect
       x="-26.458582"
       y="130.73653"
       width="155.86105"
       height="46.469273"
       id="rect42" />
    <rect
       x="-26.458582"
       y="130.73653"
       width="155.86105"
       height="46.469273"
       id="rect43" />
    <rect
       x="-26.458582"
       y="130.73653"
       width="155.86105"
       height="46.469273"
       id="rect44" />
    <rect
       x="-26.458582"
       y="130.73653"
       width="155.86105"
       height="46.469273"
       id="rect46" />
    <rect
       x="-26.458582"
       y="130.73653"
       width="155.86105"
       height="46.469273"
       id="rect47" />
    <rect
       x="-26.458582"
       y="130.73653"
       width="155.86105"
       height="46.469273"
       id="rect48" />
  </defs>
  <g
     inkscape:label="Katman 1"
     inkscape:groupmode="layer"
     id="layer1">
    <g
       id="g70"
       transform="translate(-1280.3158,-93.724364)">
      <path
         style="fill:#cccccc;fill-opacity:1;stroke-width:0.264999"
         d="m 1286.4021,97.831517 0.3055,0.186571 2.3043,-0.23971 2.6387,-0.09055 0.2122,0.657103 2.8025,-0.662776 4.1466,-0.301347 4.8676,-0.418121 0.9481,-0.09688 -0.011,-0.217963 -2.0066,-0.113041 -1.6955,-0.04826 -9.2861,0.696981 -4.1303,0.31755 -1.0155,0.232429 z"
         id="path57" />
      <path
         id="path1916"
         style="fill:#ff5555;stroke-width:0.264999"
         d="m 1296.8495,97.329976 -2.237,0.360702 -1.2697,0.652673 -1.0858,0.763778 -0.9978,1.108981 -1.0237,1.49603 -0.5215,1.04903 -0.2061,0.46612 -0.8305,0.0439 -0.5834,0.16123 -0.6253,0.40721 -0.247,0.67231 -0.292,1.39371 -0.217,1.40198 -0.2305,1.48467 1.8717,0.14986 1.6976,-1.03767 1.8169,0.3018 0.8992,1.86913 -0.061,1.0511 3.0438,0.0755 5.8099,-0.20206 0.184,-2.11873 1.5374,-1.08004 2.0769,0.55707 0.5333,0.74156 2.4432,-0.48782 -0.5524,-1.51774 -0.6087,-1.3994 -0.9188,-1.21026 -1.031,-0.70332 -1.1596,-0.50126 -1.1126,-2.34611 -0.4434,-0.57464 -0.6041,-0.812355 -0.9085,-0.859895 -1.5885,-0.925525 -1.1705,-0.341582 z m 0.7116,0.375688 1.5911,0.391707 1.1839,0.649056 1.2708,1.068669 0.8681,1.145154 0.7116,1.2423 -0.3938,0.72605 -10.5507,-0.031 -0.031,-3.268022 0.8667,-0.726054 1.1033,-0.641822 1.2107,-0.313159 z" />
      <path
         style="fill:#ffe6d5;stroke-width:0.264999"
         d="m 1296.6923,102.60953 c 0.655,-0.0744 0.8633,-0.14039 0.8633,-0.14039 l 0.7061,-0.3386 0.5338,-0.73319 0.1303,-0.91512 -0.2661,-0.847747 -0.961,-0.8348 -0.9202,-0.103264 -0.8815,0.233992 -0.469,0.462984 -0.345,0.717785 -0.068,0.92481 0.2955,0.77191 0.8989,0.61029 z"
         id="path1915" />
      <path
         style="fill:#d38d5f;stroke-width:0.264999"
         d="m 1293.7727,102.9021 -0.1713,-0.88181 0.1523,-0.25653 1.0268,-0.10455 0.4345,1.16147 z"
         id="path43" />
      <path
         style="fill:#ffe680;stroke-width:0.264999"
         d="m 1286.7237,107.23656 0.498,-2.72459 0.4946,0.11224 0.03,0.17842 -0.3994,2.30488 -0.1652,0.13582 z"
         id="path44" />
      <path
         style="fill:#ffe680;stroke-width:0.264999"
         d="m 1306.5372,107.41161 0.4262,0.2782 0.2372,-0.061 0.1421,-0.32382 -0.092,-0.54037 -0.8262,-1.20845 -0.5676,-0.31335 -0.1806,0.18909 0.1102,0.69376 0.3072,0.69421 z"
         id="path45" />
      <path
         style="fill:#d38d5f;fill-opacity:1;stroke-width:0.264999"
         d="m 1292.0579,97.230281 -0.2374,-1.30619 0.077,-1.210387 1.8172,-0.526259 2.0183,-0.333467 0.3423,-0.08585 3.6008,0.15725 1.0958,0.236704 0.1735,0.46078 0.059,1.61875 -0.1806,0.489876 -1.2436,0.244713 -2.6774,0.357248 -0.1273,-0.0035 -0.071,0.47157 -0.4435,0.04964 -0.197,-0.530556 -3.6345,0.0093 z"
         id="path46" />
      <path
         style="fill:#87cdde;fill-opacity:1;stroke-width:0.264999"
         d="m 1287.2849,96.553596 0.1253,-0.480637 0.6098,-0.192363 1.3386,0.183378 1.1756,0.250369 0.5665,0.04206 0.7577,-0.224033 -0.038,-0.266777 -0.8718,-0.01725 -1.1917,-0.460594 -1.1957,-0.319672 -0.8351,0.02664 -0.4193,0.2389 -0.447,0.317979 0.036,0.335415 0.093,0.378235 z"
         id="path47" />
      <path
         style="fill:#cccccc;fill-opacity:1;stroke-width:0.264999"
         d="m 1293.0583,95.234391 0.1063,0.885148 0.2948,0.0414 0.1599,-0.105751 0.034,-0.497605 -0.157,-0.363061 -0.2758,-0.02236 z"
         id="path55" />
      <path
         style="fill:#cccccc;fill-opacity:1;stroke-width:0.264999"
         d="m 1299.3621,95.689011 0.4575,-0.0044 0.059,-0.829099 -0.5178,-0.03318 z"
         id="path56" />
      <path
         style="fill:#87cdde;fill-opacity:1;stroke-width:0.264999"
         d="m 1290.0482,102.87154 0.316,0.0675 1.3691,0.0264 -0.019,-2.8107 -0.1505,0.0795 -0.6472,0.90668 -0.7354,1.3499 -0.1201,0.25665 z"
         id="path70" />
      <path
         id="path1889"
         style="fill:#000000;stroke-width:0.427586"
         d="m 1297.5115,93.72485 c -0.56,0.006 -1.1455,0.009 -1.301,0.008 -0.1556,-0.001 -0.4356,0.0441 -0.6223,0.10097 -0.1866,0.0569 -0.6448,0.13655 -1.0182,0.17721 -0.978,0.10651 -2.2216,0.39307 -2.5172,0.58003 -0.1973,0.12486 -0.256,0.12868 -0.256,0.017 0,-0.0995 -0.036,-0.0916 -0.1116,0.0256 -0.06,0.0933 -0.1077,0.24606 -0.1034,0.3394 0,0.11296 0.04,0.094 0.1065,-0.0566 0.071,-0.15948 0.089,-0.0601 0.062,0.33631 l -0.037,0.56234 -0.4924,-0.0356 c -0.4737,-0.0342 -1.4666,-0.44757 -1.1193,-0.466 0.1051,-0.006 0.062,-0.0707 -0.1132,-0.1708 -0.3702,-0.21179 -0.5709,-0.20918 -0.2897,0.004 0.2789,0.21108 0.196,0.21002 -0.3151,-0.004 -0.8592,-0.35898 -2.1304,-0.13735 -2.5068,0.43706 -0.1616,0.24641 -0.1666,0.32888 -0.037,0.59195 0.083,0.16808 0.2576,0.37583 0.3887,0.46159 0.2083,0.13634 0.258,0.13063 0.3959,-0.0451 0.1435,-0.18277 0.1399,-0.18696 -0.04,-0.0457 -0.1774,0.139 -0.1979,0.1255 -0.1979,-0.12926 0,-0.15652 0.08,-0.31556 0.179,-0.35331 0.367,-0.14089 1.3908,-0.0614 2.027,0.15754 0.7237,0.24899 1.5299,0.29358 1.884,0.10407 0.2759,-0.14765 0.2745,-0.14899 0.3526,0.35796 0.041,0.2649 0.017,0.40958 -0.069,0.41762 -0.072,0.007 -1.1749,0.0935 -2.4505,0.19267 -2.3207,0.18041 -3.3107,0.39332 -2.9346,0.63129 0.09,0.0566 0.2392,0.10042 0.3326,0.097 0.1118,-0.004 0.093,-0.0395 -0.057,-0.10363 -0.1242,-0.0535 -0.1753,-0.10856 -0.1131,-0.12241 0.062,-0.0139 0.164,-0.035 0.2262,-0.0471 0.062,-0.0121 0.1895,-0.0523 0.2829,-0.0893 0.1966,-0.0779 4.6706,-0.40049 4.744,-0.34205 0.2036,0.1622 -0.4522,0.25783 -2.2474,0.3279 -1.3778,0.0538 -2.1837,0.13292 -2.3758,0.23312 -0.3573,0.18644 -0.4822,0.18732 2.0128,-0.0155 2.084,-0.16939 2.5048,-0.13468 2.5048,0.20638 0,0.0787 -0.061,0.20418 -0.1357,0.27885 -0.1911,0.19112 -0.075,0.17453 1.2953,-0.18516 0.6689,-0.17553 1.2162,-0.30335 1.2162,-0.28394 0,0.0194 -0.2419,0.15947 -0.5374,0.31111 -1.3823,0.70927 -2.7176,2.18542 -3.5661,3.94218 l -0.4782,0.9899 -0.4525,0.003 c -0.5687,0.003 -1.3046,0.33129 -1.6082,0.71723 -0.2384,0.30305 -0.5829,1.85461 -0.854,3.84406 -0.1096,0.80487 -0.1807,1.02331 -0.3643,1.11983 -0.3217,0.16905 -0.3962,0.31117 -0.3962,0.77624 0,0.61999 0.2084,1.11159 0.5097,1.18722 0.1445,0.0363 0.5977,0.0487 1.0072,0.0276 0.4893,-0.0252 0.7443,0.004 0.7442,0.0862 -5e-4,0.24065 0.6952,1.08065 1.0856,1.31096 0.2171,0.12809 0.3709,0.25685 0.3418,0.28592 -0.082,0.0825 -0.5033,-0.0779 -0.6872,-0.26184 -0.091,-0.0913 -0.4608,-0.3173 -0.8209,-0.50224 -0.5071,-0.26041 -0.5911,-0.28199 -0.3721,-0.095 0.1556,0.13279 0.4254,0.29189 0.5997,0.35331 0.554,0.19524 0.2528,0.20934 -0.5403,0.0254 -0.4211,-0.0977 -0.8485,-0.15871 -0.9498,-0.13567 -0.1014,0.023 0.1211,0.10551 0.4945,0.18318 1.9961,0.4153 1.9302,0.42728 -2.4845,0.45186 -2.2998,0.0128 -4.2048,0.0463 -4.233,0.0747 -0.028,0.0283 9.8207,0.0396 21.8862,0.0252 3.0863,-0.004 4.9777,-0.009 7.497,-0.0141 v -0.0762 c -2.8643,-0.004 -5.1866,-0.0185 -5.1866,-0.038 0,-0.0228 0.2009,-0.17453 0.4463,-0.33697 0.2455,-0.16243 0.5854,-0.53828 0.7555,-0.83523 0.17,-0.29694 0.3185,-0.55381 0.3296,-0.57096 0.011,-0.0172 0.4987,-0.10852 1.083,-0.20284 0.5843,-0.0943 1.1388,-0.24754 1.2321,-0.3405 0.2337,-0.23297 0.2248,-1.20512 -0.014,-1.47823 -0.1009,-0.11542 -0.3449,-0.70014 -0.5423,-1.29925 -0.3699,-1.12303 -0.929,-2.17373 -1.4599,-2.74345 -0.4168,-0.44735 -1.3499,-1.03699 -1.9038,-1.20292 -0.4279,-0.12821 -0.4831,-0.19431 -0.8027,-0.96007 -1.0398,-2.49104 -2.5771,-4.14165 -4.4822,-4.81254 l -0.5749,-0.2024 0.3926,-0.0632 c 0.7276,-0.11702 2.6546,-0.28916 4.1028,-0.36658 0.9333,-0.0499 1.4798,-0.12704 1.5565,-0.21941 0.2119,-0.25542 -0.1078,-0.31197 -1.9202,-0.33984 -1.3266,-0.0204 -1.5667,-0.005 -0.9707,0.0612 0.4356,0.0485 1.2151,0.0943 1.7321,0.10209 0.5854,0.009 0.914,0.0563 0.8711,0.12572 -0.04,0.0643 -0.4971,0.0961 -1.0814,0.0753 -0.6724,-0.0239 -1.0142,0.005 -1.0142,0.0866 -10e-4,0.0674 -0.051,0.046 -0.1116,-0.0473 -0.073,-0.11311 -0.1114,-0.12256 -0.1114,-0.0283 -9e-4,0.0778 -0.056,0.14141 -0.1215,0.14141 -0.066,0 -0.088,-0.0509 -0.05,-0.11313 0.042,-0.0682 -0.11,-0.11313 -0.3835,-0.11313 -0.2569,0 -0.4928,0.0654 -0.5441,0.1507 -0.091,0.1524 -3.1636,0.49079 -3.2918,0.36259 -0.033,-0.0334 0.022,-0.0608 0.1222,-0.0608 0.5386,0 2.8618,-0.36611 2.988,-0.47087 0.1,-0.0825 0.1477,-0.42591 0.1477,-1.05332 0,-0.99626 -0.1418,-1.58681 -0.4053,-1.68792 -0.3515,-0.13487 -2.192,-0.30914 -3.1584,-0.29896 z m -6.5845,0.0605 c -1.4808,0 -2.5142,0.0316 -2.2964,0.07 v 2.3e-4 c 0.5302,0.0935 4.4,0.0963 4.7288,0.003 0.143,-0.0405 -0.9515,-0.0736 -2.4324,-0.0736 z m 4.9346,0.0566 h 0.348 0.348 l -0.032,1.1596 -0.032,1.1596 -0.3684,0.0356 c -0.4042,0.039 -0.5719,-0.16997 -0.414,-0.51639 0.074,-0.16335 0.098,-0.14356 0.1327,0.11313 0.023,0.17111 0.091,0.31112 0.1503,0.31112 0.06,0 0.085,-0.11455 0.056,-0.25455 -0.029,-0.14 -0.082,-0.6491 -0.12,-1.13132 z m 0.8014,0.0837 1.8384,0.0568 c 1.0111,0.0312 1.9237,0.0926 2.0277,0.13655 0.2429,0.10257 0.3118,0.29244 0.3949,1.08735 0.084,0.8066 -0.024,1.42014 -0.2667,1.51336 -0.102,0.0391 -0.9024,0.14674 -1.7787,0.23931 -0.8764,0.0926 -1.7079,0.19367 -1.8479,0.22471 -0.2191,0.0486 -0.2546,0.0103 -0.2546,-0.27708 0,-0.25991 0.056,-0.34171 0.2546,-0.36989 0.2051,-0.0291 0.2614,-0.11961 0.2901,-0.46601 0.043,-0.52149 0.2865,-0.64498 1.2727,-0.64498 0.5214,0 0.6715,0.0379 0.6715,0.16969 0,0.27116 0.6855,0.22559 0.7577,-0.0504 0.041,-0.15552 0.1786,-0.23295 0.4702,-0.26382 0.409,-0.0433 0.4083,-0.0439 -0.068,-0.0628 -0.399,-0.0158 -0.4808,-0.0575 -0.4808,-0.24526 0,-0.18458 -0.075,-0.22627 -0.4092,-0.22627 -0.3576,0 -0.4013,0.0296 -0.348,0.23334 0.079,0.30101 0.015,0.3176 -1.364,0.36193 l -1.1596,0.0373 v -0.72696 z m -1.0957,0.13457 c 0.065,-5.4e-4 0.1059,0.004 0.1148,0.0139 0.024,0.0279 0.077,0.33751 0.1163,0.68807 l 0.072,0.63747 -0.7629,0.0745 c -0.4197,0.0409 -0.8992,0.10087 -1.0655,0.13324 -0.251,0.0489 -0.3086,0.0143 -0.3394,-0.20285 -0.029,-0.20701 -0.1079,-0.26161 -0.3765,-0.26161 -0.2861,0 -0.3412,0.0444 -0.3412,0.28283 0,0.23364 -0.07,0.29508 -0.3959,0.35287 l -0.3942,0.07 0.4242,0.0148 c 0.2951,0.0104 0.4242,0.0665 0.4242,0.1845 0,0.26702 0.5741,0.21928 0.6455,-0.0537 0.065,-0.2498 0.5466,-0.38222 1.1724,-0.3226 0.3375,0.0321 0.3933,0.0814 0.4267,0.37629 0.047,0.41818 0.206,0.62223 0.4846,0.62223 0.1511,0 0.2123,0.0816 0.2123,0.28283 l -2e-4,0.28283 h -1.912 -1.9122 l -0.1242,-0.35619 c -0.1392,-0.39963 -0.1659,-1.89197 -0.037,-2.09405 0.046,-0.0721 0.3919,-0.21097 0.7689,-0.30868 0.6574,-0.17035 2.3417,-0.41299 2.8001,-0.41673 z m 4.0371,0.79988 c 0.1832,0 0.2263,0.0754 0.2263,0.39596 0,0.32054 -0.043,0.39596 -0.2263,0.39596 -0.1831,0 -0.2262,-0.0754 -0.2262,-0.39596 0,-0.32054 0.043,-0.39596 0.2262,-0.39596 z m -15.0465,0.0148 c -0.051,0 -0.1026,0.008 -0.1414,0.0234 -0.078,0.0314 -0.014,0.0572 0.1414,0.0572 0.1555,0 0.2191,-0.0258 0.1414,-0.0572 -0.039,-0.0157 -0.09,-0.0234 -0.1414,-0.0234 z m 2.5081,0.12595 c -0.1762,0.0297 -0.5837,0.44854 -0.5109,0.56632 0.037,0.0596 0.198,-0.0226 0.3582,-0.18274 0.1601,-0.16013 0.2555,-0.32671 0.2119,-0.37032 -0.014,-0.0137 -0.034,-0.0175 -0.059,-0.0133 z m 1.1746,0.11026 c 0.4527,-0.01 1.0256,0.12939 1.6345,0.41828 0.4044,0.19189 0.7989,0.34884 0.8767,0.34889 0.078,5e-5 0.1415,0.0396 0.1415,0.0879 0,0.0484 0.2163,0.0716 0.4807,0.0517 0.3832,-0.0287 0.4408,-0.0109 0.2835,0.0873 v -2.2e-4 c -0.3543,0.22135 -1.239,0.22283 -1.839,0.003 -0.888,-0.32487 -1.6427,-0.39237 -2.1259,-0.19046 -0.4901,0.20477 -0.5637,0.1371 -0.3652,-0.33498 0.128,-0.30435 0.4605,-0.46225 0.9132,-0.47175 z m 5.0161,0.10827 c 0.026,-0.007 0.058,-0.006 0.097,0.001 0.1383,0.0262 0.2087,0.16509 0.2331,0.46093 0.025,0.30329 -0.01,0.42314 -0.1227,0.42314 -0.2416,0 -0.3084,-0.11606 -0.3084,-0.53605 0,-0.22946 0.023,-0.32717 0.1008,-0.34912 z m 3.5917,0.31951 c 0.089,0 0.154,0.11965 0.154,0.28283 0,0.15556 -0.045,0.28283 -0.1,0.28283 -0.055,0 -0.1241,-0.12727 -0.154,-0.28283 -0.036,-0.18966 0,-0.28283 0.1,-0.28283 z m -9.8016,0.11313 c 0.062,0 0.1131,0.0479 0.1131,0.1065 0,0.0585 -0.051,0.13789 -0.1131,0.17633 -0.062,0.0385 -0.1132,-0.009 -0.1132,-0.10628 0,-0.097 0.051,-0.17655 0.1132,-0.17655 z m -1.2542,0.11313 c -0.053,0 -0.072,0.0764 -0.043,0.1697 0.029,0.0933 0.08,0.25351 0.1122,0.35575 0.092,0.28757 0.1542,0.13392 0.087,-0.21434 -0.033,-0.17111 -0.1032,-0.31111 -0.1562,-0.31111 z m 4.1457,0 c -0.027,0 -0.081,0.0509 -0.1198,0.11313 -0.038,0.0622 -0.016,0.11313 0.05,0.11313 0.066,0 0.1198,-0.0509 0.1198,-0.11313 0,-0.0622 -0.023,-0.11313 -0.05,-0.11313 z m 7.2347,0.0179 c 0.017,-0.0356 0.024,0.0394 0.017,0.20836 l -0.017,0.39597 -0.8766,0.0331 -0.8767,0.0329 0.011,-0.37232 c 0.01,-0.3408 0.018,-0.34852 0.089,-0.0897 0.064,0.23327 0.1578,0.28881 0.5327,0.31664 0.6056,0.0449 1.0338,-0.13076 1.1009,-0.45186 0.01,-0.0371 0.014,-0.0613 0.02,-0.0731 z m -10.9842,0.0243 c -0.033,0.0103 -0.021,0.12528 0.06,0.33807 0.062,0.16418 0.1617,0.29852 0.2207,0.29852 0.059,0 0.029,-0.15571 -0.066,-0.34625 -0.1028,-0.20603 -0.1819,-0.30064 -0.2152,-0.29034 z m 0.8281,0.31708 c 0.013,-0.003 0.03,-7e-4 0.051,0.006 0.074,0.0246 0.1544,0.10509 0.1792,0.17898 0.068,0.20362 -0.1659,0.16101 -0.2448,-0.0446 -0.032,-0.0826 -0.025,-0.13245 0.014,-0.14053 z m 4.5021,0.43264 c -0.097,0 -0.1304,0.0829 -0.093,0.22626 0.033,0.12445 0.093,0.22626 0.135,0.22626 0.042,0 0.083,-0.10181 0.093,-0.22626 0.01,-0.12444 -0.051,-0.22626 -0.135,-0.22626 z m 4.7913,0 c 0.2329,0 0.3469,0.28889 0.3511,0.87677 0,0.28423 -0.046,0.36768 -0.2099,0.36768 -0.1564,0 -0.2296,-0.11033 -0.2815,-0.42425 -0.1131,-0.68423 -0.09,-0.8202 0.1403,-0.8202 z m -7.6797,0.24106 c -0.051,0 -0.1025,0.008 -0.1414,0.0234 -0.078,0.0314 -0.014,0.0572 0.1414,0.0572 0.1555,0 0.2192,-0.0258 0.1414,-0.0572 -0.039,-0.0157 -0.09,-0.0234 -0.1414,-0.0234 z m 12.8971,0.11225 c 0.072,0 0.1435,0.007 0.1979,0.0212 0.1089,0.0284 0.02,0.0519 -0.1979,0.0519 -0.2177,0 -0.3069,-0.0234 -0.198,-0.0519 0.054,-0.0142 0.1262,-0.0212 0.198,-0.0212 z m -17.4224,0.22516 c -0.2563,0 -0.5126,0.006 -0.7071,0.0166 -0.3888,0.0221 -0.071,0.0402 0.7071,0.0402 0.7779,0 1.096,-0.0181 0.7071,-0.0402 -0.1944,-0.0111 -0.4508,-0.0166 -0.7071,-0.0166 z m 7.9652,0.1781 c 0.04,0.007 0.088,0.0219 0.1465,0.0442 0.1523,0.0579 1.0876,0.1143 2.0786,0.12551 0.991,0.0112 1.8017,0.0547 1.8017,0.0965 0,0.0419 -0.3434,0.1609 -0.7632,0.26449 -1.041,0.2569 -2.0159,0.73651 -2.659,1.30854 l -0.5374,0.47793 v 1.68749 1.68726 l 5.2324,-0.0181 c 2.8778,-0.01 5.073,-0.0382 4.8781,-0.0628 l -0.3544,-0.0446 0.046,-0.67261 c 0.041,-0.59493 0.022,-0.6726 -0.1624,-0.6726 -0.1425,0 -0.3071,0.20626 -0.5195,0.6505 l -0.3111,0.65052 h -2.0854 c -2.0102,0 -2.5911,-0.0719 -1.625,-0.20152 1.2857,-0.17244 2.1329,-1.56823 1.6482,-2.71518 -0.1973,-0.46669 -0.7067,-0.97528 -1.1753,-1.1733 -0.2021,-0.0854 -0.7568,-0.18824 -1.2328,-0.22848 -0.7146,-0.0604 -0.8879,-0.042 -0.9954,0.10496 -0.072,0.0979 -0.2805,0.2029 -0.4643,0.23356 -0.1837,0.0307 -0.072,0.048 0.2477,0.0382 l 0.5819,-0.0179 -0.3777,0.41784 c -0.676,0.74781 -0.7706,1.80655 -0.2256,2.52493 0.26,0.34272 0.5287,0.51898 1.1152,0.7316 0.4962,0.17988 0.2756,0.29549 -0.4406,0.23091 l -0.6507,-0.0588 -0.1914,-0.56566 -0.1911,-0.56566 -0.5303,0.0188 c -0.7172,0.0254 -0.8678,0.16995 -0.7873,0.75569 l 0.065,0.46999 -0.6905,-0.0382 -0.6904,-0.0384 v -1.55402 c 0,-1.78109 -0.039,-1.70041 1.1878,-2.43809 0.9483,-0.57003 1.8993,-0.83503 3.282,-0.91434 1.4189,-0.0814 2.0839,0.0756 3.2792,0.77336 1.2023,0.7018 2.1849,1.7841 2.9333,3.23135 0.1684,0.32565 0.1647,0.37545 -0.059,0.8043 l -0.2384,0.45694 h -6.491 -6.4909 l 0.105,-0.27576 c 0.4397,-1.15649 1.3759,-2.55542 2.2833,-3.41208 0.7291,-0.68825 1.3655,-1.10527 2.3577,-1.5443 0.4046,-0.17897 0.5826,-0.29026 0.396,-0.24748 -0.1867,0.0428 -0.4158,0.0766 -0.5091,0.0753 -0.093,-10e-4 -0.4686,0.0716 -0.8341,0.16219 -0.3655,0.0906 -0.7313,0.1389 -0.8129,0.1076 -0.082,-0.0313 -0.1644,-0.0156 -0.1841,0.0349 -0.02,0.0505 -0.1533,0.12846 -0.2972,0.17324 -0.2387,0.0743 -0.2494,0.0618 -0.1213,-0.14341 0.1366,-0.21873 0.9117,-0.4317 1.1147,-0.30625 0.053,0.0326 0.2151,0.008 0.3609,-0.0541 0.2033,-0.087 0.088,-0.10423 -0.4939,-0.0745 -0.4465,0.0228 -0.8141,-0.0121 -0.8933,-0.0849 -0.099,-0.091 -0.1136,-0.0864 -0.055,0.0177 0.044,0.0778 0.028,0.14141 -0.036,0.14141 -0.064,0 -0.083,0.0891 -0.042,0.19799 0.064,0.17092 0.049,0.17745 -0.1103,0.0479 -0.1469,-0.11938 -0.1599,-0.20418 -0.063,-0.41584 0.077,-0.16865 0.1306,-0.22485 0.2514,-0.20483 z m 5.1312,0.0979 c 0.546,0.0274 1.5849,0.23829 2.1765,0.47175 1.7953,0.70865 2.8219,1.74378 3.9247,3.95743 l 0.7481,1.50165 0.9325,0.45142 c 0.9806,0.47465 1.6041,1.05412 2.1679,2.01472 0.3438,0.58588 1.0642,2.65667 0.9576,2.75295 -0.042,0.0379 -0.4581,0.12959 -0.9247,0.20373 -0.4667,0.0741 -0.8994,0.19073 -0.9617,0.25897 -0.079,0.087 -0.057,0.10428 0.075,0.0581 0.1034,-0.0362 0.6036,-0.12949 1.1116,-0.20726 0.7879,-0.12063 0.9388,-0.11747 1.0264,0.021 0.1479,0.23367 0.13,1.096 -0.025,1.19164 -0.1817,0.1123 -1.4424,0.37589 -1.8205,0.38072 -0.2777,0.004 -0.3111,-0.0361 -0.3111,-0.37166 0,-0.96345 -0.7114,-2.05966 -1.5741,-2.42549 -0.5797,-0.24579 -1.5705,-0.21426 -2.1226,0.0674 -0.969,0.49438 -1.4538,1.38106 -1.3721,2.5099 0.048,0.65682 0.047,0.65727 -0.2983,0.72144 -0.4456,0.0827 -6.8527,0.17322 -7.5532,0.10672 -0.5153,-0.0489 -0.5288,-0.0596 -0.4242,-0.33475 0.3225,-0.84825 -0.1257,-2.17703 -0.9311,-2.76047 -1.1008,-0.79737 -2.6464,-0.6077 -3.4766,0.42668 l -0.3405,0.42402 -0.7961,-0.0376 c -0.8868,-0.0418 -0.8727,-0.0225 -0.7029,-0.97996 0.068,-0.38463 0.1289,-0.46026 0.4081,-0.5091 0.3224,-0.0564 0.3314,-0.0784 0.5372,-1.3008 0.1152,-0.68389 0.1845,-1.30753 0.1546,-1.38586 -0.03,-0.0783 -0.1581,-0.1423 -0.2846,-0.1423 -0.2739,0 -0.2783,-0.0305 -0.065,-0.44303 0.091,-0.17519 0.3578,-0.41435 0.5939,-0.53163 0.4045,-0.20094 0.8348,-0.21517 7.4634,-0.24416 l 7.0343,-0.0307 0.036,0.24548 c 0.1,0.67081 0.9236,0.44055 1.0619,-0.29675 0.055,-0.29079 0.019,-0.48062 -0.1324,-0.70796 -0.1138,-0.17083 -0.4414,-0.69845 -0.728,-1.17241 -0.7651,-1.26497 -1.2606,-1.81765 -2.2284,-2.48671 -1.0126,-0.69998 -1.9869,-1.08265 -3.0292,-1.18943 -0.4106,-0.0421 -0.7054,-0.11763 -0.6551,-0.16793 0.038,-0.0376 0.1649,-0.0489 0.3469,-0.0398 z m -11.1298,0.27686 c -0.024,0 -0.043,0.10183 -0.043,0.22627 0,0.12444 0.046,0.22627 0.1025,0.22627 0.057,0 0.076,-0.10183 0.043,-0.22627 -0.033,-0.12444 -0.079,-0.22627 -0.1027,-0.22627 z m -0.3529,0.13059 c -0.018,-0.004 -0.024,0.0316 -0.026,0.10518 0,0.0985 0.031,0.21307 0.072,0.25455 0.138,0.13802 0.1733,-0.0177 0.051,-0.22715 -0.049,-0.0848 -0.079,-0.12855 -0.097,-0.13258 z m 10.478,0.78906 c 0.062,7.7e-4 0.1188,0.009 0.1571,0.0245 v -2.2e-4 c 0.077,0.031 -0.014,0.0543 -0.2002,0.0521 -0.1867,-0.002 -0.2493,-0.0277 -0.1392,-0.0563 0.055,-0.0143 0.1208,-0.0209 0.1823,-0.0201 z m 0.9066,0.21963 c 0.1552,-0.001 0.2951,0.0103 0.4013,0.0369 0.3259,0.0818 0.9816,0.66559 1.1803,1.05089 0.1744,0.33826 0.1606,1.3046 -0.022,1.5547 -0.1974,0.26999 -0.9268,0.15735 -1.4999,-0.23157 -0.2245,-0.15234 -0.3867,-0.2116 -0.3606,-0.13169 0.079,0.23958 0.9083,0.65035 1.3169,0.65249 0.3334,0.002 0.3629,0.0242 0.2345,0.17898 -0.081,0.0974 -0.2882,0.25017 -0.4607,0.3394 -0.1726,0.0892 -0.5835,0.16173 -0.9133,0.1613 -0.7128,-0.001 -1.4682,-0.39634 -1.7314,-0.90528 -0.3605,-0.69717 -0.063,-2.0295 0.5424,-2.42594 0.2437,-0.15963 0.8472,-0.27663 1.3128,-0.28018 z m -11.2447,0.0294 c -1.6178,0.002 -2.5596,0.0326 -2.093,0.068 v -2.1e-4 c 0.8204,0.0623 4.1755,0.0372 4.7516,-0.0356 0.1555,-0.0196 -1.0409,-0.034 -2.6586,-0.0323 z m 5.2772,0.35862 -0.3759,0.4132 c -0.2067,0.22721 -0.4743,0.58358 -0.5948,0.79192 -0.2094,0.3618 -0.2097,0.37111 -0.01,0.20903 0.195,-0.15607 0.2054,-0.15152 0.1326,0.0566 h 2e-4 c -0.093,0.26674 0.1517,-0.0212 0.7221,-0.84848 l 0.3511,-0.5091 -0.4032,0.45253 c -0.4692,0.52638 -0.5384,0.43156 -0.1158,-0.15887 z m 6.6412,0.0897 c -0.01,-0.005 -0.076,0.0255 -0.2092,0.0891 -0.1556,0.0741 -0.3039,0.15344 -0.33,0.1761 -0.1552,0.13584 0.2129,0.01 0.3931,-0.13478 0.1036,-0.083 0.1545,-0.12492 0.1461,-0.13037 z m 0.074,0.64211 c -0.062,-0.002 -0.1296,0.13094 -0.1501,0.29521 h -2e-4 c -0.026,0.20865 0.01,0.28378 0.1131,0.2488 0.1738,-0.0578 0.2064,-0.53875 0.037,-0.54401 z m 0.6679,0.0219 c -0.017,-0.004 -0.039,-0.002 -0.064,0.006 -0.083,0.0274 -0.1677,0.16596 -0.1887,0.30802 -0.026,0.17549 0.011,0.24237 0.1132,0.20859 0.083,-0.0274 0.1677,-0.16596 0.1886,-0.30802 0.019,-0.13162 0,-0.202 -0.049,-0.21477 z m -6.8053,0.0977 c -0.2781,0.009 -1.7253,2.38205 -1.7253,2.82875 0,0.062 0.3948,0.10982 0.9051,0.10982 h 0.905 v -1.47071 c 0,-0.80891 -0.038,-1.46957 -0.085,-1.46786 z m -7.6082,0.14959 -3.7899,0.0126 3.6768,0.0612 c 2.0222,0.0337 4.0586,0.0653 4.5253,0.0701 l 0.8485,0.009 -0.7354,-0.0826 c -0.4044,-0.0455 -2.4408,-0.0768 -4.5253,-0.0698 z m 6.4154,10e-4 c 0.021,0.008 0.033,0.0283 0.033,0.0594 0,0.0622 -0.051,0.14451 -0.1132,0.18295 -0.062,0.0385 -0.1131,0.0191 -0.1131,-0.0431 0,-0.0622 0.051,-0.14473 0.1131,-0.18317 0.031,-0.0192 0.059,-0.024 0.08,-0.0161 z m 1.1572,0.0161 v 1.32931 1.3293 h -0.7922 c -0.4355,0 -0.7917,-0.0302 -0.7917,-0.0674 0,-0.17247 0.946,-1.84248 1.2436,-2.19525 z m -6.8938,1.31406 c -0.2973,0 -0.5946,0.005 -0.8202,0.0161 -0.4511,0.0215 -0.082,0.0391 0.8202,0.0391 0.9023,0 1.2713,-0.0176 0.8202,-0.0391 -0.2256,-0.0107 -0.5229,-0.0161 -0.8202,-0.0161 z m 17.0383,0.10164 c 0.034,0.0106 0.043,0.0666 3e-4,0.17744 -0.038,0.0984 -0.069,0.22569 -0.069,0.28283 0,0.0571 -0.075,0.10385 -0.1672,0.10385 -0.1375,0 -0.1443,-0.0506 -0.039,-0.28283 0.087,-0.19083 0.2169,-0.29903 0.2742,-0.28129 z m -7.2221,0.0802 c 0.167,0.0177 0.2103,0.12207 0.3204,0.48391 0.085,0.28 0.1567,0.52181 0.1567,0.53738 9e-4,0.0155 -0.2727,0.0283 -0.6083,0.0283 -0.649,0 -0.7476,-0.0837 -0.7476,-0.63505 0,-0.30492 0.098,-0.36513 0.6636,-0.40966 0.09,-0.007 0.1595,-0.0108 0.2152,-0.005 z m 7.0266,0.60279 c 0.08,0.021 0.1266,0.10338 0.1067,0.23819 -0.023,0.15151 -0.1326,0.25835 -0.2908,0.28217 -0.2786,0.0419 -0.342,-0.16684 -0.1187,-0.39022 0.1109,-0.11083 0.2231,-0.15117 0.3028,-0.13014 z m 1.6327,0.13721 c 0.1839,0.0604 0.2379,0.85268 0.072,1.05288 -0.2288,0.27559 -0.5593,0.20078 -0.5593,-0.12661 0,-0.38046 0.3167,-0.98231 0.4875,-0.92627 z m -16.0458,0.7621 c -0.083,0 -0.3637,0.60506 -0.4852,1.04779 -0.067,0.24225 -0.072,0.39778 -0.012,0.36105 0.057,-0.0355 0.107,-0.15066 0.107,-0.25587 0,-0.10522 0.1005,-0.40771 0.2205,-0.67216 0.12,-0.26445 0.1966,-0.48081 0.1701,-0.48081 z m 4.8282,0.22626 c -0.088,0 -0.1312,0.31771 -0.1312,0.98991 -4e-4,0.54444 -0.024,1.42263 -0.052,1.95152 -0.041,0.76679 -0.031,0.85848 0.049,0.45253 0.1819,-0.92081 0.2795,-3.39396 0.1339,-3.39396 z m -10.9963,0.0601 c -0.067,0.008 -0.1081,0.0263 -0.1081,0.0537 0,0.0547 0.2164,0.11914 0.4808,0.14295 v -2.1e-4 c 0.2645,0.0238 1.1936,0.0447 2.0647,0.0464 l 1.5838,0.003 -1.6969,-0.0893 c -0.9333,-0.0491 -1.8625,-0.11474 -2.0647,-0.14583 -0.1011,-0.0155 -0.193,-0.0186 -0.2596,-0.0108 z m 13.1284,0.26803 -0.6494,0.034 c -0.5305,0.0277 -0.6569,0.0728 -0.6898,0.2466 -0.022,0.11699 0.028,0.25617 0.112,0.30934 0.084,0.0532 0.3943,0.0975 0.6898,0.0983 0.5241,0.002 0.5374,-0.007 0.5374,-0.34315 z m -8.3943,0.0678 -0.091,0.28283 c -0.05,0.15556 -0.094,0.38465 -0.094,0.5091 v 0.22626 l 0.097,-0.22626 c 0.053,-0.12445 0.094,-0.35354 0.094,-0.5091 z m 8.0388,0.0674 c 0.2128,0.002 0.248,0.0464 0.2236,0.17124 -0.044,0.22695 -0.1139,0.24576 -0.6954,0.18671 -0.6067,-0.0616 -0.4703,-0.30377 0.1953,-0.34691 0.1148,-0.007 0.2055,-0.0117 0.2765,-0.011 z m -7.4878,0.0751 c -0.014,-0.0286 -0.068,0.15676 -0.1829,0.59284 -0.1226,0.46667 -0.2228,0.87393 -0.2186,0.90505 0.018,0.22734 0.3428,-0.80026 0.3865,-1.22279 0.017,-0.16362 0.023,-0.25791 0.015,-0.2751 z m 1.0801,0.60654 c 0.047,3.9e-4 0.1014,0.0105 0.1529,0.0303 0.129,0.0496 0.1667,0.15075 0.1209,0.32526 -0.037,0.13924 -0.1248,0.63481 -0.196,1.10149 -0.071,0.46666 -0.1473,0.91213 -0.1691,0.9899 -0.062,0.22293 -0.4999,0.17301 -0.4956,-0.0566 0.01,-0.3226 0.4067,-2.28622 0.4826,-2.36207 0.019,-0.0192 0.058,-0.0287 0.1043,-0.0283 z m 18.471,0.5924 c -0.1915,-0.0207 -0.2815,0.14445 -0.2815,0.49959 0,0.43606 0.4219,1.24823 0.9415,1.81276 0.1542,0.16756 0.3406,0.24782 0.5255,0.22627 0.2387,-0.0278 0.2916,-0.0997 0.3168,-0.42955 0.038,-0.50169 -0.491,-1.44902 -1.0456,-1.87198 -0.1905,-0.14533 -0.3418,-0.22468 -0.4567,-0.23709 z m -0.018,0.18582 c 0.2064,0 0.7536,0.69466 0.9826,1.24755 0.1089,0.26278 0.1718,0.314 0.2492,0.20262 0.068,-0.0985 0.078,-0.0578 0.027,0.11976 -0.055,0.1927 -0.038,0.24511 0.059,0.18539 0.093,-0.0573 0.1231,-5.3e-4 0.097,0.18251 h 2e-4 c -0.073,0.51731 -0.4394,0.36775 -1.0047,-0.41054 -0.1552,-0.21373 -0.1525,-0.21686 0.052,-0.0566 0.1924,0.15084 0.2083,0.15084 0.1417,0 -0.041,-0.0933 -0.1063,-0.25878 -0.1447,-0.36768 -0.038,-0.10889 -0.1134,-0.19798 -0.1664,-0.19798 -0.053,0 -0.067,0.0764 -0.031,0.1697 0.036,0.0933 0.032,0.1697 -0.01,0.1697 -0.114,0 -0.4254,-0.80642 -0.3431,-0.88871 0.087,-0.0872 0.4334,0.36901 0.9273,1.22169 0.2004,0.34583 0.3675,0.5873 0.3675,0.53672 0.01,-0.24106 -0.6414,-1.36366 -0.9948,-1.71709 -0.2859,-0.28592 -0.3445,-0.39707 -0.2092,-0.39707 z m -22.2254,0.80496 c -0.1025,-3e-4 -0.2092,0.006 -0.2952,0.019 v 2.2e-4 c -0.1719,0.026 -0.058,0.048 0.253,0.0488 0.3127,8.5e-4 0.4519,-0.0204 0.3127,-0.0473 -0.07,-0.0135 -0.1679,-0.0205 -0.2705,-0.0208 z m 8.7185,1.35693 c -0.046,0.006 0.052,0.12326 0.302,0.38867 0.3973,0.42125 0.7233,1.29508 0.7233,1.93871 h 2e-4 c 0,0.20648 0.032,0.37541 0.072,0.37541 0.039,0 0.045,-0.32875 0.013,-0.73072 -0.063,-0.78241 -0.4696,-1.65298 -0.8735,-1.8691 -0.1299,-0.0695 -0.2096,-0.10638 -0.2373,-0.10297 z m -9.6167,0.11467 c -0.4716,-2e-5 -0.948,0.005 -1.3153,0.0148 -0.7347,0.0198 -0.1648,0.0359 1.2663,0.036 1.4311,8e-5 2.0322,-0.0162 1.3357,-0.036 -0.3482,-0.01 -0.815,-0.0148 -1.2867,-0.0148 z m 20.9593,0.75746 c 0.3804,-0.005 0.5107,0.0498 0.6856,0.2899 0.1188,0.16304 0.2688,0.29653 0.3335,0.29653 0.068,0 0.054,-0.083 -0.034,-0.19798 -0.084,-0.10889 -0.013,-0.0742 0.1571,0.0773 0.3585,0.3196 0.5785,1.01223 0.4735,1.49039 -0.098,0.44533 -0.5809,1.00133 -1.0347,1.19098 h -3e-4 c -0.4853,0.20276 -0.6779,0.19234 -1.251,-0.0678 -0.5277,-0.23954 -0.9424,-0.80106 -0.9219,-1.24843 0.012,-0.26174 0.02,-0.25752 0.1,0.0566 0.07,0.27675 0.089,0.29212 0.1,0.0833 0.01,-0.14085 -0.05,-0.35805 -0.1279,-0.48258 -0.2112,-0.33815 0.1908,-1.04381 0.6505,-1.14193 0.1868,-0.0398 0.263,-0.08 0.1697,-0.0893 -0.3567,-0.0354 0.2302,-0.25048 0.7011,-0.25698 z m -13.2409,0.006 c 0.106,-0.003 0.2204,-0.002 0.3421,0.003 0.192,0.008 0.3285,0.0917 0.3718,0.22826 0.038,0.1187 0.1504,0.24721 0.2502,0.28548 0.1545,0.0593 0.1601,0.0397 0.037,-0.13103 -0.079,-0.11031 0.013,-0.0373 0.2042,0.16218 0.3669,0.38224 0.5448,0.97805 0.4293,1.43802 -0.1007,0.40119 -0.6252,0.97852 -1.0502,1.15607 -0.4834,0.20196 -0.6783,0.19228 -1.2385,-0.0621 -0.5697,-0.25874 -0.8535,-0.63216 -0.761,-1.00096 0.037,-0.14891 0,-0.39058 -0.075,-0.53715 -0.2056,-0.38426 0.1725,-1.10147 0.6338,-1.20181 0.1805,-0.0393 0.2522,-0.0789 0.1588,-0.0882 -0.1508,-0.0149 -0.1508,-0.0279 0,-0.11557 0.1368,-0.0794 0.3788,-0.12604 0.6967,-0.13589 z m 13.2767,0.3341 c -0.019,-0.0201 -0.033,0.05 -0.036,0.19002 0,0.18667 0.021,0.27679 0.052,0.20019 0.031,-0.0766 0.033,-0.22932 0,-0.33939 -0.01,-0.0275 -0.014,-0.0441 -0.02,-0.0508 z m -16.8432,0.1529 c 0.1865,7.9e-4 0.3891,0.0121 0.5628,0.0338 0.5769,0.0721 0.6259,0.1 0.5658,0.32393 -0.036,0.13478 -0.067,0.51232 -0.067,0.83899 v 0.59394 l -0.6506,-0.013 c -1.1967,-0.0241 -1.2666,-0.0821 -1.2709,-1.02813 v -0.64542 l 0.3975,-0.0747 c 0.1093,-0.0205 0.2795,-0.0302 0.466,-0.0294 z m 3.2574,0.33299 c -0.015,-10e-4 -0.034,0.001 -0.055,0.008 -0.082,0.0272 -0.1706,0.11631 -0.1979,0.19798 -0.028,0.0848 0.014,0.12729 0.099,0.099 0.082,-0.0272 0.1706,-0.11631 0.1979,-0.19798 0.021,-0.0636 0,-0.10341 -0.044,-0.10739 z m -1.0215,0.0457 c 0.01,0.0177 0.061,0.0699 0.1657,0.1613 h 2e-4 c 0.1469,0.12796 0.3251,0.23176 0.396,0.2309 0.135,-0.002 -0.053,-0.15149 -0.4368,-0.34779 -0.089,-0.0455 -0.1313,-0.0622 -0.1251,-0.0444 z m 14.1223,0.0495 c -0.047,0.008 -0.097,0.0508 -0.1218,0.12374 -0.025,0.0747 0.016,0.11526 0.091,0.0904 0.075,-0.0249 0.132,-0.0819 0.1273,-0.12705 -0.01,-0.0676 -0.05,-0.0949 -0.096,-0.0871 z m -0.7464,0.009 c -0.07,0.002 -0.029,0.0782 0.092,0.16948 0.2821,0.21356 0.3551,0.21195 0.1763,-0.004 -0.078,-0.0933 -0.198,-0.16808 -0.2682,-0.16594 z m -11.6672,0.034 c -0.093,0 -0.1697,0.0425 -0.1697,0.0944 0,0.0519 0.076,0.0943 0.1697,0.0943 0.093,0 0.1697,-0.0425 0.1697,-0.0943 0,-0.0519 -0.076,-0.0944 -0.1697,-0.0944 z m 13.2364,0 c -0.093,0 -0.1697,0.0425 -0.1697,0.0944 0,0.0519 0.076,0.0941 0.1697,0.0941 0.093,0 0.1697,-0.0423 0.1697,-0.0941 0,-0.0519 -0.076,-0.0944 -0.1697,-0.0944 z m -12.4856,0.0994 c -0.082,-0.0272 -0.202,0.004 -0.2678,0.0701 -0.084,0.0839 -0.04,0.0987 0.1483,0.0495 0.1528,-0.04 0.2042,-0.0913 0.1195,-0.11954 z m 13.2365,0 c -0.082,-0.0272 -0.2021,0.004 -0.2678,0.0701 -0.084,0.0839 -0.04,0.0987 0.1482,0.0495 0.1529,-0.04 0.2043,-0.0913 0.1196,-0.11954 z m -14.4878,0.13214 c -0.2712,0.0593 -0.4693,0.4691 -0.2121,0.7263 0.075,0.0747 0.1916,0.13589 0.26,0.13589 0.3575,0 0.5203,-0.54798 0.2336,-0.78596 -0.092,-0.0768 -0.1911,-0.096 -0.2815,-0.0762 z m 13.2364,0 c -0.2712,0.0593 -0.4693,0.4691 -0.2121,0.7263 0.1646,0.16459 0.1646,0.16451 0.4373,0.0186 0.2578,-0.13794 0.2864,-0.47772 0.056,-0.66863 -0.093,-0.0768 -0.1911,-0.096 -0.2816,-0.0762 z m -13.1166,0.13478 c 0.092,0.008 0.1677,0.0858 0.1887,0.23201 h -2e-4 c 0.039,0.27051 -0.1995,0.41212 -0.4404,0.26184 -0.1221,-0.0763 -0.13,-0.14643 -0.034,-0.30073 0.086,-0.13741 0.1937,-0.20067 0.2857,-0.19312 z m 13.1982,0.0148 c 0.052,0.0162 0.1026,0.0496 0.1465,0.10252 0.112,0.13508 0.108,0.19879 -0.02,0.31929 -0.2042,0.19197 -0.4428,0.10601 -0.4428,-0.15931 0,-0.20416 0.1615,-0.31106 0.3164,-0.2625 z m -21.6418,0.17964 -1.3576,0.0104 1.0748,0.0698 c 1.6621,0.10798 2.2604,0.10798 1.9232,0 -0.1556,-0.0498 -0.8937,-0.0859 -1.6404,-0.0802 z m 23.1152,0.0365 c -0.051,0.0315 -0.093,0.18154 -0.093,0.33343 0,0.3794 0.077,0.34687 0.1363,-0.0575 0.027,-0.18338 0.01,-0.3075 -0.043,-0.27598 z m -13.9997,0.0601 c -0.033,-9.6e-4 -0.072,0.01 -0.1158,0.0369 -0.068,0.0416 -0.091,0.12756 -0.051,0.19091 0.048,0.0773 0.111,0.0753 0.1922,-0.006 0.1089,-0.10889 0.073,-0.21897 -0.025,-0.22184 z m 13.2365,0 c -0.033,-9.6e-4 -0.072,0.01 -0.1158,0.0367 -0.068,0.0416 -0.09,0.12756 -0.051,0.19091 0.048,0.0773 0.111,0.0753 0.1922,-0.006 0.1089,-0.10889 0.073,-0.21875 -0.025,-0.22162 z m -15.4547,0.036 c 0.01,0.003 0.014,0.013 0.022,0.0325 0.031,0.0778 0.031,0.20505 0,0.28282 -0.032,0.0778 -0.057,0.0141 -0.057,-0.14141 0,-0.11668 0.014,-0.18152 0.035,-0.1739 z m 2.9414,0.11314 c -0.02,-0.008 -0.035,0.0575 -0.035,0.17411 0,0.15557 0.026,0.2192 0.057,0.14142 0.031,-0.0778 0.031,-0.20505 0,-0.28283 -0.01,-0.0195 -0.015,-0.0302 -0.022,-0.0327 z m -2.1457,0.044 c -0.059,0 -0.1258,0.0546 -0.1481,0.12153 -0.022,0.0669 0.044,0.12175 0.1481,0.12175 0.1037,0 0.1703,-0.0549 0.148,-0.12175 -0.022,-0.0669 -0.089,-0.12153 -0.148,-0.12153 z m 13.2364,0 c -0.059,0 -0.1258,0.0546 -0.1481,0.12153 -0.022,0.0669 0.044,0.12152 0.1481,0.12152 0.1037,0 0.1703,-0.0546 0.148,-0.12152 -0.022,-0.0669 -0.089,-0.12153 -0.148,-0.12153 z m 0.7986,0.35619 c -0.028,0 -0.081,0.0509 -0.1198,0.11313 -0.038,0.0622 -0.016,0.11313 0.05,0.11313 0.066,0 0.1197,-0.0509 0.1197,-0.11313 0,-0.0622 -0.023,-0.11313 -0.05,-0.11313 z m -13.1731,2.2e-4 c -0.062,0 -0.1447,0.0509 -0.1832,0.11313 -0.038,0.0622 -0.019,0.11313 0.043,0.11313 0.062,0 0.1444,-0.0509 0.1829,-0.11313 0.039,-0.0622 0.019,-0.11313 -0.043,-0.11313 z m 12.7309,0 c -0.026,0 -0.135,0.13353 -0.2419,0.29675 -0.107,0.16322 -0.1386,0.2621 -0.07,0.21986 0.1306,-0.0807 0.394,-0.51661 0.3122,-0.51661 z m -12.2257,0.038 c -0.014,-0.004 -0.026,-0.003 -0.035,0.006 -0.035,0.0349 8e-4,0.14115 0.08,0.23599 0.2034,0.24506 0.2584,0.21347 0.1103,-0.0634 -0.052,-0.0973 -0.1131,-0.16536 -0.1551,-0.17854 z m 13.2364,0 c -0.014,-0.004 -0.026,-0.003 -0.035,0.006 -0.035,0.0349 8e-4,0.14115 0.08,0.23599 0.2033,0.24506 0.2584,0.21347 0.1102,-0.0634 -0.052,-0.0973 -0.1131,-0.16536 -0.1551,-0.17854 z m -14.2279,0.0186 c -0.02,-0.019 -0.1277,0.0879 -0.2395,0.23732 -0.1118,0.14946 -0.1622,0.27178 -0.112,0.27178 0.099,0 0.411,-0.45236 0.3515,-0.5091 z m 11.0602,0.48479 c 0.1633,0.004 0.2462,0.0272 0.262,0.0705 0.06,0.16449 0.9152,0.99334 1.1997,1.16314 0.2143,0.1279 0.2109,0.13509 -0.068,0.14141 -0.3117,0.007 -1.0073,-0.29196 -1.0073,-0.43308 0,-0.10174 -0.7445,-0.46722 -0.9371,-0.46004 -0.076,0.003 0.091,0.12781 0.3714,0.27775 0.6213,0.3327 0.5885,0.33965 -0.3111,0.0661 -0.3889,-0.11825 -0.7071,-0.17454 -0.7071,-0.12484 0,0.0497 0.42,0.20315 0.9333,0.34094 0.5134,0.1378 0.9546,0.27062 0.9807,0.29521 0.026,0.0246 -2.3388,0.0448 -5.2547,0.0448 h -5.3015 l 0.5186,-0.32901 c 0.2852,-0.1809 0.6128,-0.4884 0.728,-0.68343 0.207,-0.35037 0.217,-0.35367 0.8328,-0.26515 0.7975,0.11461 5.754,0.0743 7.0154,-0.057 0.3377,-0.0352 0.5815,-0.0511 0.7448,-0.0473 z m -13.2243,0.13722 c -0.062,0 -0.021,0.10182 0.091,0.22626 0.1126,0.12445 0.2557,0.22627 0.3179,0.22627 0.062,0 0.021,-0.10182 -0.092,-0.22627 -0.1126,-0.12444 -0.2555,-0.22626 -0.3177,-0.22626 z m 13.0042,0.11578 c -0.071,0.001 0,0.10216 0.1541,0.22384 0.3697,0.28911 0.5895,0.28579 0.2419,-0.004 -0.1469,-0.12237 -0.3251,-0.22136 -0.396,-0.22008 z m -10.4521,0.009 -0.3111,0.0113 0.2828,0.0906 h 2e-4 c 0.1556,0.0498 0.2957,0.0954 0.3111,0.10164 0.015,0.006 0.028,-0.0394 0.028,-0.10164 0,-0.0622 -0.14,-0.10807 -0.3111,-0.10187 z m 13.2082,0.003 c -0.051,0 -0.1026,0.008 -0.1415,0.0234 -0.078,0.0314 -0.014,0.0572 0.1415,0.0572 0.1555,0 0.2192,-0.0258 0.1414,-0.0572 -0.039,-0.0157 -0.09,-0.0234 -0.1414,-0.0234 z" />
      <path
         style="fill:#000000;fill-opacity:1;stroke-width:0.264999"
         d="m 1301.8191,102.86303 0.096,-1.18077 -0.083,-0.0927 -0.2051,0.0594 -0.6327,1.27434 z"
         id="path69" />
    </g>
  </g>
</svg>
