<?xml version="1.0" encoding="UTF-8" standalone="no"?>
<!-- Created with Inkscape (http://www.inkscape.org/) -->

<svg
   width="43.042mm"
   height="7.145mm"
   viewBox="0 0 43.042 7.145"
   version="1.1"
   id="svg1"
   inkscape:version="1.4.2 (ebf0e940d0, 2025-05-08)"
   sodipodi:docname="5_1_1_45.svg"
   xmlns:inkscape="http://www.inkscape.org/namespaces/inkscape"
   xmlns:sodipodi="http://sodipodi.sourceforge.net/DTD/sodipodi-0.dtd"
   xmlns="http://www.w3.org/2000/svg"
   xmlns:svg="http://www.w3.org/2000/svg">
  <sodipodi:namedview
     id="namedview1"
     pagecolor="#ffffff"
     bordercolor="#000000"
     borderopacity="0.25"
     inkscape:showpageshadow="2"
     inkscape:pageopacity="0.0"
     inkscape:pagecheckerboard="0"
     inkscape:deskcolor="#d1d1d1"
     inkscape:document-units="mm"
     inkscape:zoom="3.7992065"
     inkscape:cx="82.385623"
     inkscape:cy="15.003133"
     inkscape:window-width="1079"
     inkscape:window-height="994"
     inkscape:window-x="0"
     inkscape:window-y="0"
     inkscape:window-maximized="0"
     inkscape:current-layer="layer1" />
  <defs
     id="defs1">
    <rect
       x="13.485725"
       y="-52.819092"
       width="225.2477"
       height="118.63495"
       id="rect1" />
    <rect
       x="37.795277"
       y="37.795277"
       width="483.77954"
       height="718.11023"
       id="rect2721" />
    <rect
       x="37.795277"
       y="37.795277"
       width="483.77954"
       height="718.11023"
       id="rect2722" />
    <rect
       x="37.795277"
       y="37.795277"
       width="483.77954"
       height="718.11023"
       id="rect2723" />
    <rect
       x="37.795277"
       y="37.795277"
       width="483.77954"
       height="718.11023"
       id="rect2724" />
    <rect
       x="37.795277"
       y="37.795277"
       width="483.77954"
       height="718.11023"
       id="rect2725" />
    <rect
       x="37.795277"
       y="37.795277"
       width="483.77954"
       height="718.11023"
       id="rect2726" />
    <rect
       x="37.795277"
       y="37.795277"
       width="483.77954"
       height="718.11023"
       id="rect2727" />
    <rect
       x="37.795277"
       y="37.795277"
       width="483.77954"
       height="718.11023"
       id="rect2728" />
    <rect
       x="37.795277"
       y="37.795277"
       width="483.77954"
       height="718.11023"
       id="rect2729" />
    <rect
       x="37.795277"
       y="37.795277"
       width="483.77954"
       height="718.11023"
       id="rect2730" />
    <rect
       x="37.795277"
       y="37.795277"
       width="483.77954"
       height="718.11023"
       id="rect2731" />
    <rect
       x="37.795277"
       y="37.795277"
       width="483.77954"
       height="718.11023"
       id="rect2732" />
    <rect
       x="37.795277"
       y="37.795277"
       width="483.77954"
       height="718.11023"
       id="rect2733" />
    <rect
       x="37.795277"
       y="37.795277"
       width="483.77954"
       height="718.11023"
       id="rect2734" />
  </defs>
  <g
     inkscape:label="Katman 1"
     inkscape:groupmode="layer"
     id="layer1">
    <path
       style="fill:#006680;stroke-width:0.25812"
       d="m 21.269507,5.8490111 c 0,-1.4142082 0.523008,-2.1049671 1.593622,-2.1049671 0.974912,0 1.503919,0.7561797 1.503919,2.1498176 0,1.5647002 -0.464106,1.5697103 -0.566707,0.006 -0.148202,-2.260719 -1.815924,-2.260719 -1.964126,0 -0.104201,1.5884205 -0.566708,1.54682 -0.566708,-0.050901 z"
       id="path1756"
       sodipodi:nodetypes="csssscc" />
    <g
       id="g1790"
       transform="matrix(0.58808108,0,0,0.58808108,-59.977713,-17.029025)">
      <path
         style="fill:#aa4400;fill-opacity:0.5;stroke:none;stroke-width:0.264583px;stroke-linecap:butt;stroke-linejoin:miter;stroke-opacity:1"
         d="m 102.58788,40.813132 -0.27358,-6.819217 0.52389,-4.580324 0.9312,-0.186028 0.2274,7.058376 -0.44403,4.447977 z"
         id="path1789" />
      <path
         style="fill:#aa4400;stroke-width:0.32002"
         d="m 102.06431,35.721723 c 0.0787,-5.631789 0.31866,-6.764789 1.4324,-6.764789 0.54792,0 0.62982,0.245082 0.66845,2.000138 0.0979,4.446961 0.0552,6.5681 -0.16752,8.320556 -0.22132,1.741565 -0.28139,1.840114 -1.12132,1.840114 h -0.88747 z m 1.31024,3.235875 c 0.43995,-2.741207 0.32754,-6.725356 -0.20475,-7.257451 -0.42668,-0.426527 -0.48002,0.03445 -0.48002,4.14888 0,4.716258 0.24687,5.837021 0.68477,3.108571 z m 0.11527,-8.739468 c 0,-0.362406 -0.13773,-0.573812 -0.30605,-0.469776 -0.16833,0.104018 -0.22492,0.400548 -0.12577,0.658926 0.25385,0.661517 0.43182,0.583561 0.43182,-0.18915 z"
         id="path1790"
         sodipodi:nodetypes="ssssscsssssssss" />
    </g>
    <g
       id="g2"
       transform="matrix(0.58808108,0,0,0.58808108,-58.390212,-17.029025)">
      <path
         style="fill:#aa4400;fill-opacity:0.5;stroke:none;stroke-width:0.264583px;stroke-linecap:butt;stroke-linejoin:miter;stroke-opacity:1"
         d="m 102.58788,40.813132 -0.27358,-6.819217 0.52389,-4.580324 0.9312,-0.186028 0.2274,7.058376 -0.44403,4.447977 z"
         id="path1" />
      <path
         style="fill:#aa4400;stroke-width:0.32002"
         d="m 102.06431,35.721723 c 0.0787,-5.631789 0.31866,-6.764789 1.4324,-6.764789 0.54792,0 0.62982,0.245082 0.66845,2.000138 0.0979,4.446961 0.0552,6.5681 -0.16752,8.320556 -0.22132,1.741565 -0.28139,1.840114 -1.12132,1.840114 h -0.88747 z m 1.31024,3.235875 c 0.43995,-2.741207 0.32754,-6.725356 -0.20475,-7.257451 -0.42668,-0.426527 -0.48002,0.03445 -0.48002,4.14888 0,4.716258 0.24687,5.837021 0.68477,3.108571 z m 0.11527,-8.739468 c 0,-0.362406 -0.13773,-0.573812 -0.30605,-0.469776 -0.16833,0.104018 -0.22492,0.400548 -0.12577,0.658926 0.25385,0.661517 0.43182,0.583561 0.43182,-0.18915 z"
         id="path2"
         sodipodi:nodetypes="ssssscsssssssss" />
    </g>
    <g
       id="g4"
       transform="matrix(0.58808108,0,0,0.58808108,-56.802711,-17.029025)">
      <path
         style="fill:#aa4400;fill-opacity:0.5;stroke:none;stroke-width:0.264583px;stroke-linecap:butt;stroke-linejoin:miter;stroke-opacity:1"
         d="m 102.58788,40.813132 -0.27358,-6.819217 0.52389,-4.580324 0.9312,-0.186028 0.2274,7.058376 -0.44403,4.447977 z"
         id="path3" />
      <path
         style="fill:#aa4400;stroke-width:0.32002"
         d="m 102.06431,35.721723 c 0.0787,-5.631789 0.31866,-6.764789 1.4324,-6.764789 0.54792,0 0.62982,0.245082 0.66845,2.000138 0.0979,4.446961 0.0552,6.5681 -0.16752,8.320556 -0.22132,1.741565 -0.28139,1.840114 -1.12132,1.840114 h -0.88747 z m 1.31024,3.235875 c 0.43995,-2.741207 0.32754,-6.725356 -0.20475,-7.257451 -0.42668,-0.426527 -0.48002,0.03445 -0.48002,4.14888 0,4.716258 0.24687,5.837021 0.68477,3.108571 z m 0.11527,-8.739468 c 0,-0.362406 -0.13773,-0.573812 -0.30605,-0.469776 -0.16833,0.104018 -0.22492,0.400548 -0.12577,0.658926 0.25385,0.661517 0.43182,0.583561 0.43182,-0.18915 z"
         id="path4"
         sodipodi:nodetypes="ssssscsssssssss" />
    </g>
    <g
       id="g6"
       transform="matrix(0.58808108,0,0,0.58808108,-55.21521,-17.029025)">
      <path
         style="fill:#aa4400;fill-opacity:0.5;stroke:none;stroke-width:0.264583px;stroke-linecap:butt;stroke-linejoin:miter;stroke-opacity:1"
         d="m 102.58788,40.813132 -0.27358,-6.819217 0.52389,-4.580324 0.9312,-0.186028 0.2274,7.058376 -0.44403,4.447977 z"
         id="path5" />
      <path
         style="fill:#aa4400;stroke-width:0.32002"
         d="m 102.06431,35.721723 c 0.0787,-5.631789 0.31866,-6.764789 1.4324,-6.764789 0.54792,0 0.62982,0.245082 0.66845,2.000138 0.0979,4.446961 0.0552,6.5681 -0.16752,8.320556 -0.22132,1.741565 -0.28139,1.840114 -1.12132,1.840114 h -0.88747 z m 1.31024,3.235875 c 0.43995,-2.741207 0.32754,-6.725356 -0.20475,-7.257451 -0.42668,-0.426527 -0.48002,0.03445 -0.48002,4.14888 0,4.716258 0.24687,5.837021 0.68477,3.108571 z m 0.11527,-8.739468 c 0,-0.362406 -0.13773,-0.573812 -0.30605,-0.469776 -0.16833,0.104018 -0.22492,0.400548 -0.12577,0.658926 0.25385,0.661517 0.43182,0.583561 0.43182,-0.18915 z"
         id="path6"
         sodipodi:nodetypes="ssssscsssssssss" />
    </g>
    <g
       id="g8"
       transform="matrix(0.58808108,0,0,0.58808108,-53.627709,-17.029025)">
      <path
         style="fill:#aa4400;fill-opacity:0.5;stroke:none;stroke-width:0.264583px;stroke-linecap:butt;stroke-linejoin:miter;stroke-opacity:1"
         d="m 102.58788,40.813132 -0.27358,-6.819217 0.52389,-4.580324 0.9312,-0.186028 0.2274,7.058376 -0.44403,4.447977 z"
         id="path7" />
      <path
         style="fill:#aa4400;stroke-width:0.32002"
         d="m 102.06431,35.721723 c 0.0787,-5.631789 0.31866,-6.764789 1.4324,-6.764789 0.54792,0 0.62982,0.245082 0.66845,2.000138 0.0979,4.446961 0.0552,6.5681 -0.16752,8.320556 -0.22132,1.741565 -0.28139,1.840114 -1.12132,1.840114 h -0.88747 z m 1.31024,3.235875 c 0.43995,-2.741207 0.32754,-6.725356 -0.20475,-7.257451 -0.42668,-0.426527 -0.48002,0.03445 -0.48002,4.14888 0,4.716258 0.24687,5.837021 0.68477,3.108571 z m 0.11527,-8.739468 c 0,-0.362406 -0.13773,-0.573812 -0.30605,-0.469776 -0.16833,0.104018 -0.22492,0.400548 -0.12577,0.658926 0.25385,0.661517 0.43182,0.583561 0.43182,-0.18915 z"
         id="path8"
         sodipodi:nodetypes="ssssscsssssssss" />
    </g>
    <g
       id="g10"
       transform="matrix(0.58808108,0,0,0.58808108,-52.040208,-17.029025)">
      <path
         style="fill:#aa4400;fill-opacity:0.5;stroke:none;stroke-width:0.264583px;stroke-linecap:butt;stroke-linejoin:miter;stroke-opacity:1"
         d="m 102.58788,40.813132 -0.27358,-6.819217 0.52389,-4.580324 0.9312,-0.186028 0.2274,7.058376 -0.44403,4.447977 z"
         id="path9" />
      <path
         style="fill:#aa4400;stroke-width:0.32002"
         d="m 102.06431,35.721723 c 0.0787,-5.631789 0.31866,-6.764789 1.4324,-6.764789 0.54792,0 0.62982,0.245082 0.66845,2.000138 0.0979,4.446961 0.0552,6.5681 -0.16752,8.320556 -0.22132,1.741565 -0.28139,1.840114 -1.12132,1.840114 h -0.88747 z m 1.31024,3.235875 c 0.43995,-2.741207 0.32754,-6.725356 -0.20475,-7.257451 -0.42668,-0.426527 -0.48002,0.03445 -0.48002,4.14888 0,4.716258 0.24687,5.837021 0.68477,3.108571 z m 0.11527,-8.739468 c 0,-0.362406 -0.13773,-0.573812 -0.30605,-0.469776 -0.16833,0.104018 -0.22492,0.400548 -0.12577,0.658926 0.25385,0.661517 0.43182,0.583561 0.43182,-0.18915 z"
         id="path10"
         sodipodi:nodetypes="ssssscsssssssss" />
    </g>
    <g
       id="g12"
       transform="matrix(0.58808108,0,0,0.58808108,-50.452707,-17.029025)">
      <path
         style="fill:#aa4400;fill-opacity:0.5;stroke:none;stroke-width:0.264583px;stroke-linecap:butt;stroke-linejoin:miter;stroke-opacity:1"
         d="m 102.58788,40.813132 -0.27358,-6.819217 0.52389,-4.580324 0.9312,-0.186028 0.2274,7.058376 -0.44403,4.447977 z"
         id="path11" />
      <path
         style="fill:#aa4400;stroke-width:0.32002"
         d="m 102.06431,35.721723 c 0.0787,-5.631789 0.31866,-6.764789 1.4324,-6.764789 0.54792,0 0.62982,0.245082 0.66845,2.000138 0.0979,4.446961 0.0552,6.5681 -0.16752,8.320556 -0.22132,1.741565 -0.28139,1.840114 -1.12132,1.840114 h -0.88747 z m 1.31024,3.235875 c 0.43995,-2.741207 0.32754,-6.725356 -0.20475,-7.257451 -0.42668,-0.426527 -0.48002,0.03445 -0.48002,4.14888 0,4.716258 0.24687,5.837021 0.68477,3.108571 z m 0.11527,-8.739468 c 0,-0.362406 -0.13773,-0.573812 -0.30605,-0.469776 -0.16833,0.104018 -0.22492,0.400548 -0.12577,0.658926 0.25385,0.661517 0.43182,0.583561 0.43182,-0.18915 z"
         id="path12"
         sodipodi:nodetypes="ssssscsssssssss" />
    </g>
    <g
       id="g14"
       transform="matrix(0.58808108,0,0,0.58808108,-48.865206,-17.029025)">
      <path
         style="fill:#aa4400;fill-opacity:0.5;stroke:none;stroke-width:0.264583px;stroke-linecap:butt;stroke-linejoin:miter;stroke-opacity:1"
         d="m 102.58788,40.813132 -0.27358,-6.819217 0.52389,-4.580324 0.9312,-0.186028 0.2274,7.058376 -0.44403,4.447977 z"
         id="path13" />
      <path
         style="fill:#aa4400;stroke-width:0.32002"
         d="m 102.06431,35.721723 c 0.0787,-5.631789 0.31866,-6.764789 1.4324,-6.764789 0.54792,0 0.62982,0.245082 0.66845,2.000138 0.0979,4.446961 0.0552,6.5681 -0.16752,8.320556 -0.22132,1.741565 -0.28139,1.840114 -1.12132,1.840114 h -0.88747 z m 1.31024,3.235875 c 0.43995,-2.741207 0.32754,-6.725356 -0.20475,-7.257451 -0.42668,-0.426527 -0.48002,0.03445 -0.48002,4.14888 0,4.716258 0.24687,5.837021 0.68477,3.108571 z m 0.11527,-8.739468 c 0,-0.362406 -0.13773,-0.573812 -0.30605,-0.469776 -0.16833,0.104018 -0.22492,0.400548 -0.12577,0.658926 0.25385,0.661517 0.43182,0.583561 0.43182,-0.18915 z"
         id="path14"
         sodipodi:nodetypes="ssssscsssssssss" />
    </g>
    <g
       id="g17"
       transform="matrix(0.58795122,0,0,0.58795121,-33.967009,-16.891469)">
      <path
         style="fill:#800066;fill-opacity:0.5;stroke:none;stroke-width:0.264583px;stroke-linecap:butt;stroke-linejoin:miter;stroke-opacity:1"
         d="m 80.075441,40.521913 3.091323,-0.10029 -1.529226,-2.145506 z"
         id="path15" />
      <path
         style="fill:#800066;fill-opacity:0.5;stroke:none;stroke-width:0.264583px;stroke-linecap:butt;stroke-linejoin:miter;stroke-opacity:1"
         d="m 81.492851,31.923183 1.334011,-0.949182 -0.552485,-0.935736 0.26279,-1.051952 -1.651495,0.347877 -0.944033,1.121222 z"
         id="path16" />
      <path
         style="fill:#800066;stroke-width:0.32002"
         d="m 79.737063,40.641482 c 0.006,-0.132003 0.211171,-0.600032 0.4554,-1.040059 0.385817,-0.695128 0.37782,-0.873508 -0.06096,-1.360089 -0.281529,-0.312221 -0.349796,-0.560042 -0.154263,-0.560042 0.192896,0 0.439736,0.144017 0.548509,0.32002 0.556094,0.899784 0.800056,0.02488 0.800056,-2.868929 0,-2.824167 -0.07076,-3.226804 -0.618371,-3.519898 -0.340097,-0.182011 -0.71701,-0.641749 -0.837588,-1.021638 -0.401782,-1.265894 2.025926,-2.411308 3.343091,-1.577289 0.36304,0.229865 0.324274,0.359713 -0.206358,0.691098 -0.650993,0.406546 -0.651053,0.409944 -0.01802,0.92255 0.626766,0.507518 0.624141,0.520489 -0.19367,0.958167 -0.805727,0.431215 -0.829035,0.532151 -0.829035,3.589822 0,2.854677 0.245788,3.722921 0.800056,2.826117 0.108736,-0.176003 0.355612,-0.32002 0.548508,-0.32002 0.195532,0 0.127268,0.247821 -0.154262,0.560042 -0.438757,0.486581 -0.446752,0.664961 -0.06095,1.360089 0.244228,0.440027 0.449158,0.908056 0.455399,1.040059 0.006,0.132012 -0.852718,0.240022 -1.908794,0.240022 -1.056064,0 -1.915024,-0.10801 -1.908783,-0.240022 z m 2.548829,-0.880054 c -0.219118,-0.264014 -0.535046,-0.480035 -0.702082,-0.480035 -0.167036,0 -0.519711,0.216021 -0.783728,0.480035 -0.426698,0.426703 -0.348684,0.480036 0.702084,0.480036 1.014492,0 1.125624,-0.06815 0.783726,-0.480036 z m -0.125935,-9.439897 c -0.03725,-1.049966 -0.393871,-1.193259 -1.307271,-0.525354 -0.518902,0.379415 -0.537056,0.501325 -0.141177,0.947879 0.771704,0.87049 1.486971,0.661841 1.448448,-0.422525 z"
         id="path17"
         sodipodi:nodetypes="ssssssssssssssssscssssssssssss" />
    </g>
    <g
       id="g20"
       transform="matrix(0.58795122,0,0,0.58795121,-31.321174,-16.891469)">
      <path
         style="fill:#800066;fill-opacity:0.5;stroke:none;stroke-width:0.264583px;stroke-linecap:butt;stroke-linejoin:miter;stroke-opacity:1"
         d="m 80.075441,40.521913 3.091323,-0.10029 -1.529226,-2.145506 z"
         id="path18" />
      <path
         style="fill:#800066;fill-opacity:0.5;stroke:none;stroke-width:0.264583px;stroke-linecap:butt;stroke-linejoin:miter;stroke-opacity:1"
         d="m 81.492851,31.923183 1.334011,-0.949182 -0.552485,-0.935736 0.26279,-1.051952 -1.651495,0.347877 -0.944033,1.121222 z"
         id="path19" />
      <path
         style="fill:#800066;stroke-width:0.32002"
         d="m 79.737063,40.641482 c 0.006,-0.132003 0.211171,-0.600032 0.4554,-1.040059 0.385817,-0.695128 0.37782,-0.873508 -0.06096,-1.360089 -0.281529,-0.312221 -0.349796,-0.560042 -0.154263,-0.560042 0.192896,0 0.439736,0.144017 0.548509,0.32002 0.556094,0.899784 0.800056,0.02488 0.800056,-2.868929 0,-2.824167 -0.07076,-3.226804 -0.618371,-3.519898 -0.340097,-0.182011 -0.71701,-0.641749 -0.837588,-1.021638 -0.401782,-1.265894 2.025926,-2.411308 3.343091,-1.577289 0.36304,0.229865 0.324274,0.359713 -0.206358,0.691098 -0.650993,0.406546 -0.651053,0.409944 -0.01802,0.92255 0.626766,0.507518 0.624141,0.520489 -0.19367,0.958167 -0.805727,0.431215 -0.829035,0.532151 -0.829035,3.589822 0,2.854677 0.245788,3.722921 0.800056,2.826117 0.108736,-0.176003 0.355612,-0.32002 0.548508,-0.32002 0.195532,0 0.127268,0.247821 -0.154262,0.560042 -0.438757,0.486581 -0.446752,0.664961 -0.06095,1.360089 0.244228,0.440027 0.449158,0.908056 0.455399,1.040059 0.006,0.132012 -0.852718,0.240022 -1.908794,0.240022 -1.056064,0 -1.915024,-0.10801 -1.908783,-0.240022 z m 2.548829,-0.880054 c -0.219118,-0.264014 -0.535046,-0.480035 -0.702082,-0.480035 -0.167036,0 -0.519711,0.216021 -0.783728,0.480035 -0.426698,0.426703 -0.348684,0.480036 0.702084,0.480036 1.014492,0 1.125624,-0.06815 0.783726,-0.480036 z m -0.125935,-9.439897 c -0.03725,-1.049966 -0.393871,-1.193259 -1.307271,-0.525354 -0.518902,0.379415 -0.537056,0.501325 -0.141177,0.947879 0.771704,0.87049 1.486971,0.661841 1.448448,-0.422525 z"
         id="path20"
         sodipodi:nodetypes="ssssssssssssssssscssssssssssss" />
    </g>
    <g
       id="g23"
       transform="matrix(0.58795122,0,0,0.58795121,-28.675339,-16.891469)">
      <path
         style="fill:#800066;fill-opacity:0.5;stroke:none;stroke-width:0.264583px;stroke-linecap:butt;stroke-linejoin:miter;stroke-opacity:1"
         d="m 80.075441,40.521913 3.091323,-0.10029 -1.529226,-2.145506 z"
         id="path21" />
      <path
         style="fill:#800066;fill-opacity:0.5;stroke:none;stroke-width:0.264583px;stroke-linecap:butt;stroke-linejoin:miter;stroke-opacity:1"
         d="m 81.492851,31.923183 1.334011,-0.949182 -0.552485,-0.935736 0.26279,-1.051952 -1.651495,0.347877 -0.944033,1.121222 z"
         id="path22" />
      <path
         style="fill:#800066;stroke-width:0.32002"
         d="m 79.737063,40.641482 c 0.006,-0.132003 0.211171,-0.600032 0.4554,-1.040059 0.385817,-0.695128 0.37782,-0.873508 -0.06096,-1.360089 -0.281529,-0.312221 -0.349796,-0.560042 -0.154263,-0.560042 0.192896,0 0.439736,0.144017 0.548509,0.32002 0.556094,0.899784 0.800056,0.02488 0.800056,-2.868929 0,-2.824167 -0.07076,-3.226804 -0.618371,-3.519898 -0.340097,-0.182011 -0.71701,-0.641749 -0.837588,-1.021638 -0.401782,-1.265894 2.025926,-2.411308 3.343091,-1.577289 0.36304,0.229865 0.324274,0.359713 -0.206358,0.691098 -0.650993,0.406546 -0.651053,0.409944 -0.01802,0.92255 0.626766,0.507518 0.624141,0.520489 -0.19367,0.958167 -0.805727,0.431215 -0.829035,0.532151 -0.829035,3.589822 0,2.854677 0.245788,3.722921 0.800056,2.826117 0.108736,-0.176003 0.355612,-0.32002 0.548508,-0.32002 0.195532,0 0.127268,0.247821 -0.154262,0.560042 -0.438757,0.486581 -0.446752,0.664961 -0.06095,1.360089 0.244228,0.440027 0.449158,0.908056 0.455399,1.040059 0.006,0.132012 -0.852718,0.240022 -1.908794,0.240022 -1.056064,0 -1.915024,-0.10801 -1.908783,-0.240022 z m 2.548829,-0.880054 c -0.219118,-0.264014 -0.535046,-0.480035 -0.702082,-0.480035 -0.167036,0 -0.519711,0.216021 -0.783728,0.480035 -0.426698,0.426703 -0.348684,0.480036 0.702084,0.480036 1.014492,0 1.125624,-0.06815 0.783726,-0.480036 z m -0.125935,-9.439897 c -0.03725,-1.049966 -0.393871,-1.193259 -1.307271,-0.525354 -0.518902,0.379415 -0.537056,0.501325 -0.141177,0.947879 0.771704,0.87049 1.486971,0.661841 1.448448,-0.422525 z"
         id="path23"
         sodipodi:nodetypes="ssssssssssssssssscssssssssssss" />
    </g>
    <path
       style="fill:#006680;stroke-width:0.25812"
       d="m 24.973676,5.8490111 c 0,-1.4142082 0.523008,-2.1049671 1.593622,-2.1049671 0.974912,0 1.503919,0.7561797 1.503919,2.1498176 0,1.5647002 -0.464106,1.5697103 -0.566707,0.006 -0.148202,-2.260719 -1.815924,-2.260719 -1.964126,0 -0.104201,1.5884205 -0.566708,1.54682 -0.566708,-0.050901 z"
       id="path24"
       sodipodi:nodetypes="csssscc" />
    <path
       style="fill:#006680;stroke-width:0.25812"
       d="m 28.677845,5.8490111 c 0,-1.4142082 0.523008,-2.1049671 1.593622,-2.1049671 0.974912,0 1.503919,0.7561797 1.503919,2.1498176 0,1.5647002 -0.464106,1.5697103 -0.566707,0.006 -0.148202,-2.260719 -1.815924,-2.260719 -1.964126,0 -0.104201,1.5884205 -0.566708,1.54682 -0.566708,-0.050901 z"
       id="path25"
       sodipodi:nodetypes="csssscc" />
    <path
       style="fill:#006680;stroke-width:0.25812"
       d="m 32.382014,5.8490111 c 0,-1.4142082 0.523008,-2.1049671 1.593622,-2.1049671 0.974912,0 1.503919,0.7561797 1.503919,2.1498176 0,1.5647002 -0.464106,1.5697103 -0.566707,0.006 -0.148202,-2.260719 -1.815924,-2.260719 -1.964126,0 -0.104201,1.5884205 -0.566708,1.54682 -0.566708,-0.050901 z"
       id="path26"
       sodipodi:nodetypes="csssscc" />
    <path
       style="fill:#217821;stroke-width:0.258103"
       d="m 36.175416,5.0105037 c 0,-1.2044842 0.107594,-2.064827 0.258086,-2.064827 0.150592,0 0.258086,0.8603428 0.258086,2.064827 0,1.2044842 -0.107494,2.0648272 -0.258086,2.0648272 -0.150492,0 -0.258086,-0.860343 -0.258086,-2.0648272 z"
       id="path27"
       sodipodi:nodetypes="sssss" />
    <path
       style="fill:#217821;stroke-width:0.258103"
       d="m 37.23375,5.0105037 c 0,-1.2044842 0.107594,-2.064827 0.258086,-2.064827 0.150592,0 0.258086,0.8603428 0.258086,2.064827 0,1.2044842 -0.107494,2.0648272 -0.258086,2.0648272 -0.150492,0 -0.258086,-0.860343 -0.258086,-2.0648272 z"
       id="path28"
       sodipodi:nodetypes="sssss" />
    <path
       style="fill:#217821;stroke-width:0.258103"
       d="m 38.292084,5.0105037 c 0,-1.2044842 0.107594,-2.064827 0.258086,-2.064827 0.150592,0 0.258086,0.8603428 0.258086,2.064827 0,1.2044842 -0.107494,2.0648272 -0.258086,2.0648272 -0.150492,0 -0.258086,-0.860343 -0.258086,-2.0648272 z"
       id="path29"
       sodipodi:nodetypes="sssss" />
    <path
       style="fill:#217821;stroke-width:0.258103"
       d="m 39.350418,5.0105037 c 0,-1.2044842 0.107594,-2.064827 0.258086,-2.064827 0.150592,0 0.258086,0.8603428 0.258086,2.064827 0,1.2044842 -0.107494,2.0648272 -0.258086,2.0648272 -0.150492,0 -0.258086,-0.860343 -0.258086,-2.0648272 z"
       id="path30"
       sodipodi:nodetypes="sssss" />
    <path
       style="fill:#217821;stroke-width:0.258103"
       d="m 40.408752,5.0105037 c 0,-1.2044842 0.107594,-2.064827 0.258086,-2.064827 0.150592,0 0.258086,0.8603428 0.258086,2.064827 0,1.2044842 -0.107494,2.0648272 -0.258086,2.0648272 -0.150492,0 -0.258086,-0.860343 -0.258086,-2.0648272 z"
       id="path31"
       sodipodi:nodetypes="sssss" />
    <path
       style="fill:#217821;stroke-width:0.258103"
       d="m 41.467086,5.0105037 c 0,-1.2044842 0.107594,-2.064827 0.258086,-2.064827 0.150592,0 0.258086,0.8603428 0.258086,2.064827 0,1.2044842 -0.107494,2.0648272 -0.258086,2.0648272 -0.150492,0 -0.258086,-0.860343 -0.258086,-2.0648272 z"
       id="path32"
       sodipodi:nodetypes="sssss" />
    <path
       style="fill:#217821;stroke-width:0.258103"
       d="m 42.52542,5.0105037 c 0,-1.2044842 0.107594,-2.064827 0.258086,-2.064827 0.150592,0 0.258086,0.8603428 0.258086,2.064827 0,1.2044842 -0.107494,2.0648272 -0.258086,2.0648272 -0.150492,0 -0.258086,-0.860343 -0.258086,-2.0648272 z"
       id="path33"
       sodipodi:nodetypes="sssss" />
  </g>
</svg>
