<?xml version="1.0" encoding="UTF-8" standalone="no"?>
<!-- Created with Inkscape (http://www.inkscape.org/) -->

<svg
   width="9.5109997mm"
   height="5mm"
   viewBox="0 0 9.5109993 4.9999999"
   version="1.1"
   id="svg1"
   inkscape:version="1.4.2 (ebf0e940d0, 2025-05-08)"
   sodipodi:docname="5_1_1_80.svg"
   xmlns:inkscape="http://www.inkscape.org/namespaces/inkscape"
   xmlns:sodipodi="http://sodipodi.sourceforge.net/DTD/sodipodi-0.dtd"
   xmlns="http://www.w3.org/2000/svg"
   xmlns:svg="http://www.w3.org/2000/svg">
  <sodipodi:namedview
     id="namedview1"
     pagecolor="#ffffff"
     bordercolor="#000000"
     borderopacity="0.25"
     inkscape:showpageshadow="2"
     inkscape:pageopacity="0.0"
     inkscape:pagecheckerboard="0"
     inkscape:deskcolor="#d1d1d1"
     inkscape:document-units="mm"
     inkscape:zoom="2.6972018"
     inkscape:cx="64.511302"
     inkscape:cy="88.981106"
     inkscape:window-width="1075"
     inkscape:window-height="991"
     inkscape:window-x="26"
     inkscape:window-y="23"
     inkscape:window-maximized="0"
     inkscape:current-layer="layer1" />
  <defs
     id="defs1">
    <rect
       x="-26.458582"
       y="130.73653"
       width="155.86105"
       height="46.469273"
       id="rect2" />
    <rect
       x="13.485725"
       y="-52.819092"
       width="225.2477"
       height="118.63495"
       id="rect1" />
    <rect
       x="37.795277"
       y="37.795277"
       width="483.77954"
       height="718.11023"
       id="rect2721" />
    <rect
       x="37.795277"
       y="37.795277"
       width="483.77954"
       height="718.11023"
       id="rect2722" />
    <rect
       x="37.795277"
       y="37.795277"
       width="483.77954"
       height="718.11023"
       id="rect2723" />
    <rect
       x="37.795277"
       y="37.795277"
       width="483.77954"
       height="718.11023"
       id="rect2724" />
    <rect
       x="37.795277"
       y="37.795277"
       width="483.77954"
       height="718.11023"
       id="rect2725" />
    <rect
       x="37.795277"
       y="37.795277"
       width="483.77954"
       height="718.11023"
       id="rect2726" />
    <rect
       x="37.795277"
       y="37.795277"
       width="483.77954"
       height="718.11023"
       id="rect2727" />
    <rect
       x="37.795277"
       y="37.795277"
       width="483.77954"
       height="718.11023"
       id="rect2728" />
    <rect
       x="37.795277"
       y="37.795277"
       width="483.77954"
       height="718.11023"
       id="rect2729" />
    <rect
       x="37.795277"
       y="37.795277"
       width="483.77954"
       height="718.11023"
       id="rect2730" />
    <rect
       x="37.795277"
       y="37.795277"
       width="483.77954"
       height="718.11023"
       id="rect2731" />
    <rect
       x="37.795277"
       y="37.795277"
       width="483.77954"
       height="718.11023"
       id="rect2732" />
    <rect
       x="37.795277"
       y="37.795277"
       width="483.77954"
       height="718.11023"
       id="rect2733" />
    <rect
       x="37.795277"
       y="37.795277"
       width="483.77954"
       height="718.11023"
       id="rect2734" />
    <rect
       x="37.795277"
       y="37.795277"
       width="483.77954"
       height="718.11023"
       id="rect6439" />
    <rect
       x="37.795277"
       y="37.795277"
       width="483.77954"
       height="718.11023"
       id="rect6440" />
    <rect
       x="37.795277"
       y="37.795277"
       width="483.77954"
       height="718.11023"
       id="rect6441" />
    <rect
       x="37.795277"
       y="37.795277"
       width="483.77954"
       height="718.11023"
       id="rect6442" />
    <rect
       x="37.795277"
       y="37.795277"
       width="483.77954"
       height="718.11023"
       id="rect2743" />
    <rect
       x="37.795277"
       y="37.795277"
       width="483.77954"
       height="718.11023"
       id="rect2744" />
    <rect
       x="37.795277"
       y="37.795277"
       width="483.77954"
       height="718.11023"
       id="rect2745" />
    <rect
       x="37.795277"
       y="37.795277"
       width="483.77954"
       height="718.11023"
       id="rect6403" />
    <rect
       x="37.795277"
       y="37.795277"
       width="483.77954"
       height="718.11023"
       id="rect6443" />
    <rect
       x="37.795277"
       y="37.795277"
       width="483.77954"
       height="718.11023"
       id="rect6444" />
    <rect
       x="37.795277"
       y="37.795277"
       width="483.77954"
       height="718.11023"
       id="rect6445" />
    <rect
       x="37.795277"
       y="37.795277"
       width="483.77954"
       height="718.11023"
       id="rect6446" />
    <rect
       x="37.795277"
       y="37.795277"
       width="483.77954"
       height="718.11023"
       id="rect6469" />
    <rect
       x="37.795277"
       y="37.795277"
       width="483.77954"
       height="718.11023"
       id="rect6470" />
    <rect
       x="37.795277"
       y="37.795277"
       width="483.77954"
       height="718.11023"
       id="rect6471" />
    <rect
       x="37.795277"
       y="37.795277"
       width="483.77954"
       height="718.11023"
       id="rect6472" />
    <rect
       x="-26.458582"
       y="130.73653"
       width="155.86105"
       height="46.469273"
       id="rect30" />
    <rect
       x="-26.458582"
       y="130.73653"
       width="155.86105"
       height="46.469273"
       id="rect31" />
    <rect
       x="-26.458582"
       y="130.73653"
       width="155.86105"
       height="46.469273"
       id="rect32" />
    <rect
       x="-26.458582"
       y="130.73653"
       width="155.86105"
       height="46.469273"
       id="rect33" />
    <rect
       x="-26.458582"
       y="130.73653"
       width="155.86105"
       height="46.469273"
       id="rect34" />
    <rect
       x="-26.458582"
       y="130.73653"
       width="155.86105"
       height="46.469273"
       id="rect35" />
    <rect
       x="-26.458582"
       y="130.73653"
       width="155.86105"
       height="46.469273"
       id="rect38" />
    <rect
       x="-26.458582"
       y="130.73653"
       width="155.86105"
       height="46.469273"
       id="rect39" />
    <rect
       x="-26.458582"
       y="130.73653"
       width="155.86105"
       height="46.469273"
       id="rect40" />
    <rect
       x="-26.458582"
       y="130.73653"
       width="155.86105"
       height="46.469273"
       id="rect42" />
    <rect
       x="-26.458582"
       y="130.73653"
       width="155.86105"
       height="46.469273"
       id="rect43" />
    <rect
       x="-26.458582"
       y="130.73653"
       width="155.86105"
       height="46.469273"
       id="rect44" />
    <rect
       x="-26.458582"
       y="130.73653"
       width="155.86105"
       height="46.469273"
       id="rect46" />
    <rect
       x="-26.458582"
       y="130.73653"
       width="155.86105"
       height="46.469273"
       id="rect47" />
    <rect
       x="-26.458582"
       y="130.73653"
       width="155.86105"
       height="46.469273"
       id="rect48" />
  </defs>
  <g
     inkscape:label="Katman 1"
     inkscape:groupmode="layer"
     id="layer1">
    <g
       id="g2785"
       transform="matrix(0.55552828,0,0,0.55552828,-883.04303,-107.44152)">
      <path
         style="fill:#000000;stroke-width:0.0811534"
         d="m 1600.8205,197.47377 v -0.73085 h 0.2043 0.2043 l -0.01,0.72467 -0.01,0.72468 -0.1986,0.006 -0.1986,0.006 z m -7.3219,-0.0115 v -0.71931 h 0.5154 0.5153 v 0.14973 0.14973 l -0.3167,0.006 -0.3167,0.006 -0.01,0.12346 -0.01,0.12346 h 0.2051 0.205 v 0.1495 0.1495 l -0.1986,0.006 -0.1986,0.006 -0.01,0.13365 -0.01,0.13365 0.3392,0.006 0.3392,0.006 0.01,0.14494 0.01,0.14493 h -0.5377 -0.5378 z m 1.2669,0 v -0.71931 h 0.4148 c 0.484,0 0.5957,0.0221 0.6974,0.13796 0.035,0.0402 0.076,0.10871 0.09,0.15227 0.052,0.15618 -0.027,0.36172 -0.1714,0.44684 -0.036,0.0211 -0.065,0.045 -0.065,0.0532 0,0.008 0.053,0.14993 0.1181,0.31497 0.065,0.16504 0.118,0.30756 0.118,0.31671 0,0.009 -0.096,0.0166 -0.2125,0.0166 h -0.2125 l -0.085,-0.24156 c -0.047,-0.13285 -0.092,-0.26329 -0.1003,-0.28987 -0.013,-0.0406 -0.03,-0.0483 -0.1102,-0.0483 h -0.095 v 0.28987 0.28987 h -0.1933 -0.1932 z m 0.7183,-0.16066 c 0.061,-0.0234 0.1056,-0.11312 0.086,-0.17487 -0.027,-0.0862 -0.071,-0.10465 -0.2476,-0.10465 h -0.1702 v 0.15031 0.1503 h 0.1381 c 0.076,0 0.1632,-0.009 0.1937,-0.0211 z m 0.7203,0.16236 v -0.72101 h 0.3427 c 0.4068,0 0.5246,0.0318 0.6899,0.18643 0.1346,0.12589 0.1958,0.2705 0.2081,0.49189 0.017,0.31211 -0.1,0.54831 -0.3389,0.68302 l -0.1181,0.0665 -0.3919,0.007 -0.3918,0.007 z m 0.6529,0.38429 c 0.1208,-0.0573 0.1729,-0.17341 0.1734,-0.38599 8e-4,-0.27033 -0.097,-0.40194 -0.32,-0.43253 l -0.098,-0.0135 v 0.44591 0.44592 l 0.083,-0.0111 c 0.046,-0.006 0.1185,-0.028 0.1621,-0.0487 z m 0.8122,-0.38063 0.01,-0.71393 0.5207,-0.006 0.5207,-0.006 v 0.15068 0.15068 h -0.3221 -0.322 v 0.12884 0.12883 h 0.2039 0.204 v 0.1503 0.1503 h -0.204 -0.2039 v 0.13957 0.13957 h 0.3328 0.3328 v 0.1503 0.1503 h -0.5371 -0.5371 z m 1.2669,0 0.01,-0.71393 0.2834,-0.006 0.2833,-0.006 0.067,0.2207 c 0.1003,0.3312 0.1331,0.43326 0.1465,0.45637 0.01,0.0115 0.063,-0.13342 0.1248,-0.32208 l 0.1127,-0.34302 0.2803,-0.006 0.2802,-0.006 v 0.71993 0.71993 h -0.1932 -0.1932 v -0.50995 -0.50996 l -0.083,0.25766 c -0.045,0.14172 -0.1179,0.3712 -0.1613,0.50996 l -0.079,0.25229 h -0.1221 -0.1221 l -0.1497,-0.49448 -0.1497,-0.49449 -0.01,0.49449 -0.01,0.49448 h -0.1609 -0.161 z m 2.5715,-0.007 v -0.72112 l 0.467,0.007 c 0.4347,0.007 0.4733,0.0107 0.5574,0.0555 0.2288,0.12179 0.2711,0.46982 0.077,0.62889 -0.035,0.029 -0.08,0.0623 -0.098,0.0742 -0.029,0.0187 -0.017,0.0628 0.094,0.34355 0.1076,0.32821 0.2607,0.33722 -0.093,0.32819 l -0.2201,-0.006 -0.096,-0.28451 -0.096,-0.2845 h -0.091 -0.091 v 0.28987 0.28987 h -0.204 -0.204 z m 0.7594,-0.18225 c 0.066,-0.0522 0.076,-0.15562 0.021,-0.21684 -0.029,-0.0317 -0.068,-0.0393 -0.204,-0.0393 h -0.1684 v 0.15031 0.1503 h 0.1474 c 0.1166,0 0.1592,-0.009 0.204,-0.0445 z m -1.425,-0.82511 h 0.3435 v 0.13957 h -0.1717 -0.1718 z"
         id="path2784"
         sodipodi:nodetypes="ccccccccccccccccccccccccccccccccccccsssssssscsssccccccssscccssccssssccccscscccsscccccccccccccccccccccccccccccssscccccccccssccccccccccccssssssccccccccccssscccsscccccc" />
      <path
         style="fill:#ee162a;fill-opacity:1;stroke-width:0.0811534"
         d="m 1596.1397,202.40025 c -0.018,-0.004 -0.153,-0.0233 -0.3006,-0.0429 -1.1086,-0.14695 -2.3572,-0.53002 -3.2638,-1.00127 -0.3172,-0.1649 -0.3984,-0.21972 -0.2147,-0.14497 0.6956,0.28307 1.8643,0.58045 2.8128,0.71578 0.7502,0.10703 1.0739,0.1288 1.9218,0.12929 0.8024,4.9e-4 1.0104,-0.0115 1.6855,-0.0971 3.4107,-0.43243 5.4843,-1.67889 5.8734,-3.5306 0.052,-0.24629 0.053,-0.66223 0,-0.88035 -0.3202,-1.3826 -2.044,-2.58395 -4.3404,-3.02502 -0.7599,-0.14595 -1.3299,-0.19532 -2.2331,-0.19343 -0.7107,0.001 -1.0965,0.0266 -1.6426,0.10686 -1.656,0.24342 -3.0595,0.83841 -3.9469,1.67319 -0.8886,0.83592 -1.1618,1.8172 -0.7469,2.68248 0.487,1.01573 1.6902,1.6907 3.3733,1.8924 0.5614,0.0673 2.0409,0.0201 3.1241,-0.0997 0.7851,-0.0868 1.6641,-0.23144 2.3423,-0.3854 0.1562,-0.0355 0.2877,-0.0607 0.2922,-0.0562 0.027,0.0266 -1.0143,0.41642 -1.5043,0.5633 -2.8529,0.85519 -6.019,0.74779 -8.0226,-0.27216 -1.2549,-0.6388 -1.8859,-1.57846 -1.7828,-2.65517 0.099,-1.03055 0.7949,-1.96388 2.0591,-2.75996 0.3361,-0.21162 1.0636,-0.56963 1.5058,-0.74104 2.0844,-0.80784 4.7299,-1.07351 7.1931,-0.72236 2.0737,0.29562 3.8636,1.02229 5.0603,2.05442 1.0107,0.87164 1.467,1.95823 1.2313,2.9319 -0.2849,1.17698 -1.5248,2.28178 -3.3635,2.99707 -0.9636,0.37486 -1.9533,0.61791 -3.2662,0.80211 l -0.4027,0.0565 -1.707,0.005 c -0.9389,0.003 -1.7215,0.002 -1.7392,-0.002 z m 1.6699,-2.05746 c -0.3865,-0.1317 -0.6454,-0.46195 -0.6761,-0.86221 -0.032,-0.41453 0.1882,-0.79117 0.5676,-0.97235 0.164,-0.0783 0.1717,-0.0798 0.4247,-0.0798 0.2452,0 0.2647,0.003 0.403,0.0686 0.4038,0.19066 0.6452,0.63668 0.5737,1.06018 -0.065,0.38499 -0.3536,0.70766 -0.7182,0.80258 -0.1858,0.0484 -0.4015,0.042 -0.5747,-0.017 z m 0.022,-3.85605 c -0.6041,-0.19314 -0.8816,-0.87188 -0.5818,-1.42272 0.1229,-0.22596 0.313,-0.38342 0.5658,-0.46878 0.115,-0.0388 0.1751,-0.0454 0.3551,-0.0388 0.1982,0.007 0.2302,0.0146 0.3758,0.0867 0.398,0.19721 0.6271,0.62786 0.5565,1.04633 -0.067,0.3949 -0.375,0.7285 -0.7541,0.81592 -0.1451,0.0334 -0.3809,0.0249 -0.5173,-0.0187 z"
         id="path2785"
         sodipodi:nodetypes="sssssssscssssssssssssssssssscsssssssssssssssssss" />
    </g>
  </g>
</svg>
