<?xml version="1.0" encoding="UTF-8" standalone="no"?>
<!-- Created with Inkscape (http://www.inkscape.org/) -->

<svg
   width="60.271999mm"
   height="38.169998mm"
   viewBox="0 0 60.272 38.169998"
   version="1.1"
   id="svg1"
   inkscape:version="1.4.2 (ebf0e940d0, 2025-05-08)"
   sodipodi:docname="5_1_1_51.svg"
   xmlns:inkscape="http://www.inkscape.org/namespaces/inkscape"
   xmlns:sodipodi="http://sodipodi.sourceforge.net/DTD/sodipodi-0.dtd"
   xmlns="http://www.w3.org/2000/svg"
   xmlns:svg="http://www.w3.org/2000/svg">
  <sodipodi:namedview
     id="namedview1"
     pagecolor="#ffffff"
     bordercolor="#000000"
     borderopacity="0.25"
     inkscape:showpageshadow="2"
     inkscape:pageopacity="0.0"
     inkscape:pagecheckerboard="0"
     inkscape:deskcolor="#d1d1d1"
     inkscape:document-units="mm"
     inkscape:zoom="2.6972018"
     inkscape:cx="169.62023"
     inkscape:cy="88.981106"
     inkscape:window-width="1920"
     inkscape:window-height="1011"
     inkscape:window-x="0"
     inkscape:window-y="0"
     inkscape:window-maximized="1"
     inkscape:current-layer="layer1" />
  <defs
     id="defs1">
    <rect
       x="-26.458581"
       y="130.73652"
       width="155.86105"
       height="46.469273"
       id="rect2" />
    <rect
       x="13.485725"
       y="-52.819092"
       width="225.2477"
       height="118.63495"
       id="rect1" />
    <rect
       x="37.795277"
       y="37.795277"
       width="483.77954"
       height="718.11023"
       id="rect2721" />
    <rect
       x="37.795277"
       y="37.795277"
       width="483.77954"
       height="718.11023"
       id="rect2722" />
    <rect
       x="37.795277"
       y="37.795277"
       width="483.77954"
       height="718.11023"
       id="rect2723" />
    <rect
       x="37.795277"
       y="37.795277"
       width="483.77954"
       height="718.11023"
       id="rect2724" />
    <rect
       x="37.795277"
       y="37.795277"
       width="483.77954"
       height="718.11023"
       id="rect2725" />
    <rect
       x="37.795277"
       y="37.795277"
       width="483.77954"
       height="718.11023"
       id="rect2726" />
    <rect
       x="37.795277"
       y="37.795277"
       width="483.77954"
       height="718.11023"
       id="rect2727" />
    <rect
       x="37.795277"
       y="37.795277"
       width="483.77954"
       height="718.11023"
       id="rect2728" />
    <rect
       x="37.795277"
       y="37.795277"
       width="483.77954"
       height="718.11023"
       id="rect2729" />
    <rect
       x="37.795277"
       y="37.795277"
       width="483.77954"
       height="718.11023"
       id="rect2730" />
    <rect
       x="37.795277"
       y="37.795277"
       width="483.77954"
       height="718.11023"
       id="rect2731" />
    <rect
       x="37.795277"
       y="37.795277"
       width="483.77954"
       height="718.11023"
       id="rect2732" />
    <rect
       x="37.795277"
       y="37.795277"
       width="483.77954"
       height="718.11023"
       id="rect2733" />
    <rect
       x="37.795277"
       y="37.795277"
       width="483.77954"
       height="718.11023"
       id="rect2734" />
    <rect
       x="37.795277"
       y="37.795277"
       width="483.77954"
       height="718.11023"
       id="rect6439" />
    <rect
       x="37.795277"
       y="37.795277"
       width="483.77954"
       height="718.11023"
       id="rect6440" />
    <rect
       x="37.795277"
       y="37.795277"
       width="483.77954"
       height="718.11023"
       id="rect6441" />
    <rect
       x="37.795277"
       y="37.795277"
       width="483.77954"
       height="718.11023"
       id="rect6442" />
    <rect
       x="37.795277"
       y="37.795277"
       width="483.77954"
       height="718.11023"
       id="rect2743" />
    <rect
       x="37.795277"
       y="37.795277"
       width="483.77954"
       height="718.11023"
       id="rect2744" />
    <rect
       x="37.795277"
       y="37.795277"
       width="483.77954"
       height="718.11023"
       id="rect2745" />
    <rect
       x="37.795277"
       y="37.795277"
       width="483.77954"
       height="718.11023"
       id="rect6403" />
    <rect
       x="37.795277"
       y="37.795277"
       width="483.77954"
       height="718.11023"
       id="rect6443" />
    <rect
       x="37.795277"
       y="37.795277"
       width="483.77954"
       height="718.11023"
       id="rect6444" />
    <rect
       x="37.795277"
       y="37.795277"
       width="483.77954"
       height="718.11023"
       id="rect6445" />
    <rect
       x="37.795277"
       y="37.795277"
       width="483.77954"
       height="718.11023"
       id="rect6446" />
    <rect
       x="37.795277"
       y="37.795277"
       width="483.77954"
       height="718.11023"
       id="rect6469" />
    <rect
       x="37.795277"
       y="37.795277"
       width="483.77954"
       height="718.11023"
       id="rect6470" />
    <rect
       x="37.795277"
       y="37.795277"
       width="483.77954"
       height="718.11023"
       id="rect6471" />
    <rect
       x="37.795277"
       y="37.795277"
       width="483.77954"
       height="718.11023"
       id="rect6472" />
    <rect
       x="-26.458581"
       y="130.73652"
       width="155.86105"
       height="46.469273"
       id="rect30" />
    <rect
       x="-26.458581"
       y="130.73652"
       width="155.86105"
       height="46.469273"
       id="rect31" />
    <rect
       x="-26.458581"
       y="130.73652"
       width="155.86105"
       height="46.469273"
       id="rect32" />
    <rect
       x="-26.458581"
       y="130.73652"
       width="155.86105"
       height="46.469273"
       id="rect33" />
    <rect
       x="-26.458581"
       y="130.73652"
       width="155.86105"
       height="46.469273"
       id="rect34" />
    <rect
       x="-26.458581"
       y="130.73652"
       width="155.86105"
       height="46.469273"
       id="rect35" />
    <rect
       x="-26.458581"
       y="130.73652"
       width="155.86105"
       height="46.469273"
       id="rect38" />
    <rect
       x="-26.458581"
       y="130.73652"
       width="155.86105"
       height="46.469273"
       id="rect39" />
    <rect
       x="-26.458581"
       y="130.73652"
       width="155.86105"
       height="46.469273"
       id="rect40" />
    <rect
       x="-26.458581"
       y="130.73652"
       width="155.86105"
       height="46.469273"
       id="rect42" />
    <rect
       x="-26.458581"
       y="130.73652"
       width="155.86105"
       height="46.469273"
       id="rect43" />
    <rect
       x="-26.458581"
       y="130.73652"
       width="155.86105"
       height="46.469273"
       id="rect44" />
    <rect
       x="-26.458581"
       y="130.73652"
       width="155.86105"
       height="46.469273"
       id="rect46" />
    <rect
       x="-26.458581"
       y="130.73652"
       width="155.86105"
       height="46.469273"
       id="rect47" />
    <rect
       x="-26.458581"
       y="130.73652"
       width="155.86105"
       height="46.469273"
       id="rect48" />
  </defs>
  <g
     inkscape:label="Katman 1"
     inkscape:groupmode="layer"
     id="layer1">
    <g
       id="g48">
      <rect
         style="fill:#eef4d7;stroke:#000000;stroke-width:0.264999;stroke-opacity:1"
         id="rect6417"
         width="15"
         height="5"
         x="0.1324995"
         y="33.037567" />
      <rect
         style="fill:#eef4d7;stroke:#000000;stroke-width:0.264999"
         id="rect6418"
         width="5"
         height="5"
         x="10.132499"
         y="28.037569" />
      <rect
         style="fill:#dde9af;stroke:#000000;stroke-width:0.264999"
         id="rect6419"
         width="5"
         height="5"
         x="5.1326222"
         y="28.037569" />
      <rect
         style="fill:#cdde87;stroke:#000000;stroke-width:0.264999"
         id="rect6420"
         width="5"
         height="5"
         x="0.13262157"
         y="28.037569" />
      <path
         style="fill:none;stroke:#000000;stroke-width:0.264999;stroke-opacity:1"
         d="M 2.6317333,28.037567 V 0"
         id="path6427"
         sodipodi:nodetypes="cc" />
      <circle
         style="fill:#cdde87;fill-opacity:1;stroke:#000000;stroke-width:0.264999;stroke-opacity:1"
         id="circle6427"
         cx="2.632622"
         cy="26.537569"
         r="1.5" />
      <path
         style="fill:none;stroke:#000000;stroke-width:0.264999;stroke-opacity:1"
         d="M 7.6317333,28.037567 V 0"
         id="path6431"
         sodipodi:nodetypes="cc" />
      <circle
         style="fill:#dde9af;fill-opacity:1;stroke:#000000;stroke-width:0.264999;stroke-opacity:1"
         id="circle6432"
         cx="7.6326222"
         cy="26.537569"
         r="1.5" />
      <circle
         style="fill:#dde9af;fill-opacity:1;stroke:#000000;stroke-width:0.264999;stroke-opacity:1"
         id="circle6433"
         cx="7.6326222"
         cy="23.537569"
         r="1.5" />
      <circle
         style="fill:#dde9af;fill-opacity:1;stroke:#000000;stroke-width:0.264999;stroke-opacity:1"
         id="circle6434"
         cx="7.6326222"
         cy="20.537569"
         r="1.5" />
      <path
         style="fill:none;stroke:#000000;stroke-width:0.264999;stroke-opacity:1"
         d="M 12.777433,28.037567 V 0"
         id="path6438"
         sodipodi:nodetypes="cc" />
      <circle
         style="fill:#eef4d7;fill-opacity:1;stroke:#000000;stroke-width:0.264999;stroke-opacity:1"
         id="circle6439"
         cx="12.778251"
         cy="26.537569"
         r="1.5" />
      <rect
         style="fill:#ffd5d5;fill-opacity:1;stroke:#000000;stroke-width:0.264999;stroke-opacity:1"
         id="rect2596"
         width="15"
         height="5"
         x="15.132377"
         y="33.037567" />
      <rect
         style="fill:#ffd5d5;fill-opacity:1;stroke:#000000;stroke-width:0.264999"
         id="rect2597"
         width="5"
         height="5"
         x="25.132378"
         y="28.037569" />
      <rect
         style="fill:#ffaaaa;fill-opacity:1;stroke:#000000;stroke-width:0.264999"
         id="rect2598"
         width="5"
         height="5"
         x="20.1325"
         y="28.037569" />
      <rect
         style="fill:#ff8080;fill-opacity:1;stroke:#000000;stroke-width:0.264999"
         id="rect2599"
         width="5"
         height="5"
         x="15.132499"
         y="28.037569" />
      <path
         style="fill:none;stroke:#000000;stroke-width:0.264999;stroke-opacity:1"
         d="M 17.631833,28.037567 V 0"
         id="path2606"
         sodipodi:nodetypes="cc" />
      <circle
         style="fill:#ff8080;fill-opacity:1;stroke:#000000;stroke-width:0.264999;stroke-opacity:1"
         id="circle2606"
         cx="17.6325"
         cy="26.537569"
         r="1.5" />
      <circle
         style="fill:#ff8080;fill-opacity:1;stroke:#000000;stroke-width:0.264999;stroke-opacity:1"
         id="circle2607"
         cx="17.6325"
         cy="23.537569"
         r="1.5" />
      <circle
         style="fill:#ff8080;fill-opacity:1;stroke:#000000;stroke-width:0.264999;stroke-opacity:1"
         id="circle2608"
         cx="17.6325"
         cy="20.537569"
         r="1.5" />
      <path
         style="fill:none;stroke:#000000;stroke-width:0.264999;stroke-opacity:1"
         d="M 22.631833,28.037567 V 0"
         id="path2610"
         sodipodi:nodetypes="cc" />
      <circle
         style="fill:#ffaaaa;fill-opacity:1;stroke:#000000;stroke-width:0.264999;stroke-opacity:1"
         id="circle2611"
         cx="22.6325"
         cy="26.537569"
         r="1.5" />
      <circle
         style="fill:#ffaaaa;fill-opacity:1;stroke:#000000;stroke-width:0.264999;stroke-opacity:1"
         id="circle2612"
         cx="22.6325"
         cy="23.537569"
         r="1.5" />
      <circle
         style="fill:#ffaaaa;fill-opacity:1;stroke:#000000;stroke-width:0.264999;stroke-opacity:1"
         id="circle2613"
         cx="22.6325"
         cy="20.537569"
         r="1.5" />
      <circle
         style="fill:#ffaaaa;fill-opacity:1;stroke:#000000;stroke-width:0.264999;stroke-opacity:1"
         id="circle2614"
         cx="22.6325"
         cy="17.537569"
         r="1.5" />
      <circle
         style="fill:#ffaaaa;fill-opacity:1;stroke:#000000;stroke-width:0.264999;stroke-opacity:1"
         id="circle2615"
         cx="22.6325"
         cy="14.537569"
         r="1.5" />
      <path
         style="fill:none;stroke:#000000;stroke-width:0.264999;stroke-opacity:1"
         d="M 27.777533,28.037567 V 0"
         id="path2618"
         sodipodi:nodetypes="cc" />
      <circle
         style="fill:#ffd5d5;fill-opacity:1;stroke:#000000;stroke-width:0.264999;stroke-opacity:1"
         id="circle2618"
         cx="27.778131"
         cy="26.537569"
         r="1.5" />
      <rect
         style="fill:#fff6d5;fill-opacity:1;stroke:#000000;stroke-width:0.264999;stroke-opacity:1"
         id="rect6405"
         width="15"
         height="5"
         x="30.13238"
         y="33.037567" />
      <rect
         style="fill:#fff6d5;fill-opacity:1;stroke:#000000;stroke-width:0.264999"
         id="rect6407"
         width="5"
         height="5"
         x="40.132378"
         y="28.037569" />
      <rect
         style="fill:#ffeeaa;fill-opacity:1;stroke:#000000;stroke-width:0.264999"
         id="rect6408"
         width="5"
         height="5"
         x="35.1325"
         y="28.037569" />
      <rect
         style="fill:#ffe680;fill-opacity:1;stroke:#000000;stroke-width:0.264999"
         id="rect6411"
         width="5"
         height="5"
         x="30.132502"
         y="28.037569" />
      <path
         style="fill:none;stroke:#000000;stroke-width:0.264999;stroke-opacity:1"
         d="M 32.631833,28.037567 V 0"
         id="path6418"
         sodipodi:nodetypes="cc" />
      <circle
         style="fill:#ffe680;fill-opacity:1;stroke:#000000;stroke-width:0.264999;stroke-opacity:1"
         id="circle6418"
         cx="32.6325"
         cy="26.537569"
         r="1.5" />
      <circle
         style="fill:#ffe680;fill-opacity:1;stroke:#000000;stroke-width:0.264999;stroke-opacity:1"
         id="circle6419"
         cx="32.6325"
         cy="23.537569"
         r="1.5" />
      <circle
         style="fill:#ffe680;fill-opacity:1;stroke:#000000;stroke-width:0.264999;stroke-opacity:1"
         id="circle6420"
         cx="32.6325"
         cy="20.537569"
         r="1.5" />
      <circle
         style="fill:#ffe680;fill-opacity:1;stroke:#000000;stroke-width:0.264999;stroke-opacity:1"
         id="circle6421"
         cx="32.6325"
         cy="17.537569"
         r="1.5" />
      <path
         style="fill:none;stroke:#000000;stroke-width:0.264999;stroke-opacity:1"
         d="M 37.631833,28.037567 V 0"
         id="path6422"
         sodipodi:nodetypes="cc" />
      <circle
         style="fill:#ffeeaa;fill-opacity:1;stroke:#000000;stroke-width:0.264999;stroke-opacity:1"
         id="circle6423"
         cx="37.6325"
         cy="26.537569"
         r="1.5" />
      <circle
         style="fill:#ffeeaa;fill-opacity:1;stroke:#000000;stroke-width:0.264999;stroke-opacity:1"
         id="circle6424"
         cx="37.6325"
         cy="23.537569"
         r="1.5" />
      <path
         style="fill:none;stroke:#000000;stroke-width:0.264999;stroke-opacity:1"
         d="M 42.777533,28.037567 V 0"
         id="path6442"
         sodipodi:nodetypes="cc" />
      <circle
         style="fill:#fff6d5;fill-opacity:1;stroke:#000000;stroke-width:0.264999;stroke-opacity:1"
         id="circle6443"
         cx="42.77813"
         cy="26.537569"
         r="1.5" />
      <rect
         style="fill:#d7eef4;fill-opacity:1;stroke:#000000;stroke-width:0.264999;stroke-opacity:1"
         id="rect6447"
         width="15"
         height="5"
         x="45.139458"
         y="33.037567" />
      <rect
         style="fill:#d7eef4;fill-opacity:1;stroke:#000000;stroke-width:0.264999"
         id="rect6448"
         width="5"
         height="5"
         x="55.139458"
         y="28.037569" />
      <rect
         style="fill:#afdde9;fill-opacity:1;stroke:#000000;stroke-width:0.264999"
         id="rect6449"
         width="5"
         height="5"
         x="50.13958"
         y="28.037569" />
      <rect
         style="fill:#87cdde;fill-opacity:1;stroke:#000000;stroke-width:0.264999"
         id="rect6450"
         width="5"
         height="5"
         x="45.13958"
         y="28.037569" />
      <path
         style="fill:none;stroke:#000000;stroke-width:0.264999;stroke-opacity:1"
         d="M 47.638933,28.037567 V 0"
         id="path6457"
         sodipodi:nodetypes="cc" />
      <circle
         style="fill:#87cdde;fill-opacity:1;stroke:#000000;stroke-width:0.264999;stroke-opacity:1"
         id="circle6457"
         cx="47.63958"
         cy="26.537569"
         r="1.5" />
      <circle
         style="fill:#87cdde;fill-opacity:1;stroke:#000000;stroke-width:0.264999;stroke-opacity:1"
         id="circle6458"
         cx="47.63958"
         cy="23.537569"
         r="1.5" />
      <circle
         style="fill:#87cdde;fill-opacity:1;stroke:#000000;stroke-width:0.264999;stroke-opacity:1"
         id="circle6459"
         cx="47.63958"
         cy="20.537569"
         r="1.5" />
      <circle
         style="fill:#87cdde;fill-opacity:1;stroke:#000000;stroke-width:0.264999;stroke-opacity:1"
         id="circle6460"
         cx="47.63958"
         cy="17.537569"
         r="1.5" />
      <path
         style="fill:none;stroke:#000000;stroke-width:0.264999;stroke-opacity:1"
         d="M 52.638933,28.037567 V 0"
         id="path6461"
         sodipodi:nodetypes="cc" />
      <circle
         style="fill:#afdde9;fill-opacity:1;stroke:#000000;stroke-width:0.264999;stroke-opacity:1"
         id="circle6462"
         cx="52.63958"
         cy="26.537569"
         r="1.5" />
      <circle
         style="fill:#afdde9;fill-opacity:1;stroke:#000000;stroke-width:0.264999;stroke-opacity:1"
         id="circle6463"
         cx="52.63958"
         cy="23.537569"
         r="1.5" />
      <circle
         style="fill:#afdde9;fill-opacity:1;stroke:#000000;stroke-width:0.264999;stroke-opacity:1"
         id="circle6464"
         cx="52.63958"
         cy="20.537569"
         r="1.5" />
      <circle
         style="fill:#afdde9;fill-opacity:1;stroke:#000000;stroke-width:0.264999;stroke-opacity:1"
         id="circle6465"
         cx="52.63958"
         cy="17.537569"
         r="1.5" />
      <circle
         style="fill:#afdde9;fill-opacity:1;stroke:#000000;stroke-width:0.264999;stroke-opacity:1"
         id="circle6466"
         cx="52.63958"
         cy="14.537569"
         r="1.5" />
      <circle
         style="fill:#afdde9;fill-opacity:1;stroke:#000000;stroke-width:0.264999;stroke-opacity:1"
         id="circle6467"
         cx="52.63958"
         cy="11.537569"
         r="1.5" />
      <circle
         style="fill:#afdde9;fill-opacity:1;stroke:#000000;stroke-width:0.264999;stroke-opacity:1"
         id="circle6468"
         cx="52.63958"
         cy="8.537569"
         r="1.5" />
      <path
         style="fill:none;stroke:#000000;stroke-width:0.264999;stroke-opacity:1"
         d="M 57.784633,28.037567 V 0"
         id="path6468"
         sodipodi:nodetypes="cc" />
      <circle
         style="fill:#d7eef4;fill-opacity:1;stroke:#000000;stroke-width:0.264999;stroke-opacity:1"
         id="circle6469"
         cx="57.78521"
         cy="26.537569"
         r="1.5" />
      <circle
         style="fill:#ffd5d5;fill-opacity:1;stroke:#000000;stroke-width:0.264999;stroke-opacity:1"
         id="circle7680"
         cx="27.778131"
         cy="23.537569"
         r="1.5" />
      <circle
         style="fill:#ffd5d5;fill-opacity:1;stroke:#000000;stroke-width:0.264999;stroke-opacity:1"
         id="circle7681"
         cx="27.778131"
         cy="20.537569"
         r="1.5" />
      <circle
         style="fill:#ffd5d5;fill-opacity:1;stroke:#000000;stroke-width:0.264999;stroke-opacity:1"
         id="circle7682"
         cx="27.778131"
         cy="17.537569"
         r="1.5" />
      <circle
         style="fill:#ffd5d5;fill-opacity:1;stroke:#000000;stroke-width:0.264999;stroke-opacity:1"
         id="circle7683"
         cx="27.778131"
         cy="14.537569"
         r="1.5" />
      <circle
         style="fill:#ffd5d5;fill-opacity:1;stroke:#000000;stroke-width:0.264999;stroke-opacity:1"
         id="circle7684"
         cx="27.778131"
         cy="11.537569"
         r="1.5" />
      <circle
         style="fill:#fff6d5;fill-opacity:1;stroke:#000000;stroke-width:0.264999;stroke-opacity:1"
         id="circle7685"
         cx="42.77813"
         cy="23.537569"
         r="1.5" />
      <circle
         style="fill:#fff6d5;fill-opacity:1;stroke:#000000;stroke-width:0.264999;stroke-opacity:1"
         id="circle7686"
         cx="42.77813"
         cy="20.537569"
         r="1.5" />
      <path
         style="font-size:13.3333px;font-family:FreeSans;-inkscape-font-specification:FreeSans;white-space:pre"
         d="m -20.152334,143.06963 2.733327,-8.14665 v 8.14665 h 1.17333 v -9.71998 h -1.719996 l -2.826659,8.46665 -2.879993,-8.46665 h -1.719995 v 9.71998 h 1.17333 v -8.14665 l 2.759993,8.14665 z m 6.973325,-6.98665 h -1.106664 v 6.98665 h 1.106664 z m 0,-2.73333 h -1.119997 v 1.4 h 1.119997 z m 2.879995,0 h -1.119997 v 9.71998 h 1.119997 z m 5.9733263,2.73333 -1.9333285,5.43999 -1.7866621,-5.43999 H -9.232342 l 2.3599941,7.01332 -0.4266656,1.10666 c -0.1866662,0.49333 -0.4266656,0.68 -0.8933311,0.68 -0.1599996,0 -0.3466658,-0.0267 -0.5866652,-0.08 v 1 c 0.2266661,0.12 0.4533322,0.17333 0.7466648,0.17333 0.7599981,0 1.4133298,-0.41333 1.7999954,-1.44 l 3.1066589,-8.45331 z m 2.0400049,2.06666 h 1.1199971 c 0.093333,-0.85333 0.59999852,-1.23999 1.63999589,-1.23999 0.99999751,0 1.55999601,0.37333 1.55999601,1.03999 v 0.29334 c 0,0.46666 -0.2799992,0.66666 -1.15999702,0.77333 -2.03999488,0.26666 -3.46665788,0.42666 -3.46665788,2.29332 0,1.26667 0.8799977,2.06667 2.29332751,2.06667 0.87999778,0 1.58666269,-0.30667 2.37332729,-1.02667 0.08,0.70667 0.4266656,1.02667 1.1466638,1.02667 0.2266661,0 0.399999,-0.0267 0.7599981,-0.12 v -0.84 c -0.1199997,0.0267 -0.1733329,0.0267 -0.2399994,0.0267 -0.3866657,0 -0.5999985,-0.2 -0.5999985,-0.54667 v -4.10666 c 0,-1.23999 -0.9066644,-1.90666 -2.62666001,-1.90666 -1.25333017,0 -2.73332639,0.37333 -2.79999289,2.26666 z m 2.226661,4.25333 c -0.86666447,0 -1.3733299,-0.41334 -1.3733299,-1.12 0,-1.53333 2.33332748,-1.14667 3.4666579,-1.66666 v 1.25333 c 0,0.66666 -0.7733313,1.53333 -2.093328,1.53333 z m 8.4666347,-5.34666 v -1.13333 c -0.1866662,-0.0267 -0.2799993,-0.04 -0.4266656,-0.04 -0.7199981,0 -1.2666634,0.42667 -1.9066618,1.46666 v -1.26666 H 5.0476214 v 6.98665 h 1.1199972 v -3.62666 c 0,-1.95999 0.8933311,-2.35999 2.2399943,-2.38666 z m 2.1866721,-3.70666 H 9.4742877 v 9.71998 h 1.1199973 z m 1.640006,4.79999 h 1.119997 c 0.09333,-0.85333 0.599999,-1.23999 1.639996,-1.23999 0.999997,0 1.559996,0.37333 1.559996,1.03999 v 0.29334 c 0,0.46666 -0.279999,0.66666 -1.159997,0.77333 -2.039995,0.26666 -3.466658,0.42666 -3.466658,2.29332 0,1.26667 0.879998,2.06667 2.293328,2.06667 0.879997,0 1.586662,-0.30667 2.373327,-1.02667 0.08,0.70667 0.426665,1.02667 1.146664,1.02667 0.226666,0 0.399999,-0.0267 0.759998,-0.12 v -0.84 c -0.12,0.0267 -0.173333,0.0267 -0.24,0.0267 -0.386665,0 -0.599998,-0.2 -0.599998,-0.54667 v -4.10666 c 0,-1.23999 -0.906665,-1.90666 -2.62666,-1.90666 -1.25333,0 -2.733327,0.37333 -2.799993,2.26666 z m 2.226661,4.25333 c -0.866665,0 -1.37333,-0.41334 -1.37333,-1.12 0,-1.53333 2.333328,-1.14667 3.466658,-1.66666 v 1.25333 c 0,0.66666 -0.773331,1.53333 -2.093328,1.53333 z m 8.466635,-5.34666 v -1.13333 c -0.186667,-0.0267 -0.28,-0.04 -0.426666,-0.04 -0.719998,0 -1.266663,0.42667 -1.906662,1.46666 v -1.26666 h -1.026664 v 6.98665 h 1.119997 v -3.62666 c 0,-1.95999 0.893331,-2.35999 2.239995,-2.38666 z"
         id="text1"
         transform="matrix(0.26458333,0,0,0.26458333,7.9585629,-1.4149277)"
         aria-label="Milyarlar" />
      <path
         style="font-size:13.3333px;font-family:FreeSans;-inkscape-font-specification:FreeSans;white-space:pre"
         d="m -20.152334,143.06963 2.733327,-8.14665 v 8.14665 h 1.17333 v -9.71998 h -1.719996 l -2.826659,8.46665 -2.879993,-8.46665 h -1.719995 v 9.71998 h 1.17333 v -8.14665 l 2.759993,8.14665 z m 6.973325,-6.98665 h -1.106664 v 6.98665 h 1.106664 z m 0,-2.73333 h -1.119997 v 1.4 h 1.119997 z m 2.879995,0 h -1.119997 v 9.71998 h 1.119997 z m 5.9733263,2.73333 -1.9333285,5.43999 -1.7866621,-5.43999 H -9.232342 l 2.3599941,7.01332 -0.4266656,1.10666 c -0.1866662,0.49333 -0.4266656,0.68 -0.8933311,0.68 -0.1599996,0 -0.3466658,-0.0267 -0.5866652,-0.08 v 1 c 0.2266661,0.12 0.4533322,0.17333 0.7466648,0.17333 0.7599981,0 1.4133298,-0.41333 1.7999954,-1.44 l 3.1066589,-8.45331 z m 4.87999769,-0.2 c -1.95999509,0 -3.14665869,1.4 -3.14665869,3.74666 0,2.34666 1.1733303,3.74666 3.15999199,3.74666 1.95999501,0 3.15999201,-1.4 3.15999201,-3.69333 0,-2.41333 -1.1599971,-3.79999 -3.17332531,-3.79999 z m 0.0133333,1.02667 c 1.25333021,0 1.99999491,1.02666 1.99999491,2.75999 0,1.63999 -0.7733313,2.67999 -1.99999491,2.67999 -1.23999687,0 -1.99999499,-1.02666 -1.99999499,-2.71999 0,-1.68 0.75999812,-2.71999 1.99999499,-2.71999 z m 4.35999441,-0.82667 v 6.98665 h 1.1199972 v -3.85332 c 0,-1.42667 0.7466648,-2.36 1.8933286,-2.36 0.8799977,0 1.4399963,0.53333 1.4399963,1.37333 v 4.83999 h 1.1066642 v -5.27999 c 0,-1.15999 -0.8666648,-1.90666 -2.213328,-1.90666 -1.0399974,0 -1.7066624,0.4 -2.3199942,1.37333 v -1.17333 z m 8.2799853,-2.73333 h -1.119997 v 9.71998 h 1.119997 z m 1.640006,4.79999 h 1.119998 c 0.09333,-0.85333 0.599998,-1.23999 1.639995,-1.23999 0.999998,0 1.559996,0.37333 1.559996,1.03999 v 0.29334 c 0,0.46666 -0.279999,0.66666 -1.159997,0.77333 -2.039994,0.26666 -3.466658,0.42666 -3.466658,2.29332 0,1.26667 0.879998,2.06667 2.293328,2.06667 0.879998,0 1.586663,-0.30667 2.373327,-1.02667 0.08,0.70667 0.426666,1.02667 1.146664,1.02667 0.226666,0 0.399999,-0.0267 0.759998,-0.12 v -0.84 c -0.119999,0.0267 -0.173333,0.0267 -0.239999,0.0267 -0.386666,0 -0.599999,-0.2 -0.599999,-0.54667 v -4.10666 c 0,-1.23999 -0.906664,-1.90666 -2.62666,-1.90666 -1.25333,0 -2.733326,0.37333 -2.799993,2.26666 z m 2.226661,4.25333 c -0.866664,0 -1.373329,-0.41334 -1.373329,-1.12 0,-1.53333 2.333327,-1.14667 3.466657,-1.66666 v 1.25333 c 0,0.66666 -0.773331,1.53333 -2.093328,1.53333 z m 8.466635,-5.34666 v -1.13333 c -0.186666,-0.0267 -0.279999,-0.04 -0.426665,-0.04 -0.719999,0 -1.266664,0.42667 -1.906662,1.46666 v -1.26666 h -1.026664 v 6.98665 h 1.119997 v -3.62666 c 0,-1.95999 0.893331,-2.35999 2.239994,-2.38666 z"
         id="text30"
         transform="matrix(0.26458333,0,0,0.26458333,22.61278,-1.4149277)"
         aria-label="Milyonlar" />
      <path
         style="font-size:13.3333px;font-family:FreeSans;-inkscape-font-specification:FreeSans;white-space:pre"
         d="m -18.139005,140.2963 c 0,-1.17333 -0.533332,-1.87999 -1.773329,-2.35999 0.879998,-0.41333 1.346663,-1.13333 1.346663,-2.11999 0,-0.98667 -0.573332,-2.46667 -2.879993,-2.46667 h -3.946656 v 9.71998 h 4.386655 c 1.719996,0 2.86666,-1.10666 2.86666,-2.77333 z m -1.666663,-4.30665 c 0,1.16 -0.773331,1.54666 -1.946662,1.54666 h -2.399994 v -3.09332 h 2.399994 c 1.039998,0 1.946662,0.29333 1.946662,1.54666 z m -1.319997,5.98665 h -3.026659 v -3.34666 h 3.026659 c 1.146664,0 1.746663,0.69333 1.746663,1.68 0,0.68 -0.346666,1.66666 -1.746663,1.66666 z m 5.51998,-5.89332 h -1.106663 v 6.98665 h 1.106663 z m 0,-2.73333 h -1.119997 v 1.4 h 1.119997 z m 1.759998,2.73333 v 6.98665 h 1.119997 v -3.85332 c 0,-1.42667 0.746665,-2.36 1.893329,-2.36 0.8799973,0 1.4399959,0.53333 1.4399959,1.37333 v 4.83999 h 1.1066638 v -5.27999 c 0,-1.15999 -0.8666644,-1.90666 -2.2133277,-1.90666 -1.039997,0 -1.706662,0.4 -2.319994,1.37333 v -1.17333 z m 8.2799873,-2.73333 h -1.1199972 v 9.71998 h 1.1199972 z m 7.6399909,6.59999 c 0,-2.53333 -0.9466643,-4.06666 -3.1066588,-4.06666 -1.9466618,0 -3.199992,1.49333 -3.199992,3.78666 0,2.29333 1.2133303,3.70666 3.1733254,3.70666 1.59999591,0 2.7066598,-0.90667 2.9866591,-2.42666 H 0.8076277 c -0.30666589,0.91999 -0.93333097,1.39999 -1.826662,1.39999 -1.2933301,0 -2.0266616,-0.97333 -2.0533282,-2.39999 z m -5.1199871,-0.90667 c 0.093333,-1.29333 0.8799978,-2.13332 1.999995,-2.13332 1.14666372,0 1.9333284,0.93333 1.9333284,2.13332 z m 9.6799877,-1.98666 v -1.13333 c -0.1866662,-0.0267 -0.2799993,-0.04 -0.4266656,-0.04 -0.7199982,0 -1.2666635,0.42667 -1.9066619,1.46666 v -1.26666 h -1.026664 v 6.98665 h 1.1199971 v -3.62666 c 0,-1.95999 0.8933311,-2.35999 2.2399944,-2.38666 z"
         id="text31"
         transform="matrix(0.26458333,0,0,0.26458333,40.117448,-1.0709708)"
         aria-label="Binler" />
      <path
         style="font-size:13.3333px;font-family:FreeSans;-inkscape-font-specification:FreeSans;white-space:pre"
         d="m -18.139005,140.2963 c 0,-1.17333 -0.533332,-1.87999 -1.773329,-2.35999 0.879998,-0.41333 1.346663,-1.13333 1.346663,-2.11999 0,-0.98667 -0.573332,-2.46667 -2.879993,-2.46667 h -3.946656 v 9.71998 h 4.386655 c 1.719996,0 2.86666,-1.10666 2.86666,-2.77333 z m -1.666663,-4.30665 c 0,1.16 -0.773331,1.54666 -1.946662,1.54666 h -2.399994 v -3.09332 h 2.399994 c 1.039998,0 1.946662,0.29333 1.946662,1.54666 z m -1.319997,5.98665 h -3.026659 v -3.34666 h 3.026659 c 1.146664,0 1.746663,0.69333 1.746663,1.68 0,0.68 -0.346666,1.66666 -1.746663,1.66666 z m 5.51998,-5.89332 h -1.106663 v 6.98665 h 1.106663 z m 0,-2.73333 h -1.119997 v 1.4 h 1.119997 z m 5.119989,3.70666 v -1.13333 c -0.186666,-0.0267 -0.279999,-0.04 -0.426665,-0.04 -0.719998,0 -1.266664,0.42667 -1.906662,1.46666 v -1.26666 h -1.026664 v 6.98665 h 1.119997 v -3.62666 c 0,-1.95999 0.893331,-2.35999 2.239994,-2.38666 z m 2.1866703,-3.70666 h -1.1199972 v 9.71998 h 1.1199972 z m 7.63999091,6.59999 c 0,-2.53333 -0.94666431,-4.06666 -3.10665881,-4.06666 -1.9466618,0 -3.1999919,1.49333 -3.1999919,3.78666 0,2.29333 1.2133302,3.70666 3.1733253,3.70666 1.5999959,0 2.7066598,-0.90667 2.98665911,-2.42666 H -1.9256983 c -0.3066658,0.91999 -0.9333309,1.39999 -1.826662,1.39999 -1.2933301,0 -2.0266616,-0.97333 -2.0533282,-2.39999 z m -5.11998711,-0.90667 c 0.093333,-1.29333 0.8799978,-2.13332 1.999995,-2.13332 1.1466638,0 1.9333284,0.93333 1.9333284,2.13332 z m 9.6799877,-1.98666 v -1.13333 c -0.1866662,-0.0267 -0.2799993,-0.04 -0.4266656,-0.04 -0.7199981,0 -1.2666634,0.42667 -1.9066618,1.46666 v -1.26666 H 0.54097431 v 6.98665 H 1.6609715 v -3.62666 c 0,-1.95999 0.8933311,-2.35999 2.2399943,-2.38666 z"
         id="text32"
         transform="matrix(0.26458333,0,0,0.26458333,55.482584,-1.0709708)"
         aria-label="Birler" />
      <path
         style="font-size:13.3333px;font-family:FreeSans;-inkscape-font-specification:FreeSans;white-space:pre"
         d="m -21.272331,139.25631 3.653324,-5.90666 h -1.479996 l -2.773326,4.73333 -2.853326,-4.73333 h -1.53333 l 3.746657,5.90666 v 3.81332 h 1.239997 z"
         id="text33"
         transform="matrix(0.26458333,0,0,0.26458333,8.437315,-6.0303983)"
         aria-label="Y" />
      <path
         style="font-size:13.3333px;font-family:FreeSans;-inkscape-font-specification:FreeSans;white-space:pre"
         d="m -16.539009,138.36298 c 0,-3.13333 -1.853329,-5.17332 -4.706655,-5.17332 -2.78666,0 -4.679988,2.05332 -4.679988,5.09332 0,3.03999 1.893328,5.09332 4.693321,5.09332 2.906659,0 4.693322,-2.21333 4.693322,-5.01332 z m -4.706655,-4.07999 c 2.106661,0 3.466658,1.59999 3.466658,4.05332 0,2.34666 -1.399997,3.94666 -3.453325,3.94666 -2.066661,0 -3.453325,-1.6 -3.453325,-3.99999 0,-2.4 1.386664,-3.99999 3.439992,-3.99999 z"
         id="text34"
         transform="matrix(0.26458333,0,0,0.26458333,13.381953,-6.0303983)"
         aria-label="O" />
      <path
         style="font-size:13.3333px;font-family:FreeSans;-inkscape-font-specification:FreeSans;white-space:pre"
         d="m -20.152334,143.06963 2.733327,-8.14665 v 8.14665 h 1.17333 v -9.71998 h -1.719996 l -2.826659,8.46665 -2.879993,-8.46665 h -1.719995 v 9.71998 h 1.17333 v -8.14665 l 2.759993,8.14665 z"
         id="text35"
         transform="matrix(0.26458333,0,0,0.26458333,18.005243,-6.0303992)"
         aria-label="M" />
      <path
         style="font-size:13.3333px;font-family:FreeSans;-inkscape-font-specification:FreeSans;white-space:pre"
         d="m -21.272331,139.25631 3.653324,-5.90666 h -1.479996 l -2.773326,4.73333 -2.853326,-4.73333 h -1.53333 l 3.746657,5.90666 v 3.81332 h 1.239997 z"
         id="text36"
         transform="matrix(0.26458333,0,0,0.26458333,23.569026,-6.0303983)"
         aria-label="Y" />
      <path
         style="font-size:13.3333px;font-family:FreeSans;-inkscape-font-specification:FreeSans;white-space:pre"
         d="m -16.539009,138.36298 c 0,-3.13333 -1.853329,-5.17332 -4.706655,-5.17332 -2.78666,0 -4.679988,2.05332 -4.679988,5.09332 0,3.03999 1.893328,5.09332 4.693321,5.09332 2.906659,0 4.693322,-2.21333 4.693322,-5.01332 z m -4.706655,-4.07999 c 2.106661,0 3.466658,1.59999 3.466658,4.05332 0,2.34666 -1.399997,3.94666 -3.453325,3.94666 -2.066661,0 -3.453325,-1.6 -3.453325,-3.99999 0,-2.4 1.386664,-3.99999 3.439992,-3.99999 z"
         id="text37"
         transform="matrix(0.26458333,0,0,0.26458333,28.513664,-6.0303983)"
         aria-label="O" />
      <path
         style="font-size:13.3333px;font-family:FreeSans;-inkscape-font-specification:FreeSans;white-space:pre"
         d="m -20.152334,143.06963 2.733327,-8.14665 v 8.14665 h 1.17333 v -9.71998 h -1.719996 l -2.826659,8.46665 -2.879993,-8.46665 h -1.719995 v 9.71998 h 1.17333 v -8.14665 l 2.759993,8.14665 z"
         id="text38"
         transform="matrix(0.26458333,0,0,0.26458333,33.136954,-6.0303992)"
         aria-label="M" />
      <path
         style="font-size:13.3333px;font-family:FreeSans;-inkscape-font-specification:FreeSans;white-space:pre"
         d="m -21.272331,139.25631 3.653324,-5.90666 h -1.479996 l -2.773326,4.73333 -2.853326,-4.73333 h -1.53333 l 3.746657,5.90666 v 3.81332 h 1.239997 z"
         id="text40"
         transform="matrix(0.26458333,0,0,0.26458333,38.505781,-6.0303983)"
         aria-label="Y" />
      <path
         style="font-size:13.3333px;font-family:FreeSans;-inkscape-font-specification:FreeSans;white-space:pre"
         d="m -16.539009,138.36298 c 0,-3.13333 -1.853329,-5.17332 -4.706655,-5.17332 -2.78666,0 -4.679988,2.05332 -4.679988,5.09332 0,3.03999 1.893328,5.09332 4.693321,5.09332 2.906659,0 4.693322,-2.21333 4.693322,-5.01332 z m -4.706655,-4.07999 c 2.106661,0 3.466658,1.59999 3.466658,4.05332 0,2.34666 -1.399997,3.94666 -3.453325,3.94666 -2.066661,0 -3.453325,-1.6 -3.453325,-3.99999 0,-2.4 1.386664,-3.99999 3.439992,-3.99999 z"
         id="text41"
         transform="matrix(0.26458333,0,0,0.26458333,43.450419,-6.0303983)"
         aria-label="O" />
      <path
         style="font-size:13.3333px;font-family:FreeSans;-inkscape-font-specification:FreeSans;white-space:pre"
         d="m -18.139005,140.2963 c 0,-1.17333 -0.533332,-1.87999 -1.773329,-2.35999 0.879998,-0.41333 1.346663,-1.13333 1.346663,-2.11999 0,-0.98667 -0.573332,-2.46667 -2.879993,-2.46667 h -3.946656 v 9.71998 h 4.386655 c 1.719996,0 2.86666,-1.10666 2.86666,-2.77333 z m -1.666663,-4.30665 c 0,1.16 -0.773331,1.54666 -1.946662,1.54666 h -2.399994 v -3.09332 h 2.399994 c 1.039998,0 1.946662,0.29333 1.946662,1.54666 z m -1.319997,5.98665 h -3.026659 v -3.34666 h 3.026659 c 1.146664,0 1.746663,0.69333 1.746663,1.68 0,0.68 -0.346666,1.66666 -1.746663,1.66666 z"
         id="text42"
         transform="matrix(0.26458333,0,0,0.26458333,48.39487,-6.0303992)"
         aria-label="B" />
      <path
         style="font-size:13.3333px;font-family:FreeSans;-inkscape-font-specification:FreeSans;white-space:pre"
         d="m -21.272331,139.25631 3.653324,-5.90666 h -1.479996 l -2.773326,4.73333 -2.853326,-4.73333 h -1.53333 l 3.746657,5.90666 v 3.81332 h 1.239997 z"
         id="text44"
         transform="matrix(0.26458333,0,0,0.26458333,53.444273,-6.0303983)"
         aria-label="Y" />
      <path
         style="font-size:13.3333px;font-family:FreeSans;-inkscape-font-specification:FreeSans;white-space:pre"
         d="m -16.539009,138.36298 c 0,-3.13333 -1.853329,-5.17332 -4.706655,-5.17332 -2.78666,0 -4.679988,2.05332 -4.679988,5.09332 0,3.03999 1.893328,5.09332 4.693321,5.09332 2.906659,0 4.693322,-2.21333 4.693322,-5.01332 z m -4.706655,-4.07999 c 2.106661,0 3.466658,1.59999 3.466658,4.05332 0,2.34666 -1.399997,3.94666 -3.453325,3.94666 -2.066661,0 -3.453325,-1.6 -3.453325,-3.99999 0,-2.4 1.386664,-3.99999 3.439992,-3.99999 z"
         id="text45"
         transform="matrix(0.26458333,0,0,0.26458333,58.388911,-6.0303983)"
         aria-label="O" />
      <path
         style="font-size:13.3333px;font-family:FreeSans;-inkscape-font-specification:FreeSans;white-space:pre"
         d="m -18.139005,140.2963 c 0,-1.17333 -0.533332,-1.87999 -1.773329,-2.35999 0.879998,-0.41333 1.346663,-1.13333 1.346663,-2.11999 0,-0.98667 -0.573332,-2.46667 -2.879993,-2.46667 h -3.946656 v 9.71998 h 4.386655 c 1.719996,0 2.86666,-1.10666 2.86666,-2.77333 z m -1.666663,-4.30665 c 0,1.16 -0.773331,1.54666 -1.946662,1.54666 h -2.399994 v -3.09332 h 2.399994 c 1.039998,0 1.946662,0.29333 1.946662,1.54666 z m -1.319997,5.98665 h -3.026659 v -3.34666 h 3.026659 c 1.146664,0 1.746663,0.69333 1.746663,1.68 0,0.68 -0.346666,1.66666 -1.746663,1.66666 z"
         id="text46"
         transform="matrix(0.26458333,0,0,0.26458333,63.333362,-6.0303992)"
         aria-label="B" />
    </g>
  </g>
</svg>
