<?xml version="1.0" encoding="UTF-8" standalone="no"?>
<!-- Created with Inkscape (http://www.inkscape.org/) -->

<svg
   width="7.1500001mm"
   height="7.1500001mm"
   viewBox="0 0 7.1500001 7.1500001"
   version="1.1"
   id="svg1"
   inkscape:version="1.4.2 (ebf0e940d0, 2025-05-08)"
   sodipodi:docname="5_1_1_39.svg"
   xmlns:inkscape="http://www.inkscape.org/namespaces/inkscape"
   xmlns:sodipodi="http://sodipodi.sourceforge.net/DTD/sodipodi-0.dtd"
   xmlns="http://www.w3.org/2000/svg"
   xmlns:svg="http://www.w3.org/2000/svg">
  <sodipodi:namedview
     id="namedview1"
     pagecolor="#ffffff"
     bordercolor="#000000"
     borderopacity="0.25"
     inkscape:showpageshadow="2"
     inkscape:pageopacity="0.0"
     inkscape:pagecheckerboard="0"
     inkscape:deskcolor="#d1d1d1"
     inkscape:document-units="mm"
     inkscape:zoom="24.352675"
     inkscape:cx="30.69478"
     inkscape:cy="14.002569"
     inkscape:window-width="1920"
     inkscape:window-height="1014"
     inkscape:window-x="0"
     inkscape:window-y="0"
     inkscape:window-maximized="1"
     inkscape:current-layer="layer1" />
  <defs
     id="defs1">
    <rect
       x="13.485725"
       y="-52.819092"
       width="225.2477"
       height="118.63495"
       id="rect1" />
    <rect
       x="37.795277"
       y="37.795277"
       width="483.77954"
       height="718.11023"
       id="rect2721" />
    <rect
       x="37.795277"
       y="37.795277"
       width="483.77954"
       height="718.11023"
       id="rect2722" />
    <rect
       x="37.795277"
       y="37.795277"
       width="483.77954"
       height="718.11023"
       id="rect2723" />
    <rect
       x="37.795277"
       y="37.795277"
       width="483.77954"
       height="718.11023"
       id="rect2724" />
    <rect
       x="37.795277"
       y="37.795277"
       width="483.77954"
       height="718.11023"
       id="rect2725" />
    <rect
       x="37.795277"
       y="37.795277"
       width="483.77954"
       height="718.11023"
       id="rect2726" />
    <rect
       x="37.795277"
       y="37.795277"
       width="483.77954"
       height="718.11023"
       id="rect2727" />
    <rect
       x="37.795277"
       y="37.795277"
       width="483.77954"
       height="718.11023"
       id="rect2728" />
    <rect
       x="37.795277"
       y="37.795277"
       width="483.77954"
       height="718.11023"
       id="rect2729" />
    <rect
       x="37.795277"
       y="37.795277"
       width="483.77954"
       height="718.11023"
       id="rect2730" />
    <rect
       x="37.795277"
       y="37.795277"
       width="483.77954"
       height="718.11023"
       id="rect2731" />
    <rect
       x="37.795277"
       y="37.795277"
       width="483.77954"
       height="718.11023"
       id="rect2732" />
    <rect
       x="37.795277"
       y="37.795277"
       width="483.77954"
       height="718.11023"
       id="rect2733" />
    <rect
       x="37.795277"
       y="37.795277"
       width="483.77954"
       height="718.11023"
       id="rect2734" />
  </defs>
  <g
     inkscape:label="Katman 1"
     inkscape:groupmode="layer"
     id="layer1">
    <g
       id="g1712"
       transform="matrix(0.58796269,0,0,0.58796269,-95.482146,-17.061472)">
      <path
         style="fill:#806600;fill-opacity:0.5;stroke:none;stroke-width:0.264583px;stroke-linecap:butt;stroke-linejoin:miter;stroke-opacity:1"
         d="m 164.90395,40.811024 4.9566,-0.197295 -0.1136,-3.344815 0.74186,-3.262606 -2.09052,-3.7021 -0.98258,4.064315 0.72046,1.511302 -0.12495,2.492322 -2.49605,-1.969778 -0.0125,3.116062 z"
         id="path1711" />
      <path
         style="fill:#806600;stroke-width:0.32002"
         d="m 163.96763,41.098578 c 0,-0.08263 0.29538,-0.445672 0.65641,-0.806685 0.36103,-0.361031 0.58779,-0.901065 0.50392,-1.200083 -0.0838,-0.299018 -0.24671,-1.011814 -0.36187,-1.584001 -0.2901,-1.441356 0.4554,-1.656486 1.90607,-0.550015 l 1.13573,0.866256 -0.005,-1.078053 c -0.006,-1.364403 -0.37714,-1.957007 -1.06075,-1.694692 -0.29395,0.112857 -0.53445,0.05562 -0.53445,-0.126905 0,-0.182596 -0.3235,-0.378023 -0.71887,-0.43427 -0.5736,-0.08161 -0.79376,-0.425645 -1.08936,-1.702356 -0.20377,-0.880062 -0.38431,-1.941764 -0.40119,-2.35934 -0.0259,-0.639744 0.0448,-0.696539 0.4493,-0.360846 0.26401,0.219103 0.48003,0.803407 0.48003,1.298437 0,1.598403 0.53956,2.541816 1.45374,2.541816 0.66033,0 0.79136,-0.120341 0.64235,-0.589763 -0.11078,-0.349249 0.0846,-0.935252 0.47927,-1.437005 0.36654,-0.465987 0.60199,-0.956634 0.52322,-1.090354 -0.19937,-0.338377 0.34068,-1.683192 0.67594,-1.683192 0.15119,0 0.21442,0.412061 0.14051,0.915698 -0.0988,0.673707 0.085,1.135034 0.69547,1.745567 0.45643,0.456433 0.82986,1.12444 0.82986,1.484459 0,0.508103 0.20651,0.65459 0.92273,0.65459 0.98052,0 1.30425,-0.567368 1.31305,-2.301274 0.005,-0.83231 0.50129,-1.468758 0.8639,-1.106139 0.0972,0.09737 -0.0263,1.011778 -0.27447,2.032181 -0.40687,1.672319 -0.55817,1.890187 -1.53431,2.209539 -0.60044,0.196439 -1.19543,0.658443 -1.33547,1.037013 -0.43187,1.167472 -0.11987,4.257446 0.47374,4.691493 0.29199,0.213514 0.53069,0.444326 0.53043,0.512931 -2.5e-4,0.06862 -1.65635,0.156357 -3.68023,0.195 -2.02389,0.03862 -3.67979,0.0028 -3.67979,-0.07994 z m 4.72031,-0.976291 c 0.51393,-0.104371 0.72005,-0.373519 0.72005,-0.9402 0,-0.436675 -0.13207,-0.793956 -0.29348,-0.793956 -0.59356,0 -3.08833,1.207725 -3.48695,1.688048 -0.36285,0.437204 -0.24954,0.477602 0.9646,0.343882 0.75666,-0.08338 1.69975,-0.217321 2.09578,-0.297774 z m -1.58447,-1.796243 c 0.0566,-0.294125 -0.19371,-0.693559 -0.55637,-0.88763 -0.60005,-0.321153 -0.65934,-0.263429 -0.65934,0.641907 0,0.772655 0.12424,0.970859 0.55636,0.887648 0.306,-0.05887 0.60271,-0.34781 0.65935,-0.641925 z m 1.88714,-0.657951 c 0.3896,-0.517732 1.07956,-2.88473 0.89476,-3.069535 -0.078,-0.07799 -0.34927,0.03027 -0.60275,0.240589 -0.37199,0.308729 -0.50133,0.254933 -0.67081,-0.279065 -0.11551,-0.363836 -0.344,-0.578696 -0.50782,-0.477464 -0.1785,0.110314 -0.15561,0.449841 0.0571,0.847353 0.20014,0.373937 0.26867,1.203054 0.1571,1.900695 -0.19694,1.231596 0.0987,1.599786 0.67239,0.837427 z m 0.47956,-5.191667 c -0.54788,-1.202488 -0.97989,-0.978547 -0.57957,0.300448 0.21636,0.691284 0.46036,0.995993 0.64761,0.808727 0.18725,-0.187247 0.16162,-0.605138 -0.0681,-1.109175 z"
         id="path1712"
         sodipodi:nodetypes="sssssccsssssssscssssssscccsssscsssssssssssssssssssssscsscc" />
    </g>
  </g>
</svg>
