<?xml version="1.0" encoding="UTF-8" standalone="no"?>
<!-- Created with Inkscape (http://www.inkscape.org/) -->

<svg
   width="6mm"
   height="6mm"
   viewBox="0 0 6 6"
   version="1.1"
   id="svg1"
   inkscape:version="1.4.2 (ebf0e940d0, 2025-05-08)"
   sodipodi:docname="5_1_1_25.svg"
   xmlns:inkscape="http://www.inkscape.org/namespaces/inkscape"
   xmlns:sodipodi="http://sodipodi.sourceforge.net/DTD/sodipodi-0.dtd"
   xmlns="http://www.w3.org/2000/svg"
   xmlns:svg="http://www.w3.org/2000/svg">
  <sodipodi:namedview
     id="namedview1"
     pagecolor="#ffffff"
     bordercolor="#000000"
     borderopacity="0.25"
     inkscape:showpageshadow="2"
     inkscape:pageopacity="0.0"
     inkscape:pagecheckerboard="0"
     inkscape:deskcolor="#d1d1d1"
     inkscape:document-units="mm"
     inkscape:zoom="14.806733"
     inkscape:cx="14.013895"
     inkscape:cy="13.372295"
     inkscape:window-width="1920"
     inkscape:window-height="1014"
     inkscape:window-x="0"
     inkscape:window-y="0"
     inkscape:window-maximized="1"
     inkscape:current-layer="layer1" />
  <defs
     id="defs1">
    <rect
       x="13.485725"
       y="-52.819092"
       width="225.2477"
       height="118.63495"
       id="rect1" />
    <rect
       x="37.795277"
       y="37.795277"
       width="483.77954"
       height="718.11023"
       id="rect2721" />
    <rect
       x="37.795277"
       y="37.795277"
       width="483.77954"
       height="718.11023"
       id="rect2722" />
    <rect
       x="37.795277"
       y="37.795277"
       width="483.77954"
       height="718.11023"
       id="rect2723" />
    <rect
       x="37.795277"
       y="37.795277"
       width="483.77954"
       height="718.11023"
       id="rect2724" />
    <rect
       x="37.795277"
       y="37.795277"
       width="483.77954"
       height="718.11023"
       id="rect2725" />
    <rect
       x="37.795277"
       y="37.795277"
       width="483.77954"
       height="718.11023"
       id="rect2726" />
    <rect
       x="37.795277"
       y="37.795277"
       width="483.77954"
       height="718.11023"
       id="rect2727" />
    <rect
       x="37.795277"
       y="37.795277"
       width="483.77954"
       height="718.11023"
       id="rect2728" />
    <rect
       x="37.795277"
       y="37.795277"
       width="483.77954"
       height="718.11023"
       id="rect2729" />
    <rect
       x="37.795277"
       y="37.795277"
       width="483.77954"
       height="718.11023"
       id="rect2730" />
    <rect
       x="37.795277"
       y="37.795277"
       width="483.77954"
       height="718.11023"
       id="rect2731" />
    <rect
       x="37.795277"
       y="37.795277"
       width="483.77954"
       height="718.11023"
       id="rect2732" />
    <rect
       x="37.795277"
       y="37.795277"
       width="483.77954"
       height="718.11023"
       id="rect2733" />
    <rect
       x="37.795277"
       y="37.795277"
       width="483.77954"
       height="718.11023"
       id="rect2734" />
  </defs>
  <g
     inkscape:label="Katman 1"
     inkscape:groupmode="layer"
     id="layer1">
    <g
       id="g21"
       transform="matrix(0.54443832,0,0,0.54443832,-521.73633,-80.856811)">
      <ellipse
         style="fill:#ffb380;stroke-width:0.268133"
         id="path6407"
         cx="963.67297"
         cy="154.10059"
         rx="3.6489947"
         ry="3.6127167" />
      <path
         style="fill:#f4e3d7;stroke-width:0.264583"
         d="m 960.05689,154.58526 -0.0193,-0.79544 -0.90426,0.85371 -0.58198,1.07691 -0.15118,0.74307 0.35787,0.87314 0.90437,0.57813 1.51718,0.0196 1.89008,-0.58913 1.95585,-0.95305 2.08285,-1.29881 0.87453,-0.7171 0.82685,-0.98313 0.35877,-0.95444 -0.0431,-0.99228 -0.61185,-0.82793 -1.00584,-0.22717 -1.51937,0.2354 -0.60286,0.28366 0.50544,0.32138 1.24042,-0.2337 0.93662,0.1378 0.26294,0.39636 0.006,0.59521 -0.46606,0.93172 -1.05524,0.94767 -2.11638,1.35551 -2.05009,0.96287 -1.94493,0.40602 -1.0419,-0.1694 -0.37613,-0.5687 0.12705,-0.63543 0.39597,-0.65978 z"
         id="path6408" />
      <path
         style="fill:#000000;stroke-width:0.235038"
         d="m 959.80024,158.03341 c -0.67518,-0.17632 -1.11657,-0.50927 -1.34522,-1.01472 -0.20256,-0.44778 -0.20382,-0.74068 -0.005,-1.29953 0.22497,-0.63427 0.53351,-1.09934 1.04957,-1.58208 0.38143,-0.3568 0.41238,-0.4065 0.49289,-0.79133 0.46412,-2.21823 2.77019,-3.49908 4.94486,-2.74649 l 0.38225,0.13228 0.53653,-0.16411 c 2.00208,-0.61237 3.13814,-0.23566 3.4328,1.1383 0.0905,0.42201 -0.003,0.93974 -0.26584,1.46478 -0.27242,0.54509 -0.59313,0.93708 -1.19193,1.45682 -0.43467,0.37727 -0.5545,0.52169 -0.67068,0.80841 -0.24513,0.60491 -0.43652,0.89581 -0.88849,1.35033 -0.47988,0.48266 -1.05485,0.80531 -1.7539,0.98424 -0.47085,0.12052 -1.25327,0.12631 -1.69199,0.0125 -0.31404,-0.0814 -0.35455,-0.0768 -0.89972,0.0996 -0.67565,0.21881 -1.61133,0.28528 -2.12554,0.151 z m 1.6967,-0.25926 c 1.05169,-0.24794 2.81509,-1.06327 4.30435,-1.99017 1.88072,-1.17052 2.60503,-1.83313 3.05509,-2.79493 0.44269,-0.94599 0.22387,-1.92095 -0.51901,-2.31265 -0.44888,-0.2367 -1.79206,-0.16039 -2.51836,0.1431 l -0.22012,0.0919 0.13707,0.096 c 0.12429,0.0872 0.17277,0.0856 0.52096,-0.0162 0.55252,-0.16139 1.42536,-0.15883 1.74801,0.004 0.36748,0.18675 0.50152,0.40818 0.50152,0.82854 0,0.88151 -0.83834,1.81711 -2.73624,3.05366 -0.90256,0.58806 -2.33829,1.30218 -3.11064,1.54722 -1.14309,0.36267 -2.43057,0.49291 -2.90647,0.29408 -0.71131,-0.29721 -0.7668,-1.08986 -0.13399,-1.91462 0.19302,-0.2516 0.27441,-0.41681 0.27441,-0.55709 v -0.19943 l -0.2876,0.27725 c -0.54597,0.52632 -1.08051,1.51854 -1.08051,2.00567 0,0.69865 0.51393,1.28692 1.28174,1.46714 0.38018,0.0893 1.26114,0.0763 1.68979,-0.0246 z m 2.96732,-0.22567 c 0.17103,-0.0369 0.51848,-0.16524 0.77212,-0.28522 0.59901,-0.28336 1.25673,-0.9288 1.53818,-1.50949 0.10779,-0.22233 0.18791,-0.41269 0.1781,-0.42305 -0.009,-0.0109 -0.33584,0.18923 -0.72452,0.44353 -0.80721,0.52815 -1.65525,0.99516 -2.61676,1.44099 -0.36648,0.16994 -0.64634,0.32863 -0.62188,0.35263 0.11762,0.11543 0.89718,0.10517 1.47476,-0.0193 z m -3.81166,-0.97511 c 0.094,-0.0374 0.0843,-0.0741 -0.0852,-0.3221 -0.23486,-0.34343 -0.46167,-0.8383 -0.5561,-1.21331 -0.087,-0.34554 -0.15602,-0.30766 -0.42685,0.23437 -0.3581,0.71659 -0.18932,1.15725 0.49567,1.29423 0.28426,0.0569 0.44222,0.0588 0.57253,0.006 z m 1.10653,-0.13193 c 1.25596,-0.28051 2.66333,-0.93889 4.18535,-1.95787 1.21576,-0.81395 1.1857,-0.78417 1.14621,-1.13453 -0.0569,-0.50331 -0.49583,-1.26577 -1.01058,-1.75472 -2.25159,-2.13879 -5.93056,-0.57475 -5.93692,2.52397 -9.4e-4,0.57326 0.0915,1.01125 0.31363,1.48278 0.20393,0.43281 0.58907,0.96175 0.69884,0.95979 0.0412,-7.2e-4 0.31274,-0.0545 0.60347,-0.11942 z m 6.37496,-4.0085 c 0.18169,-0.36462 0.20478,-0.80872 0.0533,-1.025 -0.0558,-0.0796 -0.19481,-0.18382 -0.30894,-0.23151 -0.32282,-0.13488 -1.21596,-0.0986 -1.68867,0.0685 -0.0491,0.0173 0.0196,0.1322 0.18655,0.3114 0.34115,0.3661 0.69835,0.95364 0.82623,1.35901 0.0555,0.1759 0.11519,0.36178 0.13269,0.41308 0.044,0.12944 0.59687,-0.4902 0.79884,-0.89552 z"
         id="path6406"
         sodipodi:nodetypes="sssssscsssssssssssssssscssssssssscsssssssssssssssssssssssssssssssssssss" />
    </g>
  </g>
</svg>
