<?xml version="1.0" encoding="UTF-8" standalone="no"?>
<!-- Created with Inkscape (http://www.inkscape.org/) -->

<svg
   width="18.544001mm"
   height="5mm"
   viewBox="0 0 18.544 4.9999999"
   version="1.1"
   id="svg1"
   inkscape:version="1.4.2 (ebf0e940d0, 2025-05-08)"
   sodipodi:docname="5_1_1_72.svg"
   xmlns:inkscape="http://www.inkscape.org/namespaces/inkscape"
   xmlns:sodipodi="http://sodipodi.sourceforge.net/DTD/sodipodi-0.dtd"
   xmlns="http://www.w3.org/2000/svg"
   xmlns:svg="http://www.w3.org/2000/svg">
  <sodipodi:namedview
     id="namedview1"
     pagecolor="#ffffff"
     bordercolor="#000000"
     borderopacity="0.25"
     inkscape:showpageshadow="2"
     inkscape:pageopacity="0.0"
     inkscape:pagecheckerboard="0"
     inkscape:deskcolor="#d1d1d1"
     inkscape:document-units="mm"
     inkscape:zoom="2.6972018"
     inkscape:cx="64.511302"
     inkscape:cy="88.981106"
     inkscape:window-width="1075"
     inkscape:window-height="991"
     inkscape:window-x="26"
     inkscape:window-y="23"
     inkscape:window-maximized="0"
     inkscape:current-layer="layer1" />
  <defs
     id="defs1">
    <rect
       x="-26.458582"
       y="130.73653"
       width="155.86105"
       height="46.469273"
       id="rect2" />
    <rect
       x="13.485725"
       y="-52.819092"
       width="225.2477"
       height="118.63495"
       id="rect1" />
    <rect
       x="37.795277"
       y="37.795277"
       width="483.77954"
       height="718.11023"
       id="rect2721" />
    <rect
       x="37.795277"
       y="37.795277"
       width="483.77954"
       height="718.11023"
       id="rect2722" />
    <rect
       x="37.795277"
       y="37.795277"
       width="483.77954"
       height="718.11023"
       id="rect2723" />
    <rect
       x="37.795277"
       y="37.795277"
       width="483.77954"
       height="718.11023"
       id="rect2724" />
    <rect
       x="37.795277"
       y="37.795277"
       width="483.77954"
       height="718.11023"
       id="rect2725" />
    <rect
       x="37.795277"
       y="37.795277"
       width="483.77954"
       height="718.11023"
       id="rect2726" />
    <rect
       x="37.795277"
       y="37.795277"
       width="483.77954"
       height="718.11023"
       id="rect2727" />
    <rect
       x="37.795277"
       y="37.795277"
       width="483.77954"
       height="718.11023"
       id="rect2728" />
    <rect
       x="37.795277"
       y="37.795277"
       width="483.77954"
       height="718.11023"
       id="rect2729" />
    <rect
       x="37.795277"
       y="37.795277"
       width="483.77954"
       height="718.11023"
       id="rect2730" />
    <rect
       x="37.795277"
       y="37.795277"
       width="483.77954"
       height="718.11023"
       id="rect2731" />
    <rect
       x="37.795277"
       y="37.795277"
       width="483.77954"
       height="718.11023"
       id="rect2732" />
    <rect
       x="37.795277"
       y="37.795277"
       width="483.77954"
       height="718.11023"
       id="rect2733" />
    <rect
       x="37.795277"
       y="37.795277"
       width="483.77954"
       height="718.11023"
       id="rect2734" />
    <rect
       x="37.795277"
       y="37.795277"
       width="483.77954"
       height="718.11023"
       id="rect6439" />
    <rect
       x="37.795277"
       y="37.795277"
       width="483.77954"
       height="718.11023"
       id="rect6440" />
    <rect
       x="37.795277"
       y="37.795277"
       width="483.77954"
       height="718.11023"
       id="rect6441" />
    <rect
       x="37.795277"
       y="37.795277"
       width="483.77954"
       height="718.11023"
       id="rect6442" />
    <rect
       x="37.795277"
       y="37.795277"
       width="483.77954"
       height="718.11023"
       id="rect2743" />
    <rect
       x="37.795277"
       y="37.795277"
       width="483.77954"
       height="718.11023"
       id="rect2744" />
    <rect
       x="37.795277"
       y="37.795277"
       width="483.77954"
       height="718.11023"
       id="rect2745" />
    <rect
       x="37.795277"
       y="37.795277"
       width="483.77954"
       height="718.11023"
       id="rect6403" />
    <rect
       x="37.795277"
       y="37.795277"
       width="483.77954"
       height="718.11023"
       id="rect6443" />
    <rect
       x="37.795277"
       y="37.795277"
       width="483.77954"
       height="718.11023"
       id="rect6444" />
    <rect
       x="37.795277"
       y="37.795277"
       width="483.77954"
       height="718.11023"
       id="rect6445" />
    <rect
       x="37.795277"
       y="37.795277"
       width="483.77954"
       height="718.11023"
       id="rect6446" />
    <rect
       x="37.795277"
       y="37.795277"
       width="483.77954"
       height="718.11023"
       id="rect6469" />
    <rect
       x="37.795277"
       y="37.795277"
       width="483.77954"
       height="718.11023"
       id="rect6470" />
    <rect
       x="37.795277"
       y="37.795277"
       width="483.77954"
       height="718.11023"
       id="rect6471" />
    <rect
       x="37.795277"
       y="37.795277"
       width="483.77954"
       height="718.11023"
       id="rect6472" />
    <rect
       x="-26.458582"
       y="130.73653"
       width="155.86105"
       height="46.469273"
       id="rect30" />
    <rect
       x="-26.458582"
       y="130.73653"
       width="155.86105"
       height="46.469273"
       id="rect31" />
    <rect
       x="-26.458582"
       y="130.73653"
       width="155.86105"
       height="46.469273"
       id="rect32" />
    <rect
       x="-26.458582"
       y="130.73653"
       width="155.86105"
       height="46.469273"
       id="rect33" />
    <rect
       x="-26.458582"
       y="130.73653"
       width="155.86105"
       height="46.469273"
       id="rect34" />
    <rect
       x="-26.458582"
       y="130.73653"
       width="155.86105"
       height="46.469273"
       id="rect35" />
    <rect
       x="-26.458582"
       y="130.73653"
       width="155.86105"
       height="46.469273"
       id="rect38" />
    <rect
       x="-26.458582"
       y="130.73653"
       width="155.86105"
       height="46.469273"
       id="rect39" />
    <rect
       x="-26.458582"
       y="130.73653"
       width="155.86105"
       height="46.469273"
       id="rect40" />
    <rect
       x="-26.458582"
       y="130.73653"
       width="155.86105"
       height="46.469273"
       id="rect42" />
    <rect
       x="-26.458582"
       y="130.73653"
       width="155.86105"
       height="46.469273"
       id="rect43" />
    <rect
       x="-26.458582"
       y="130.73653"
       width="155.86105"
       height="46.469273"
       id="rect44" />
    <rect
       x="-26.458582"
       y="130.73653"
       width="155.86105"
       height="46.469273"
       id="rect46" />
    <rect
       x="-26.458582"
       y="130.73653"
       width="155.86105"
       height="46.469273"
       id="rect47" />
    <rect
       x="-26.458582"
       y="130.73653"
       width="155.86105"
       height="46.469273"
       id="rect48" />
  </defs>
  <g
     inkscape:label="Katman 1"
     inkscape:groupmode="layer"
     id="layer1">
    <g
       id="g2788"
       transform="matrix(0.71428541,0,0,0.71428541,-1032.8345,-24.883459)">
      <path
         style="fill:#d40000;stroke-width:0.242549"
         d="m 1447.9718,41.582968 c -0.7634,-0.252494 -1.3953,-0.805101 -1.7201,-1.504376 -0.5347,-1.151092 -0.3013,-2.395687 0.6183,-3.297375 0.2324,-0.227827 0.4337,-0.403028 0.4474,-0.389337 0.013,0.01369 -0.038,0.182005 -0.1144,0.374029 -0.1897,0.475763 -0.2001,1.423843 -0.021,1.889319 0.4774,1.238924 1.5149,1.98414 2.7622,1.98414 0.499,0 1.0988,-0.141013 1.3101,-0.308053 0.078,-0.06129 0.079,-0.04879 0.01,0.08596 -0.1671,0.313612 -0.7376,0.793678 -1.2092,1.017649 -0.4194,0.199162 -0.5429,0.227095 -1.0923,0.247182 -0.4822,0.01763 -0.7012,-0.0044 -0.9878,-0.09914 z m 3.6346,-1.79163 c 0.1185,-0.328643 0.1343,-0.545009 0.1541,-2.119327 l 0.022,-1.753318 -1.7854,0.022 c -1.6639,0.0205 -1.8092,0.03162 -2.1346,0.163478 -0.192,0.07782 -0.3603,0.130282 -0.3741,0.116591 -0.014,-0.01369 0.1579,-0.210355 0.3813,-0.43703 0.495,-0.502374 1.0394,-0.781569 1.7216,-0.882873 0.277,-0.04112 1.0623,-0.06307 1.8492,-0.05169 l 1.3678,0.01978 -0.01,1.712138 c -0.01,1.532109 -0.019,1.751414 -0.1337,2.085668 -0.2024,0.59163 -0.6619,1.18419 -1.1249,1.450734 -0.038,0.02192 -0.01,-0.124841 0.063,-0.326147 z"
         id="path2774"
         sodipodi:nodetypes="csscccsccsscccscsssssscccscc" />
      <path
         style="fill:#000000;stroke-width:0.242549"
         d="m 1460.3085,39.040275 v -2.796584 l 0.5616,0.01855 0.5615,0.01854 -0.021,0.17648 c -0.022,0.18633 0.078,0.243473 0.1399,0.08058 0.062,-0.160581 0.444,-0.352833 0.7022,-0.353087 0.3429,-3.4e-4 0.5998,0.153041 0.7502,0.447746 0.1192,0.23366 0.1287,0.37338 0.1259,1.843692 0,1.793053 -0.035,1.943697 -0.4462,2.155953 -0.2903,0.149758 -0.772,0.114744 -1.0283,-0.07475 -0.1021,-0.07555 -0.1994,-0.137374 -0.216,-0.137374 -0.016,0 -0.03,0.310444 -0.029,0.689875 v 0.689875 l -0.5511,0.01855 -0.551,0.01854 z m 1.4987,0.720787 c 0.098,-0.07192 0.1112,-0.212 0.1102,-1.20327 v -1.231925 c 0,-0.06053 -0.059,-0.140604 -0.1287,-0.17795 -0.1007,-0.05394 -0.1535,-0.0412 -0.2567,0.06192 -0.1202,0.120291 -0.1298,0.211197 -0.1298,1.238592 0,0.899662 0.019,1.135672 0.1,1.251401 0.1154,0.164782 0.1552,0.172716 0.3077,0.06123 z m 7.4858,1.653666 v -0.417133 h 1.1551 1.1551 v 0.417133 0.417134 h -1.1551 -1.1551 z m -11.8805,-0.781883 c -0.093,-0.05755 -0.2226,-0.193954 -0.2887,-0.303121 -0.109,-0.179873 -0.1222,-0.3775 -0.1413,-2.107673 l -0.022,-1.909189 h 0.5827 0.5826 v 1.544405 c 0,0.941874 0.026,1.592833 0.066,1.668534 0.037,0.07044 0.1338,0.12413 0.2222,0.12413 0.089,0 0.1848,-0.0537 0.2225,-0.12413 0.04,-0.0757 0.066,-0.72666 0.066,-1.668534 v -1.544405 h 0.5775 0.5775 v 2.149843 2.149843 h -0.5775 c -0.5502,0 -0.5775,-0.0066 -0.5775,-0.139536 v -0.139535 l -0.1445,0.13526 c -0.299,0.280145 -0.8364,0.357013 -1.1473,0.164108 z m 8.9476,-0.01348 c -0.3299,-0.207915 -0.4042,-0.425087 -0.4042,-1.18136 0,-0.869625 0.079,-0.99885 0.8306,-1.365565 0.595,-0.290147 0.8379,-0.519928 0.8379,-0.792675 0,-0.373469 -0.3739,-0.439394 -0.4785,-0.08436 l -0.061,0.208433 h -0.5642 c -0.5611,0 -0.5644,-9.1e-4 -0.5644,-0.162497 0,-0.22805 0.1483,-0.549945 0.3305,-0.717731 0.4937,-0.45451 1.6744,-0.454022 2.1615,9.1e-4 0.3224,0.300991 0.3317,0.365337 0.3317,2.287985 v 1.80007 h -0.5775 c -0.4818,0 -0.5776,-0.01669 -0.5776,-0.100631 0,-0.08324 -0.033,-0.07688 -0.1929,0.03677 -0.2837,0.20198 -0.8082,0.236576 -1.0714,0.07067 z m 1.136,-0.711287 c 0.073,-0.04581 0.1017,-0.220906 0.1186,-0.711551 0.012,-0.35793 0,-0.674634 -0.032,-0.703787 -0.065,-0.06342 -0.295,0.113052 -0.3979,0.305326 -0.041,0.07563 -0.074,0.335789 -0.074,0.578121 0,0.537434 0.118,0.70046 0.385,0.531891 z m 2.473,0.740909 c -0.537,-0.147907 -0.8673,-0.63175 -0.8683,-1.27179 v -0.240654 h 0.5455 0.5455 v 0.220433 c 0,0.344641 0.1023,0.54966 0.2743,0.54966 0.2869,0 0.3853,-0.262942 0.2279,-0.608608 -0.041,-0.09098 -0.3437,-0.36885 -0.6717,-0.617479 -0.8241,-0.624924 -1.0217,-0.98731 -0.8619,-1.580943 0.1484,-0.550943 0.6181,-0.865921 1.2976,-0.870082 0.7733,-0.0047 1.4023,0.527749 1.4023,1.187156 v 0.308027 h -0.5134 -0.5135 v -0.246752 c 0,-0.330418 -0.1862,-0.511855 -0.4173,-0.406551 -0.1965,0.08954 -0.212,0.316724 -0.035,0.5071 0.069,0.07408 0.3389,0.295285 0.5996,0.491559 0.8882,0.668388 1.1503,1.334992 0.7991,2.031542 -0.1077,0.213543 -0.2179,0.321803 -0.4332,0.425836 -0.3775,0.182304 -0.9678,0.234394 -1.3775,0.121546 z m -15.3224,-2.344163 0.017,-2.307784 -0.5631,-0.01856 -0.5631,-0.01856 -0.018,-0.561527 -0.018,-0.561526 h 1.7698 1.7698 l -0.018,0.561526 -0.018,0.561527 -0.5614,0.01854 -0.5616,0.01855 v 2.30778 2.30778 l -0.6257,2.7e-5 -0.6257,2.6e-5 z m 8.9347,0.125801 v -2.18193 h 0.5134 0.5134 v 0.237199 0.2372 l 0.2086,-0.197412 c 0.2773,-0.262433 0.4429,-0.341162 0.7178,-0.341162 h 0.2288 v 0.609658 0.609656 h -0.316 c -0.2463,0 -0.3595,0.03664 -0.5133,0.166141 l -0.1975,0.166141 v 1.43822 1.438219 h -0.5776 -0.5776 z m -6.3532,-3.016198 v -0.577569 h 0.5454 0.5455 v 0.577569 0.577571 h -0.5455 -0.5454 z m 1.3263,0.534787 c -0.023,-0.02353 -0.043,-0.283436 -0.043,-0.577569 v -0.534787 h 0.5455 0.5454 v 0.577569 0.577571 h -0.5026 c -0.2766,0 -0.522,-0.01925 -0.5455,-0.04279 z"
         id="path2775"
         sodipodi:nodetypes="ccccscsscssscccccccsssssccccccccccccsccccssscscccccsscsccssssccssssscsssssscccssssccccsscsssscccssssssscccccccccccccccccccccccsscccsscccccccccccccccsscccccsss" />
    </g>
  </g>
</svg>
