<?xml version="1.0" encoding="UTF-8" standalone="no"?>
<!-- Created with Inkscape (http://www.inkscape.org/) -->

<svg
   width="6mm"
   height="6mm"
   viewBox="0 0 6 6"
   version="1.1"
   id="svg1"
   inkscape:version="1.4.2 (ebf0e940d0, 2025-05-08)"
   sodipodi:docname="5_1_1_19.svg"
   xmlns:inkscape="http://www.inkscape.org/namespaces/inkscape"
   xmlns:sodipodi="http://sodipodi.sourceforge.net/DTD/sodipodi-0.dtd"
   xmlns="http://www.w3.org/2000/svg"
   xmlns:svg="http://www.w3.org/2000/svg">
  <sodipodi:namedview
     id="namedview1"
     pagecolor="#ffffff"
     bordercolor="#000000"
     borderopacity="0.25"
     inkscape:showpageshadow="2"
     inkscape:pageopacity="0.0"
     inkscape:pagecheckerboard="0"
     inkscape:deskcolor="#d1d1d1"
     inkscape:document-units="mm"
     inkscape:zoom="23.967923"
     inkscape:cx="22.759586"
     inkscape:cy="12.975676"
     inkscape:window-width="1920"
     inkscape:window-height="1014"
     inkscape:window-x="0"
     inkscape:window-y="0"
     inkscape:window-maximized="1"
     inkscape:current-layer="layer1" />
  <defs
     id="defs1">
    <rect
       x="13.485725"
       y="-52.819092"
       width="225.2477"
       height="118.63495"
       id="rect1" />
    <rect
       x="37.795277"
       y="37.795277"
       width="483.77954"
       height="718.11023"
       id="rect2721" />
    <rect
       x="37.795277"
       y="37.795277"
       width="483.77954"
       height="718.11023"
       id="rect2722" />
    <rect
       x="37.795277"
       y="37.795277"
       width="483.77954"
       height="718.11023"
       id="rect2723" />
    <rect
       x="37.795277"
       y="37.795277"
       width="483.77954"
       height="718.11023"
       id="rect2724" />
    <rect
       x="37.795277"
       y="37.795277"
       width="483.77954"
       height="718.11023"
       id="rect2725" />
    <rect
       x="37.795277"
       y="37.795277"
       width="483.77954"
       height="718.11023"
       id="rect2726" />
    <rect
       x="37.795277"
       y="37.795277"
       width="483.77954"
       height="718.11023"
       id="rect2727" />
    <rect
       x="37.795277"
       y="37.795277"
       width="483.77954"
       height="718.11023"
       id="rect2728" />
    <rect
       x="37.795277"
       y="37.795277"
       width="483.77954"
       height="718.11023"
       id="rect2729" />
    <rect
       x="37.795277"
       y="37.795277"
       width="483.77954"
       height="718.11023"
       id="rect2730" />
    <rect
       x="37.795277"
       y="37.795277"
       width="483.77954"
       height="718.11023"
       id="rect2731" />
    <rect
       x="37.795277"
       y="37.795277"
       width="483.77954"
       height="718.11023"
       id="rect2732" />
    <rect
       x="37.795277"
       y="37.795277"
       width="483.77954"
       height="718.11023"
       id="rect2733" />
    <rect
       x="37.795277"
       y="37.795277"
       width="483.77954"
       height="718.11023"
       id="rect2734" />
  </defs>
  <g
     inkscape:label="Katman 1"
     inkscape:groupmode="layer"
     id="layer1">
    <g
       id="g17"
       transform="matrix(0.74999561,0,0,0.74999561,-719.28963,-65.293031)">
      <path
         style="fill:#e9ddaf;fill-opacity:1;stroke:none;stroke-width:0.264999;stroke-dasharray:none"
         d="m 962.85361,94.047904 1.36493,0.183139 1.38237,-0.183253 0.71512,-0.505692 0.49596,-0.783093 0.1202,-0.958191 -0.3697,-0.765493 -1.12469,-1.086429 -0.67668,-0.06504 -0.53173,-0.675748 -0.0887,-0.397306 -1.0822,-0.671516 -1.0214,-0.216146 -0.86955,0.203065 -1.20793,0.621692 -0.50208,0.632918 -0.27709,1.096298 0.0796,1.498066 0.59586,0.901755 1.24587,0.680538 z"
         id="path4032" />
      <path
         style="fill:#d3bc5f;fill-opacity:1;stroke:none;stroke-width:0.264999;stroke-dasharray:none"
         d="m 961.33953,89.732931 0.12126,0.342871 0.81862,0.405527 0.68411,-0.0039 0.35541,-0.204059 -0.0867,-0.317752 -0.37489,-0.328377 -1.09487,-0.219128 z"
         id="path4033" />
      <path
         style="fill:#000000;stroke-width:0.171766"
         d="m 963.45904,94.267841 c -0.69876,-0.10314 -2.21337,-0.53558 -2.80413,-0.80063 -0.65114,-0.29215 -1.13832,-0.70826 -1.37492,-1.17435 -0.17079,-0.33647 -0.24236,-0.831396 -0.21633,-1.496481 0.0594,-1.518856 0.71146,-2.376389 2.14579,-2.821934 0.91038,-0.282793 1.75216,-0.119313 2.71381,0.527058 l 0.45036,0.302691 -0.0296,0.175289 c -0.0237,0.140294 -0.007,0.214482 0.0855,0.371574 0.16945,0.289062 0.44159,0.453207 0.78977,0.476271 l 0.28313,0.01875 0.40179,0.415144 c 0.22098,0.228328 0.51688,0.524105 0.65755,0.657282 0.28525,0.270073 0.43389,0.535448 0.48117,0.859096 0.0993,0.67967 -0.28855,1.65064 -0.81307,2.03568 -0.6105,0.44815 -1.65407,0.61935 -2.77071,0.45455 z m 1.83281,-0.27082 c 0.67324,-0.18285 1.03458,-0.47091 1.30543,-1.04068 0.28057,-0.59021 0.3211,-1.191091 0.10303,-1.527444 -0.0416,-0.06395 -0.3561,-0.397478 -0.69917,-0.741165 -0.60062,-0.601689 -0.63076,-0.624889 -0.81181,-0.624889 -0.38149,0 -0.78926,-0.269729 -0.97685,-0.646164 -0.0644,-0.129344 -0.11716,-0.299764 -0.11716,-0.378719 0,-0.123298 -0.037,-0.16933 -0.26131,-0.326191 -0.59715,-0.417344 -1.21694,-0.646534 -1.75208,-0.647896 -0.48617,-0.0012 -1.25007,0.229588 -1.70023,0.513762 -0.36034,0.227471 -0.24714,0.255 0.30458,0.07408 0.25539,-0.08375 0.38405,-0.05703 0.33543,0.06964 -0.03,0.07819 -0.17727,0.134776 -0.64912,0.249397 -0.22516,0.05472 -0.445,0.140652 -0.53464,0.209029 -0.33372,0.254541 -0.5676,0.981567 -0.56918,1.769287 -0.003,1.577133 0.61061,2.155533 2.98488,2.812963 0.22435,0.0621 0.41516,0.10571 0.424,0.0969 0.0519,-0.052 -0.17923,-0.27602 -0.39994,-0.38742 -0.25463,-0.12855 -0.54559,-0.40333 -0.54559,-0.51526 0,-0.0859 0.0933,-0.16276 0.16468,-0.13544 0.0344,0.0133 0.0625,0.0507 0.0625,0.0833 0,0.0811 0.24031,0.27665 0.5046,0.41058 0.15787,0.08 0.27007,0.18619 0.40198,0.38043 0.19385,0.28549 0.25234,0.31286 0.82039,0.38404 0.3264,0.0409 1.34439,-0.0111 1.60558,-0.0821 z m -1.91982,-0.75681 c -0.43847,-0.0861 -0.69716,-0.40104 -0.53394,-0.65015 0.19072,-0.29104 0.93028,-0.38263 1.36435,-0.16893 0.2304,0.11342 0.35644,0.30109 0.31321,0.46638 -0.037,0.14126 -0.26771,0.30011 -0.51216,0.35254 -0.26087,0.0559 -0.34711,0.056 -0.63146,1.6e-4 z m 0.60944,-0.22804 c 0.1095,-0.0276 0.23272,-0.0873 0.27379,-0.13265 0.0695,-0.0768 0.0683,-0.0888 -0.017,-0.17414 -0.196,-0.196 -0.71734,-0.24548 -1.04055,-0.0988 -0.21584,0.098 -0.23505,0.14758 -0.10201,0.26298 0.19586,0.16978 0.55075,0.2269 0.88565,0.14256 z m 1.49947,0.12357 c -0.12637,-0.0924 -0.10542,-0.35631 0.0438,-0.5519 0.31797,-0.41686 0.84081,-0.39203 0.78325,0.0372 -0.0516,0.3848 -0.56649,0.70523 -0.82705,0.5147 z m 0.45949,-0.31886 c 0.16859,-0.16858 0.20087,-0.29995 0.0737,-0.29995 -0.11666,0 -0.27278,0.12151 -0.35122,0.27319 -0.0879,0.16996 -0.0862,0.18128 0.0274,0.18128 0.0525,0 0.16502,-0.0695 0.24995,-0.15451 z m -5.41803,-0.29543 c -0.10286,-0.0471 -0.22101,-0.13381 -0.26243,-0.19274 -0.18321,-0.26069 -0.18421,-0.697979 -10e-4,-0.697979 0.0722,0 0.0877,0.03261 0.0877,0.186183 0,0.259766 0.0938,0.408036 0.32782,0.518026 0.1393,0.0655 0.19628,0.1181 0.18595,0.17176 -0.0211,0.10928 -0.12109,0.11366 -0.33733,0.0148 z m 0.77794,-0.22801 c -0.33858,-0.0829 -0.46237,-0.26717 -0.32271,-0.48031 0.10338,-0.157766 0.3176,-0.256665 0.61426,-0.283564 0.62864,-0.057 0.92838,0.408357 0.42605,0.661424 -0.20423,0.10288 -0.52743,0.14903 -0.7176,0.10245 z m 0.43384,-0.2308 c 0.0886,-0.0246 0.20113,-0.0756 0.24995,-0.11335 0.0879,-0.06788 0.0879,-0.0693 5.1e-4,-0.136771 -0.11921,-0.09215 -0.46698,-0.08612 -0.65893,0.01141 -0.20168,0.102487 -0.22047,0.172531 -0.0618,0.230391 0.16673,0.0608 0.27431,0.0627 0.47019,0.008 z m 2.97078,-0.428338 c -0.0772,-0.03357 -0.18447,-0.117337 -0.23859,-0.186135 -0.28648,-0.364201 0.11853,-0.707558 0.59612,-0.505406 0.1888,0.07992 0.29714,0.204094 0.33256,0.381177 0.0601,0.300327 -0.32026,0.471382 -0.69009,0.310364 z m 0.46954,-0.240873 c 0.0347,-0.105825 -0.20063,-0.285333 -0.37415,-0.285333 -0.22112,0 -0.26247,0.114443 -0.0938,0.259542 0.0928,0.07979 0.16979,0.105195 0.28813,0.0951 0.0889,-0.0077 0.16979,-0.03876 0.17981,-0.06929 z m -4.80772,0.0078 c -0.0862,-0.103952 0.0421,-0.212531 0.25932,-0.219423 0.14101,-0.0044 0.17434,0.01039 0.17434,0.07824 0,0.05688 -0.0584,0.104071 -0.1818,0.147021 -0.1,0.03479 -0.1844,0.06357 -0.18757,0.06395 -0.003,3.78e-4 -0.032,-0.03101 -0.0642,-0.06976 z m -0.35838,-0.503761 c -0.1913,-0.24322 -0.085,-0.940444 0.15753,-1.033532 0.28421,-0.109061 0.4459,0.06238 0.44208,0.468731 -0.005,0.53438 -0.36032,0.86903 -0.59964,0.564801 z m 0.36007,-0.379304 c 0.0894,-0.331879 -0.0613,-0.616953 -0.17449,-0.330348 -0.0894,0.22604 -0.10372,0.353972 -0.0543,0.483901 0.0405,0.106217 0.0601,0.118615 0.11581,0.07246 0.037,-0.03062 0.0877,-0.132323 0.11291,-0.226016 z m 2.02259,0.10373 c -0.426,-0.05662 -0.94597,-0.326222 -1.08578,-0.562957 -0.18621,-0.315178 10e-4,-0.642496 0.40249,-0.702658 0.50487,-0.07572 1.32707,0.135474 1.28754,0.330716 -0.0201,0.09929 -0.11717,0.09307 -0.44518,-0.02848 -0.48596,-0.180067 -1.09073,-0.09579 -1.09073,0.151994 0,0.154003 0.30896,0.403961 0.62633,0.506732 0.33989,0.110066 0.81823,0.110321 0.98577,5.5e-4 0.10729,-0.07033 0.11972,-0.101312 0.0942,-0.236701 -0.023,-0.122089 -0.0136,-0.162161 0.0477,-0.185286 0.0976,-0.03741 0.20011,0.09614 0.20011,0.260489 0,0.188671 -0.15889,0.350675 -0.41976,0.428166 -0.22824,0.06778 -0.328,0.07398 -0.60278,0.03745 z m -1.11344,-2.113266 c 0,-0.155808 0.4407,-0.236546 0.61109,-0.111956 0.16008,0.117014 0.062,0.182415 -0.28433,0.189419 -0.29001,0.006 -0.32676,-0.0029 -0.32676,-0.07747 z"
         id="path3923" />
    </g>
  </g>
</svg>
