<?xml version="1.0" encoding="UTF-8" standalone="no"?>
<!-- Created with Inkscape (http://www.inkscape.org/) -->

<svg
   width="6mm"
   height="6mm"
   viewBox="0 0 6 6"
   version="1.1"
   id="svg1"
   inkscape:version="1.4.2 (ebf0e940d0, 2025-05-08)"
   sodipodi:docname="5_1_1_14.svg"
   xmlns:inkscape="http://www.inkscape.org/namespaces/inkscape"
   xmlns:sodipodi="http://sodipodi.sourceforge.net/DTD/sodipodi-0.dtd"
   xmlns="http://www.w3.org/2000/svg"
   xmlns:svg="http://www.w3.org/2000/svg">
  <sodipodi:namedview
     id="namedview1"
     pagecolor="#ffffff"
     bordercolor="#000000"
     borderopacity="0.25"
     inkscape:showpageshadow="2"
     inkscape:pageopacity="0.0"
     inkscape:pagecheckerboard="0"
     inkscape:deskcolor="#d1d1d1"
     inkscape:document-units="mm"
     inkscape:zoom="16.594952"
     inkscape:cx="12.74484"
     inkscape:cy="10.12356"
     inkscape:window-width="1920"
     inkscape:window-height="1014"
     inkscape:window-x="0"
     inkscape:window-y="0"
     inkscape:window-maximized="1"
     inkscape:current-layer="layer1" />
  <defs
     id="defs1">
    <rect
       x="13.485725"
       y="-52.819092"
       width="225.2477"
       height="118.63495"
       id="rect1" />
    <rect
       x="37.795277"
       y="37.795277"
       width="483.77954"
       height="718.11023"
       id="rect2721" />
    <rect
       x="37.795277"
       y="37.795277"
       width="483.77954"
       height="718.11023"
       id="rect2722" />
    <rect
       x="37.795277"
       y="37.795277"
       width="483.77954"
       height="718.11023"
       id="rect2723" />
    <rect
       x="37.795277"
       y="37.795277"
       width="483.77954"
       height="718.11023"
       id="rect2724" />
    <rect
       x="37.795277"
       y="37.795277"
       width="483.77954"
       height="718.11023"
       id="rect2725" />
    <rect
       x="37.795277"
       y="37.795277"
       width="483.77954"
       height="718.11023"
       id="rect2726" />
    <rect
       x="37.795277"
       y="37.795277"
       width="483.77954"
       height="718.11023"
       id="rect2727" />
    <rect
       x="37.795277"
       y="37.795277"
       width="483.77954"
       height="718.11023"
       id="rect2728" />
    <rect
       x="37.795277"
       y="37.795277"
       width="483.77954"
       height="718.11023"
       id="rect2729" />
    <rect
       x="37.795277"
       y="37.795277"
       width="483.77954"
       height="718.11023"
       id="rect2730" />
    <rect
       x="37.795277"
       y="37.795277"
       width="483.77954"
       height="718.11023"
       id="rect2731" />
    <rect
       x="37.795277"
       y="37.795277"
       width="483.77954"
       height="718.11023"
       id="rect2732" />
    <rect
       x="37.795277"
       y="37.795277"
       width="483.77954"
       height="718.11023"
       id="rect2733" />
    <rect
       x="37.795277"
       y="37.795277"
       width="483.77954"
       height="718.11023"
       id="rect2734" />
  </defs>
  <g
     inkscape:label="Katman 1"
     inkscape:groupmode="layer"
     id="layer1">
    <g
       id="g12"
       transform="matrix(0.73430117,0,0,0.73430117,-704.23777,-25.027249)">
      <path
         style="fill:#ffe680;fill-opacity:1;stroke:none;stroke-width:0.264999;stroke-dasharray:none"
         d="m 961.39554,41.828733 1.09435,0.315515 1.12268,-0.03844 1.02555,-0.326004 1.09421,-0.73711 0.76531,-1.034389 0.34636,-0.888174 0.14134,-1.275305 -0.314,-1.334778 -0.64384,-1.024798 -0.95584,-0.827439 -1.04343,-0.401677 -1.45884,-0.07329 -1.2914,0.420513 -1.12247,0.896479 -0.48879,0.759127 -0.41196,1.096592 -0.11318,1.137711 0.16726,1.06548 0.47977,0.934492 0.81942,0.868307 z"
         id="path3996" />
      <path
         style="fill:#d3bc5f;fill-opacity:1;stroke:none;stroke-width:0.264999;stroke-dasharray:none"
         d="m 959.81352,36.03099 1.91627,0.120766 1.55594,-0.172511 1.93609,-0.145293 0.94667,-0.124272 -0.61891,-0.638149 -0.71387,-0.504552 -0.80748,-0.310846 -0.98894,-0.07329 -0.93117,0.106725 -1.07947,0.512922 -0.87313,0.697346 z"
         id="path3997" />
      <path
         style="fill:#d3bc5f;fill-opacity:1;stroke:none;stroke-width:0.264999;stroke-dasharray:none"
         d="m 959.28054,39.378421 -0.13895,-0.885155 v -0.358111 l 1.37556,-0.09592 1.68932,-0.19458 2.12635,-0.156318 1.19483,-0.437711 1.2116,-0.451884 0.19902,0.549957 -0.0106,1.59253 -1.09455,0.06959 -1.22934,0.02846 -1.02904,0.259149 -1.77081,0.191966 -1.22795,0.07676 z"
         id="path3998" />
      <path
         style="fill:#000000;stroke-width:0.223171"
         d="m 962.40794,42.222484 c -1.57763,-0.239757 -2.82126,-1.37885 -3.2507,-2.977431 -0.22216,-0.826984 -0.0591,-2.062422 0.38464,-2.914746 0.58232,-1.118458 1.43209,-1.809723 2.62764,-2.137534 0.40331,-0.110586 0.57078,-0.124844 1.15142,-0.09804 1.08645,0.05015 1.80022,0.364227 2.57474,1.132933 0.37902,0.376182 0.52887,0.578563 0.72302,0.976442 0.34088,0.698568 0.44167,1.138406 0.43976,1.919044 -10e-4,0.57623 -0.0238,0.715873 -0.19802,1.237536 -0.55417,1.658861 -1.96491,2.76317 -3.68669,2.8859 -0.22733,0.0162 -0.57194,0.0054 -0.76581,-0.0241 z m 1.47673,-0.264028 c 0.19356,-0.05025 0.4906,-0.154676 0.66006,-0.232067 0.32594,-0.148844 0.86699,-0.499229 0.82923,-0.536999 -0.0412,-0.0412 -0.77886,0.09738 -1.16688,0.219225 -0.27516,0.0864 -0.65126,0.134001 -1.32858,0.168146 -0.94829,0.0478 -1.43517,0.142982 -1.25297,0.244941 0.40057,0.224169 1.63462,0.298871 2.25914,0.136754 z m -2.2631,-0.38893 c 0.24511,-0.09893 0.50247,-0.13525 1.19789,-0.16905 0.6589,-0.03203 1.03096,-0.08193 1.45288,-0.194864 0.31196,-0.0835 0.73709,-0.170348 0.94477,-0.193001 0.20767,-0.02266 0.4215,-0.06381 0.47516,-0.09146 0.10836,-0.05583 0.64052,-0.741894 0.64052,-0.825754 0,-0.109965 -0.42133,-0.04575 -1.19136,0.181598 -1.04856,0.309574 -1.56635,0.414653 -2.04535,0.415076 -0.2171,1.91e-4 -0.65811,0.04005 -0.98005,0.08857 -0.32192,0.04852 -0.87824,0.08822 -1.23628,0.08822 h -0.65095 l 0.17343,0.181667 c 0.14649,0.153447 0.82212,0.644998 0.88654,0.644998 0.0114,0 0.16109,-0.0567 0.3328,-0.126 z m 0.28009,-0.941337 c 0.14474,-0.03335 0.6363,-0.08426 1.09238,-0.113136 0.82062,-0.05195 1.03199,-0.09551 2.41536,-0.497824 0.2878,-0.0837 0.63661,-0.152178 0.77515,-0.152178 0.2827,0 0.32297,-0.03614 0.46283,-0.415306 0.15424,-0.418144 0.13937,-0.467405 -0.12269,-0.406549 -0.12178,0.02828 -0.56881,0.05206 -0.9934,0.05283 -0.63889,0.0011 -0.85273,0.02558 -1.24038,0.141608 -0.25762,0.07711 -0.69408,0.1575 -0.96992,0.178643 -0.27584,0.02115 -0.90939,0.09602 -1.40789,0.166392 -0.90004,0.127059 -0.91169,0.127199 -1.66997,0.02007 -0.41999,-0.05933 -0.77496,-0.09654 -0.78883,-0.08268 -0.0342,0.0342 0.23642,0.61146 0.43158,0.920603 l 0.15835,0.250845 0.79714,-0.0013 c 0.43843,-7.14e-4 0.91556,-0.02863 1.06029,-0.06198 z m -0.14505,-1.207756 c 0.29228,-0.04855 0.85029,-0.114934 1.23999,-0.147522 0.38972,-0.03258 0.94753,-0.125259 1.23959,-0.205935 0.43787,-0.120956 0.66372,-0.146684 1.28766,-0.146684 0.86851,0 1.25935,-0.07395 1.31484,-0.248787 0.0618,-0.194734 0.0421,-1.069903 -0.0322,-1.427608 l -0.0696,-0.334858 -0.21686,0.03763 c -0.11928,0.02071 -0.49891,0.165477 -0.84361,0.321731 -1.04753,0.474837 -1.29811,0.53327 -2.5323,0.590535 -0.63606,0.02951 -1.36173,0.101451 -1.73715,0.17221 -0.39119,0.07373 -0.89047,0.121844 -1.26952,0.122333 -0.93902,0.0012 -0.9126,-0.01464 -0.87407,0.524792 0.0176,0.246777 0.0484,0.48955 0.0684,0.539496 0.0259,0.06471 0.21836,0.117576 0.66958,0.183926 0.82906,0.121909 1.11562,0.124969 1.75516,0.01874 z m -0.20667,-1.589552 c 0.24357,-0.05159 0.94771,-0.118511 1.56476,-0.14871 1.25871,-0.06161 1.44148,-0.102606 2.38356,-0.534738 0.34533,-0.158396 0.74079,-0.305985 0.87882,-0.327968 0.30755,-0.049 0.31343,-0.109007 0.0574,-0.585836 l -0.19024,-0.354285 -0.32476,-0.0187 c -0.17862,-0.01029 -0.56391,0.0241 -0.85619,0.07643 -0.29228,0.05233 -0.86356,0.104871 -1.26952,0.116765 -0.40595,0.0119 -1.0171,0.06651 -1.35809,0.121373 -0.54315,0.08739 -0.72246,0.09086 -1.44666,0.02799 -1.12616,-0.09776 -1.14567,-0.09387 -1.34054,0.266629 -0.17571,0.325055 -0.40133,1.090641 -0.40143,1.362116 l -5e-5,0.173121 0.93005,-0.04019 c 0.51153,-0.0221 1.12934,-0.0824 1.37291,-0.13399 z m 1.09238,-1.866611 c 0.12991,-0.03331 0.60819,-0.07362 1.06285,-0.08957 0.45467,-0.01596 1.05253,-0.06785 1.32857,-0.115327 0.27605,-0.04747 0.60155,-0.0864 0.72333,-0.0865 0.13407,-1.16e-4 0.22144,-0.02845 0.22144,-0.07181 0,-0.03939 -0.14457,-0.20832 -0.32125,-0.375395 -0.34471,-0.325978 -1.05921,-0.724493 -1.53875,-0.858252 -0.42066,-0.117332 -1.62401,-0.10604 -2.01905,0.01895 -0.73981,0.234063 -1.52308,0.758133 -1.96721,1.316209 l -0.18768,0.235823 0.55173,0.04261 c 0.30346,0.02343 0.60489,0.05482 0.66983,0.06973 0.18186,0.04177 1.21123,-0.01853 1.47619,-0.08646 z"
         id="path3857"
         sodipodi:nodetypes="ssssssscsssssssssssssssssssscsssssssssssssssscssssssssscssssssssssssssscssssssscsssssssssssscssss" />
    </g>
  </g>
</svg>
