<?xml version="1.0" encoding="UTF-8" standalone="no"?>
<!-- Created with Inkscape (http://www.inkscape.org/) -->

<svg
   width="20.867001mm"
   height="5mm"
   viewBox="0 0 20.867 4.9999999"
   version="1.1"
   id="svg1"
   inkscape:version="1.4.2 (ebf0e940d0, 2025-05-08)"
   sodipodi:docname="5_1_1_82.svg"
   xmlns:inkscape="http://www.inkscape.org/namespaces/inkscape"
   xmlns:sodipodi="http://sodipodi.sourceforge.net/DTD/sodipodi-0.dtd"
   xmlns="http://www.w3.org/2000/svg"
   xmlns:svg="http://www.w3.org/2000/svg">
  <sodipodi:namedview
     id="namedview1"
     pagecolor="#ffffff"
     bordercolor="#000000"
     borderopacity="0.25"
     inkscape:showpageshadow="2"
     inkscape:pageopacity="0.0"
     inkscape:pagecheckerboard="0"
     inkscape:deskcolor="#d1d1d1"
     inkscape:document-units="mm"
     inkscape:zoom="5.8369577"
     inkscape:cx="51.396638"
     inkscape:cy="42.830531"
     inkscape:window-width="1075"
     inkscape:window-height="991"
     inkscape:window-x="26"
     inkscape:window-y="23"
     inkscape:window-maximized="0"
     inkscape:current-layer="layer1" />
  <defs
     id="defs1">
    <rect
       x="-26.458582"
       y="130.73653"
       width="155.86105"
       height="46.469273"
       id="rect2" />
    <rect
       x="13.485725"
       y="-52.819092"
       width="225.2477"
       height="118.63495"
       id="rect1" />
    <rect
       x="37.795277"
       y="37.795277"
       width="483.77954"
       height="718.11023"
       id="rect2721" />
    <rect
       x="37.795277"
       y="37.795277"
       width="483.77954"
       height="718.11023"
       id="rect2722" />
    <rect
       x="37.795277"
       y="37.795277"
       width="483.77954"
       height="718.11023"
       id="rect2723" />
    <rect
       x="37.795277"
       y="37.795277"
       width="483.77954"
       height="718.11023"
       id="rect2724" />
    <rect
       x="37.795277"
       y="37.795277"
       width="483.77954"
       height="718.11023"
       id="rect2725" />
    <rect
       x="37.795277"
       y="37.795277"
       width="483.77954"
       height="718.11023"
       id="rect2726" />
    <rect
       x="37.795277"
       y="37.795277"
       width="483.77954"
       height="718.11023"
       id="rect2727" />
    <rect
       x="37.795277"
       y="37.795277"
       width="483.77954"
       height="718.11023"
       id="rect2728" />
    <rect
       x="37.795277"
       y="37.795277"
       width="483.77954"
       height="718.11023"
       id="rect2729" />
    <rect
       x="37.795277"
       y="37.795277"
       width="483.77954"
       height="718.11023"
       id="rect2730" />
    <rect
       x="37.795277"
       y="37.795277"
       width="483.77954"
       height="718.11023"
       id="rect2731" />
    <rect
       x="37.795277"
       y="37.795277"
       width="483.77954"
       height="718.11023"
       id="rect2732" />
    <rect
       x="37.795277"
       y="37.795277"
       width="483.77954"
       height="718.11023"
       id="rect2733" />
    <rect
       x="37.795277"
       y="37.795277"
       width="483.77954"
       height="718.11023"
       id="rect2734" />
    <rect
       x="37.795277"
       y="37.795277"
       width="483.77954"
       height="718.11023"
       id="rect6439" />
    <rect
       x="37.795277"
       y="37.795277"
       width="483.77954"
       height="718.11023"
       id="rect6440" />
    <rect
       x="37.795277"
       y="37.795277"
       width="483.77954"
       height="718.11023"
       id="rect6441" />
    <rect
       x="37.795277"
       y="37.795277"
       width="483.77954"
       height="718.11023"
       id="rect6442" />
    <rect
       x="37.795277"
       y="37.795277"
       width="483.77954"
       height="718.11023"
       id="rect2743" />
    <rect
       x="37.795277"
       y="37.795277"
       width="483.77954"
       height="718.11023"
       id="rect2744" />
    <rect
       x="37.795277"
       y="37.795277"
       width="483.77954"
       height="718.11023"
       id="rect2745" />
    <rect
       x="37.795277"
       y="37.795277"
       width="483.77954"
       height="718.11023"
       id="rect6403" />
    <rect
       x="37.795277"
       y="37.795277"
       width="483.77954"
       height="718.11023"
       id="rect6443" />
    <rect
       x="37.795277"
       y="37.795277"
       width="483.77954"
       height="718.11023"
       id="rect6444" />
    <rect
       x="37.795277"
       y="37.795277"
       width="483.77954"
       height="718.11023"
       id="rect6445" />
    <rect
       x="37.795277"
       y="37.795277"
       width="483.77954"
       height="718.11023"
       id="rect6446" />
    <rect
       x="37.795277"
       y="37.795277"
       width="483.77954"
       height="718.11023"
       id="rect6469" />
    <rect
       x="37.795277"
       y="37.795277"
       width="483.77954"
       height="718.11023"
       id="rect6470" />
    <rect
       x="37.795277"
       y="37.795277"
       width="483.77954"
       height="718.11023"
       id="rect6471" />
    <rect
       x="37.795277"
       y="37.795277"
       width="483.77954"
       height="718.11023"
       id="rect6472" />
    <rect
       x="-26.458582"
       y="130.73653"
       width="155.86105"
       height="46.469273"
       id="rect30" />
    <rect
       x="-26.458582"
       y="130.73653"
       width="155.86105"
       height="46.469273"
       id="rect31" />
    <rect
       x="-26.458582"
       y="130.73653"
       width="155.86105"
       height="46.469273"
       id="rect32" />
    <rect
       x="-26.458582"
       y="130.73653"
       width="155.86105"
       height="46.469273"
       id="rect33" />
    <rect
       x="-26.458582"
       y="130.73653"
       width="155.86105"
       height="46.469273"
       id="rect34" />
    <rect
       x="-26.458582"
       y="130.73653"
       width="155.86105"
       height="46.469273"
       id="rect35" />
    <rect
       x="-26.458582"
       y="130.73653"
       width="155.86105"
       height="46.469273"
       id="rect38" />
    <rect
       x="-26.458582"
       y="130.73653"
       width="155.86105"
       height="46.469273"
       id="rect39" />
    <rect
       x="-26.458582"
       y="130.73653"
       width="155.86105"
       height="46.469273"
       id="rect40" />
    <rect
       x="-26.458582"
       y="130.73653"
       width="155.86105"
       height="46.469273"
       id="rect42" />
    <rect
       x="-26.458582"
       y="130.73653"
       width="155.86105"
       height="46.469273"
       id="rect43" />
    <rect
       x="-26.458582"
       y="130.73653"
       width="155.86105"
       height="46.469273"
       id="rect44" />
    <rect
       x="-26.458582"
       y="130.73653"
       width="155.86105"
       height="46.469273"
       id="rect46" />
    <rect
       x="-26.458582"
       y="130.73653"
       width="155.86105"
       height="46.469273"
       id="rect47" />
    <rect
       x="-26.458582"
       y="130.73653"
       width="155.86105"
       height="46.469273"
       id="rect48" />
  </defs>
  <g
     inkscape:label="Katman 1"
     inkscape:groupmode="layer"
     id="layer1">
    <path
       style="fill:#032272;fill-opacity:1;stroke-width:0.423846"
       d="m 1.8225289,4.8294256 c -0.7065,-0.0917 -1.57489996,-0.43275 -1.80369996,-0.70843 -0.08,-0.0965 0.095,-0.0719 0.5236,0.0739 1.18649996,0.40315 4.09109996,0.1515 7.37239996,-0.6387 l 1.1214,-0.27006 -1.0373,-0.009 c -0.6107,-0.006 -1.0373,-0.0553 -1.0373,-0.12131 0,-0.0616 0.076,-0.11214 0.1682,-0.11214 0.1406,0 0.1682,-0.23051 0.1682,-1.40178 0,-1.17126001 -0.028,-1.40178001 -0.1682,-1.40178001 -0.092,0 -0.1682,-0.0505 -0.1682,-0.11214 0,-0.0633 0.3177,-0.11215 0.7289,-0.11215 0.4112,0 0.729,0.0489 0.729,0.11215 0,0.0617 -0.076,0.11214 -0.1683,0.11214 -0.1405,0 -0.1682,0.23052 -0.1682,1.40178001 v 1.40178 h 0.3976 c 0.3933,0 0.6899,-0.21072 1.0353,-0.73552 0.123,-0.18681 0.1338,-0.14068 0.076,0.32521 -0.066,0.52806 -0.061,0.54074 0.1932,0.464 0.1434,-0.0434 0.2933001,-0.11108 0.3330001,-0.1504 0.04,-0.0394 0.3142,-0.71597 0.6099,-1.50364 0.2955,-0.78768001 0.5831,-1.41692001 0.639,-1.39830001 0.056,0.0186 0.3365,0.6126 0.6237,1.31999001 0.3935,0.96918 0.5706,1.28386 0.7185,1.27682 0.108,-0.005 0.4738,-0.0178 0.813,-0.028 l 0.6168,-0.0187 v -1.1853 c 0,-1.16504001 -0.01,-1.18468001 -0.2523,-1.14945001 -0.1555,0.0221 -0.3169,0.17478 -0.4205,0.39787 -0.2097,0.45129001 -0.3365,0.46622001 -0.3365,0.0396 0,-0.67439 0.017,-0.68202 1.4699,-0.68202 h 1.3337 v 0.50464 c 0,0.27755 -0.051,0.50464001 -0.1121,0.50464001 -0.062,0 -0.1122,-0.0931 -0.1122,-0.20691001 0,-0.2501 -0.3391,-0.57809 -0.5976,-0.57809 -0.1637,0 -0.1874,0.15564 -0.1874,1.23357001 v 1.23356 h 0.3415 c 0.3386,0 0.8921,0.41655 0.8921,0.67137 0,0.20432 -0.3169,0.89272 -0.5832,1.26657 l -0.2527,0.35493 -0.084,-0.50161 c -0.059,-0.35003 -0.1869,-0.59482 -0.4249,-0.81001 -0.3315,-0.2997 -0.3784,-0.30839 -1.6631,-0.30839 -1.1722,0 -1.6926,0.0755 -4.5984001,0.66697 -4.2741,0.86999 -5.2131,0.97919 -6.7287,0.78252 z m 9.6240001,-2.07502 c 0.2902,-0.0561 0.3202,-0.094 0.2204,-0.28035 -0.1627,-0.30415 -0.9498,-0.30317 -1.1128,0.001 -0.1994,0.37246 -0.142,0.47878 0.2203,0.40879 0.185,-0.0357 0.4875,-0.0941 0.6721,-0.1298 z m 0,-0.72377 c 0,-0.0636 -0.079,-0.30337 -0.1759,-0.53268 l -0.176,-0.41693 -0.1605,0.37734 c -0.2391,0.56244 -0.207,0.68801 0.176,0.68801 0.1851,0 0.3364,-0.0521 0.3364,-0.11574 z m 5.7496,1.13202 c -0.6184,-0.28457 -0.9266,-0.79052 -0.9266,-1.52093 0,-1.21596001 1.0471,-1.94693001 2.1746,-1.51821001 0.1817,0.0691 0.3077,0.0691 0.3504,0 0.163,-0.26368 0.2772,-0.0615 0.2718,0.48089 -0.01,0.58872001 -0.01,0.58874001 -0.1962,0.31082 -0.5435,-0.79346 -1.0183,-0.96369 -1.4589,-0.52308 -0.2484,0.24839 -0.2999,0.41161 -0.3317,1.05215001 -0.054,1.07012 0.1882,1.53009 0.8279,1.57687 0.3651,0.0267 0.5345,-0.028 0.813,-0.26229 0.1935,-0.16281 0.3518,-0.24555 0.3518,-0.18388 0,0.14408 -0.6487,0.69232 -0.8216,0.69432 -0.072,7.2e-4 -0.2325,0.0263 -0.3559,0.0566 -0.1234,0.0303 -0.4377,-0.0432 -0.6986,-0.16323 z m -16.94450006,-0.0446 c 0.1032,-0.0784 0.4362,-0.7934 0.74,-1.58879 C 1.2954289,0.73387559 1.5895289,0.06807559 1.6450289,0.04970559 c 0.056,-0.0183 0.3518,0.60456 0.6581,1.38427001 0.3063,0.77971 0.6277,1.48846 0.7142,1.57501 0.2344,0.2344 0.1177,0.2744 -0.6693,0.22924 -0.5334,-0.0306 -0.6493,-0.0639 -0.4585,-0.13174 0.1959,-0.0696 0.2385,-0.14635 0.1825,-0.32918 -0.124,-0.40556 -0.2814,-0.51877 -0.721,-0.51877 -0.36789996,0 -0.43899996,0.0434 -0.53839996,0.32846 -0.099,0.28305 -0.081,0.35202 0.1292,0.49876 0.23199996,0.16216 0.21689996,0.1704 -0.317,0.17261 -0.477,0.002 -0.5327,-0.019 -0.3732,-0.14031 z m 1.54239996,-1.05577 c -0.01,-0.0463 -0.1,-0.28596 -0.2114,-0.53268 -0.202,-0.44624 -0.2036,-0.44712 -0.3131,-0.16821 -0.30179996,0.76847 -0.29899996,0.785 0.1327,0.785 0.2201,0 0.3963,-0.0379 0.3918,-0.0841 z m 1.6905,1.09339 c 0,-0.0617 0.076,-0.11214 0.1681,-0.11214 0.1406,0 0.1682,-0.23052 0.1682,-1.40178 0,-1.17127001 -0.027,-1.40178001 -0.1682,-1.40178001 -0.092,0 -0.1681,-0.0505 -0.1681,-0.11215 0,-0.0633 0.3177,-0.11214 0.7288,-0.11214 0.4112,0 0.729,0.0489 0.729,0.11214 0,0.0616 -0.076,0.11215 -0.1682,0.11215 -0.1292,0 -0.1683,0.14329 -0.1683,0.61678 V 1.4735356 h 0.5047 0.5046 V 0.85675559 c 0,-0.47349 -0.039,-0.61678 -0.1681,-0.61678 -0.093,0 -0.1683,-0.0505 -0.1683,-0.11215 0,-0.0633 0.3177,-0.11214 0.7289,-0.11214 0.4112,0 0.7289,0.0489 0.7289,0.11214 0,0.0616 -0.076,0.11215 -0.1682,0.11215 -0.1405,0 -0.1682,0.23051 -0.1682,1.40178001 0,1.17126 0.028,1.40178 0.1682,1.40178 0.093,0 0.1682,0.0505 0.1682,0.11214 0,0.0633 -0.3177,0.11214 -0.7289,0.11214 -0.4112,0 -0.7289,-0.0489 -0.7289,-0.11214 0,-0.0617 0.076,-0.11214 0.1683,-0.11214 0.1307,0 0.1681,-0.14952 0.1681,-0.67286 v -0.67285 h -0.5046 -0.5047 v 0.67285 c 0,0.52334 0.037,0.67286 0.1683,0.67286 0.092,0 0.1682,0.0505 0.1682,0.11214 0,0.0633 -0.3178,0.11214 -0.729,0.11214 -0.4111,0 -0.7288,-0.0489 -0.7288,-0.11214 z m 15.9241001,0 c 0,-0.0617 0.076,-0.11214 0.1682,-0.11214 0.1406,0 0.1683,-0.23052 0.1683,-1.40178 0,-1.17127001 -0.028,-1.40178001 -0.1683,-1.40178001 -0.092,0 -0.1682,-0.0505 -0.1682,-0.11215 0,-0.0633 0.3177,-0.11214 0.729,-0.11214 0.4112,0 0.7289,0.0489 0.7289,0.11214 0,0.0616 -0.076,0.11215 -0.1682,0.11215 -0.1405,0 -0.1683,0.23051 -0.1683,1.40178001 0,1.17126 0.028,1.40178 0.1683,1.40178 0.092,0 0.1682,0.0505 0.1682,0.11214 0,0.0633 -0.3177,0.11214 -0.7289,0.11214 -0.4113,0 -0.729,-0.0489 -0.729,-0.11214 z"
       id="path2788"
       sodipodi:nodetypes="sssscsssssssssscsssssssssscssssscssssscssscsssssssssssssscsssssssssssssssssssssssssssscssssssssssssssscccssssssssssssscccssssssssssssssssss" />
  </g>
</svg>
