<?xml version="1.0" encoding="UTF-8" standalone="no"?>
<!-- Created with Inkscape (http://www.inkscape.org/) -->

<svg
   width="60.271999mm"
   height="38.169998mm"
   viewBox="0 0 60.272 38.169998"
   version="1.1"
   id="svg1"
   inkscape:version="1.4.2 (ebf0e940d0, 2025-05-08)"
   sodipodi:docname="5_1_1_54.svg"
   xmlns:inkscape="http://www.inkscape.org/namespaces/inkscape"
   xmlns:sodipodi="http://sodipodi.sourceforge.net/DTD/sodipodi-0.dtd"
   xmlns="http://www.w3.org/2000/svg"
   xmlns:svg="http://www.w3.org/2000/svg">
  <sodipodi:namedview
     id="namedview1"
     pagecolor="#ffffff"
     bordercolor="#000000"
     borderopacity="0.25"
     inkscape:showpageshadow="2"
     inkscape:pageopacity="0.0"
     inkscape:pagecheckerboard="0"
     inkscape:deskcolor="#d1d1d1"
     inkscape:document-units="mm"
     inkscape:zoom="4.2233399"
     inkscape:cx="98.973801"
     inkscape:cy="88.318726"
     inkscape:window-width="1920"
     inkscape:window-height="1011"
     inkscape:window-x="0"
     inkscape:window-y="0"
     inkscape:window-maximized="1"
     inkscape:current-layer="layer1" />
  <defs
     id="defs1">
    <rect
       x="-26.458581"
       y="130.73652"
       width="155.86105"
       height="46.469273"
       id="rect2" />
    <rect
       x="13.485725"
       y="-52.819092"
       width="225.2477"
       height="118.63495"
       id="rect1" />
    <rect
       x="37.795277"
       y="37.795277"
       width="483.77954"
       height="718.11023"
       id="rect2721" />
    <rect
       x="37.795277"
       y="37.795277"
       width="483.77954"
       height="718.11023"
       id="rect2722" />
    <rect
       x="37.795277"
       y="37.795277"
       width="483.77954"
       height="718.11023"
       id="rect2723" />
    <rect
       x="37.795277"
       y="37.795277"
       width="483.77954"
       height="718.11023"
       id="rect2724" />
    <rect
       x="37.795277"
       y="37.795277"
       width="483.77954"
       height="718.11023"
       id="rect2725" />
    <rect
       x="37.795277"
       y="37.795277"
       width="483.77954"
       height="718.11023"
       id="rect2726" />
    <rect
       x="37.795277"
       y="37.795277"
       width="483.77954"
       height="718.11023"
       id="rect2727" />
    <rect
       x="37.795277"
       y="37.795277"
       width="483.77954"
       height="718.11023"
       id="rect2728" />
    <rect
       x="37.795277"
       y="37.795277"
       width="483.77954"
       height="718.11023"
       id="rect2729" />
    <rect
       x="37.795277"
       y="37.795277"
       width="483.77954"
       height="718.11023"
       id="rect2730" />
    <rect
       x="37.795277"
       y="37.795277"
       width="483.77954"
       height="718.11023"
       id="rect2731" />
    <rect
       x="37.795277"
       y="37.795277"
       width="483.77954"
       height="718.11023"
       id="rect2732" />
    <rect
       x="37.795277"
       y="37.795277"
       width="483.77954"
       height="718.11023"
       id="rect2733" />
    <rect
       x="37.795277"
       y="37.795277"
       width="483.77954"
       height="718.11023"
       id="rect2734" />
    <rect
       x="37.795277"
       y="37.795277"
       width="483.77954"
       height="718.11023"
       id="rect6439" />
    <rect
       x="37.795277"
       y="37.795277"
       width="483.77954"
       height="718.11023"
       id="rect6440" />
    <rect
       x="37.795277"
       y="37.795277"
       width="483.77954"
       height="718.11023"
       id="rect6441" />
    <rect
       x="37.795277"
       y="37.795277"
       width="483.77954"
       height="718.11023"
       id="rect6442" />
    <rect
       x="37.795277"
       y="37.795277"
       width="483.77954"
       height="718.11023"
       id="rect2743" />
    <rect
       x="37.795277"
       y="37.795277"
       width="483.77954"
       height="718.11023"
       id="rect2744" />
    <rect
       x="37.795277"
       y="37.795277"
       width="483.77954"
       height="718.11023"
       id="rect2745" />
    <rect
       x="37.795277"
       y="37.795277"
       width="483.77954"
       height="718.11023"
       id="rect6403" />
    <rect
       x="37.795277"
       y="37.795277"
       width="483.77954"
       height="718.11023"
       id="rect6443" />
    <rect
       x="37.795277"
       y="37.795277"
       width="483.77954"
       height="718.11023"
       id="rect6444" />
    <rect
       x="37.795277"
       y="37.795277"
       width="483.77954"
       height="718.11023"
       id="rect6445" />
    <rect
       x="37.795277"
       y="37.795277"
       width="483.77954"
       height="718.11023"
       id="rect6446" />
    <rect
       x="37.795277"
       y="37.795277"
       width="483.77954"
       height="718.11023"
       id="rect6469" />
    <rect
       x="37.795277"
       y="37.795277"
       width="483.77954"
       height="718.11023"
       id="rect6470" />
    <rect
       x="37.795277"
       y="37.795277"
       width="483.77954"
       height="718.11023"
       id="rect6471" />
    <rect
       x="37.795277"
       y="37.795277"
       width="483.77954"
       height="718.11023"
       id="rect6472" />
    <rect
       x="-26.458581"
       y="130.73652"
       width="155.86105"
       height="46.469273"
       id="rect30" />
    <rect
       x="-26.458581"
       y="130.73652"
       width="155.86105"
       height="46.469273"
       id="rect31" />
    <rect
       x="-26.458581"
       y="130.73652"
       width="155.86105"
       height="46.469273"
       id="rect32" />
    <rect
       x="-26.458581"
       y="130.73652"
       width="155.86105"
       height="46.469273"
       id="rect33" />
    <rect
       x="-26.458581"
       y="130.73652"
       width="155.86105"
       height="46.469273"
       id="rect34" />
    <rect
       x="-26.458581"
       y="130.73652"
       width="155.86105"
       height="46.469273"
       id="rect35" />
    <rect
       x="-26.458581"
       y="130.73652"
       width="155.86105"
       height="46.469273"
       id="rect38" />
    <rect
       x="-26.458581"
       y="130.73652"
       width="155.86105"
       height="46.469273"
       id="rect39" />
    <rect
       x="-26.458581"
       y="130.73652"
       width="155.86105"
       height="46.469273"
       id="rect40" />
    <rect
       x="-26.458581"
       y="130.73652"
       width="155.86105"
       height="46.469273"
       id="rect42" />
    <rect
       x="-26.458581"
       y="130.73652"
       width="155.86105"
       height="46.469273"
       id="rect43" />
    <rect
       x="-26.458581"
       y="130.73652"
       width="155.86105"
       height="46.469273"
       id="rect44" />
    <rect
       x="-26.458581"
       y="130.73652"
       width="155.86105"
       height="46.469273"
       id="rect46" />
    <rect
       x="-26.458581"
       y="130.73652"
       width="155.86105"
       height="46.469273"
       id="rect47" />
    <rect
       x="-26.458581"
       y="130.73652"
       width="155.86105"
       height="46.469273"
       id="rect48" />
  </defs>
  <g
     inkscape:label="Katman 1"
     inkscape:groupmode="layer"
     id="layer1">
    <rect
       style="fill:#eef4d7;stroke:#000000;stroke-width:0.264999;stroke-opacity:1"
       id="rect6417"
       width="15"
       height="5"
       x="0.1324995"
       y="33.037567" />
    <rect
       style="fill:#eef4d7;stroke:#000000;stroke-width:0.264999"
       id="rect6418"
       width="5"
       height="5"
       x="10.132499"
       y="28.037569" />
    <rect
       style="fill:#dde9af;stroke:#000000;stroke-width:0.264999"
       id="rect6419"
       width="5"
       height="5"
       x="5.1326222"
       y="28.037569" />
    <rect
       style="fill:#cdde87;stroke:#000000;stroke-width:0.264999"
       id="rect6420"
       width="5"
       height="5"
       x="0.13262157"
       y="28.037569" />
    <path
       style="fill:none;stroke:#000000;stroke-width:0.264999;stroke-opacity:1"
       d="M 2.6317333,28.037567 V 0"
       id="path6427"
       sodipodi:nodetypes="cc" />
    <circle
       style="fill:#cdde87;fill-opacity:1;stroke:#000000;stroke-width:0.264999;stroke-opacity:1"
       id="circle6427"
       cx="2.632622"
       cy="26.537569"
       r="1.5" />
    <path
       style="fill:none;stroke:#000000;stroke-width:0.264999;stroke-opacity:1"
       d="M 7.6317333,28.037567 V 0"
       id="path6431"
       sodipodi:nodetypes="cc" />
    <path
       style="fill:none;stroke:#000000;stroke-width:0.264999;stroke-opacity:1"
       d="M 12.777433,28.037567 V 0"
       id="path6438"
       sodipodi:nodetypes="cc" />
    <circle
       style="fill:#eef4d7;fill-opacity:1;stroke:#000000;stroke-width:0.264999;stroke-opacity:1"
       id="circle6439"
       cx="12.778251"
       cy="26.537569"
       r="1.5" />
    <rect
       style="fill:#ffd5d5;fill-opacity:1;stroke:#000000;stroke-width:0.264999;stroke-opacity:1"
       id="rect2596"
       width="15"
       height="5"
       x="15.132377"
       y="33.037567" />
    <rect
       style="fill:#ffd5d5;fill-opacity:1;stroke:#000000;stroke-width:0.264999"
       id="rect2597"
       width="5"
       height="5"
       x="25.132378"
       y="28.037569" />
    <rect
       style="fill:#ffaaaa;fill-opacity:1;stroke:#000000;stroke-width:0.264999"
       id="rect2598"
       width="5"
       height="5"
       x="20.1325"
       y="28.037569" />
    <rect
       style="fill:#ff8080;fill-opacity:1;stroke:#000000;stroke-width:0.264999"
       id="rect2599"
       width="5"
       height="5"
       x="15.132499"
       y="28.037569" />
    <path
       style="fill:none;stroke:#000000;stroke-width:0.264999;stroke-opacity:1"
       d="M 17.631833,28.037567 V 0"
       id="path2606"
       sodipodi:nodetypes="cc" />
    <path
       style="fill:none;stroke:#000000;stroke-width:0.264999;stroke-opacity:1"
       d="M 22.631833,28.037567 V 0"
       id="path2610"
       sodipodi:nodetypes="cc" />
    <circle
       style="fill:#ffaaaa;fill-opacity:1;stroke:#000000;stroke-width:0.264999;stroke-opacity:1"
       id="circle2611"
       cx="22.6325"
       cy="26.537569"
       r="1.5" />
    <circle
       style="fill:#ffaaaa;fill-opacity:1;stroke:#000000;stroke-width:0.264999;stroke-opacity:1"
       id="circle2612"
       cx="22.6325"
       cy="23.537569"
       r="1.5" />
    <circle
       style="fill:#ffaaaa;fill-opacity:1;stroke:#000000;stroke-width:0.264999;stroke-opacity:1"
       id="circle2613"
       cx="22.6325"
       cy="20.537569"
       r="1.5" />
    <circle
       style="fill:#ffaaaa;fill-opacity:1;stroke:#000000;stroke-width:0.264999;stroke-opacity:1"
       id="circle2614"
       cx="22.6325"
       cy="17.537569"
       r="1.5" />
    <path
       style="fill:none;stroke:#000000;stroke-width:0.264999;stroke-opacity:1"
       d="M 27.777533,28.037567 V 0"
       id="path2618"
       sodipodi:nodetypes="cc" />
    <rect
       style="fill:#fff6d5;fill-opacity:1;stroke:#000000;stroke-width:0.264999;stroke-opacity:1"
       id="rect6405"
       width="15"
       height="5"
       x="30.13238"
       y="33.037567" />
    <rect
       style="fill:#fff6d5;fill-opacity:1;stroke:#000000;stroke-width:0.264999"
       id="rect6407"
       width="5"
       height="5"
       x="40.132378"
       y="28.037569" />
    <rect
       style="fill:#ffeeaa;fill-opacity:1;stroke:#000000;stroke-width:0.264999"
       id="rect6408"
       width="5"
       height="5"
       x="35.1325"
       y="28.037569" />
    <rect
       style="fill:#ffe680;fill-opacity:1;stroke:#000000;stroke-width:0.264999"
       id="rect6411"
       width="5"
       height="5"
       x="30.132502"
       y="28.037569" />
    <path
       style="fill:none;stroke:#000000;stroke-width:0.264999;stroke-opacity:1"
       d="M 32.631833,28.037567 V 0"
       id="path6418"
       sodipodi:nodetypes="cc" />
    <path
       style="fill:none;stroke:#000000;stroke-width:0.264999;stroke-opacity:1"
       d="M 37.631833,28.037567 V 0"
       id="path6422"
       sodipodi:nodetypes="cc" />
    <path
       style="fill:none;stroke:#000000;stroke-width:0.264999;stroke-opacity:1"
       d="M 42.777533,28.037567 V 0"
       id="path6442"
       sodipodi:nodetypes="cc" />
    <circle
       style="fill:#fff6d5;fill-opacity:1;stroke:#000000;stroke-width:0.264999;stroke-opacity:1"
       id="circle6443"
       cx="42.77813"
       cy="26.537569"
       r="1.5" />
    <rect
       style="fill:#d7eef4;fill-opacity:1;stroke:#000000;stroke-width:0.264999;stroke-opacity:1"
       id="rect6447"
       width="15"
       height="5"
       x="45.139458"
       y="33.037567" />
    <rect
       style="fill:#d7eef4;fill-opacity:1;stroke:#000000;stroke-width:0.264999"
       id="rect6448"
       width="5"
       height="5"
       x="55.139458"
       y="28.037569" />
    <rect
       style="fill:#afdde9;fill-opacity:1;stroke:#000000;stroke-width:0.264999"
       id="rect6449"
       width="5"
       height="5"
       x="50.13958"
       y="28.037569" />
    <rect
       style="fill:#87cdde;fill-opacity:1;stroke:#000000;stroke-width:0.264999"
       id="rect6450"
       width="5"
       height="5"
       x="45.13958"
       y="28.037569" />
    <path
       style="fill:none;stroke:#000000;stroke-width:0.264999;stroke-opacity:1"
       d="M 47.638933,28.037567 V 0"
       id="path6457"
       sodipodi:nodetypes="cc" />
    <circle
       style="fill:#87cdde;fill-opacity:1;stroke:#000000;stroke-width:0.264999;stroke-opacity:1"
       id="circle6457"
       cx="47.63958"
       cy="26.537569"
       r="1.5" />
    <circle
       style="fill:#87cdde;fill-opacity:1;stroke:#000000;stroke-width:0.264999;stroke-opacity:1"
       id="circle6458"
       cx="47.63958"
       cy="23.537569"
       r="1.5" />
    <circle
       style="fill:#87cdde;fill-opacity:1;stroke:#000000;stroke-width:0.264999;stroke-opacity:1"
       id="circle6459"
       cx="47.63958"
       cy="20.537569"
       r="1.5" />
    <circle
       style="fill:#87cdde;fill-opacity:1;stroke:#000000;stroke-width:0.264999;stroke-opacity:1"
       id="circle6460"
       cx="47.63958"
       cy="17.537569"
       r="1.5" />
    <path
       style="fill:none;stroke:#000000;stroke-width:0.264999;stroke-opacity:1"
       d="M 52.638933,28.037567 V 0"
       id="path6461"
       sodipodi:nodetypes="cc" />
    <path
       style="fill:none;stroke:#000000;stroke-width:0.264999;stroke-opacity:1"
       d="M 57.784633,28.037567 V 0"
       id="path6468"
       sodipodi:nodetypes="cc" />
    <circle
       style="fill:#fff6d5;fill-opacity:1;stroke:#000000;stroke-width:0.264999;stroke-opacity:1"
       id="circle7685"
       cx="42.77813"
       cy="23.537569"
       r="1.5" />
    <circle
       style="fill:#fff6d5;fill-opacity:1;stroke:#000000;stroke-width:0.264999;stroke-opacity:1"
       id="circle7686"
       cx="42.77813"
       cy="20.537569"
       r="1.5" />
    <path
       style="font-size:13.3333px;font-family:FreeSans;-inkscape-font-specification:FreeSans;white-space:pre;stroke-width:0.264583"
       d="M 2.6265913,36.438911 3.349784,34.283444 v 2.155467 H 3.6602276 V 33.867167 H 3.2051453 L 2.4572585,36.107301 1.6952603,33.867167 h -0.455082 v 2.571744 H 1.5506219 V 34.283444 L 2.28087,36.438911 Z M 4.4716168,34.59036 H 4.178812 v 1.848551 h 0.2928048 z m 0,-0.723193 H 4.1752843 v 0.370416 h 0.2963325 z m 0.7619987,0 H 4.9372829 v 2.571744 H 5.2336155 Z M 6.814058,34.59036 6.3025316,36.029691 5.8298105,34.59036 H 5.5158391 l 0.6244151,1.855608 -0.1128886,0.292804 c -0.049389,0.130527 -0.1128886,0.179916 -0.2363605,0.179916 -0.042333,0 -0.091722,-0.0071 -0.1552218,-0.02117 v 0.264583 c 0.059972,0.03175 0.1199441,0.04586 0.197555,0.04586 0.2010828,0 0.3739435,-0.10936 0.4762488,-0.381 L 7.1315572,34.59036 Z m 0.5397513,0.546804 h 0.2963326 c 0.024694,-0.225777 0.1587496,-0.328081 0.4339156,-0.328081 0.2645826,0 0.4127489,0.09878 0.4127489,0.275164 v 0.07761 c 0,0.123471 -0.074083,0.176387 -0.3069159,0.204611 -0.5397486,0.07055 -0.9172199,0.112887 -0.9172199,0.606774 0,0.33514 0.2328328,0.546806 0.6067763,0.546806 0.2328327,0 0.4198045,-0.08114 0.6279428,-0.27164 0.021167,0.186974 0.1128886,0.27164 0.3033881,0.27164 0.059972,0 0.1058331,-0.0071 0.2010829,-0.03175 v -0.22225 c -0.03175,0.0071 -0.045861,0.0071 -0.0635,0.0071 -0.1023053,0 -0.1587496,-0.05292 -0.1587496,-0.14464 v -1.086554 c 0,-0.328081 -0.2398883,-0.50447 -0.6949704,-0.50447 -0.3316103,0 -0.7231926,0.09878 -0.7408315,0.59972 z m 0.5891374,1.12536 c -0.229305,0 -0.3633602,-0.109363 -0.3633602,-0.296333 0,-0.405694 0.6173596,-0.30339 0.9172199,-0.44097 v 0.33161 c 0,0.176387 -0.2046106,0.405693 -0.5538597,0.405693 z m 2.2401303,-1.414637 v -0.29986 c -0.04939,-0.0071 -0.07408,-0.01058 -0.112888,-0.01058 -0.1905,0 -0.3351385,0.112889 -0.5044714,0.388053 V 34.59036 H 9.2940794 v 1.848551 H 9.590412 v -0.959553 c 0,-0.518581 0.2363605,-0.624414 0.592665,-0.631471 z m 0.578557,-0.98072 h -0.296333 v 2.571744 h 0.296333 z m 0.433918,1.269997 h 0.296333 c 0.02469,-0.225777 0.15875,-0.328081 0.433915,-0.328081 0.264583,0 0.412749,0.09878 0.412749,0.275164 v 0.07761 c 0,0.123471 -0.07408,0.176387 -0.306915,0.204611 -0.539749,0.07055 -0.91722,0.112887 -0.91722,0.606774 0,0.33514 0.232832,0.546806 0.606776,0.546806 0.232833,0 0.419804,-0.08114 0.627943,-0.27164 0.02117,0.186974 0.112888,0.27164 0.303388,0.27164 0.05997,0 0.105833,-0.0071 0.201083,-0.03175 v -0.22225 c -0.03175,0.0071 -0.04586,0.0071 -0.0635,0.0071 -0.102305,0 -0.15875,-0.05292 -0.15875,-0.14464 v -1.086554 c 0,-0.328081 -0.239888,-0.50447 -0.69497,-0.50447 -0.33161,0 -0.723193,0.09878 -0.740832,0.59972 z m 0.589138,1.12536 c -0.229305,0 -0.36336,-0.109363 -0.36336,-0.296333 0,-0.405694 0.617359,-0.30339 0.917219,-0.44097 v 0.33161 c 0,0.176387 -0.20461,0.405693 -0.553859,0.405693 z m 2.24013,-1.414637 v -0.29986 c -0.04939,-0.0071 -0.07408,-0.01058 -0.112888,-0.01058 -0.1905,0 -0.335138,0.112889 -0.504471,0.388053 v -0.33514 h -0.271639 v 1.848551 h 0.296333 v -0.959553 c 0,-0.518581 0.23636,-0.624414 0.592665,-0.631471 z"
       id="text1"
       aria-label="Milyarlar" />
    <path
       style="font-size:13.3333px;font-family:FreeSans;-inkscape-font-specification:FreeSans;white-space:pre;stroke-width:0.264583"
       d="m 17.280808,36.438911 0.723193,-2.155467 v 2.155467 h 0.310444 v -2.571744 h -0.455083 l -0.747886,2.240134 -0.761999,-2.240134 h -0.455082 v 2.571744 h 0.310444 v -2.155467 l 0.730248,2.155467 z m 1.845026,-1.848551 h -0.292805 v 1.848551 h 0.292805 z m 0,-0.723193 h -0.296333 v 0.370416 h 0.296333 z m 0.761999,0 H 19.5915 v 2.571744 h 0.296333 z m 1.580442,0.723193 -0.511526,1.439331 -0.472721,-1.439331 h -0.313972 l 0.624415,1.855608 -0.112888,0.292804 c -0.04939,0.130527 -0.112889,0.179916 -0.236361,0.179916 -0.04233,0 -0.09172,-0.0071 -0.155222,-0.02117 v 0.264583 c 0.05997,0.03175 0.119944,0.04586 0.197555,0.04586 0.201083,0 0.373944,-0.10936 0.476249,-0.381 l 0.82197,-2.236605 z m 1.291166,-0.05292 c -0.518582,0 -0.832553,0.370416 -0.832553,0.991303 0,0.620888 0.310443,0.991304 0.836081,0.991304 0.518582,0 0.836081,-0.370416 0.836081,-0.977193 0,-0.638527 -0.306916,-1.005414 -0.839609,-1.005414 z m 0.0035,0.271639 c 0.33161,0 0.529165,0.271638 0.529165,0.730248 0,0.433914 -0.20461,0.70908 -0.529165,0.70908 -0.328083,0 -0.529165,-0.271637 -0.529165,-0.719664 0,-0.4445 0.201082,-0.719664 0.529165,-0.719664 z m 1.153582,-0.218723 v 1.848551 h 0.296332 v -1.019524 c 0,-0.377473 0.197555,-0.624416 0.500944,-0.624416 0.232832,0 0.380999,0.14111 0.380999,0.36336 v 1.28058 h 0.292804 V 35.04191 c 0,-0.306914 -0.229305,-0.50447 -0.585609,-0.50447 -0.275166,0 -0.451555,0.105833 -0.613832,0.36336 v -0.31044 z m 2.190746,-0.723193 h -0.296333 v 2.571744 h 0.296333 z m 0.433918,1.269997 h 0.296333 c 0.02469,-0.225777 0.158749,-0.328081 0.433915,-0.328081 0.264583,0 0.412749,0.09878 0.412749,0.275164 v 0.07761 c 0,0.123471 -0.07408,0.176387 -0.306916,0.204611 -0.539748,0.07055 -0.91722,0.112887 -0.91722,0.606774 0,0.33514 0.232833,0.546806 0.606777,0.546806 0.232833,0 0.419804,-0.08114 0.627943,-0.27164 0.02117,0.186974 0.112888,0.27164 0.303388,0.27164 0.05997,0 0.105833,-0.0071 0.201083,-0.03175 v -0.22225 c -0.03175,0.0071 -0.04586,0.0071 -0.0635,0.0071 -0.102306,0 -0.15875,-0.05292 -0.15875,-0.14464 V 35.04195 c 0,-0.328081 -0.239888,-0.50447 -0.69497,-0.50447 -0.331611,0 -0.723193,0.09878 -0.740832,0.59972 z m 0.589138,1.12536 c -0.229305,0 -0.36336,-0.109363 -0.36336,-0.296333 0,-0.405694 0.617359,-0.30339 0.917219,-0.44097 v 0.33161 c 0,0.176387 -0.20461,0.405693 -0.553859,0.405693 z m 2.24013,-1.414637 v -0.29986 c -0.04939,-0.0071 -0.07408,-0.01058 -0.112888,-0.01058 -0.1905,0 -0.335139,0.112889 -0.504471,0.388053 V 34.59036 h -0.271639 v 1.848551 h 0.296333 v -0.959553 c 0,-0.518581 0.23636,-0.624414 0.592665,-0.631471 z"
       id="text30"
       aria-label="Milyonlar" />
    <path
       style="font-size:13.3333px;font-family:FreeSans;-inkscape-font-specification:FreeSans;white-space:pre;stroke-width:0.264583"
       d="m 35.31817,36.049091 c 0,-0.310443 -0.141111,-0.497414 -0.469194,-0.624414 0.232833,-0.10936 0.356305,-0.29986 0.356305,-0.560914 0,-0.261056 -0.151694,-0.652639 -0.761998,-0.652639 h -1.04422 v 2.571744 h 1.160636 c 0.455082,0 0.758471,-0.292803 0.758471,-0.733777 z m -0.440972,-1.139467 c 0,0.306916 -0.20461,0.40922 -0.515054,0.40922 h -0.634998 v -0.818441 h 0.634998 c 0.275166,0 0.515054,0.07761 0.515054,0.409221 z m -0.349249,1.583967 h -0.800803 v -0.88547 h 0.800803 c 0.303388,0 0.462138,0.183444 0.462138,0.4445 0,0.179917 -0.09172,0.44097 -0.462138,0.44097 z m 1.460495,-1.559274 h -0.292805 v 1.848551 h 0.292805 z m 0,-0.723193 h -0.296333 v 0.370416 h 0.296333 z m 0.465666,0.723193 v 1.848551 h 0.296333 v -1.019524 c 0,-0.377473 0.197555,-0.624417 0.500943,-0.624417 0.232832,0 0.380999,0.141111 0.380999,0.363361 v 1.28058 h 0.292805 v -1.396997 c 0,-0.306914 -0.229305,-0.50447 -0.58561,-0.50447 -0.275166,0 -0.451554,0.105833 -0.613832,0.36336 v -0.310444 z m 2.190747,-0.723193 h -0.296333 v 2.571744 h 0.296333 z m 2.021414,1.746247 c 0,-0.670277 -0.250472,-1.07597 -0.82197,-1.07597 -0.515055,0 -0.846665,0.39511 -0.846665,1.001887 0,0.606777 0.321027,0.98072 0.839609,0.98072 0.423332,0 0.716137,-0.23989 0.79022,-0.642054 h -0.296332 c -0.08114,0.243414 -0.246944,0.370414 -0.483304,0.370414 -0.342194,0 -0.536221,-0.257527 -0.543277,-0.634997 z m -1.354663,-0.23989 c 0.02469,-0.342193 0.232832,-0.564441 0.529165,-0.564441 0.303388,0 0.511526,0.246944 0.511526,0.564441 z m 2.561163,-0.525637 v -0.29986 c -0.04939,-0.0071 -0.07408,-0.01058 -0.112889,-0.01058 -0.190499,0 -0.335138,0.112889 -0.504471,0.388053 V 34.93432 h -0.271638 v 1.848551 h 0.296333 v -0.959553 c 0,-0.518581 0.23636,-0.624414 0.592665,-0.631471 z"
       id="text31"
       aria-label="Binler" />
    <path
       style="font-size:13.3333px;font-family:FreeSans;-inkscape-font-specification:FreeSans;white-space:pre;stroke-width:0.264583"
       d="m 50.683306,36.049091 c 0,-0.310443 -0.141111,-0.497414 -0.469194,-0.624414 0.232833,-0.10936 0.356305,-0.29986 0.356305,-0.560914 0,-0.261056 -0.151694,-0.652639 -0.761998,-0.652639 h -1.04422 v 2.571744 h 1.160636 c 0.455082,0 0.758471,-0.292803 0.758471,-0.733777 z m -0.440972,-1.139467 c 0,0.306916 -0.20461,0.40922 -0.515054,0.40922 h -0.634998 v -0.818441 h 0.634998 c 0.275166,0 0.515054,0.07761 0.515054,0.409221 z m -0.349249,1.583967 h -0.800803 v -0.88547 h 0.800803 c 0.303388,0 0.462138,0.183444 0.462138,0.4445 0,0.179917 -0.09172,0.44097 -0.462138,0.44097 z m 1.460495,-1.559274 h -0.292805 v 1.848551 h 0.292805 z m 0,-0.723193 h -0.296333 v 0.370416 h 0.296333 z m 1.354664,0.98072 v -0.29986 c -0.04939,-0.0071 -0.07408,-0.01058 -0.112889,-0.01058 -0.190499,0 -0.335138,0.112889 -0.504471,0.388053 V 34.93432 h -0.271638 v 1.848551 h 0.296333 v -0.959553 c 0,-0.518581 0.23636,-0.624414 0.592665,-0.631471 z m 0.578556,-0.98072 h -0.296332 v 2.571744 H 53.2868 Z m 2.021414,1.746247 c 0,-0.670277 -0.250471,-1.07597 -0.82197,-1.07597 -0.515054,0 -0.846664,0.39511 -0.846664,1.001887 0,0.606777 0.321027,0.98072 0.839609,0.98072 0.423332,0 0.716137,-0.23989 0.79022,-0.642054 h -0.296333 c -0.08114,0.243414 -0.246943,0.370414 -0.483304,0.370414 -0.342194,0 -0.536221,-0.257527 -0.543276,-0.634997 z m -1.354663,-0.23989 c 0.02469,-0.342193 0.232833,-0.564441 0.529165,-0.564441 0.303389,0 0.511527,0.246944 0.511527,0.564441 z m 2.561164,-0.525637 v -0.29986 c -0.04939,-0.0071 -0.07408,-0.01058 -0.112889,-0.01058 -0.1905,0 -0.335138,0.112889 -0.504471,0.388053 V 34.93432 h -0.271638 v 1.848551 h 0.296332 v -0.959553 c 0,-0.518581 0.236361,-0.624414 0.592666,-0.631471 z"
       id="text32"
       aria-label="Birler" />
    <path
       style="font-size:13.3333px;font-family:FreeSans;-inkscape-font-specification:FreeSans;white-space:pre;stroke-width:0.264583"
       d="M 2.8090108,30.8145 3.7756195,29.251696 H 3.3840372 l -0.7337758,1.25236 -0.7549425,-1.25236 H 1.4896253 l 0.991303,1.562804 v 1.008941 h 0.3280825 z"
       id="text33"
       aria-label="Y" />
    <path
       style="font-size:13.3333px;font-family:FreeSans;-inkscape-font-specification:FreeSans;white-space:pre;stroke-width:0.264583"
       d="m 9.0060069,30.57814 c 0,-0.829027 -0.4903599,-1.368775 -1.2453024,-1.368775 -0.7373038,0 -1.2382468,0.543275 -1.2382468,1.347608 0,0.804331 0.500943,1.347608 1.2417745,1.347608 0.7690535,0 1.2417747,-0.585611 1.2417747,-1.326441 z M 7.7607045,29.498642 c 0.5573874,0 0.9172199,0.423331 0.9172199,1.072441 0,0.620887 -0.3704159,1.044221 -0.9136922,1.044221 -0.5468041,0 -0.9136923,-0.423334 -0.9136923,-1.058331 0,-0.635 0.3668882,-1.058331 0.9101646,-1.058331 z"
       id="text34"
       aria-label="O" />
    <path
       style="font-size:13.3333px;font-family:FreeSans;-inkscape-font-specification:FreeSans;white-space:pre;stroke-width:0.264583"
       d="m 12.673271,31.82344 0.723193,-2.155468 v 2.155468 h 0.310444 V 29.251695 H 13.251825 L 12.503939,31.49183 11.74194,29.251695 h -0.455082 v 2.571745 h 0.310444 v -2.155468 l 0.730248,2.155468 z"
       id="text35"
       aria-label="M" />
    <path
       style="font-size:13.3333px;font-family:FreeSans;-inkscape-font-specification:FreeSans;white-space:pre;stroke-width:0.264583"
       d="m 17.940722,30.8145 0.966608,-1.562804 h -0.391582 l -0.733776,1.25236 -0.754942,-1.25236 h -0.405694 l 0.991303,1.562804 v 1.008941 h 0.328083 z"
       id="text36"
       aria-label="Y" />
    <path
       style="font-size:13.3333px;font-family:FreeSans;-inkscape-font-specification:FreeSans;white-space:pre;stroke-width:0.264583"
       d="m 24.137718,30.57814 c 0,-0.829027 -0.49036,-1.368775 -1.245303,-1.368775 -0.737303,0 -1.238246,0.543275 -1.238246,1.347608 0,0.804331 0.500943,1.347608 1.241774,1.347608 0.769054,0 1.241775,-0.585611 1.241775,-1.326441 z m -1.245303,-1.079498 c 0.557388,0 0.91722,0.423331 0.91722,1.072441 0,0.620887 -0.370415,1.044221 -0.913692,1.044221 -0.546804,0 -0.913692,-0.423334 -0.913692,-1.058331 0,-0.635 0.366888,-1.058331 0.910164,-1.058331 z"
       id="text37"
       aria-label="O" />
    <path
       style="font-size:13.3333px;font-family:FreeSans;-inkscape-font-specification:FreeSans;white-space:pre;stroke-width:0.264583"
       d="m 27.804982,31.82344 0.723193,-2.155468 v 2.155468 h 0.310444 V 29.251695 H 28.383536 L 27.63565,31.49183 26.873651,29.251695 h -0.455082 v 2.571745 h 0.310444 v -2.155468 l 0.730248,2.155468 z"
       id="text38"
       aria-label="M" />
    <path
       style="font-size:13.3333px;font-family:FreeSans;-inkscape-font-specification:FreeSans;white-space:pre;stroke-width:0.264583"
       d="m 32.877477,30.8145 0.966608,-1.562804 h -0.391582 l -0.733776,1.25236 -0.754942,-1.25236 h -0.405694 l 0.991303,1.562804 v 1.008941 h 0.328083 z"
       id="text40"
       aria-label="Y" />
    <path
       style="font-size:13.3333px;font-family:FreeSans;-inkscape-font-specification:FreeSans;white-space:pre;stroke-width:0.264583"
       d="m 39.074473,30.57814 c 0,-0.829027 -0.49036,-1.368775 -1.245303,-1.368775 -0.737303,0 -1.238246,0.543275 -1.238246,1.347608 0,0.804331 0.500943,1.347608 1.241774,1.347608 0.769054,0 1.241775,-0.585611 1.241775,-1.326441 z M 37.82917,29.498642 c 0.557388,0 0.91722,0.423331 0.91722,1.072441 0,0.620887 -0.370415,1.044221 -0.913692,1.044221 -0.546804,0 -0.913692,-0.423334 -0.913692,-1.058331 0,-0.635 0.366888,-1.058331 0.910164,-1.058331 z"
       id="text41"
       aria-label="O" />
    <path
       style="font-size:13.3333px;font-family:FreeSans;-inkscape-font-specification:FreeSans;white-space:pre;stroke-width:0.264583"
       d="m 43.595592,31.089663 c 0,-0.310444 -0.141111,-0.497414 -0.469194,-0.624414 0.232833,-0.10936 0.356305,-0.29986 0.356305,-0.560914 0,-0.261056 -0.151694,-0.65264 -0.761998,-0.65264 h -1.04422 v 2.571745 h 1.160636 c 0.455082,0 0.758471,-0.292804 0.758471,-0.733777 z M 43.15462,29.950195 c 0,0.306917 -0.20461,0.409221 -0.515054,0.409221 h -0.634998 v -0.818441 h 0.634998 c 0.275166,0 0.515054,0.07761 0.515054,0.40922 z m -0.349249,1.583968 h -0.800803 v -0.88547 h 0.800803 c 0.303388,0 0.462138,0.183443 0.462138,0.4445 0,0.179916 -0.09172,0.44097 -0.462138,0.44097 z"
       id="text42"
       aria-label="B" />
    <path
       style="font-size:13.3333px;font-family:FreeSans;-inkscape-font-specification:FreeSans;white-space:pre;stroke-width:0.264583"
       d="m 47.815969,30.8145 0.966608,-1.562804 h -0.391582 l -0.733776,1.25236 -0.754942,-1.25236 h -0.405694 l 0.991303,1.562804 v 1.008941 h 0.328083 z"
       id="text44"
       aria-label="Y" />
    <path
       style="font-size:13.3333px;font-family:FreeSans;-inkscape-font-specification:FreeSans;white-space:pre;stroke-width:0.264583"
       d="m 54.012965,30.57814 c 0,-0.829027 -0.49036,-1.368775 -1.245303,-1.368775 -0.737303,0 -1.238246,0.543275 -1.238246,1.347608 0,0.804331 0.500943,1.347608 1.241774,1.347608 0.769054,0 1.241775,-0.585611 1.241775,-1.326441 z m -1.245303,-1.079498 c 0.557388,0 0.91722,0.423331 0.91722,1.072441 0,0.620887 -0.370415,1.044221 -0.913692,1.044221 -0.546804,0 -0.913692,-0.423334 -0.913692,-1.058331 0,-0.635 0.366888,-1.058331 0.910164,-1.058331 z"
       id="text45"
       aria-label="O" />
    <path
       style="font-size:13.3333px;font-family:FreeSans;-inkscape-font-specification:FreeSans;white-space:pre;stroke-width:0.264583"
       d="m 58.534084,31.089663 c 0,-0.310444 -0.141111,-0.497414 -0.469194,-0.624414 0.232833,-0.10936 0.356305,-0.29986 0.356305,-0.560914 0,-0.261056 -0.151694,-0.65264 -0.761998,-0.65264 h -1.04422 v 2.571745 h 1.160636 c 0.455082,0 0.758471,-0.292804 0.758471,-0.733777 z m -0.440972,-1.139468 c 0,0.306917 -0.20461,0.409221 -0.515054,0.409221 H 56.94306 v -0.818441 h 0.634998 c 0.275166,0 0.515054,0.07761 0.515054,0.40922 z m -0.349249,1.583968 H 56.94306 v -0.88547 h 0.800803 c 0.303388,0 0.462138,0.183443 0.462138,0.4445 0,0.179916 -0.09172,0.44097 -0.462138,0.44097 z"
       id="text46"
       aria-label="B" />
    <circle
       style="fill:#cdde87;fill-opacity:1;stroke:#000000;stroke-width:0.264999;stroke-opacity:1"
       id="circle1"
       cx="2.632622"
       cy="23.537569"
       r="1.5" />
    <circle
       style="fill:#fff6d5;fill-opacity:1;stroke:#000000;stroke-width:0.264999;stroke-opacity:1"
       id="circle2"
       cx="42.77813"
       cy="17.537569"
       r="1.5" />
    <circle
       style="fill:#fff6d5;fill-opacity:1;stroke:#000000;stroke-width:0.264999;stroke-opacity:1"
       id="circle3"
       cx="42.77813"
       cy="14.537569"
       r="1.5" />
    <circle
       style="fill:#87cdde;fill-opacity:1;stroke:#000000;stroke-width:0.264999;stroke-opacity:1"
       id="circle4"
       cx="47.63958"
       cy="14.537569"
       r="1.5" />
    <circle
       style="fill:#87cdde;fill-opacity:1;stroke:#000000;stroke-width:0.264999;stroke-opacity:1"
       id="circle5"
       cx="47.63958"
       cy="11.537569"
       r="1.5" />
    <circle
       style="fill:#87cdde;fill-opacity:1;stroke:#000000;stroke-width:0.264999;stroke-opacity:1"
       id="circle6"
       cx="47.63958"
       cy="8.537569"
       r="1.5" />
    <circle
       style="fill:#87cdde;fill-opacity:1;stroke:#000000;stroke-width:0.264999;stroke-opacity:1"
       id="circle7"
       cx="47.63958"
       cy="5.537569"
       r="1.5" />
  </g>
</svg>
