<?xml version="1.0" encoding="UTF-8" standalone="no"?>
<!-- Created with Inkscape (http://www.inkscape.org/) -->

<svg
   width="20.691999mm"
   height="5mm"
   viewBox="0 0 20.691999 4.9999999"
   version="1.1"
   id="svg1"
   inkscape:version="1.4.2 (ebf0e940d0, 2025-05-08)"
   sodipodi:docname="5_1_1_81.svg"
   xmlns:inkscape="http://www.inkscape.org/namespaces/inkscape"
   xmlns:sodipodi="http://sodipodi.sourceforge.net/DTD/sodipodi-0.dtd"
   xmlns="http://www.w3.org/2000/svg"
   xmlns:svg="http://www.w3.org/2000/svg">
  <sodipodi:namedview
     id="namedview1"
     pagecolor="#ffffff"
     bordercolor="#000000"
     borderopacity="0.25"
     inkscape:showpageshadow="2"
     inkscape:pageopacity="0.0"
     inkscape:pagecheckerboard="0"
     inkscape:deskcolor="#d1d1d1"
     inkscape:document-units="mm"
     inkscape:zoom="5.8369577"
     inkscape:cx="51.396637"
     inkscape:cy="42.830531"
     inkscape:window-width="1075"
     inkscape:window-height="991"
     inkscape:window-x="26"
     inkscape:window-y="23"
     inkscape:window-maximized="0"
     inkscape:current-layer="layer1" />
  <defs
     id="defs1">
    <rect
       x="-26.458582"
       y="130.73653"
       width="155.86105"
       height="46.469273"
       id="rect2" />
    <rect
       x="13.485725"
       y="-52.819092"
       width="225.2477"
       height="118.63495"
       id="rect1" />
    <rect
       x="37.795277"
       y="37.795277"
       width="483.77954"
       height="718.11023"
       id="rect2721" />
    <rect
       x="37.795277"
       y="37.795277"
       width="483.77954"
       height="718.11023"
       id="rect2722" />
    <rect
       x="37.795277"
       y="37.795277"
       width="483.77954"
       height="718.11023"
       id="rect2723" />
    <rect
       x="37.795277"
       y="37.795277"
       width="483.77954"
       height="718.11023"
       id="rect2724" />
    <rect
       x="37.795277"
       y="37.795277"
       width="483.77954"
       height="718.11023"
       id="rect2725" />
    <rect
       x="37.795277"
       y="37.795277"
       width="483.77954"
       height="718.11023"
       id="rect2726" />
    <rect
       x="37.795277"
       y="37.795277"
       width="483.77954"
       height="718.11023"
       id="rect2727" />
    <rect
       x="37.795277"
       y="37.795277"
       width="483.77954"
       height="718.11023"
       id="rect2728" />
    <rect
       x="37.795277"
       y="37.795277"
       width="483.77954"
       height="718.11023"
       id="rect2729" />
    <rect
       x="37.795277"
       y="37.795277"
       width="483.77954"
       height="718.11023"
       id="rect2730" />
    <rect
       x="37.795277"
       y="37.795277"
       width="483.77954"
       height="718.11023"
       id="rect2731" />
    <rect
       x="37.795277"
       y="37.795277"
       width="483.77954"
       height="718.11023"
       id="rect2732" />
    <rect
       x="37.795277"
       y="37.795277"
       width="483.77954"
       height="718.11023"
       id="rect2733" />
    <rect
       x="37.795277"
       y="37.795277"
       width="483.77954"
       height="718.11023"
       id="rect2734" />
    <rect
       x="37.795277"
       y="37.795277"
       width="483.77954"
       height="718.11023"
       id="rect6439" />
    <rect
       x="37.795277"
       y="37.795277"
       width="483.77954"
       height="718.11023"
       id="rect6440" />
    <rect
       x="37.795277"
       y="37.795277"
       width="483.77954"
       height="718.11023"
       id="rect6441" />
    <rect
       x="37.795277"
       y="37.795277"
       width="483.77954"
       height="718.11023"
       id="rect6442" />
    <rect
       x="37.795277"
       y="37.795277"
       width="483.77954"
       height="718.11023"
       id="rect2743" />
    <rect
       x="37.795277"
       y="37.795277"
       width="483.77954"
       height="718.11023"
       id="rect2744" />
    <rect
       x="37.795277"
       y="37.795277"
       width="483.77954"
       height="718.11023"
       id="rect2745" />
    <rect
       x="37.795277"
       y="37.795277"
       width="483.77954"
       height="718.11023"
       id="rect6403" />
    <rect
       x="37.795277"
       y="37.795277"
       width="483.77954"
       height="718.11023"
       id="rect6443" />
    <rect
       x="37.795277"
       y="37.795277"
       width="483.77954"
       height="718.11023"
       id="rect6444" />
    <rect
       x="37.795277"
       y="37.795277"
       width="483.77954"
       height="718.11023"
       id="rect6445" />
    <rect
       x="37.795277"
       y="37.795277"
       width="483.77954"
       height="718.11023"
       id="rect6446" />
    <rect
       x="37.795277"
       y="37.795277"
       width="483.77954"
       height="718.11023"
       id="rect6469" />
    <rect
       x="37.795277"
       y="37.795277"
       width="483.77954"
       height="718.11023"
       id="rect6470" />
    <rect
       x="37.795277"
       y="37.795277"
       width="483.77954"
       height="718.11023"
       id="rect6471" />
    <rect
       x="37.795277"
       y="37.795277"
       width="483.77954"
       height="718.11023"
       id="rect6472" />
    <rect
       x="-26.458582"
       y="130.73653"
       width="155.86105"
       height="46.469273"
       id="rect30" />
    <rect
       x="-26.458582"
       y="130.73653"
       width="155.86105"
       height="46.469273"
       id="rect31" />
    <rect
       x="-26.458582"
       y="130.73653"
       width="155.86105"
       height="46.469273"
       id="rect32" />
    <rect
       x="-26.458582"
       y="130.73653"
       width="155.86105"
       height="46.469273"
       id="rect33" />
    <rect
       x="-26.458582"
       y="130.73653"
       width="155.86105"
       height="46.469273"
       id="rect34" />
    <rect
       x="-26.458582"
       y="130.73653"
       width="155.86105"
       height="46.469273"
       id="rect35" />
    <rect
       x="-26.458582"
       y="130.73653"
       width="155.86105"
       height="46.469273"
       id="rect38" />
    <rect
       x="-26.458582"
       y="130.73653"
       width="155.86105"
       height="46.469273"
       id="rect39" />
    <rect
       x="-26.458582"
       y="130.73653"
       width="155.86105"
       height="46.469273"
       id="rect40" />
    <rect
       x="-26.458582"
       y="130.73653"
       width="155.86105"
       height="46.469273"
       id="rect42" />
    <rect
       x="-26.458582"
       y="130.73653"
       width="155.86105"
       height="46.469273"
       id="rect43" />
    <rect
       x="-26.458582"
       y="130.73653"
       width="155.86105"
       height="46.469273"
       id="rect44" />
    <rect
       x="-26.458582"
       y="130.73653"
       width="155.86105"
       height="46.469273"
       id="rect46" />
    <rect
       x="-26.458582"
       y="130.73653"
       width="155.86105"
       height="46.469273"
       id="rect47" />
    <rect
       x="-26.458582"
       y="130.73653"
       width="155.86105"
       height="46.469273"
       id="rect48" />
  </defs>
  <g
     inkscape:label="Katman 1"
     inkscape:groupmode="layer"
     id="layer1">
    <g
       id="g2787"
       transform="matrix(0.62501725,0,0,0.62501725,-999.56446,-87.725709)">
      <path
         style="fill:#000000;stroke-width:0.4724"
         d="m 1615.1644,148.01429 c -0.1059,-0.31787 -0.079,-0.35782 0.3832,-0.56467 0.2735,-0.12243 0.5093,-0.20754 0.5242,-0.18913 0.015,0.0184 0.098,0.17031 0.1855,0.33757 0.1402,0.26903 0.1262,0.33029 -0.1219,0.5312 -0.4233,0.34277 -0.8346,0.29407 -0.971,-0.11497 z m -7.3092,-1.34545 c -0.442,-0.24916 -0.5969,-0.55396 -0.5969,-1.17466 0,-0.99213 0.9689,-1.67898 2.6248,-1.86073 l 0.8124,-0.0892 v -0.49996 c 0,-0.4893 -0.01,-0.49952 -0.425,-0.47948 -0.2457,0.0119 -0.6528,0.18101 -0.9647,0.4008 -0.5777,0.40721 -0.6017,0.40151 -0.7218,-0.1713 -0.069,-0.32784 -0.024,-0.41199 0.3562,-0.66953 0.5266,-0.35671 1.2615,-0.62993 1.7145,-0.63737 0.1838,-0.003 0.5072,0.14012 0.7187,0.3181 0.347,0.29194 0.3843,0.39276 0.3816,1.03116 -0.01,1.23204 -0.9076,2.95901 -1.8838,3.60501 -0.6066,0.40146 -1.5236,0.50476 -2.016,0.22712 z m 1.2529,-0.86359 c 0.3932,-0.2054 0.928,-0.75737 1.1488,-1.18555 0.1541,-0.29879 0.1532,-0.29927 -0.3909,-0.21309 -0.8147,0.12902 -1.4005,0.45899 -1.5418,0.86843 -0.1016,0.29463 -0.082,0.38605 0.117,0.53121 0.2923,0.21367 0.2559,0.21373 0.6669,-9.5e-4 z m 6.4441,0.92731 c -1.115,-0.44998 -0.7996,-2.50444 0.6272,-4.08463 0.7627,-0.84472 1.5233,-1.21874 2.3003,-1.13115 0.7312,0.0824 1.0276,0.41431 1.0276,1.1508 0,0.49695 -0.026,0.53826 -0.3906,0.6111 -0.5766,0.11532 -0.6332,0.10029 -0.5547,-0.14717 0.1224,-0.38548 -0.2103,-0.70041 -0.6288,-0.59535 -0.9653,0.24225 -2.3413,2.50108 -1.8951,3.11069 0.244,0.33318 0.7632,0.15836 1.4315,-0.48194 l 0.5546,-0.53147 0.2027,0.42504 c 0.2022,0.42415 0.2018,0.42597 -0.2271,0.87681 -0.7289,0.76611 -1.7226,1.08982 -2.4476,0.79727 z m 4.3925,0.006 c -0.8783,-0.35952 -0.9988,-1.44387 -0.3146,-2.83354 0.752,-1.5277 2.1346,-2.55573 3.2037,-2.38223 0.827,0.13419 1.1618,0.6979 0.9286,1.56364 -0.2337,0.8683 -1.124,1.45934 -2.5615,1.70066 -0.7634,0.12817 -0.8866,0.18539 -0.922,0.42822 -0.1066,0.73115 0.5532,0.82649 1.4665,0.2119 l 0.6383,-0.42959 0.1958,0.37846 c 0.1797,0.34759 0.1782,0.3977 -0.018,0.61429 -0.5715,0.63146 -1.9437,1.02377 -2.617,0.74819 z m 1.7087,-2.90274 c 0.6233,-0.18674 1.1036,-0.63151 1.1036,-1.02191 0,-0.80233 -1.0928,-0.30468 -1.8102,0.82433 -0.2079,0.3272 -0.2079,0.34372 2e-4,0.34372 0.1203,0 0.4381,-0.0658 0.7064,-0.14614 z m -9.8838,1.4965 c 0.3466,-0.77707 0.8622,-1.93312 1.1458,-2.569 l 0.5157,-1.15615 h 0.5383 c 0.5886,0 0.6151,0.0377 0.3508,0.49996 -0.3011,0.52668 -0.2069,0.58651 0.1339,0.085 0.3586,-0.52773 0.7938,-0.74855 1.2497,-0.63413 0.3694,0.0927 0.3688,0.0733 0.023,0.67962 -0.2137,0.37439 -0.3592,0.49274 -0.6064,0.49347 -0.7928,0.002 -1.4091,0.75183 -2.327,2.82955 l -0.4897,1.10857 -0.5819,0.038 -0.582,0.038 z m 11.2714,1.24317 c 0.034,-0.0859 0.6687,-1.52018 1.4118,-3.18722 l 1.3511,-3.031 h 0.5523 c 0.3908,0 0.5344,0.0457 0.4915,0.15624 -0.034,0.0859 -0.6699,1.52018 -1.4145,3.18722 l -1.3538,3.031 h -0.5496 c -0.3887,0 -0.5318,-0.0457 -0.4888,-0.15624 z m 2.0908,0.10913 c 0,-0.0259 0.4964,-1.16487 1.1032,-2.53103 l 1.1031,-2.48393 0.5218,-0.0385 c 0.3052,-0.0225 0.5216,0.016 0.5216,0.0927 0,0.0721 -0.49,1.22839 -1.0889,2.56946 l -1.0889,2.43832 h -0.536 c -0.2947,0 -0.5359,-0.0212 -0.5359,-0.0471 z m 2.1248,-0.025 c 0,-0.0396 0.6262,-1.4739 1.3916,-3.18723 l 1.3915,-3.11513 h 0.5458 c 0.3002,0 0.5458,0.0211 0.5458,0.0469 0,0.0258 -0.2551,0.59642 -0.5668,1.26809 -0.3117,0.67166 -0.549,1.27463 -0.5273,1.33993 0.022,0.0653 0.5023,-0.2548 1.0677,-0.71135 l 1.0281,-0.83007 0.1241,0.32632 c 0.1954,0.51405 0.1547,0.6326 -0.3447,1.0033 -0.2578,0.19138 -0.7,0.533 -0.9828,0.75917 l -0.5142,0.41121 0.166,0.97427 c 0.091,0.53585 0.1986,1.15707 0.2386,1.38049 0.072,0.40223 0.068,0.40622 -0.4231,0.40622 -0.5556,0 -0.4978,0.12091 -0.7764,-1.62486 l -0.1496,-0.93742 -0.5447,1.17242 c -0.2996,0.64482 -0.5447,1.22134 -0.5447,1.28114 0,0.0598 -0.2531,0.10872 -0.5625,0.10872 -0.3093,0 -0.5624,-0.0325 -0.5624,-0.0721 z m 0.4626,-5.8649 c 0.1909,-0.40013 0.2547,-0.43746 0.748,-0.43746 0.2966,0 0.5393,0.0309 0.5393,0.0687 0,0.0378 -0.086,0.23465 -0.1907,0.43746 -0.1679,0.3247 -0.2573,0.36876 -0.7479,0.36876 h -0.5573 z"
         id="path2786"
         sodipodi:nodetypes="sscsssssscssssscsssssssssssssssssssscssscsssssscscccssssssscssssssscccssscssscsssscssscssssscssssscssscsssscsssssssssscs" />
      <path
         style="fill:#fe0000;fill-opacity:1;stroke-width:0.4724"
         d="m 1600.4427,146.57526 c -0.2906,-0.77804 -1.1837,-3.5559 -1.1837,-3.68198 0,-0.0934 0.1471,-0.16144 0.3487,-0.16144 1.0751,0 3.2084,-0.89134 4.1798,-1.74634 l 0.5737,-0.50497 0.3175,0.84443 c 0.1746,0.46444 0.5165,1.37876 0.7598,2.03183 l 0.4424,1.18739 -0.4675,0.40631 c -1.2905,1.12183 -4.7377,2.24858 -4.9707,1.62477 z"
         id="path2787"
         sodipodi:nodetypes="sssscsscss" />
    </g>
  </g>
</svg>
