<?xml version="1.0" encoding="UTF-8" standalone="no"?>
<!-- Created with Inkscape (http://www.inkscape.org/) -->

<svg
   width="16.025999mm"
   height="5mm"
   viewBox="0 0 16.025998 4.9999999"
   version="1.1"
   id="svg1"
   inkscape:version="1.4.2 (ebf0e940d0, 2025-05-08)"
   sodipodi:docname="5_1_1_77.svg"
   xmlns:inkscape="http://www.inkscape.org/namespaces/inkscape"
   xmlns:sodipodi="http://sodipodi.sourceforge.net/DTD/sodipodi-0.dtd"
   xmlns="http://www.w3.org/2000/svg"
   xmlns:svg="http://www.w3.org/2000/svg">
  <sodipodi:namedview
     id="namedview1"
     pagecolor="#ffffff"
     bordercolor="#000000"
     borderopacity="0.25"
     inkscape:showpageshadow="2"
     inkscape:pageopacity="0.0"
     inkscape:pagecheckerboard="0"
     inkscape:deskcolor="#d1d1d1"
     inkscape:document-units="mm"
     inkscape:zoom="2.6972018"
     inkscape:cx="64.511302"
     inkscape:cy="88.981106"
     inkscape:window-width="1075"
     inkscape:window-height="991"
     inkscape:window-x="26"
     inkscape:window-y="23"
     inkscape:window-maximized="0"
     inkscape:current-layer="layer1" />
  <defs
     id="defs1">
    <rect
       x="-26.458582"
       y="130.73653"
       width="155.86105"
       height="46.469273"
       id="rect2" />
    <rect
       x="13.485725"
       y="-52.819092"
       width="225.2477"
       height="118.63495"
       id="rect1" />
    <rect
       x="37.795277"
       y="37.795277"
       width="483.77954"
       height="718.11023"
       id="rect2721" />
    <rect
       x="37.795277"
       y="37.795277"
       width="483.77954"
       height="718.11023"
       id="rect2722" />
    <rect
       x="37.795277"
       y="37.795277"
       width="483.77954"
       height="718.11023"
       id="rect2723" />
    <rect
       x="37.795277"
       y="37.795277"
       width="483.77954"
       height="718.11023"
       id="rect2724" />
    <rect
       x="37.795277"
       y="37.795277"
       width="483.77954"
       height="718.11023"
       id="rect2725" />
    <rect
       x="37.795277"
       y="37.795277"
       width="483.77954"
       height="718.11023"
       id="rect2726" />
    <rect
       x="37.795277"
       y="37.795277"
       width="483.77954"
       height="718.11023"
       id="rect2727" />
    <rect
       x="37.795277"
       y="37.795277"
       width="483.77954"
       height="718.11023"
       id="rect2728" />
    <rect
       x="37.795277"
       y="37.795277"
       width="483.77954"
       height="718.11023"
       id="rect2729" />
    <rect
       x="37.795277"
       y="37.795277"
       width="483.77954"
       height="718.11023"
       id="rect2730" />
    <rect
       x="37.795277"
       y="37.795277"
       width="483.77954"
       height="718.11023"
       id="rect2731" />
    <rect
       x="37.795277"
       y="37.795277"
       width="483.77954"
       height="718.11023"
       id="rect2732" />
    <rect
       x="37.795277"
       y="37.795277"
       width="483.77954"
       height="718.11023"
       id="rect2733" />
    <rect
       x="37.795277"
       y="37.795277"
       width="483.77954"
       height="718.11023"
       id="rect2734" />
    <rect
       x="37.795277"
       y="37.795277"
       width="483.77954"
       height="718.11023"
       id="rect6439" />
    <rect
       x="37.795277"
       y="37.795277"
       width="483.77954"
       height="718.11023"
       id="rect6440" />
    <rect
       x="37.795277"
       y="37.795277"
       width="483.77954"
       height="718.11023"
       id="rect6441" />
    <rect
       x="37.795277"
       y="37.795277"
       width="483.77954"
       height="718.11023"
       id="rect6442" />
    <rect
       x="37.795277"
       y="37.795277"
       width="483.77954"
       height="718.11023"
       id="rect2743" />
    <rect
       x="37.795277"
       y="37.795277"
       width="483.77954"
       height="718.11023"
       id="rect2744" />
    <rect
       x="37.795277"
       y="37.795277"
       width="483.77954"
       height="718.11023"
       id="rect2745" />
    <rect
       x="37.795277"
       y="37.795277"
       width="483.77954"
       height="718.11023"
       id="rect6403" />
    <rect
       x="37.795277"
       y="37.795277"
       width="483.77954"
       height="718.11023"
       id="rect6443" />
    <rect
       x="37.795277"
       y="37.795277"
       width="483.77954"
       height="718.11023"
       id="rect6444" />
    <rect
       x="37.795277"
       y="37.795277"
       width="483.77954"
       height="718.11023"
       id="rect6445" />
    <rect
       x="37.795277"
       y="37.795277"
       width="483.77954"
       height="718.11023"
       id="rect6446" />
    <rect
       x="37.795277"
       y="37.795277"
       width="483.77954"
       height="718.11023"
       id="rect6469" />
    <rect
       x="37.795277"
       y="37.795277"
       width="483.77954"
       height="718.11023"
       id="rect6470" />
    <rect
       x="37.795277"
       y="37.795277"
       width="483.77954"
       height="718.11023"
       id="rect6471" />
    <rect
       x="37.795277"
       y="37.795277"
       width="483.77954"
       height="718.11023"
       id="rect6472" />
    <rect
       x="-26.458582"
       y="130.73653"
       width="155.86105"
       height="46.469273"
       id="rect30" />
    <rect
       x="-26.458582"
       y="130.73653"
       width="155.86105"
       height="46.469273"
       id="rect31" />
    <rect
       x="-26.458582"
       y="130.73653"
       width="155.86105"
       height="46.469273"
       id="rect32" />
    <rect
       x="-26.458582"
       y="130.73653"
       width="155.86105"
       height="46.469273"
       id="rect33" />
    <rect
       x="-26.458582"
       y="130.73653"
       width="155.86105"
       height="46.469273"
       id="rect34" />
    <rect
       x="-26.458582"
       y="130.73653"
       width="155.86105"
       height="46.469273"
       id="rect35" />
    <rect
       x="-26.458582"
       y="130.73653"
       width="155.86105"
       height="46.469273"
       id="rect38" />
    <rect
       x="-26.458582"
       y="130.73653"
       width="155.86105"
       height="46.469273"
       id="rect39" />
    <rect
       x="-26.458582"
       y="130.73653"
       width="155.86105"
       height="46.469273"
       id="rect40" />
    <rect
       x="-26.458582"
       y="130.73653"
       width="155.86105"
       height="46.469273"
       id="rect42" />
    <rect
       x="-26.458582"
       y="130.73653"
       width="155.86105"
       height="46.469273"
       id="rect43" />
    <rect
       x="-26.458582"
       y="130.73653"
       width="155.86105"
       height="46.469273"
       id="rect44" />
    <rect
       x="-26.458582"
       y="130.73653"
       width="155.86105"
       height="46.469273"
       id="rect46" />
    <rect
       x="-26.458582"
       y="130.73653"
       width="155.86105"
       height="46.469273"
       id="rect47" />
    <rect
       x="-26.458582"
       y="130.73653"
       width="155.86105"
       height="46.469273"
       id="rect48" />
  </defs>
  <g
     inkscape:label="Katman 1"
     inkscape:groupmode="layer"
     id="layer1">
    <path
       style="fill:#2581c4;fill-opacity:1;stroke-width:0.15111"
       d="M 5.2782,4.957521 C 5.2782,4.813624 6.1456,1.747613 6.2327,1.58369 6.3687,1.327581 6.7222,0.945987 6.9437,0.816212 7.5567,0.456941 8.3798,0.396814 8.8908,0.673981 9.1439,0.811289 9.3739,1.076519 9.4641,1.334901 9.5827,1.67463 9.5642,2.255863 9.4211,2.692545 9.1483,3.525145 8.4962,4.152372 7.7616,4.288993 7.4507,4.346803 7.0469,4.287093 6.7575,4.140347 L 6.5607,4.040647 6.5047,4.23046 C 6.4737,4.334858 6.4157,4.550712 6.3744,4.710138 L 6.3004,5 H 5.7895 C 5.4555,5 5.2786,4.98529 5.2786,4.95752 Z M 7.8948,3.304177 C 8.169,3.143516 8.3763,2.814997 8.5024,2.341455 8.6129,1.926625 8.5374,1.575901 8.3134,1.459901 8.1709,1.386231 7.8348,1.384831 7.6616,1.457201 7.4817,1.532361 7.2579,1.763532 7.1403,1.995603 6.9121,2.446044 6.8531,3.057762 7.0199,3.244789 c 0.1944,0.217972 0.5618,0.24291 0.8749,0.05939 z m 2.8271,0.957402 C 9.9706,4.090612 9.6377,3.620259 9.6891,2.80192 c 0.079,-1.250114 0.8585,-2.11447 2.0561,-2.278447 0.6952,-0.09519 1.2903,0.143738 1.4782,0.593526 0.1456,0.348374 0.016,0.897034 -0.2935,1.241084 -0.3288,0.365755 -0.8169,0.529317 -1.744,0.584481 l -0.4693,0.02793 0.026,0.105182 c 0.097,0.401311 0.5615,0.530894 1.3731,0.382978 0.1869,-0.03406 0.3961,-0.07201 0.4649,-0.08434 l 0.125,-0.02241 -0.1038,0.382977 -0.1038,0.382978 -0.3611,0.08543 c -0.4632,0.109595 -1.0775,0.134913 -1.4143,0.05828 z m 0.9324,-2.105851 c 0.2869,-0.05038 0.5039,-0.154958 0.6152,-0.296435 0.2647,-0.336538 0.075,-0.609434 -0.3947,-0.566868 -0.3883,0.03521 -0.774,0.278286 -0.9622,0.60635 -0.1349,0.235183 -0.1431,0.290161 -0.047,0.314095 0.094,0.02344 0.4953,-0.0056 0.7888,-0.05714 z m 2.5008,2.100497 c -0.4054,-0.108915 -0.63,-0.287324 -0.8255,-0.655568 -0.06,-0.113478 -0.074,-0.223084 -0.071,-0.579728 0.01,-0.425916 0.015,-0.480163 0.3594,-1.719191 L 13.9739,0.02234 14.4811,0.01117 14.9884,0 14.9114,0.270922 c -0.043,0.149007 -0.078,0.275476 -0.078,0.281044 0,0.0056 0.2699,0.01012 0.5997,0.01012 0.6692,0 0.6358,-0.01865 0.5427,0.302598 -0.031,0.108442 -0.077,0.273632 -0.1015,0.367087 l -0.044,0.169921 h -0.6138 -0.6137 l -0.083,0.309854 c -0.046,0.17042 -0.1116,0.417803 -0.1468,0.549742 -0.035,0.131937 -0.073,0.374822 -0.084,0.539745 -0.025,0.373613 0.051,0.522853 0.3335,0.647518 0.213,0.09423 0.52,0.08419 0.9122,-0.02982 0.1236,-0.03594 0.2312,-0.05894 0.2391,-0.05109 0.01,0.0079 -0.032,0.179795 -0.088,0.382102 l -0.1021,0.367828 -0.205,0.05924 c -0.2588,0.07476 -0.6823,0.143603 -0.8648,0.140566 -0.077,-0.0012 -0.2384,-0.02881 -0.3588,-0.06116 z M 0.4824,4.190385 c 0,-0.02749 0.043,-0.202905 0.094,-0.389817 L 0.6684,3.460728 1.3745,3.449798 2.0806,3.438868 2.0576,3.209901 C 2.0446,3.083968 2.0256,2.940451 2.0156,2.890974 L 1.9976,2.801014 H 0.9988 C 0.4494,2.801014 0,2.787154 0,2.770234 0,2.743354 0.1254,2.267815 0.1844,2.071366 0.2034,2.007116 0.2884,2.001406 1.2211,2.001406 H 2.2369 L 2.3029,1.871467 C 2.3389,1.799997 2.4218,1.665064 2.4857,1.571608 L 2.602,1.401688 H 1.916 1.2302 L 1.2562,1.29174 C 1.2702,1.23127 1.3202,1.04147 1.3654,0.869967 l 0.083,-0.311825 1.7042,0.01196 1.7043,0.01197 0.2399,0.112208 C 5.5507,0.906597 5.7571,1.21429 5.7878,1.724158 5.8388,2.584272 5.2654,3.624585 4.5371,3.990792 4.0448,4.238329 4.0256,4.24035 2.1709,4.24035 c -1.3278,0 -1.6915,-0.01077 -1.69,-0.04998 z M 4.0379,3.320876 C 4.4317,3.118867 4.7427,2.469189 4.7113,1.914016 4.6973,1.653995 4.6853,1.622991 4.5618,1.51285 4.4349,1.399528 4.4134,1.39423 4.1365,1.408215 3.8821,1.421055 3.8252,1.438695 3.6919,1.546009 3.4521,1.739054 3.3011,1.964676 3.1971,2.285287 3.0703,2.675599 3.0645,3.067801 3.1831,3.227762 3.3436,3.444505 3.7176,3.485238 4.038,3.320872 Z"
       id="path2780" />
  </g>
</svg>
