<?xml version="1.0" encoding="UTF-8" standalone="no"?>
<!-- Created with Inkscape (http://www.inkscape.org/) -->

<svg
   width="6mm"
   height="6mm"
   viewBox="0 0 6 6"
   version="1.1"
   id="svg1"
   inkscape:version="1.4.2 (ebf0e940d0, 2025-05-08)"
   sodipodi:docname="5_1_1_17.svg"
   xmlns:inkscape="http://www.inkscape.org/namespaces/inkscape"
   xmlns:sodipodi="http://sodipodi.sourceforge.net/DTD/sodipodi-0.dtd"
   xmlns="http://www.w3.org/2000/svg"
   xmlns:svg="http://www.w3.org/2000/svg">
  <sodipodi:namedview
     id="namedview1"
     pagecolor="#ffffff"
     bordercolor="#000000"
     borderopacity="0.25"
     inkscape:showpageshadow="2"
     inkscape:pageopacity="0.0"
     inkscape:pagecheckerboard="0"
     inkscape:deskcolor="#d1d1d1"
     inkscape:document-units="mm"
     inkscape:zoom="16.594952"
     inkscape:cx="30.220033"
     inkscape:cy="10.12356"
     inkscape:window-width="1920"
     inkscape:window-height="1014"
     inkscape:window-x="0"
     inkscape:window-y="0"
     inkscape:window-maximized="1"
     inkscape:current-layer="layer1" />
  <defs
     id="defs1">
    <rect
       x="13.485725"
       y="-52.819092"
       width="225.2477"
       height="118.63495"
       id="rect1" />
    <rect
       x="37.795277"
       y="37.795277"
       width="483.77954"
       height="718.11023"
       id="rect2721" />
    <rect
       x="37.795277"
       y="37.795277"
       width="483.77954"
       height="718.11023"
       id="rect2722" />
    <rect
       x="37.795277"
       y="37.795277"
       width="483.77954"
       height="718.11023"
       id="rect2723" />
    <rect
       x="37.795277"
       y="37.795277"
       width="483.77954"
       height="718.11023"
       id="rect2724" />
    <rect
       x="37.795277"
       y="37.795277"
       width="483.77954"
       height="718.11023"
       id="rect2725" />
    <rect
       x="37.795277"
       y="37.795277"
       width="483.77954"
       height="718.11023"
       id="rect2726" />
    <rect
       x="37.795277"
       y="37.795277"
       width="483.77954"
       height="718.11023"
       id="rect2727" />
    <rect
       x="37.795277"
       y="37.795277"
       width="483.77954"
       height="718.11023"
       id="rect2728" />
    <rect
       x="37.795277"
       y="37.795277"
       width="483.77954"
       height="718.11023"
       id="rect2729" />
    <rect
       x="37.795277"
       y="37.795277"
       width="483.77954"
       height="718.11023"
       id="rect2730" />
    <rect
       x="37.795277"
       y="37.795277"
       width="483.77954"
       height="718.11023"
       id="rect2731" />
    <rect
       x="37.795277"
       y="37.795277"
       width="483.77954"
       height="718.11023"
       id="rect2732" />
    <rect
       x="37.795277"
       y="37.795277"
       width="483.77954"
       height="718.11023"
       id="rect2733" />
    <rect
       x="37.795277"
       y="37.795277"
       width="483.77954"
       height="718.11023"
       id="rect2734" />
  </defs>
  <g
     inkscape:label="Katman 1"
     inkscape:groupmode="layer"
     id="layer1">
    <g
       id="g15"
       transform="matrix(0.7495306,0,0,0.7495306,-718.84368,-49.34817)">
      <ellipse
         style="fill:#ffaaaa;fill-opacity:1;stroke:none;stroke-width:0.259079;stroke-dasharray:none"
         id="path4010"
         cx="963.05847"
         cy="69.838715"
         rx="3.8904023"
         ry="3.894521" />
      <path
         style="fill:#d35f5f;fill-opacity:1;stroke:none;stroke-width:0.264999;stroke-dasharray:none"
         d="m 963.35544,73.73323 0.43898,-0.578749 0.93456,-0.87843 0.47455,-0.37003 0.14417,-0.460442 -0.15954,-0.306181 -0.66315,0.145735 -0.70935,0.353103 -1.50148,-0.02447 -0.91377,-0.444918 -1.06492,-0.41733 -0.1846,0.213484 0.008,0.417746 0.73734,0.605917 0.65265,0.399425 1.20065,0.04593 0.12036,0.215408 -0.23262,0.179033 -1.76638,0.276014 -0.46223,-0.404347 -0.77237,-0.89094 -0.34277,-0.964525 0.38386,-0.268446 0.26299,-0.393578 0.44429,-0.0079 0.87847,0.288866 0.39891,-0.04583 0.003,-0.336343 -0.62791,-0.416767 -1.06765,-0.242829 -0.38198,-0.0432 -0.13512,-0.459488 -0.18851,-0.141992 0.35308,-0.714337 0.9869,0.876067 1.04762,0.08604 0.88527,0.434589 0.82669,0.339333 0.98567,-0.436814 0.11986,-0.219165 -0.15266,-0.106415 -0.78407,-0.08782 -0.79222,-0.723572 0.248,-0.06479 2.1219,0.37619 0.55222,-0.28094 -0.0842,-0.240347 -0.57947,-0.40141 -1.00544,-0.603068 -0.2445,0.04188 0.0913,0.620583 -0.24635,0.02265 -0.87675,-0.334711 -0.94715,-0.318635 0.30077,-0.392049 -0.64201,-0.368739 0.91911,-0.31055 0.93393,-0.02693 0.15211,0.32498 2.19739,0.90855 0.23841,-0.01881 0.50554,0.56901 -0.22098,0.473708 -0.0346,0.655491 0.17605,0.244584 -0.0519,0.20416 -0.59085,0.207063 -0.62912,0.06143 -1.45997,0.75811 -0.11377,0.29037 0.28643,0.08201 1.98147,-0.422376 0.5008,0.837623 0.51266,0.14809 -0.47951,0.858198 -0.89302,0.902422 -1.10336,0.541144 z"
         id="path4009" />
      <path
         style="fill:#000000;stroke-width:0.222809"
         d="m 962.4541,73.801852 c -0.84613,-0.12855 -1.59501,-0.515647 -2.22312,-1.149136 -0.47494,-0.479011 -0.74635,-0.903811 -0.94465,-1.478544 -0.78208,-2.266668 0.51945,-4.67602 2.8295,-5.23785 0.53369,-0.1298 1.41345,-0.130134 1.91608,-6.44e-4 1.80169,0.463864 3.02909,2.04242 3.02657,3.892443 -10e-4,0.95293 -0.28827,1.781134 -0.87307,2.519694 -0.85248,1.076615 -2.35695,1.66292 -3.73131,1.454119 z m 0.84743,-0.157609 c 0.036,-0.02382 0.10637,-0.122894 0.15637,-0.220163 0.05,-0.09727 0.17337,-0.237555 0.27415,-0.311741 0.10079,-0.07419 0.25377,-0.241436 0.33995,-0.371666 0.0989,-0.149391 0.30016,-0.320567 0.5454,-0.4638 0.42886,-0.250466 0.67473,-0.584644 0.64165,-0.872101 -0.0298,-0.259477 -0.26945,-0.244958 -0.8664,0.0525 l -0.50812,0.253196 -0.84665,0.0049 -0.84666,0.0049 -0.33237,-0.214975 c -0.18281,-0.118231 -0.51808,-0.275656 -0.74504,-0.349829 -0.22696,-0.07417 -0.49032,-0.174157 -0.58524,-0.222185 -0.15822,-0.08006 -0.17928,-0.07817 -0.25304,0.02271 -0.1475,0.201711 -0.0687,0.39023 0.24876,0.595256 0.16212,0.104693 0.41514,0.308029 0.56227,0.451854 0.29846,0.291766 0.44158,0.3332 1.08838,0.315098 0.48789,-0.01365 0.75606,0.09113 0.7867,0.307401 0.0297,0.20924 -0.13364,0.297508 -0.55037,0.297508 -0.20949,0 -0.39096,0.03082 -0.43384,0.07369 -0.0414,0.04143 -0.21846,0.07369 -0.40441,0.07369 -0.18986,0 -0.34017,0.0279 -0.35292,0.06549 -0.041,0.120954 0.76704,0.41473 1.34823,0.490148 0.50509,0.06554 0.65602,0.0693 0.7332,0.01822 z m 0.99566,-0.196338 c 0.78216,-0.241322 1.59163,-0.893789 2.03523,-1.640477 0.26022,-0.438009 0.27213,-0.476127 0.14875,-0.476127 -0.24264,0 -0.38543,-0.143505 -0.5367,-0.539367 -0.11254,-0.294502 -0.18905,-0.412793 -0.28188,-0.435765 -0.0701,-0.01734 -0.36617,0.05187 -0.65798,0.153798 -0.97066,0.339062 -1.68012,0.361617 -1.68012,0.05342 0,-0.188141 0.22756,-0.358891 1.00556,-0.754524 0.56469,-0.28716 0.77368,-0.364553 0.98994,-0.366605 0.4354,-0.0042 0.86051,-0.136336 0.88123,-0.274053 0.01,-0.06427 -0.0235,-0.150935 -0.0737,-0.192598 -0.10084,-0.08369 -0.11844,-0.280828 -0.0366,-0.410099 0.0315,-0.04981 0.03,-0.143534 -0.004,-0.232274 -0.0446,-0.117472 -0.0312,-0.183113 0.0641,-0.31203 0.1622,-0.219396 0.15337,-0.287475 -0.0709,-0.546725 -0.16462,-0.190291 -0.23132,-0.223964 -0.47368,-0.239162 -0.18251,-0.01145 -0.36416,-0.072 -0.51457,-0.17153 -0.12786,-0.08461 -0.27057,-0.153843 -0.31715,-0.153843 -0.0466,0 -0.27926,-0.102794 -0.51709,-0.228432 -0.23782,-0.125638 -0.52526,-0.248078 -0.63874,-0.272088 -0.2588,-0.05476 -0.35371,-0.129964 -0.35371,-0.280278 0,-0.111185 -0.0294,-0.116196 -0.51582,-0.08804 -0.54786,0.03171 -1.16144,0.188566 -1.10361,0.282132 0.0191,0.03088 0.0847,0.05615 0.14584,0.05615 0.0611,0 0.18556,0.06632 0.27654,0.147379 l 0.1654,0.147379 -0.16211,0.14455 c -0.0892,0.0795 -0.16212,0.158408 -0.16212,0.175341 0,0.08393 0.42354,0.231991 0.77349,0.270406 0.24385,0.02677 0.51874,0.106529 0.7222,0.209552 0.18067,0.09148 0.34279,0.15204 0.36026,0.134574 0.0175,-0.01747 -0.007,-0.14148 -0.0543,-0.275581 -0.0762,-0.215835 -0.0757,-0.254107 0.004,-0.333429 0.1764,-0.176404 0.52949,-0.06592 0.95599,0.299152 0.13131,0.112398 0.3836,0.26842 0.56064,0.346717 0.60883,0.269251 0.69316,0.696215 0.18018,0.912222 -0.19374,0.08158 -1.348,-0.03396 -1.96786,-0.196992 -0.5453,-0.14342 -0.73272,-0.148647 -0.50968,-0.01422 0.0609,0.03672 0.24591,0.180253 0.41105,0.318949 0.28935,0.243022 0.31383,0.251803 0.67429,0.241885 0.45282,-0.01246 0.60041,0.08584 0.51043,0.33998 -0.0711,0.200862 -0.72326,0.55132 -1.10625,0.594489 -0.21243,0.02395 -0.31906,0.002 -0.49452,-0.101923 -0.12303,-0.07285 -0.35634,-0.171494 -0.51845,-0.219213 -0.16212,-0.04772 -0.43063,-0.163865 -0.59669,-0.258104 -0.25006,-0.141911 -0.36956,-0.171347 -0.69561,-0.171347 -0.46997,0 -0.64848,-0.08123 -0.93097,-0.423651 -0.11539,-0.139859 -0.29306,-0.302603 -0.39482,-0.36165 l -0.18503,-0.10736 -0.1237,0.27965 -0.1237,0.279652 0.15464,0.112645 c 0.10579,0.07706 0.15463,0.166962 0.15463,0.284583 0,0.162568 0.0135,0.171939 0.24678,0.171939 0.62363,0 1.61635,0.392424 1.81372,0.71697 0.29982,0.49302 -0.24454,0.675453 -1.01129,0.338921 -0.5633,-0.247231 -0.77491,-0.212241 -0.93194,0.154099 -0.0789,0.184096 -0.15593,0.271254 -0.26356,0.298267 -0.18013,0.04521 -0.17268,0.08902 0.12022,0.707207 0.19605,0.413793 0.78716,1.124954 1.14951,1.382963 0.1582,0.112652 0.17929,0.114439 0.31342,0.02656 0.0921,-0.06037 0.24787,-0.08948 0.43345,-0.08101 0.1593,0.0073 0.32758,-0.01121 0.37396,-0.04105 0.0464,-0.02984 0.25467,-0.06753 0.46288,-0.08374 0.2082,-0.01622 0.38832,-0.05914 0.40024,-0.0954 0.0321,-0.09761 -0.39754,-0.187525 -0.73919,-0.154696 -0.49944,0.04799 -0.7017,-0.02144 -1.06546,-0.365718 -0.18152,-0.171802 -0.41391,-0.355013 -0.51642,-0.407134 -0.41768,-0.212371 -0.54728,-0.605702 -0.29587,-0.89798 l 0.13673,-0.158961 0.60212,0.214122 c 0.66102,0.235072 0.89166,0.341267 1.15824,0.533299 0.16109,0.116046 0.24798,0.127108 0.97494,0.124147 l 0.79808,-0.0033 0.46023,-0.227406 c 0.25312,-0.125071 0.57441,-0.240274 0.71397,-0.256005 0.22477,-0.02533 0.26539,-0.01085 0.35565,0.126917 0.21426,0.32701 -0.0532,0.910925 -0.54557,1.19106 -0.26868,0.152869 -1.25404,1.110588 -1.25404,1.218869 0,0.05965 0.23321,0.0153 0.7369,-0.140091 z m 2.43793,-2.523945 c 0.12868,-0.429482 0.18055,-1.079113 0.1228,-1.538059 -0.0607,-0.482363 -0.24475,-1.096889 -0.38146,-1.273579 -0.084,-0.108608 -0.0889,-0.108687 -0.17098,-0.0027 -0.0655,0.08447 -0.0699,0.141041 -0.0198,0.251048 0.049,0.107487 0.0457,0.177567 -0.0136,0.288308 -0.0674,0.12596 -0.0647,0.161369 0.0198,0.254681 0.12775,0.141154 0.12526,0.382019 -0.005,0.492513 -0.12206,0.103472 -0.63888,0.225573 -0.95478,0.225573 -0.15313,0 -0.43513,0.104816 -0.89451,0.332469 -0.65458,0.324379 -0.93618,0.513751 -0.93618,0.629557 0,0.110783 0.76437,-0.0143 1.38663,-0.226923 0.87669,-0.299558 0.99909,-0.257263 1.24302,0.429539 0.10619,0.298987 0.16134,0.347372 0.41176,0.36126 0.0946,0.0053 0.13937,-0.04676 0.19237,-0.223649 z m -7.11105,-0.464438 c 0.0568,-0.220334 0.3381,-0.424585 0.58524,-0.424933 0.0861,-1.22e-4 0.334,0.07936 0.55079,0.176634 0.39514,0.177287 0.75684,0.228707 0.82565,0.117376 0.18718,-0.30286 -0.69647,-0.741945 -1.65097,-0.820366 l -0.41266,-0.0339 -0.0295,-0.231199 c -0.0335,-0.263095 -0.14407,-0.34105 -0.19802,-0.139659 -0.047,0.175613 -0.0469,1.274019 1.8e-4,1.449814 0.0558,0.208344 0.26688,0.148235 0.32926,-0.09376 z m 4.34018,-0.984983 c 0.32314,-0.154863 0.42511,-0.231826 0.41007,-0.309495 -0.0169,-0.08688 -0.0731,-0.100213 -0.35246,-0.08356 -0.3574,0.0213 -0.48892,-0.02634 -0.81527,-0.295364 -0.11348,-0.09355 -0.29424,-0.242298 -0.40169,-0.330555 -0.1389,-0.114091 -0.18393,-0.190259 -0.15581,-0.263536 0.057,-0.148493 0.43848,-0.133735 1.03862,0.04018 0.6609,0.19152 1.64359,0.233152 1.80054,0.07628 0.0949,-0.09481 0.0965,-0.119144 0.0169,-0.257486 -0.0516,-0.08979 -0.19855,-0.19437 -0.35634,-0.253662 -0.14767,-0.05549 -0.42018,-0.224435 -0.60557,-0.375448 -0.31477,-0.256375 -0.59399,-0.38998 -0.66553,-0.318445 -0.017,0.01695 10e-4,0.13752 0.0403,0.267936 0.0391,0.130415 0.055,0.278904 0.0354,0.329971 -0.0529,0.137794 -0.31822,0.113356 -0.60704,-0.05591 -0.15534,-0.09104 -0.40898,-0.16859 -0.65365,-0.199871 -0.49129,-0.06281 -0.8829,-0.215021 -0.9695,-0.376832 -0.0551,-0.102962 -0.04,-0.143446 0.098,-0.262125 0.19244,-0.165525 0.16086,-0.204158 -0.24797,-0.303394 -0.306,-0.07428 -0.30805,-0.07382 -0.63004,0.139905 -0.38322,0.254366 -1.00603,0.903546 -1.14358,1.191992 -0.0936,0.196221 -0.0928,0.207386 0.0188,0.266255 0.064,0.03379 0.27011,0.222719 0.45791,0.419834 l 0.34147,0.358392 0.51333,0.0365 c 0.4402,0.03129 0.57063,0.06736 0.91554,0.253146 0.22121,0.119158 0.4467,0.217849 0.50108,0.219315 0.0543,0.0016 0.21826,0.06659 0.36417,0.144714 0.3606,0.193096 0.54884,0.18259 1.05241,-0.05874 z m 1.65935,-2.442405 c 0,-0.101828 -0.44012,-0.422513 -0.8548,-0.622831 -0.46136,-0.222869 -1.15648,-0.416216 -1.29931,-0.361405 -0.14499,0.05564 -0.0502,0.140351 0.20532,0.183525 0.12748,0.02155 0.38258,0.12996 0.56687,0.240935 0.18429,0.110976 0.36654,0.201775 0.405,0.201775 0.0384,0 0.25411,0.09277 0.47921,0.206147 0.43546,0.219336 0.49771,0.238328 0.49771,0.151854 z"
         id="path3853"
         sodipodi:nodetypes="cssscssccssssssscccsssssssssssssssssssssssssssssssssssssssscsssssssssssssssssssssscccsssssssssssssssssscssscsssssssssssssssssssssssssssscssssssssssssssssssssssssssscsscssssssssss" />
    </g>
  </g>
</svg>
