<?xml version="1.0" encoding="UTF-8" standalone="no"?>
<!-- Created with Inkscape (http://www.inkscape.org/) -->

<svg
   width="6mm"
   height="6mm"
   viewBox="0 0 6 6"
   version="1.1"
   id="svg1"
   inkscape:version="1.4.2 (ebf0e940d0, 2025-05-08)"
   sodipodi:docname="5_1_1_22.svg"
   xmlns:inkscape="http://www.inkscape.org/namespaces/inkscape"
   xmlns:sodipodi="http://sodipodi.sourceforge.net/DTD/sodipodi-0.dtd"
   xmlns="http://www.w3.org/2000/svg"
   xmlns:svg="http://www.w3.org/2000/svg">
  <sodipodi:namedview
     id="namedview1"
     pagecolor="#ffffff"
     bordercolor="#000000"
     borderopacity="0.25"
     inkscape:showpageshadow="2"
     inkscape:pageopacity="0.0"
     inkscape:pagecheckerboard="0"
     inkscape:deskcolor="#d1d1d1"
     inkscape:document-units="mm"
     inkscape:zoom="24.997208"
     inkscape:cx="19.102133"
     inkscape:cy="11.001229"
     inkscape:window-width="1920"
     inkscape:window-height="1014"
     inkscape:window-x="0"
     inkscape:window-y="0"
     inkscape:window-maximized="1"
     inkscape:current-layer="layer1" />
  <defs
     id="defs1">
    <rect
       x="13.485725"
       y="-52.819092"
       width="225.2477"
       height="118.63495"
       id="rect1" />
    <rect
       x="37.795277"
       y="37.795277"
       width="483.77954"
       height="718.11023"
       id="rect2721" />
    <rect
       x="37.795277"
       y="37.795277"
       width="483.77954"
       height="718.11023"
       id="rect2722" />
    <rect
       x="37.795277"
       y="37.795277"
       width="483.77954"
       height="718.11023"
       id="rect2723" />
    <rect
       x="37.795277"
       y="37.795277"
       width="483.77954"
       height="718.11023"
       id="rect2724" />
    <rect
       x="37.795277"
       y="37.795277"
       width="483.77954"
       height="718.11023"
       id="rect2725" />
    <rect
       x="37.795277"
       y="37.795277"
       width="483.77954"
       height="718.11023"
       id="rect2726" />
    <rect
       x="37.795277"
       y="37.795277"
       width="483.77954"
       height="718.11023"
       id="rect2727" />
    <rect
       x="37.795277"
       y="37.795277"
       width="483.77954"
       height="718.11023"
       id="rect2728" />
    <rect
       x="37.795277"
       y="37.795277"
       width="483.77954"
       height="718.11023"
       id="rect2729" />
    <rect
       x="37.795277"
       y="37.795277"
       width="483.77954"
       height="718.11023"
       id="rect2730" />
    <rect
       x="37.795277"
       y="37.795277"
       width="483.77954"
       height="718.11023"
       id="rect2731" />
    <rect
       x="37.795277"
       y="37.795277"
       width="483.77954"
       height="718.11023"
       id="rect2732" />
    <rect
       x="37.795277"
       y="37.795277"
       width="483.77954"
       height="718.11023"
       id="rect2733" />
    <rect
       x="37.795277"
       y="37.795277"
       width="483.77954"
       height="718.11023"
       id="rect2734" />
  </defs>
  <g
     inkscape:label="Katman 1"
     inkscape:groupmode="layer"
     id="layer1">
    <g
       id="g1"
       transform="matrix(0.74999258,0,0,0.74999258,0.19843206,0.81766947)">
      <path
         style="fill:#ffeeaa;stroke-width:0.264999"
         d="M 4.98217,6.40918 5.67403,6.14045 6.0459,5.78895 6.49268,5.53776 6.87196,4.74584 7.22864,4.46017 7.48455,4.31494 7.45555,3.73438 7.68458,2.55723 7.55411,2.10164 7.33594,1.58527 7.24664,1.09084 6.64738,0.20216 6.28821,-0.34745 5.50459,-0.70193 4.46081,-0.73703 3.67333,-0.60874 2.94049,-0.72266 1.94351,-0.36271 1.14283,-0.04415 0.72434,0.55066 0.20443,1.46288 0.16673,2.03981 -0.17628,2.5934 l -0.0544,0.24481 0.23929,0.68832 0.0837,0.40545 0.054,0.57116 0.20444,0.50635 0.37023,0.33748 0.38632,0.17899 0.46861,0.57313 0.45651,0.28545 0.64836,0.13848 1.12278,-0.002 0.93562,-0.0359 z"
         id="path10" />
      <path
         style="fill:#ffdd55;stroke-width:0.264999"
         d="M 4.99337,5.83727 5.4036,5.71088 5.4826,5.57987 5.3878,5.2335 5.18857,5.1959 4.8563,5.2272 4.7751,5.3198 4.88578,5.77951 Z"
         id="path11" />
      <path
         style="fill:#ffdd55;stroke-width:0.264999"
         d="M 2.88374,5.81189 3.13414,6.01616 3.34266,5.87873 3.6958,5.65674 3.6496,5.46798 3.45582,5.47098 2.99446,5.60745 2.89716,5.72313 Z"
         id="path12" />
      <path
         style="fill:#ffdd55;stroke-width:0.264999"
         d="M 1.26946,4.93108 1.50571,5.15099 1.66779,5.42287 1.88438,5.38897 2.03419,5.22887 2.03719,4.94545 1.84663,4.65774 1.50315,4.56824 1.33898,4.69104 Z"
         id="path13" />
      <path
         style="fill:#ffdd55;stroke-width:0.264999"
         d="M 3.06834,4.8548 3.58038,4.799 3.88786,4.8925 4.2388,4.76903 4.3251,4.56007 4.22004,4.37055 3.96858,4.27405 3.42301,4.34625 3.18261,4.29075 2.99137,4.44945 v 0 l -0.0271,0.25293 z"
         id="path14" />
      <path
         style="fill:#ffdd55;stroke-width:0.264999"
         d="M 5.52822,4.46094 5.8299,4.50304 6.09276,4.34577 6.19606,4.16199 6.56097,4.05257 6.55597,3.77668 6.32391,3.5895 6.14957,3.5757 5.87657,3.6643 5.83447,3.90349 5.85957,4.09881 5.42843,4.25777 Z"
         id="path15" />
      <path
         style="fill:#ffdd55;stroke-width:0.264999"
         d="M 2.54914,3.71656 2.86982,3.67426 3.01344,3.5463 2.97404,3.30732 2.53285,2.97321 l -0.2235,0.0157 -0.0965,0.13976 0.25654,0.2806 -0.003,0.26709 z"
         id="path16" />
      <path
         style="fill:#ffdd55;stroke-width:0.264999"
         d="m 4.59713,2.29807 0.2872,-0.005 0.2077,-0.0553 L 5.252,2.29567 5.3465,2.48724 5.2623,2.61624 5.07617,2.72786 5.10237,3.10424 5.00717,3.28392 4.68348,3.39315 4.50396,3.32595 4.46096,3.0028 4.23209,2.65276 4.31839,2.46103 Z"
         id="path17" />
      <path
         style="fill:#ffdd55;stroke-width:0.264999"
         d="M 1.88824,2.54797 2.07049,2.44937 2.35179,2.07958 2.64768,2.06578 2.77785,1.95332 2.70915,1.80831 2.44677,1.6289 2.01708,1.7436 1.81084,2.07174 1.49805,2.16184 1.38867,2.31878 l 0.0514,0.1662 0.22386,0.093 z"
         id="path18" />
      <path
         style="fill:#ffdd55;stroke-width:0.264999"
         d="M 1.06338,1.38626 1.40101,1.58661 1.59016,1.53341 1.81551,1.25459 2.20796,0.99997 2.26496,0.64998 2.11878,0.39253 1.82369,0.27013 1.59602,0.29293 1.23288,0.57033 1.33736,0.76509 1.44679,0.89437 1.06309,1.13986 Z"
         id="path19" />
      <path
         style="fill:#ffdd55;stroke-width:0.264999"
         d="m 3.38838,0.26232 0.057,0.4755 0.21418,-0.0254 0.22931,-0.20548 -0.0233,-0.258 -0.13002,-0.1417 -0.26995,0.0753 z"
         id="path20" />
      <path
         style="fill:#ffdd55;stroke-width:0.264999"
         d="M 4.71714,1.29912 5.15735,1.49099 5.26573,1.44579 5.32233,1.24187 5.20011,1.00754 5.02594,0.95864 4.69325,1.06799 Z"
         id="path21" />
      <path
         style="fill:#ffdd55;stroke-width:0.264999"
         d="M 5.937,1.78345 6.37706,1.99396 6.50009,1.91126 6.47809,1.73519 6.39249,1.61914 6.30769,1.59494 6.20347,1.64974 6.02662,1.62584 5.94522,1.68194 Z"
         id="path22" />
      <path
         style="fill:#ffdd55;stroke-width:0.264999"
         d="M 5.69242,0.40461 6.05326,0.67172 6.2341,0.60692 6.2648,0.39657 6.09073,0.0555 5.74574,-0.17782 l -0.32131,-0.0199 -0.2603,0.14337 -0.0945,0.2071 0.0845,0.15594 0.24529,0.0709 z"
         id="path23" />
      <path
         style="fill:#000000;stroke-width:0.207149"
         d="M 3.82359,6.57823 C 3.74469,6.57423 3.62102,6.56723 3.54885,6.56253 3.47665,6.55753 3.3475,6.55163 3.26179,6.54863 3.12559,6.54363 3.0977,6.54563 3.04036,6.55883 2.95936,6.57793 2.73917,6.58033 2.63849,6.56283 2.2132,6.49033 2.14883,6.47623 2.01219,6.42514 1.68267,6.30203 1.42941,6.08798 1.25549,5.78559 1.18849,5.66903 1.16079,5.63128 1.10228,5.57615 1.03748,5.51525 0.97849,5.48205 0.86249,5.4417 0.70159,5.3857 0.57341,5.3049 0.45315,5.18369 0.31119,5.04062 0.20088,4.85992 0.12193,4.64114 0.05313,4.45046 0.04693,4.41848 0.05013,4.26944 c 0.009,-0.39122 0.007,-0.40143 -0.0895,-0.69687 -0.0354,-0.1084 -0.0798,-0.24691 -0.0987,-0.3078 -0.0188,-0.0609 -0.0551,-0.17161 -0.0804,-0.24604 -0.0462,-0.13507 -0.0462,-0.13551 -0.0461,-0.23375 1.2e-4,-0.0876 0.003,-0.10394 0.0216,-0.14893 0.0263,-0.0619 0.0709,-0.13129 0.17027,-0.26523 0.0491,-0.0662 0.093,-0.13738 0.12395,-0.20094 0.0566,-0.11641 0.0694,-0.17797 0.0774,-0.37316 0.007,-0.15928 0.0289,-0.2977 0.0661,-0.40863 C 0.22915,1.28536 0.25595,1.23354 0.32301,1.14061 0.46504,0.94369 0.59525,0.73515 0.70603,0.52712 0.77613,0.39547 0.94052,0.13083 0.99597,0.06033 c 0.11566,-0.14708 0.24687,-0.21849 0.60089,-0.32705 0.0541,-0.0166 0.14824,-0.0484 0.20913,-0.0708 0.16548,-0.0607 0.586,-0.22153 0.62741,-0.23995 0.0478,-0.0213 0.17141,-0.0698 0.17772,-0.0698 0.004,0 0.0305,-0.0111 0.0601,-0.0246 0.0295,-0.0136 0.0557,-0.0246 0.0581,-0.0246 0.002,0 0.0363,-0.0157 0.0754,-0.0349 0.0696,-0.0342 0.0727,-0.0348 0.15329,-0.0344 0.0693,3.7e-4 0.0991,0.005 0.18888,0.0307 0.31782,0.0904 0.55801,0.10981 0.74222,0.0601 0.0428,-0.0115 0.12036,-0.0324 0.17223,-0.0463 0.10367,-0.0278 0.29009,-0.0513 0.52899,-0.0668 0.13421,-0.009 0.16514,-0.008 0.34035,0.008 0.10601,0.01 0.21858,0.0196 0.25015,0.0216 0.0316,0.002 0.0888,0.006 0.12712,0.009 0.24662,0.0167 0.40928,0.0642 0.63971,0.18645 0.0519,0.0276 0.1386,0.0719 0.19273,0.0986 0.16767,0.0828 0.23075,0.13727 0.35803,0.30939 0.0732,0.0989 0.11975,0.17097 0.39262,0.60691 0.0917,0.14659 0.21807,0.34499 0.28069,0.44086 0.17628,0.26991 0.20731,0.34859 0.21908,0.5556 0.0116,0.20545 0.0335,0.27377 0.18202,0.56999 0.13743,0.27407 0.16279,0.36268 0.16267,0.56855 -8e-5,0.14973 -0.0216,0.26237 -0.14413,0.75499 -0.11356,0.45645 -0.11808,0.5081 -0.0748,0.85444 0.0113,0.0902 0.008,0.1256 -0.0167,0.15841 C 7.47617,4.38682 7.39642,4.43982 7.30029,4.48751 7.16747,4.55341 7.08331,4.61203 6.99659,4.69933 6.86724,4.82954 6.80246,4.94284 6.69828,5.22097 6.66788,5.30217 6.62108,5.41415 6.59431,5.46983 6.55221,5.55733 6.53761,5.57899 6.48653,5.62975 6.42023,5.69575 6.35302,5.73297 6.26321,5.7538 6.14296,5.7817 6.04889,5.8451 5.91674,5.98716 5.78247,6.13155 5.61101,6.25592 5.44414,6.32996 5.32617,6.38236 4.90177,6.50031 4.6857,6.54085 4.4824,6.57895 4.13892,6.59385 3.82351,6.57815 Z M 2.92704,6.46712 c 0.21775,-0.0405 0.33368,-0.041 0.72393,-0.003 0.33769,0.0326 0.79275,0.0138 1.07916,-0.0446 C 5.05137,6.35392 5.26228,6.2861 5.47414,6.17993 5.63696,6.09833 5.69522,6.05129 5.78926,5.92547 5.91937,5.75138 6.02092,5.68255 6.20609,5.64296 c 0.0923,-0.0198 0.14919,-0.0472 0.19713,-0.0951 0.0481,-0.048 0.0598,-0.0719 0.16659,-0.34044 0.0908,-0.22799 0.12251,-0.29801 0.16039,-0.3534 0.0117,-0.0171 0.0213,-0.033 0.0213,-0.0353 0,-0.002 0.0219,-0.0329 0.0484,-0.0679 0.0903,-0.11851 0.1954,-0.20162 0.37469,-0.29611 0.13288,-0.07 0.17227,-0.094 0.20425,-0.12435 l 0.0328,-0.0311 -2e-4,-0.0884 C 7.41128,4.16226 7.40544,4.06424 7.40004,3.99305 7.39304,3.91575 7.39104,3.83211 7.39404,3.7854 7.40414,3.64142 7.45244,3.41351 7.54944,3.0522 7.60394,2.84897 7.61944,2.7705 7.62594,2.66274 7.63594,2.50207 7.60134,2.36187 7.49331,2.12134 7.46291,2.05374 7.42611,1.97064 7.41141,1.93682 7.39671,1.90292 7.37371,1.85142 7.36031,1.822 7.33821,1.7739 7.30211,1.67004 7.28891,1.61696 7.28591,1.60576 7.27991,1.54296 7.27611,1.47754 7.27211,1.40984 7.26121,1.33039 7.25161,1.29301 7.22711,1.19731 7.16061,1.06924 7.03641,0.87884 6.97611,0.78644 6.85543,0.59814 6.7682,0.46056 6.44158,-0.05448 6.43199,-0.06835 6.32286,-0.18365 6.21275,-0.29997 6.0918,-0.38105 5.9556,-0.42985 5.9217,-0.44195 5.84795,-0.47485 5.79157,-0.50295 5.64103,-0.57795 5.55254,-0.61072 5.4225,-0.63963 c -0.0203,-0.005 -0.13839,-0.0113 -0.26245,-0.0151 -0.12403,-0.004 -0.26982,-0.0128 -0.32394,-0.0202 -0.0578,-0.008 -0.15762,-0.0135 -0.24194,-0.0138 -0.15287,-4.7e-4 -0.24341,0.0103 -0.385,0.0459 -0.0431,0.0108 -0.11528,0.022 -0.1604,0.0249 -0.0451,0.003 -0.11892,0.0142 -0.16403,0.025 -0.22526,0.0541 -0.40672,0.0418 -0.6942,-0.0472 -0.1018,-0.0315 -0.11647,-0.034 -0.20794,-0.0345 -0.0796,-4.1e-4 -0.11141,0.003 -0.16631,0.0187 -0.0751,0.0213 -0.0886,0.0346 -0.0802,0.079 0.005,0.0263 0.004,0.0272 -0.0259,0.0314 -0.017,0.002 -0.0476,0.005 -0.0679,0.005 -0.12977,0.002 -0.14935,0.008 -0.5577,0.16917 -0.29483,0.11665 -0.50327,0.1956 -0.68159,0.25819 -0.13176,0.0463 -0.15975,0.0597 -0.22486,0.1089 C 1.12404,0.03653 1.07512,0.09043 1.01302,0.17767 0.89122,0.34877 0.87208,0.37896 0.85454,0.42781 0.82254,0.51701 0.79714,0.56262 0.64947,0.79693 0.4288,1.147 0.30833,1.34861 0.28853,1.40096 c -0.0278,0.0735 -0.0412,0.16449 -0.0492,0.33497 -0.0172,0.3662 -0.0482,0.44628 -0.2908,0.75043 -0.0342,0.0428 -0.0735,0.10078 -0.0875,0.12874 -0.0339,0.0677 -0.047,0.15663 -0.0331,0.22398 0.006,0.0271 0.0657,0.21806 0.13353,0.4244 0.0678,0.20634 0.13644,0.42131 0.15244,0.47769 l 0.029,0.10252 0.007,0.23783 c 0.009,0.31577 0.0115,0.33109 0.12212,0.63561 0.0722,0.19868 0.0961,0.23564 0.25444,0.39415 0.15677,0.1569 0.22587,0.20203 0.39405,0.25738 0.0856,0.0281 0.12087,0.0456 0.18544,0.0913 0.0745,0.0529 0.15263,0.1422 0.21361,0.24456 0.13419,0.22527 0.24101,0.34074 0.4281,0.46274 0.0784,0.0511 0.27287,0.15329 0.36271,0.19056 0.12035,0.0499 0.30698,0.0884 0.57344,0.1182 0.12989,0.0146 0.11745,0.015 0.24345,-0.009 z M 4.04169,6.20238 c -0.007,-0.0112 0.037,-0.0472 0.0811,-0.0662 0.0756,-0.0329 0.0909,-0.0605 0.0661,-0.11985 l -0.012,-0.0286 0.0193,0.0145 c 0.0289,0.0217 0.0538,0.0619 0.0538,0.0868 0,0.0258 -0.0275,0.0456 -0.0984,0.0711 -0.0248,0.009 -0.0588,0.0236 -0.0754,0.0327 -0.0167,0.009 -0.0322,0.0134 -0.0345,0.01 z M 3.10545,6.05066 C 2.98197,5.98006 2.85692,5.86927 2.83454,5.81069 c -0.0165,-0.0434 -0.008,-0.0851 0.0259,-0.12534 0.0309,-0.0368 0.24363,-0.20426 0.2772,-0.21828 0.0422,-0.0176 0.0793,-0.0152 0.12337,0.008 0.0512,0.0272 0.0668,0.026 0.1199,-0.01 0.0769,-0.0511 0.12732,-0.0706 0.18324,-0.0709 0.0811,-3.4e-4 0.14677,0.039 0.19105,0.11454 0.0172,0.0293 0.0205,0.0436 0.0174,0.0756 -0.007,0.0751 -0.062,0.15476 -0.12804,0.18609 -0.0163,0.008 -0.0556,0.0166 -0.0873,0.0198 -0.10602,0.0103 -0.16165,0.0495 -0.2099,0.14764 -0.0144,0.0293 -0.0334,0.0635 -0.0422,0.076 -0.0387,0.0549 -0.13586,0.0725 -0.19967,0.0359 z M 3.23652,5.93115 c 0.025,-0.0242 0.0492,-0.0727 0.0797,-0.1597 0.0206,-0.0586 0.041,-0.0665 0.17154,-0.0665 0.11252,0 0.11422,-2.6e-4 0.13587,-0.0219 0.03,-0.03 0.0398,-0.0903 0.021,-0.12983 -0.0339,-0.0711 -0.13161,-0.0764 -0.26383,-0.0142 -0.0482,0.0226 -0.0635,0.0255 -0.16065,0.0298 -0.102,0.005 -0.10917,0.006 -0.14352,0.0294 -0.0199,0.0136 -0.0611,0.0487 -0.0915,0.0783 -0.0531,0.0514 -0.0553,0.0552 -0.0553,0.0926 0,0.0352 0.004,0.043 0.039,0.0807 0.0352,0.0377 0.10998,0.0947 0.14147,0.10786 0.007,0.003 0.0318,0.004 0.0556,0.003 0.0359,-0.002 0.048,-0.007 0.0709,-0.0292 z M 4.94678,5.86195 C 4.87668,5.84305 4.81932,5.79615 4.79499,5.73797 4.78349,5.71037 4.78229,5.68857 4.78699,5.59626 l 0.006,-0.10909 -0.0454,-0.0436 c -0.0487,-0.0468 -0.0612,-0.0789 -0.0514,-0.13137 0.012,-0.0636 0.0765,-0.11734 0.18525,-0.15427 0.0653,-0.0221 0.15666,-0.0237 0.22091,-0.004 0.0387,0.0119 0.0534,0.0125 0.11185,0.004 0.11896,-0.0172 0.19924,0.017 0.24072,0.10274 0.0221,0.0456 0.0744,0.26872 0.0743,0.31702 -7e-5,0.0492 -0.0309,0.11348 -0.0682,0.14188 -0.0395,0.0301 -0.11468,0.0615 -0.26812,0.11188 -0.13416,0.0441 -0.17618,0.0492 -0.2463,0.0303 z M 5.12649,5.76144 C 5.36643,5.69274 5.41078,5.66704 5.43547,5.58211 l 0.013,-0.0449 -0.0299,-0.0959 c -0.0164,-0.0528 -0.0385,-0.11517 -0.0489,-0.13873 -0.0175,-0.0397 -0.0225,-0.0442 -0.0669,-0.0608 -0.0631,-0.0236 -0.0732,-0.0176 -0.0927,0.0551 -0.0114,0.0428 -0.0235,0.0442 -0.0788,0.009 -0.0684,-0.0436 -0.10261,-0.0558 -0.15649,-0.056 -0.0847,-3e-4 -0.17749,0.0605 -0.16284,0.10665 0.003,0.0102 0.0198,0.0338 0.0367,0.0523 0.0614,0.0672 0.064,0.0806 0.0444,0.24036 -0.004,0.0366 -0.002,0.0477 0.0159,0.0787 0.0217,0.0371 0.0599,0.0626 0.0945,0.0629 0.0106,9e-5 0.0661,-0.0132 0.12302,-0.0294 z M 1.6611,5.46268 C 1.5689,5.44448 1.53447,5.40108 1.50688,5.26794 1.49988,5.23504 1.48908,5.19764 1.48238,5.18464 1.46488,5.15074 1.40978,5.10644 1.37066,5.09464 1.32266,5.08024 1.26871,5.02754 1.24965,4.97626 1.19585,4.83142 1.23445,4.70974 1.36866,4.60178 c 0.0994,-0.0799 0.13248,-0.0941 0.22008,-0.0942 0.0681,-7e-5 0.0786,0.002 0.13682,0.03 0.14549,0.0695 0.27547,0.20093 0.3457,0.34961 0.0247,0.0524 0.0259,0.0594 0.0249,0.14929 -0.002,0.15596 -0.0396,0.26781 -0.11553,0.34165 -0.0794,0.0773 -0.19783,0.10853 -0.31951,0.0845 z m 0.15093,-0.0915 c 0.0467,-0.0152 0.0642,-0.0266 0.10959,-0.0718 0.0716,-0.0712 0.0921,-0.1219 0.0918,-0.22597 C 2.01301,4.95389 1.96952,4.86573 1.84968,4.742 1.78668,4.6769 1.78458,4.6757 1.74572,4.6757 c -0.0256,0 -0.0475,-0.005 -0.0615,-0.0153 -0.0405,-0.0286 -0.10724,-0.0585 -0.1306,-0.0585 -0.0645,0 -0.17615,0.0936 -0.20194,0.1693 -0.0163,0.0477 -0.0174,0.15751 -0.002,0.19388 0.0156,0.0371 0.036,0.0528 0.10492,0.0807 0.0926,0.0377 0.1089,0.0578 0.14377,0.17814 0.0472,0.16275 0.0851,0.1889 0.2136,0.14724 z M 3.12142,4.91834 C 3.03502,4.89734 2.9629,4.83654 2.92254,4.75047 2.90344,4.70977 2.90094,4.69417 2.90094,4.61783 c 0,-0.0839 9.9e-4,-0.0885 0.0315,-0.15035 0.0402,-0.0811 0.11764,-0.16504 0.18327,-0.19826 0.0459,-0.0232 0.0517,-0.0241 0.15835,-0.0237 0.0924,3.6e-4 0.12696,0.004 0.20914,0.0239 0.13073,0.0312 0.21406,0.0317 0.3041,0.002 0.13226,-0.0436 0.21912,-0.046 0.32934,-0.009 C 4.22537,4.29872 4.33268,4.39078 4.3643,4.47479 4.3914,4.54669 4.3862,4.64533 4.3522,4.7079 4.3229,4.7617 4.29,4.7866 4.17217,4.8445 4.06049,4.8992 3.97585,4.9218 3.88144,4.9218 3.79374,4.9218 3.73577,4.9071 3.63227,4.8589 3.56077,4.8255 3.54727,4.8219 3.51335,4.8264 3.49225,4.8294 3.44725,4.846 3.41314,4.8637 3.29019,4.9276 3.21635,4.9414 3.12144,4.9183 Z M 3.3039,4.81077 c 0.0412,-0.0103 0.1021,-0.0309 0.13533,-0.0457 0.0356,-0.0159 0.079,-0.0283 0.10561,-0.0302 0.041,-0.003 0.0516,-1.1e-4 0.11571,0.0337 0.09,0.0474 0.15052,0.0649 0.22818,0.0656 0.0811,8e-4 0.13577,-0.0128 0.227,-0.0564 C 4.23661,4.71997 4.29277,4.64154 4.28002,4.54844 4.26702,4.45374 4.18322,4.3714 4.0624,4.33472 4,4.31572 3.94309,4.32022 3.83575,4.35282 c -0.12009,0.0364 -0.23169,0.0424 -0.30589,0.0165 -0.024,-0.008 -0.0456,-0.0132 -0.0479,-0.0108 -0.002,0.002 0.004,0.0251 0.0128,0.0503 0.01,0.0253 0.0172,0.0495 0.0172,0.0538 0,0.011 -0.0547,0.01 -0.0764,-0.002 -0.01,-0.005 -0.0364,-0.0251 -0.0589,-0.0441 -0.048,-0.0406 -0.0958,-0.0674 -0.13257,-0.0743 -0.0577,-0.0108 -0.17414,0.0781 -0.21155,0.16145 -0.0205,0.0455 -0.0223,0.0577 -0.0191,0.11728 0.006,0.10907 0.0471,0.18062 0.11828,0.20643 0.036,0.0131 0.0631,0.0103 0.1722,-0.0171 z M 5.59543,4.53511 C 5.47132,4.51451 5.35761,4.41509 5.35761,4.32711 c 0,-0.064 0.0633,-0.13755 0.14457,-0.16795 0.024,-0.009 0.0836,-0.0216 0.13221,-0.028 0.1071,-0.014 0.14368,-0.0282 0.16552,-0.064 0.0212,-0.0346 0.0209,-0.0574 -9.9e-4,-0.12676 -0.0367,-0.11383 -0.0173,-0.23098 0.0514,-0.30893 0.0391,-0.0444 0.0855,-0.0684 0.15164,-0.0783 0.0269,-0.004 0.0729,-0.0138 0.10221,-0.0217 0.16405,-0.044 0.41377,0.0665 0.493,0.2182 0.029,0.0556 0.0323,0.18878 0.007,0.27086 -0.0307,0.098 -0.0475,0.10853 -0.22269,0.13903 -0.13753,0.0239 -0.16439,0.0433 -0.21935,0.15815 -0.0534,0.11138 -0.15291,0.18661 -0.28372,0.21432 -0.0623,0.0132 -0.21068,0.0148 -0.28188,0.003 z m 0.25102,-0.0842 c 0.0575,-0.0181 0.13733,-0.073 0.17451,-0.11999 0.0169,-0.0214 0.0412,-0.0643 0.0541,-0.0952 0.0295,-0.071 0.0483,-0.0985 0.0775,-0.11361 0.0127,-0.007 0.0829,-0.0248 0.15597,-0.0406 0.18699,-0.0403 0.2173,-0.0617 0.21513,-0.15204 -0.002,-0.0839 -0.0224,-0.14053 -0.0731,-0.20314 -0.0572,-0.0707 -0.15452,-0.1169 -0.24586,-0.1169 -0.0388,0 -0.0482,0.003 -0.069,0.0239 -0.0132,0.0132 -0.024,0.0302 -0.024,0.0378 0,0.0146 9.8e-4,0.0146 -0.0996,-5.6e-4 -0.0367,-0.006 -0.0392,-0.005 -0.0711,0.0284 -0.0338,0.0348 -0.059,0.0918 -0.059,0.13358 0,0.0129 0.011,0.057 0.0246,0.0981 0.0408,0.12389 0.03,0.1807 -0.0425,0.22308 -0.0397,0.0231 -0.1262,0.0476 -0.22289,0.0632 -0.075,0.012 -0.1274,0.0359 -0.14372,0.0656 -0.0225,0.0409 0.009,0.11832 0.0608,0.14846 0.0683,0.0399 0.19642,0.0488 0.28798,0.02 z M 0.9411,4.12519 C 0.8574,4.11299 0.81376,4.09419 0.77165,4.05209 0.71225,3.99269 0.70885,3.95023 0.75725,3.87712 c 0.0255,-0.0385 0.0563,-0.062 0.15805,-0.12083 0.0489,-0.0282 0.0788,-0.0637 0.0788,-0.0935 0,-0.0289 -0.03,-0.0669 -0.0671,-0.0849 C 0.9072,3.56789 0.8487,3.55119 0.79703,3.53989 0.60298,3.49749 0.45132,3.38921 0.41931,3.27031 0.40211,3.20641 0.42931,3.1389 0.50041,3.0695 0.62145,2.95132 0.77377,2.94766 0.82892,3.0615 c 0.018,0.0373 0.0227,0.0842 0.0103,0.10368 -0.0101,0.0161 -0.0448,-0.004 -0.095,-0.0555 -0.034,-0.0347 -0.0456,-0.0416 -0.0701,-0.0416 -0.0379,0 -0.11203,0.0439 -0.13705,0.0812 -0.0245,0.0364 -0.0251,0.0972 -0.002,0.14586 0.0377,0.078 0.12289,0.12444 0.3285,0.17936 0.16386,0.0437 0.19773,0.0615 0.22198,0.11634 0.0439,0.0992 -0.0203,0.20868 -0.1672,0.28491 -0.0777,0.0404 -0.0888,0.0505 -0.0888,0.082 0,0.0317 0.0228,0.0549 0.0738,0.0748 0.0203,0.008 0.0454,0.0199 0.0557,0.0265 0.0265,0.0169 0.0562,0.0775 0.0365,0.0742 -0.003,-5.5e-4 -0.0281,-0.004 -0.0551,-0.008 z M 2.58852,3.76552 C 2.50682,3.74812 2.45443,3.71062 2.43294,3.65434 2.41894,3.61774 2.41914,3.58834 2.43393,3.46591 2.44093,3.41261 2.42693,3.39501 2.32777,3.32911 2.2038,3.24661 2.17476,3.21227 2.17508,3.14852 c 2.1e-4,-0.0462 0.023,-0.095 0.0665,-0.14209 0.0612,-0.0665 0.13599,-0.0909 0.23537,-0.0768 0.0884,0.0125 0.16188,0.0499 0.29665,0.1509 0.0428,0.0321 0.10057,0.0736 0.12824,0.0923 0.0631,0.0426 0.14383,0.14117 0.16309,0.1992 0.0177,0.0532 0.0131,0.12795 -0.011,0.18257 -0.0206,0.0464 -0.0835,0.10978 -0.14277,0.14362 -0.0965,0.0551 -0.23973,0.085 -0.32284,0.0672 z M 2.70955,3.66672 C 2.8926,3.64572 2.98719,3.57702 2.98697,3.46532 2.98686,3.41082 2.95727,3.34956 2.90327,3.29255 2.81707,3.20145 2.6211,3.05983 2.52819,3.02161 2.43969,2.98521 2.32615,3.00111 2.28295,3.05611 c -0.0539,0.0686 -0.0268,0.11855 0.11897,0.21908 0.11347,0.0783 0.11764,0.0868 0.11764,0.24286 0,0.11297 6.2e-4,0.11735 0.0202,0.13683 0.0231,0.0231 0.0532,0.0252 0.16984,0.0118 z m 1.09268,0.0381 C 3.74923,3.68062 3.71473,3.60802 3.68844,3.46598 3.66374,3.3321 3.66364,3.33055 3.68244,3.33055 c 0.0183,0 0.0465,0.0596 0.0785,0.1661 0.0232,0.0773 0.055,0.12356 0.0913,0.13263 0.0114,0.003 0.0487,-5.6e-4 0.0829,-0.008 0.0585,-0.0121 0.0627,-0.012 0.0728,0.002 0.0127,0.0173 0.004,0.0295 -0.0448,0.0634 -0.0385,0.0267 -0.122,0.0359 -0.16142,0.0179 z M 6.95824,3.50168 c -0.094,-0.0951 -0.10491,-0.23839 -0.025,-0.32798 0.0105,-0.0118 0.0496,-0.0443 0.0868,-0.0722 0.0787,-0.0588 0.0963,-0.086 0.0893,-0.13753 -0.007,-0.0476 -0.0216,-0.0748 -0.074,-0.13359 -0.0569,-0.0638 -0.0745,-0.10017 -0.0741,-0.15316 6.2e-4,-0.0738 0.0629,-0.14103 0.1546,-0.1667 0.0583,-0.0163 0.0705,-0.0327 0.0705,-0.0951 0,-0.0659 -0.0141,-0.10115 -0.0527,-0.13166 -0.025,-0.0198 -0.0621,-0.0684 -0.0621,-0.0815 0,-0.01 0.074,-9.9e-4 0.10406,0.0123 0.0649,0.0294 0.11678,0.13344 0.10599,0.21222 -0.0101,0.0736 -0.0473,0.11526 -0.14804,0.16571 -0.052,0.026 -0.0948,0.0664 -0.0948,0.0895 0,0.0239 0.0105,0.0428 0.0615,0.11127 0.0583,0.0782 0.079,0.12175 0.0837,0.17573 0.007,0.0768 -0.0338,0.14114 -0.12907,0.20585 -0.10214,0.0694 -0.1147,0.10409 -0.0773,0.21363 0.0144,0.0422 0.0201,0.0743 0.0185,0.1048 l -0.002,0.0439 z M 4.57636,3.41288 c -0.0514,-0.01 -0.11093,-0.0399 -0.12988,-0.0665 -0.0226,-0.0318 -0.0314,-0.081 -0.0225,-0.12744 0.004,-0.022 0.01,-0.0684 0.012,-0.10313 0.004,-0.0551 0.002,-0.0685 -0.0157,-0.10709 C 4.40918,2.98452 4.37658,2.93772 4.34768,2.90478 4.21717,2.75574 4.18777,2.70157 4.19435,2.62221 c 0.006,-0.0645 0.0355,-0.11615 0.1133,-0.1938 0.13809,-0.13788 0.26232,-0.18356 0.47568,-0.17485 0.0895,0.004 0.0985,0.002 0.17223,-0.0222 0.0675,-0.0225 0.0859,-0.0255 0.13932,-0.0222 0.0832,0.005 0.14523,0.0303 0.20143,0.0817 0.087,0.0795 0.11568,0.18263 0.0753,0.27073 -0.025,0.0545 -0.0542,0.078 -0.14563,0.11663 -0.0383,0.0161 -0.078,0.0388 -0.0881,0.0502 -0.0255,0.0287 -0.0238,0.0736 0.006,0.15926 0.0664,0.18965 -0.008,0.38367 -0.17937,0.47124 -0.0813,0.0414 -0.29477,0.0711 -0.38828,0.0539 z M 4.84509,3.31085 C 4.9586,3.27475 5.03898,3.20226 5.06284,3.1145 5.07714,3.0621 5.06684,2.97567 5.03384,2.87538 4.98594,2.72796 4.99024,2.71562 5.11574,2.64574 c 0.12322,-0.0686 0.14994,-0.0895 0.16861,-0.1317 0.0137,-0.0309 0.0147,-0.0412 0.007,-0.0703 -0.0245,-0.0913 -0.10883,-0.16147 -0.19508,-0.16261 -0.041,-5.3e-4 -0.16571,0.0437 -0.27621,0.098 -0.0564,0.0278 -0.1015,0.0453 -0.10564,0.0412 -0.004,-0.004 0.004,-0.0205 0.0187,-0.0385 l 0.0259,-0.0313 -0.035,-0.0107 C 4.65272,2.31793 4.52389,2.35933 4.40983,2.4407 4.33013,2.4976 4.29117,2.55907 4.29117,2.62805 c 0,0.0295 0.008,0.0476 0.0422,0.10073 0.0232,0.0355 0.0598,0.0836 0.0813,0.10657 0.0511,0.0547 0.093,0.12097 0.11145,0.17618 0.0149,0.0444 0.0186,0.1279 0.0105,0.23008 -0.004,0.0491 0.009,0.0735 0.0455,0.0901 0.0323,0.0144 0.19209,0.002 0.26286,-0.0208 z M 1.56821,2.60216 C 1.51011,2.58286 1.42175,2.52686 1.38468,2.48584 1.32718,2.42224 1.31588,2.3168 1.35868,2.24371 c 0.027,-0.0461 0.0945,-0.10485 0.15544,-0.13544 0.0423,-0.0213 0.0574,-0.0243 0.11891,-0.0245 0.13081,-3.4e-4 0.17441,-0.0366 0.23405,-0.19476 0.0305,-0.081 0.0811,-0.14784 0.13338,-0.1762 0.0234,-0.0127 0.0701,-0.0276 0.10672,-0.034 0.0358,-0.006 0.0907,-0.0225 0.12185,-0.0359 0.0312,-0.0135 0.0715,-0.0293 0.0896,-0.0352 0.0441,-0.0142 0.14726,-0.0125 0.19273,0.003 0.16513,0.0572 0.32806,0.21485 0.32806,0.31736 0,0.0408 -0.0359,0.0884 -0.0991,0.13126 -0.0775,0.0526 -0.12974,0.0682 -0.2044,0.0609 -0.10353,-0.01 -0.1384,-0.008 -0.16252,0.01 -0.033,0.024 -0.1265,0.15152 -0.16671,0.2272 -0.0457,0.0859 -0.12242,0.16423 -0.19566,0.19958 -0.0872,0.0421 -0.13953,0.0529 -0.27474,0.0566 -0.10342,0.003 -0.13022,9.8e-4 -0.16814,-0.0116 z M 1.83508,2.53066 C 1.90968,2.51156 1.98169,2.47286 2.03599,2.42263 2.07679,2.38493 2.09309,2.36083 2.13179,2.28177 2.20129,2.13972 2.24073,2.09809 2.34773,2.0539 2.39603,2.0339 2.41103,2.0319 2.51959,2.0308 2.59049,2.03006 2.6509,2.0258 2.66914,2.0192 2.72994,1.9986 2.74844,1.9428 2.71724,1.87417 2.67134,1.77313 2.52846,1.68868 2.40177,1.68773 2.32827,1.68717 2.29311,1.70223 2.23246,1.75983 2.12814,1.85923 2.06023,1.90616 2.06023,1.87887 c 0,-0.005 0.0118,-0.0321 0.0263,-0.0614 0.0201,-0.0407 0.024,-0.0556 0.0167,-0.063 -0.007,-0.007 -0.0129,-0.007 -0.0235,0.002 -0.0196,0.0162 -0.0923,0.13061 -0.13409,0.21093 -0.0574,0.11024 -0.12683,0.17572 -0.20954,0.19749 -0.0181,0.005 -0.0605,0.0108 -0.0943,0.0134 -0.0748,0.006 -0.11879,0.0256 -0.16275,0.0732 -0.0761,0.0825 -0.0588,0.16553 0.0489,0.23462 0.082,0.0527 0.20505,0.0704 0.30703,0.0444 z m 5.70066,0.0606 c -0.008,-0.0381 -0.006,-0.19581 0.002,-0.19581 0.007,0 0.026,0.14965 0.026,0.19888 -2e-5,0.0313 -0.0213,0.0289 -0.0277,-0.003 z M 6.31271,2.01158 C 6.20442,1.96768 6.00924,1.87571 5.9743,1.85218 5.9322,1.82378 5.8905,1.75548 5.8904,1.71474 5.89026,1.62454 5.9902,1.58348 6.14957,1.60826 l 0.0691,0.0107 0.0228,-0.0219 c 0.0319,-0.0305 0.1029,-0.031 0.16316,-9.8e-4 0.0502,0.025 0.0737,0.0542 0.10555,0.13082 0.0195,0.0471 0.0238,0.0692 0.0238,0.12302 1e-5,0.0607 -0.002,0.0685 -0.0267,0.10402 -0.0556,0.0801 -0.10393,0.0943 -0.19476,0.0575 z M 6.4514,1.91918 C 6.4782,1.88728 6.4792,1.84728 6.4554,1.76559 6.4324,1.68809 6.3934,1.64168 6.34597,1.63548 c -0.0278,-0.004 -0.0376,-4.5e-4 -0.0644,0.0209 -0.0424,0.0338 -0.0774,0.0391 -0.14815,0.0226 -0.0847,-0.0198 -0.11479,-0.0179 -0.13539,0.008 -0.0231,0.0294 -0.0218,0.0698 0.003,0.0994 0.0206,0.0245 0.0719,0.0478 0.26283,0.11974 0.12179,0.0459 0.15805,0.0483 0.18791,0.0128 z M 3.47092,1.90038 c 0,-0.0138 0.0471,-0.0822 0.0657,-0.0954 0.029,-0.0207 0.10616,-0.0499 0.19346,-0.0734 0.0889,-0.0239 0.11811,-0.0421 0.11811,-0.0737 0,-0.0235 -0.0132,-0.0452 -0.12376,-0.20412 -0.0564,-0.0811 -0.0484,-0.14037 0.023,-0.17061 0.0146,-0.006 0.0338,-0.0111 0.0427,-0.0111 0.0249,0 0.10968,0.0338 0.10181,0.0405 -0.004,0.003 -0.0308,0.0123 -0.06,0.0202 -0.0948,0.0254 -0.0953,0.0349 -0.009,0.16162 0.0688,0.10132 0.0875,0.15125 0.0741,0.19793 C 3.88144,1.7466 3.84634,1.7673 3.73205,1.7891 3.64875,1.805 3.61291,1.8208 3.53468,1.8761 3.50138,1.8996 3.47118,1.9113 3.47118,1.9006 Z M 1.33762,1.61762 C 1.27842,1.59392 1.17604,1.53012 1.11179,1.47711 1.03409,1.41301 1.00646,1.35965 1.00765,1.27629 1.00863,1.20109 1.03415,1.134 1.07905,1.0879 1.09775,1.0687 1.15175,1.0317 1.19914,1.0057 1.41294,0.88828 1.41715,0.87909 1.29854,0.78882 1.26324,0.76192 1.22454,0.72832 1.21264,0.71422 1.18384,0.67992 1.16304,0.60689 1.16994,0.56404 1.18004,0.50034 1.20494,0.47064 1.30189,0.40605 1.47357,0.29171 1.60822,0.24571 1.77327,0.24501 c 0.26637,-9.8e-4 0.45074,0.11651 0.52235,0.33328 0.03,0.0909 0.0317,0.23055 0.004,0.3284 C 2.25202,1.0742 2.17447,1.15743 2.00719,1.22083 1.86841,1.27343 1.78519,1.34218 1.71513,1.46214 1.67363,1.53324 1.63003,1.57626 1.56973,1.6059 1.50883,1.6358 1.39724,1.6414 1.33783,1.6176 Z M 1.52538,1.5176 C 1.58908,1.4858 1.61928,1.4511 1.64158,1.384 1.68238,1.26138 1.74921,1.20409 1.94958,1.11998 2.152,1.03498 2.21023,0.94385 2.21149,0.71007 2.21191,0.61497 2.21108,0.60969 2.18529,0.55725 2.10549,0.39473 1.86807,0.27824 1.68656,0.31249 c -0.0464,0.009 -0.0584,0.0149 -0.0842,0.0428 -0.0211,0.0228 -0.0602,0.0472 -0.13001,0.0807 -0.10988,0.0529 -0.15101,0.0839 -0.17584,0.13252 -0.0273,0.0533 -0.006,0.1012 0.0632,0.14443 0.0408,0.0254 0.11395,0.11279 0.13604,0.16251 0.0108,0.0244 0.0131,0.0396 0.008,0.0534 -0.0137,0.0357 -0.0176,0.038 -0.23898,0.13973 -0.0967,0.0444 -0.14059,0.10989 -0.14122,0.21055 -2e-4,0.0426 0.004,0.0635 0.0205,0.0955 0.0312,0.0612 0.0599,0.0833 0.17736,0.13596 0.091,0.0409 0.13365,0.0423 0.20412,0.007 z M 5.0948,1.5206 C 4.80433,1.407 4.72593,1.37424 4.69712,1.35441 c -0.0497,-0.0342 -0.078,-0.0915 -0.078,-0.15801 0,-0.0953 0.035,-0.16045 0.10919,-0.20297 0.0733,-0.0421 0.23238,-0.0777 0.32415,-0.0724 0.11569,0.007 0.23228,0.0926 0.29365,0.21675 0.0289,0.0583 0.0317,0.0699 0.0317,0.13017 0,0.058 -0.003,0.0729 -0.0265,0.11988 -0.0175,0.0356 -0.0442,0.0709 -0.0792,0.10446 -0.0487,0.0468 -0.0556,0.0507 -0.0884,0.05 -0.0196,-4.2e-4 -0.0596,-0.0101 -0.0889,-0.0216 z M 5.23133,1.4326 C 5.27173,1.4044 5.29513,1.31756 5.28243,1.24369 5.26453,1.14027 5.19483,1.05178 5.10426,1.01764 c -0.0406,-0.0153 -0.0489,-0.0161 -0.0668,-0.007 -0.0113,0.006 -0.0288,0.0286 -0.0392,0.05 l -0.0186,0.0389 -0.0305,-0.0129 c -0.0848,-0.0358 -0.19049,0.01 -0.21526,0.0921 -0.009,0.0284 -0.008,0.0375 0.004,0.0632 0.008,0.0165 0.0245,0.0373 0.037,0.0463 0.0193,0.0138 0.12728,0.0579 0.33605,0.13743 0.0537,0.0205 0.0967,0.0226 0.12014,0.006 z M 3.43528,0.78492 C 3.35418,0.76312 3.33387,0.71242 3.37128,0.62547 3.39848,0.56227 3.39638,0.50424 3.36428,0.4228 3.31598,0.30128 3.33928,0.22447 3.45238,0.1337 3.52778,0.0732 3.58659,0.048 3.65163,0.0482 c 0.12942,4.3e-4 0.23819,0.0991 0.27503,0.24938 0.0318,0.12966 -0.006,0.25497 -0.10451,0.35259 -0.0598,0.059 -0.13449,0.0965 -0.24991,0.12554 -0.0951,0.0239 -0.0846,0.0232 -0.13669,0.009 z M 3.56949,0.6813 c 0.0858,-0.0238 0.13227,-0.0515 0.19147,-0.11424 0.0393,-0.0416 0.0547,-0.0654 0.0661,-0.10182 0.0216,-0.0684 0.0148,-0.14473 -0.0189,-0.21309 -0.0309,-0.0626 -0.0566,-0.0825 -0.0985,-0.0759 -0.0163,0.003 -0.0547,0.009 -0.0854,0.0133 -0.0674,0.0104 -0.10962,0.0308 -0.14353,0.0694 -0.0388,0.0442 -0.0408,0.0737 -0.0103,0.15796 0.0374,0.10326 0.0415,0.19132 0.0123,0.26713 -0.007,0.0192 0.01,0.0187 0.0866,-0.003 z m 2.48077,0.034 C 5.94417,0.6837 5.88592,0.6471 5.79602,0.55536 5.69233,0.44959 5.62376,0.41961 5.4847,0.41931 5.29744,0.41889 5.16131,0.37151 5.06062,0.27145 c -0.0514,-0.051 -0.0696,-0.0954 -0.0602,-0.14649 0.0173,-0.0937 0.13245,-0.22652 0.24828,-0.28649 0.12853,-0.0666 0.31548,-0.0983 0.42011,-0.0715 0.22345,0.0575 0.41892,0.18201 0.53005,0.33777 0.0822,0.11511 0.14063,0.28814 0.13128,0.38834 -0.006,0.0664 -0.0401,0.13773 -0.0901,0.18963 -0.0504,0.0523 -0.0969,0.0602 -0.18985,0.0326 z m 0.0888,-0.10198 c 0.0368,-0.0154 0.0683,-0.0553 0.0832,-0.10551 0.0175,-0.059 0.0162,-0.0744 -0.0151,-0.16669 C 6.15846,0.19649 6.11566,0.13269 6.00028,0.03277 5.86303,-0.08617 5.66707,-0.17102 5.52969,-0.17102 h -0.0332 v 0.0457 c 0,0.0802 -0.0172,0.0911 -0.0965,0.0609 -0.0504,-0.0192 -0.10834,-0.0212 -0.13985,-0.005 -0.0122,0.006 -0.0412,0.0315 -0.0642,0.0558 -0.0903,0.0954 -0.10483,0.17783 -0.0439,0.2473 0.0508,0.0579 0.18323,0.0953 0.33783,0.0956 0.15972,2.5e-4 0.24831,0.0294 0.33412,0.11026 0.12336,0.11613 0.2233,0.18484 0.26885,0.18484 0.0105,0 0.0312,-0.005 0.046,-0.0112 z M 2.28816,0.07058 c -0.0121,-0.0197 -0.0156,-0.0705 -0.007,-0.0977 0.0223,-0.0677 0.098,-0.11758 0.20618,-0.13582 0.0611,-0.0103 0.081,-0.008 0.081,0.0119 0,0.017 -0.0208,0.0265 -0.0899,0.041 -0.10458,0.0218 -0.15398,0.0641 -0.17604,0.15052 -0.006,0.021 -0.012,0.0345 -0.0147,0.0302 z m 2.31455,-0.32101 c -0.0398,-0.007 -0.0707,-0.0223 -0.17056,-0.0871 -0.0698,-0.0453 -0.1,-0.0695 -0.0981,-0.0787 0.004,-0.0222 0.0447,-0.0118 0.14976,0.0387 0.15181,0.073 0.1739,0.0701 0.23952,-0.033 0.023,-0.0362 0.0349,-0.0477 0.0473,-0.0459 0.0334,0.005 0.0265,0.081 -0.0128,0.1403 -0.0408,0.0615 -0.0796,0.078 -0.15512,0.0657 z"
         id="path3925"
         sodipodi:nodetypes="ssssssssssssssssssssssssssssssssssssssssssssssssssssssssssssscssssssssssssccssssssssssssssssssssssssssssssssssssssssscsssssssssccssscssssssssssssssssssssssssssssssssssssssscssssssssssssscsssssssssssssssssssssscsssscssssscssssssscsssssssssssssssssssssssssssssssssssssssscssssssssssssssscsssssssssssssscssssssssssssscsssssssccssssssssssssssssssssssssssssssssssssssscssssssssssssscsssssssssssssssssssssssssssssscssssssssssssssssssssssssssssssssssssssssssssssssscssccsssscsssscssssssssssssssssssssssssssssscsssssssssssssssssccsssssssscsssssssssssssssssssscsssssssssssssssssssssssssssssssssssssssssssscsssssssssssssssssssssssssss" />
    </g>
  </g>
</svg>
