<?xml version="1.0" encoding="UTF-8" standalone="no"?>
<!-- Created with Inkscape (http://www.inkscape.org/) -->

<svg
   width="60.271999mm"
   height="27.264999mm"
   viewBox="0 0 60.272 27.264999"
   version="1.1"
   id="svg1"
   inkscape:version="1.4.2 (ebf0e940d0, 2025-05-08)"
   sodipodi:docname="5_1_1_71.svg"
   xmlns:inkscape="http://www.inkscape.org/namespaces/inkscape"
   xmlns:sodipodi="http://sodipodi.sourceforge.net/DTD/sodipodi-0.dtd"
   xmlns="http://www.w3.org/2000/svg"
   xmlns:svg="http://www.w3.org/2000/svg">
  <sodipodi:namedview
     id="namedview1"
     pagecolor="#ffffff"
     bordercolor="#000000"
     borderopacity="0.25"
     inkscape:showpageshadow="2"
     inkscape:pageopacity="0.0"
     inkscape:pagecheckerboard="0"
     inkscape:deskcolor="#d1d1d1"
     inkscape:document-units="mm"
     inkscape:zoom="3.6375173"
     inkscape:cx="160.1367"
     inkscape:cy="33.264447"
     inkscape:window-width="1920"
     inkscape:window-height="1011"
     inkscape:window-x="0"
     inkscape:window-y="0"
     inkscape:window-maximized="1"
     inkscape:current-layer="layer1" />
  <defs
     id="defs1">
    <rect
       x="0.50124687"
       y="38.296055"
       width="227.29845"
       height="58.122452"
       id="rect3" />
    <rect
       x="-26.458582"
       y="130.73653"
       width="155.86105"
       height="46.469273"
       id="rect2" />
    <rect
       x="13.485725"
       y="-52.819092"
       width="225.2477"
       height="118.63495"
       id="rect1" />
    <rect
       x="37.795277"
       y="37.795277"
       width="483.77954"
       height="718.11023"
       id="rect2721" />
    <rect
       x="37.795277"
       y="37.795277"
       width="483.77954"
       height="718.11023"
       id="rect2722" />
    <rect
       x="37.795277"
       y="37.795277"
       width="483.77954"
       height="718.11023"
       id="rect2723" />
    <rect
       x="37.795277"
       y="37.795277"
       width="483.77954"
       height="718.11023"
       id="rect2724" />
    <rect
       x="37.795277"
       y="37.795277"
       width="483.77954"
       height="718.11023"
       id="rect2725" />
    <rect
       x="37.795277"
       y="37.795277"
       width="483.77954"
       height="718.11023"
       id="rect2726" />
    <rect
       x="37.795277"
       y="37.795277"
       width="483.77954"
       height="718.11023"
       id="rect2727" />
    <rect
       x="37.795277"
       y="37.795277"
       width="483.77954"
       height="718.11023"
       id="rect2728" />
    <rect
       x="37.795277"
       y="37.795277"
       width="483.77954"
       height="718.11023"
       id="rect2729" />
    <rect
       x="37.795277"
       y="37.795277"
       width="483.77954"
       height="718.11023"
       id="rect2730" />
    <rect
       x="37.795277"
       y="37.795277"
       width="483.77954"
       height="718.11023"
       id="rect2731" />
    <rect
       x="37.795277"
       y="37.795277"
       width="483.77954"
       height="718.11023"
       id="rect2732" />
    <rect
       x="37.795277"
       y="37.795277"
       width="483.77954"
       height="718.11023"
       id="rect2733" />
    <rect
       x="37.795277"
       y="37.795277"
       width="483.77954"
       height="718.11023"
       id="rect2734" />
    <rect
       x="37.795277"
       y="37.795277"
       width="483.77954"
       height="718.11023"
       id="rect6439" />
    <rect
       x="37.795277"
       y="37.795277"
       width="483.77954"
       height="718.11023"
       id="rect6440" />
    <rect
       x="37.795277"
       y="37.795277"
       width="483.77954"
       height="718.11023"
       id="rect6441" />
    <rect
       x="37.795277"
       y="37.795277"
       width="483.77954"
       height="718.11023"
       id="rect6442" />
    <rect
       x="37.795277"
       y="37.795277"
       width="483.77954"
       height="718.11023"
       id="rect2743" />
    <rect
       x="37.795277"
       y="37.795277"
       width="483.77954"
       height="718.11023"
       id="rect2744" />
    <rect
       x="37.795277"
       y="37.795277"
       width="483.77954"
       height="718.11023"
       id="rect2745" />
    <rect
       x="37.795277"
       y="37.795277"
       width="483.77954"
       height="718.11023"
       id="rect6403" />
    <rect
       x="37.795277"
       y="37.795277"
       width="483.77954"
       height="718.11023"
       id="rect6443" />
    <rect
       x="37.795277"
       y="37.795277"
       width="483.77954"
       height="718.11023"
       id="rect6444" />
    <rect
       x="37.795277"
       y="37.795277"
       width="483.77954"
       height="718.11023"
       id="rect6445" />
    <rect
       x="37.795277"
       y="37.795277"
       width="483.77954"
       height="718.11023"
       id="rect6446" />
    <rect
       x="37.795277"
       y="37.795277"
       width="483.77954"
       height="718.11023"
       id="rect6469" />
    <rect
       x="37.795277"
       y="37.795277"
       width="483.77954"
       height="718.11023"
       id="rect6470" />
    <rect
       x="37.795277"
       y="37.795277"
       width="483.77954"
       height="718.11023"
       id="rect6471" />
    <rect
       x="37.795277"
       y="37.795277"
       width="483.77954"
       height="718.11023"
       id="rect6472" />
    <rect
       x="-26.458582"
       y="130.73653"
       width="155.86105"
       height="46.469273"
       id="rect30" />
    <rect
       x="-26.458582"
       y="130.73653"
       width="155.86105"
       height="46.469273"
       id="rect31" />
    <rect
       x="-26.458582"
       y="130.73653"
       width="155.86105"
       height="46.469273"
       id="rect32" />
    <rect
       x="-26.458582"
       y="130.73653"
       width="155.86105"
       height="46.469273"
       id="rect33" />
    <rect
       x="-26.458582"
       y="130.73653"
       width="155.86105"
       height="46.469273"
       id="rect34" />
    <rect
       x="-26.458582"
       y="130.73653"
       width="155.86105"
       height="46.469273"
       id="rect35" />
    <rect
       x="-26.458582"
       y="130.73653"
       width="155.86105"
       height="46.469273"
       id="rect38" />
    <rect
       x="-26.458582"
       y="130.73653"
       width="155.86105"
       height="46.469273"
       id="rect39" />
    <rect
       x="-26.458582"
       y="130.73653"
       width="155.86105"
       height="46.469273"
       id="rect40" />
    <rect
       x="-26.458582"
       y="130.73653"
       width="155.86105"
       height="46.469273"
       id="rect42" />
    <rect
       x="-26.458582"
       y="130.73653"
       width="155.86105"
       height="46.469273"
       id="rect43" />
    <rect
       x="-26.458582"
       y="130.73653"
       width="155.86105"
       height="46.469273"
       id="rect44" />
    <rect
       x="-26.458582"
       y="130.73653"
       width="155.86105"
       height="46.469273"
       id="rect46" />
    <rect
       x="-26.458582"
       y="130.73653"
       width="155.86105"
       height="46.469273"
       id="rect47" />
    <rect
       x="-26.458582"
       y="130.73653"
       width="155.86105"
       height="46.469273"
       id="rect48" />
    <rect
       x="0.50124687"
       y="38.296055"
       width="227.29845"
       height="58.122452"
       id="rect4" />
    <rect
       x="0.50124687"
       y="38.296055"
       width="227.29845"
       height="58.122452"
       id="rect5" />
    <rect
       x="0.50124687"
       y="38.296055"
       width="227.29845"
       height="58.122452"
       id="rect8" />
    <rect
       x="0.50124687"
       y="38.296055"
       width="227.29845"
       height="58.122452"
       id="rect9" />
    <rect
       x="0.50124687"
       y="38.296055"
       width="227.29845"
       height="58.122452"
       id="rect10" />
    <rect
       x="0.50124687"
       y="38.296055"
       width="227.29845"
       height="58.122452"
       id="rect12" />
    <rect
       x="0.50124687"
       y="38.296055"
       width="227.29845"
       height="58.122452"
       id="rect13" />
    <rect
       x="0.50124687"
       y="38.296055"
       width="227.29845"
       height="58.122452"
       id="rect14" />
    <rect
       x="0.50124687"
       y="38.296055"
       width="227.29845"
       height="58.122452"
       id="rect16" />
    <rect
       x="0.50124687"
       y="38.296055"
       width="227.29845"
       height="58.122452"
       id="rect17" />
    <rect
       x="0.50124687"
       y="38.296055"
       width="227.29845"
       height="58.122452"
       id="rect18" />
  </defs>
  <g
     inkscape:label="Katman 1"
     inkscape:groupmode="layer"
     id="layer1">
    <g
       id="g18">
      <rect
         style="fill:#eef4d7;stroke:#000000;stroke-width:0.264999;stroke-opacity:1"
         id="rect6417"
         width="15"
         height="5"
         x="0.1324995"
         y="0.1324995" />
      <rect
         style="fill:#eef4d7;stroke:#000000;stroke-width:0.264999"
         id="rect6418"
         width="5"
         height="22"
         x="10.132499"
         y="5.1324983" />
      <rect
         style="fill:#dde9af;stroke:#000000;stroke-width:0.264999"
         id="rect6419"
         width="5"
         height="22"
         x="5.1326222"
         y="5.1324983" />
      <rect
         style="fill:#cdde87;stroke:#000000;stroke-width:0.264999"
         id="rect6420"
         width="5"
         height="22"
         x="0.13262157"
         y="5.1324983" />
      <rect
         style="fill:#ffd5d5;fill-opacity:1;stroke:#000000;stroke-width:0.264999;stroke-opacity:1"
         id="rect2596"
         width="15"
         height="5"
         x="15.132377"
         y="0.1324995" />
      <rect
         style="fill:#ffd5d5;fill-opacity:1;stroke:#000000;stroke-width:0.264999"
         id="rect2597"
         width="5"
         height="22"
         x="25.132378"
         y="5.1324983" />
      <rect
         style="fill:#ffaaaa;fill-opacity:1;stroke:#000000;stroke-width:0.264999"
         id="rect2598"
         width="5"
         height="22"
         x="20.1325"
         y="5.1324983" />
      <rect
         style="fill:#ff8080;fill-opacity:1;stroke:#000000;stroke-width:0.264999"
         id="rect2599"
         width="5"
         height="22"
         x="15.132499"
         y="5.1324983" />
      <rect
         style="fill:#fff6d5;fill-opacity:1;stroke:#000000;stroke-width:0.264999;stroke-opacity:1"
         id="rect6405"
         width="15"
         height="5"
         x="30.13238"
         y="0.1324995" />
      <rect
         style="fill:#fff6d5;fill-opacity:1;stroke:#000000;stroke-width:0.264999"
         id="rect6407"
         width="5"
         height="22"
         x="40.132378"
         y="5.1324983" />
      <rect
         style="fill:#ffeeaa;fill-opacity:1;stroke:#000000;stroke-width:0.264999"
         id="rect6408"
         width="5"
         height="22"
         x="35.1325"
         y="5.1324983" />
      <rect
         style="fill:#ffe680;fill-opacity:1;stroke:#000000;stroke-width:0.264999"
         id="rect6411"
         width="5"
         height="22"
         x="30.132502"
         y="5.1324983" />
      <rect
         style="fill:#d7eef4;fill-opacity:1;stroke:#000000;stroke-width:0.264999;stroke-opacity:1"
         id="rect6447"
         width="15"
         height="5"
         x="45.139458"
         y="0.1324995" />
      <rect
         style="fill:#d7eef4;fill-opacity:1;stroke:#000000;stroke-width:0.264999"
         id="rect6448"
         width="5"
         height="22"
         x="55.139458"
         y="5.1324983" />
      <rect
         style="fill:#afdde9;fill-opacity:1;stroke:#000000;stroke-width:0.264999"
         id="rect6449"
         width="5"
         height="22"
         x="50.13958"
         y="5.1324983" />
      <rect
         style="fill:#87cdde;fill-opacity:1;stroke:#000000;stroke-width:0.264999"
         id="rect6450"
         width="5"
         height="22"
         x="45.13958"
         y="5.1324983" />
      <path
         style="font-size:13.3333px;font-family:FreeSans;-inkscape-font-specification:FreeSans;white-space:pre;stroke-width:0.264583"
         d="M 2.6265913,3.5338402 3.349784,1.3783732 v 2.155467 H 3.6602276 V 0.96209617 H 3.2051453 L 2.4572585,3.2022302 1.6952603,0.96209617 H 1.2401783 V 3.5338402 H 1.5506219 V 1.3783732 L 2.28087,3.5338402 Z M 4.4716168,1.6852892 H 4.178812 v 1.848551 h 0.2928048 z m 0,-0.72319303 H 4.1752843 V 1.3325122 h 0.2963325 z m 0.7619987,0 H 4.9372829 V 3.5338402 H 5.2336155 Z M 6.814058,1.6852892 6.3025316,3.1246202 5.8298105,1.6852892 H 5.5158391 l 0.6244151,1.855608 -0.1128886,0.2928037 c -0.049389,0.130527 -0.1128886,0.179916 -0.2363605,0.179916 -0.042333,0 -0.091722,-0.0071 -0.1552218,-0.02117 v 0.264583 c 0.059972,0.03175 0.1199441,0.04586 0.197555,0.04586 0.2010828,0 0.3739435,-0.10936 0.4762488,-0.381 L 7.1315572,1.6852892 Z m 0.5397513,0.546804 h 0.2963326 c 0.024694,-0.225777 0.1587496,-0.328081 0.4339156,-0.328081 0.2645826,0 0.4127489,0.09878 0.4127489,0.275164 v 0.07761 c 0,0.123471 -0.074083,0.176387 -0.3069159,0.204611 -0.5397486,0.07055 -0.9172199,0.112887 -0.9172199,0.606774 0,0.33514 0.2328328,0.5468057 0.6067763,0.5468057 0.2328327,0 0.4198045,-0.08114 0.6279428,-0.2716397 0.021167,0.186974 0.1128886,0.2716397 0.3033881,0.2716397 0.059972,0 0.1058331,-0.0071 0.2010829,-0.03175 V 3.3609772 c -0.03175,0.0071 -0.045861,0.0071 -0.0635,0.0071 -0.1023053,0 -0.1587496,-0.05292 -0.1587496,-0.14464 v -1.086554 c 0,-0.328081 -0.2398883,-0.50447 -0.6949704,-0.50447 -0.3316103,0 -0.7231926,0.09878 -0.7408315,0.59972 z m 0.5891374,1.12536 c -0.229305,0 -0.3633602,-0.109363 -0.3633602,-0.296333 0,-0.405694 0.6173596,-0.30339 0.9172199,-0.44097 v 0.33161 c 0,0.176387 -0.2046106,0.405693 -0.5538597,0.405693 z m 2.2401303,-1.414637 v -0.29986 c -0.04939,-0.0071 -0.07408,-0.01058 -0.112888,-0.01058 -0.1905,0 -0.3351385,0.112889 -0.5044714,0.388053 v -0.33514 H 9.2940794 v 1.848551 H 9.590412 v -0.959553 c 0,-0.518581 0.2363605,-0.624414 0.592665,-0.631471 z M 10.761634,0.96209617 H 10.465301 V 3.5338402 h 0.296333 z m 0.433918,1.26999703 h 0.296333 c 0.02469,-0.225777 0.15875,-0.328081 0.433915,-0.328081 0.264583,0 0.412749,0.09878 0.412749,0.275164 v 0.07761 c 0,0.123471 -0.07408,0.176387 -0.306915,0.204611 -0.539749,0.07055 -0.91722,0.112887 -0.91722,0.606774 0,0.33514 0.232832,0.5468057 0.606776,0.5468057 0.232833,0 0.419804,-0.08114 0.627943,-0.2716397 0.02117,0.186974 0.112888,0.2716397 0.303388,0.2716397 0.05997,0 0.105833,-0.0071 0.201083,-0.03175 V 3.3609772 c -0.03175,0.0071 -0.04586,0.0071 -0.0635,0.0071 -0.102305,0 -0.15875,-0.05292 -0.15875,-0.14464 v -1.086554 c 0,-0.328081 -0.239888,-0.50447 -0.69497,-0.50447 -0.33161,0 -0.723193,0.09878 -0.740832,0.59972 z m 0.589138,1.12536 c -0.229305,0 -0.36336,-0.109363 -0.36336,-0.296333 0,-0.405694 0.617359,-0.30339 0.917219,-0.44097 v 0.33161 c 0,0.176387 -0.20461,0.405693 -0.553859,0.405693 z m 2.24013,-1.414637 v -0.29986 c -0.04939,-0.0071 -0.07408,-0.01058 -0.112888,-0.01058 -0.1905,0 -0.335138,0.112889 -0.504471,0.388053 v -0.33514 h -0.271639 v 1.848551 h 0.296333 v -0.959553 c 0,-0.518581 0.23636,-0.624414 0.592665,-0.631471 z"
         id="text1"
         aria-label="Milyarlar" />
      <path
         style="font-size:13.3333px;font-family:FreeSans;-inkscape-font-specification:FreeSans;white-space:pre;stroke-width:0.264583"
         d="m 17.280808,3.5338402 0.723193,-2.155467 v 2.155467 h 0.310444 V 0.96209617 H 17.859362 L 17.111476,3.2022302 16.349477,0.96209617 H 15.894395 V 3.5338402 h 0.310444 v -2.155467 l 0.730248,2.155467 z m 1.845026,-1.848551 h -0.292805 v 1.848551 h 0.292805 z m 0,-0.72319303 H 18.829501 V 1.3325122 h 0.296333 z m 0.761999,0 H 19.5915 V 3.5338402 h 0.296333 z m 1.580442,0.72319303 -0.511526,1.439331 -0.472721,-1.439331 h -0.313972 l 0.624415,1.855608 -0.112888,0.2928037 c -0.04939,0.130527 -0.112889,0.179916 -0.236361,0.179916 -0.04233,0 -0.09172,-0.0071 -0.155222,-0.02117 v 0.264583 c 0.05997,0.03175 0.119944,0.04586 0.197555,0.04586 0.201083,0 0.373944,-0.10936 0.476249,-0.381 l 0.82197,-2.2366047 z m 1.291166,-0.05292 c -0.518582,0 -0.832553,0.370416 -0.832553,0.991303 0,0.620888 0.310443,0.9913037 0.836081,0.9913037 0.518582,0 0.836081,-0.3704157 0.836081,-0.9771927 0,-0.638527 -0.306916,-1.005414 -0.839609,-1.005414 z m 0.0035,0.271639 c 0.33161,0 0.529165,0.271638 0.529165,0.730248 0,0.433914 -0.20461,0.70908 -0.529165,0.70908 -0.328083,0 -0.529165,-0.271637 -0.529165,-0.719664 0,-0.4445 0.201082,-0.719664 0.529165,-0.719664 z m 1.153582,-0.218723 v 1.848551 h 0.296332 v -1.019524 c 0,-0.377473 0.197555,-0.624416 0.500944,-0.624416 0.232832,0 0.380999,0.14111 0.380999,0.36336 v 1.28058 h 0.292804 v -1.396997 c 0,-0.306914 -0.229305,-0.50447 -0.585609,-0.50447 -0.275166,0 -0.451555,0.105833 -0.613832,0.36336 v -0.31044 z M 26.107269,0.96209217 H 25.810936 V 3.5338362 h 0.296333 z m 0.433918,1.26999703 h 0.296333 c 0.02469,-0.225777 0.158749,-0.328081 0.433915,-0.328081 0.264583,0 0.412749,0.09878 0.412749,0.275164 v 0.07761 c 0,0.123471 -0.07408,0.176387 -0.306916,0.204611 -0.539748,0.07055 -0.91722,0.112887 -0.91722,0.606774 0,0.33514 0.232833,0.5468057 0.606777,0.5468057 0.232833,0 0.419804,-0.08114 0.627943,-0.2716397 0.02117,0.186974 0.112888,0.2716397 0.303388,0.2716397 0.05997,0 0.105833,-0.0071 0.201083,-0.03175 V 3.3609732 c -0.03175,0.0071 -0.04586,0.0071 -0.0635,0.0071 -0.102306,0 -0.15875,-0.05292 -0.15875,-0.14464 v -1.086554 c 0,-0.328081 -0.239888,-0.50447 -0.69497,-0.50447 -0.331611,0 -0.723193,0.09878 -0.740832,0.59972 z m 0.589138,1.12536 c -0.229305,0 -0.36336,-0.109363 -0.36336,-0.296333 0,-0.405694 0.617359,-0.30339 0.917219,-0.44097 v 0.33161 c 0,0.176387 -0.20461,0.405693 -0.553859,0.405693 z m 2.24013,-1.414637 v -0.29986 c -0.04939,-0.0071 -0.07408,-0.01058 -0.112888,-0.01058 -0.1905,0 -0.335139,0.112889 -0.504471,0.388053 v -0.335136 h -0.271639 v 1.848551 h 0.296333 v -0.959553 c 0,-0.518581 0.23636,-0.624414 0.592665,-0.631471 z"
         id="text30"
         aria-label="Milyonlar" />
      <path
         style="font-size:13.3333px;font-family:FreeSans;-inkscape-font-specification:FreeSans;white-space:pre;stroke-width:0.264583"
         d="m 35.31817,3.1440202 c 0,-0.310443 -0.141111,-0.497414 -0.469194,-0.624414 0.232833,-0.10936 0.356305,-0.29986 0.356305,-0.560914 0,-0.261056 -0.151694,-0.652639 -0.761998,-0.652639 h -1.04422 v 2.5717437 h 1.160636 c 0.455082,0 0.758471,-0.292803 0.758471,-0.7337767 z m -0.440972,-1.139467 c 0,0.306916 -0.20461,0.40922 -0.515054,0.40922 h -0.634998 v -0.818441 h 0.634998 c 0.275166,0 0.515054,0.07761 0.515054,0.409221 z M 34.527949,3.5885199 H 33.727146 V 2.7030502 h 0.800803 c 0.303388,0 0.462138,0.183444 0.462138,0.4445 0,0.179917 -0.09172,0.4409697 -0.462138,0.4409697 z m 1.460495,-1.5592737 h -0.292805 v 1.8485507 h 0.292805 z m 0,-0.723193 h -0.296333 v 0.370416 h 0.296333 z m 0.465666,0.723193 v 1.8485507 h 0.296333 V 2.8582732 c 0,-0.377473 0.197555,-0.624417 0.500943,-0.624417 0.232832,0 0.380999,0.141111 0.380999,0.363361 V 3.8777969 H 37.92519 V 2.4808002 c 0,-0.306914 -0.229305,-0.50447 -0.58561,-0.50447 -0.275166,0 -0.451554,0.105833 -0.613832,0.36336 v -0.310444 z m 2.190747,-0.723193 h -0.296333 v 2.5717437 h 0.296333 z m 2.021414,1.746247 c 0,-0.670277 -0.250472,-1.07597 -0.82197,-1.07597 -0.515055,0 -0.846665,0.39511 -0.846665,1.001887 0,0.6067767 0.321027,0.9807197 0.839609,0.9807197 0.423332,0 0.716137,-0.23989 0.79022,-0.6420537 h -0.296332 c -0.08114,0.2434137 -0.246944,0.3704137 -0.483304,0.3704137 -0.342194,0 -0.536221,-0.2575267 -0.543277,-0.6349967 z m -1.354663,-0.23989 c 0.02469,-0.342193 0.232832,-0.564441 0.529165,-0.564441 0.303388,0 0.511526,0.246944 0.511526,0.564441 z m 2.561163,-0.525637 v -0.29986 c -0.04939,-0.0071 -0.07408,-0.01058 -0.112889,-0.01058 -0.190499,0 -0.335138,0.112889 -0.504471,0.388053 v -0.335137 h -0.271638 v 1.8485507 h 0.296333 V 2.9182472 c 0,-0.518581 0.23636,-0.624414 0.592665,-0.631471 z"
         id="text31"
         aria-label="Binler" />
      <path
         style="font-size:13.3333px;font-family:FreeSans;-inkscape-font-specification:FreeSans;white-space:pre;stroke-width:0.264583"
         d="m 50.683306,3.1440202 c 0,-0.310443 -0.141111,-0.497414 -0.469194,-0.624414 0.232833,-0.10936 0.356305,-0.29986 0.356305,-0.560914 0,-0.261056 -0.151694,-0.652639 -0.761998,-0.652639 h -1.04422 v 2.5717437 h 1.160636 c 0.455082,0 0.758471,-0.292803 0.758471,-0.7337767 z m -0.440972,-1.139467 c 0,0.306916 -0.20461,0.40922 -0.515054,0.40922 h -0.634998 v -0.818441 h 0.634998 c 0.275166,0 0.515054,0.07761 0.515054,0.409221 z M 49.893085,3.5885199 H 49.092282 V 2.7030502 h 0.800803 c 0.303388,0 0.462138,0.183444 0.462138,0.4445 0,0.179917 -0.09172,0.4409697 -0.462138,0.4409697 z M 51.35358,2.0292462 h -0.292805 v 1.8485507 h 0.292805 z m 0,-0.723193 h -0.296333 v 0.370416 h 0.296333 z m 1.354664,0.98072 v -0.29986 c -0.04939,-0.0071 -0.07408,-0.01058 -0.112889,-0.01058 -0.190499,0 -0.335138,0.112889 -0.504471,0.388053 v -0.335137 h -0.271638 v 1.8485507 h 0.296333 V 2.9182472 c 0,-0.518581 0.23636,-0.624414 0.592665,-0.631471 z M 53.2868,1.3060532 H 52.990468 V 3.8777969 H 53.2868 Z m 2.021414,1.746247 c 0,-0.670277 -0.250471,-1.07597 -0.82197,-1.07597 -0.515054,0 -0.846664,0.39511 -0.846664,1.001887 0,0.6067767 0.321027,0.9807197 0.839609,0.9807197 0.423332,0 0.716137,-0.23989 0.79022,-0.6420537 h -0.296333 c -0.08114,0.2434137 -0.246943,0.3704137 -0.483304,0.3704137 -0.342194,0 -0.536221,-0.2575267 -0.543276,-0.6349967 z m -1.354663,-0.23989 c 0.02469,-0.342193 0.232833,-0.564441 0.529165,-0.564441 0.303389,0 0.511527,0.246944 0.511527,0.564441 z m 2.561164,-0.525637 v -0.29986 c -0.04939,-0.0071 -0.07408,-0.01058 -0.112889,-0.01058 -0.1905,0 -0.335138,0.112889 -0.504471,0.388053 v -0.335137 h -0.271638 v 1.8485507 h 0.296332 V 2.9182472 c 0,-0.518581 0.236361,-0.624414 0.592666,-0.631471 z"
         id="text32"
         aria-label="Birler" />
      <path
         d="M 5.6886067,46.816853 9.3419308,40.910202 H 7.8619345 L 5.0886082,45.643523 2.2352821,40.910202 H 0.70195262 l 3.74665718,5.906651 v 3.813324 H 5.6886067 Z M 15.035243,40.910202 H 13.64858 v 1.386663 h 1.386663 z m -2.386661,0 h -1.386663 v 1.386663 h 1.386663 z m 3.253325,9.719975 v -6.986649 h -1.106663 v 3.95999 c 0,1.426663 -0.746665,2.359994 -1.906662,2.359994 -0.879998,0 -1.439997,-0.533332 -1.439997,-1.37333 v -4.946654 h -1.106663 v 5.386653 c 0,1.159997 0.866664,1.906662 2.226661,1.906662 1.026664,0 1.679995,-0.359999 2.333327,-1.279997 v 0.973331 z m 6.693325,-6.986649 h -5.21332 v 0.973331 h 3.893324 l -4.173323,5.013321 v 0.999997 h 5.679985 v -0.973331 h -4.333322 l 4.146656,-5.026654 z m 10.226643,6.986649 2.733327,-8.146646 v 8.146646 h 1.17333 v -9.719975 h -1.719996 l -2.826659,8.466645 -2.879993,-8.466645 h -1.719996 v 9.719975 h 1.173331 v -8.146646 l 2.759993,8.146646 z m 6.973324,-6.986649 h -1.106664 v 6.986649 h 1.106664 z m 0,-2.733326 h -1.119997 v 1.399996 h 1.119997 z m 2.879996,0 h -1.119998 v 9.719975 h 1.119998 z m 5.973324,2.733326 -1.933328,5.439986 -1.786662,-5.439986 h -1.186664 l 2.359994,7.013316 -0.426666,1.106664 c -0.186666,0.493332 -0.426665,0.679998 -0.893331,0.679998 -0.159999,0 -0.346665,-0.02667 -0.586665,-0.08 v 0.999998 c 0.226666,0.119999 0.453332,0.173332 0.746665,0.173332 0.759998,0 1.41333,-0.413332 1.799995,-1.439996 l 3.106659,-8.453312 z m 2.040007,2.066662 h 1.119997 c 0.09333,-0.853332 0.599999,-1.239997 1.639996,-1.239997 0.999997,0 1.559996,0.373332 1.559996,1.039997 v 0.293333 c 0,0.466665 -0.279999,0.666665 -1.159997,0.773331 -2.039995,0.266666 -3.466658,0.426666 -3.466658,2.293328 0,1.266663 0.879998,2.066661 2.293328,2.066661 0.879997,0 1.586662,-0.306666 2.373327,-1.026664 0.08,0.706665 0.426666,1.026664 1.146664,1.026664 0.226666,0 0.399999,-0.02667 0.759998,-0.12 v -0.839998 c -0.12,0.02667 -0.173333,0.02667 -0.24,0.02667 -0.386665,0 -0.599998,-0.199999 -0.599998,-0.546665 v -4.106656 c 0,-1.239997 -0.906664,-1.906662 -2.62666,-1.906662 -1.25333,0 -2.733327,0.373332 -2.799993,2.266661 z m 2.226661,4.253322 c -0.866664,0 -1.37333,-0.413332 -1.37333,-1.119997 0,-1.533329 2.333328,-1.146664 3.466658,-1.666662 v 1.25333 c 0,0.666665 -0.773331,1.533329 -2.093328,1.533329 z m 8.466635,-5.346653 v -1.13333 c -0.186666,-0.02667 -0.28,-0.04 -0.426666,-0.04 -0.719998,0 -1.266663,0.426665 -1.906662,1.466663 V 43.643528 H 58.02183 v 6.986649 h 1.119997 V 47.00352 c 0,-1.959995 0.893331,-2.359994 2.239995,-2.386661 z m 2.186672,-3.706657 h -1.119997 v 9.719975 h 1.119997 z m 1.640002,4.799988 h 1.119997 c 0.09333,-0.853332 0.599999,-1.239997 1.639996,-1.239997 0.999997,0 1.559996,0.373332 1.559996,1.039997 v 0.293333 c 0,0.466665 -0.279999,0.666665 -1.159997,0.773331 -2.039995,0.266666 -3.466658,0.426666 -3.466658,2.293328 0,1.266663 0.879998,2.066661 2.293328,2.066661 0.879997,0 1.586662,-0.306666 2.373327,-1.026664 0.08,0.706665 0.426666,1.026664 1.146664,1.026664 0.226666,0 0.399999,-0.02667 0.759998,-0.12 v -0.839998 c -0.12,0.02667 -0.173333,0.02667 -0.24,0.02667 -0.386665,0 -0.599998,-0.199999 -0.599998,-0.546665 v -4.106656 c 0,-1.239997 -0.906664,-1.906662 -2.62666,-1.906662 -1.25333,0 -2.733327,0.373332 -2.799993,2.266661 z m 2.226661,4.253322 c -0.866665,0 -1.37333,-0.413332 -1.37333,-1.119997 0,-1.533329 2.333328,-1.146664 3.466658,-1.666662 v 1.25333 c 0,0.666665 -0.773331,1.533329 -2.093328,1.533329 z m 8.466639,-5.346653 v -1.13333 c -0.186667,-0.02667 -0.28,-0.04 -0.426666,-0.04 -0.719998,0 -1.266664,0.426665 -1.906662,1.466663 v -1.266664 h -1.026664 v 6.986649 h 1.119997 V 47.00352 c 0,-1.959995 0.893331,-2.359994 2.239995,-2.386661 z"
         id="text2"
         style="font-size:13.3333px;font-family:FreeSans;-inkscape-font-specification:FreeSans;white-space:pre"
         transform="matrix(0,-0.26458333,0.26458333,0,-9.7480094,26.790074)"
         aria-label="Yüz Milyarlar" />
      <path
         d="m 10.421928,45.923522 c 0,-3.133325 -1.8533286,-5.17332 -4.7066547,-5.17332 -2.7866596,0 -4.6799882,2.053328 -4.6799882,5.093321 0,3.039992 1.8933286,5.09332 4.6933215,5.09332 2.9066593,0 4.6933214,-2.213328 4.6933214,-5.013321 z M 5.7152733,41.843533 c 2.1066613,0 3.4666579,1.599996 3.4666579,4.053323 0,2.346661 -1.3999965,3.946656 -3.4533246,3.946656 -2.0666615,0 -3.4533246,-1.599995 -3.4533246,-3.999989 0,-2.399994 1.3866631,-3.99999 3.4399913,-3.99999 z m 6.0399897,1.799995 v 6.986649 h 1.119997 v -3.853323 c 0,-1.426663 0.746665,-2.359994 1.893329,-2.359994 0.879998,0 1.439996,0.533332 1.439996,1.373329 v 4.839988 h 1.106664 v -5.279986 c 0,-1.159998 -0.866665,-1.906662 -2.213328,-1.906662 -1.039997,0 -1.706662,0.399999 -2.319994,1.37333 v -1.173331 z m 15.999969,6.986649 2.733327,-8.146646 v 8.146646 h 1.17333 v -9.719975 h -1.719995 l -2.82666,8.466645 -2.879993,-8.466645 h -1.719995 v 9.719975 h 1.17333 v -8.146646 l 2.759993,8.146646 z m 6.973324,-6.986649 h -1.106664 v 6.986649 h 1.106664 z m 0,-2.733326 h -1.119997 v 1.399996 h 1.119997 z m 2.879996,0 h -1.119997 v 9.719975 h 1.119997 z m 5.973324,2.733326 -1.933328,5.439986 -1.786662,-5.439986 h -1.186664 l 2.359994,7.013316 -0.426665,1.106664 c -0.186667,0.493332 -0.426666,0.679998 -0.893331,0.679998 -0.16,0 -0.346666,-0.02667 -0.586666,-0.08 v 0.999998 c 0.226666,0.119999 0.453333,0.173332 0.746665,0.173332 0.759998,0 1.41333,-0.413332 1.799996,-1.439996 l 3.106658,-8.453312 z m 2.040007,2.066662 h 1.119997 c 0.09333,-0.853332 0.599999,-1.239997 1.639996,-1.239997 0.999998,0 1.559996,0.373332 1.559996,1.039997 v 0.293333 c 0,0.466665 -0.279999,0.666665 -1.159997,0.773331 -2.039995,0.266666 -3.466658,0.426666 -3.466658,2.293328 0,1.266663 0.879998,2.066661 2.293328,2.066661 0.879998,0 1.586663,-0.306666 2.373327,-1.026664 0.08,0.706665 0.426666,1.026664 1.146664,1.026664 0.226666,0 0.399999,-0.02667 0.759998,-0.12 v -0.839998 c -0.12,0.02667 -0.173333,0.02667 -0.239999,0.02667 -0.386666,0 -0.599999,-0.199999 -0.599999,-0.546665 v -4.106656 c 0,-1.239997 -0.906664,-1.906662 -2.62666,-1.906662 -1.25333,0 -2.733326,0.373332 -2.799993,2.266661 z m 2.226661,4.253322 c -0.866664,0 -1.37333,-0.413332 -1.37333,-1.119997 0,-1.533329 2.333328,-1.146664 3.466658,-1.666662 v 1.25333 c 0,0.666665 -0.773331,1.533329 -2.093328,1.533329 z m 8.466635,-5.346653 v -1.13333 c -0.186666,-0.02667 -0.279999,-0.04 -0.426666,-0.04 -0.719998,0 -1.266663,0.426665 -1.906661,1.466663 v -1.266664 h -1.026665 v 6.986649 h 1.119998 V 47.00352 c 0,-1.959995 0.893331,-2.359994 2.239994,-2.386661 z m 2.186672,-3.706657 h -1.119997 v 9.719975 h 1.119997 z m 1.640002,4.799988 h 1.119997 c 0.09333,-0.853332 0.599999,-1.239997 1.639996,-1.239997 0.999998,0 1.559996,0.373332 1.559996,1.039997 v 0.293333 c 0,0.466665 -0.279999,0.666665 -1.159997,0.773331 -2.039995,0.266666 -3.466658,0.426666 -3.466658,2.293328 0,1.266663 0.879998,2.066661 2.293328,2.066661 0.879998,0 1.586662,-0.306666 2.373327,-1.026664 0.08,0.706665 0.426666,1.026664 1.146664,1.026664 0.226666,0 0.399999,-0.02667 0.759998,-0.12 v -0.839998 c -0.12,0.02667 -0.173333,0.02667 -0.239999,0.02667 -0.386666,0 -0.599999,-0.199999 -0.599999,-0.546665 v -4.106656 c 0,-1.239997 -0.906664,-1.906662 -2.62666,-1.906662 -1.25333,0 -2.733326,0.373332 -2.799993,2.266661 z m 2.226661,4.253322 c -0.866664,0 -1.37333,-0.413332 -1.37333,-1.119997 0,-1.533329 2.333328,-1.146664 3.466658,-1.666662 v 1.25333 c 0,0.666665 -0.773331,1.533329 -2.093328,1.533329 z m 8.466639,-5.346653 v -1.13333 c -0.186666,-0.02667 -0.28,-0.04 -0.426666,-0.04 -0.719998,0 -1.266663,0.426665 -1.906662,1.466663 v -1.266664 h -1.026664 v 6.986649 h 1.119997 V 47.00352 c 0,-1.959995 0.893331,-2.359994 2.239995,-2.386661 z"
         id="text4"
         style="font-size:13.3333px;font-family:FreeSans;-inkscape-font-specification:FreeSans;white-space:pre"
         transform="matrix(0,-0.26458333,0.26458333,0,-4.6845692,26.790074)"
         aria-label="On Milyarlar" />
      <path
         d="m 6.8086039,50.630177 2.7333264,-8.146646 v 8.146646 H 10.715261 V 40.910202 H 8.995265 L 6.1686055,49.376847 3.2886127,40.910202 H 1.5686171 v 9.719975 h 1.1733304 v -8.146646 l 2.759993,8.146646 z m 6.9733251,-6.986649 h -1.106664 v 6.986649 h 1.106664 z m 0,-2.733326 h -1.119997 v 1.399996 h 1.119997 z m 2.879994,0 h -1.119997 v 9.719975 h 1.119997 z m 5.973327,2.733326 -1.933329,5.439986 -1.786662,-5.439986 h -1.186663 l 2.359994,7.013316 -0.426666,1.106664 c -0.186666,0.493332 -0.426666,0.679998 -0.893331,0.679998 -0.16,0 -0.346666,-0.02667 -0.586665,-0.08 v 0.999998 c 0.226666,0.119999 0.453332,0.173332 0.746664,0.173332 0.759999,0 1.41333,-0.413332 1.799996,-1.439996 l 3.106659,-8.453312 z m 2.040005,2.066662 h 1.119997 c 0.09333,-0.853332 0.599998,-1.239997 1.639996,-1.239997 0.999997,0 1.559996,0.373332 1.559996,1.039997 v 0.293333 c 0,0.466665 -0.28,0.666665 -1.159997,0.773331 -2.039995,0.266666 -3.466658,0.426666 -3.466658,2.293328 0,1.266663 0.879998,2.066661 2.293327,2.066661 0.879998,0 1.586663,-0.306666 2.373328,-1.026664 0.08,0.706665 0.426665,1.026664 1.146663,1.026664 0.226667,0 0.399999,-0.02667 0.759998,-0.12 v -0.839998 c -0.119999,0.02667 -0.173332,0.02667 -0.239999,0.02667 -0.386666,0 -0.599998,-0.199999 -0.599998,-0.546665 v -4.106656 c 0,-1.239997 -0.906665,-1.906662 -2.62666,-1.906662 -1.253331,0 -2.733327,0.373332 -2.799993,2.266661 z m 2.226661,4.253322 c -0.866665,0 -1.37333,-0.413332 -1.37333,-1.119997 0,-1.533329 2.333327,-1.146664 3.466658,-1.666662 v 1.25333 c 0,0.666665 -0.773332,1.533329 -2.093328,1.533329 z m 8.466634,-5.346653 v -1.13333 c -0.186666,-0.02667 -0.279999,-0.04 -0.426665,-0.04 -0.719998,0 -1.266664,0.426665 -1.906662,1.466663 v -1.266664 h -1.026664 v 6.986649 h 1.119997 V 47.00352 c 0,-1.959995 0.893331,-2.359994 2.239994,-2.386661 z m 2.186672,-3.706657 h -1.119997 v 9.719975 h 1.119997 z m 1.640006,4.799988 h 1.119998 c 0.09333,-0.853332 0.599998,-1.239997 1.639995,-1.239997 0.999998,0 1.559997,0.373332 1.559997,1.039997 v 0.293333 c 0,0.466665 -0.28,0.666665 -1.159998,0.773331 -2.039994,0.266666 -3.466657,0.426666 -3.466657,2.293328 0,1.266663 0.879997,2.066661 2.293327,2.066661 0.879998,0 1.586663,-0.306666 2.373327,-1.026664 0.08,0.706665 0.426666,1.026664 1.146664,1.026664 0.226666,0 0.399999,-0.02667 0.759998,-0.12 v -0.839998 c -0.119999,0.02667 -0.173333,0.02667 -0.239999,0.02667 -0.386666,0 -0.599999,-0.199999 -0.599999,-0.546665 v -4.106656 c 0,-1.239997 -0.906664,-1.906662 -2.62666,-1.906662 -1.25333,0 -2.733326,0.373332 -2.799993,2.266661 z m 2.226661,4.253322 c -0.866664,0 -1.373329,-0.413332 -1.373329,-1.119997 0,-1.533329 2.333327,-1.146664 3.466658,-1.666662 v 1.25333 c 0,0.666665 -0.773332,1.533329 -2.093329,1.533329 z m 8.466635,-5.346653 v -1.13333 c -0.186666,-0.02667 -0.279999,-0.04 -0.426665,-0.04 -0.719999,0 -1.266664,0.426665 -1.906662,1.466663 v -1.266664 h -1.026664 v 6.986649 H 47.64853 V 47.00352 c 0,-1.959995 0.893331,-2.359994 2.239994,-2.386661 z"
         id="text5"
         style="font-size:13.3333px;font-family:FreeSans;-inkscape-font-specification:FreeSans;white-space:pre"
         transform="matrix(0,-0.26458333,0.26458333,0,0.25199063,26.790074)"
         aria-label="Milyarlar" />
      <path
         d="M 5.6886067,46.816853 9.3419308,40.910202 H 7.8619345 L 5.0886082,45.643523 2.2352821,40.910202 H 0.70195262 l 3.74665718,5.906651 v 3.813324 H 5.6886067 Z M 15.035243,40.910202 H 13.64858 v 1.386663 h 1.386663 z m -2.386661,0 h -1.386663 v 1.386663 h 1.386663 z m 3.253325,9.719975 v -6.986649 h -1.106663 v 3.95999 c 0,1.426663 -0.746665,2.359994 -1.906662,2.359994 -0.879998,0 -1.439997,-0.533332 -1.439997,-1.37333 v -4.946654 h -1.106663 v 5.386653 c 0,1.159997 0.866664,1.906662 2.226661,1.906662 1.026664,0 1.679995,-0.359999 2.333327,-1.279997 v 0.973331 z m 6.693325,-6.986649 h -5.21332 v 0.973331 h 3.893324 l -4.173323,5.013321 v 0.999997 h 5.679985 v -0.973331 h -4.333322 l 4.146656,-5.026654 z m 10.226643,6.986649 2.733327,-8.146646 v 8.146646 h 1.17333 v -9.719975 h -1.719996 l -2.826659,8.466645 -2.879993,-8.466645 h -1.719996 v 9.719975 h 1.173331 v -8.146646 l 2.759993,8.146646 z m 6.973324,-6.986649 h -1.106664 v 6.986649 h 1.106664 z m 0,-2.733326 h -1.119997 v 1.399996 h 1.119997 z m 2.879996,0 h -1.119998 v 9.719975 h 1.119998 z m 5.973324,2.733326 -1.933328,5.439986 -1.786662,-5.439986 h -1.186664 l 2.359994,7.013316 -0.426666,1.106664 c -0.186666,0.493332 -0.426665,0.679998 -0.893331,0.679998 -0.159999,0 -0.346665,-0.02667 -0.586665,-0.08 v 0.999998 c 0.226666,0.119999 0.453332,0.173332 0.746665,0.173332 0.759998,0 1.41333,-0.413332 1.799995,-1.439996 l 3.106659,-8.453312 z m 4.88,-0.199999 c -1.959995,0 -3.146659,1.399996 -3.146659,3.746657 0,2.346661 1.17333,3.746657 3.159992,3.746657 1.959995,0 3.159992,-1.399996 3.159992,-3.693324 0,-2.413327 -1.159997,-3.79999 -3.173325,-3.79999 z m 0.01333,1.026664 c 1.25333,0 1.999995,1.026664 1.999995,2.759993 0,1.639996 -0.773331,2.679993 -1.999995,2.679993 -1.239997,0 -1.999995,-1.026664 -1.999995,-2.719993 0,-1.679996 0.759998,-2.719993 1.999995,-2.719993 z m 4.359995,-0.826665 v 6.986649 h 1.119997 v -3.853323 c 0,-1.426663 0.746665,-2.359994 1.893328,-2.359994 0.879998,0 1.439997,0.533332 1.439997,1.373329 v 4.839988 h 1.106664 v -5.279986 c 0,-1.159998 -0.866665,-1.906662 -2.213328,-1.906662 -1.039998,0 -1.706663,0.399999 -2.319994,1.37333 v -1.173331 z m 8.279985,-2.733326 h -1.119997 v 9.719975 h 1.119997 z m 1.640006,4.799988 h 1.119997 c 0.09333,-0.853332 0.599999,-1.239997 1.639996,-1.239997 0.999998,0 1.559996,0.373332 1.559996,1.039997 v 0.293333 c 0,0.466665 -0.279999,0.666665 -1.159997,0.773331 -2.039995,0.266666 -3.466658,0.426666 -3.466658,2.293328 0,1.266663 0.879998,2.066661 2.293328,2.066661 0.879998,0 1.586663,-0.306666 2.373327,-1.026664 0.08,0.706665 0.426666,1.026664 1.146664,1.026664 0.226666,0 0.399999,-0.02667 0.759998,-0.12 v -0.839998 c -0.12,0.02667 -0.173333,0.02667 -0.239999,0.02667 -0.386666,0 -0.599999,-0.199999 -0.599999,-0.546665 v -4.106656 c 0,-1.239997 -0.906664,-1.906662 -2.62666,-1.906662 -1.25333,0 -2.733326,0.373332 -2.799993,2.266661 z m 2.226661,4.253322 c -0.866664,0 -1.37333,-0.413332 -1.37333,-1.119997 0,-1.533329 2.333328,-1.146664 3.466658,-1.666662 v 1.25333 c 0,0.666665 -0.773331,1.533329 -2.093328,1.533329 z m 8.466639,-5.346653 v -1.13333 c -0.186666,-0.02667 -0.279999,-0.04 -0.426666,-0.04 -0.719998,0 -1.266663,0.426665 -1.906662,1.466663 v -1.266664 h -1.026664 v 6.986649 h 1.119997 V 47.00352 c 0,-1.959995 0.893332,-2.359994 2.239995,-2.386661 z"
         id="text6"
         style="font-size:13.3333px;font-family:FreeSans;-inkscape-font-specification:FreeSans;white-space:pre"
         transform="matrix(0,-0.26458333,0.26458333,0,5.1885505,26.790074)"
         aria-label="Yüz Milyonlar" />
      <path
         d="m 10.421928,45.923522 c 0,-3.133325 -1.8533286,-5.17332 -4.7066547,-5.17332 -2.7866596,0 -4.6799882,2.053328 -4.6799882,5.093321 0,3.039992 1.8933286,5.09332 4.6933215,5.09332 2.9066593,0 4.6933214,-2.213328 4.6933214,-5.013321 z M 5.7152733,41.843533 c 2.1066613,0 3.4666579,1.599996 3.4666579,4.053323 0,2.346661 -1.3999965,3.946656 -3.4533246,3.946656 -2.0666615,0 -3.4533246,-1.599995 -3.4533246,-3.999989 0,-2.399994 1.3866631,-3.99999 3.4399913,-3.99999 z m 6.0399897,1.799995 v 6.986649 h 1.119997 v -3.853323 c 0,-1.426663 0.746665,-2.359994 1.893329,-2.359994 0.879998,0 1.439996,0.533332 1.439996,1.373329 v 4.839988 h 1.106664 v -5.279986 c 0,-1.159998 -0.866665,-1.906662 -2.213328,-1.906662 -1.039997,0 -1.706662,0.399999 -2.319994,1.37333 v -1.173331 z m 15.999969,6.986649 2.733327,-8.146646 v 8.146646 h 1.17333 v -9.719975 h -1.719995 l -2.82666,8.466645 -2.879993,-8.466645 h -1.719995 v 9.719975 h 1.17333 v -8.146646 l 2.759993,8.146646 z m 6.973324,-6.986649 h -1.106664 v 6.986649 h 1.106664 z m 0,-2.733326 h -1.119997 v 1.399996 h 1.119997 z m 2.879996,0 h -1.119997 v 9.719975 h 1.119997 z m 5.973324,2.733326 -1.933328,5.439986 -1.786662,-5.439986 h -1.186664 l 2.359994,7.013316 -0.426665,1.106664 c -0.186667,0.493332 -0.426666,0.679998 -0.893331,0.679998 -0.16,0 -0.346666,-0.02667 -0.586666,-0.08 v 0.999998 c 0.226666,0.119999 0.453333,0.173332 0.746665,0.173332 0.759998,0 1.41333,-0.413332 1.799996,-1.439996 l 3.106658,-8.453312 z m 4.88,-0.199999 c -1.959995,0 -3.146659,1.399996 -3.146659,3.746657 0,2.346661 1.173331,3.746657 3.159992,3.746657 1.959995,0 3.159992,-1.399996 3.159992,-3.693324 0,-2.413327 -1.159997,-3.79999 -3.173325,-3.79999 z m 0.01333,1.026664 c 1.253331,0 1.999995,1.026664 1.999995,2.759993 0,1.639996 -0.773331,2.679993 -1.999995,2.679993 -1.239997,0 -1.999995,-1.026664 -1.999995,-2.719993 0,-1.679996 0.759998,-2.719993 1.999995,-2.719993 z m 4.359995,-0.826665 v 6.986649 h 1.119997 v -3.853323 c 0,-1.426663 0.746665,-2.359994 1.893329,-2.359994 0.879997,0 1.439996,0.533332 1.439996,1.373329 v 4.839988 h 1.106664 v -5.279986 c 0,-1.159998 -0.866665,-1.906662 -2.213328,-1.906662 -1.039997,0 -1.706662,0.399999 -2.319994,1.37333 v -1.173331 z m 8.279985,-2.733326 h -1.119997 v 9.719975 h 1.119997 z m 1.640006,4.799988 h 1.119998 c 0.09333,-0.853332 0.599998,-1.239997 1.639995,-1.239997 0.999998,0 1.559997,0.373332 1.559997,1.039997 v 0.293333 c 0,0.466665 -0.28,0.666665 -1.159998,0.773331 -2.039994,0.266666 -3.466657,0.426666 -3.466657,2.293328 0,1.266663 0.879997,2.066661 2.293327,2.066661 0.879998,0 1.586663,-0.306666 2.373327,-1.026664 0.08,0.706665 0.426666,1.026664 1.146664,1.026664 0.226666,0 0.399999,-0.02667 0.759998,-0.12 v -0.839998 c -0.119999,0.02667 -0.173333,0.02667 -0.239999,0.02667 -0.386666,0 -0.599999,-0.199999 -0.599999,-0.546665 v -4.106656 c 0,-1.239997 -0.906664,-1.906662 -2.62666,-1.906662 -1.25333,0 -2.733326,0.373332 -2.799993,2.266661 z m 2.226661,4.253322 c -0.866664,0 -1.373329,-0.413332 -1.373329,-1.119997 0,-1.533329 2.333327,-1.146664 3.466658,-1.666662 v 1.25333 c 0,0.666665 -0.773332,1.533329 -2.093329,1.533329 z m 8.466639,-5.346653 v -1.13333 c -0.186666,-0.02667 -0.279999,-0.04 -0.426666,-0.04 -0.719998,0 -1.266663,0.426665 -1.906661,1.466663 v -1.266664 h -1.026664 v 6.986649 h 1.119997 V 47.00352 c 0,-1.959995 0.893331,-2.359994 2.239994,-2.386661 z"
         id="text7"
         style="font-size:13.3333px;font-family:FreeSans;-inkscape-font-specification:FreeSans;white-space:pre"
         transform="matrix(0,-0.26458333,0.26458333,0,10.167441,26.790074)"
         aria-label="On Milyonlar" />
      <path
         d="m 6.8086039,50.630177 2.7333264,-8.146646 v 8.146646 H 10.715261 V 40.910202 H 8.995265 L 6.1686055,49.376847 3.2886127,40.910202 H 1.5686171 v 9.719975 h 1.1733304 v -8.146646 l 2.759993,8.146646 z m 6.9733251,-6.986649 h -1.106664 v 6.986649 h 1.106664 z m 0,-2.733326 h -1.119997 v 1.399996 h 1.119997 z m 2.879994,0 h -1.119997 v 9.719975 h 1.119997 z m 5.973327,2.733326 -1.933329,5.439986 -1.786662,-5.439986 h -1.186663 l 2.359994,7.013316 -0.426666,1.106664 c -0.186666,0.493332 -0.426666,0.679998 -0.893331,0.679998 -0.16,0 -0.346666,-0.02667 -0.586665,-0.08 v 0.999998 c 0.226666,0.119999 0.453332,0.173332 0.746664,0.173332 0.759999,0 1.41333,-0.413332 1.799996,-1.439996 l 3.106659,-8.453312 z m 4.879997,-0.199999 c -1.959995,0 -3.146658,1.399996 -3.146658,3.746657 0,2.346661 1.17333,3.746657 3.159992,3.746657 1.959995,0 3.159992,-1.399996 3.159992,-3.693324 0,-2.413327 -1.159997,-3.79999 -3.173326,-3.79999 z m 0.01333,1.026664 c 1.25333,0 1.999995,1.026664 1.999995,2.759993 0,1.639996 -0.773332,2.679993 -1.999995,2.679993 -1.239997,0 -1.999995,-1.026664 -1.999995,-2.719993 0,-1.679996 0.759998,-2.719993 1.999995,-2.719993 z m 4.359994,-0.826665 v 6.986649 h 1.119997 v -3.853323 c 0,-1.426663 0.746665,-2.359994 1.893329,-2.359994 0.879998,0 1.439996,0.533332 1.439996,1.373329 v 4.839988 h 1.106664 v -5.279986 c 0,-1.159998 -0.866664,-1.906662 -2.213328,-1.906662 -1.039997,0 -1.706662,0.399999 -2.319994,1.37333 v -1.173331 z m 8.279986,-2.733326 h -1.119997 v 9.719975 h 1.119997 z m 1.640006,4.799988 h 1.119997 c 0.09333,-0.853332 0.599999,-1.239997 1.639996,-1.239997 0.999997,0 1.559996,0.373332 1.559996,1.039997 v 0.293333 c 0,0.466665 -0.279999,0.666665 -1.159997,0.773331 -2.039995,0.266666 -3.466658,0.426666 -3.466658,2.293328 0,1.266663 0.879998,2.066661 2.293328,2.066661 0.879997,0 1.586662,-0.306666 2.373327,-1.026664 0.08,0.706665 0.426665,1.026664 1.146664,1.026664 0.226666,0 0.399999,-0.02667 0.759998,-0.12 v -0.839998 c -0.12,0.02667 -0.173333,0.02667 -0.24,0.02667 -0.386665,0 -0.599998,-0.199999 -0.599998,-0.546665 v -4.106656 c 0,-1.239997 -0.906665,-1.906662 -2.62666,-1.906662 -1.25333,0 -2.733327,0.373332 -2.799993,2.266661 z m 2.226661,4.253322 c -0.866665,0 -1.37333,-0.413332 -1.37333,-1.119997 0,-1.533329 2.333328,-1.146664 3.466658,-1.666662 v 1.25333 c 0,0.666665 -0.773331,1.533329 -2.093328,1.533329 z m 8.466635,-5.346653 v -1.13333 c -0.186667,-0.02667 -0.28,-0.04 -0.426666,-0.04 -0.719998,0 -1.266663,0.426665 -1.906662,1.466663 v -1.266664 h -1.026664 v 6.986649 h 1.119997 V 47.00352 c 0,-1.959995 0.893331,-2.359994 2.239995,-2.386661 z"
         id="text8"
         style="font-size:13.3333px;font-family:FreeSans;-inkscape-font-specification:FreeSans;white-space:pre"
         transform="matrix(0,-0.26458333,0.26458333,0,15.152932,26.790074)"
         aria-label="Milyonlar" />
      <path
         d="M 5.6886067,46.816853 9.3419308,40.910202 H 7.8619345 L 5.0886082,45.643523 2.2352821,40.910202 H 0.70195262 l 3.74665718,5.906651 v 3.813324 H 5.6886067 Z M 15.035243,40.910202 H 13.64858 v 1.386663 h 1.386663 z m -2.386661,0 h -1.386663 v 1.386663 h 1.386663 z m 3.253325,9.719975 v -6.986649 h -1.106663 v 3.95999 c 0,1.426663 -0.746665,2.359994 -1.906662,2.359994 -0.879998,0 -1.439997,-0.533332 -1.439997,-1.37333 v -4.946654 h -1.106663 v 5.386653 c 0,1.159997 0.866664,1.906662 2.226661,1.906662 1.026664,0 1.679995,-0.359999 2.333327,-1.279997 v 0.973331 z m 6.693325,-6.986649 h -5.21332 v 0.973331 h 3.893324 l -4.173323,5.013321 v 0.999997 h 5.679985 v -0.973331 h -4.333322 l 4.146656,-5.026654 z m 12.239971,4.213323 c 0,-1.173331 -0.533332,-1.879995 -1.773328,-2.359994 0.879997,-0.413332 1.346663,-1.133331 1.346663,-2.119995 0,-0.986664 -0.573332,-2.46666 -2.879993,-2.46666 h -3.946657 v 9.719975 h 4.386656 c 1.719996,0 2.866659,-1.106664 2.866659,-2.773326 z m -1.666662,-4.306656 c 0,1.159997 -0.773331,1.546663 -1.946662,1.546663 h -2.399994 v -3.093326 h 2.399994 c 1.039998,0 1.946662,0.293333 1.946662,1.546663 z m -1.319997,5.986652 h -3.026659 v -3.346659 h 3.026659 c 1.146664,0 1.746663,0.693332 1.746663,1.679996 0,0.679998 -0.346666,1.666663 -1.746663,1.666663 z m 5.519981,-5.893319 h -1.106664 v 6.986649 h 1.106664 z m 0,-2.733326 h -1.119997 v 1.399996 h 1.119997 z m 1.759995,2.733326 v 6.986649 h 1.119997 v -3.853323 c 0,-1.426663 0.746665,-2.359994 1.893328,-2.359994 0.879998,0 1.439997,0.533332 1.439997,1.373329 v 4.839988 h 1.106664 v -5.279986 c 0,-1.159998 -0.866665,-1.906662 -2.213328,-1.906662 -1.039997,0 -1.706662,0.399999 -2.319994,1.37333 v -1.173331 z m 8.279989,-2.733326 h -1.119997 v 9.719975 h 1.119997 z m 7.639991,6.599983 c 0,-2.533327 -0.946664,-4.066656 -3.106659,-4.066656 -1.946662,0 -3.199992,1.493329 -3.199992,3.786657 0,2.293327 1.213331,3.706657 3.173326,3.706657 1.599996,0 2.706659,-0.906664 2.986659,-2.42666 h -1.119997 c -0.306666,0.919997 -0.933331,1.399996 -1.826663,1.399996 -1.29333,0 -2.026661,-0.973331 -2.053328,-2.399994 z m -5.119987,-0.906664 c 0.09333,-1.29333 0.879998,-2.133328 1.999995,-2.133328 1.146664,0 1.933328,0.933331 1.933328,2.133328 z m 9.679986,-1.986662 v -1.13333 c -0.186666,-0.02667 -0.28,-0.04 -0.426666,-0.04 -0.719998,0 -1.266663,0.426665 -1.906662,1.466663 v -1.266664 h -1.026664 v 6.986649 h 1.119997 V 47.00352 c 0,-1.959995 0.893331,-2.359994 2.239995,-2.386661 z"
         id="text10"
         style="font-size:13.3333px;font-family:FreeSans;-inkscape-font-specification:FreeSans;white-space:pre"
         transform="matrix(0,-0.26458333,0.26458333,0,20.481839,26.790074)"
         aria-label="Yüz Binler" />
      <path
         d="m 10.421928,45.923522 c 0,-3.133325 -1.8533286,-5.17332 -4.7066547,-5.17332 -2.7866596,0 -4.6799882,2.053328 -4.6799882,5.093321 0,3.039992 1.8933286,5.09332 4.6933215,5.09332 2.9066593,0 4.6933214,-2.213328 4.6933214,-5.013321 z M 5.7152733,41.843533 c 2.1066613,0 3.4666579,1.599996 3.4666579,4.053323 0,2.346661 -1.3999965,3.946656 -3.4533246,3.946656 -2.0666615,0 -3.4533246,-1.599995 -3.4533246,-3.999989 0,-2.399994 1.3866631,-3.99999 3.4399913,-3.99999 z m 6.0399897,1.799995 v 6.986649 h 1.119997 v -3.853323 c 0,-1.426663 0.746665,-2.359994 1.893329,-2.359994 0.879998,0 1.439996,0.533332 1.439996,1.373329 v 4.839988 h 1.106664 v -5.279986 c 0,-1.159998 -0.866665,-1.906662 -2.213328,-1.906662 -1.039997,0 -1.706662,0.399999 -2.319994,1.37333 v -1.173331 z m 18.013298,4.213323 c 0,-1.173331 -0.533332,-1.879995 -1.773329,-2.359994 0.879998,-0.413332 1.346663,-1.133331 1.346663,-2.119995 0,-0.986664 -0.573332,-2.46666 -2.879993,-2.46666 h -3.946656 v 9.719975 h 4.386655 c 1.719996,0 2.86666,-1.106664 2.86666,-2.773326 z m -1.666663,-4.306656 c 0,1.159997 -0.773331,1.546663 -1.946662,1.546663 h -2.399993 v -3.093326 h 2.399993 c 1.039998,0 1.946662,0.293333 1.946662,1.546663 z m -1.319996,5.986652 h -3.026659 v -3.346659 h 3.026659 c 1.146663,0 1.746662,0.693332 1.746662,1.679996 0,0.679998 -0.346666,1.666663 -1.746662,1.666663 z m 5.519979,-5.893319 h -1.106664 v 6.986649 h 1.106664 z m 0,-2.733326 h -1.119998 v 1.399996 h 1.119998 z m 1.759996,2.733326 v 6.986649 h 1.119997 v -3.853323 c 0,-1.426663 0.746665,-2.359994 1.893329,-2.359994 0.879997,0 1.439996,0.533332 1.439996,1.373329 v 4.839988 h 1.106664 v -5.279986 c 0,-1.159998 -0.866665,-1.906662 -2.213328,-1.906662 -1.039997,0 -1.706662,0.399999 -2.319994,1.37333 v -1.173331 z m 8.279989,-2.733326 h -1.119997 v 9.719975 h 1.119997 z m 7.639991,6.599983 c 0,-2.533327 -0.946664,-4.066656 -3.106659,-4.066656 -1.946661,0 -3.199991,1.493329 -3.199991,3.786657 0,2.293327 1.21333,3.706657 3.173325,3.706657 1.599996,0 2.70666,-0.906664 2.986659,-2.42666 h -1.119997 c -0.306666,0.919997 -0.933331,1.399996 -1.826662,1.399996 -1.29333,0 -2.026662,-0.973331 -2.053328,-2.399994 z M 44.86187,46.603521 c 0.09333,-1.29333 0.879998,-2.133328 1.999995,-2.133328 1.146664,0 1.933329,0.933331 1.933329,2.133328 z m 9.679986,-1.986662 v -1.13333 c -0.186666,-0.02667 -0.279999,-0.04 -0.426666,-0.04 -0.719998,0 -1.266663,0.426665 -1.906661,1.466663 v -1.266664 h -1.026665 v 6.986649 h 1.119998 V 47.00352 c 0,-1.959995 0.893331,-2.359994 2.239994,-2.386661 z"
         id="text11"
         style="font-size:13.3333px;font-family:FreeSans;-inkscape-font-specification:FreeSans;white-space:pre"
         transform="matrix(0,-0.26458333,0.26458333,0,25.457568,26.790074)"
         aria-label="On Binler" />
      <path
         d="m 8.8219321,47.856851 c 0,-1.173331 -0.533332,-1.879995 -1.7733289,-2.359994 0.8799978,-0.413332 1.3466633,-1.133331 1.3466633,-2.119995 0,-0.986664 -0.5733319,-2.46666 -2.8799927,-2.46666 H 1.5686171 v 9.719975 h 4.3866556 c 1.7199956,0 2.8666594,-1.106664 2.8666594,-2.773326 z M 7.1552696,43.550195 c 0,1.159997 -0.7733313,1.546663 -1.9466617,1.546663 H 2.808614 v -3.093326 h 2.3999939 c 1.0399974,0 1.9466617,0.293333 1.9466617,1.546663 z M 5.835273,49.536847 H 2.808614 v -3.346659 h 3.026659 c 1.1466637,0 1.7466622,0.693332 1.7466622,1.679996 0,0.679998 -0.3466658,1.666663 -1.7466622,1.666663 z m 5.51998,-5.893319 h -1.106664 v 6.986649 h 1.106664 z m 0,-2.733326 h -1.119997 v 1.399996 h 1.119997 z m 1.759997,2.733326 v 6.986649 h 1.119997 v -3.853323 c 0,-1.426663 0.746665,-2.359994 1.893329,-2.359994 0.879998,0 1.439996,0.533332 1.439996,1.373329 v 4.839988 h 1.106664 v -5.279986 c 0,-1.159998 -0.866664,-1.906662 -2.213328,-1.906662 -1.039997,0 -1.706662,0.399999 -2.319994,1.37333 v -1.173331 z m 8.279988,-2.733326 h -1.119997 v 9.719975 h 1.119997 z m 7.639991,6.599983 c 0,-2.533327 -0.946665,-4.066656 -3.106659,-4.066656 -1.946662,0 -3.199992,1.493329 -3.199992,3.786657 0,2.293327 1.21333,3.706657 3.173325,3.706657 1.599996,0 2.70666,-0.906664 2.986659,-2.42666 h -1.119997 c -0.306666,0.919997 -0.933331,1.399996 -1.826662,1.399996 -1.29333,0 -2.026661,-0.973331 -2.053328,-2.399994 z m -5.119987,-0.906664 c 0.09333,-1.29333 0.879997,-2.133328 1.999995,-2.133328 1.146663,0 1.933328,0.933331 1.933328,2.133328 z m 9.679987,-1.986662 v -1.13333 c -0.186666,-0.02667 -0.279999,-0.04 -0.426665,-0.04 -0.719998,0 -1.266664,0.426665 -1.906662,1.466663 v -1.266664 h -1.026664 v 6.986649 h 1.119997 V 47.00352 c 0,-1.959995 0.893331,-2.359994 2.239994,-2.386661 z"
         id="text12"
         style="font-size:13.3333px;font-family:FreeSans;-inkscape-font-specification:FreeSans;white-space:pre"
         transform="matrix(0,-0.26458333,0.26458333,0,30.481961,26.790074)"
         aria-label="Binler" />
      <path
         d="M 5.6886067,46.816853 9.3419308,40.910202 H 7.8619345 L 5.0886082,45.643523 2.2352821,40.910202 H 0.70195262 l 3.74665718,5.906651 v 3.813324 H 5.6886067 Z M 15.035243,40.910202 H 13.64858 v 1.386663 h 1.386663 z m -2.386661,0 h -1.386663 v 1.386663 h 1.386663 z m 3.253325,9.719975 v -6.986649 h -1.106663 v 3.95999 c 0,1.426663 -0.746665,2.359994 -1.906662,2.359994 -0.879998,0 -1.439997,-0.533332 -1.439997,-1.37333 v -4.946654 h -1.106663 v 5.386653 c 0,1.159997 0.866664,1.906662 2.226661,1.906662 1.026664,0 1.679995,-0.359999 2.333327,-1.279997 v 0.973331 z m 6.693325,-6.986649 h -5.21332 v 0.973331 h 3.893324 l -4.173323,5.013321 v 0.999997 h 5.679985 v -0.973331 h -4.333322 l 4.146656,-5.026654 z m 2.506661,-2.733326 h -1.119997 v 9.719975 h 1.119997 z m 7.639991,6.599983 c 0,-2.533327 -0.946664,-4.066656 -3.106659,-4.066656 -1.946661,0 -3.199992,1.493329 -3.199992,3.786657 0,2.293327 1.213331,3.706657 3.173326,3.706657 1.599996,0 2.70666,-0.906664 2.986659,-2.42666 h -1.119997 c -0.306666,0.919997 -0.933331,1.399996 -1.826662,1.399996 -1.29333,0 -2.026662,-0.973331 -2.053328,-2.399994 z m -5.119987,-0.906664 c 0.09333,-1.29333 0.879998,-2.133328 1.999995,-2.133328 1.146664,0 1.933329,0.933331 1.933329,2.133328 z m 9.679988,-1.986662 v -1.13333 c -0.186666,-0.02667 -0.28,-0.04 -0.426666,-0.04 -0.719998,0 -1.266663,0.426665 -1.906662,1.466663 v -1.266664 h -1.026664 v 6.986649 H 35.06189 V 47.00352 c 0,-1.959995 0.893332,-2.359994 2.239995,-2.386661 z"
         id="text14"
         style="font-size:13.3333px;font-family:FreeSans;-inkscape-font-specification:FreeSans;white-space:pre"
         transform="matrix(0,-0.26458333,0.26458333,0,35.506354,26.790074)"
         aria-label="Yüzler" />
      <path
         d="m 10.421928,45.923522 c 0,-3.133325 -1.8533286,-5.17332 -4.7066547,-5.17332 -2.7866596,0 -4.6799882,2.053328 -4.6799882,5.093321 0,3.039992 1.8933286,5.09332 4.6933215,5.09332 2.9066593,0 4.6933214,-2.213328 4.6933214,-5.013321 z M 5.7152733,41.843533 c 2.1066613,0 3.4666579,1.599996 3.4666579,4.053323 0,2.346661 -1.3999965,3.946656 -3.4533246,3.946656 -2.0666615,0 -3.4533246,-1.599995 -3.4533246,-3.999989 0,-2.399994 1.3866631,-3.99999 3.4399913,-3.99999 z m 6.0399897,1.799995 v 6.986649 h 1.119997 v -3.853323 c 0,-1.426663 0.746665,-2.359994 1.893329,-2.359994 0.879998,0 1.439996,0.533332 1.439996,1.373329 v 4.839988 h 1.106664 v -5.279986 c 0,-1.159998 -0.866665,-1.906662 -2.213328,-1.906662 -1.039997,0 -1.706662,0.399999 -2.319994,1.37333 v -1.173331 z m 8.279988,-2.733326 h -1.119998 v 9.719975 h 1.119998 z m 1.640006,4.799988 h 1.119997 c 0.09333,-0.853332 0.599998,-1.239997 1.639996,-1.239997 0.999997,0 1.559996,0.373332 1.559996,1.039997 v 0.293333 c 0,0.466665 -0.28,0.666665 -1.159997,0.773331 -2.039995,0.266666 -3.466658,0.426666 -3.466658,2.293328 0,1.266663 0.879997,2.066661 2.293327,2.066661 0.879998,0 1.586663,-0.306666 2.373328,-1.026664 0.08,0.706665 0.426665,1.026664 1.146663,1.026664 0.226666,0 0.399999,-0.02667 0.759998,-0.12 v -0.839998 c -0.119999,0.02667 -0.173332,0.02667 -0.239999,0.02667 -0.386666,0 -0.599998,-0.199999 -0.599998,-0.546665 v -4.106656 c 0,-1.239997 -0.906665,-1.906662 -2.626661,-1.906662 -1.25333,0 -2.733326,0.373332 -2.799992,2.266661 z m 2.226661,4.253322 c -0.866665,0 -1.37333,-0.413332 -1.37333,-1.119997 0,-1.533329 2.333327,-1.146664 3.466658,-1.666662 v 1.25333 c 0,0.666665 -0.773332,1.533329 -2.093328,1.533329 z m 8.466634,-5.346653 v -1.13333 c -0.186666,-0.02667 -0.279999,-0.04 -0.426665,-0.04 -0.719998,0 -1.266664,0.426665 -1.906662,1.466663 v -1.266664 h -1.026664 v 6.986649 h 1.119997 V 47.00352 c 0,-1.959995 0.893331,-2.359994 2.239994,-2.386661 z"
         id="text15"
         style="font-size:13.3333px;font-family:FreeSans;-inkscape-font-specification:FreeSans;white-space:pre"
         transform="matrix(0,-0.26458333,0.26458333,0,40.573077,26.790074)"
         aria-label="Onlar" />
      <path
         d="m 8.8219321,47.856851 c 0,-1.173331 -0.533332,-1.879995 -1.7733289,-2.359994 0.8799978,-0.413332 1.3466633,-1.133331 1.3466633,-2.119995 0,-0.986664 -0.5733319,-2.46666 -2.8799927,-2.46666 H 1.5686171 v 9.719975 h 4.3866556 c 1.7199956,0 2.8666594,-1.106664 2.8666594,-2.773326 z M 7.1552696,43.550195 c 0,1.159997 -0.7733313,1.546663 -1.9466617,1.546663 H 2.808614 v -3.093326 h 2.3999939 c 1.0399974,0 1.9466617,0.293333 1.9466617,1.546663 z M 5.835273,49.536847 H 2.808614 v -3.346659 h 3.026659 c 1.1466637,0 1.7466622,0.693332 1.7466622,1.679996 0,0.679998 -0.3466658,1.666663 -1.7466622,1.666663 z m 5.51998,-5.893319 h -1.106664 v 6.986649 h 1.106664 z m 0,-2.733326 h -1.119997 v 1.399996 h 1.119997 z m 5.119989,3.706657 v -1.13333 c -0.186666,-0.02667 -0.28,-0.04 -0.426666,-0.04 -0.719998,0 -1.266663,0.426665 -1.906662,1.466663 V 43.643528 H 13.11525 v 6.986649 h 1.119997 V 47.00352 c 0,-1.959995 0.893332,-2.359994 2.239995,-2.386661 z m 2.18667,-3.706657 h -1.119997 v 9.719975 h 1.119997 z m 7.639991,6.599983 c 0,-2.533327 -0.946665,-4.066656 -3.106659,-4.066656 -1.946662,0 -3.199992,1.493329 -3.199992,3.786657 0,2.293327 1.21333,3.706657 3.173325,3.706657 1.599996,0 2.70666,-0.906664 2.986659,-2.42666 h -1.119997 c -0.306666,0.919997 -0.933331,1.399996 -1.826662,1.399996 -1.29333,0 -2.026661,-0.973331 -2.053328,-2.399994 z m -5.119987,-0.906664 c 0.09333,-1.29333 0.879997,-2.133328 1.999995,-2.133328 1.146663,0 1.933328,0.933331 1.933328,2.133328 z m 9.679987,-1.986662 v -1.13333 c -0.186666,-0.02667 -0.279999,-0.04 -0.426665,-0.04 -0.719998,0 -1.266664,0.426665 -1.906662,1.466663 v -1.266664 h -1.026664 v 6.986649 h 1.119997 V 47.00352 c 0,-1.959995 0.893331,-2.359994 2.239994,-2.386661 z"
         id="text16"
         style="font-size:13.3333px;font-family:FreeSans;-inkscape-font-specification:FreeSans;white-space:pre"
         transform="matrix(0,-0.26458333,0.26458333,0,45.471606,26.790074)"
         aria-label="Birler" />
    </g>
  </g>
</svg>
