<?xml version="1.0" encoding="UTF-8" standalone="no"?>
<!-- Created with Inkscape (http://www.inkscape.org/) -->

<svg
   width="6mm"
   height="6mm"
   viewBox="0 0 6 6"
   version="1.1"
   id="svg1"
   inkscape:version="1.4.2 (ebf0e940d0, 2025-05-08)"
   sodipodi:docname="5_1_1_15.svg"
   xmlns:inkscape="http://www.inkscape.org/namespaces/inkscape"
   xmlns:sodipodi="http://sodipodi.sourceforge.net/DTD/sodipodi-0.dtd"
   xmlns="http://www.w3.org/2000/svg"
   xmlns:svg="http://www.w3.org/2000/svg">
  <sodipodi:namedview
     id="namedview1"
     pagecolor="#ffffff"
     bordercolor="#000000"
     borderopacity="0.25"
     inkscape:showpageshadow="2"
     inkscape:pageopacity="0.0"
     inkscape:pagecheckerboard="0"
     inkscape:deskcolor="#d1d1d1"
     inkscape:document-units="mm"
     inkscape:zoom="16.594952"
     inkscape:cx="30.220033"
     inkscape:cy="10.12356"
     inkscape:window-width="1920"
     inkscape:window-height="1014"
     inkscape:window-x="0"
     inkscape:window-y="0"
     inkscape:window-maximized="1"
     inkscape:current-layer="layer1" />
  <defs
     id="defs1">
    <rect
       x="13.485725"
       y="-52.819092"
       width="225.2477"
       height="118.63495"
       id="rect1" />
    <rect
       x="37.795277"
       y="37.795277"
       width="483.77954"
       height="718.11023"
       id="rect2721" />
    <rect
       x="37.795277"
       y="37.795277"
       width="483.77954"
       height="718.11023"
       id="rect2722" />
    <rect
       x="37.795277"
       y="37.795277"
       width="483.77954"
       height="718.11023"
       id="rect2723" />
    <rect
       x="37.795277"
       y="37.795277"
       width="483.77954"
       height="718.11023"
       id="rect2724" />
    <rect
       x="37.795277"
       y="37.795277"
       width="483.77954"
       height="718.11023"
       id="rect2725" />
    <rect
       x="37.795277"
       y="37.795277"
       width="483.77954"
       height="718.11023"
       id="rect2726" />
    <rect
       x="37.795277"
       y="37.795277"
       width="483.77954"
       height="718.11023"
       id="rect2727" />
    <rect
       x="37.795277"
       y="37.795277"
       width="483.77954"
       height="718.11023"
       id="rect2728" />
    <rect
       x="37.795277"
       y="37.795277"
       width="483.77954"
       height="718.11023"
       id="rect2729" />
    <rect
       x="37.795277"
       y="37.795277"
       width="483.77954"
       height="718.11023"
       id="rect2730" />
    <rect
       x="37.795277"
       y="37.795277"
       width="483.77954"
       height="718.11023"
       id="rect2731" />
    <rect
       x="37.795277"
       y="37.795277"
       width="483.77954"
       height="718.11023"
       id="rect2732" />
    <rect
       x="37.795277"
       y="37.795277"
       width="483.77954"
       height="718.11023"
       id="rect2733" />
    <rect
       x="37.795277"
       y="37.795277"
       width="483.77954"
       height="718.11023"
       id="rect2734" />
  </defs>
  <g
     inkscape:label="Katman 1"
     inkscape:groupmode="layer"
     id="layer1">
    <g
       id="g13"
       transform="matrix(0.74946797,0,0,0.74946797,-718.78361,-33.47605)">
      <path
         style="fill:#afdde9;fill-opacity:1;stroke:none;stroke-width:0.264999;stroke-dasharray:none"
         d="m 963.10679,52.586048 0.79052,-0.08337 0.78984,-0.298272 0.84182,-0.445143 0.15552,-0.211762 0.59365,-0.590225 0.47212,-0.890608 0.17769,-0.925222 -0.0289,-1.038873 -0.18155,-0.843897 -0.38209,-0.746349 -0.6505,-0.759273 -0.89157,-0.625776 -1.1112,-0.321689 -1.2796,-0.0072 -1.08191,0.372597 -1.18287,0.843912 -0.61436,0.944033 -0.27724,1.048925 -0.0604,0.824868 0.15465,1.176689 0.59735,0.990277 1.08693,1.044578 1.28625,0.479957 z"
         id="path3999" />
      <path
         style="fill:#cdde87;fill-opacity:1;stroke:none;stroke-width:0.264999;stroke-dasharray:none"
         d="m 962.19834,52.029838 0.23932,-0.196866 0.4776,-1.212 0.15597,-1.082744 0.53435,-0.748186 -0.11721,-0.212111 -1.33715,-0.362392 -0.33404,-0.201576 -0.0489,-0.205607 0.72834,-0.9217 -0.0737,-0.27423 -0.45524,-0.348946 -0.086,-0.607997 -0.37047,-0.550116 -0.51745,0.218953 -0.95549,0.843487 -0.36383,0.55908 1.05818,0.952828 -0.10348,0.690835 0.62587,0.921454 0.11909,1.122336 0.39349,0.83335 0.11004,0.655707 z"
         id="path4000" />
      <path
         style="fill:#cdde87;fill-opacity:1;stroke:none;stroke-width:0.264999;stroke-dasharray:none"
         d="m 964.23772,44.966432 -0.67291,1.019635 0.01,0.405355 0.19846,0.246375 1.01386,0.04781 0.68278,-0.53262 0.21514,-0.399936 -0.62664,-0.439828 z"
         id="path4001" />
      <path
         style="fill:#cdde87;fill-opacity:1;stroke:none;stroke-width:0.264999;stroke-dasharray:none"
         d="m 965.71955,51.512636 0.64643,-0.721061 0.39338,-0.772319 0.16859,-0.759817 -0.45317,0.05727 -0.36844,0.204565 -0.36091,0.934812 -0.12896,0.734597 z"
         id="path4002" />
      <path
         style="fill:#000000;stroke-width:0.213763"
         d="m 962.58947,52.644569 c -1.48512,-0.164769 -2.76308,-1.176014 -3.28156,-2.59668 -0.72225,-1.978998 0.16957,-4.124297 2.08636,-5.018826 1.62245,-0.757168 3.61712,-0.298826 4.77174,1.096469 0.58475,0.706647 0.89384,1.582067 0.89247,2.527704 -10e-4,0.67659 -0.0985,1.135638 -0.36298,1.707957 -0.38563,0.834654 -1.0168,1.476918 -1.85522,1.887837 -0.73206,0.358788 -1.44802,0.484605 -2.25081,0.395539 z m 1.38742,-0.255951 c 0.4106,-0.09697 1.1664,-0.461366 1.45413,-0.701084 0.18926,-0.15768 0.20363,-0.188462 0.14653,-0.313792 -0.047,-0.10314 -0.0464,-0.195371 0.002,-0.357784 0.036,-0.120353 0.0656,-0.307575 0.0656,-0.416051 0,-0.31153 0.25886,-0.951545 0.47042,-1.163111 0.14152,-0.141516 0.25777,-0.198304 0.467,-0.228113 l 0.27859,-0.03969 0.0168,-0.451503 c 0.0189,-0.508574 -0.10028,-1.138209 -0.30156,-1.593407 -0.15221,-0.344236 -0.51984,-0.896461 -0.72116,-1.083258 l -0.14189,-0.131665 -0.10283,0.174084 c -0.0566,0.09574 -0.11796,0.174082 -0.13644,0.174082 -0.0185,0 -0.16778,0.11453 -0.33177,0.254513 l -0.29817,0.254511 h -0.47894 c -0.53689,0 -0.75265,-0.07781 -0.85821,-0.309491 -0.11883,-0.260805 -0.0746,-0.432496 0.24574,-0.95327 0.22978,-0.37359 0.29434,-0.521103 0.24217,-0.553341 -0.12685,-0.0784 -0.79082,-0.123196 -1.28716,-0.08684 -0.52255,0.03828 -0.82826,0.106768 -0.98361,0.220366 -0.091,0.06653 -0.085,0.08962 0.0812,0.315683 0.1309,0.178003 0.1887,0.329478 0.21388,0.560594 0.0299,0.274581 0.0565,0.328832 0.19965,0.408038 0.24446,0.135239 0.39391,0.360546 0.35142,0.529801 -0.0195,0.07776 -0.15214,0.2645 -0.29471,0.41497 -0.61031,0.644098 -0.55131,0.758644 0.50705,0.98448 0.33788,0.0721 0.67291,0.178364 0.74763,0.237138 0.20185,0.158769 0.17722,0.375625 -0.0693,0.610358 -0.27308,0.260022 -0.36294,0.490477 -0.41734,1.07036 -0.0361,0.384619 -0.0936,0.592132 -0.27732,1.000125 -0.1275,0.283144 -0.23181,0.539829 -0.23181,0.570408 0,0.138227 -0.2412,0.353647 -0.39597,0.353647 -0.14724,0 -0.33866,-0.121787 -0.33971,-0.216134 -0.003,-0.312718 -0.15097,-0.828821 -0.31677,-1.10852 -0.22988,-0.387773 -0.24934,-0.4675 -0.26502,-1.08575 -0.0116,-0.456761 -0.0129,-0.460527 -0.25629,-0.724492 -0.13456,-0.145941 -0.29184,-0.370738 -0.34951,-0.499552 -0.0943,-0.210585 -0.0967,-0.253722 -0.024,-0.427717 0.11753,-0.281293 0.10038,-0.392747 -0.0747,-0.484958 -0.0855,-0.04506 -0.29464,-0.223876 -0.46467,-0.39736 -0.17002,-0.173486 -0.32596,-0.315427 -0.34652,-0.315427 -0.0557,0 -0.26442,0.509656 -0.3618,0.883505 -0.10785,0.414055 -0.10977,1.353388 -0.004,1.803116 0.48508,2.056465 2.55474,3.315212 4.64087,2.822529 z m -1.67978,-0.486784 c 0.0373,-0.03733 0.0679,-0.100922 0.0679,-0.141319 0,-0.0404 0.10396,-0.304313 0.23101,-0.586481 0.18511,-0.411103 0.24033,-0.612472 0.27795,-1.013526 0.0534,-0.569726 0.14729,-0.806834 0.42643,-1.07739 0.32249,-0.312562 0.24803,-0.453569 -0.2983,-0.564959 -0.1482,-0.03021 -0.40944,-0.08263 -0.58053,-0.116484 -0.35618,-0.07047 -0.66181,-0.27579 -0.71277,-0.478838 -0.0432,-0.17218 0.0683,-0.356044 0.44045,-0.726057 0.33756,-0.335649 0.33593,-0.44205 -0.0105,-0.68497 -0.23946,-0.167919 -0.25619,-0.196914 -0.28279,-0.489988 -0.02,-0.219969 -0.0767,-0.381445 -0.19323,-0.549502 -0.0907,-0.130897 -0.18265,-0.248937 -0.20429,-0.262312 -0.068,-0.04204 -0.71872,0.385074 -1.01569,0.666701 -0.28524,0.270502 -0.62289,0.69562 -0.62289,0.784246 0,0.06694 0.71793,0.784094 0.78493,0.784094 0.21197,0 0.29887,0.387482 0.15103,0.673379 -0.0731,0.141377 -0.0716,0.178251 0.0141,0.337158 0.0529,0.09813 0.21021,0.310511 0.34952,0.471953 l 0.25329,0.293533 0.0308,0.599865 c 0.0281,0.548458 0.0459,0.623821 0.20821,0.87943 0.17862,0.281361 0.29989,0.626692 0.30048,0.855606 10e-4,0.334322 0.20922,0.52155 0.38491,0.345861 z m 3.73234,-0.808793 c 0.26735,-0.303721 0.58842,-0.900208 0.71334,-1.325233 0.11894,-0.404701 0.12022,-0.399782 -0.10333,-0.399782 -0.39076,0 -0.70738,0.476179 -0.82735,1.244281 -0.0267,0.171088 -0.0658,0.406512 -0.0868,0.523162 -0.051,0.282956 0.0273,0.272031 0.30413,-0.04243 z m -0.90686,-4.781147 c 0.18521,-0.15663 0.36445,-0.345582 0.39831,-0.41989 0.0551,-0.120971 0.0397,-0.151785 -0.14736,-0.294468 -0.11491,-0.08765 -0.39835,-0.254519 -0.62987,-0.370829 -0.50137,-0.251878 -0.48954,-0.257359 -0.8794,0.407622 -0.28236,0.481632 -0.31116,0.654517 -0.13969,0.838565 0.10087,0.108276 0.17457,0.123782 0.58829,0.123782 h 0.47296 z"
         id="path3855"
         sodipodi:nodetypes="sssscsssssssssscssscssscssssssssssssssssssssssssssssssssssssssssssssssssscsssssssssssssssssscs" />
    </g>
  </g>
</svg>
