<?xml version="1.0" encoding="UTF-8" standalone="no"?>
<!-- Created with Inkscape (http://www.inkscape.org/) -->

<svg
   width="41.186001mm"
   height="7.184mm"
   viewBox="0 0 41.186001 7.184"
   version="1.1"
   id="svg1"
   inkscape:version="1.4.2 (ebf0e940d0, 2025-05-08)"
   sodipodi:docname="5_1_1_34.svg"
   xmlns:inkscape="http://www.inkscape.org/namespaces/inkscape"
   xmlns:sodipodi="http://sodipodi.sourceforge.net/DTD/sodipodi-0.dtd"
   xmlns="http://www.w3.org/2000/svg"
   xmlns:svg="http://www.w3.org/2000/svg">
  <sodipodi:namedview
     id="namedview1"
     pagecolor="#ffffff"
     bordercolor="#000000"
     borderopacity="0.25"
     inkscape:showpageshadow="2"
     inkscape:pageopacity="0.0"
     inkscape:pagecheckerboard="0"
     inkscape:deskcolor="#d1d1d1"
     inkscape:document-units="mm"
     inkscape:zoom="4.5544524"
     inkscape:cx="75.201138"
     inkscape:cy="-33.15437"
     inkscape:window-width="1920"
     inkscape:window-height="1014"
     inkscape:window-x="0"
     inkscape:window-y="0"
     inkscape:window-maximized="1"
     inkscape:current-layer="layer1" />
  <defs
     id="defs1">
    <rect
       x="13.485725"
       y="-52.819092"
       width="225.2477"
       height="118.63495"
       id="rect1" />
    <rect
       x="37.795277"
       y="37.795277"
       width="483.77954"
       height="718.11023"
       id="rect2721" />
    <rect
       x="37.795277"
       y="37.795277"
       width="483.77954"
       height="718.11023"
       id="rect2722" />
    <rect
       x="37.795277"
       y="37.795277"
       width="483.77954"
       height="718.11023"
       id="rect2723" />
    <rect
       x="37.795277"
       y="37.795277"
       width="483.77954"
       height="718.11023"
       id="rect2724" />
    <rect
       x="37.795277"
       y="37.795277"
       width="483.77954"
       height="718.11023"
       id="rect2725" />
    <rect
       x="37.795277"
       y="37.795277"
       width="483.77954"
       height="718.11023"
       id="rect2726" />
    <rect
       x="37.795277"
       y="37.795277"
       width="483.77954"
       height="718.11023"
       id="rect2727" />
    <rect
       x="37.795277"
       y="37.795277"
       width="483.77954"
       height="718.11023"
       id="rect2728" />
    <rect
       x="37.795277"
       y="37.795277"
       width="483.77954"
       height="718.11023"
       id="rect2729" />
    <rect
       x="37.795277"
       y="37.795277"
       width="483.77954"
       height="718.11023"
       id="rect2730" />
    <rect
       x="37.795277"
       y="37.795277"
       width="483.77954"
       height="718.11023"
       id="rect2731" />
    <rect
       x="37.795277"
       y="37.795277"
       width="483.77954"
       height="718.11023"
       id="rect2732" />
    <rect
       x="37.795277"
       y="37.795277"
       width="483.77954"
       height="718.11023"
       id="rect2733" />
    <rect
       x="37.795277"
       y="37.795277"
       width="483.77954"
       height="718.11023"
       id="rect2734" />
  </defs>
  <g
     inkscape:label="Katman 1"
     inkscape:groupmode="layer"
     id="layer1">
    <g
       id="g1784"
       transform="matrix(0.58795683,0,0,0.58795683,-59.965042,-16.991457)">
      <path
         style="fill:#aa4400;fill-opacity:0.5;stroke:none;stroke-width:0.264583px;stroke-linecap:butt;stroke-linejoin:miter;stroke-opacity:1"
         d="m 102.58788,40.813132 -0.27358,-6.819217 0.52389,-4.580324 0.9312,-0.186028 0.2274,7.058376 -0.44403,4.447977 z"
         id="path1783" />
      <path
         style="fill:#aa4400;stroke-width:0.32002"
         d="m 102.06431,35.721723 c 0.0787,-5.631789 0.31866,-6.764789 1.4324,-6.764789 0.54792,0 0.62982,0.245082 0.66845,2.000138 0.0979,4.446961 0.0552,6.5681 -0.16752,8.320556 -0.22132,1.741565 -0.28139,1.840114 -1.12132,1.840114 h -0.88747 z m 1.31024,3.235875 c 0.43995,-2.741207 0.32754,-6.725356 -0.20475,-7.257451 -0.42668,-0.426527 -0.48002,0.03445 -0.48002,4.14888 0,4.716258 0.24687,5.837021 0.68477,3.108571 z m 0.11527,-8.739468 c 0,-0.362406 -0.13773,-0.573812 -0.30605,-0.469776 -0.16833,0.104018 -0.22492,0.400548 -0.12577,0.658926 0.25385,0.661517 0.43182,0.583561 0.43182,-0.18915 z"
         id="path1784"
         sodipodi:nodetypes="ssssscsssssssss" />
    </g>
    <g
       id="g1786"
       transform="matrix(0.58795683,0,0,0.58795683,-57.319261,-16.991457)">
      <path
         style="fill:#aa4400;fill-opacity:0.5;stroke:none;stroke-width:0.264583px;stroke-linecap:butt;stroke-linejoin:miter;stroke-opacity:1"
         d="m 102.58788,40.813132 -0.27358,-6.819217 0.52389,-4.580324 0.9312,-0.186028 0.2274,7.058376 -0.44403,4.447977 z"
         id="path1785" />
      <path
         style="fill:#aa4400;stroke-width:0.32002"
         d="m 102.06431,35.721723 c 0.0787,-5.631789 0.31866,-6.764789 1.4324,-6.764789 0.54792,0 0.62982,0.245082 0.66845,2.000138 0.0979,4.446961 0.0552,6.5681 -0.16752,8.320556 -0.22132,1.741565 -0.28139,1.840114 -1.12132,1.840114 h -0.88747 z m 1.31024,3.235875 c 0.43995,-2.741207 0.32754,-6.725356 -0.20475,-7.257451 -0.42668,-0.426527 -0.48002,0.03445 -0.48002,4.14888 0,4.716258 0.24687,5.837021 0.68477,3.108571 z m 0.11527,-8.739468 c 0,-0.362406 -0.13773,-0.573812 -0.30605,-0.469776 -0.16833,0.104018 -0.22492,0.400548 -0.12577,0.658926 0.25385,0.661517 0.43182,0.583561 0.43182,-0.18915 z"
         id="path1786"
         sodipodi:nodetypes="ssssscsssssssss" />
    </g>
    <g
       id="g1788"
       transform="matrix(0.58795683,0,0,0.58795683,-54.673581,-16.991457)">
      <path
         style="fill:#aa4400;fill-opacity:0.5;stroke:none;stroke-width:0.264583px;stroke-linecap:butt;stroke-linejoin:miter;stroke-opacity:1"
         d="m 102.58788,40.813132 -0.27358,-6.819217 0.52389,-4.580324 0.9312,-0.186028 0.2274,7.058376 -0.44403,4.447977 z"
         id="path1787" />
      <path
         style="fill:#aa4400;stroke-width:0.32002"
         d="m 102.06431,35.721723 c 0.0787,-5.631789 0.31866,-6.764789 1.4324,-6.764789 0.54792,0 0.62982,0.245082 0.66845,2.000138 0.0979,4.446961 0.0552,6.5681 -0.16752,8.320556 -0.22132,1.741565 -0.28139,1.840114 -1.12132,1.840114 h -0.88747 z m 1.31024,3.235875 c 0.43995,-2.741207 0.32754,-6.725356 -0.20475,-7.257451 -0.42668,-0.426527 -0.48002,0.03445 -0.48002,4.14888 0,4.716258 0.24687,5.837021 0.68477,3.108571 z m 0.11527,-8.739468 c 0,-0.362406 -0.13773,-0.573812 -0.30605,-0.469776 -0.16833,0.104018 -0.22492,0.400548 -0.12577,0.658926 0.25385,0.661517 0.43182,0.583561 0.43182,-0.18915 z"
         id="path1788"
         sodipodi:nodetypes="ssssscsssssssss" />
    </g>
    <g
       id="g1790"
       transform="matrix(0.58795683,0,0,0.58795683,-52.0279,-16.991457)">
      <path
         style="fill:#aa4400;fill-opacity:0.5;stroke:none;stroke-width:0.264583px;stroke-linecap:butt;stroke-linejoin:miter;stroke-opacity:1"
         d="m 102.58788,40.813132 -0.27358,-6.819217 0.52389,-4.580324 0.9312,-0.186028 0.2274,7.058376 -0.44403,4.447977 z"
         id="path1789" />
      <path
         style="fill:#aa4400;stroke-width:0.32002"
         d="m 102.06431,35.721723 c 0.0787,-5.631789 0.31866,-6.764789 1.4324,-6.764789 0.54792,0 0.62982,0.245082 0.66845,2.000138 0.0979,4.446961 0.0552,6.5681 -0.16752,8.320556 -0.22132,1.741565 -0.28139,1.840114 -1.12132,1.840114 h -0.88747 z m 1.31024,3.235875 c 0.43995,-2.741207 0.32754,-6.725356 -0.20475,-7.257451 -0.42668,-0.426527 -0.48002,0.03445 -0.48002,4.14888 0,4.716258 0.24687,5.837021 0.68477,3.108571 z m 0.11527,-8.739468 c 0,-0.362406 -0.13773,-0.573812 -0.30605,-0.469776 -0.16833,0.104018 -0.22492,0.400548 -0.12577,0.658926 0.25385,0.661517 0.43182,0.583561 0.43182,-0.18915 z"
         id="path1790"
         sodipodi:nodetypes="ssssscsssssssss" />
    </g>
    <g
       id="g1793"
       transform="matrix(0.58795683,0,0,0.58795683,-36.153615,-16.825306)">
      <path
         style="fill:#800066;fill-opacity:0.5;stroke:none;stroke-width:0.264583px;stroke-linecap:butt;stroke-linejoin:miter;stroke-opacity:1"
         d="m 80.075441,40.521913 3.091323,-0.10029 -1.529226,-2.145506 z"
         id="path1791" />
      <path
         style="fill:#800066;fill-opacity:0.5;stroke:none;stroke-width:0.264583px;stroke-linecap:butt;stroke-linejoin:miter;stroke-opacity:1"
         d="m 81.492851,31.923183 1.334011,-0.949182 -0.552485,-0.935736 0.26279,-1.051952 -1.651495,0.347877 -0.944033,1.121222 z"
         id="path1792" />
      <path
         style="fill:#800066;stroke-width:0.32002"
         d="m 79.737063,40.641482 c 0.006,-0.132003 0.211171,-0.600032 0.4554,-1.040059 0.385817,-0.695128 0.37782,-0.873508 -0.06096,-1.360089 -0.281529,-0.312221 -0.349796,-0.560042 -0.154263,-0.560042 0.192896,0 0.439736,0.144017 0.548509,0.32002 0.556094,0.899784 0.800056,0.02488 0.800056,-2.868929 0,-2.824167 -0.07076,-3.226804 -0.618371,-3.519898 -0.340097,-0.182011 -0.71701,-0.641749 -0.837588,-1.021638 -0.401782,-1.265894 2.025926,-2.411308 3.343091,-1.577289 0.36304,0.229865 0.324274,0.359713 -0.206358,0.691098 -0.650993,0.406546 -0.651053,0.409944 -0.01802,0.92255 0.626766,0.507518 0.624141,0.520489 -0.19367,0.958167 -0.805727,0.431215 -0.829035,0.532151 -0.829035,3.589822 0,2.854677 0.245788,3.722921 0.800056,2.826117 0.108736,-0.176003 0.355612,-0.32002 0.548508,-0.32002 0.195532,0 0.127268,0.247821 -0.154262,0.560042 -0.438757,0.486581 -0.446752,0.664961 -0.06095,1.360089 0.244228,0.440027 0.449158,0.908056 0.455399,1.040059 0.006,0.132012 -0.852718,0.240022 -1.908794,0.240022 -1.056064,0 -1.915024,-0.10801 -1.908783,-0.240022 z m 2.548829,-0.880054 c -0.219118,-0.264014 -0.535046,-0.480035 -0.702082,-0.480035 -0.167036,0 -0.519711,0.216021 -0.783728,0.480035 -0.426698,0.426703 -0.348684,0.480036 0.702084,0.480036 1.014492,0 1.125624,-0.06815 0.783726,-0.480036 z m -0.125935,-9.439897 c -0.03725,-1.049966 -0.393871,-1.193259 -1.307271,-0.525354 -0.518902,0.379415 -0.537056,0.501325 -0.141177,0.947879 0.771704,0.87049 1.486971,0.661841 1.448448,-0.422525 z"
         id="path1793"
         sodipodi:nodetypes="ssssssssssssssssscssssssssssss" />
    </g>
    <g
       id="g1796"
       transform="matrix(0.58795683,0,0,0.58795683,-32.978759,-16.825306)">
      <path
         style="fill:#800066;fill-opacity:0.5;stroke:none;stroke-width:0.264583px;stroke-linecap:butt;stroke-linejoin:miter;stroke-opacity:1"
         d="m 80.075441,40.521913 3.091323,-0.10029 -1.529226,-2.145506 z"
         id="path1794" />
      <path
         style="fill:#800066;fill-opacity:0.5;stroke:none;stroke-width:0.264583px;stroke-linecap:butt;stroke-linejoin:miter;stroke-opacity:1"
         d="m 81.492851,31.923183 1.334011,-0.949182 -0.552485,-0.935736 0.26279,-1.051952 -1.651495,0.347877 -0.944033,1.121222 z"
         id="path1795" />
      <path
         style="fill:#800066;stroke-width:0.32002"
         d="m 79.737063,40.641482 c 0.006,-0.132003 0.211171,-0.600032 0.4554,-1.040059 0.385817,-0.695128 0.37782,-0.873508 -0.06096,-1.360089 -0.281529,-0.312221 -0.349796,-0.560042 -0.154263,-0.560042 0.192896,0 0.439736,0.144017 0.548509,0.32002 0.556094,0.899784 0.800056,0.02488 0.800056,-2.868929 0,-2.824167 -0.07076,-3.226804 -0.618371,-3.519898 -0.340097,-0.182011 -0.71701,-0.641749 -0.837588,-1.021638 -0.401782,-1.265894 2.025926,-2.411308 3.343091,-1.577289 0.36304,0.229865 0.324274,0.359713 -0.206358,0.691098 -0.650993,0.406546 -0.651053,0.409944 -0.01802,0.92255 0.626766,0.507518 0.624141,0.520489 -0.19367,0.958167 -0.805727,0.431215 -0.829035,0.532151 -0.829035,3.589822 0,2.854677 0.245788,3.722921 0.800056,2.826117 0.108736,-0.176003 0.355612,-0.32002 0.548508,-0.32002 0.195532,0 0.127268,0.247821 -0.154262,0.560042 -0.438757,0.486581 -0.446752,0.664961 -0.06095,1.360089 0.244228,0.440027 0.449158,0.908056 0.455399,1.040059 0.006,0.132012 -0.852718,0.240022 -1.908794,0.240022 -1.056064,0 -1.915024,-0.10801 -1.908783,-0.240022 z m 2.548829,-0.880054 c -0.219118,-0.264014 -0.535046,-0.480035 -0.702082,-0.480035 -0.167036,0 -0.519711,0.216021 -0.783728,0.480035 -0.426698,0.426703 -0.348684,0.480036 0.702084,0.480036 1.014492,0 1.125624,-0.06815 0.783726,-0.480036 z m -0.125935,-9.439897 c -0.03725,-1.049966 -0.393871,-1.193259 -1.307271,-0.525354 -0.518902,0.379415 -0.537056,0.501325 -0.141177,0.947879 0.771704,0.87049 1.486971,0.661841 1.448448,-0.422525 z"
         id="path1796"
         sodipodi:nodetypes="ssssssssssssssssscssssssssssss" />
    </g>
    <path
       style="fill:#442178;stroke-width:0.258106"
       d="M 18.832205,6.5492109 C 18.663413,6.2298053 18.194634,5.5645252 17.790552,5.0708175 16.94699,4.040234 16.846094,3.0119804 17.527864,2.3949802 c 1.004254,-0.908769 2.2167,-0.2968367 2.063207,1.0413511 -0.067,0.5795138 -0.212891,0.7253972 -0.728368,0.7253972 -0.493577,0 -0.66537,-0.1516732 -0.730167,-0.6452709 -0.083,-0.6284217 -0.075,-0.6317815 0.305286,-0.1290442 0.45508,0.6021929 1.065653,0.2378893 0.792864,-0.4730486 -0.290786,-0.7578439 -1.658624,-0.3538841 -1.658624,0.4898378 0,0.1653726 0.464379,0.9842157 1.031953,1.819638 0.567475,0.8354223 1.032054,1.6060576 1.032354,1.7125228 0,0.4125413 -0.512377,0.1652325 -0.804164,-0.3871525 z"
       id="path1797"
       sodipodi:nodetypes="ssssssssssss" />
    <path
       style="fill:#006680;stroke-width:0.258106"
       d="m 21.1547,5.7985686 c 0,-1.4141263 0.522976,-2.1048451 1.593528,-2.1048451 0.974856,0 1.503833,0.7561359 1.503833,2.1496931 0,1.5646094 -0.46408,1.5696191 -0.566675,0.006 -0.148193,-2.260588 -1.815819,-2.260588 -1.964012,0 C 21.617179,7.4377449 21.1547,7.3961468 21.1547,5.7985187 Z"
       id="path1798"
       sodipodi:nodetypes="csssscc" />
    <path
       style="fill:#006680;stroke-width:0.258106"
       d="m 25.387809,5.7985686 c 0,-1.4141263 0.522976,-2.1048451 1.593528,-2.1048451 0.974857,0 1.503832,0.7561359 1.503832,2.1496931 0,1.5646094 -0.464079,1.5696191 -0.566675,0.006 -0.148192,-2.260588 -1.815817,-2.260588 -1.964011,0 -0.104194,1.5883284 -0.566674,1.5467303 -0.566674,-0.050898 z"
       id="path1799"
       sodipodi:nodetypes="csssscc" />
    <path
       style="fill:#006680;stroke-width:0.258106"
       d="m 29.620918,5.7985686 c 0,-1.4141263 0.522976,-2.1048451 1.593528,-2.1048451 0.974857,0 1.503832,0.7561359 1.503832,2.1496931 0,1.5646094 -0.464079,1.5696191 -0.566674,0.006 -0.148194,-2.260588 -1.815818,-2.260588 -1.964012,0 -0.104195,1.5883284 -0.566674,1.5467303 -0.566674,-0.050898 z"
       id="path1800"
       sodipodi:nodetypes="csssscc" />
    <path
       style="fill:#006680;stroke-width:0.258106"
       d="m 33.854027,5.7985686 c 0,-1.4141263 0.522977,-2.1048451 1.593528,-2.1048451 0.974856,0 1.503832,0.7561359 1.503832,2.1496931 0,1.5646094 -0.464079,1.5696191 -0.566674,0.006 -0.148194,-2.260588 -1.815818,-2.260588 -1.964011,0 -0.104196,1.5883284 -0.566675,1.5467303 -0.566675,-0.050898 z"
       id="path1801"
       sodipodi:nodetypes="csssscc" />
    <path
       style="fill:#006680;stroke-width:0.258106"
       d="m 38.087136,5.7985686 c 0,-1.4141263 0.522977,-2.1048451 1.593528,-2.1048451 0.974856,0 1.503833,0.7561359 1.503833,2.1496931 0,1.5646094 -0.464079,1.5696191 -0.566675,0.006 -0.148193,-2.260588 -1.815818,-2.260588 -1.964011,0 -0.104196,1.5883284 -0.566675,1.5467303 -0.566675,-0.050898 z"
       id="path1802"
       sodipodi:nodetypes="csssscc" />
  </g>
</svg>
