<?xml version="1.0" encoding="UTF-8" standalone="no"?>
<!-- Created with Inkscape (http://www.inkscape.org/) -->

<svg
   width="26.858999mm"
   height="16.153999mm"
   viewBox="0 0 26.858999 16.153999"
   version="1.1"
   id="svg1"
   inkscape:version="1.4.2 (ebf0e940d0, 2025-05-08)"
   sodipodi:docname="5_1_1_67.svg"
   xmlns:inkscape="http://www.inkscape.org/namespaces/inkscape"
   xmlns:sodipodi="http://sodipodi.sourceforge.net/DTD/sodipodi-0.dtd"
   xmlns="http://www.w3.org/2000/svg"
   xmlns:svg="http://www.w3.org/2000/svg">
  <sodipodi:namedview
     id="namedview1"
     pagecolor="#ffffff"
     bordercolor="#000000"
     borderopacity="0.25"
     inkscape:showpageshadow="2"
     inkscape:pageopacity="0.0"
     inkscape:pagecheckerboard="0"
     inkscape:deskcolor="#d1d1d1"
     inkscape:document-units="mm"
     inkscape:zoom="2.6972018"
     inkscape:cx="64.696679"
     inkscape:cy="88.981106"
     inkscape:window-width="1075"
     inkscape:window-height="991"
     inkscape:window-x="26"
     inkscape:window-y="23"
     inkscape:window-maximized="0"
     inkscape:current-layer="layer1" />
  <defs
     id="defs1">
    <rect
       x="-26.458582"
       y="130.73653"
       width="155.86105"
       height="46.469273"
       id="rect2" />
    <rect
       x="13.485725"
       y="-52.819092"
       width="225.2477"
       height="118.63495"
       id="rect1" />
    <rect
       x="37.795277"
       y="37.795277"
       width="483.77954"
       height="718.11023"
       id="rect2721" />
    <rect
       x="37.795277"
       y="37.795277"
       width="483.77954"
       height="718.11023"
       id="rect2722" />
    <rect
       x="37.795277"
       y="37.795277"
       width="483.77954"
       height="718.11023"
       id="rect2723" />
    <rect
       x="37.795277"
       y="37.795277"
       width="483.77954"
       height="718.11023"
       id="rect2724" />
    <rect
       x="37.795277"
       y="37.795277"
       width="483.77954"
       height="718.11023"
       id="rect2725" />
    <rect
       x="37.795277"
       y="37.795277"
       width="483.77954"
       height="718.11023"
       id="rect2726" />
    <rect
       x="37.795277"
       y="37.795277"
       width="483.77954"
       height="718.11023"
       id="rect2727" />
    <rect
       x="37.795277"
       y="37.795277"
       width="483.77954"
       height="718.11023"
       id="rect2728" />
    <rect
       x="37.795277"
       y="37.795277"
       width="483.77954"
       height="718.11023"
       id="rect2729" />
    <rect
       x="37.795277"
       y="37.795277"
       width="483.77954"
       height="718.11023"
       id="rect2730" />
    <rect
       x="37.795277"
       y="37.795277"
       width="483.77954"
       height="718.11023"
       id="rect2731" />
    <rect
       x="37.795277"
       y="37.795277"
       width="483.77954"
       height="718.11023"
       id="rect2732" />
    <rect
       x="37.795277"
       y="37.795277"
       width="483.77954"
       height="718.11023"
       id="rect2733" />
    <rect
       x="37.795277"
       y="37.795277"
       width="483.77954"
       height="718.11023"
       id="rect2734" />
    <rect
       x="37.795277"
       y="37.795277"
       width="483.77954"
       height="718.11023"
       id="rect6439" />
    <rect
       x="37.795277"
       y="37.795277"
       width="483.77954"
       height="718.11023"
       id="rect6440" />
    <rect
       x="37.795277"
       y="37.795277"
       width="483.77954"
       height="718.11023"
       id="rect6441" />
    <rect
       x="37.795277"
       y="37.795277"
       width="483.77954"
       height="718.11023"
       id="rect6442" />
    <rect
       x="37.795277"
       y="37.795277"
       width="483.77954"
       height="718.11023"
       id="rect2743" />
    <rect
       x="37.795277"
       y="37.795277"
       width="483.77954"
       height="718.11023"
       id="rect2744" />
    <rect
       x="37.795277"
       y="37.795277"
       width="483.77954"
       height="718.11023"
       id="rect2745" />
    <rect
       x="37.795277"
       y="37.795277"
       width="483.77954"
       height="718.11023"
       id="rect6403" />
    <rect
       x="37.795277"
       y="37.795277"
       width="483.77954"
       height="718.11023"
       id="rect6443" />
    <rect
       x="37.795277"
       y="37.795277"
       width="483.77954"
       height="718.11023"
       id="rect6444" />
    <rect
       x="37.795277"
       y="37.795277"
       width="483.77954"
       height="718.11023"
       id="rect6445" />
    <rect
       x="37.795277"
       y="37.795277"
       width="483.77954"
       height="718.11023"
       id="rect6446" />
    <rect
       x="37.795277"
       y="37.795277"
       width="483.77954"
       height="718.11023"
       id="rect6469" />
    <rect
       x="37.795277"
       y="37.795277"
       width="483.77954"
       height="718.11023"
       id="rect6470" />
    <rect
       x="37.795277"
       y="37.795277"
       width="483.77954"
       height="718.11023"
       id="rect6471" />
    <rect
       x="37.795277"
       y="37.795277"
       width="483.77954"
       height="718.11023"
       id="rect6472" />
    <rect
       x="-26.458582"
       y="130.73653"
       width="155.86105"
       height="46.469273"
       id="rect30" />
    <rect
       x="-26.458582"
       y="130.73653"
       width="155.86105"
       height="46.469273"
       id="rect31" />
    <rect
       x="-26.458582"
       y="130.73653"
       width="155.86105"
       height="46.469273"
       id="rect32" />
    <rect
       x="-26.458582"
       y="130.73653"
       width="155.86105"
       height="46.469273"
       id="rect33" />
    <rect
       x="-26.458582"
       y="130.73653"
       width="155.86105"
       height="46.469273"
       id="rect34" />
    <rect
       x="-26.458582"
       y="130.73653"
       width="155.86105"
       height="46.469273"
       id="rect35" />
    <rect
       x="-26.458582"
       y="130.73653"
       width="155.86105"
       height="46.469273"
       id="rect38" />
    <rect
       x="-26.458582"
       y="130.73653"
       width="155.86105"
       height="46.469273"
       id="rect39" />
    <rect
       x="-26.458582"
       y="130.73653"
       width="155.86105"
       height="46.469273"
       id="rect40" />
    <rect
       x="-26.458582"
       y="130.73653"
       width="155.86105"
       height="46.469273"
       id="rect42" />
    <rect
       x="-26.458582"
       y="130.73653"
       width="155.86105"
       height="46.469273"
       id="rect43" />
    <rect
       x="-26.458582"
       y="130.73653"
       width="155.86105"
       height="46.469273"
       id="rect44" />
    <rect
       x="-26.458582"
       y="130.73653"
       width="155.86105"
       height="46.469273"
       id="rect46" />
    <rect
       x="-26.458582"
       y="130.73653"
       width="155.86105"
       height="46.469273"
       id="rect47" />
    <rect
       x="-26.458582"
       y="130.73653"
       width="155.86105"
       height="46.469273"
       id="rect48" />
  </defs>
  <g
     inkscape:label="Katman 1"
     inkscape:groupmode="layer"
     id="layer1">
    <g
       id="g12"
       transform="translate(-1486.6706,-143.93369)">
      <path
         style="fill:#ffe6d5;fill-opacity:1;stroke-width:0.264999"
         d="m 1495.8435,148.61354 0.3251,-0.70728 0.1704,-0.67755 -0.044,-0.36903 -0.8275,-0.30064 -0.3868,0.74053 -0.7731,0.688 -0.4875,-0.56388 -0.252,-0.73706 0.2105,-1.14151 0.7129,-0.70002 1.0359,-0.20161 0.9665,0.27227 0.8274,0.59191 0.3844,0.78025 0.044,1.04765 -0.5505,0.91349 -0.5029,0.33855 -0.6153,0.0776 z"
         id="path74" />
      <path
         style="fill:#cccccc;stroke-width:0.264999"
         d="m 1499.3047,157.51098 3.3159,-0.44944 0.1654,-0.15407 -0.3788,-0.76823 2.1309,-0.0634 1.5275,-0.10141 0.041,-1.03022 -2.6548,-0.23529 -0.846,-0.10415 0.098,-0.40239 4.2835,-1.08887 1.8021,-0.53584 0.4446,-0.40769 -0.1778,-0.70421 -0.4032,0.0212 -0.1356,-0.24908 -3.1378,0.77262 -3.193,0.89195 -1.1864,0.5754 -0.6833,2.11027 -0.4331,-0.17539 -0.4169,0.0448 -0.353,0.37343 -0.1748,0.75321 0.077,0.45223 z"
         id="path73" />
      <path
         style="fill:#87cdde;stroke-width:0.264999"
         d="m 1486.7833,152.14456 0.7551,-0.0165 1.4697,0.70917 1.4677,0.63908 1.3742,0.10396 0.9664,0.48255 2.2576,2.01114 0.3341,1.90062 v 0.46121 l 1.752,-0.0569 1.5588,-0.44569 0.715,-0.23398 -0.404,-0.58885 -0.09,-0.5262 0.1188,-0.50796 0.056,-0.24525 0.4077,-0.43127 0.535,0.0192 0.2603,0.16919 0.4025,-1.243 0.3558,-1.0989 1.9089,-0.84695 3.327,-1.08548 1.5127,-0.59885 0.4319,-0.47631 -0.432,-0.17673 -1.7205,-0.28271 -1.9799,0.085 -0.7383,0.17236 -0.6213,0.35528 -0.4261,0.45016 -0.8928,0.40023 -0.7723,0.10928 -1.2609,-0.22616 -1.3247,-1.18449 -1.0735,-0.58783 -1.3068,-0.27834 -1.6757,0.0591 -1.4257,0.39563 -0.5501,0.27554 -0.7231,-0.88501 -0.2656,-1.12873 -0.9813,0.48151 -1.8672,0.58358 -0.6989,0.5322 -0.2812,0.3733 1.1093,0.62995 -0.942,0.73657 -0.6086,0.73954 z"
         id="path71" />
      <path
         style="fill:#cccccc;stroke-width:0.264999"
         d="m 1490.5646,153.48302 -0.3297,1.86894 0.5313,0.34751 0.529,0.0592 0.3758,-2.19193 z"
         id="path72" />
      <path
         style="fill:#deaa87;fill-opacity:1;stroke-width:0.264999"
         d="m 1491.4022,149.00482 0.1986,0.3226 0.3555,-0.2494 0.4008,0.11665 0.3412,-0.0501 0.258,-0.31315 -0.1378,-0.4897 -0.327,-0.18475 -0.3884,0.0435 -0.2706,0.33695 -0.04,0.18612 z"
         id="path75" />
      <path
         id="path2078"
         style="fill:#000000;stroke-width:0.0780813"
         d="m 1499.0706,143.93369 c -0.2543,-2e-5 -0.3377,0.0268 -0.155,0.0498 0.2279,0.0287 1.3215,0.0948 1.8955,0.11468 0.3409,0.0118 0.8987,0.0318 1.2396,0.0447 0.3409,0.0127 0.8894,0.0297 1.2189,0.0377 0.9327,0.0227 1.0846,0.0231 1.0846,0.003 0,-0.0261 -0.1392,-0.0397 -0.5475,-0.0538 -0.1931,-0.006 -0.4023,-0.016 -0.4648,-0.0206 -0.4725,-0.0354 -1.4618,-0.079 -2.5824,-0.11368 -0.3806,-0.0118 -0.8594,-0.0305 -1.064,-0.0416 -0.2045,-0.0111 -0.4857,-0.0201 -0.6249,-0.0201 z m -2.164,0.50917 c -0.5395,0.001 -0.6149,0.006 -0.7579,0.0445 -0.087,0.0237 -0.192,0.0601 -0.2326,0.0809 -0.064,0.033 -0.101,0.0359 -0.2854,0.0221 -0.2834,-0.0211 -0.6731,0.01 -0.8425,0.0664 -0.4995,0.16771 -0.9262,0.56259 -1.1448,1.05931 -0.044,0.10124 -0.048,0.12123 -0.022,0.13134 0.072,0.0274 0.124,-0.0123 0.1849,-0.13986 0.1744,-0.36524 0.3975,-0.58971 0.7745,-0.77919 0.3133,-0.1575 0.4189,-0.17693 0.8896,-0.16386 0.3265,0.009 0.3504,0.0127 0.5681,0.0862 0.2576,0.087 0.4769,0.20087 0.7892,0.40975 0.2522,0.16862 0.4563,0.36505 0.5933,0.57111 0.097,0.14558 0.099,0.14724 0.1892,0.14724 0.05,0 0.091,-0.004 0.091,-0.0101 0,-0.0273 -0.1866,-0.31647 -0.2737,-0.42412 -0.1255,-0.15504 -0.3465,-0.34184 -0.5799,-0.49017 -0.148,-0.0938 -0.1757,-0.11938 -0.148,-0.13489 0.019,-0.0106 0.1868,-0.0152 0.3785,-0.0103 0.2961,0.008 0.4048,0.0208 0.778,0.0938 0.4819,0.0943 0.7515,0.12593 1.1053,0.1296 0.2928,0.003 0.2892,0.004 0.2892,-0.0204 0,-0.0107 -0.044,-0.0253 -0.098,-0.0325 -0.229,-0.0306 -0.8898,-0.14041 -1.2344,-0.20522 -0.2045,-0.0385 -0.4636,-0.0813 -0.5756,-0.0952 -0.2481,-0.0307 -0.5855,-0.0151 -0.7244,0.0337 -0.079,0.0277 -0.1136,0.0307 -0.1549,0.0134 -0.03,-0.0122 -0.131,-0.0542 -0.2262,-0.0932 l -0.173,-0.071 0.07,-0.0243 c 0.2198,-0.0767 1.1155,-0.0778 1.6398,-0.002 0.4058,0.0586 0.8529,0.0879 1.0897,0.0715 0.2852,-0.0198 0.2673,-0.0517 -0.046,-0.0825 -0.074,-0.007 -0.3993,-0.0516 -0.7231,-0.0985 -0.5866,-0.085 -0.591,-0.0853 -1.1879,-0.0838 z m 6.2155,0.76019 c -1.5805,-0.006 -3.1876,-0.008 -3.3239,7e-4 -0.3124,0.0216 -0.2261,0.0475 0.2356,0.0708 0.4154,0.021 5.7463,0.008 6.0764,-0.0143 0.1235,-0.009 0.1992,-0.0211 0.1756,-0.0291 -0.03,-0.0102 -1.5833,-0.0217 -3.1637,-0.0283 z m -8.2596,0.67259 c -0.01,0 -0.015,0.009 -0.022,0.0206 -0.01,0.0113 0,0.0206 0.01,0.0206 0.012,0 0.022,-0.009 0.022,-0.0206 0,-0.0113 -0.01,-0.0206 -0.01,-0.0206 z m -1.3733,0.0568 c -0.3774,-0.001 -0.6228,0.004 -0.6255,0.0156 -0.01,0.024 0.1329,0.0437 0.4385,0.0623 l 0.2176,0.0133 -0.01,0.39667 c -0.01,0.43108 -0.01,0.42916 0.1084,0.4587 l 0.06,0.0151 -0.013,-0.10632 c -0.012,-0.10254 -0.011,-0.10636 0.038,-0.10636 0.04,0 0.051,0.0107 0.051,0.0503 0,0.0845 0.037,0.15259 0.087,0.1622 0.026,0.005 0.1009,0.0104 0.1659,0.0119 0.1054,0.003 0.1221,-0.003 0.1526,-0.0495 0.05,-0.0758 0.044,-0.19758 -0.013,-0.27498 -0.026,-0.0356 -0.044,-0.0683 -0.039,-0.0726 0.01,-0.004 0.088,-0.0564 0.1845,-0.11576 0.1992,-0.12242 0.3496,-0.2312 0.3506,-0.25352 3e-4,-0.008 -0.022,-0.0207 -0.049,-0.0276 -0.063,-0.0158 -0.171,0.0317 -0.4601,0.20227 -0.1983,0.11701 -0.441,0.24327 -0.4677,0.24327 -0.027,0 -0.032,-0.11828 -0.01,-0.3167 l 0.024,-0.22379 0.1875,0.0117 c 0.1031,0.006 0.564,0.0164 1.0243,0.0223 2.2535,0.0285 2.6575,0.0354 2.6932,0.0455 0.026,0.007 0.036,0.002 0.03,-0.0171 -0.01,-0.0184 -0.062,-0.0328 -0.1626,-0.042 -0.5124,-0.0469 -2.8313,-0.10129 -3.9632,-0.10483 z m -0.8038,0.0213 c -0.062,-0.062 -1.2611,0.49676 -2.0592,0.95963 -0.9875,0.57279 -2.0457,1.35089 -2.7373,2.01297 -0.285,0.27289 -0.7231,0.77654 -0.7231,0.83141 0,0.12148 0.5012,0.46102 0.8734,0.59168 0.088,0.031 0.1645,0.0626 0.1693,0.0702 0.01,0.008 -0.1187,0.0984 -0.2743,0.20174 -0.3239,0.21511 -0.6088,0.46068 -0.8504,0.73332 -0.3441,0.38811 -0.4726,0.65537 -0.388,0.8068 0.065,0.11779 0.067,0.11814 0.2173,0.0656 0.1625,-0.0568 0.3518,-0.0792 0.4765,-0.0564 l 0.09,0.0163 v 0.39252 c 0,0.55835 0.034,0.79721 0.2258,1.45647 0.1677,0.57615 0.2898,0.91385 0.4642,1.28349 0.098,0.20876 0.1894,0.39816 0.2022,0.42088 0.013,0.0228 0.1044,0.18709 0.2038,0.36525 0.3199,0.57408 0.6772,1.10902 0.9759,1.46122 0.1876,0.22114 0.7612,0.79468 0.952,0.95194 0.2421,0.19956 0.8986,0.67356 1.086,0.78407 0.097,0.057 0.1895,0.11256 0.2066,0.12351 0.02,0.013 -0.1829,0.0204 -0.5888,0.0214 -0.6068,10e-4 -0.7101,0.0118 -0.6568,0.0651 0.018,0.0175 0.2445,0.0299 0.7849,0.0428 0.66,0.0157 0.7821,0.0237 0.9255,0.0604 0.1946,0.0499 0.2615,0.056 0.9813,0.09 v 0 c 0.7037,0.0333 1.3428,0.0386 1.3428,0.0112 0,-0.0113 0.046,-0.0206 0.1021,-0.0206 0.056,0 0.1069,-0.008 0.1127,-0.0171 0.01,-0.009 -0.1354,-0.0298 -0.3138,-0.0452 -0.3964,-0.0342 -0.3759,-0.041 0.3469,-0.11322 0.8517,-0.0851 1.3185,-0.14636 1.7524,-0.22991 0.026,-0.005 0.044,-0.0205 0.039,-0.0343 -0.011,-0.0325 -0.1987,-0.0258 -0.7895,0.0281 -0.645,0.0588 -1.6808,0.16089 -1.7663,0.17412 -0.047,0.007 -0.062,0.005 -0.042,-0.007 0.017,-0.0101 0.124,-0.0297 0.2376,-0.0433 0.1136,-0.0137 0.4808,-0.0699 0.816,-0.12501 0.3352,-0.0551 0.6652,-0.10779 0.7334,-0.11717 0.2091,-0.0288 0.1341,-0.0586 -0.1398,-0.0556 -0.2591,0.003 -0.7398,0.058 -1.1418,0.13106 -0.2859,0.052 -0.2771,0.0529 -0.1867,-0.019 0.087,-0.0692 0.1474,-0.0837 0.6395,-0.15466 0.3415,-0.0492 0.4035,-0.068 0.3754,-0.1133 -0.019,-0.0302 -0.1775,-0.0273 -0.4763,0.009 -0.1364,0.0165 -0.2599,0.0301 -0.2747,0.0303 -0.016,2.6e-4 0,-0.0363 0.037,-0.0931 0.1996,-0.29007 0.335,-0.86007 0.2994,-1.2596 -0.049,-0.55285 -0.3744,-1.4689 -0.7581,-2.13632 -0.055,-0.0955 -0.097,-0.17622 -0.094,-0.17927 0.01,-0.008 0.2913,0.24479 0.6065,0.54093 l 0.2707,0.25444 0.065,0.22297 c 0.1135,0.39145 0.1573,0.65865 0.2299,1.40054 0.023,0.23861 0.051,0.47103 0.063,0.51648 0.011,0.0454 0.021,0.11659 0.021,0.15809 4e-4,0.0659 0.01,0.0783 0.065,0.0981 0.092,0.0322 0.7928,0.0278 1.1538,-0.007 1.0316,-0.10015 2.0993,-0.37704 2.7342,-0.70906 0.1535,-0.0803 0.173,-0.10362 0.1389,-0.16713 -0.013,-0.0232 -0.014,-0.0467 -0.01,-0.053 0.032,-0.0199 0.7203,-0.11059 1.2626,-0.16636 1.2387,-0.12737 1.339,-0.14134 1.7045,-0.23782 0.3551,-0.0937 0.4648,-0.14901 0.4648,-0.23411 0,-0.0228 -0.042,-0.10859 -0.093,-0.19057 -0.1009,-0.16192 -0.2052,-0.37874 -0.2256,-0.46903 l -0.013,-0.0568 0.3051,3.7e-4 0.3051,4e-4 0.1343,0.25239 c 0.074,0.13881 0.2045,0.36469 0.2903,0.50195 0.168,0.2688 0.5991,0.89902 0.667,0.97505 0.041,0.0456 0.05,0.0465 0.5119,0.0465 0.2586,0 0.4749,-0.007 0.4806,-0.0165 0.01,-0.009 -0.061,-0.096 -0.1487,-0.19319 -0.1519,-0.16907 -0.2077,-0.24166 -0.4897,-0.63733 -0.1705,-0.23909 -0.3861,-0.58538 -0.4643,-0.74566 -0.035,-0.0728 -0.074,-0.14953 -0.085,-0.17052 -0.011,-0.021 -0.018,-0.0406 -0.014,-0.0437 0.01,-0.003 0.088,-0.0104 0.1872,-0.0163 l 0.1805,-0.0108 -0.013,0.0494 c -0.017,0.0672 0.022,0.0635 0.1347,-0.013 0.1243,-0.0842 0.2512,-0.0862 0.3163,-0.005 0.1054,0.13177 0.4111,0.41316 0.5187,0.47734 0.154,0.0919 0.3371,0.16445 0.4835,0.19162 0.1509,0.028 0.3801,0.006 0.5016,-0.0466 0.3496,-0.15355 0.467,-0.63747 0.287,-1.18389 -0.049,-0.1492 -0.208,-0.46999 -0.2796,-0.56433 -0.048,-0.0631 -0.058,-0.0671 -0.179,-0.0668 -0.1803,4.5e-4 -0.1877,0.008 -0.1493,0.15543 0.067,0.25813 0.027,0.70076 -0.069,0.752 -0.019,0.0103 -0.3133,0.0332 -0.6538,0.0511 -0.3405,0.0179 -0.8655,0.0473 -1.1666,0.0651 -0.617,0.0368 -1.021,0.0421 -2.6081,0.0347 l -1.1105,-0.005 v -0.15357 c 0,-0.0845 -0.01,-0.17789 -0.02,-0.20756 -0.015,-0.0399 -0.013,-0.0658 0.01,-0.0995 0.03,-0.047 0.2429,-0.67619 0.2693,-0.79655 l 0.015,-0.0677 -0.079,0.006 c -0.061,0.005 -0.081,0.0164 -0.086,0.0478 -0.016,0.0913 -0.1742,0.52007 -0.2113,0.57216 -0.022,0.0306 -0.034,0.0702 -0.027,0.0878 0.019,0.0492 -0.014,0.0388 -0.1236,-0.0392 -0.122,-0.0868 -0.2639,-0.12096 -0.4625,-0.11144 -0.082,0.004 -0.1498,0.001 -0.1498,-0.005 10e-5,-0.007 0.03,-0.0526 0.065,-0.10185 0.09,-0.12435 0.1876,-0.33949 0.1795,-0.39623 -0.01,-0.0332 -0.023,-0.0492 -0.06,-0.0535 -0.048,-0.006 -0.062,0.0116 -0.142,0.17363 -0.073,0.14777 -0.1244,0.21529 -0.2879,0.37932 -0.306,0.30707 -0.603,0.49557 -0.8321,0.52822 -0.081,0.0116 -0.1028,0.007 -0.1397,-0.03 -0.052,-0.0524 -0.045,-0.10091 0.041,-0.28216 0.1083,-0.22761 0.5033,-0.62558 0.7218,-0.72714 l 0.1136,-0.0528 -0.1311,-0.0193 c -0.1304,-0.0192 -0.1317,-0.0189 -0.2419,0.0571 -0.1876,0.12923 -0.5314,0.50189 -0.6097,0.66101 -0.083,0.16881 -0.1054,0.35271 -0.053,0.43343 0.052,0.0788 0.1482,0.11879 0.2823,0.1169 0.1847,-0.003 0.4288,-0.1154 0.6808,-0.31465 0.1427,-0.11275 0.1293,-0.0587 -0.023,0.0932 l -0.1262,0.12581 -0.074,0.41544 -0.074,0.41545 0.036,0.12169 c 0.063,0.2117 0.098,0.30261 0.1933,0.49634 0.1022,0.20818 0.1654,0.28794 0.2594,0.32748 0.059,0.0247 0.06,0.0275 0.021,0.0482 -0.023,0.0121 -0.1729,0.0549 -0.334,0.0951 -0.1612,0.0402 -0.4068,0.10515 -0.5459,0.14429 -1.0253,0.28854 -1.6849,0.39827 -2.5174,0.41887 l -0.5085,0.0126 0.01,-0.24779 c 0.03,-0.7169 -0.1583,-1.80852 -0.3666,-2.13082 -0.073,-0.11347 -0.2067,-0.2424 -0.8897,-0.86038 -0.8359,-0.75645 -2.1107,-2.0886 -2.9356,-3.06783 -0.3119,-0.37025 -0.7505,-0.83839 -0.9224,-0.98441 -0.293,-0.24907 -0.8733,-0.58683 -1.1813,-0.68752 -0.073,-0.024 -0.2579,-0.0575 -0.4099,-0.0743 -0.152,-0.0168 -0.3381,-0.0449 -0.4136,-0.0625 -0.1602,-0.0372 -0.4285,-0.14892 -0.6336,-0.26393 -0.1499,-0.084 -0.3616,-0.23625 -0.3616,-0.26002 0,-0.0373 0.4457,-0.50261 0.5799,-0.60532 0.256,-0.19609 0.4725,-0.28309 1.2691,-0.51007 0.7043,-0.20066 1.0525,-0.33241 1.6452,-0.62247 l 0.2141,-0.10479 0.013,0.29536 c 0.013,0.32231 0.019,0.34741 0.128,0.57478 0.3073,0.64237 0.8299,1.19 1.4192,1.48705 0.2446,0.12332 1.0956,0.38253 1.9316,0.5883 0.2045,0.0504 0.6554,0.1612 1.002,0.24638 0.8785,0.21593 1.4536,0.41793 2.0697,0.72694 0.2273,0.11396 0.2291,0.11442 0.3293,0.0904 0.056,-0.0133 0.1007,-0.0357 0.1007,-0.0499 0,-0.0574 -0.6897,-0.3919 -1.2156,-0.58956 -0.3099,-0.11647 -0.6857,-0.22636 -1.2015,-0.35128 -1.9902,-0.48198 -2.5649,-0.64512 -2.9852,-0.84751 -0.222,-0.10688 -0.4519,-0.26002 -0.4339,-0.28906 0.024,-0.0393 1.0734,-0.41322 1.1594,-0.41322 0.053,0 0.046,-0.036 -0.016,-0.0816 l -0.063,-0.0469 -0.2818,0.0924 c -0.155,0.0509 -0.4297,0.1515 -0.6104,0.22366 l -0.3286,0.13122 -0.1616,-0.17491 c -0.089,-0.0962 -0.1587,-0.18418 -0.1552,-0.19554 0,-0.0113 0.027,-0.031 0.052,-0.0436 0.025,-0.0126 0.067,-0.0428 0.093,-0.0671 0.06,-0.0563 0.07,-0.0557 0.2017,0.0126 0.088,0.0457 0.1433,0.0583 0.2825,0.0642 0.2153,0.009 0.3301,-0.0216 0.4436,-0.11887 0.1604,-0.13742 0.1482,-0.1329 0.2362,-0.088 0.044,0.0223 0.3117,0.18384 0.5955,0.35899 0.8275,0.51065 0.8865,0.54443 1.6523,0.94576 0.1023,0.0536 0.3632,0.1917 0.5799,0.30694 0.2168,0.11524 0.4048,0.20953 0.4179,0.20953 0.013,0 0.037,-0.0266 0.054,-0.0592 0.017,-0.0326 0.1529,-0.19293 0.3024,-0.35637 0.3437,-0.37594 0.5834,-0.67472 0.9179,-1.1442 0.2767,-0.38834 0.4832,-0.66468 0.6789,-0.90895 0.115,-0.14355 0.1154,-0.14471 0.065,-0.15834 -0.079,-0.021 -0.1392,0.006 -0.2198,0.0963 -0.092,0.10377 -0.4941,0.641 -0.8022,1.07257 -0.1292,0.18087 -0.2899,0.39469 -0.3571,0.47517 -0.1939,0.23174 -0.657,0.73699 -0.6858,0.74804 -0.014,0.006 -0.067,-0.0173 -0.1167,-0.0506 -0.1066,-0.0714 -0.5142,-0.29166 -0.9067,-0.49005 -0.3397,-0.17176 -0.7941,-0.43055 -1.3841,-0.78831 -0.2443,-0.14814 -0.5255,-0.31322 -0.6249,-0.36687 -0.1622,-0.0875 -0.1808,-0.10359 -0.1808,-0.15655 v -0.059 l 0.1084,0.0322 c 0.1186,0.0352 0.533,0.18178 0.7256,0.25663 0.1334,0.0518 0.1264,0.063 -0.057,0.09 l -0.1011,0.0149 0.06,0.0603 0.061,0.0603 0.2372,-0.0307 c 0.1304,-0.0169 0.3766,-0.04 0.5469,-0.0513 0.9206,-0.0614 1.6104,0.017 2.3709,0.26966 0.1755,0.0583 0.1881,0.0598 0.2246,0.0268 0.071,-0.0639 0.044,-0.0957 -0.1215,-0.1422 -0.025,-0.007 -0.046,-0.0254 -0.046,-0.0403 0,-0.015 0.2278,-0.25082 0.5061,-0.52402 0.2784,-0.27321 0.5062,-0.50203 0.5062,-0.50849 0,-0.006 -0.04,-0.0118 -0.089,-0.0118 -0.088,0 -0.091,0.002 -0.5874,0.50002 l -0.4988,0.49998 -0.2751,-0.0657 c -0.5667,-0.13536 -0.7098,-0.15096 -1.3931,-0.15179 -0.3422,-4.2e-4 -0.6964,0.006 -0.7871,0.0137 -0.1594,0.0139 -0.17,0.012 -0.3177,-0.0578 -0.2455,-0.11592 -0.7419,-0.287 -0.9669,-0.33321 -0.107,-0.022 -0.1124,-0.0263 -0.137,-0.10996 -0.058,-0.19729 -0.1798,-0.3445 -0.3506,-0.42315 -0.085,-0.0391 -0.1383,-0.0476 -0.2995,-0.0476 -0.178,0 -0.2055,0.006 -0.2951,0.0582 -0.099,0.0582 -0.234,0.21556 -0.2513,0.29305 -0.01,0.0228 -0.015,0.0839 -0.021,0.13599 -0.011,0.0808 -0.022,0.0993 -0.078,0.12666 -0.037,0.0176 -0.111,0.0714 -0.1655,0.11963 -0.054,0.0482 -0.1022,0.0842 -0.106,0.0799 -0.01,-0.004 -0.034,-0.0635 -0.068,-0.13167 -0.1081,-0.21773 -0.1497,-0.37009 -0.1623,-0.59472 l -0.012,-0.21098 0.1152,-0.12714 c 0.063,-0.0699 0.2245,-0.21538 0.3581,-0.32317 0.4994,-0.40302 0.8785,-0.86066 1.0005,-1.20778 0.044,-0.12351 0.054,-0.3063 0.02,-0.34015 z m -0.1589,0.16991 c 0.044,0 -0.042,0.19469 -0.1787,0.40003 -0.1831,0.27599 -0.5324,0.65767 -0.7471,0.81627 -0.061,0.0452 -0.1626,0.12705 -0.2254,0.18186 -0.1734,0.15141 -0.8779,0.50291 -1.424,0.71048 -0.144,0.0547 -0.4229,0.14715 -0.6198,0.20541 -0.1969,0.0583 -0.4901,0.14729 -0.6516,0.19784 -0.1616,0.0506 -0.3103,0.0979 -0.3306,0.10535 -0.07,0.0254 0.034,-0.0714 0.3453,-0.32239 0.9725,-0.78421 1.8628,-1.33677 3.238,-2.0095 0.3207,-0.15693 0.588,-0.28535 0.5939,-0.28535 z m 5.1806,0.0866 c -0.049,-0.004 -0.088,0.003 -0.088,0.0142 0,0.0113 0.013,0.0792 0.03,0.15095 0.016,0.0717 0.037,0.23547 0.044,0.36387 l 0.015,0.23346 0.085,-0.006 0.085,-0.006 -0.01,-0.23521 c -0.01,-0.12937 -0.023,-0.2967 -0.042,-0.37186 l -0.034,-0.13667 z m -2.2885,0.3136 c -0.029,0.011 -0.1957,0.34115 -0.1957,0.38691 v 4e-5 c 0,0.0102 0.095,0.018 0.2117,0.0173 l 0.2118,-0.001 -0.1085,-0.0428 c -0.075,-0.0297 -0.1084,-0.0542 -0.1084,-0.0803 0,-0.0438 0.042,-0.14343 0.06,-0.1415 0.01,7e-4 0.082,0.0356 0.1671,0.0775 0.1309,0.0644 0.1559,0.085 0.1615,0.13299 0.01,0.0465 0.017,0.0568 0.063,0.0568 0.031,0 0.068,-0.0109 0.081,-0.0242 0.018,-0.0184 0.043,-0.0184 0.1046,0 0.1064,0.0318 0.3608,0.0323 0.3503,6.8e-4 -0.019,-0.057 -0.9333,-0.40698 -0.9981,-0.38211 z m -2.699,0.32804 c -0.051,-1e-5 -0.076,0.004 -0.084,0.0125 -0.012,0.0126 -0.018,0.0277 -0.012,0.0335 0.07,0.0703 1.9659,0.18307 3.2601,0.19396 0.2664,0.002 0.4888,0.008 0.494,0.0137 0.016,0.0157 3.6393,0.007 3.7525,-0.009 0.2191,-0.031 -0.1032,-0.0399 -3.8013,-0.10619 -1.5839,-0.0284 -2.6046,-0.0666 -3.3742,-0.12634 -0.1082,-0.008 -0.1837,-0.0126 -0.2343,-0.0126 z m 0.9489,0.22592 c -0.054,0.005 -0.066,0.0147 -0.061,0.0478 0.018,0.11954 0.219,0.43294 0.4538,0.70753 0.1644,0.1922 0.1754,0.20048 0.6126,0.46358 0.3002,0.18058 0.643,0.31788 0.9696,0.38837 0.1579,0.0341 0.252,0.0399 0.5712,0.0347 0.374,-0.006 0.3858,-0.008 0.5475,-0.0716 0.1852,-0.0734 0.3183,-0.15814 0.4848,-0.30872 0.1018,-0.0922 0.1124,-0.10959 0.1077,-0.17855 -0.01,-0.0681 0,-0.0787 0.056,-0.0978 0.1062,-0.037 0.199,-0.18811 0.3348,-0.54505 0.062,-0.16241 0.087,-0.20564 0.1156,-0.20215 0.052,0.006 0.6052,0.29396 0.6052,0.31489 0,0.01 -0.079,0.10396 -0.1757,0.20989 -0.097,0.10595 -0.1756,0.19988 -0.1756,0.20874 0,0.0287 0.092,0.017 0.1578,-0.0201 0.035,-0.0199 0.1072,-0.0853 0.1598,-0.1453 0.1134,-0.12939 0.1245,-0.11311 0.023,0.034 -0.039,0.0578 -0.072,0.11001 -0.072,0.11597 0,0.0225 0.1199,0.01 0.1395,-0.015 0.011,-0.0142 0.032,-0.063 0.046,-0.10846 0.031,-0.0985 0.076,-0.15495 0.1241,-0.15495 0.019,0 0.1177,0.052 0.2189,0.1156 0.1012,0.0636 0.209,0.12868 0.2397,0.14462 0.058,0.0301 0.2644,0.0407 0.2644,0.0135 -10e-5,-0.0235 -0.3518,-0.25226 -0.6197,-0.40318 -0.4965,-0.27975 -0.8713,-0.4461 -1.0234,-0.45422 l -0.096,-0.005 -0.077,0.21693 c -0.042,0.1193 -0.1034,0.26805 -0.1351,0.33054 -0.2279,0.44952 -0.5581,0.73546 -0.9424,0.81631 -0.1612,0.0339 -0.5471,0.0417 -0.5659,0.0115 -0.01,-0.0106 0.013,-0.0547 0.042,-0.0981 0.03,-0.0434 0.1077,-0.19045 0.1732,-0.3268 0.1621,-0.33741 0.2485,-0.63937 0.2485,-0.86869 V 147.136 h -0.3375 -0.3375 l -0.028,0.0837 c -0.015,0.046 -0.036,0.0886 -0.045,0.0945 -0.01,0.006 -0.1227,-0.0317 -0.2512,-0.0837 -0.1285,-0.052 -0.2576,-0.0945 -0.2869,-0.0945 -0.042,0 -0.084,0.0368 -0.1897,0.1637 -0.1372,0.16439 -0.5042,0.52444 -0.5712,0.56033 -0.029,0.0156 -0.064,-0.0106 -0.1839,-0.13925 -0.1318,-0.14103 -0.3167,-0.39922 -0.4185,-0.5841 -0.03,-0.0556 -0.046,-0.0644 -0.1032,-0.0588 z m 0.7786,0.0508 c -0.056,0.002 -0.1294,0.0123 -0.2017,0.0294 -0.1057,0.025 -0.1311,0.0244 -0.212,-0.005 -0.1008,-0.0362 -0.1233,-0.0237 -0.103,0.0575 0.01,0.0313 0.04,0.0637 0.08,0.0819 0.099,0.0451 0.2676,0.021 0.4138,-0.0592 0.066,-0.0366 0.1201,-0.0757 0.1189,-0.0871 0,-0.0142 -0.039,-0.0199 -0.095,-0.0177 z m 1.4543,0.0484 c 0.01,-1.5e-4 0.09,0.0199 0.184,0.0445 0.1673,0.0439 0.1702,0.0459 0.1702,0.10874 -3e-4,0.0352 -0.01,0.0849 -0.013,0.11052 -0.01,0.0256 -0.018,0.0455 -0.025,0.0442 -0.038,-0.006 -0.3827,-0.10224 -0.3884,-0.10798 -0.011,-0.0108 0.058,-0.19966 0.072,-0.19997 z m -0.7487,0.0857 c 0.01,-0.009 0.4421,0.20532 0.4421,0.21752 0,0.004 -0.023,0.0522 -0.049,0.10592 -0.027,0.0537 -0.067,0.11748 -0.088,0.14175 -0.037,0.0426 -0.041,0.043 -0.1106,0.01 -0.1868,-0.0886 -0.3719,-0.19577 -0.3719,-0.21511 0,-0.0163 0.092,-0.15115 0.1777,-0.25989 z m 0.6321,0.27837 c 0.072,0.004 0.3894,0.0642 0.4021,0.0768 0.013,0.0135 -0.025,0.13766 -0.081,0.25658 -0.023,0.0483 -0.051,0.0871 -0.064,0.0863 -0.039,-0.003 -0.4308,-0.11998 -0.4442,-0.1334 -0.01,-0.007 0.022,-0.0747 0.063,-0.15059 0.061,-0.11077 0.085,-0.13752 0.1237,-0.13569 z m -0.9251,0.0907 c 0.01,0 0.065,0.0351 0.1315,0.0781 0.066,0.043 0.1736,0.10573 0.2382,0.13945 0.065,0.0337 0.1174,0.0665 0.1174,0.0728 0,0.006 -0.028,0.0551 -0.061,0.10846 -0.034,0.0533 -0.068,0.0969 -0.077,0.0968 -0.066,-7e-4 -0.5634,-0.25746 -0.5634,-0.29052 0,-0.0154 0.1993,-0.20505 0.2153,-0.20505 z m -0.3684,0.29185 c 0.028,-0.008 0.072,0.0133 0.1357,0.0645 0.046,0.0369 0.1771,0.11363 0.2915,0.17044 0.1145,0.0568 0.212,0.11492 0.2166,0.12912 0.016,0.0492 -0.068,0.0246 -0.2531,-0.0738 -0.2609,-0.13868 -0.4277,-0.24877 -0.413,-0.2726 0.01,-0.009 0.013,-0.015 0.023,-0.0177 z m 1.0025,0.0413 0.097,0.0301 c 0.054,0.0165 0.1615,0.0441 0.2404,0.0611 0.079,0.0171 0.1481,0.0357 0.1537,0.0413 0.01,0.006 -0.01,0.0518 -0.034,0.10273 -0.029,0.0594 -0.058,0.092 -0.081,0.091 -0.098,-0.004 -0.4807,-0.11292 -0.4807,-0.13678 0,-0.005 0.024,-0.0499 0.053,-0.0995 z m 2.0891,0.12331 c -0.06,10e-4 -0.087,0.006 -0.087,0.0137 0,0.063 0.5065,0.10873 1.3945,0.12598 0.685,0.0133 0.9274,0.0127 2.4687,-0.006 0.7502,-0.009 1.2375,-0.0309 1.5695,-0.0709 0.062,-0.007 -0.6458,-0.0104 -1.5731,-0.006 -1.5211,0.006 -2.0847,-0.002 -3.4929,-0.0523 -0.1277,-0.004 -0.2194,-0.006 -0.2792,-0.005 z m 5.7745,0.0256 c -0.014,0.006 0,0.0104 0.026,0.0104 0.028,0 0.04,-0.005 0.026,-0.0104 -0.014,-0.006 -0.037,-0.006 -0.051,0 z m -11.0342,0.10176 c 0.051,-2e-5 0.1052,0.008 0.1621,0.0246 0.2215,0.0644 0.3618,0.24491 0.3618,0.46564 0,0.19896 -0.068,0.31314 -0.2275,0.37941 -0.2327,0.0969 -0.5092,0.0293 -0.6486,-0.15865 -0.066,-0.0897 -0.062,-0.35863 0.01,-0.49945 0.069,-0.13818 0.1911,-0.21143 0.3438,-0.21152 z m 2.9925,0.10318 c 0.037,0.004 0.098,0.0173 0.2117,0.0445 0.1336,0.0321 0.2513,0.0662 0.2616,0.0757 0.011,0.0102 0.01,0.0303 -0.01,0.0491 h -10e-5 c -0.035,0.0425 -0.08,0.0383 -0.3003,-0.0275 -0.2788,-0.0835 -0.2722,-0.08 -0.231,-0.12125 0.016,-0.0161 0.029,-0.0238 0.065,-0.0206 z m 4.4134,0.0153 c -0.059,0 -0.1059,0.008 -0.1059,0.018 0,0.01 0.1093,0.11085 0.2428,0.22431 0.1335,0.11346 0.3796,0.34261 0.5468,0.50917 0.3979,0.39646 0.6124,0.65427 0.9133,1.09752 0.077,0.11362 0.1588,0.22285 0.1816,0.24274 0.044,0.0379 0.1097,0.048 0.1274,0.0194 0.015,-0.0239 -0.2763,-0.49568 -0.4421,-0.71661 -0.2896,-0.38597 -0.7407,-0.86274 -1.1489,-1.21429 -0.2042,-0.17581 -0.2118,-0.1802 -0.315,-0.1802 z m -7.2805,0.0826 c -0.254,0 -0.3578,0.10153 -0.3411,0.33333 0.01,0.0989 0.02,0.1331 0.07,0.18569 0.033,0.0354 0.089,0.077 0.1227,0.0922 0.099,0.0442 0.2416,0.0363 0.3218,-0.0177 0.1577,-0.10623 0.2058,-0.27529 0.1213,-0.42573 -0.065,-0.11638 -0.1555,-0.16773 -0.2942,-0.16773 z m -0.019,0.14974 c 0.081,-0.009 0.1424,0.0297 0.1888,0.11641 0.032,0.06 0,0.15105 -0.072,0.19767 -0.076,0.0496 -0.1806,0.0407 -0.2417,-0.0204 -0.1047,-0.10469 -0.089,-0.21665 0.037,-0.26954 0.032,-0.0132 0.061,-0.0213 0.088,-0.0241 z m -0.6622,0.24686 0.038,0.11161 0.038,0.1116 -0.091,0.093 c -0.092,0.0939 -0.1239,0.11185 -0.1239,0.0701 0,-0.0125 -0.028,-0.0581 -0.062,-0.10111 -0.034,-0.043 -0.061,-0.0862 -0.061,-0.0959 0,-0.01 0.06,-0.0563 0.1316,-0.10346 z m 5.7405,0.7152 c -0.01,0.0101 -0.02,0.0423 -0.032,0.0713 -0.019,0.0506 -0.013,0.0569 0.1591,0.15276 0.1998,0.11149 0.4873,0.3195 0.7399,0.53536 0.2286,0.19544 0.9585,0.85721 0.9585,0.86909 0,0.018 -0.1677,0.25647 -0.2313,0.32894 -0.035,0.0398 -0.06,0.0757 -0.056,0.0798 0.01,0.004 0.068,-0.0218 0.1422,-0.0575 0.1121,-0.0543 0.1429,-0.0811 0.1866,-0.16217 0.029,-0.0535 0.058,-0.10342 0.066,-0.11112 0.01,-0.008 0.096,0.0115 0.1956,0.0427 0.1,0.0312 0.2041,0.0632 0.2317,0.0711 0.04,0.0115 0.01,0.0291 -0.186,0.0895 -0.2712,0.0862 -0.1955,0.0644 -1.9198,0.55416 -0.7215,0.20494 -1.3537,0.3866 -1.4048,0.4037 -0.2338,0.0782 -0.2508,0.17295 -0.042,0.23616 0.057,0.0173 0.2698,0.0256 0.2698,0.0104 0,-0.005 -0.039,-0.0321 -0.085,-0.0602 l -0.086,-0.0511 0.08,-0.0229 c 0.044,-0.0126 0.3408,-0.093 0.6589,-0.17878 0.8058,-0.21717 1.2707,-0.34709 1.6321,-0.456 0.1704,-0.0513 0.3378,-0.10114 0.3719,-0.11067 0.034,-0.01 0.1084,-0.0311 0.1652,-0.048 0.057,-0.0168 0.2149,-0.0632 0.3513,-0.10309 0.3264,-0.0953 0.4909,-0.1553 0.8882,-0.32373 1.3169,-0.55812 1.3121,-0.55574 1.1965,-0.59967 -0.066,-0.0251 -0.1863,0.0161 -0.711,0.24343 -0.3386,0.14671 -0.8468,0.34544 -0.9916,0.38772 l -0.051,0.0151 0.049,-0.0532 0.049,-0.0532 -0.049,-0.0105 c -0.027,-0.006 -0.1191,-0.0242 -0.2047,-0.041 -0.3422,-0.0669 -0.3621,-0.0802 -0.9624,-0.64019 -0.5136,-0.47906 -0.8601,-0.74692 -1.2302,-0.95084 -0.076,-0.0418 -0.1429,-0.0675 -0.1492,-0.0574 z m 7.9094,0.19831 c -0.4044,2.2e-4 -0.8086,0.0135 -1.0219,0.0397 -0.1648,0.0202 -0.3413,0.0461 -0.3924,0.0575 -0.051,0.0113 -0.1635,0.0295 -0.2499,0.0404 -0.1895,0.0237 -0.4744,0.11706 -0.6311,0.20675 -0.1191,0.0681 -0.4049,0.28678 -0.4319,0.3303 -0.011,0.0187 0.013,0.0225 0.097,0.0156 0.098,-0.008 0.1414,-0.0286 0.3333,-0.15684 0.2527,-0.169 0.3481,-0.20339 0.7788,-0.28091 0.4588,-0.0826 0.6252,-0.0973 1.2396,-0.10988 0.8074,-0.0165 1.3576,0.0297 2.1589,0.18137 0.5748,0.10879 0.8675,0.19085 0.8484,0.23787 -0.01,0.0158 -0.018,0.0428 -0.024,0.0599 -0.023,0.0551 0.089,0.0358 0.1603,-0.0277 0.045,-0.0402 0.061,-0.0699 0.052,-0.0939 -0.051,-0.13405 -0.8999,-0.34063 -1.8941,-0.4612 -0.2142,-0.026 -0.6189,-0.0388 -1.0233,-0.0386 z m 0.3262,0.72175 c -1.4322,0.006 -2.8688,0.0186 -3.0938,0.0309 -0.5716,0.0312 -1.4973,0.0652 -2.2673,0.0832 -0.3835,0.009 -0.704,0.023 -0.7122,0.0312 -0.01,0.008 0,0.0244 0.015,0.0359 0.04,0.0279 1.6653,0.009 2.7471,-0.0327 1.0829,-0.0413 2.6969,-0.0701 4.8712,-0.0869 0.9805,-0.008 1.787,-0.0206 1.7921,-0.0289 0.01,-0.008 -0.1231,-0.0217 -0.285,-0.0297 -0.2075,-0.0104 -1.6353,-0.01 -3.0676,-0.003 z m -17.0935,0.0172 c 0.045,5.7e-4 0.096,0.006 0.1571,0.0132 0.2085,0.0269 0.3731,0.0807 0.6135,0.20034 0.574,0.28569 0.9876,0.65387 1.7742,1.57997 0.2365,0.27839 0.5432,0.63889 0.6815,0.80111 0.1384,0.16221 0.2472,0.30637 0.2419,0.32033 -0.01,0.0139 -0.069,0.0475 -0.1415,0.0745 -0.1117,0.0416 -0.1772,0.0501 -0.4313,0.0558 -0.4396,0.01 -0.8818,-0.0615 -1.3738,-0.22164 -0.3044,-0.0991 -0.6406,-0.26079 -1.2602,-0.60625 -0.9477,-0.52842 -1.2495,-0.65127 -1.5987,-0.65072 -0.1093,1.8e-4 -0.2543,0.0134 -0.3223,0.0294 -0.1862,0.0438 -0.1983,-0.0132 -0.054,-0.25271 0.2346,-0.38821 0.7828,-0.89179 1.3108,-1.20392 0.1773,-0.10485 0.2661,-0.14111 0.4024,-0.1394 z m 19.3305,0.14163 c -0.01,-0.004 -0.035,-0.001 -0.083,0.004 -0.073,0.008 -0.1586,0.0424 -0.2891,0.11657 -0.1022,0.058 -0.2974,0.15124 -0.4338,0.20708 -0.2993,0.12249 -1.2205,0.4278 -2.0661,0.68481 -1.1423,0.34718 -2.0237,0.64463 -2.4181,0.81604 -0.1472,0.064 -0.28,0.12138 -0.2951,0.12766 -0.059,0.0247 0.03,0.0463 0.1912,0.0467 0.1112,2.2e-4 0.1741,-0.009 0.1962,-0.0286 0.056,-0.0491 0.5973,-0.25351 1.1903,-0.44913 l 0.5665,-0.18681 0.1502,0.0511 c 0.087,0.0295 0.1372,0.056 0.1192,0.0626 -0.017,0.006 -0.2527,0.0732 -0.5239,0.14857 -0.2712,0.0754 -0.5047,0.14153 -0.519,0.147 -0.014,0.006 -0.031,-0.009 -0.037,-0.0325 -0.01,-0.0258 -0.028,-0.0425 -0.054,-0.0425 -0.042,0 -0.051,0.0172 -0.045,0.0845 0,0.0251 -0.049,0.0465 -0.2197,0.0906 -0.3387,0.0878 -0.5017,0.13935 -0.5017,0.15865 0,0.01 0.1046,0.0174 0.2324,0.0173 0.2557,-1.6e-4 0.2268,0.006 1.224,-0.26465 0.2954,-0.0802 0.8533,-0.2256 1.2396,-0.32305 0.3863,-0.0974 1.0921,-0.27539 1.5684,-0.39542 0.4764,-0.12004 0.9686,-0.25436 1.094,-0.29851 0.1253,-0.0442 0.2307,-0.0774 0.2342,-0.0739 0,0.004 0.016,0.0845 0.027,0.18004 0.042,0.3415 0.1244,0.81369 0.1454,0.83439 0.012,0.0121 0.1239,0.0204 0.2627,0.0194 0.1875,-0.001 0.257,-0.01 0.3107,-0.0378 0.083,-0.0435 0.083,-0.0563 -0.016,-0.44615 -0.1113,-0.43895 -0.118,-0.45457 -0.194,-0.45425 -0.036,1.3e-4 -0.1167,0.0139 -0.1791,0.0307 -0.1544,0.0414 -0.186,0.0395 -0.186,-0.011 0,-0.0231 -0.013,-0.0728 -0.029,-0.11047 -0.025,-0.06 -0.041,-0.0701 -0.1248,-0.0817 -0.1246,-0.0171 -0.5193,0.0657 -1.5579,0.32659 l -0.7844,0.19702 -0.1036,-0.0672 c -0.057,-0.037 -0.1206,-0.0778 -0.1414,-0.0907 -0.021,-0.0129 -0.033,-0.0279 -0.028,-0.0334 0.01,-0.006 0.2149,-0.0766 0.4649,-0.15801 0.25,-0.0814 0.5493,-0.18411 0.6651,-0.22822 0.3711,-0.1413 0.8462,-0.39904 0.9367,-0.50824 0.014,-0.017 0.02,-0.0258 0.011,-0.0292 z m -5.4602,0.04 c -0.096,0.009 -0.1462,0.0295 -0.2633,0.10738 -0.3314,0.22022 -0.7965,0.40057 -1.1877,0.46055 -0.2995,0.0459 -0.3495,0.0622 -0.4442,0.14505 l -0.083,0.0723 0.083,-0.009 c 0.046,-0.005 0.1617,-0.0147 0.2582,-0.0213 0.3971,-0.027 0.7907,-0.1435 1.2016,-0.35556 0.2009,-0.10372 0.5545,-0.35505 0.5545,-0.39418 0,-0.009 -0.054,-0.0111 -0.1191,-0.005 z m -10.9823,0.2929 c -0.2183,0.002 -0.3608,0.007 -0.3533,0.0148 0.015,0.0161 0.3266,0.0247 1.0434,0.0285 0.5619,0.003 1.0956,0.008 1.186,0.0105 0.1182,0.004 0.1579,-0.001 0.1417,-0.0175 -0.024,-0.0242 -1.3627,-0.0423 -2.0178,-0.0363 z m 17.4529,0.58229 c 0.015,0.006 0.032,0.0551 0.04,0.10999 0.01,0.0549 0.036,0.19266 0.063,0.30602 0.027,0.11335 0.049,0.20695 0.046,0.208 0,7e-4 -0.063,0.0268 -0.1344,0.0573 -0.1362,0.0578 -0.1897,0.0682 -0.1897,0.0368 0,-0.0102 -0.018,-0.12411 -0.039,-0.25307 -0.022,-0.12896 -0.044,-0.27279 -0.051,-0.31961 l -0.013,-0.0851 0.1255,-0.0352 c 0.069,-0.0194 0.1374,-0.0306 0.1519,-0.0251 z m -10.6826,0.54339 c -0.026,0.006 -0.056,0.0187 -0.097,0.0355 l -0.063,0.0259 0.1128,0.0889 c 0.062,0.0489 0.1909,0.1599 0.2862,0.2467 0.095,0.0868 0.1882,0.1644 0.2066,0.17249 0.033,0.0146 0.1683,0.001 0.1882,-0.0182 0.01,-0.006 -0.1179,-0.13584 -0.2747,-0.28939 -0.2317,-0.22693 -0.2794,-0.2786 -0.3584,-0.26191 z m 8.858,0.28713 c -0.01,0.005 0,0.0215 0.016,0.0374 0.049,0.0587 0.2144,0.081 0.7103,0.096 0.5607,0.0169 1.649,0.008 2.5977,-0.0209 0.3466,-0.0106 0.9021,-0.0254 1.2343,-0.0328 0.3375,-0.008 0.6044,-0.0218 0.6044,-0.0322 0,-0.0111 -0.9866,-0.0176 -2.4223,-0.016 -1.5729,0.002 -2.4765,-0.005 -2.5768,-0.0187 -0.085,-0.0118 -0.1584,-0.0175 -0.1631,-0.0129 z m -18.8979,0.18396 c 0.044,0.006 0.1117,0.0386 0.2205,0.10091 0.1074,0.0616 0.3207,0.18406 0.4741,0.27228 0.3845,0.22111 0.8073,0.42557 1.0703,0.51756 0.287,0.1004 0.4172,0.15491 0.4172,0.17463 0,0.0245 -0.058,0.041 -0.1426,0.041 -0.4011,0 -0.6721,0.39765 -0.6337,0.93002 0.055,0.76099 0.4881,1.4648 1.0874,1.76663 0.2175,0.10951 0.349,0.13961 0.5647,0.12932 0.3205,-0.0153 0.4914,-0.12627 0.5954,-0.38655 0.039,-0.0991 0.046,-0.15306 0.045,-0.38385 0,-0.23715 -0.01,-0.2891 -0.058,-0.44417 -0.055,-0.16614 -0.1395,-0.34878 -0.242,-0.52111 l -0.046,-0.077 0.056,-0.41887 c 0.031,-0.23038 0.061,-0.45374 0.068,-0.49634 0.021,-0.15096 0.1411,-0.082 0.4054,0.23318 0.2321,0.27682 0.7672,0.96108 0.8879,1.13548 0.5725,0.82712 1.0213,2.21275 0.9023,2.78571 -0.037,0.18025 -0.1471,0.35519 -0.3317,0.52886 -0.1813,0.17049 -0.3426,0.26023 -0.5572,0.30984 -0.073,0.0168 -0.2066,0.0358 -0.2975,0.042 -0.1594,0.0111 -0.1751,0.008 -0.4442,-0.09 -0.6699,-0.2436 -0.9504,-0.39653 -1.3666,-0.74494 -0.2997,-0.25087 -0.8163,-0.79088 -0.9597,-1.00322 -0.6075,-0.89963 -1.0695,-1.79834 -1.4444,-2.80963 -0.298,-0.80378 -0.4003,-1.25966 -0.343,-1.52877 0.01,-0.047 0.029,-0.0687 0.072,-0.0631 z m 20.6158,0.0356 c -0.014,-0.005 -0.041,-0.001 -0.094,0.005 -0.183,0.0237 -0.7713,0.16821 -1.3067,0.32102 -0.3264,0.0932 -0.7353,0.19379 -2.1072,0.51861 -0.9794,0.2319 -1.9205,0.48121 -2.4579,0.65113 -0.1587,0.0502 -0.3037,0.0913 -0.3221,0.0913 -0.024,0 -0.047,-0.044 -0.079,-0.14978 -0.071,-0.2331 -0.164,-0.73149 -0.1714,-0.91416 -0.01,-0.15472 -0.01,-0.16656 0.04,-0.18565 0.083,-0.0363 0.049,-0.0518 -0.095,-0.0437 -0.091,0.005 -0.1724,0.024 -0.2302,0.0534 l -0.089,0.0455 0.011,-0.0433 c 0.01,-0.0237 0.01,-0.0433 0.01,-0.0436 0,-1.9e-4 -0.063,-0.006 -0.1374,-0.0118 l -0.1344,-0.0115 -0.3614,0.18229 c -0.3291,0.16595 -0.3625,0.18782 -0.3739,0.24424 -0.01,0.0341 -0.064,0.19213 -0.1272,0.3512 -0.1153,0.29059 -0.2509,0.69737 -0.2747,0.82456 -0.012,0.064 -0.01,0.0691 0.053,0.0815 0.037,0.007 0.1279,0.0139 0.2032,0.0147 0.075,7.1e-4 0.1528,0.008 0.1723,0.0155 0.02,0.008 -0.4918,0.0107 -1.1362,0.006 -0.6445,-0.004 -1.7063,0.003 -2.3597,0.0158 -0.6533,0.0127 -1.6213,0.0287 -2.1512,0.0356 -0.5298,0.007 -0.9757,0.0201 -0.991,0.0295 -0.015,0.009 -0.02,0.0246 -0.011,0.0337 0.022,0.0218 2.5608,0.0258 3.5252,0.006 0.4148,-0.009 1.4002,-0.0225 2.1899,-0.0305 0.7897,-0.008 1.4728,-0.0223 1.518,-0.0318 0.075,-0.0159 0.5564,0.0163 1.2503,0.0836 0.1193,0.0115 0.2634,0.025 0.3203,0.0299 0.057,0.005 0.2287,0.0235 0.3821,0.0413 0.2813,0.0326 1.4103,0.13549 1.4873,0.13549 0.025,0 0.042,0.0137 0.042,0.0333 0,0.0301 0.051,0.0321 0.532,0.0208 0.2926,-0.007 1.4338,-0.0172 2.5359,-0.0231 3.4451,-0.0182 5.0414,-0.0439 5.3005,-0.0854 0.1422,-0.0228 0.091,-0.0533 -0.068,-0.041 -0.082,0.006 -0.9958,0.0166 -2.0298,0.0226 -3.3488,0.0197 -4.6398,0.0332 -5.0821,0.053 -0.2387,0.0106 -0.4757,0.0191 -0.5268,0.0189 -0.086,-5e-4 -0.09,-0.003 -0.053,-0.0309 0.025,-0.0189 0.033,-0.0375 0.02,-0.0494 -0.011,-0.0104 -0.2241,-0.0385 -0.4741,-0.0624 -0.7013,-0.067 -0.6714,-0.0627 -0.6714,-0.0961 0,-0.0451 0.1137,-0.26147 0.1768,-0.33648 0.03,-0.0362 0.082,-0.0794 0.1139,-0.096 0.083,-0.043 0.2877,-0.0379 0.4258,0.0106 0.1673,0.0588 0.4529,0.24361 0.5406,0.34996 0.1007,0.1218 0.2233,0.20828 0.2954,0.20828 0.032,0 0.059,-0.008 0.059,-0.0185 0,-0.0343 -0.2907,-0.33023 -0.4196,-0.42711 -0.2416,-0.18166 -0.523,-0.29806 -0.7206,-0.29806 -0.2567,0 -0.4558,0.17774 -0.5555,0.49582 l -0.036,0.11362 -0.1724,-0.002 c -0.095,-0.001 -0.2546,-0.0137 -0.3549,-0.0282 -0.1772,-0.0254 -0.184,-0.0285 -0.2412,-0.10753 -0.058,-0.0798 -0.1695,-0.3263 -0.1961,-0.43271 -0.013,-0.0518 -0.01,-0.0553 0.1215,-0.0878 0.1646,-0.0413 0.1779,-0.0417 0.1779,-0.004 0,0.0192 0.06,0.0481 0.1705,0.0819 0.094,0.0287 0.2537,0.08 0.3555,0.11407 0.1017,0.0341 0.1901,0.0568 0.1963,0.0506 0.018,-0.018 -0.1004,-0.10439 -0.2523,-0.18436 -0.1432,-0.0754 -0.172,-0.12168 -0.1088,-0.17415 0.033,-0.0274 0.9063,-0.24961 1.3819,-0.35165 0.1605,-0.0344 0.398,-0.09 0.5277,-0.12335 0.1297,-0.0334 0.2438,-0.0558 0.2536,-0.0497 0.039,0.0244 0.3072,0.38749 0.3182,0.4317 0.01,0.0261 0.029,0.0518 0.049,0.0573 0.046,0.0122 0.341,0.38048 0.5524,0.69127 l 0.1581,0.23242 h 0.5025 0.5024 l -0.071,-0.1405 c -0.1872,-0.37167 -0.5614,-0.96462 -0.8566,-1.35728 -0.068,-0.0909 -0.1179,-0.17127 -0.1101,-0.17859 0.01,-0.007 0.2164,-0.0706 0.4633,-0.14066 0.2469,-0.07 0.5614,-0.16364 0.6988,-0.20797 0.2083,-0.0672 0.2567,-0.0764 0.2909,-0.0556 0.034,0.021 0.046,0.0185 0.071,-0.0151 0.016,-0.0221 0.03,-0.0628 0.03,-0.0905 0,-0.0244 0,-0.0368 -0.015,-0.0415 z m -7.3587,0.12677 c -0.5704,2e-4 -1.2894,0.005 -2.2536,0.0136 -1.4374,0.0132 -3.118,0.0258 -3.7349,0.0279 -1.1936,0.004 -1.1904,0.004 -1.1393,0.0993 0.018,0.0336 0.023,0.0337 0.086,10e-4 0.061,-0.0315 0.1658,-0.0337 1.1622,-0.0243 1.2181,0.0115 2.2212,0.0113 6.5844,-0.001 1.6444,-0.005 2.9671,-0.0149 2.9394,-0.0223 -0.068,-0.0182 -1.0593,-0.0535 -2.2828,-0.0814 -0.3697,-0.008 -0.7915,-0.0125 -1.3618,-0.0123 z m -4.3711,0.22048 -0.124,0.0133 c -0.121,0.013 -0.15,0.0208 -0.1325,0.0358 0.01,0.004 0.1945,0.10514 0.4218,0.22463 0.5044,0.26524 0.8129,0.44377 1.3118,0.75906 0.2102,0.13285 0.4891,0.30466 0.6198,0.38182 0.1306,0.0772 0.2407,0.14847 0.2445,0.15842 0.01,0.022 0.2718,0.0245 0.2718,0.003 0,-0.009 -0.1116,-0.0842 -0.2479,-0.16827 -0.1363,-0.084 -0.2478,-0.1552 -0.2478,-0.15817 0,-0.003 0.018,-6.4e-4 0.04,0.005 0.061,0.0161 0.071,-0.0619 0.045,-0.37175 -0.023,-0.27771 -0.078,-0.51792 -0.1717,-0.74796 l -0.051,-0.12395 -0.1073,-0.006 c -0.059,-0.004 -0.1073,-0.001 -0.1073,0.004 0,0.006 0.032,0.0843 0.072,0.17464 0.039,0.0903 0.091,0.24186 0.1128,0.33672 0.038,0.16097 0.091,0.63718 0.072,0.65524 -0.01,0.004 -0.1501,-0.0848 -0.3238,-0.19841 -0.3858,-0.25228 -0.835,-0.51564 -1.3281,-0.77858 z m 4.6331,0.0729 c 0.01,0.002 0.01,0.0167 -0.015,0.0407 -0.014,0.0173 -0.036,0.0315 -0.047,0.0315 -0.012,0 -0.01,-0.0187 0.016,-0.0414 0.021,-0.0236 0.039,-0.0331 0.046,-0.0307 z m 0.3576,0.0722 c 0.01,1e-5 0.01,0.13713 0.011,0.30471 0,0.30168 0.015,0.37706 0.1229,0.74369 0.011,0.0376 0.01,0.0465 -0.029,0.0465 -0.023,0 -0.219,0.0325 -0.4346,0.0723 -0.2157,0.0398 -0.4153,0.0723 -0.4439,0.0723 -0.044,0 -0.058,-0.0172 -0.092,-0.10862 -0.052,-0.14035 -0.1524,-0.58537 -0.1442,-0.64261 0.01,-0.0264 0.035,-0.0586 0.079,-0.08 0.091,-0.0451 0.9193,-0.4083 0.9312,-0.40826 z m -0.5364,0.004 c 0.016,0.006 0.01,0.0242 -0.023,0.0538 -0.051,0.0471 -0.082,0.0579 -0.082,0.0279 0,-0.0297 0.079,-0.0906 0.1056,-0.0817 z m -0.192,0.0784 c 0.046,0 -0.01,0.0575 -0.1024,0.10483 -0.077,0.0394 -0.1211,0.0499 -0.1211,0.029 0,-0.0186 0.1925,-0.13383 0.2235,-0.13383 z m -12.6736,0.0891 c -0.024,0.0242 0.029,0.0661 0.3578,0.28455 h 1e-4 c 0.1869,0.12398 0.3489,0.22543 0.36,0.22543 0.011,0 -0.01,-0.0413 -0.034,-0.0919 -0.045,-0.0767 -0.05,-0.0992 -0.03,-0.13646 0.017,-0.0311 0.018,-0.0513 0,-0.0663 -0.015,-0.015 -0.029,-0.005 -0.046,0.0332 -0.032,0.069 -0.047,0.0685 -0.1392,-0.004 -0.1768,-0.13807 -0.4404,-0.27504 -0.4709,-0.24455 z m -0.1475,0.0801 c -0.01,0.008 0.03,0.18258 0.1305,0.51861 0.1637,0.54982 0.2217,0.72055 0.3347,0.98433 0.05,0.11664 0.067,0.17707 0.051,0.18247 -0.041,0.0137 -0.027,0.0667 0.023,0.0857 0.03,0.0111 0.098,0.10259 0.1808,0.23931 0.073,0.12169 0.1644,0.25751 0.2023,0.30182 0.074,0.0868 0.1174,0.0904 0.086,0.007 -0.01,-0.028 -0.081,-0.15731 -0.1561,-0.28725 -0.075,-0.12994 -0.1312,-0.24532 -0.1243,-0.25638 0.01,-0.0111 0.049,-0.0264 0.095,-0.034 0.045,-0.008 0.087,-0.0218 0.093,-0.0313 0.013,-0.0202 -0.2046,-0.0512 -0.2336,-0.0333 -0.034,0.0211 -0.3544,-0.74328 -0.5011,-1.1956 -0.1071,-0.33073 -0.1696,-0.48945 -0.1804,-0.4815 z m 2.0276,0.30589 h 0.068 c 0.037,0 0.1122,0.009 0.1667,0.0206 0.054,0.0113 0.2317,0.0282 0.3938,0.0374 0.162,0.009 0.3036,0.0258 0.3147,0.0369 0.021,0.0214 -0.034,0.45562 -0.092,0.72105 -0.056,0.25593 -0.1973,1.06604 -0.1973,1.13319 -2e-4,0.0358 -0.01,0.086 -0.013,0.11152 -0.015,0.0542 -0.029,0.0546 -0.2349,0.007 -0.3119,-0.0725 -0.5559,-0.18454 -0.6601,-0.30315 -0.051,-0.0582 -0.058,-0.0812 -0.049,-0.14711 0.011,-0.0702 0.1413,-0.77116 0.2589,-1.38481 z m 14.6377,0.0225 c -0.016,0.001 -0.018,0.0293 -0.01,0.0891 0.01,0.0409 0.023,0.0744 0.032,0.0744 0.026,0 0.023,-0.1394 -0.01,-0.15579 -0.01,-0.006 -0.016,-0.008 -0.021,-0.008 z m -0.2256,0.0502 c -0.03,0.0188 -0.024,0.072 0.01,0.072 0.015,0 0.04,0.0144 0.055,0.0319 0.032,0.0387 0.068,0.01 0.049,-0.0393 -0.016,-0.0426 -0.084,-0.0818 -0.1123,-0.0646 z m -4.0264,0.0553 c 0.012,0.0222 0.1017,0.40767 0.1017,0.43827 0,0.005 -0.025,0.0139 -0.057,0.0199 -0.188,0.036 -0.2385,0.0382 -0.2285,0.0103 0.01,-0.0155 0.046,-0.1333 0.089,-0.26183 0.047,-0.13993 0.085,-0.22281 0.094,-0.20658 z m -10.6869,0.0584 c 0.048,-10e-4 0.087,4.2e-4 0.087,0.006 0,0.004 -0.051,0.25695 -0.1146,0.56296 -0.1368,0.66488 -0.1623,0.94937 -0.095,1.05599 0.1371,0.21607 0.5713,0.41972 0.8948,0.41972 0.1365,0 0.323,-0.0694 0.3044,-0.11346 -0.01,-0.0113 -0.02,-0.0179 -0.034,-0.0146 -0.039,0.009 -0.032,-0.0392 0.033,-0.21655 0.032,-0.0888 0.08,-0.24978 0.1051,-0.35767 0.062,-0.26421 0.065,-0.26892 0.1292,-0.15086 0.085,0.15758 0.1575,0.38305 0.1848,0.57187 0.053,0.37203 -0.072,0.67183 -0.3088,0.73425 -0.1215,0.032 -0.2754,0.0413 -0.3762,0.0228 -0.2593,-0.0478 -0.5524,-0.21998 -0.806,-0.47359 -0.1306,-0.13065 -0.1784,-0.19721 -0.2549,-0.3552 -0.1717,-0.35489 -0.2522,-0.71797 -0.2354,-1.06212 0.013,-0.26851 0.066,-0.41231 0.1923,-0.52354 0.051,-0.0444 0.1207,-0.0865 0.1562,-0.0936 0.034,-0.007 0.09,-0.0112 0.1376,-0.0125 z m 15.8549,0.10487 c -0.01,-0.004 -0.027,0.009 -0.049,0.0398 -0.025,0.0374 -0.035,0.0391 -0.095,0.0164 -0.09,-0.0344 -0.1075,-0.008 -0.041,0.0619 0.03,0.0318 0.056,0.0781 0.056,0.10305 0,0.048 0.03,0.0606 0.053,0.0226 0.02,-0.0321 0.2382,0.1886 0.3546,0.35843 0.083,0.12113 0.1296,0.16726 0.1296,0.12832 0,-0.0556 -0.1728,-0.32289 -0.3158,-0.48852 -0.089,-0.10271 -0.1,-0.1254 -0.087,-0.18077 0.01,-0.0363 0.01,-0.0573 -0.01,-0.0613 z m -2.1814,0.0187 c 0.031,0 0.049,0.01 0.044,0.0245 -0.01,0.0292 -0.034,0.0358 -0.083,0.023 -0.051,-0.0132 -0.023,-0.0476 0.04,-0.0476 z m -0.593,0.14804 0.013,0.0758 c 0.02,0.11826 0.051,0.21039 0.1156,0.33914 l 0.059,0.11878 h -0.1245 c -0.1184,0 -0.1267,-0.004 -0.1656,-0.0671 -0.023,-0.0369 -0.041,-0.0747 -0.041,-0.0839 -10e-5,-0.009 -0.03,-0.0772 -0.065,-0.15112 -0.036,-0.0751 -0.057,-0.14144 -0.046,-0.15046 0.01,-0.009 0.072,-0.0307 0.1365,-0.0486 z m 0.7635,0.15285 c -0.01,0.006 -0.018,0.0899 -0.018,0.18581 0,0.15961 0.017,0.20954 0.052,0.15244 0.02,-0.0323 -0.012,-0.35172 -0.034,-0.33825 z m -1.851,0.0713 c 0.046,-2.4e-4 0.063,0.0137 0.088,0.0714 0.016,0.0394 0.03,0.0859 0.03,0.1033 0,0.0246 -0.025,0.0316 -0.1141,0.0316 -0.1035,0 -0.116,-0.005 -0.1343,-0.053 -0.044,-0.1168 -0.014,-0.15262 0.1307,-0.15333 z m -3.1225,0.0448 c -0.019,0.005 -0.024,0.0303 -0.024,0.0789 0,0.0695 0.01,0.0826 0.042,0.0826 0.023,0 0.072,-0.015 0.107,-0.0334 l 0.065,-0.0334 -0.081,-0.0491 c -0.057,-0.0344 -0.09,-0.0504 -0.1089,-0.0456 z m 1.8546,0.0166 c 0.015,-1.3e-4 0.019,0.0102 0,0.0312 h -10e-5 v 5e-5 c -0.014,0.017 -0.045,0.0309 -0.068,0.0309 -0.042,0 -0.042,-4.9e-4 0,-0.0303 0.028,-0.0211 0.054,-0.0318 0.07,-0.0319 z m 0.1195,0.006 c 0.01,0.001 0.01,0.008 0.01,0.0221 0,0.0185 -0.014,0.0335 -0.031,0.0335 -0.017,0 -0.031,-0.004 -0.031,-0.008 0,-0.004 0.014,-0.0194 0.031,-0.0335 0.013,-0.0105 0.02,-0.0154 0.025,-0.0143 z m 0.852,0.004 -0.017,0.0516 c -0.018,0.0535 -0.076,0.075 -0.1217,0.0451 -0.02,-0.0132 -0.017,-0.0256 0.014,-0.0537 0.039,-0.0352 0.04,-0.0349 0.029,0.007 -0.015,0.0571 0.021,0.0552 0.063,-0.004 z m -1.1547,0.0103 c 0.023,0 0.037,0.009 0.03,0.0206 -0.01,0.0113 -0.026,0.0206 -0.042,0.0206 -0.016,0 -0.03,-0.009 -0.03,-0.0206 0,-0.0113 0.019,-0.0206 0.042,-0.0206 z m 0.9192,0.006 c 0.011,0.004 0.011,0.019 -0.011,0.0446 -0.014,0.0173 -0.041,0.0315 -0.059,0.0315 -0.027,0 -0.024,-0.009 0.013,-0.0453 0.025,-0.0247 0.047,-0.034 0.058,-0.0308 z m -9.4445,0.46926 c -0.048,-0.001 -0.091,0.005 -0.091,0.0201 0,0.0113 0.028,0.0206 0.063,0.0206 0.038,0 0.082,0.0187 0.1102,0.0472 0.056,0.056 0.1988,0.29652 0.2834,0.47734 0.073,0.1565 0.2243,0.59562 0.212,0.6161 -0.01,0.008 -0.03,0.006 -0.054,-0.004 -0.2503,-0.10251 -0.5202,-0.18491 -0.5399,-0.16487 -0.04,0.0406 0.075,0.11292 0.3108,0.19578 0.3825,0.1343 0.3678,0.11786 0.4018,0.44994 0.037,0.35941 -0.02,0.65638 -0.1704,0.87946 -0.083,0.12309 -0.2038,0.25074 -0.2381,0.25074 -0.015,0 -0.097,-0.10589 -0.1834,-0.23532 l -0.1568,-0.23537 0.09,-0.09 c 0.096,-0.0964 0.1365,-0.19509 0.1558,-0.38267 0.017,-0.16607 -0.025,-0.13661 -0.066,0.0455 -0.028,0.12681 -0.049,0.17094 -0.1125,0.23757 -0.043,0.045 -0.091,0.0818 -0.1069,0.0818 -0.016,-4e-5 -0.1015,-0.1061 -0.1901,-0.23573 -0.1569,-0.22956 -0.2063,-0.27999 -0.2326,-0.23745 -0.019,0.0304 -7e-4,0.0672 0.1496,0.30278 0.075,0.1173 0.1308,0.2184 0.1245,0.22466 -0.055,0.0547 -0.4866,0.0645 -0.7377,0.0169 -0.1752,-0.0332 -0.2155,-0.0284 -0.164,0.0197 0.1232,0.1154 0.6494,0.14989 0.9515,0.0624 0.025,-0.007 0.074,0.052 0.1805,0.21559 0.081,0.12392 0.1522,0.23903 0.1586,0.25578 0.01,0.0232 -0.018,0.0367 -0.1133,0.057 -0.095,0.0202 -0.125,0.0351 -0.125,0.0627 0,0.0549 0.044,0.0615 0.1973,0.0294 l 0.1391,-0.0292 0.085,0.0961 c 0.046,0.0529 0.1081,0.12669 0.1365,0.16406 0.028,0.0374 0.063,0.0683 0.078,0.0687 0.031,7e-4 0.01,-0.0461 -0.1159,-0.23678 l -0.081,-0.12392 0.1423,-0.15243 c 0.2567,-0.27489 0.3656,-0.59892 0.3408,-1.01468 -0.01,-0.11942 -0.023,-0.25289 -0.035,-0.29657 -0.012,-0.0437 -0.017,-0.0846 -0.01,-0.091 0.01,-0.006 0.049,0.003 0.094,0.0209 0.07,0.0276 0.083,0.0281 0.083,0.003 0,-0.0162 -0.037,-0.0444 -0.083,-0.0627 -0.1023,-0.041 -0.1442,-0.0988 -0.2154,-0.29706 -0.03,-0.0852 -0.084,-0.21052 -0.1183,-0.27845 -0.1097,-0.21614 -0.3946,-0.70188 -0.4274,-0.72868 -0.019,-0.0153 -0.071,-0.024 -0.1189,-0.0252 z m 14.7796,0.18598 c -0.2189,-7.1e-4 -0.4107,0.0497 -0.3795,0.10034 0.021,0.0336 0.1293,0.0281 0.2928,-0.0148 0.2273,-0.0597 0.2527,-0.0848 0.087,-0.0855 z m 0.438,0.004 c 0,0.006 0.061,0.11675 0.1367,0.24605 0.5024,0.86396 0.9038,1.90019 0.9676,2.49725 0.021,0.20065 0.023,0.20333 0.1208,0.2122 0.048,0.004 0.2669,0.01 0.4871,0.0115 l 0.4004,0.004 -0.015,-0.12855 c -0.034,-0.30507 -0.2488,-0.99568 -0.4679,-1.50739 -0.1341,-0.31334 -0.5734,-1.22095 -0.6208,-1.28244 -0.025,-0.0323 -0.084,-0.0379 -0.5186,-0.0497 -0.2699,-0.007 -0.4907,-0.008 -0.4907,-0.002 z m -1.3877,0.068 0.043,0.0516 c 0.066,0.0788 0.2201,0.38692 0.2682,0.53432 0.062,0.19005 0.088,0.42692 0.063,0.5818 -0.036,0.22399 -0.1363,0.36234 -0.3059,0.42218 -0.1227,0.0433 -0.3751,0.0392 -0.5244,-0.009 -0.1696,-0.0542 -0.3707,-0.17972 -0.577,-0.36012 -0.098,-0.0858 -0.1842,-0.16513 -0.191,-0.17629 -0.018,-0.0294 0.068,-0.0386 0.6045,-0.0639 0.2649,-0.0125 0.5003,-0.0297 0.5231,-0.0381 0.025,-0.009 0.062,-0.0651 0.093,-0.13833 0.048,-0.11567 0.051,-0.14007 0.042,-0.41217 -0.01,-0.15908 -0.015,-0.31247 -0.023,-0.34088 z m -0.6629,0.10915 -0.1313,0.008 c -0.1105,0.007 -0.1411,0.0178 -0.1938,0.0684 -0.1147,0.10984 -0.1276,0.30262 -0.025,0.38283 0.1,0.0784 0.3674,0.0425 0.4819,-0.0644 0.046,-0.0428 0.06,-0.0746 0.06,-0.13396 0,-0.0656 -0.015,-0.0923 -0.096,-0.16955 z m 1.6467,0.0468 c -0.01,-0.001 -0.01,0.006 -0.01,0.0194 0,0.0112 0.047,0.10187 0.1043,0.20143 0.057,0.0996 0.1325,0.23981 0.167,0.31166 0.065,0.13515 0.2306,0.58294 0.2196,0.59387 0,0.004 -0.1269,-0.0254 -0.2744,-0.064 -0.3072,-0.0804 -0.4716,-0.0932 -0.4606,-0.0359 0.01,0.0277 0.083,0.055 0.3439,0.12133 0.1853,0.047 0.3591,0.0956 0.3861,0.10785 0.074,0.0337 0.1154,0.19623 0.1283,0.50429 0.013,0.30452 -0.011,0.45921 -0.099,0.64435 -0.059,0.1252 -0.1728,0.28039 -0.2048,0.28039 -0.021,0 -0.3313,-0.40783 -0.3313,-0.4357 0,-0.0113 0.018,-0.055 0.04,-0.0972 0.043,-0.0837 0.074,-0.193 0.093,-0.32962 0.019,-0.132 -0.023,-0.10647 -0.051,0.031 -0.013,0.0654 -0.052,0.16317 -0.087,0.21741 -0.071,0.11133 -0.08,0.10953 -0.1757,-0.0336 -0.1036,-0.1549 -0.2815,-0.38527 -0.2975,-0.38527 -0.047,0 -0.025,0.0567 0.098,0.25042 0.075,0.11794 0.1534,0.23361 0.1752,0.25706 0.022,0.0235 0.039,0.0482 0.039,0.0549 0,0.0335 -0.2219,0.0803 -0.4336,0.0914 -0.1791,0.009 -0.283,0.004 -0.4209,-0.0223 -0.1007,-0.0191 -0.1875,-0.0302 -0.1929,-0.0249 -0.018,0.0178 0.088,0.0746 0.2017,0.10834 0.1476,0.0438 0.5008,0.0422 0.6805,-0.004 0.2471,-0.0624 0.2291,-0.0653 0.3311,0.0539 0.051,0.0594 0.1017,0.11825 0.1131,0.13077 0.011,0.0125 0.044,0.0575 0.072,0.10011 0.049,0.0742 0.056,0.0773 0.1696,0.0775 0.1372,1.6e-4 0.1632,-0.0202 0.2611,-0.20389 0.1096,-0.20555 0.1567,-0.41406 0.1545,-0.68429 0,-0.13067 -0.016,-0.30498 -0.033,-0.38736 -0.017,-0.0824 -0.025,-0.14952 -0.018,-0.14913 0.01,3.6e-4 0.031,0.0143 0.053,0.031 0.051,0.0385 0.074,0.0385 0.074,-1.6e-4 0,-0.0168 -0.025,-0.0437 -0.057,-0.0599 -0.087,-0.0451 -0.1185,-0.0905 -0.2008,-0.29189 -0.088,-0.21625 -0.162,-0.35552 -0.3794,-0.7179 -0.1084,-0.18084 -0.1607,-0.25834 -0.1801,-0.26236 z m -1.7332,0.10943 c 0.03,0.006 0.059,0.0198 0.085,0.0423 0.051,0.0435 0.055,0.0566 0.037,0.10847 -0.017,0.0483 -0.034,0.0597 -0.092,0.0628 -0.04,0.002 -0.1021,-0.005 -0.1391,-0.0161 -0.052,-0.0155 -0.067,-0.0311 -0.067,-0.0709 0,-0.0929 0.088,-0.14458 0.1767,-0.12653 z m -5.6333,0.0773 c 0.2342,0.0216 0.4582,0.20004 0.4567,0.41585 0,0.14791 -0.1586,0.35534 -0.333,0.43819 -0.038,0.0182 -0.051,0.0213 -0.028,0.007 0.023,-0.0144 0.089,-0.074 0.1482,-0.13256 0.087,-0.0864 0.1095,-0.12387 0.1208,-0.19936 0.017,-0.11141 0.01,-0.15951 -0.066,-0.24271 -0.07,-0.0834 -0.1727,-0.13242 -0.3425,-0.16386 -0.1362,-0.0252 -0.142,-0.0245 -0.2195,0.0268 -0.1177,0.0779 -0.1713,0.17836 -0.1832,0.34333 -0.016,0.22807 0.082,0.36086 0.2939,0.39563 l 0.083,0.0137 -0.093,0.001 c -0.1113,10e-4 -0.265,-0.0374 -0.3384,-0.0855 -0.1246,-0.0817 -0.1509,-0.29918 -0.058,-0.48109 0.054,-0.10666 0.2092,-0.24839 0.3294,-0.30157 0.072,-0.032 0.1517,-0.0423 0.2298,-0.035 z m -0.037,0.28737 c 0.117,0 0.1326,0.006 0.1973,0.0702 0.039,0.0387 0.07,0.0856 0.07,0.10431 0,0.0568 -0.056,0.14621 -0.134,0.2149 -0.064,0.0561 -0.09,0.0651 -0.188,0.0651 -0.096,0 -0.1217,-0.008 -0.1632,-0.0533 -0.065,-0.0704 -0.081,-0.15175 -0.049,-0.25642 0.032,-0.10862 0.099,-0.14482 0.2672,-0.14482 z m -9.4864,0.38882 c -0.01,-0.0168 -0.049,0.0166 -0.1352,0.10527 -0.08,0.0827 -0.1439,0.12943 -0.188,0.13823 -0.063,0.0126 -0.089,0.0611 -0.053,0.0976 0.047,0.0469 0.1705,-0.0224 0.2601,-0.14575 0.081,-0.11183 0.1195,-0.17867 0.1159,-0.1954 z m 10.1884,0.0657 h 0.1134 c 0.062,0 0.1132,0.009 0.1132,0.02 0,0.011 -0.063,0.11091 -0.141,0.22209 -0.078,0.11118 -0.2007,0.28889 -0.2737,0.39494 -0.073,0.10605 -0.163,0.23601 -0.1999,0.28882 -0.071,0.10165 -0.085,0.14058 -0.04,0.11334 0.099,-0.06 0.5267,-0.59511 0.7062,-0.88301 l 0.097,-0.15615 h 0.1033 c 0.083,0 0.1011,0.006 0.092,0.0309 -0.013,0.034 -0.5152,0.79096 -0.6254,0.94277 -0.077,0.10573 -0.057,0.10002 -0.5654,0.16418 -0.097,0.0122 -0.2454,0.0354 -0.3305,0.0516 -0.205,0.0389 -0.2011,0.0395 -0.2487,-0.0377 -0.081,-0.13117 -0.078,-0.1442 0.088,-0.36149 0.084,-0.1108 0.1927,-0.25957 0.2406,-0.33059 0.079,-0.11667 0.094,-0.12912 0.1583,-0.12912 h 0.071 l -0.061,0.0981 c -0.033,0.0539 -0.1399,0.21433 -0.2369,0.35636 -0.101,0.14804 -0.1662,0.26173 -0.1525,0.26639 0.013,0.004 0.046,-0.0188 0.073,-0.0516 0.1148,-0.1381 0.3454,-0.45662 0.4084,-0.56425 0.044,-0.0748 0.096,-0.13181 0.1474,-0.16063 0.044,-0.0246 0.1395,-0.097 0.2132,-0.16083 0.074,-0.0639 0.1372,-0.10649 0.1411,-0.0947 0.01,0.0118 -0.1408,0.22377 -0.3217,0.47104 -0.3652,0.49939 -0.3931,0.54254 -0.35,0.54254 0.061,0 0.6124,-0.70714 0.7292,-0.93482 z m 0.6882,0 h 0.1514 c 0.083,0 0.1514,0.005 0.1514,0.0111 0,0.01 -0.5488,0.82583 -0.6423,0.95552 -0.022,0.0303 -0.07,0.0525 -0.1423,0.0663 -0.1167,0.0221 -0.2277,0.0273 -0.2277,0.0106 0,-0.006 0.081,-0.11017 0.1802,-0.23241 0.2094,-0.25811 0.4079,-0.54951 0.4793,-0.7033 z m 0.7534,0.0137 c 0.1694,0.001 0.3404,0.006 0.3469,0.0126 0.01,0.006 -0.072,0.12474 -0.173,0.26542 -0.1005,0.14067 -0.2264,0.32652 -0.2799,0.41298 -0.1288,0.2081 -0.1557,0.22997 -0.2977,0.24174 l -0.1176,0.01 0.092,-0.10741 c 0.2827,-0.32937 0.5487,-0.76204 0.499,-0.81172 -0.018,-0.0178 -0.034,-0.014 -0.067,0.0154 -0.046,0.0415 -0.3392,0.47116 -0.5031,0.73687 -0.054,0.0876 -0.1138,0.16408 -0.1328,0.16999 -0.019,0.006 -0.1,0.0201 -0.1792,0.0315 -0.2354,0.0337 -0.2328,0.0351 -0.1431,-0.0766 0.044,-0.054 0.104,-0.12754 0.1346,-0.16349 0.139,-0.16307 0.482,-0.6811 0.4834,-0.73001 10e-5,-0.006 0.1679,-0.008 0.3373,-0.007 z m 0.4766,0.007 c 0.01,0 0.023,0.0302 0.03,0.0671 0.01,0.0369 0.018,0.0961 0.025,0.13138 0.011,0.0536 0.01,0.066 -0.029,0.0753 -0.044,0.0114 -0.1843,0.21374 -0.2783,0.40015 -0.029,0.0582 -0.082,0.13022 -0.1178,0.16011 -0.051,0.043 -0.086,0.0543 -0.1687,0.0543 h -0.1043 l 0.072,-0.0878 c 0.1982,-0.24201 0.4399,-0.5759 0.4934,-0.68175 0.033,-0.0654 0.068,-0.11879 0.078,-0.11879 z m -3.2817,0.10329 c 0.01,0 0.031,0.0237 0.05,0.0526 0.032,0.05 0.032,0.0564 -0.011,0.12911 -0.078,0.12951 -0.1007,0.15907 -0.1007,0.13158 0,-0.0678 0.049,-0.31331 0.063,-0.31331 z m 0.2214,0.16576 c 0.037,-7.1e-4 0.035,0.004 -0.061,0.14784 h 1e-4 c -0.048,0.0718 -0.1077,0.16743 -0.1333,0.21244 -0.037,0.0655 -0.049,0.0748 -0.06,0.0465 -0.01,-0.0194 -0.01,-0.0499 0,-0.0678 0.025,-0.0663 0.2305,-0.33855 0.2554,-0.33902 z m 0.1721,0.0409 c 0.022,0 0.04,0.005 0.04,0.0116 0,0.006 -0.081,0.13422 -0.1795,0.28406 -0.2218,0.33699 -0.2062,0.31972 -0.2227,0.24473 -0.017,-0.0771 0,-0.10579 0.18,-0.34931 0.093,-0.12504 0.1565,-0.1911 0.1825,-0.1911 z m 2.9887,0.0177 0.044,0.0711 c 0.051,0.0832 0.055,0.10934 0.015,0.12456 -0.016,0.006 -0.058,0.0657 -0.094,0.13247 -0.036,0.0668 -0.091,0.13676 -0.1226,0.15559 -0.032,0.0188 -0.098,0.0406 -0.1471,0.0485 -0.1064,0.017 -0.1051,0.0133 0.061,-0.17229 0.063,-0.0707 0.1439,-0.18064 0.1794,-0.24424 z m 0.1428,0.24165 0.037,0.0554 c 0.02,0.0304 0.031,0.064 0.025,0.0745 -0.013,0.0218 -0.1166,0.0456 -0.1142,0.0263 0,-0.007 0.013,-0.0449 0.027,-0.0844 z m -11.5137,0.0249 c -0.01,0.006 -0.01,0.0247 -0.014,0.0575 -0.018,0.10859 -0.018,0.45334 0,0.57986 l 0.014,0.10099 0.015,-0.0826 c 0.02,-0.10828 0.019,-0.58761 0,-0.63955 -0.01,-0.0163 -0.011,-0.0223 -0.015,-0.0162 z m 14.2617,0.0154 c -0.018,-0.012 -0.035,0.0286 -0.035,0.0993 0,0.0819 -0.046,0.34336 -0.074,0.415 -0.018,0.0455 -0.034,0.0418 -0.088,-0.0194 -0.025,-0.0289 -0.054,-0.0471 -0.065,-0.0404 -0.011,0.006 0.023,0.0652 0.076,0.12996 0.214,0.26382 0.2883,0.35054 0.3973,0.4639 0.079,0.0819 0.1301,0.11879 0.1654,0.11879 0.044,0 0.017,-0.0349 -0.1876,-0.24274 -0.2888,-0.29349 -0.3,-0.31168 -0.2576,-0.41762 0.044,-0.11083 0.1009,-0.42699 0.085,-0.47645 -0.01,-0.0166 -0.011,-0.0264 -0.017,-0.0304 z m -14.9876,0.0493 c -0.011,0.0315 0.059,0.12234 0.3261,0.42327 0.1194,0.13494 0.2404,0.27292 0.2688,0.30661 0.094,0.11202 0.4418,0.40184 0.6198,0.51717 0.2427,0.15722 0.3983,0.23209 0.6786,0.32643 0.227,0.0764 0.4164,0.10488 0.4164,0.0627 0,-0.0104 -0.1046,-0.0537 -0.2325,-0.0961 -0.4703,-0.15618 -0.7048,-0.27569 -1.0048,-0.51196 -0.2544,-0.20042 -0.6027,-0.53248 -0.8461,-0.80659 -0.12,-0.13517 -0.2218,-0.23483 -0.2263,-0.22144 z m 5.2722,0.27643 c 0,0.004 0,0.0181 0.011,0.0328 0.011,0.0175 0.095,0.0324 0.2415,0.0429 0.277,0.0198 2.6286,0.0223 2.8282,0.003 0.08,-0.008 0.1306,-0.0199 0.1136,-0.0271 -0.03,-0.0127 -3.1819,-0.0636 -3.1938,-0.0516 z m -2.206,0.58988 c -0.015,-0.002 -0.047,0.032 -0.073,0.0812 -0.022,0.0426 -0.092,0.13721 -0.1553,0.21022 -0.063,0.073 -0.1155,0.14042 -0.1155,0.14978 0,0.0428 0.064,0.009 0.1408,-0.0742 0.069,-0.0752 0.2104,-0.31147 0.2104,-0.35233 0,-0.009 0,-0.014 -0.01,-0.0146 z m 11.1027,0.32921 c -0.7809,-0.003 -1.3868,-1.9e-4 -1.3973,0.0103 -0.01,0.008 -0.01,0.0215 0,0.0289 0.028,0.0284 0.9386,0.0513 3.1645,0.0796 1.0558,0.0135 1.2912,0.0251 1.2912,0.0641 0,0.0158 0.01,0.0287 0.02,0.0287 0.011,0 0.021,-0.0139 0.021,-0.031 0,-0.0256 0.039,-0.031 0.2272,-0.031 0.125,0 0.2273,0.008 0.2273,0.0171 0,0.009 -0.061,0.0861 -0.1339,0.17044 -0.1231,0.14097 -0.16,0.20493 -0.1184,0.20493 0.033,0 0.2106,-0.19911 0.2581,-0.28922 l 0.049,-0.093 0.2618,-0.006 c 0.2503,-0.006 0.2618,-0.004 0.2618,0.0357 0,0.0525 -0.059,0.20756 -0.096,0.25057 -0.015,0.018 -0.028,0.0473 -0.028,0.0654 0,0.0433 -0.2148,0.26001 -0.3734,0.37671 -0.2445,0.18001 -0.6908,0.26584 -0.9737,0.18727 -0.3069,-0.0852 -0.8663,-0.33314 -1.1319,-0.50167 -0.063,-0.0397 -0.2042,-0.14115 -0.3148,-0.22552 -0.1105,-0.0844 -0.2325,-0.16659 -0.271,-0.1827 -0.054,-0.0228 -0.1702,-0.0283 -0.5169,-0.0249 -0.2811,0.003 -0.4468,0.012 -0.4469,0.025 -1e-4,0.0113 0.1371,0.15627 0.3047,0.322 0.2311,0.22842 0.4127,0.3817 0.7509,0.63361 0.4776,0.35574 0.6448,0.46854 0.8811,0.59475 0.1039,0.0555 0.1431,0.0865 0.1281,0.10148 -0.014,0.0139 -0.2319,0.022 -0.6145,0.0227 -0.4945,7e-4 -0.6117,0.007 -0.7065,0.0359 -0.1346,0.0412 -0.7986,0.0483 -1.4152,0.0153 -0.2045,-0.011 -0.7716,-0.0299 -1.2601,-0.0419 -1.2229,-0.0303 -2.7051,-0.0771 -3.6051,-0.11395 -1.5476,-0.0633 -1.8228,-0.0714 -2.4533,-0.0717 -0.5484,-2.8e-4 -0.6455,0.004 -0.6455,0.0294 0,0.0163 0.01,0.0347 0.018,0.0409 0.01,0.006 0.3496,0.0206 0.7549,0.0323 0.4054,0.0116 1.1201,0.0396 1.5883,0.062 0.8097,0.0389 2.6525,0.10756 3.6092,0.13445 0.2443,0.007 0.8975,0.0161 1.4514,0.0206 0.554,0.004 1.0156,0.0134 1.0259,0.0197 0.012,0.007 0.8545,0.0105 1.6991,0.0107 l 0.6222,-0.003 c 0.6123,-0.002 1.3184,-0.004 1.3607,-0.009 0.049,-0.007 0.07,-0.005 0.081,0.003 l 0.831,-0.004 c 0.041,-0.004 0.086,-0.008 0.1182,-0.0118 0.1484,-0.018 0.5368,-0.0263 1.2293,-0.0263 0.5916,0 1.184,-0.011 1.4254,-0.0264 0.2273,-0.0145 0.5899,-0.0348 0.8057,-0.0451 0.3126,-0.0149 0.2022,-0.017 -0.5422,-0.0103 -0.8626,0.008 -1.0828,-0.004 -0.8503,-0.0425 0.1505,-0.0254 0.055,-0.0573 -0.1775,-0.0596 -0.2106,-0.002 -0.2206,-6e-5 -0.2581,0.0496 l -0.039,0.0516 -0.5436,0.004 -0.5434,0.004 0.3512,-0.0811 c 0.9809,-0.22663 1.076,-0.25688 0.754,-0.23984 -0.262,0.0139 -0.6368,0.08 -1.0639,0.18775 -0.3658,0.0922 -0.6095,0.13208 -0.6095,0.0996 0,-0.0103 0.044,-0.0335 0.098,-0.0516 0.054,-0.018 0.3351,-0.12266 0.6249,-0.23258 0.6218,-0.23589 1.0378,-0.38079 1.5184,-0.5289 0.1932,-0.0595 0.3884,-0.1256 0.4339,-0.14683 l 0.083,-0.0386 -0.1688,0.01 c -0.3073,0.0182 -0.8134,0.17087 -1.7784,0.53677 -0.2812,0.10662 -0.6041,0.22757 -0.7178,0.26882 -0.1136,0.0413 -0.2287,0.0843 -0.2558,0.0957 -0.027,0.0114 -0.052,0.0177 -0.056,0.0141 -0.01,-0.004 0.093,-0.0807 0.2143,-0.1712 0.2525,-0.18812 0.3673,-0.32087 0.508,-0.58778 0.085,-0.1617 0.1046,-0.2217 0.1385,-0.42985 0.022,-0.13304 0.039,-0.28452 0.039,-0.33663 v -0.0947 l 1.2344,-0.0153 c 1.468,-0.0181 2.312,-0.0396 2.332,-0.0597 0.01,-0.008 0.01,-0.0197 0,-0.0261 -0.01,-0.006 -1.1537,-0.0109 -2.5497,-0.01 -1.3959,7e-4 -3.0586,-0.008 -3.695,-0.0201 -0.7103,-0.0133 -1.6662,-0.0223 -2.4471,-0.0254 z m 1.4244,0.14591 c -0.013,7e-4 -0.021,0.007 -0.021,0.0192 10e-5,0.0215 0.2177,0.19514 0.3858,0.3079 0.2398,0.16082 0.4924,0.27289 0.8124,0.36045 0.1484,0.0406 0.2685,0.0496 0.2685,0.0201 0,-0.0191 -0.1146,-0.0662 -0.3305,-0.13578 -0.3445,-0.11103 -0.6231,-0.25355 -0.8849,-0.4528 -0.1002,-0.0763 -0.1915,-0.12167 -0.2308,-0.11907 z m 1.1054,0.004 c -0.051,0 -0.093,0.009 -0.093,0.0206 0,0.0113 0.042,0.0206 0.093,0.0206 0.051,0 0.093,-0.009 0.093,-0.0206 0,-0.0113 -0.042,-0.0206 -0.093,-0.0206 z m 2.1471,0.006 c 0.058,2e-5 0.1105,0.004 0.1541,0.01 0.1198,0.0175 0.095,0.0199 -0.2044,0.0198 l -0.3408,-1.6e-4 0.2044,-0.0198 c 0.065,-0.006 0.1287,-0.009 0.1867,-0.009 z m 0.9917,0.45482 c -0.023,0.004 -0.044,0.0119 -0.067,0.0256 -0.1058,0.0625 -0.1357,0.19839 -0.049,0.22333 0.1189,0.0343 0.3348,-0.0565 0.3348,-0.14094 0,-0.0623 -0.035,-0.089 -0.1385,-0.10555 -0.032,-0.005 -0.056,-0.006 -0.08,-0.002 z m -14.0146,0.0425 c -0.1288,-0.009 -0.1457,-0.005 -0.2051,0.0447 -0.1,0.084 -0.086,0.19379 0.028,0.22168 0.086,0.0209 0.304,-0.029 0.3667,-0.0838 0.049,-0.0431 0.046,-0.12181 -0.01,-0.14994 -0.024,-0.0126 -0.106,-0.0273 -0.1832,-0.0328 z m 14.0676,0.0548 c 0.027,0 0.027,0.002 0,0.02 -0.017,0.011 -0.045,0.0201 -0.062,0.0201 -0.028,0 -0.028,-0.002 0,-0.0201 0.017,-0.011 0.045,-0.02 0.062,-0.02 z m -14.0973,0.0406 c 0.043,0 0.067,0.008 0.059,0.0206 -0.01,0.0113 -0.045,0.0206 -0.085,0.0206 -0.043,0 -0.067,-0.008 -0.06,-0.0206 0.01,-0.0113 0.045,-0.0206 0.085,-0.0206 z m 1.7073,0.25638 c -0.039,-0.005 -0.079,-0.004 -0.1168,0.003 -0.1427,0.0268 -0.1173,0.0794 0.049,0.10232 0.1343,0.0185 0.1663,0.0413 0.1135,0.081 -0.068,0.0508 -0.2175,0.0946 -0.3238,0.0946 -0.108,0 -0.1346,-0.0329 -0.043,-0.053 0.093,-0.0202 0.1705,-0.054 0.1705,-0.074 0,-0.0333 -0.096,-0.0562 -0.1677,-0.04 -0.096,0.0218 -0.1967,0.0763 -0.2115,0.1148 -0.02,0.0535 0.031,0.13414 0.099,0.15523 0.093,0.0288 0.3273,0.009 0.4299,-0.0365 0.099,-0.0437 0.2225,-0.15676 0.2225,-0.20344 0,-0.0687 -0.1052,-0.12967 -0.2218,-0.14389 z m -1.2037,0.0535 c -0.011,0 -0.02,0.009 -0.02,0.0206 0,0.0113 0.01,0.0206 0.02,0.0206 0.011,0 0.02,-0.009 0.02,-0.0206 0,-0.0113 -0.01,-0.0206 -0.02,-0.0206 z m 14.996,0.10329 c -0.1455,0 -0.1934,0.0173 -0.2947,0.10625 -0.1315,0.11548 -0.1449,0.21542 -0.037,0.27655 0.073,0.0411 0.2666,0.0274 0.3706,-0.0263 0.088,-0.0454 0.1703,-0.15386 0.1703,-0.22451 0,-0.0843 -0.076,-0.13202 -0.2091,-0.13202 z m -14.628,0.042 c -0.2828,-6.2e-4 -0.3225,0.009 -0.2981,0.0727 0.015,0.0396 0.1276,0.0387 0.346,-0.003 0.2751,-0.0522 0.2633,-0.0692 -0.048,-0.0699 z m 14.5035,0.0461 c 0.013,-0.002 0.035,-3.1e-4 0.071,0.006 0.049,0.008 0.095,0.0187 0.1033,0.0237 0.029,0.0173 0.015,0.0615 -0.033,0.10705 -0.053,0.0499 -0.2312,0.0805 -0.2791,0.048 -0.022,-0.0147 -0.011,-0.0319 0.046,-0.0757 0.041,-0.0312 0.075,-0.0704 0.075,-0.0871 0,-0.0121 0.01,-0.0189 0.018,-0.0213 z m -12.6401,0.0468 c -0.022,-0.007 -0.049,-0.009 -0.064,6.5e-4 -0.016,0.01 -0.015,0.0195 0.01,0.032 0.037,0.0234 0.074,0.023 0.089,-7.1e-4 0.01,-0.0121 -0.01,-0.0247 -0.03,-0.0319 z m -1.9473,0.11508 c -0.108,-0.001 -0.1395,0.005 -0.1395,0.0274 0,0.0162 0.016,0.034 0.036,0.0396 0.038,0.0109 0.181,-1e-4 0.284,-0.0218 l 0.062,-0.013 -0.051,-0.0151 c -0.028,-0.008 -0.1144,-0.0161 -0.1911,-0.0171 z m 2.0885,0.0806 c -0.098,0 -0.1362,0.0289 -0.064,0.0478 0.066,0.0174 0.6431,0.0145 0.6541,-0.004 0.01,-0.0163 -0.3635,-0.0444 -0.5901,-0.0444 z m -4.0197,0.10963 v 4e-5 c -0.02,0.005 -0.01,0.01 0.025,0.0103 0.034,4.2e-4 0.051,-0.004 0.037,-0.01 -0.014,-0.006 -0.042,-0.006 -0.062,-7e-4 z m 0,0.0674 c -0.01,0.004 0,0.0215 0.01,0.039 0.01,0.0247 0.046,0.0319 0.1609,0.0319 0.082,0 0.1418,-0.007 0.1334,-0.0155 -0.017,-0.017 -0.2864,-0.067 -0.2989,-0.0554 z m 10.7189,0.21207 c 0.045,-2.7e-4 0.09,0.004 0.098,0.0113 0.01,0.007 -0.037,0.0127 -0.097,0.0127 -0.061,0 -0.1051,-0.005 -0.099,-0.0115 0.01,-0.008 0.053,-0.0122 0.098,-0.0125 z m 0.6564,0.0311 c 0.014,-0.006 0.037,-0.006 0.051,0 0.014,0.006 0,0.0104 -0.026,0.0104 -0.028,0 -0.04,-0.005 -0.026,-0.0104 z m 2.1043,0.0181 c 0.089,-0.002 0.1722,0.002 0.2147,0.0144 0.039,0.011 0.015,0.0183 -0.093,0.0288 -0.08,0.008 -0.2236,0.0133 -0.3201,0.0125 l -0.1756,-0.001 0.1239,-0.0279 c 0.066,-0.0149 0.161,-0.0239 0.2501,-0.0261 z m -1.6394,0.022 c 0.031,-0.005 0.082,-0.005 0.1136,0 0.031,0.005 0.01,0.009 -0.057,0.009 -0.063,0 -0.088,-0.004 -0.057,-0.009 z" />
    </g>
  </g>
</svg>
