<?xml version="1.0" encoding="UTF-8" standalone="no"?>
<!-- Created with Inkscape (http://www.inkscape.org/) -->

<svg
   width="6mm"
   height="6mm"
   viewBox="0 0 6 6"
   version="1.1"
   id="svg1"
   inkscape:version="1.4.2 (ebf0e940d0, 2025-05-08)"
   sodipodi:docname="5_1_1_28.svg"
   xmlns:inkscape="http://www.inkscape.org/namespaces/inkscape"
   xmlns:sodipodi="http://sodipodi.sourceforge.net/DTD/sodipodi-0.dtd"
   xmlns="http://www.w3.org/2000/svg"
   xmlns:svg="http://www.w3.org/2000/svg">
  <sodipodi:namedview
     id="namedview1"
     pagecolor="#ffffff"
     bordercolor="#000000"
     borderopacity="0.25"
     inkscape:showpageshadow="2"
     inkscape:pageopacity="0.0"
     inkscape:pagecheckerboard="0"
     inkscape:deskcolor="#d1d1d1"
     inkscape:document-units="mm"
     inkscape:zoom="7.0139384"
     inkscape:cx="48.118472"
     inkscape:cy="30.510676"
     inkscape:window-width="1920"
     inkscape:window-height="1014"
     inkscape:window-x="0"
     inkscape:window-y="0"
     inkscape:window-maximized="1"
     inkscape:current-layer="layer1" />
  <defs
     id="defs1">
    <rect
       x="13.485725"
       y="-52.819092"
       width="225.2477"
       height="118.63495"
       id="rect1" />
    <rect
       x="37.795277"
       y="37.795277"
       width="483.77954"
       height="718.11023"
       id="rect2721" />
    <rect
       x="37.795277"
       y="37.795277"
       width="483.77954"
       height="718.11023"
       id="rect2722" />
    <rect
       x="37.795277"
       y="37.795277"
       width="483.77954"
       height="718.11023"
       id="rect2723" />
    <rect
       x="37.795277"
       y="37.795277"
       width="483.77954"
       height="718.11023"
       id="rect2724" />
    <rect
       x="37.795277"
       y="37.795277"
       width="483.77954"
       height="718.11023"
       id="rect2725" />
    <rect
       x="37.795277"
       y="37.795277"
       width="483.77954"
       height="718.11023"
       id="rect2726" />
    <rect
       x="37.795277"
       y="37.795277"
       width="483.77954"
       height="718.11023"
       id="rect2727" />
    <rect
       x="37.795277"
       y="37.795277"
       width="483.77954"
       height="718.11023"
       id="rect2728" />
    <rect
       x="37.795277"
       y="37.795277"
       width="483.77954"
       height="718.11023"
       id="rect2729" />
    <rect
       x="37.795277"
       y="37.795277"
       width="483.77954"
       height="718.11023"
       id="rect2730" />
    <rect
       x="37.795277"
       y="37.795277"
       width="483.77954"
       height="718.11023"
       id="rect2731" />
    <rect
       x="37.795277"
       y="37.795277"
       width="483.77954"
       height="718.11023"
       id="rect2732" />
    <rect
       x="37.795277"
       y="37.795277"
       width="483.77954"
       height="718.11023"
       id="rect2733" />
    <rect
       x="37.795277"
       y="37.795277"
       width="483.77954"
       height="718.11023"
       id="rect2734" />
  </defs>
  <g
     inkscape:label="Katman 1"
     inkscape:groupmode="layer"
     id="layer1">
    <g
       id="g1"
       transform="matrix(0.70691055,0,0,0.70691055,1.8703728,1.309255)">
      <ellipse
         style="fill:#80b3ff;stroke-width:0.263579"
         id="path6410"
         cx="1.5858474"
         cy="2.3812172"
         rx="4.1680846"
         ry="4.2332973" />
      <path
         style="fill:#d5e5ff;stroke-width:0.264583"
         d="m -1.36743,-0.4302 1.79713,0.0821 2.29058,0.0446 0.59275,-0.0658 v -0.24774 l -0.48906,-0.19044 -3.3778,-0.31494 -0.49959,0.22797 z"
         id="path6411" />
      <path
         style="fill:#3771c8;stroke-width:0.264583"
         d="m -2.23272,0.68431 3.13045,0.4929 0.0309,0.22303 -0.72363,0.17569 -1.33234,0.0626 -0.47074,0.34731 -0.96565,-0.003 0.14824,-0.787 z"
         id="path6412" />
      <path
         style="fill:#afc6e9;stroke-width:0.264583"
         d="M 5.67478,1.56001 4.46587,1.85742 2.40426,1.91592 2.27271,2.09271 2.444,2.30214 3.64415,2.39634 5.74947,2.18536 Z"
         id="path6413" />
      <path
         style="fill:#5f8dd3;stroke-width:0.264583"
         d="M -1.4074,3.29938 -0.30766,3.26668 0.65002,3.39638 3.211,3.5777 3.37761,3.78122 3.10242,3.96665 1.96889,4.06868 2.16775,4.61766 1.8063,4.84946 0.42052,4.23558 -0.90287,3.8193 -1.52975,3.66389 Z"
         id="path6414" />
      <path
         style="fill:#b7bec8;stroke-width:0.264583"
         d="M 0.02135,5.67656 2.23818,5.66226 3.4404,5.32942 4.56096,5.34612 3.0749,6.3352 1.58585,6.49441 1.1812,6.43101 0.96149,6.11981 0.12797,5.90096 Z"
         id="path6415" />
      <path
         style="fill:#000000;stroke-width:0.230394"
         d="M 0.86639,6.57732 C -0.37848,6.35279 -1.54788,5.50375 -2.13787,4.39607 c -1.13459,-2.13013 -0.30344,-4.74615 1.84485,-5.80665 0.69739,-0.34426 1.15214,-0.44713 1.95067,-0.44126 0.75822,0.006 1.24497,0.1272 1.92018,0.47982 2.5154,1.31364 3.04124,4.72026 1.0384,6.72723 C 3.80421,6.16891 2.89609,6.57075 1.77956,6.61042 1.44429,6.62232 1.03336,6.60742 0.86639,6.57732 Z M 0.9809,6.27253 C 0.9484,6.24003 0.7761,6.18583 0.59794,6.15207 0.14814,6.06677 -0.04545,5.96252 -0.06959,5.79262 c -0.0112,-0.079 0.002,-0.16609 0.0305,-0.19356 0.0662,-0.065 1.13411,-0.0799 1.758,-0.0245 0.45391,0.0403 0.52835,0.0292 1.06677,-0.15843 C 3.24144,5.25726 3.49043,5.20874 3.95684,5.18788 L 4.54917,5.16138 4.7883,4.84835 C 5.25976,4.23121 5.52898,3.5337 5.62085,2.69134 5.66895,2.25049 5.70235,2.2668 5.04085,2.40816 4.7353,2.47346 4.25864,2.50716 3.60369,2.50963 2.7571,2.51263 2.59116,2.49753 2.38452,2.39663 2.10377,2.25959 2.05113,2.08219 2.24033,1.91076 2.35706,1.805 2.49708,1.78839 3.53838,1.75679 4.5157,1.72709 4.77301,1.69929 5.12008,1.58577 5.58302,1.43432 5.56607,1.49067 5.33587,0.86895 5.03465,0.05545 4.2334,-0.80257 3.38392,-1.2213 2.35518,-1.72839 1.29597,-1.78708 0.2099,-1.39716 c -0.30211,0.10847 -0.45375,0.22588 -0.30479,0.236 0.0252,0.002 0.48462,0.028 1.02106,0.0584 1.89554,0.10745 2.49929,0.25573 2.49929,0.61382 0,0.28464 -0.15448,0.30487 -2.07259,0.27142 -0.97228,-0.017 -1.98109,-0.0485 -2.2418,-0.0701 -0.40855,-0.0338 -0.49104,-0.0238 -0.59729,0.0723 -0.11447,0.10359 -0.54409,0.76413 -0.54409,0.83654 0,0.0383 0.663,0.14546 1.21916,0.19697 0.69785,0.0646 1.65908,0.21481 1.77619,0.27748 0.0631,0.0338 0.11352,0.12681 0.11352,0.20944 0,0.26889 -0.28161,0.35307 -1.28012,0.38265 -0.73358,0.0217 -0.90463,0.0445 -1.00582,0.13389 -0.22453,0.19837 -0.41571,0.26098 -0.81879,0.26818 l -0.40037,0.007 -0.0189,0.19561 c -0.027,0.27956 0.13515,1.14499 0.29239,1.56021 0.43882,1.15882 1.58167,2.16269 2.7785,2.4406 0.37255,0.0865 0.45787,0.0815 0.35549,-0.0209 z M 1.47384,4.87977 C 1.40624,4.85797 1.18683,4.74059 0.98618,4.61894 0.60922,4.3904 -0.40189,4.04764 -0.97358,3.9546 -1.46149,3.8752 -1.63078,3.77588 -1.6523,3.55646 -1.6841,3.23199 -1.50168,3.13364 -0.87984,3.14003 c 0.29124,0.003 0.62472,0.0365 0.74105,0.0743 0.11634,0.0379 0.58184,0.0813 1.03446,0.0964 1.30876,0.0437 2.14855,0.10315 2.35922,0.16707 0.23658,0.0718 0.31354,0.25944 0.171,0.41695 C 3.30517,4.02814 2.82853,4.1535 2.50037,4.13817 2.03596,4.11647 2.03422,4.11747 2.18028,4.315 2.34094,4.5323 2.29667,4.71455 2.05258,4.84077 1.87023,4.93507 1.68412,4.9476 1.47384,4.87977 Z M 1.95745,4.65073 C 2.08848,4.60043 2.07863,4.4852 1.93195,4.35246 1.77746,4.21265 1.77571,4.03985 1.92795,3.95837 c 0.0648,-0.0347 0.32366,-0.0631 0.57513,-0.0631 0.48771,0 0.83011,-0.0862 0.73207,-0.18418 C 3.16625,3.64219 1.72244,3.53124 0.86518,3.529 0.52992,3.52808 0.06359,3.4867 -0.17108,3.437 -0.85507,3.29212 -1.42075,3.32152 -1.42075,3.5019 c 0,0.11832 0.089,0.15735 0.56566,0.24818 0.67261,0.12816 1.56205,0.44002 1.99459,0.69935 0.37791,0.22658 0.60579,0.28264 0.81795,0.20123 z m 0.5684,1.65231 C 3.00202,6.19077 3.57739,5.92729 3.97387,5.63997 L 4.27846,5.41923 H 3.86707 c -0.29943,0 -0.55543,0.0499 -0.94069,0.1834 -0.56298,0.19507 -0.68775,0.20589 -1.985,0.17211 -0.42747,-0.0111 -0.77722,-0.002 -0.77721,0.0212 0,0.0228 0.15773,0.0717 0.35051,0.10881 0.42058,0.0809 0.63446,0.18901 0.71547,0.36163 0.0528,0.11256 0.1124,0.12811 0.48767,0.12732 C 1.95294,6.39324 2.31655,6.3524 2.52585,6.3031 Z M 5.17799,2.15735 C 5.5662,2.05765 5.58946,2.04178 5.58946,1.87624 5.58946,1.66636 5.55526,1.66361 5.04083,1.83224 4.70118,1.94356 4.49053,1.96304 3.5657,1.96861 2.79923,1.97361 2.46501,1.99691 2.41156,2.05031 2.22229,2.23942 2.6383,2.31007 3.79119,2.2846 4.45447,2.27 4.89816,2.2293 5.17799,2.15739 Z m -6.53583,-0.48893 0.18892,-0.181 0.83418,-0.007 c 0.79819,-0.006 1.2588,-0.0878 1.13366,-0.2001 -0.0683,-0.0613 -0.88297,-0.18329 -1.70152,-0.2548 -0.33527,-0.0293 -0.71931,-0.0807 -0.85342,-0.11437 -0.13411,-0.0336 -0.27592,-0.0618 -0.31513,-0.0626 -0.0753,-0.002 -0.22981,0.41786 -0.29963,0.81359 l -0.0416,0.23593 0.43282,-0.0245 c 0.37973,-0.0214 0.456,-0.0466 0.62174,-0.20545 z m 4.55031,-2.12221 c 0.0796,-0.0796 -0.12494,-0.21843 -0.36636,-0.24872 -0.13975,-0.0175 -0.57883,-0.0737 -0.97573,-0.12491 -0.39691,-0.0512 -0.93364,-0.093 -1.19273,-0.093 -0.2591,0 -0.62806,-0.029 -0.8199,-0.0645 -0.31115,-0.0575 -0.37038,-0.0512 -0.54859,0.059 -0.10988,0.0679 -0.24717,0.17583 -0.30508,0.23983 -0.0999,0.11034 -0.0997,0.11882 0.004,0.16411 0.11663,0.051 3.06121,0.14521 3.75374,0.12015 0.22751,-0.008 0.43029,-0.0316 0.45064,-0.052 z"
         id="path41"
         sodipodi:nodetypes="csssssscssssssscssssssssssscsssssssssssscssssssssssssssssssssssscsssssssscssssssssssssssssccsssscscsscssssssssss" />
    </g>
  </g>
</svg>
