<?xml version="1.0" encoding="UTF-8" standalone="no"?>
<!-- Created with Inkscape (http://www.inkscape.org/) -->

<svg
   width="6mm"
   height="6mm"
   viewBox="0 0 6 6"
   version="1.1"
   id="svg1"
   inkscape:version="1.4.2 (ebf0e940d0, 2025-05-08)"
   sodipodi:docname="5_1_1_23.svg"
   xmlns:inkscape="http://www.inkscape.org/namespaces/inkscape"
   xmlns:sodipodi="http://sodipodi.sourceforge.net/DTD/sodipodi-0.dtd"
   xmlns="http://www.w3.org/2000/svg"
   xmlns:svg="http://www.w3.org/2000/svg">
  <sodipodi:namedview
     id="namedview1"
     pagecolor="#ffffff"
     bordercolor="#000000"
     borderopacity="0.25"
     inkscape:showpageshadow="2"
     inkscape:pageopacity="0.0"
     inkscape:pagecheckerboard="0"
     inkscape:deskcolor="#d1d1d1"
     inkscape:document-units="mm"
     inkscape:zoom="24.997208"
     inkscape:cx="19.102133"
     inkscape:cy="11.001229"
     inkscape:window-width="1920"
     inkscape:window-height="1014"
     inkscape:window-x="0"
     inkscape:window-y="0"
     inkscape:window-maximized="1"
     inkscape:current-layer="layer1" />
  <defs
     id="defs1">
    <rect
       x="13.485725"
       y="-52.819092"
       width="225.2477"
       height="118.63495"
       id="rect1" />
    <rect
       x="37.795277"
       y="37.795277"
       width="483.77954"
       height="718.11023"
       id="rect2721" />
    <rect
       x="37.795277"
       y="37.795277"
       width="483.77954"
       height="718.11023"
       id="rect2722" />
    <rect
       x="37.795277"
       y="37.795277"
       width="483.77954"
       height="718.11023"
       id="rect2723" />
    <rect
       x="37.795277"
       y="37.795277"
       width="483.77954"
       height="718.11023"
       id="rect2724" />
    <rect
       x="37.795277"
       y="37.795277"
       width="483.77954"
       height="718.11023"
       id="rect2725" />
    <rect
       x="37.795277"
       y="37.795277"
       width="483.77954"
       height="718.11023"
       id="rect2726" />
    <rect
       x="37.795277"
       y="37.795277"
       width="483.77954"
       height="718.11023"
       id="rect2727" />
    <rect
       x="37.795277"
       y="37.795277"
       width="483.77954"
       height="718.11023"
       id="rect2728" />
    <rect
       x="37.795277"
       y="37.795277"
       width="483.77954"
       height="718.11023"
       id="rect2729" />
    <rect
       x="37.795277"
       y="37.795277"
       width="483.77954"
       height="718.11023"
       id="rect2730" />
    <rect
       x="37.795277"
       y="37.795277"
       width="483.77954"
       height="718.11023"
       id="rect2731" />
    <rect
       x="37.795277"
       y="37.795277"
       width="483.77954"
       height="718.11023"
       id="rect2732" />
    <rect
       x="37.795277"
       y="37.795277"
       width="483.77954"
       height="718.11023"
       id="rect2733" />
    <rect
       x="37.795277"
       y="37.795277"
       width="483.77954"
       height="718.11023"
       id="rect2734" />
  </defs>
  <g
     inkscape:label="Katman 1"
     inkscape:groupmode="layer"
     id="layer1">
    <g
       id="g19"
       transform="matrix(0.74998436,0,0,0.74998436,-719.2788,-97.004719)">
      <path
         style="fill:#c8beb7;stroke-width:0.264999"
         d="m 962.19316,136.59818 0.79906,-0.24361 1.21997,-0.22179 0.58473,-0.11212 0.67101,-0.4774 0.61013,-0.41412 0.29575,-0.51496 0.5878,-1.17555 0.0692,-0.26716 -0.11002,-0.42624 -0.0514,-0.5869 -0.041,-0.43777 -0.40143,-0.53774 -0.49244,-0.63206 -0.71467,-0.21202 -0.36525,-0.12504 h -0.83503 l -0.6876,0.0809 -0.22296,0.0748 -0.58105,0.50597 -0.82751,0.23356 -0.74594,0.25749 -0.46702,0.47745 -0.78465,1.00057 -0.41264,0.5285 0.0135,0.51071 0.088,0.38989 -0.25278,0.59972 -0.0507,0.29454 0.23011,0.4434 0.5543,0.83829 0.12303,0.13274 1.38795,0.0599 z"
         id="path24" />
      <path
         style="fill:#ac9d93;stroke-width:0.264999"
         d="m 960.13885,136.16877 0.15298,0.14947 0.39082,0.0604 0.95361,-0.031 0.24964,-0.0491 0.18015,-0.14664 0.008,-0.26025 -0.13123,-0.28176 -0.27223,-0.19803 -0.24877,-0.0502 -0.28262,0.0454 -0.63445,0.26723 -0.32223,0.24304 -0.0511,0.14372 z"
         id="path25" />
      <path
         style="fill:#ac9d93;stroke-width:0.264999"
         d="m 959.76243,133.38261 0.15232,0.12366 0.48017,-0.003 0.51247,-0.19022 0.23167,-0.24522 0.1353,-0.38886 0.0378,-0.40079 -0.0947,-0.27542 -0.19891,-0.0654 -0.18262,0.0296 -0.36824,0.26424 -0.6277,0.79752 -0.10499,0.27614 z"
         id="path26" />
      <path
         style="fill:#ac9d93;stroke-width:0.264999"
         d="m 962.33426,133.34668 0.10221,0.396 0.24807,0.25214 0.40884,0.0692 0.55615,-0.0412 0.39383,-0.15447 0.12605,-0.17517 -0.005,-0.58078 -0.12848,-0.29976 -0.33277,-0.094 -0.70212,0.13772 -0.53655,0.19438 z"
         id="path27" />
      <path
         style="fill:#ac9d93;stroke-width:0.264999"
         d="m 963.57359,130.66169 0.13095,0.23348 0.29003,0.19951 0.3573,0.05 0.55308,-0.0396 0.33708,-0.13166 0.0439,-0.16823 -0.15676,-0.22656 -0.2857,-0.0676 -0.74808,-0.0332 -0.43636,0.0857 z"
         id="path28" />
      <path
         style="fill:#ac9d93;stroke-width:0.264999"
         d="m 965.86735,132.58378 0.38491,-0.0532 0.32277,-0.17541 0.0881,-0.27983 -0.0436,-0.24716 -0.15182,-0.13435 -0.21212,0.0367 -0.33827,0.23146 -0.1347,0.20098 -0.0513,0.26291 0.0437,0.12175 z"
         id="path29" />
      <path
         style="fill:#ac9d93;fill-opacity:1;stroke-width:0.264999"
         d="m 964.35419,135.64992 0.39709,0.051 0.26572,-0.10382 0.79552,-0.53475 0.16264,-0.20872 0.005,-0.23274 -0.19553,-0.20463 -0.3538,-0.0242 -0.35729,0.12217 -0.60738,0.41444 -0.30898,0.35583 -0.0172,0.22446 0.0842,0.085 z"
         id="path30" />
      <path
         style="fill:#000000;stroke-width:0.0262222"
         d="m 960.67079,136.6729 c -0.24523,-0.005 -0.29817,-0.007 -0.47178,-0.0245 -0.2191,-0.0215 -0.27781,-0.0511 -0.37078,-0.18696 -0.0208,-0.0303 -0.0396,-0.0567 -0.0419,-0.0587 -0.002,-0.002 -0.0149,-0.0207 -0.028,-0.0416 -0.0132,-0.021 -0.0264,-0.0412 -0.0294,-0.0451 -0.003,-0.004 -0.0153,-0.0225 -0.0275,-0.0416 -0.0121,-0.0191 -0.0364,-0.0565 -0.054,-0.0832 -0.0176,-0.0267 -0.0343,-0.0532 -0.0372,-0.059 -0.003,-0.006 -0.0214,-0.0359 -0.0412,-0.0672 -0.0198,-0.0312 -0.0715,-0.11394 -0.11474,-0.18385 -0.0433,-0.0699 -0.0909,-0.14586 -0.10575,-0.16875 -0.0149,-0.0229 -0.0292,-0.0463 -0.0318,-0.052 -0.003,-0.006 -0.0318,-0.0542 -0.065,-0.10754 -0.117,-0.18855 -0.15996,-0.27448 -0.18084,-0.36167 -0.0348,-0.14512 4.1e-4,-0.29421 0.13882,-0.58744 0.0195,-0.0412 0.0353,-0.076 0.0353,-0.0773 0,-9.2e-4 0.0168,-0.0378 0.0374,-0.0812 0.0716,-0.15081 0.0757,-0.16342 0.0706,-0.21372 -0.004,-0.0373 -0.0389,-0.20399 -0.0667,-0.31602 -0.034,-0.13765 -0.0511,-0.37084 -0.0347,-0.47276 0.02,-0.12392 0.0591,-0.18646 0.28728,-0.45961 0.0339,-0.0405 0.0729,-0.0872 0.0867,-0.10381 0.0138,-0.0166 0.0311,-0.0369 0.0382,-0.0451 0.007,-0.008 0.0368,-0.0446 0.0658,-0.0808 0.0291,-0.0363 0.0545,-0.0674 0.0566,-0.0694 0.002,-0.002 0.0145,-0.0175 0.0278,-0.0347 0.0132,-0.0172 0.0271,-0.0347 0.0311,-0.0389 0.007,-0.008 0.0514,-0.0626 0.11135,-0.13794 0.0213,-0.0267 0.0502,-0.0623 0.0643,-0.079 0.0141,-0.0167 0.0397,-0.0484 0.0569,-0.0705 0.0172,-0.0221 0.0637,-0.0802 0.10356,-0.12917 0.0398,-0.049 0.10375,-0.1281 0.14213,-0.1758 0.0384,-0.0477 0.0714,-0.0883 0.0734,-0.0902 0.002,-0.002 0.0121,-0.0149 0.0225,-0.0289 0.0104,-0.014 0.023,-0.0296 0.0279,-0.0347 0.005,-0.006 0.04,-0.0483 0.0781,-0.096 0.038,-0.0477 0.0755,-0.0932 0.0832,-0.10105 0.007,-0.007 0.0249,-0.0281 0.0382,-0.0451 0.10307,-0.13174 0.24577,-0.26426 0.31785,-0.2952 0.0945,-0.0406 0.16104,-0.0658 0.23366,-0.0886 0.0458,-0.0144 0.0911,-0.0293 0.1006,-0.0332 0.0345,-0.0141 0.55327,-0.17394 0.67992,-0.20948 0.021,-0.006 0.0662,-0.0187 0.1006,-0.0284 0.0343,-0.01 0.11864,-0.0318 0.18732,-0.0492 0.0687,-0.0172 0.14519,-0.0396 0.16999,-0.0496 0.0812,-0.0328 0.2516,-0.15228 0.36318,-0.25461 0.0423,-0.0387 0.16199,-0.15647 0.18958,-0.18641 0.10325,-0.11202 0.17907,-0.14353 0.46203,-0.19202 0.13152,-0.0225 0.17175,-0.0279 0.3728,-0.0491 0.54975,-0.0581 1.15723,-0.0133 1.41188,0.1042 0.0855,0.0395 0.10861,0.0479 0.17146,0.0626 0.35013,0.0824 0.4425,0.11261 0.52299,0.17137 0.0118,0.008 0.0244,0.0157 0.0279,0.0157 0.004,0 0.0349,0.0289 0.0696,0.0642 0.059,0.0601 0.11835,0.13261 0.17635,0.21598 0.0469,0.0673 0.0592,0.0843 0.12061,0.16735 0.034,0.0458 0.0638,0.0848 0.0662,0.0867 0.002,0.002 0.0121,0.0147 0.0214,0.0283 0.009,0.0136 0.0268,0.0371 0.0389,0.052 0.0122,0.0149 0.0541,0.0677 0.0931,0.11737 0.1225,0.15566 0.13089,0.1663 0.13849,0.17538 0.005,0.005 0.029,0.0392 0.0553,0.0763 0.0263,0.0371 0.0505,0.0706 0.0537,0.0744 0.01,0.0117 0.0533,0.095 0.0705,0.13529 0.0376,0.0881 0.0514,0.20103 0.0473,0.38893 -0.006,0.31408 0.0108,0.46991 0.0826,0.73155 0.0672,0.24486 0.0655,0.23643 0.0661,0.33056 6e-4,0.0972 -0.0204,0.18353 -0.0721,0.29732 -0.0276,0.0608 -0.15217,0.30786 -0.15744,0.31222 -0.002,0.002 -0.0352,0.0643 -0.0729,0.13875 -0.0378,0.0745 -0.0843,0.16495 -0.1034,0.20121 -0.0191,0.0363 -0.10939,0.21421 -0.20068,0.39546 -0.0913,0.18126 -0.16992,0.33424 -0.17474,0.33996 -0.008,0.01 -0.0157,0.0225 -0.0686,0.11795 -0.0449,0.0813 -0.0752,0.12325 -0.1173,0.16322 -0.0471,0.0446 -0.15217,0.11982 -0.22408,0.16023 -0.0114,0.006 -0.0333,0.0207 -0.0486,0.0316 -0.0153,0.011 -0.0902,0.0614 -0.16657,0.11187 -0.0763,0.0506 -0.17587,0.11835 -0.22123,0.15068 -0.0453,0.0323 -0.1,0.071 -0.12142,0.0859 -0.0331,0.0231 -0.12056,0.0882 -0.143,0.10656 -0.004,0.003 -0.0225,0.0162 -0.0416,0.0292 -0.0191,0.0129 -0.0363,0.0255 -0.0382,0.0279 -0.002,0.003 -0.0191,0.015 -0.0382,0.0282 -0.0191,0.0132 -0.0363,0.0258 -0.0382,0.0282 -0.006,0.007 -0.11908,0.0793 -0.16113,0.10239 -0.0449,0.0247 -0.13072,0.0576 -0.20302,0.0777 -0.0764,0.0212 -0.38673,0.082 -0.5482,0.10736 -0.0554,0.008 -0.54816,0.0913 -0.63829,0.10709 -0.26026,0.0454 -0.451,0.0824 -0.61055,0.11829 -0.0534,0.012 -0.11117,0.025 -0.12834,0.0288 -0.10554,0.0234 -0.28857,0.0804 -0.37465,0.11673 -0.14246,0.0601 -0.16919,0.0696 -0.21294,0.0759 -0.0719,0.0104 -0.38631,0.021 -0.73756,0.0248 -0.17363,0.002 -0.35471,0.005 -0.40242,0.006 -0.0477,9.3e-4 -0.19286,-4e-5 -0.3226,-0.003 z m 0.71461,-0.0724 c 0.52325,-0.006 0.75965,-0.0186 0.80565,-0.0412 0.14044,-0.0692 0.31632,-0.12782 0.54379,-0.18139 0.16549,-0.0389 0.55884,-0.11716 0.70767,-0.14067 0.0761,-0.012 0.69907,-0.11714 0.78746,-0.13288 0.0458,-0.008 0.0989,-0.0174 0.11794,-0.0207 0.12478,-0.0209 0.30338,-0.0641 0.37268,-0.0901 0.0678,-0.0255 0.19509,-0.0981 0.25175,-0.14372 0.0288,-0.0232 0.19307,-0.14392 0.25305,-0.18599 0.0272,-0.0191 0.0532,-0.0379 0.0577,-0.0418 0.0141,-0.0121 0.16218,-0.1152 0.27891,-0.19414 0.0611,-0.0413 0.11881,-0.0804 0.12835,-0.0869 0.022,-0.0149 0.13434,-0.088 0.22895,-0.14886 0.04,-0.0257 0.0853,-0.0579 0.10061,-0.0715 0.0372,-0.0331 0.0841,-0.0962 0.12474,-0.16787 0.0184,-0.0324 0.0399,-0.0703 0.048,-0.0842 0.0386,-0.0669 0.10724,-0.1982 0.18263,-0.34939 0.0457,-0.0916 0.11429,-0.22739 0.15251,-0.3018 0.0382,-0.0744 0.0892,-0.17432 0.11328,-0.22202 0.0241,-0.0477 0.0456,-0.0883 0.0478,-0.0902 0.005,-0.004 0.0647,-0.12028 0.17029,-0.32955 0.14232,-0.28188 0.15726,-0.38704 0.0872,-0.61401 -0.0476,-0.15436 -0.081,-0.30381 -0.0977,-0.43709 -0.005,-0.0363 -0.009,-0.18455 -0.0108,-0.32955 -0.002,-0.15231 -0.006,-0.28416 -0.0105,-0.31222 -0.016,-0.0981 -0.059,-0.19591 -0.12656,-0.28792 -0.0675,-0.092 -0.0851,-0.11525 -0.0972,-0.12832 -0.007,-0.007 -0.018,-0.0217 -0.0241,-0.0313 -0.006,-0.01 -0.0439,-0.0579 -0.084,-0.10754 -0.0399,-0.0496 -0.1069,-0.13547 -0.14875,-0.1908 -0.0419,-0.0553 -0.078,-0.10215 -0.0803,-0.10406 -0.002,-0.002 -0.0101,-0.0128 -0.0172,-0.0243 -0.007,-0.0114 -0.0349,-0.0505 -0.0617,-0.0867 -0.18381,-0.24918 -0.21043,-0.27952 -0.29373,-0.33491 -0.0271,-0.0181 -0.051,-0.0328 -0.0531,-0.0328 -0.002,0 -0.0235,-0.009 -0.0476,-0.0203 -0.0419,-0.0194 -0.18325,-0.0636 -0.23464,-0.0734 -0.13148,-0.0252 -0.2736,-0.0633 -0.32261,-0.0866 -0.0931,-0.0443 -0.12305,-0.0554 -0.20536,-0.0758 -0.19819,-0.0493 -0.40954,-0.0659 -0.77934,-0.0611 -0.23381,0.003 -0.30394,0.006 -0.44106,0.0214 -0.23946,0.0261 -0.41445,0.0539 -0.54581,0.0869 -0.0526,0.0132 -0.1367,0.0515 -0.15791,0.0719 -0.005,0.005 -0.0664,0.0649 -0.13663,0.13365 -0.0702,0.0686 -0.16029,0.1509 -0.20035,0.18271 -0.04,0.0318 -0.0787,0.0626 -0.086,0.0684 -0.007,0.006 -0.0338,0.0242 -0.059,0.0408 -0.0252,0.0166 -0.0499,0.0337 -0.0548,0.0379 -0.0311,0.0268 -0.13349,0.0666 -0.24085,0.094 -0.14271,0.0363 -0.12282,0.031 -0.28793,0.0768 -0.0744,0.0207 -0.15871,0.0449 -0.18732,0.054 -0.0286,0.009 -0.0802,0.0247 -0.11448,0.035 -0.12432,0.0368 -0.48195,0.15083 -0.55503,0.17689 -0.0305,0.0109 -0.0673,0.0235 -0.0818,0.028 -0.0305,0.01 -0.13826,0.0624 -0.16616,0.0815 -0.0351,0.0241 -0.12512,0.11544 -0.19657,0.19946 -0.0227,0.0267 -0.0495,0.0579 -0.0595,0.0694 -0.0194,0.0222 -0.18452,0.22529 -0.26137,0.32159 -0.0254,0.0318 -0.0537,0.0662 -0.0627,0.0763 -0.009,0.0102 -0.0246,0.0293 -0.0347,0.0426 -0.0101,0.0134 -0.0241,0.0305 -0.0311,0.0382 -0.007,0.007 -0.0211,0.0248 -0.0312,0.0382 -0.0101,0.0134 -0.0255,0.0321 -0.0341,0.0416 -0.008,0.01 -0.0242,0.0298 -0.0345,0.0451 -0.0103,0.0153 -0.0234,0.0327 -0.0293,0.0388 -0.0131,0.0138 -0.0266,0.0303 -0.16602,0.20396 -0.11071,0.13791 -0.2337,0.28943 -0.24709,0.30439 -0.004,0.005 -0.0286,0.0343 -0.055,0.0668 -0.0264,0.0324 -0.0514,0.0621 -0.0555,0.0659 -0.005,0.004 -0.0183,0.021 -0.0314,0.0382 -0.0131,0.0172 -0.0334,0.0424 -0.0449,0.0562 -0.0392,0.0462 -0.0488,0.0579 -0.0925,0.11373 -0.024,0.0305 -0.0482,0.0611 -0.0536,0.0677 -0.0787,0.0945 -0.10706,0.21278 -0.0935,0.39024 0.006,0.0848 0.0207,0.18504 0.0345,0.24286 0.004,0.0152 0.0162,0.0715 0.0279,0.12489 0.0117,0.0534 0.0245,0.1065 0.0282,0.11795 0.004,0.0114 0.009,0.0554 0.0113,0.0977 l 0.005,0.0769 -0.0322,0.0703 c -0.0177,0.0387 -0.0322,0.0735 -0.0322,0.0775 0,0.004 -0.003,0.007 -0.007,0.007 -0.004,0 -0.007,0.005 -0.007,0.01 0,0.006 -0.0151,0.042 -0.0337,0.0816 -0.0298,0.0639 -0.0515,0.11154 -0.10011,0.22112 -0.0232,0.0522 -0.0601,0.15894 -0.0753,0.21809 -0.0173,0.0673 -0.0148,0.13629 0.007,0.20513 0.0137,0.0419 0.0857,0.19594 0.099,0.2116 0.003,0.004 0.0198,0.0303 0.0369,0.059 0.017,0.0286 0.0348,0.0582 0.0396,0.0657 0.005,0.007 0.0281,0.0443 0.052,0.0818 0.0238,0.0376 0.0434,0.0697 0.0434,0.0717 0,0.002 0.0156,0.0266 0.0347,0.0549 0.0191,0.0282 0.0347,0.0529 0.0347,0.0546 0,0.004 0.0587,0.10027 0.0866,0.14309 0.009,0.0134 0.0419,0.0664 0.0737,0.11795 0.0675,0.10922 0.0865,0.1391 0.0962,0.15062 0.004,0.005 0.0164,0.0243 0.0278,0.0436 0.0114,0.0194 0.0239,0.039 0.0278,0.0436 0.004,0.005 0.0255,0.035 0.048,0.0674 0.086,0.1236 0.0983,0.13911 0.12646,0.15952 0.0496,0.036 0.11855,0.0493 0.36322,0.07 0.10651,0.009 0.51218,0.0184 0.66605,0.0153 0.0534,-9.2e-4 0.22513,-0.004 0.38159,-0.006 z m -0.8604,-0.20126 c -0.27958,-0.0417 -0.37719,-0.10017 -0.41716,-0.24978 -0.0463,-0.17342 0.0619,-0.31875 0.36326,-0.48782 0.21223,-0.11905 0.53498,-0.25089 0.74086,-0.30262 0.26504,-0.0666 0.48574,-0.0161 0.68296,0.15608 0.0895,0.0781 0.16937,0.20842 0.20177,0.32909 0.019,0.071 0.0257,0.19317 0.0139,0.25564 -0.0139,0.0738 -0.0714,0.15523 -0.1314,0.18607 -0.01,0.006 -0.0197,0.0114 -0.0217,0.0142 -0.006,0.008 -0.0768,0.0373 -0.12812,0.0527 -0.15082,0.0452 -0.29225,0.0556 -0.8048,0.0592 -0.3818,0.003 -0.39906,0.002 -0.49964,-0.0127 z m 0.93325,-0.0661 c 0.23417,-0.0116 0.3892,-0.0475 0.48646,-0.11244 0.0901,-0.0602 0.12078,-0.16009 0.0932,-0.30402 -0.0332,-0.17377 -0.1248,-0.31081 -0.27151,-0.40644 -0.0315,-0.0205 -0.0594,-0.0372 -0.0625,-0.0372 -0.003,0 -0.0102,-0.005 -0.0163,-0.01 -0.0135,-0.0117 -0.0796,-0.0346 -0.14196,-0.049 -0.0737,-0.0171 -0.18486,-0.0143 -0.28097,0.007 -0.2772,0.0616 -0.72288,0.26108 -0.9379,0.41965 -0.0634,0.0467 -0.11505,0.10348 -0.13603,0.14932 -0.016,0.0349 -0.0174,0.045 -0.0144,0.0989 0.005,0.0721 0.0196,0.10722 0.0623,0.1419 0.0699,0.0567 0.15193,0.079 0.4077,0.1107 0.0369,0.005 0.68348,-0.003 0.81175,-0.009 z m 1.1812,-0.056 c -0.0124,-0.0128 -0.0107,-0.037 0.004,-0.0493 0.006,-0.006 0.0367,-0.0144 0.0668,-0.0191 0.0492,-0.007 0.14644,-0.0327 0.3165,-0.0815 0.12279,-0.0352 0.20248,-0.0495 0.35731,-0.0643 0.042,-0.004 0.13955,-0.0171 0.21683,-0.0292 0.15767,-0.0245 0.17517,-0.0232 0.17517,0.014 0,0.0255 -0.0103,0.034 -0.0489,0.0397 -0.017,0.003 -0.0663,0.0104 -0.1096,0.0176 -0.0433,0.007 -0.14813,0.0208 -0.23297,0.0302 -0.18887,0.0208 -0.23806,0.0312 -0.45842,0.0962 -0.15699,0.0462 -0.26839,0.064 -0.28619,0.0456 z m -0.44875,-0.20443 c -0.015,-0.015 -0.0138,-0.0426 0.002,-0.0513 0.0183,-0.01 0.0582,-0.009 0.0685,9.3e-4 0.0214,0.0214 -0.005,0.0611 -0.0398,0.0611 -0.0112,0 -0.0252,-0.005 -0.0312,-0.0109 z m 1.6558,0.002 c -0.0282,-0.0132 -0.0287,-0.06 -6.1e-4,-0.075 0.0106,-0.006 0.018,-0.005 0.0311,0.004 0.014,0.009 0.0169,0.0161 0.0151,0.0362 -0.003,0.0308 -0.0223,0.0459 -0.0457,0.035 z m 0.0776,-0.008 c -0.0191,-0.0292 -0.002,-0.0729 0.0291,-0.0729 0.0328,0 0.047,0.0517 0.0221,0.0815 -0.0121,0.0147 -0.0389,0.0101 -0.0512,-0.008 z m -1.72522,-0.0874 c -0.015,-0.009 -0.0158,-0.0364 -0.002,-0.051 0.0125,-0.0125 0.046,-0.0143 0.0659,-0.004 0.0152,0.008 0.0184,0.0407 0.005,0.0539 -0.0101,0.0101 -0.053,0.0106 -0.0697,8.8e-4 z m 2.07597,-0.0623 c -0.0102,-0.0191 -0.002,-0.0534 0.015,-0.0626 0.007,-0.004 0.0221,-0.006 0.0324,-0.006 0.0156,0.002 0.0191,0.006 0.021,0.0252 0.003,0.032 -0.0145,0.0567 -0.0402,0.0567 -0.0135,0 -0.0231,-0.005 -0.0281,-0.0143 z m -2.11148,-0.0351 c -0.0185,-0.0264 0.003,-0.0547 0.0415,-0.0547 0.0247,0 0.0443,0.015 0.0443,0.0341 0,0.0335 -0.0657,0.0493 -0.0858,0.0206 z m 1.9769,-0.0587 c -0.0166,-0.0166 -0.0131,-0.0345 0.0104,-0.0543 0.0237,-0.02 0.0291,-0.0211 0.0485,-0.0108 0.0178,0.01 0.0176,0.0442 -3.9e-4,0.0622 -0.0167,0.0166 -0.0435,0.018 -0.0585,0.003 z m -0.0763,-0.0763 c -0.0147,-0.0147 -0.0137,-0.0329 0.002,-0.0475 0.0198,-0.0179 0.0508,-0.012 0.059,0.0114 0.0124,0.0355 -0.0344,0.0631 -0.0613,0.0362 z m -1.91689,-0.005 c -0.004,-0.005 -0.0251,-0.0398 -0.0474,-0.0777 -0.11816,-0.20004 -0.25334,-0.32452 -0.41238,-0.37975 -0.14628,-0.0508 -0.33678,-0.0518 -0.54467,-0.003 -0.11724,0.0276 -0.34785,0.10015 -0.40934,0.12873 -0.17068,0.0793 -0.18497,0.083 -0.19923,0.0518 -0.0106,-0.0232 -0.002,-0.0365 0.0352,-0.0565 0.16856,-0.0896 0.50298,-0.19467 0.70421,-0.22131 0.11269,-0.0149 0.28869,-0.01 0.36875,0.011 0.17489,0.0452 0.30335,0.13177 0.41821,0.28194 0.0142,0.0185 0.0308,0.0392 0.0367,0.0459 0.0192,0.0215 0.1105,0.17804 0.1105,0.18947 0,0.0221 -0.0141,0.0378 -0.0341,0.0378 -0.0109,0 -0.0227,-0.004 -0.0264,-0.008 z m 2.35449,-0.009 c -0.20212,-0.0276 -0.35817,-0.12063 -0.40324,-0.24035 -0.018,-0.0477 -0.0122,-0.13392 0.0126,-0.18704 0.0101,-0.0217 0.0184,-0.0413 0.0184,-0.0437 0,-0.007 0.0559,-0.0881 0.0962,-0.13882 0.0615,-0.0774 0.16351,-0.17488 0.28183,-0.26917 0.023,-0.0183 0.047,-0.0375 0.0534,-0.0429 0.006,-0.006 0.0455,-0.0341 0.0867,-0.064 0.2355,-0.17069 0.42348,-0.27321 0.62907,-0.34311 0.0979,-0.0333 0.12748,-0.0398 0.22117,-0.0487 0.14444,-0.0137 0.25044,0.006 0.3453,0.0615 0.0458,0.0272 0.065,0.0441 0.0972,0.0854 0.0357,0.0457 0.0453,0.0659 0.0662,0.13886 0.0141,0.0493 0.0191,0.0824 0.0197,0.1317 7.3e-4,0.0642 3e-5,0.0673 -0.0281,0.12285 -0.016,0.0314 -0.0331,0.0617 -0.0382,0.0677 -0.0461,0.0537 -0.0893,0.0914 -0.19308,0.16896 -0.0363,0.027 -0.069,0.0518 -0.0729,0.0548 -0.0213,0.0172 -0.20529,0.14374 -0.31915,0.21953 -0.0725,0.0483 -0.13493,0.0901 -0.13875,0.0931 -0.004,0.003 -0.0555,0.0353 -0.11478,0.0721 -0.17774,0.10988 -0.2788,0.15249 -0.3917,0.16521 -0.0795,0.009 -0.14204,0.008 -0.22795,-0.004 z m 0.22794,-0.0686 c 0.12967,-0.021 0.197,-0.0545 0.50301,-0.25026 0.0591,-0.0378 0.10909,-0.0706 0.11101,-0.0729 0.002,-0.002 0.0284,-0.0208 0.059,-0.0411 0.17632,-0.11756 0.41034,-0.29135 0.46563,-0.34578 0.0339,-0.0333 0.0781,-0.10787 0.0884,-0.14878 0.0101,-0.0405 -0.0215,-0.1729 -0.0556,-0.23257 -0.0231,-0.0403 -0.0468,-0.0633 -0.096,-0.093 -0.14654,-0.0884 -0.35008,-0.0771 -0.61401,0.034 -0.11189,0.0472 -0.21269,0.10267 -0.38453,0.21192 -0.007,0.005 -0.0323,0.0219 -0.0554,0.0381 -0.0232,0.0163 -0.0609,0.0427 -0.0838,0.0586 -0.0766,0.0532 -0.20646,0.1618 -0.28024,0.23418 -0.17589,0.17254 -0.2512,0.31342 -0.21914,0.40996 0.0318,0.096 0.19797,0.18199 0.38669,0.20024 0.0877,0.008 0.10779,0.008 0.17514,-0.003 z m -4.5066,0.005 c -0.0144,-0.0116 -0.0157,-0.0162 -0.01,-0.0333 0.006,-0.0161 0.0116,-0.0202 0.0315,-0.0219 0.0332,-0.003 0.0536,0.0183 0.044,0.0457 -0.008,0.0244 -0.0415,0.0292 -0.0657,0.01 z m 3.65027,-5.7e-4 c -0.0183,-0.0183 -0.0249,-0.0643 -0.0241,-0.16701 6e-4,-0.0733 0.004,-0.0964 0.0195,-0.14917 0.0542,-0.17924 0.16943,-0.34405 0.3545,-0.50684 0.0305,-0.0268 0.0696,-0.0596 0.0867,-0.0727 0.0172,-0.0131 0.0351,-0.0275 0.0397,-0.0319 0.0174,-0.0167 0.16813,-0.12098 0.25383,-0.17574 0.12753,-0.0815 0.1522,-0.0893 0.16171,-0.0515 0.006,0.0251 1.9e-4,0.0338 -0.0436,0.0619 -0.0779,0.0499 -0.23499,0.15553 -0.2701,0.18161 -0.12107,0.0899 -0.15348,0.11691 -0.23073,0.19233 -0.18426,0.1799 -0.2656,0.31724 -0.29682,0.50122 -0.01,0.0573 -0.01,0.0702 -1.6e-4,0.13079 0.006,0.0369 0.008,0.0723 0.006,0.0786 -0.009,0.025 -0.0362,0.029 -0.0567,0.008 z m -3.57068,-0.0614 c -0.016,-0.0108 -0.0223,-0.0316 -0.0149,-0.048 0.006,-0.013 0.0126,-0.0161 0.0357,-0.016 0.0335,1.2e-4 0.0422,0.005 0.0489,0.0264 0.007,0.0221 -0.0129,0.0429 -0.0407,0.0428 -0.0118,-7e-5 -0.0248,-0.003 -0.029,-0.006 z m 0.0956,-0.0541 c -0.0247,-0.0103 -0.0282,-0.026 -0.0113,-0.0501 0.0208,-0.0298 0.0655,-0.0112 0.0655,0.0274 0,0.0246 -0.0248,0.0351 -0.0542,0.0227 z m 2.61071,-0.0127 c -0.078,-0.0355 -0.17745,-0.18447 -0.20201,-0.30252 -0.0131,-0.0631 -0.008,-0.14043 0.0108,-0.18429 0.0443,-0.10018 0.17182,-0.15674 0.3531,-0.15662 0.0688,3e-5 0.15814,0.0166 0.1972,0.0365 0.0407,0.0208 0.0797,0.0636 0.0889,0.0976 0.01,0.0363 0.005,0.10725 -0.0109,0.15473 -0.046,0.13886 -0.17129,0.29792 -0.27613,0.35031 -0.0531,0.0266 -0.10877,0.0281 -0.16105,0.005 z m 0.15145,-0.0836 c 0.14808,-0.0988 0.27322,-0.34296 0.21636,-0.42217 -0.052,-0.0725 -0.25278,-0.0892 -0.39894,-0.0331 -0.0745,0.0286 -0.10649,0.0781 -0.10559,0.16334 0.002,0.10766 0.0761,0.2491 0.16101,0.30367 0.0402,0.0258 0.0758,0.0226 0.12716,-0.0117 z m -3.45464,0.007 c -0.0621,-0.0289 -0.085,-0.0777 -0.0659,-0.14014 0.004,-0.0111 0.0117,-0.0404 0.0185,-0.0652 0.006,-0.0248 0.0146,-0.0482 0.0173,-0.052 0.003,-0.004 0.009,-0.0195 0.0136,-0.0347 0.0133,-0.0421 0.0456,-0.10145 0.0686,-0.1262 0.0314,-0.0338 0.0608,-0.0461 0.10947,-0.0463 0.0359,-8e-5 0.0517,0.005 0.097,0.0267 0.066,0.0327 0.14923,0.11203 0.17788,0.16974 0.0245,0.0493 0.0256,0.10345 0.003,0.14035 -0.0644,0.10537 -0.32503,0.18117 -0.4396,0.12782 z m 0.22689,-0.0762 c 0.0944,-0.0317 0.15905,-0.0784 0.15892,-0.11481 -1.6e-4,-0.0464 -0.0751,-0.13355 -0.15248,-0.17728 -0.0573,-0.0324 -0.0938,-0.0333 -0.12323,-0.003 -0.0251,0.0257 -0.0583,0.0922 -0.0743,0.14879 -0.006,0.0229 -0.0176,0.0614 -0.0247,0.0857 l -0.0129,0.0441 0.0175,0.0162 c 0.01,0.009 0.0243,0.0177 0.0326,0.0196 0.0347,0.007 0.12821,-0.002 0.17866,-0.0192 z m -0.58861,-0.24636 c -0.0327,-0.0288 -0.0433,-0.0661 -0.0433,-0.15137 0,-0.10962 0.0358,-0.25775 0.0844,-0.3494 0.0271,-0.051 0.0878,-0.10147 0.13095,-0.10873 0.0941,-0.0159 0.23174,0.006 0.27701,0.0443 0.0443,0.0373 0.0513,0.0737 0.0269,0.13934 -0.0388,0.10388 -0.11743,0.21871 -0.22658,0.33051 -0.082,0.084 -0.13498,0.1156 -0.19358,0.11541 -0.0266,-8e-5 -0.0376,-0.004 -0.0557,-0.02 z m 0.0906,-0.0606 c 0.0985,-0.0504 0.27776,-0.27097 0.31424,-0.38671 0.014,-0.0445 0.0105,-0.0572 -0.0198,-0.0721 -0.053,-0.026 -0.19266,-0.0293 -0.22907,-0.006 -0.024,0.0158 -0.0688,0.0906 -0.0875,0.14604 -0.0242,0.0719 -0.0385,0.15672 -0.0386,0.22895 -1.8e-4,0.0971 0.0116,0.11441 0.0607,0.0892 z m 5.51188,-0.64136 c -0.0146,-0.008 -0.016,-0.0458 -0.002,-0.0637 0.0104,-0.0137 0.0267,-0.0155 0.0463,-0.005 0.0155,0.008 0.0189,0.0539 0.005,0.0677 -0.0101,0.0101 -0.0324,0.0104 -0.0489,8.6e-4 z m -2.7836,-0.028 c -0.12742,-0.0185 -0.21329,-0.0664 -0.2592,-0.14452 -0.0167,-0.0283 -0.0186,-0.0385 -0.0185,-0.0975 7e-5,-0.0647 5.9e-4,-0.067 0.0308,-0.12317 0.0369,-0.0687 0.0976,-0.13207 0.15244,-0.15901 0.0528,-0.0259 0.12762,-0.0272 0.17396,-0.003 0.0695,0.0364 0.11179,0.0871 0.16043,0.1922 0.0284,0.0615 0.0464,0.18323 0.0337,0.22867 -0.0156,0.0555 -0.0651,0.0911 -0.14857,0.10642 -0.0463,0.008 -0.0658,0.008 -0.12507,-1.4e-4 z m 0.13938,-0.0789 c 0.019,-0.006 0.0419,-0.018 0.0507,-0.0274 0.015,-0.0161 0.0158,-0.0208 0.0113,-0.0722 -0.006,-0.0767 -0.0194,-0.11965 -0.0514,-0.17337 -0.0505,-0.085 -0.0965,-0.11944 -0.15835,-0.1189 -0.0419,3.6e-4 -0.0674,0.0138 -0.11649,0.0611 -0.0416,0.0401 -0.0764,0.10293 -0.0842,0.1524 -0.016,0.10021 0.10493,0.18613 0.26472,0.18801 0.0269,3.2e-4 0.0646,-0.004 0.0837,-0.01 z m 2.73036,0.0675 c -0.0237,-0.0202 -0.0226,-0.0541 0.002,-0.0653 0.0365,-0.0167 0.073,0.0359 0.0446,0.0644 -0.0163,0.0162 -0.0283,0.0165 -0.0466,9.3e-4 z m 1.0881,-0.16539 c -0.0493,-0.013 -0.0692,-0.0278 -0.0889,-0.0657 -0.0129,-0.0248 -0.0153,-0.0376 -0.0122,-0.0661 0.015,-0.13713 0.13096,-0.32037 0.23644,-0.37374 0.0358,-0.0181 0.043,-0.0193 0.0947,-0.0158 0.0515,0.004 0.0579,0.006 0.0795,0.0267 0.0454,0.044 0.0721,0.13213 0.0719,0.23725 -2e-4,0.12589 -0.0351,0.18956 -0.12921,0.2364 -0.0611,0.0305 -0.17946,0.0402 -0.25225,0.0209 z m 0.16072,-0.0684 c 0.0681,-0.0144 0.0985,-0.0327 0.12739,-0.0767 0.012,-0.0183 0.0137,-0.0329 0.0137,-0.12142 0,-0.0891 -0.002,-0.10439 -0.0153,-0.13379 -0.0253,-0.0547 -0.0836,-0.0679 -0.13707,-0.0308 -0.0982,0.0679 -0.21314,0.30611 -0.16667,0.34522 0.0307,0.0259 0.10418,0.0331 0.17798,0.0175 z m -2.62452,0.0108 c -0.0139,-0.0112 -0.0153,-0.016 -0.009,-0.0329 0.006,-0.0185 0.0133,-0.0214 0.10047,-0.0446 0.11322,-0.0301 0.15512,-0.0455 0.24495,-0.0902 0.16556,-0.0825 0.26571,-0.18893 0.30622,-0.32563 0.0186,-0.0629 0.0213,-0.16746 0.007,-0.27315 -0.006,-0.0511 -0.0105,-0.0981 -0.008,-0.10434 0.0113,-0.0292 0.0559,-0.0215 0.066,0.0115 0.0282,0.0927 0.0331,0.27972 0.01,0.37019 -0.0213,0.0823 -0.0787,0.185 -0.13326,0.23865 -0.11092,0.10902 -0.29098,0.20078 -0.48409,0.24671 -0.0852,0.0203 -0.0796,0.02 -0.0997,0.004 z m -0.65482,-0.0845 c -0.14181,-0.009 -0.25537,-0.0338 -0.3222,-0.0697 -0.0135,-0.007 -0.0268,-0.0131 -0.0297,-0.0131 -0.0129,0 -0.0824,-0.055 -0.1277,-0.10112 -0.13264,-0.13491 -0.20909,-0.31753 -0.22199,-0.53023 -0.004,-0.0546 -0.002,-0.0754 0.0111,-0.12142 0.0569,-0.20956 0.16446,-0.287 0.56223,-0.40494 0.21181,-0.0628 0.48751,-0.12251 0.66258,-0.1435 0.10756,-0.0129 0.30376,-0.0109 0.35384,0.004 0.16691,0.0483 0.24372,0.13019 0.29453,0.31392 0.0281,0.10165 0.0359,0.17039 0.0399,0.35323 0.007,0.3293 -0.0241,0.41987 -0.18373,0.53195 -0.0965,0.0677 -0.31325,0.14261 -0.48371,0.16709 -0.12809,0.0184 -0.38849,0.025 -0.55504,0.0141 z m 0.45098,-0.0762 c 0.23733,-0.0205 0.48082,-0.10377 0.59798,-0.2046 0.043,-0.037 0.0734,-0.0943 0.0901,-0.16967 0.017,-0.0771 0.0172,-0.357 3.9e-4,-0.46107 -0.0504,-0.31042 -0.13579,-0.39969 -0.39354,-0.41101 -0.28514,-0.0126 -1.01679,0.16522 -1.22483,0.29755 -0.037,0.0235 -0.093,0.0856 -0.11227,0.12443 -0.0679,0.137 -0.036,0.37277 0.0748,0.55288 0.0513,0.0834 0.13595,0.16603 0.21116,0.20613 0.0605,0.0323 0.15186,0.0565 0.24629,0.0652 0.0888,0.008 0.41543,0.008 0.50995,1.8e-4 z m -2.95905,0.0497 c -0.0708,-0.0229 -0.16753,-0.0785 -0.22476,-0.12911 -0.0573,-0.0507 -0.0832,-0.0938 -0.0836,-0.13923 -6e-4,-0.0527 0.009,-0.0612 0.1523,-0.13889 0.1,-0.0542 0.22579,-0.0907 0.28161,-0.0817 0.0149,0.003 0.0415,0.0134 0.0589,0.0245 0.0633,0.0401 0.0923,0.15439 0.0722,0.28437 -0.0149,0.0967 -0.0481,0.15658 -0.0997,0.18001 -0.0366,0.0166 -0.1058,0.0167 -0.15691,1.6e-4 z m 0.1457,-0.0829 c 0.0312,-0.0373 0.0431,-0.0835 0.0439,-0.16964 6e-4,-0.073 -3.9e-4,-0.0801 -0.0187,-0.11344 -0.0213,-0.039 -0.0401,-0.0511 -0.0793,-0.0511 -0.0399,0 -0.12672,0.0305 -0.21185,0.0745 -0.09,0.0465 -0.11919,0.0697 -0.11274,0.09 0.007,0.0241 0.0864,0.0958 0.14227,0.1296 0.11445,0.0692 0.2001,0.0837 0.2365,0.0401 z m 5.1893,-0.16972 c -0.13191,-0.0478 -0.22245,-0.12543 -0.23908,-0.20507 -0.0117,-0.0562 0.0322,-0.12511 0.12402,-0.19451 0.0529,-0.0399 0.17337,-0.10073 0.24719,-0.12468 0.054,-0.0175 0.13921,-0.0304 0.16516,-0.0249 0.0103,0.002 0.0257,0.006 0.0342,0.007 0.02,0.004 0.0622,0.0412 0.075,0.0661 0.0363,0.0701 -0.0172,0.24468 -0.11369,0.3705 -0.0385,0.0503 -0.064,0.0744 -0.10456,0.0987 -0.0447,0.0269 -0.12499,0.0297 -0.18827,0.006 z m 0.13701,-0.0616 c 0.0285,-0.012 0.10796,-0.0958 0.13483,-0.14228 0.0259,-0.0448 0.0507,-0.10065 0.0654,-0.14791 0.0376,-0.1197 -0.0304,-0.15339 -0.19695,-0.0977 -0.10822,0.0362 -0.20714,0.0942 -0.26635,0.15614 -0.034,0.0355 -0.0448,0.0619 -0.0362,0.0888 0.009,0.0282 0.0577,0.0717 0.114,0.10168 0.0878,0.0468 0.14284,0.0591 0.18524,0.0412 z m -6.13458,-0.033 c -0.0631,-0.0161 -0.081,-0.0236 -0.12021,-0.0505 -0.0852,-0.0584 -0.14202,-0.14597 -0.16818,-0.25914 -0.018,-0.0781 -0.0136,-0.10016 0.0203,-0.10016 0.0274,0 0.0352,0.0117 0.047,0.0708 0.0213,0.1067 0.0883,0.20192 0.17181,0.24418 0.0467,0.0235 0.11904,0.0386 0.18686,0.0388 0.0298,7e-5 0.0602,0.004 0.0676,0.007 0.0152,0.008 0.0184,0.0407 0.005,0.0539 -0.0131,0.0131 -0.15205,0.01 -0.21022,-0.005 z m 6.60965,-0.11813 c -0.0602,-0.0163 -0.12329,-0.0562 -0.14308,-0.0903 -0.0416,-0.0721 0.0156,-0.22753 0.12363,-0.3359 0.0602,-0.0604 0.11312,-0.0899 0.17626,-0.0983 0.0459,-0.006 0.0843,0.006 0.121,0.0384 0.0386,0.0339 0.0588,0.0788 0.0686,0.15274 0.0121,0.0899 -0.0107,0.20422 -0.0507,0.25393 -0.0116,0.0145 -0.0426,0.0456 -0.056,0.0561 -0.0415,0.0327 -0.16211,0.0445 -0.23983,0.0234 z m 0.16758,-0.0702 c 0.0356,-0.01 0.0628,-0.0374 0.086,-0.0868 0.0177,-0.0377 0.0192,-0.0478 0.0192,-0.12425 0,-0.0787 -0.002,-0.0853 -0.0199,-0.11919 -0.0316,-0.0571 -0.0718,-0.0661 -0.14312,-0.0325 -0.10528,0.0497 -0.22254,0.24199 -0.18751,0.30743 0.009,0.0169 0.0519,0.0419 0.0904,0.0528 0.039,0.011 0.11979,0.0124 0.15493,0.003 z m -6.66623,0.0185 c -0.0989,-0.0196 -0.17239,-0.0652 -0.20047,-0.12454 -0.0301,-0.0636 -0.0229,-0.17721 0.0178,-0.28191 0.039,-0.10041 0.12262,-0.24291 0.21003,-0.35817 0.017,-0.0224 0.0412,-0.0544 0.0538,-0.071 0.0602,-0.0797 0.17372,-0.21562 0.27266,-0.32631 0.0153,-0.0171 0.0402,-0.0451 0.0554,-0.0624 0.0419,-0.0472 0.21047,-0.21525 0.24983,-0.2489 0.09,-0.077 0.20993,-0.15027 0.27895,-0.17051 0.0851,-0.0249 0.19601,-0.0188 0.26214,0.0145 0.0567,0.0285 0.11722,0.0887 0.1486,0.1475 0.0397,0.0745 0.051,0.13396 0.0509,0.26712 -8e-5,0.12475 -0.009,0.20073 -0.0408,0.34343 -0.0184,0.083 -0.0247,0.10569 -0.0602,0.21507 -0.10856,0.33515 -0.33048,0.51429 -0.76808,0.62007 -0.16017,0.0387 -0.4261,0.0568 -0.53075,0.0362 z m 0.33019,-0.0739 c 0.12938,-0.0164 0.28239,-0.0542 0.40402,-0.0998 0.0982,-0.0368 0.16593,-0.0735 0.2442,-0.13247 0.14888,-0.11207 0.22493,-0.24962 0.3009,-0.5443 0.0343,-0.13317 0.0455,-0.21939 0.0457,-0.35383 2e-4,-0.17243 -0.0173,-0.2329 -0.0894,-0.30646 -0.0174,-0.0178 -0.0497,-0.0412 -0.0717,-0.052 -0.0365,-0.0179 -0.0466,-0.0197 -0.11629,-0.0197 -0.0744,0 -0.0778,6.9e-4 -0.13529,0.0275 -0.0325,0.0151 -0.0605,0.0292 -0.0625,0.0313 -0.002,0.002 -0.0212,0.0153 -0.0429,0.0295 -0.11815,0.0772 -0.34218,0.30514 -0.5577,0.56747 -0.22312,0.27157 -0.3102,0.40457 -0.36788,0.56187 -0.0237,0.0645 -0.0268,0.0802 -0.0269,0.1365 -1.6e-4,0.0538 0.002,0.0667 0.0143,0.0832 0.0174,0.0237 0.0916,0.0628 0.13468,0.071 0.0453,0.008 0.25852,0.008 0.32672,1.1e-4 z m 0.81371,-0.14132 c -0.0207,-0.0146 -0.0245,-0.0358 -0.01,-0.054 0.011,-0.0135 0.0155,-0.0145 0.0391,-0.008 0.0331,0.008 0.0489,0.0335 0.0347,0.0552 -0.0115,0.0174 -0.0445,0.0212 -0.064,0.007 z m 0.0842,-0.0744 c -0.0174,-0.009 -0.0312,-0.0266 -0.0312,-0.0384 0,-0.0173 0.0274,-0.0378 0.0437,-0.0329 0.0392,0.012 0.0523,0.0488 0.0241,0.0686 -0.018,0.0126 -0.0185,0.0126 -0.0366,0.003 z m 3.09482,-0.0515 c -0.0156,-0.0157 -0.0135,-0.0357 0.006,-0.0554 0.0207,-0.0207 0.034,-0.0215 0.0523,-0.004 0.0184,0.0183 0.0175,0.0316 -0.003,0.0523 -0.0196,0.0196 -0.0397,0.0218 -0.0554,0.006 z m -2.14765,-0.0299 c -0.0279,-0.005 -0.0437,-0.0339 -0.0303,-0.055 0.0104,-0.0163 0.0786,-0.0163 0.0949,-1e-5 0.018,0.0181 0.0148,0.0463 -0.006,0.0543 -0.019,0.007 -0.0212,0.007 -0.0584,6.4e-4 z m -0.90618,-0.0251 c -0.0105,-0.0161 -0.0105,-0.0186 0,-0.0347 0.007,-0.0116 0.0177,-0.0173 0.0306,-0.0173 0.0241,0 0.0359,0.0114 0.0359,0.0347 0,0.0233 -0.0118,0.0347 -0.0359,0.0347 -0.0129,0 -0.0231,-0.006 -0.0306,-0.0173 z m 3.04428,-0.0297 c -0.009,-0.002 -0.0194,-0.01 -0.0235,-0.0192 -0.0156,-0.0342 0.0303,-0.0699 0.0678,-0.0528 0.0409,0.0186 0.004,0.0798 -0.0442,0.072 z m -2.10895,-0.0748 c -0.0279,-0.0196 -0.0176,-0.0578 0.0164,-0.0614 0.0268,-0.003 0.0493,0.008 0.0542,0.0263 0.006,0.0212 0.005,0.023 -0.006,0.0351 -0.0139,0.0139 -0.044,0.014 -0.0638,1e-4 z m -0.84629,-0.0207 c -0.008,-0.006 -0.0156,-0.0169 -0.0156,-0.0241 0,-0.007 0.0146,-0.0531 0.0323,-0.10194 0.0303,-0.0831 0.0388,-0.11106 0.0722,-0.23441 0.0238,-0.0881 0.0363,-0.21265 0.0317,-0.31915 -0.005,-0.125 -0.0142,-0.15887 -0.0763,-0.28793 -0.0303,-0.0628 -0.0429,-0.0807 -0.0927,-0.13012 -0.0317,-0.0315 -0.0577,-0.0597 -0.0577,-0.0627 0,-0.0136 0.0231,-0.0362 0.037,-0.0362 0.0458,0 0.13401,0.0983 0.18676,0.20814 0.10643,0.22162 0.10574,0.47025 -0.002,0.79786 -0.0386,0.11709 -0.0687,0.19427 -0.0758,0.19427 -0.003,0 -0.0101,0.002 -0.0151,0.004 -0.005,0.002 -0.0163,-9.2e-4 -0.0248,-0.007 z m 0.91116,-0.0765 c -0.0129,-0.0129 -0.0143,-0.0385 -0.003,-0.0502 0.005,-0.005 0.0237,-0.008 0.0426,-0.008 0.0257,0 0.0372,0.004 0.0465,0.0141 0.0126,0.0146 0.0111,0.0404 -0.003,0.0499 -0.0143,0.01 -0.0721,0.006 -0.0834,-0.006 z m 0.0828,-0.14089 c -0.0351,-0.0163 -0.0489,-0.0318 -0.0626,-0.0706 -0.0163,-0.0459 -0.008,-0.0967 0.0268,-0.16705 0.0235,-0.0473 0.0364,-0.0641 0.0698,-0.0908 0.0532,-0.0425 0.10774,-0.061 0.1797,-0.061 0.096,0 0.1846,0.032 0.23575,0.0853 0.0395,0.041 0.0488,0.0579 0.0541,0.0977 0.009,0.0671 -0.0271,0.10905 -0.13278,0.15524 -0.0992,0.0434 -0.16304,0.0585 -0.25967,0.0614 -0.0702,0.002 -0.0877,5.7e-4 -0.11101,-0.0103 z m 0.16997,-0.0661 c 0.0712,-0.0117 0.18211,-0.0506 0.22312,-0.0781 0.0433,-0.0291 0.0486,-0.0501 0.0219,-0.0873 -0.0289,-0.0402 -0.0723,-0.0657 -0.1342,-0.0788 -0.0872,-0.0185 -0.17163,0.002 -0.21922,0.0536 -0.038,0.041 -0.0674,0.13354 -0.0536,0.16932 0.0114,0.0298 0.0663,0.037 0.16201,0.0212 z m 3.3788,0.0519 c -0.0686,-0.0184 -0.11446,-0.0383 -0.14724,-0.0637 -0.13196,-0.10224 -0.17717,-0.23039 -0.15076,-0.42721 0.008,-0.0623 0.0357,-0.14074 0.0552,-0.15836 0.0183,-0.0165 0.047,-0.009 0.0527,0.0141 0.005,0.0187 0.005,0.022 -0.0169,0.0795 -0.0268,0.0739 -0.0361,0.17743 -0.0217,0.24283 0.0177,0.0808 0.0913,0.17886 0.16,0.213 0.077,0.0383 0.18175,0.0514 0.26913,0.0335 0.0618,-0.0126 0.16158,-0.0408 0.18463,-0.052 0.0344,-0.0168 0.13285,-0.0488 0.15025,-0.0488 0.0357,0 0.0431,0.0436 0.0108,0.0639 -0.0173,0.0109 -0.12652,0.051 -0.2096,0.077 -0.13062,0.0409 -0.24794,0.05 -0.3365,0.0262 z m -2.83881,-0.0994 c -0.0399,-0.0321 -0.0113,-0.0597 0.0913,-0.0877 0.35997,-0.0985 0.64279,-0.12198 0.84553,-0.0701 0.0878,0.0224 0.16139,0.0499 0.18302,0.0682 0.0196,0.0165 0.0156,0.0466 -0.007,0.0561 -0.0166,0.006 -0.0254,0.006 -0.0607,-0.0104 -0.0894,-0.0399 -0.24384,-0.0722 -0.34468,-0.0722 -0.12089,0 -0.40406,0.0436 -0.53961,0.0832 -0.047,0.0137 -0.1507,0.0416 -0.15465,0.0416 -0.002,0 -0.007,-0.004 -0.013,-0.008 z m 2.84921,-0.0748 c -0.0466,-0.01 -0.0775,-0.0259 -0.10008,-0.0533 -0.0732,-0.0888 -0.072,-0.24984 0.003,-0.43901 0.0314,-0.0788 0.11686,-0.18154 0.20786,-0.24975 0.0229,-0.0172 0.0432,-0.033 0.0451,-0.0352 0.009,-0.0105 0.0939,-0.064 0.1561,-0.0986 0.12464,-0.0692 0.2406,-0.0997 0.30874,-0.0814 0.0172,0.005 0.0327,0.0104 0.0347,0.0129 0.002,0.003 0.0175,0.0136 0.0347,0.0246 0.0385,0.0248 0.0543,0.0404 0.0806,0.0804 0.0655,0.0994 0.0852,0.22435 0.0584,0.37057 -0.0376,0.20527 -0.0977,0.27638 -0.31246,0.37014 -0.12009,0.0524 -0.21189,0.0768 -0.36077,0.0955 -0.0873,0.011 -0.11423,0.0115 -0.15611,0.003 z m 0.24977,-0.0897 c 0.11764,-0.0253 0.17574,-0.0455 0.29242,-0.1016 0.13077,-0.0629 0.17843,-0.12221 0.21082,-0.26237 0.0128,-0.0554 0.0148,-0.0799 0.0119,-0.14795 -0.005,-0.12293 -0.0355,-0.19313 -0.1084,-0.2515 l -0.039,-0.0312 -0.0555,2.8e-4 c -0.0612,3.2e-4 -0.11444,0.0184 -0.21854,0.0741 -0.0878,0.047 -0.24029,0.15967 -0.281,0.20766 -0.0813,0.0958 -0.12035,0.18171 -0.13894,0.30541 -0.0109,0.0724 -0.007,0.12275 0.0124,0.16143 0.016,0.0321 0.0229,0.0396 0.0505,0.0552 0.0284,0.0161 0.16801,0.0112 0.26341,-0.009 z m -1.5541,0.0713 c -0.0357,-0.0191 -0.0517,-0.0344 -0.0903,-0.0867 -0.0395,-0.0535 -0.0423,-0.0582 -0.0662,-0.11291 -0.0214,-0.0487 -0.0423,-0.15397 -0.0371,-0.18759 0.0103,-0.0684 0.0556,-0.11599 0.11939,-0.12556 0.0962,-0.0144 0.35609,0.0203 0.44963,0.0601 0.0719,0.0305 0.10224,0.0864 0.0866,0.15934 -0.0144,0.0671 -0.0756,0.15001 -0.14789,0.20003 -0.008,0.006 -0.0215,0.0162 -0.0285,0.0227 -0.0174,0.0161 -0.0891,0.0506 -0.1414,0.068 -0.0516,0.0173 -0.11483,0.0185 -0.14418,0.003 z m 0.16258,-0.0878 c 0.1208,-0.0523 0.22877,-0.16506 0.22926,-0.23933 2e-4,-0.0375 -0.0282,-0.0582 -0.1051,-0.0763 -0.14529,-0.0342 -0.3098,-0.051 -0.35479,-0.0362 -0.0541,0.0179 -0.0641,0.0564 -0.0398,0.15208 0.0164,0.0643 0.0271,0.0869 0.0712,0.15016 0.0604,0.0867 0.0942,0.0951 0.19912,0.0496 z m 0.97202,-0.51051 c -0.0197,-0.0367 0.008,-0.0804 0.0409,-0.0631 0.0133,0.007 0.0143,0.006 0.0143,-0.0173 0,-0.0356 0.0106,-0.0519 0.0341,-0.0519 0.0249,0 0.0376,0.015 0.0368,0.0435 -7.3e-4,0.0276 -0.0246,0.0493 -0.0479,0.0435 -0.0147,-0.004 -0.0161,-0.002 -0.0161,0.0231 0,0.0287 -0.007,0.0355 -0.0385,0.0355 -0.009,0 -0.0198,-0.006 -0.0237,-0.0134 z m 0.15516,-0.11677 c -0.0321,-0.0214 -0.0226,-0.0726 0.0143,-0.0768 0.0362,-0.004 0.0522,0.0406 0.0246,0.0683 -0.0146,0.0146 -0.026,0.0171 -0.0389,0.008 z m -2.92975,-0.24913 c -0.12635,-0.0662 -0.19787,-0.26919 -0.13536,-0.38405 0.0365,-0.0671 0.0948,-0.11553 0.20393,-0.16946 0.1197,-0.0591 0.23196,-0.0804 0.30665,-0.058 0.0466,0.014 0.0902,0.0631 0.10911,0.12295 0.011,0.0349 0.009,0.13149 -0.004,0.17462 -0.0362,0.12372 -0.15805,0.25277 -0.29426,0.31147 -0.0261,0.0113 -0.0556,0.0173 -0.0937,0.0193 -0.0504,0.003 -0.0589,9.2e-4 -0.0928,-0.0168 z m 0.12852,-0.0605 c 0.0614,-0.0163 0.13004,-0.0628 0.19719,-0.13352 0.10399,-0.10946 0.12813,-0.27854 0.0479,-0.33565 -0.0493,-0.0351 -0.14885,-0.0197 -0.27629,0.0429 -0.0787,0.0387 -0.14705,0.0962 -0.17119,0.14417 -0.0221,0.044 -0.0141,0.11031 0.0221,0.1826 0.0213,0.0424 0.0334,0.0569 0.0717,0.0855 0.0348,0.026 0.0541,0.0284 0.10856,0.0139 z m 3.0725,-5e-5 c -0.0443,-0.0221 -0.05,-0.027 -0.0865,-0.0756 -0.0278,-0.037 -0.0304,-0.0442 -0.0334,-0.0906 -0.003,-0.0416 -7.2e-4,-0.0553 0.0113,-0.0787 0.0341,-0.067 0.11395,-0.10442 0.20804,-0.0977 0.0903,0.006 0.12812,0.04 0.13698,0.12187 0.01,0.0931 -0.0204,0.17936 -0.0759,0.21502 -0.0422,0.027 -0.11249,0.0295 -0.16047,0.006 z m 0.13186,-0.0786 c 0.0302,-0.0343 0.0434,-0.1046 0.0292,-0.15608 -0.0139,-0.0507 -0.11085,-0.0531 -0.18181,-0.005 -0.0314,0.0215 -0.0379,0.0554 -0.0189,0.0975 0.0363,0.0804 0.12682,0.11369 0.17145,0.063 z m -5.10255,0.006 c -0.0352,-0.0352 -0.0145,-0.0524 0.15574,-0.1289 0.12898,-0.0579 0.33064,-0.12441 0.53565,-0.17659 0.10753,-0.0274 0.11321,-0.0281 0.13009,-0.0171 0.026,0.0171 0.0228,0.0413 -0.007,0.0573 -0.008,0.005 -0.0659,0.0206 -0.12834,0.0363 -0.11508,0.029 -0.36345,0.10822 -0.4397,0.14037 -0.0229,0.01 -0.0775,0.0346 -0.12141,0.0554 -0.10512,0.0498 -0.10726,0.0505 -0.12454,0.0331 z m 1.21442,-0.0391 c -0.0924,-0.0462 -0.15327,-0.12585 -0.15327,-0.20061 0,-0.0725 0.0441,-0.1253 0.15314,-0.18317 0.1675,-0.0889 0.28704,-0.083 0.31869,0.016 0.0143,0.0447 0.004,0.10174 -0.036,0.19842 -0.0414,0.10037 -0.0579,0.12897 -0.09,0.15601 -0.056,0.0471 -0.11653,0.0514 -0.19255,0.0134 z m 0.12288,-0.0542 c 0.0358,-0.0186 0.0605,-0.0602 0.10634,-0.17887 0.0393,-0.10202 0.0291,-0.14228 -0.0355,-0.13954 -0.0312,9.2e-4 -0.13746,0.0326 -0.1457,0.0429 -0.002,0.003 -0.0156,0.0105 -0.0303,0.0182 -0.0388,0.0198 -0.0923,0.0696 -0.0975,0.0908 -0.0164,0.0656 0.0869,0.1714 0.1716,0.17564 0.006,3.4e-4 0.0209,-0.004 0.0312,-0.009 z m 1.68556,-0.0459 c -0.0139,-0.008 -0.0162,-0.0417 -0.004,-0.0541 0.006,-0.006 0.052,-0.008 0.1613,-0.008 0.35955,-6.4e-4 0.66657,-0.0516 0.87454,-0.14522 0.0537,-0.0242 0.14052,-0.0798 0.15495,-0.0993 0.005,-0.007 0.0172,-0.0209 0.027,-0.0313 0.01,-0.0103 0.0255,-0.0355 0.035,-0.0561 0.0143,-0.0308 0.0167,-0.0443 0.0137,-0.0775 -0.005,-0.0464 0.006,-0.0691 0.0331,-0.0691 0.0265,0 0.0382,0.0244 0.0381,0.0796 -2e-5,0.0268 -0.004,0.0611 -0.007,0.0762 -0.0168,0.0606 -0.10205,0.15697 -0.17268,0.19529 -0.0172,0.009 -0.0408,0.0227 -0.0524,0.0298 -0.0871,0.0526 -0.30411,0.11399 -0.49218,0.13916 -0.0343,0.005 -0.0828,0.0114 -0.10754,0.0152 -0.068,0.0103 -0.48632,0.0152 -0.50126,0.006 z m -0.3065,-0.10107 c -0.0129,-0.0128 -0.0137,-0.0276 -0.004,-0.0575 0.009,-0.0251 0.0317,-0.0341 0.055,-0.0217 0.0133,0.007 0.0149,0.0124 0.0117,0.04 -0.005,0.0452 -0.0375,0.0651 -0.0635,0.0391 z m -0.0971,-0.0485 c -0.0139,-0.0139 -0.0139,-0.0372 -10e-5,-0.0569 0.012,-0.0172 0.003,-0.0214 -0.0108,-0.005 -0.0197,0.0238 -0.0624,0.005 -0.0624,-0.0278 0,-0.0174 0.0316,-0.0451 0.0513,-0.0451 0.0168,0 0.0406,0.0271 0.0367,0.042 -0.003,0.0108 -4.1e-4,0.0123 0.0151,0.009 0.0407,-0.008 0.0543,0.0439 0.021,0.0797 -0.0163,0.0175 -0.0358,0.019 -0.0509,0.004 z m 0.45394,-0.0448 c -0.11584,-0.0117 -0.22978,-0.0446 -0.32608,-0.094 -0.12288,-0.0631 -0.26151,-0.19237 -0.31179,-0.29076 -0.0434,-0.0849 -0.0507,-0.12664 -0.0309,-0.17418 0.0243,-0.058 0.0598,-0.0744 0.26802,-0.12405 0.0257,-0.006 0.0944,-0.018 0.15263,-0.0264 0.0951,-0.0138 0.13317,-0.0152 0.373,-0.0149 0.27354,3.1e-4 0.41899,0.0102 0.60669,0.0412 0.12106,0.02 0.20864,0.0619 0.27104,0.12959 0.0264,0.0286 0.0658,0.0842 0.0658,0.0927 0,0.002 0.007,0.0186 0.0156,0.0365 0.0126,0.0267 0.0156,0.0446 0.0156,0.0985 0,0.0596 -0.002,0.0698 -0.0208,0.10676 -0.0219,0.0429 -0.0614,0.0785 -0.12045,0.10807 -0.0517,0.026 -0.15845,0.0565 -0.24379,0.0697 -0.12347,0.0191 -0.24236,0.0348 -0.31221,0.0412 -0.089,0.008 -0.32235,0.008 -0.4024,1.5e-4 z m 0.34415,-0.0691 c 0.32525,-0.0252 0.54077,-0.0723 0.63363,-0.13841 0.0208,-0.0148 0.0426,-0.0536 0.0516,-0.0915 0.006,-0.027 -0.006,-0.0873 -0.0284,-0.1308 -0.0208,-0.0418 -0.0815,-0.10765 -0.11975,-0.13021 -0.0749,-0.0442 -0.22115,-0.0682 -0.56198,-0.0924 -0.13681,-0.01 -0.4082,-0.004 -0.5305,0.0117 -0.16183,0.0204 -0.3085,0.0554 -0.36493,0.0871 -0.0225,0.0126 -0.0273,0.0191 -0.0273,0.0366 1.3e-4,0.0733 0.0763,0.18805 0.17964,0.27047 0.18827,0.15019 0.42242,0.2043 0.76807,0.17749 z m -0.9743,-0.0264 c -0.0698,-0.0733 -0.15308,-0.2071 -0.18298,-0.29397 -0.0374,-0.10855 -0.0406,-0.12741 -0.025,-0.14306 0.011,-0.011 0.0435,-0.0106 0.0528,4.9e-4 0.005,0.005 0.0135,0.0306 0.021,0.0572 0.0138,0.0487 0.0493,0.13257 0.0744,0.17567 0.0144,0.0248 0.0969,0.13723 0.11197,0.15248 0.0136,0.0139 0.0181,0.0399 0.009,0.0561 -0.0112,0.0208 -0.0392,0.0185 -0.0615,-0.005 z"
         id="path3926"
         sodipodi:nodetypes="ssssssssssssssssssssssssssssssssssssssssssssssssssssssssssssssssssssssssssssssssssscsssssssssssssssssssssssssssssssssssssssssssssscssssssssssssssssssssssssssssssssssssssssssssscssssssssssssssssssssssssssssssssssssssssssssssssssssssssssssssssssssssssssssssssssssssssssssssscsscccssssssssssssssssssssssssssssssscscsssssssssssssssssssssssssssscsssscsscssscsccssssssssssssssssssssssssssssssssssssscsssscssssssssssssssssscscsssccsscssssssssssssssssscssccsscssscssssscsssssssssccssssssssssssssssssssscsssssssssssssssssssssssssssssssssssssssssssssssssssssssssssssssssscsssssssssssssssscssssssssssssssssscsssssssssssssssssssssssssssssssscsssssssssssssssssssssssssssssssssssssssssssssssssssssssssssssssssssssssssssssssssssssssssscsssssssssssssssssssscsssssssssssssssssssssssssssssssssssssscsssssssssssssssssssssssssssssssssssssssssssssssssssssssssssssssscssssssssssccsssccsssssssssssssssssssss" />
    </g>
  </g>
</svg>
