<?xml version="1.0" encoding="UTF-8" standalone="no"?>
<!-- Created with Inkscape (http://www.inkscape.org/) -->

<svg
   width="6.0229998mm"
   height="5mm"
   viewBox="0 0 6.0229995 4.9999999"
   version="1.1"
   id="svg1"
   inkscape:version="1.4.2 (ebf0e940d0, 2025-05-08)"
   sodipodi:docname="5_1_1_75.svg"
   xmlns:inkscape="http://www.inkscape.org/namespaces/inkscape"
   xmlns:sodipodi="http://sodipodi.sourceforge.net/DTD/sodipodi-0.dtd"
   xmlns="http://www.w3.org/2000/svg"
   xmlns:svg="http://www.w3.org/2000/svg">
  <sodipodi:namedview
     id="namedview1"
     pagecolor="#ffffff"
     bordercolor="#000000"
     borderopacity="0.25"
     inkscape:showpageshadow="2"
     inkscape:pageopacity="0.0"
     inkscape:pagecheckerboard="0"
     inkscape:deskcolor="#d1d1d1"
     inkscape:document-units="mm"
     inkscape:zoom="2.6972018"
     inkscape:cx="64.511302"
     inkscape:cy="88.981106"
     inkscape:window-width="1075"
     inkscape:window-height="991"
     inkscape:window-x="26"
     inkscape:window-y="23"
     inkscape:window-maximized="0"
     inkscape:current-layer="layer1" />
  <defs
     id="defs1">
    <rect
       x="-26.458582"
       y="130.73653"
       width="155.86105"
       height="46.469273"
       id="rect2" />
    <rect
       x="13.485725"
       y="-52.819092"
       width="225.2477"
       height="118.63495"
       id="rect1" />
    <rect
       x="37.795277"
       y="37.795277"
       width="483.77954"
       height="718.11023"
       id="rect2721" />
    <rect
       x="37.795277"
       y="37.795277"
       width="483.77954"
       height="718.11023"
       id="rect2722" />
    <rect
       x="37.795277"
       y="37.795277"
       width="483.77954"
       height="718.11023"
       id="rect2723" />
    <rect
       x="37.795277"
       y="37.795277"
       width="483.77954"
       height="718.11023"
       id="rect2724" />
    <rect
       x="37.795277"
       y="37.795277"
       width="483.77954"
       height="718.11023"
       id="rect2725" />
    <rect
       x="37.795277"
       y="37.795277"
       width="483.77954"
       height="718.11023"
       id="rect2726" />
    <rect
       x="37.795277"
       y="37.795277"
       width="483.77954"
       height="718.11023"
       id="rect2727" />
    <rect
       x="37.795277"
       y="37.795277"
       width="483.77954"
       height="718.11023"
       id="rect2728" />
    <rect
       x="37.795277"
       y="37.795277"
       width="483.77954"
       height="718.11023"
       id="rect2729" />
    <rect
       x="37.795277"
       y="37.795277"
       width="483.77954"
       height="718.11023"
       id="rect2730" />
    <rect
       x="37.795277"
       y="37.795277"
       width="483.77954"
       height="718.11023"
       id="rect2731" />
    <rect
       x="37.795277"
       y="37.795277"
       width="483.77954"
       height="718.11023"
       id="rect2732" />
    <rect
       x="37.795277"
       y="37.795277"
       width="483.77954"
       height="718.11023"
       id="rect2733" />
    <rect
       x="37.795277"
       y="37.795277"
       width="483.77954"
       height="718.11023"
       id="rect2734" />
    <rect
       x="37.795277"
       y="37.795277"
       width="483.77954"
       height="718.11023"
       id="rect6439" />
    <rect
       x="37.795277"
       y="37.795277"
       width="483.77954"
       height="718.11023"
       id="rect6440" />
    <rect
       x="37.795277"
       y="37.795277"
       width="483.77954"
       height="718.11023"
       id="rect6441" />
    <rect
       x="37.795277"
       y="37.795277"
       width="483.77954"
       height="718.11023"
       id="rect6442" />
    <rect
       x="37.795277"
       y="37.795277"
       width="483.77954"
       height="718.11023"
       id="rect2743" />
    <rect
       x="37.795277"
       y="37.795277"
       width="483.77954"
       height="718.11023"
       id="rect2744" />
    <rect
       x="37.795277"
       y="37.795277"
       width="483.77954"
       height="718.11023"
       id="rect2745" />
    <rect
       x="37.795277"
       y="37.795277"
       width="483.77954"
       height="718.11023"
       id="rect6403" />
    <rect
       x="37.795277"
       y="37.795277"
       width="483.77954"
       height="718.11023"
       id="rect6443" />
    <rect
       x="37.795277"
       y="37.795277"
       width="483.77954"
       height="718.11023"
       id="rect6444" />
    <rect
       x="37.795277"
       y="37.795277"
       width="483.77954"
       height="718.11023"
       id="rect6445" />
    <rect
       x="37.795277"
       y="37.795277"
       width="483.77954"
       height="718.11023"
       id="rect6446" />
    <rect
       x="37.795277"
       y="37.795277"
       width="483.77954"
       height="718.11023"
       id="rect6469" />
    <rect
       x="37.795277"
       y="37.795277"
       width="483.77954"
       height="718.11023"
       id="rect6470" />
    <rect
       x="37.795277"
       y="37.795277"
       width="483.77954"
       height="718.11023"
       id="rect6471" />
    <rect
       x="37.795277"
       y="37.795277"
       width="483.77954"
       height="718.11023"
       id="rect6472" />
    <rect
       x="-26.458582"
       y="130.73653"
       width="155.86105"
       height="46.469273"
       id="rect30" />
    <rect
       x="-26.458582"
       y="130.73653"
       width="155.86105"
       height="46.469273"
       id="rect31" />
    <rect
       x="-26.458582"
       y="130.73653"
       width="155.86105"
       height="46.469273"
       id="rect32" />
    <rect
       x="-26.458582"
       y="130.73653"
       width="155.86105"
       height="46.469273"
       id="rect33" />
    <rect
       x="-26.458582"
       y="130.73653"
       width="155.86105"
       height="46.469273"
       id="rect34" />
    <rect
       x="-26.458582"
       y="130.73653"
       width="155.86105"
       height="46.469273"
       id="rect35" />
    <rect
       x="-26.458582"
       y="130.73653"
       width="155.86105"
       height="46.469273"
       id="rect38" />
    <rect
       x="-26.458582"
       y="130.73653"
       width="155.86105"
       height="46.469273"
       id="rect39" />
    <rect
       x="-26.458582"
       y="130.73653"
       width="155.86105"
       height="46.469273"
       id="rect40" />
    <rect
       x="-26.458582"
       y="130.73653"
       width="155.86105"
       height="46.469273"
       id="rect42" />
    <rect
       x="-26.458582"
       y="130.73653"
       width="155.86105"
       height="46.469273"
       id="rect43" />
    <rect
       x="-26.458582"
       y="130.73653"
       width="155.86105"
       height="46.469273"
       id="rect44" />
    <rect
       x="-26.458582"
       y="130.73653"
       width="155.86105"
       height="46.469273"
       id="rect46" />
    <rect
       x="-26.458582"
       y="130.73653"
       width="155.86105"
       height="46.469273"
       id="rect47" />
    <rect
       x="-26.458582"
       y="130.73653"
       width="155.86105"
       height="46.469273"
       id="rect48" />
  </defs>
  <g
     inkscape:label="Katman 1"
     inkscape:groupmode="layer"
     id="layer1">
    <path
       style="fill:#ed1c24;fill-opacity:1;stroke-width:0.0778528"
       d="M 1.889,4.9768877 C 1.3954,4.9476977 0.9999,4.9030877 0.9705,4.8732827 0.9085,4.8100227 0.6423,4.1081257 0.4803,3.5792587 0.2153,2.7137597 0.0293,1.6100817 0.01,0.78815768 L 0,0.54097568 l 0.2678,-0.08908 c 0.4912,-0.163402 1.1385,-0.308823 1.7032,-0.382649 0.9879,-0.129146 1.9016,-0.07922 2.9829,0.163002 0.4362,0.0977 1.0308,0.279111 1.0579,0.322796 0.043,0.06992 -0.046,1.06551902 -0.1509,1.68530802 -0.1311,0.77161 -0.4282,1.79399 -0.7016,2.414208 l -0.1062,0.241064 -0.086,0.01111 c -0.6525,0.08465 -2.2303,0.120561 -3.0826,0.07016 z m 1.9362,-0.07973 c 0.2549,-0.01125 0.6096,-0.0343 0.7882,-0.05122 0.1786,-0.01692 0.3341,-0.03077 0.3456,-0.03077 0.047,0 0.308,-0.656497 0.4666,-1.174116 0.2632,-0.85945 0.4169,-1.711373 0.481,-2.66516402 0.019,-0.287235 0.018,-0.350959 -0.01,-0.365792 -0.043,-0.02812 -0.4585,-0.155454 -0.7616,-0.233515 -0.7025,-0.180902 -1.2411,-0.256309 -1.9443,-0.272239 -0.668,-0.01513 -1.1968,0.0312 -1.8289,0.16024 -0.4689,0.09571 -1.1925,0.301069 -1.2398,0.351863 -0.041,0.04365 0.01,0.73183202 0.094,1.33552802 0.1297,0.906201 0.4033,1.894107 0.7343,2.652061 0.051,0.116123 0.1,0.211134 0.1095,0.211134 0.01,0 0.1684,0.01429 0.3531,0.03176 0.6913,0.06535 1.6228,0.0848 2.406,0.05023 z M 3.025,4.4894917 c 0.014,-0.01914 0.062,-0.07398 0.1045,-0.12188 0.049,-0.0548 0.078,-0.107529 0.078,-0.142233 0,-0.05165 0,-0.05303 -0.037,-0.02184 -0.046,0.04146 -0.1902,0.103069 -0.2056,0.0877 -0.01,-0.0063 0.01,-0.0287 0.023,-0.04987 0.037,-0.04131 0.081,-0.167845 0.058,-0.167613 -0.01,7.8e-5 -0.035,0.03213 -0.062,0.07122 -0.1025,0.150588 -0.2502,0.224995 -0.4893,0.246458 -0.1553,0.01394 -0.1568,0.01948 0.026,-0.09864 0.05,-0.0324 0.1005,-0.07697 0.1123,-0.09903 0.02,-0.03713 0.016,-0.03912 -0.051,-0.02665 -0.039,0.0074 -0.1007,0.0071 -0.1361,-6.66e-4 l -0.064,-0.01412 0.094,-0.08715 c 0.087,-0.08089 0.1176,-0.135768 0.076,-0.135768 -0.01,0 -0.034,0.01855 -0.055,0.04122 -0.1234,0.136302 -0.4446,0.195692 -0.6235,0.115288 -0.1042,-0.04686 -0.1114,-0.07355 -0.02,-0.07568 0.1354,-0.0032 0.3054,-0.101426 0.1756,-0.101426 -0.027,0 -0.071,-0.02023 -0.098,-0.04496 l -0.048,-0.04496 0.078,-0.02709 c 0.092,-0.03205 0.134,-0.06324 0.134,-0.100749 0,-0.02161 -0.016,-0.02034 -0.077,0.0061 -0.103,0.04457 -0.3408,0.04417 -0.4447,-7.78e-4 -0.086,-0.03727 -0.2402,-0.151757 -0.2402,-0.17853 0,-0.0092 0.035,-0.0086 0.077,0.0012 0.042,0.0099 0.1236,0.01761 0.1803,0.01722 0.089,-6.11e-4 0.097,-0.0041 0.062,-0.02526 -0.022,-0.01349 -0.073,-0.05698 -0.1132,-0.09663 l -0.073,-0.07209 0.1133,-0.0063 c 0.1311,-0.0073 0.1784,-0.03662 0.091,-0.05612 -0.2681,-0.05953 -0.3927,-0.129075 -0.5025,-0.280588 -0.093,-0.128094 -0.083,-0.148862 0.046,-0.09699 0.1869,0.07507 0.1897,0.07479 0.13,-0.01328 -0.029,-0.04273 -0.053,-0.09446 -0.053,-0.114963 0,-0.03454 0.01,-0.03508 0.071,-0.0074 0.039,0.01642 0.097,0.02964 0.1287,0.02939 0.052,-4.05e-4 0.048,-0.0047 -0.035,-0.04223 -0.1407,-0.06386 -0.2229,-0.135704 -0.2765,-0.241822 -0.047,-0.09366 -0.1077,-0.32742 -0.089,-0.3458 0.01,-0.005 0.033,0.02792 0.063,0.07315 0.03,0.04523 0.082,0.09664 0.1162,0.11424 0.07,0.03612 0.071,0.0344 0.038,-0.07326 -0.013,-0.04295 -0.017,-0.09408 -0.01,-0.113618 0.013,-0.03279 0.017,-0.03232 0.06,0.0062 0.053,0.04827 0.1251,0.08805 0.1597,0.08805 0.013,0 -0.022,-0.05001 -0.077,-0.111119 -0.1293,-0.141483 -0.1806,-0.289048 -0.1605,-0.462076 0.02,-0.172665 0.039,-0.185905 0.08,-0.05613 0.021,0.0673 0.057,0.129634 0.089,0.154962 0.062,0.04901 0.081,0.04257 0.049,-0.01688 -0.03,-0.0564 -0.028,-0.131558 0.01,-0.176824 0.025,-0.03475 0.029,-0.0328 0.054,0.02766 0.024,0.05886 0.1206,0.156642 0.1376,0.13973 0.01,-0.0038 -0.013,-0.06186 -0.037,-0.129029 -0.065,-0.180043 -0.062,-0.361631 0.01,-0.507651 0.088,-0.17936302 0.1083,-0.18298802 0.1098,-0.01939 0,0.07639 0.013,0.16132 0.028,0.188732 0.026,0.04871 0.027,0.04759 0.052,-0.04909 0.014,-0.05442 0.045,-0.118695 0.069,-0.142844 l 0.044,-0.04391 v 0.06703 c 0,0.07135 0.044,0.196863 0.077,0.216961 0.012,0.0074 0.015,-0.04728 0.01,-0.141583 -0.014,-0.21734102 0.021,-0.32537802 0.1451,-0.44952302 0.055,-0.05507 0.1051,-0.09513 0.1112,-0.08903 0.01,0.0061 0,0.05866 -0.012,0.116809 -0.012,0.05815 -0.017,0.128997 -0.01,0.157441 0.013,0.05081 0.014,0.05029 0.061,-0.02958 0.027,-0.04471 0.071,-0.09587 0.098,-0.113683 l 0.049,-0.03239 -0.01,0.129932 c -0.01,0.08466 0,0.13492702 0.013,0.14426702 0.014,0.0088 0.023,-0.0017 0.023,-0.02731 0,-0.07388 0.085,-0.27117102 0.1472,-0.34215302 0.065,-0.07423 0.1899,-0.14165 0.3059,-0.16531 l 0.072,-0.0147 -0.1055,0.111835 c -0.1453,0.154154 -0.1821,0.275689 -0.056,0.184546 0.053,-0.0384 0.1715,-0.08038 0.1715,-0.06087 0,0.0045 -0.018,0.04454 -0.041,0.08898 -0.044,0.08739 -0.053,0.154488 -0.021,0.154488 0.011,0 0.021,-0.0085 0.021,-0.01894 0,-0.01042 0.046,-0.06967 0.103,-0.131669 0.1199,-0.131182 0.2181,-0.176978 0.4099,-0.191122 0.1492,-0.01101 0.1498,-0.01289 -0.029,0.09831 -0.049,0.03039 -0.099,0.07352 -0.1109,0.09584 -0.02,0.03783 -0.016,0.03984 0.059,0.02973 0.044,-0.006 0.1063,-0.0044 0.1373,0.0033 l 0.057,0.01418 -0.089,0.07689 c -0.1127,0.09704 -0.1063,0.14970102 0.01,0.07158 0.192,-0.13051008 0.417,-0.16520308 0.5828,-0.0899 0.048,0.02186 0.088,0.04417 0.088,0.04958 0,0.0054 -0.05,0.02018 -0.1106,0.03281 -0.061,0.01263 -0.1272,0.03508 -0.1474,0.0499 -0.034,0.02483 -0.032,0.02812 0.023,0.04191 0.06,0.015 0.1319,0.06677 0.1319,0.09504 0,0.0083 -0.032,0.02115 -0.072,0.02853 -0.064,0.01196 -0.1344,0.07501 -0.1344,0.119874 0,0.0091 0.029,0.0014 0.065,-0.01714 0.1751,-0.09051 0.4594,-0.04808 0.6168,0.09203 l 0.09,0.08058 -0.1853,-0.01037 -0.1854,-0.01037 0.095,0.06152 c 0.1371,0.08906 0.1412,0.12016 0.018,0.1348 -0.055,0.0066 -0.1219,0.02346 -0.1477,0.03754 l -0.047,0.02561 0.062,0.01514 c 0.3,0.07353 0.3523,0.09185 0.429,0.150332 0.076,0.05813 0.1968,0.205589 0.1985,0.242785 0,0.008 -0.06,-0.0082 -0.1337,-0.03605 -0.1662,-0.0626 -0.1937,-0.06343 -0.1385,-0.0042 0.042,0.04552 0.084,0.159639 0.058,0.159639 -0.01,0 -0.047,-0.01391 -0.087,-0.0309 -0.04,-0.017 -0.098,-0.03066 -0.128,-0.03037 -0.043,4.12e-4 -0.027,0.01372 0.073,0.06247 0.075,0.03635 0.1582,0.09749 0.2014,0.147951 0.074,0.08675 0.1551,0.297541 0.1549,0.404028 v 0.05448 l -0.038,-0.0618 c -0.041,-0.06682 -0.1784,-0.195685 -0.2091,-0.195685 -0.011,0 -0.01,0.03214 0.011,0.07143 0.017,0.03929 0.03,0.09496 0.03,0.12372 v 0.05229 l -0.085,-0.06192 c -0.047,-0.03406 -0.1033,-0.06193 -0.1251,-0.06193 -0.033,0 -0.023,0.01933 0.052,0.108142 0.1068,0.126025 0.1478,0.201867 0.1673,0.309276 0.017,0.09194 -0.01,0.324129 -0.032,0.324129 -0.01,0 -0.018,-0.01622 -0.018,-0.03605 0,-0.01983 -0.027,-0.09398 -0.061,-0.164788 -0.069,-0.14482 -0.1213,-0.172503 -0.1077,-0.05652 0.01,0.03972 0,0.106925 -0.01,0.149339 l -0.014,0.07712 -0.037,-0.07212 c -0.04,-0.07627 -0.117,-0.157753 -0.1342,-0.140556 -0.01,0.0056 0.01,0.06418 0.031,0.130123 0.026,0.07648 0.041,0.173478 0.041,0.267871 0,0.124036 -0.011,0.168499 -0.063,0.274855 -0.035,0.06978 -0.07,0.126833 -0.077,0.126774 -0.01,-5.8e-5 -0.014,-0.06263 -0.015,-0.13904 0,-0.08086 -0.013,-0.160458 -0.03,-0.190429 l -0.03,-0.0515 -0.01,0.0515 c -0.012,0.09485 -0.047,0.180089 -0.088,0.216986 -0.039,0.03572 -0.041,0.03479 -0.041,-0.03937 0,-0.08467 -0.044,-0.205268 -0.083,-0.229783 -0.017,-0.01017 -0.021,-0.0076 -0.012,0.007 0.01,0.01262 0.014,0.102056 0.015,0.19875 0,0.153756 -0.01,0.188927 -0.056,0.280432 -0.031,0.05754 -0.094,0.133816 -0.1388,0.16949 -0.081,0.06412 -0.082,0.06428 -0.068,0.01393 0.027,-0.09659 0.039,-0.223827 0.025,-0.259764 -0.012,-0.03006 -0.021,-0.02428 -0.056,0.03491 -0.038,0.06392 -0.1148,0.141325 -0.1414,0.142619 -0.01,2.72e-4 -0.01,-0.06083 -0.01,-0.135799 0.01,-0.09468 0,-0.132061 -0.015,-0.122419 -0.012,0.0076 -0.022,0.03022 -0.022,0.05019 0,0.0713 -0.064,0.222314 -0.1262,0.297735 -0.067,0.08165 -0.1643,0.13969 -0.2925,0.174928 -0.072,0.01991 -0.077,0.01884 -0.052,-0.01314 z m 0.3007,-1.092992 c 0.1949,-0.0994 0.3164,-0.334092 0.2731,-0.527325 -0.028,-0.127454 -0.064,-0.192346 -0.1477,-0.271191 -0.1355,-0.12743 -0.2839,-0.170845 -0.4489,-0.131275 -0.1331,0.03193 -0.2721,0.138897 -0.3266,0.251308 l -0.043,0.0888 V 2.1734117 1.5400067 H 2.4884 2.3442 v 0.937233 0.937234 h 0.1442 0.1442 v -0.159639 -0.159639 l 0.043,0.08767 c 0.1118,0.230532 0.4195,0.331561 0.6506,0.213637 z M 3.0536,3.1934587 c -0.072,-0.01839 -0.1305,-0.06842 -0.1658,-0.142672 -0.045,-0.09521 -0.027,-0.1935 0.052,-0.271476 0.1036,-0.103625 0.2474,-0.103212 0.3516,10e-4 0.051,0.05073 0.061,0.07714 0.061,0.162691 0,0.126799 -0.04,0.190422 -0.1459,0.232827 -0.085,0.03405 -0.087,0.03423 -0.152,0.01762 z M 3.692,2.1038807 c 0.039,-0.202505 0.076,-0.388485 0.082,-0.413288 0.01,-0.0352 0.031,-0.04814 0.1032,-0.05898 0.072,-0.01082 0.093,-0.02249 0.093,-0.05274 0,-0.03463 -0.017,-0.03886 -0.1548,-0.03886 H 3.6605 l -0.2644,0.355325 -0.2643,0.355325 0.1188,0.03627 c 0.065,0.01995 0.1728,0.07256 0.2388,0.116926 0.066,0.04436 0.1227,0.07786 0.1262,0.07444 0.01,-0.0034 0.038,-0.171903 0.077,-0.374408 z"
       id="path2778"
       sodipodi:nodetypes="cssscsssssscsccsssssssssssssssscsssssssssssscssssssscssssssssscssssssssssssssssssssssssssscssscsssssssssccsssscsssssssssssscsssssssssssscccssscsscsssssssscsscscssssssscccsssssscscssssscssssssscsssccssssscccccccccccssssssssssssssscccssss" />
  </g>
</svg>
