<?xml version="1.0" encoding="UTF-8" standalone="no"?>
<!-- Created with Inkscape (http://www.inkscape.org/) -->

<svg
   width="18.753mm"
   height="18.598mm"
   viewBox="0 0 18.753 18.598"
   version="1.1"
   id="svg1"
   inkscape:version="1.4.2 (ebf0e940d0, 2025-05-08)"
   sodipodi:docname="5_1_1_66.svg"
   xmlns:inkscape="http://www.inkscape.org/namespaces/inkscape"
   xmlns:sodipodi="http://sodipodi.sourceforge.net/DTD/sodipodi-0.dtd"
   xmlns="http://www.w3.org/2000/svg"
   xmlns:svg="http://www.w3.org/2000/svg">
  <sodipodi:namedview
     id="namedview1"
     pagecolor="#ffffff"
     bordercolor="#000000"
     borderopacity="0.25"
     inkscape:showpageshadow="2"
     inkscape:pageopacity="0.0"
     inkscape:pagecheckerboard="0"
     inkscape:deskcolor="#d1d1d1"
     inkscape:document-units="mm"
     inkscape:zoom="2.6972018"
     inkscape:cx="79.156109"
     inkscape:cy="74.150922"
     inkscape:window-width="1075"
     inkscape:window-height="991"
     inkscape:window-x="26"
     inkscape:window-y="23"
     inkscape:window-maximized="0"
     inkscape:current-layer="layer1" />
  <defs
     id="defs1">
    <rect
       x="-26.458582"
       y="130.73653"
       width="155.86105"
       height="46.469273"
       id="rect2" />
    <rect
       x="13.485725"
       y="-52.819092"
       width="225.2477"
       height="118.63495"
       id="rect1" />
    <rect
       x="37.795277"
       y="37.795277"
       width="483.77954"
       height="718.11023"
       id="rect2721" />
    <rect
       x="37.795277"
       y="37.795277"
       width="483.77954"
       height="718.11023"
       id="rect2722" />
    <rect
       x="37.795277"
       y="37.795277"
       width="483.77954"
       height="718.11023"
       id="rect2723" />
    <rect
       x="37.795277"
       y="37.795277"
       width="483.77954"
       height="718.11023"
       id="rect2724" />
    <rect
       x="37.795277"
       y="37.795277"
       width="483.77954"
       height="718.11023"
       id="rect2725" />
    <rect
       x="37.795277"
       y="37.795277"
       width="483.77954"
       height="718.11023"
       id="rect2726" />
    <rect
       x="37.795277"
       y="37.795277"
       width="483.77954"
       height="718.11023"
       id="rect2727" />
    <rect
       x="37.795277"
       y="37.795277"
       width="483.77954"
       height="718.11023"
       id="rect2728" />
    <rect
       x="37.795277"
       y="37.795277"
       width="483.77954"
       height="718.11023"
       id="rect2729" />
    <rect
       x="37.795277"
       y="37.795277"
       width="483.77954"
       height="718.11023"
       id="rect2730" />
    <rect
       x="37.795277"
       y="37.795277"
       width="483.77954"
       height="718.11023"
       id="rect2731" />
    <rect
       x="37.795277"
       y="37.795277"
       width="483.77954"
       height="718.11023"
       id="rect2732" />
    <rect
       x="37.795277"
       y="37.795277"
       width="483.77954"
       height="718.11023"
       id="rect2733" />
    <rect
       x="37.795277"
       y="37.795277"
       width="483.77954"
       height="718.11023"
       id="rect2734" />
    <rect
       x="37.795277"
       y="37.795277"
       width="483.77954"
       height="718.11023"
       id="rect6439" />
    <rect
       x="37.795277"
       y="37.795277"
       width="483.77954"
       height="718.11023"
       id="rect6440" />
    <rect
       x="37.795277"
       y="37.795277"
       width="483.77954"
       height="718.11023"
       id="rect6441" />
    <rect
       x="37.795277"
       y="37.795277"
       width="483.77954"
       height="718.11023"
       id="rect6442" />
    <rect
       x="37.795277"
       y="37.795277"
       width="483.77954"
       height="718.11023"
       id="rect2743" />
    <rect
       x="37.795277"
       y="37.795277"
       width="483.77954"
       height="718.11023"
       id="rect2744" />
    <rect
       x="37.795277"
       y="37.795277"
       width="483.77954"
       height="718.11023"
       id="rect2745" />
    <rect
       x="37.795277"
       y="37.795277"
       width="483.77954"
       height="718.11023"
       id="rect6403" />
    <rect
       x="37.795277"
       y="37.795277"
       width="483.77954"
       height="718.11023"
       id="rect6443" />
    <rect
       x="37.795277"
       y="37.795277"
       width="483.77954"
       height="718.11023"
       id="rect6444" />
    <rect
       x="37.795277"
       y="37.795277"
       width="483.77954"
       height="718.11023"
       id="rect6445" />
    <rect
       x="37.795277"
       y="37.795277"
       width="483.77954"
       height="718.11023"
       id="rect6446" />
    <rect
       x="37.795277"
       y="37.795277"
       width="483.77954"
       height="718.11023"
       id="rect6469" />
    <rect
       x="37.795277"
       y="37.795277"
       width="483.77954"
       height="718.11023"
       id="rect6470" />
    <rect
       x="37.795277"
       y="37.795277"
       width="483.77954"
       height="718.11023"
       id="rect6471" />
    <rect
       x="37.795277"
       y="37.795277"
       width="483.77954"
       height="718.11023"
       id="rect6472" />
    <rect
       x="-26.458582"
       y="130.73653"
       width="155.86105"
       height="46.469273"
       id="rect30" />
    <rect
       x="-26.458582"
       y="130.73653"
       width="155.86105"
       height="46.469273"
       id="rect31" />
    <rect
       x="-26.458582"
       y="130.73653"
       width="155.86105"
       height="46.469273"
       id="rect32" />
    <rect
       x="-26.458582"
       y="130.73653"
       width="155.86105"
       height="46.469273"
       id="rect33" />
    <rect
       x="-26.458582"
       y="130.73653"
       width="155.86105"
       height="46.469273"
       id="rect34" />
    <rect
       x="-26.458582"
       y="130.73653"
       width="155.86105"
       height="46.469273"
       id="rect35" />
    <rect
       x="-26.458582"
       y="130.73653"
       width="155.86105"
       height="46.469273"
       id="rect38" />
    <rect
       x="-26.458582"
       y="130.73653"
       width="155.86105"
       height="46.469273"
       id="rect39" />
    <rect
       x="-26.458582"
       y="130.73653"
       width="155.86105"
       height="46.469273"
       id="rect40" />
    <rect
       x="-26.458582"
       y="130.73653"
       width="155.86105"
       height="46.469273"
       id="rect42" />
    <rect
       x="-26.458582"
       y="130.73653"
       width="155.86105"
       height="46.469273"
       id="rect43" />
    <rect
       x="-26.458582"
       y="130.73653"
       width="155.86105"
       height="46.469273"
       id="rect44" />
    <rect
       x="-26.458582"
       y="130.73653"
       width="155.86105"
       height="46.469273"
       id="rect46" />
    <rect
       x="-26.458582"
       y="130.73653"
       width="155.86105"
       height="46.469273"
       id="rect47" />
    <rect
       x="-26.458582"
       y="130.73653"
       width="155.86105"
       height="46.469273"
       id="rect48" />
  </defs>
  <g
     inkscape:label="Katman 1"
     inkscape:groupmode="layer"
     id="layer1">
    <g
       id="g11"
       transform="translate(-1443.5072,-141.4936)">
      <path
         style="fill:#ffe6d5;fill-opacity:1;stroke-width:0.264999"
         d="m 1450.5452,145.689 0.8311,0.005 0.6518,-0.27158 0.5293,-0.54172 0.2925,-0.60362 0.014,-0.81992 -0.2217,-0.62898 -0.6616,-0.64271 -0.7157,-0.31188 -0.8119,0.0128 -0.5603,0.25495 -0.4821,0.36516 -0.3579,0.6605 -0.1,0.69097 0.071,0.71602 0.383,0.48526 0.5728,0.42501 z"
         id="path2080" />
      <path
         style="fill:#87de87;fill-opacity:1;stroke-width:0.264999"
         d="m 1445.3656,158.0491 0.2877,0.0957 0.1733,-0.0608 0.1673,-0.17535 -0.066,-0.38556 0.1604,-0.79357 0.2979,-1.31948 0.1206,-0.051 0.1281,-0.14293 0.099,-0.46167 1.0092,1.48158 1.3623,1.97567 0.4393,0.6202 5.0717,-0.008 2.3346,-0.77824 0.3227,0.11943 0.3429,-0.1653 0.027,-0.38173 -0.2297,-0.15357 -0.3425,0.0589 -0.2319,0.18231 -0.8693,0.33215 -1.4263,0.4852 -3.813,0.009 -1.0798,-0.004 -0.7777,-1.06892 -1.0442,-1.56648 -1.0366,-1.5665 0.08,-0.36818 -0.1305,-0.21719 0.3241,-1.29895 0.6818,-2.67622 -0.052,-0.4703 -0.3383,0.0506 0.058,0.36726 -0.6165,2.31387 -0.4109,1.67541 -0.2143,0.14921 -0.2889,1.26335 0.08,0.29235 -0.1627,0.93942 -0.3209,1.22921 -0.18,0.2754 z"
         id="path2081" />
      <path
         style="fill:#deaa87;fill-opacity:1;stroke-width:0.264999"
         d="m 1447.1864,149.25003 0.1713,0.0959 0.3383,-0.0506 0.216,-0.17237 0.186,-0.55062 -0.157,-0.33732 -0.2062,-0.027 -0.2738,0.0775 -0.2501,0.23225 -0.1882,0.38551 0.043,0.25957 z"
         id="path2082" />
      <path
         style="fill:#deaa87;fill-opacity:1;stroke-width:0.264999"
         d="m 1450.428,158.38808 0.4034,0.0734 0.5726,-0.0631 0.1658,-0.14863 -0.04,-0.10397 -0.5519,-0.0494 -0.3588,0.0578 -0.226,0.14587 z"
         id="path2083" />
      <path
         style="fill:#000000;stroke-width:0.0631553"
         d="m 1445.3113,160.06384 c -0.2406,-0.0432 -0.388,-0.0917 -0.5883,-0.19335 -0.2538,-0.129 -0.3903,-0.22047 -0.5468,-0.36668 -0.2936,-0.27414 -0.5081,-0.64256 -0.622,-1.06761 -0.044,-0.16529 -0.047,-0.19469 -0.047,-0.52599 0,-0.33563 0,-0.35847 0.048,-0.52488 0.1632,-0.59033 0.4931,-1.04058 0.9709,-1.32502 0.3614,-0.21518 0.6548,-0.30411 1.0736,-0.32546 0.1697,-0.009 0.2047,-0.006 0.2047,0.0131 0,0.013 -0.015,0.10243 -0.033,0.19889 -0.019,0.0965 -0.033,0.17729 -0.033,0.1796 0,0.002 -0.04,0.005 -0.088,0.005 -0.3242,7.8e-4 -0.6835,0.11501 -0.972,0.30782 -0.1377,0.092 -0.3547,0.29832 -0.4406,0.41874 -0.1505,0.2112 -0.265,0.47031 -0.3132,0.70823 -0.044,0.21687 -0.027,0.62714 0.033,0.82907 0.2147,0.71651 0.7977,1.20187 1.5577,1.29673 0.1402,0.0174 0.1925,0.0166 0.3486,-0.006 0.8264,-0.11991 1.3999,-0.65986 1.5625,-1.4711 0.043,-0.21174 0.043,-0.4043 0,-0.60938 -0.1221,-0.58089 -0.4204,-0.98939 -0.9224,-1.26318 -0.1007,-0.0549 -0.1796,-0.1086 -0.1796,-0.12218 0,-0.0629 0.076,-0.3441 0.094,-0.35134 0.029,-0.0108 0.4162,0.19238 0.5557,0.29113 0.4195,0.29695 0.7594,0.85291 0.8457,1.38321 0.032,0.19458 0.032,0.56591 0,0.74843 -0.097,0.55696 -0.4185,1.07244 -0.8662,1.38962 -0.1444,0.10233 -0.4657,0.26585 -0.6104,0.31073 -0.3012,0.0933 -0.7413,0.12432 -1.03,0.0725 z m 11.6603,0.002 c -0.2213,-0.0405 -0.3796,-0.0919 -0.5726,-0.18585 -0.4804,-0.23394 -0.7532,-0.49831 -1.0233,-0.99165 -0.1,-0.182 -0.1048,-0.16812 0.091,-0.24051 0.1067,-0.0395 0.1795,-0.058 0.1934,-0.0493 0.012,0.008 0.048,0.0617 0.08,0.11986 0.1902,0.35068 0.4621,0.62244 0.7842,0.78406 0.1133,0.0568 0.3679,0.14212 0.518,0.17354 0.1472,0.0308 0.4422,0.0263 0.6099,-0.009 0.712,-0.15113 1.2289,-0.64383 1.4044,-1.33859 0.061,-0.24129 0.075,-0.41195 0.05,-0.58446 -0.09,-0.61117 -0.3898,-1.0746 -0.8836,-1.3657 -0.1213,-0.0716 -0.3784,-0.17792 -0.4632,-0.19168 -0.032,-0.005 -0.057,-0.0164 -0.057,-0.025 0,-0.018 0.2692,-0.33092 0.2847,-0.33092 0.019,0 0.2237,0.0866 0.3248,0.13764 0.4776,0.24069 0.8731,0.67915 1.0557,1.17042 0.099,0.26675 0.129,0.44807 0.1287,0.78068 0,0.2356 -0.01,0.32538 -0.036,0.46205 -0.1088,0.50979 -0.444,1.01823 -0.8618,1.30704 -0.1612,0.11138 -0.5354,0.29103 -0.6784,0.32567 -0.3262,0.079 -0.6901,0.099 -0.9473,0.0519 z m 1.9039,-0.15257 c -0.027,-0.011 -0.026,-0.0469 0,-0.0697 0.013,-0.01 0.1155,-0.033 0.2298,-0.0512 0.1144,-0.0182 0.3208,-0.0522 0.4588,-0.0754 0.302,-0.0508 0.7492,-0.10996 0.7588,-0.10031 0.015,0.015 -0.019,0.0266 -0.2676,0.0905 -0.2934,0.0755 -1.1237,0.23054 -1.1567,0.21587 0,-7.3e-4 -0.012,-0.005 -0.024,-0.01 z m -11.5506,-0.0365 c 0,-0.0315 0.069,-0.0725 0.1862,-0.11086 0.2265,-0.0739 0.5914,-0.15843 0.8686,-0.2011 0.1505,-0.0231 0.2868,-0.0462 0.3028,-0.0513 0.016,-0.005 0.03,-0.002 0.03,0.006 0,0.009 -0.077,0.0354 -0.1713,0.0595 -0.094,0.0243 -0.2352,0.0631 -0.3133,0.0865 -0.2323,0.0695 -0.8325,0.22497 -0.8688,0.22497 -0.019,0 -0.033,-0.006 -0.033,-0.0141 z m -0.1672,-0.13415 c 0,-0.0389 0.076,-0.07 0.8022,-0.32438 0.6861,-0.24059 0.8829,-0.30429 0.8968,-0.29037 0.01,0.006 0.01,0.0133 0,0.0162 -0.026,0.0196 -0.6249,0.26341 -0.7923,0.32285 -0.064,0.0229 -0.1321,0.0483 -0.1504,0.0567 -0.019,0.008 -0.1275,0.0482 -0.2424,0.0886 -0.5229,0.1838 -0.5179,0.18254 -0.5179,0.13039 z m 11.5549,-0.002 c -0.01,-0.009 -0.01,-0.0229 0,-0.0305 0.03,-0.0472 1.5467,-0.56082 1.5746,-0.53294 0.021,0.0216 -0.3811,0.18616 -0.9628,0.39352 -0.5433,0.19367 -0.5876,0.20599 -0.6099,0.16987 z m -5.7474,-0.13217 c 0.01,-0.008 0.095,-0.0581 0.1914,-0.11048 0.097,-0.0524 0.2093,-0.11462 0.2506,-0.13823 0.042,-0.0237 0.1169,-0.066 0.1679,-0.0942 0.051,-0.0282 0.2146,-0.12646 0.3637,-0.21837 0.149,-0.0919 0.2954,-0.18177 0.3251,-0.19969 0.2559,-0.1544 0.7547,-0.49863 1.1132,-0.76824 0.1597,-0.12016 0.3105,-0.2335 0.3349,-0.25189 0.3565,-0.26822 0.8706,-0.72634 1.3306,-1.18587 0.5334,-0.53268 0.7677,-0.80224 1.0587,-1.21771 0.4578,-0.65379 0.7088,-1.19095 0.9287,-1.98805 0.017,-0.0603 0.035,-0.0945 0.046,-0.0902 0.074,0.0263 -0.1321,0.7018 -0.3666,1.19752 -0.4191,0.88604 -1.0791,1.70165 -2.2123,2.7338 -0.1305,0.11879 -0.6519,0.55052 -0.7868,0.65133 -0.024,0.0181 -0.1632,0.12276 -0.3091,0.23268 -0.5027,0.37881 -1.0383,0.71681 -1.7943,1.13242 -0.3777,0.20768 -0.6138,0.33035 -0.6359,0.33035 -0.014,0 -0.017,-0.005 -0.01,-0.0152 z m -7.6222,-0.0273 c -0.5674,-0.12454 -1.007,-0.48027 -1.2284,-0.99415 -0.1086,-0.25185 -0.1209,-0.32061 -0.1215,-0.67615 -6e-4,-0.28486 0,-0.33032 0.038,-0.44236 0.049,-0.15899 0.1621,-0.39902 0.2459,-0.5222 0.085,-0.12501 0.2918,-0.33472 0.4076,-0.41371 0.2185,-0.14882 0.5309,-0.27278 0.7367,-0.29219 0.06,-0.005 0.1466,-0.0142 0.195,-0.0191 0.088,-0.009 0.088,-0.009 0.088,0.0382 0,0.026 -0.01,0.0555 -0.012,0.0658 -0.01,0.0102 -0.07,0.0223 -0.1412,0.0267 -0.1387,0.009 -0.1802,0.029 -0.1802,0.0884 0,0.0351 0.081,0.27158 0.1407,0.41297 0.029,0.0685 0.034,0.15877 0.011,0.19553 -0.011,0.0173 -0.036,-0.0211 -0.093,-0.14204 -0.1467,-0.31122 -0.1796,-0.40525 -0.1607,-0.4596 0.01,-0.0271 0.011,-0.0487 0,-0.0487 -0.036,0 -0.3004,0.1048 -0.3179,0.12582 -0.015,0.0186 -0.01,0.0255 0.029,0.0349 0.026,0.006 0.058,0.0275 0.073,0.0467 0.046,0.0649 0.2386,0.40129 0.3428,0.60023 l 0.1036,0.19773 0.077,-0.32305 c 0.1369,-0.57374 0.2157,-0.93078 0.3057,-1.38412 0.067,-0.33607 0.067,-0.3234 0.017,-0.34991 -0.041,-0.0217 -0.043,-0.0299 -0.043,-0.15814 6e-4,-0.15755 0.025,-0.29343 0.1162,-0.64715 0.036,-0.14123 0.094,-0.37156 0.1288,-0.51183 l 0.063,-0.25504 0.059,-0.0163 c 0.053,-0.0146 0.1094,-0.0594 0.1378,-0.11013 0.019,-0.034 0.1146,-0.39765 0.2039,-0.77546 0.1576,-0.66657 0.4585,-1.84243 0.6179,-2.41457 0.1879,-0.67422 0.1912,-0.69443 0.1524,-0.91069 -0.027,-0.15367 -0.037,-0.16769 -0.1784,-0.25064 -0.039,-0.023 -0.092,-0.0752 -0.1185,-0.11607 -0.096,-0.15077 -0.046,-0.39963 0.1279,-0.63121 0.1739,-0.23131 0.2917,-0.31412 0.5188,-0.36466 0.1127,-0.0251 0.1302,-0.0251 0.2143,-6e-4 0.1401,0.0407 0.2277,0.16822 0.2277,0.33124 0,0.0323 0.01,0.0663 0.021,0.0756 0.026,0.0209 0.4852,0.12378 0.7562,0.16927 0.3422,0.0575 0.5849,0.0826 1.061,0.11012 0.419,0.0242 0.5601,0.0386 0.6628,0.0681 0.026,0.008 0.043,-1.3e-4 0.062,-0.0296 0.046,-0.07 0.2311,-0.52853 0.5219,-1.29165 0.1811,-0.47571 0.2007,-0.52952 0.2467,-0.67886 0.07,-0.22858 0.1029,-0.39641 0.081,-0.41809 -0.013,-0.0136 -0.042,0.0273 -0.104,0.15188 -0.2224,0.44336 -0.5063,0.92586 -0.8608,1.46308 -0.1395,0.21137 -0.2623,0.40045 -0.2728,0.42016 -0.046,0.0865 -0.1749,0.0906 -0.9807,0.0306 -1.0763,-0.0802 -1.1829,-0.0939 -1.1111,-0.14346 0.043,-0.0291 0.611,-0.002 1.437,0.0685 0.1057,0.009 0.2757,0.0165 0.3779,0.0167 l 0.1859,2.6e-4 0.2005,-0.30495 c 0.321,-0.4881 0.4224,-0.64671 0.5103,-0.79789 0.1715,-0.29481 0.3368,-0.59658 0.4506,-0.82225 l 0.1176,-0.23345 -0.088,-0.28675 c -0.048,-0.15772 -0.089,-0.29369 -0.091,-0.30214 0,-0.009 -0.1569,-0.0168 -0.3534,-0.0185 -0.4523,-0.005 -0.6104,-0.0375 -0.9597,-0.20213 -0.2519,-0.11873 -0.4345,-0.24278 -0.6237,-0.42352 -0.2079,-0.1986 -0.3352,-0.40059 -0.4215,-0.66884 -0.041,-0.12648 -0.047,-0.17442 -0.054,-0.43775 -0.01,-0.33991 0.01,-0.49346 0.082,-0.74865 0.058,-0.20033 0.2163,-0.53713 0.3094,-0.66024 0.2675,-0.35315 0.4095,-0.45656 0.8496,-0.61837 0.1194,-0.0439 0.3012,-0.12422 0.4039,-0.17842 0.4273,-0.22563 0.8969,-0.33109 1.4726,-0.33076 0.2698,1.6e-4 0.2821,0.002 0.3709,0.0455 l 0.092,0.0455 -0.4928,0.0109 c -0.5503,0.0121 -0.679,0.0301 -1.0361,0.1447 l -0.1922,0.0617 0.2674,0.0136 c 0.187,0.009 0.3076,0.0244 0.401,0.05 0.074,0.02 0.1676,0.0354 0.2089,0.0341 0.7603,-0.0235 0.8942,-0.0242 0.9884,-0.005 0.1156,0.0227 0.2175,0.0662 0.2045,0.0873 -0.01,0.008 -0.2206,0.009 -0.4797,0.004 -0.2674,-0.006 -0.4875,-0.004 -0.5092,0.005 -0.036,0.0144 -0.036,0.0168 0.033,0.0544 0.3019,0.16562 0.6036,0.43876 0.7684,0.69587 0.1294,0.20171 0.2494,0.5076 0.2897,0.73823 0.032,0.18254 0.032,0.53568 6e-4,0.68384 -0.081,0.3782 -0.2826,0.7473 -0.5605,1.02458 -0.2351,0.23471 -0.4527,0.36905 -0.7855,0.48487 -0.088,0.0304 -0.1649,0.0607 -0.1726,0.0673 -0.01,0.006 0.044,0.18775 0.1144,0.4025 0.071,0.21476 0.1465,0.44574 0.1684,0.5133 0.095,0.29171 0.2761,0.95909 0.3834,1.41447 0.1038,0.43967 0.3059,1.61851 0.2864,1.66939 -0.012,0.0294 -0.07,0.0362 -0.086,0.0101 -0.01,-0.009 -0.04,-0.20651 -0.076,-0.43864 -0.036,-0.23213 -0.085,-0.51979 -0.1091,-0.63927 -0.1268,-0.63795 -0.4283,-1.8341 -0.4753,-1.88569 -0.01,-0.008 -0.03,0.0411 -0.051,0.10862 -0.036,0.11813 -0.2596,0.73151 -0.3666,1.00842 -0.029,0.0735 -0.073,0.19007 -0.099,0.259 -0.092,0.24244 -0.1897,0.46824 -0.3436,0.79182 l -0.031,0.0649 -0.1599,-0.0105 c -0.088,-0.005 -0.3455,-0.0217 -0.5723,-0.0355 -0.4142,-0.0252 -0.8162,-0.0623 -1.0141,-0.0935 -0.1395,-0.022 -0.6228,-0.12704 -0.728,-0.1582 -0.045,-0.0135 -0.096,-0.0244 -0.1127,-0.0244 -0.036,0 -0.1033,0.12994 -0.141,0.27497 -0.037,0.14147 -0.065,0.1897 -0.1715,0.28815 l -0.094,0.0869 0.038,0.21825 c 0.035,0.19907 0.036,0.22349 0.012,0.27792 -0.013,0.0327 -0.07,0.23387 -0.1251,0.4468 -0.055,0.21292 -0.1269,0.48112 -0.1597,0.596 -0.075,0.26349 -0.1885,0.71567 -0.285,1.13627 -0.085,0.37111 -0.1917,0.80166 -0.2981,1.20311 -0.039,0.15165 -0.088,0.33657 -0.1052,0.41095 l -0.032,0.13523 0.051,0.0151 c 0.043,0.0126 0.052,0.0249 0.057,0.0727 0,0.0317 0.018,0.0664 0.032,0.0773 0.025,0.0178 0.023,0.0368 -0.019,0.20671 -0.026,0.10291 -0.043,0.19632 -0.038,0.2076 0,0.0113 0.079,0.11792 0.1658,0.23698 0.1895,0.25987 0.4881,0.71083 0.8235,1.24414 0.2282,0.36274 0.6038,0.92676 0.9575,1.43794 0.1698,0.24554 0.2518,0.35855 0.5385,0.74268 0.1167,0.15624 0.241,0.32731 0.2763,0.38015 l 0.064,0.0961 0.41,-6.6e-4 c 0.38,-6.3e-4 0.4058,-0.002 0.3521,-0.0258 -0.082,-0.0358 -0.1175,-0.0724 -0.1175,-0.12324 0,-0.0906 0.1705,-0.20201 0.3988,-0.26044 0.083,-0.0213 0.1611,-0.0256 0.3593,-0.0198 0.139,0.005 0.271,0.0134 0.293,0.0208 l 0.041,0.0134 -0.012,-0.62509 c -0.01,-0.34379 -0.019,-0.77923 -0.026,-0.96764 -0.01,-0.1884 -0.016,-0.56537 -0.016,-0.83771 v -0.49517 l 0.042,-0.008 c 0.023,-0.005 0.045,-0.004 0.05,7.7e-4 0.01,0.005 0.01,0.18232 0.01,0.39447 0,0.21216 0.012,0.65642 0.025,0.98727 0.013,0.33086 0.025,0.82037 0.025,1.08779 l 6e-4,0.48623 0.068,0.0263 c 0.078,0.0306 0.087,0.0716 0.033,0.15762 -0.037,0.0597 -0.091,0.0919 -0.2509,0.14858 l -0.1091,0.0386 1.6711,-0.004 c 1.5398,-0.004 1.6766,-0.006 1.744,-0.0326 0.1508,-0.0597 0.1334,-0.0287 -0.042,0.0736 l -0.1154,0.0676 -2.4449,-0.005 c -2.1957,-0.005 -2.4465,-0.008 -2.4596,-0.0318 -0.01,-0.0144 -0.074,-0.10512 -0.1451,-0.20171 -0.071,-0.0966 -0.1718,-0.23327 -0.2224,-0.30378 -0.05,-0.0705 -0.2013,-0.27677 -0.3353,-0.45834 -0.4617,-0.62599 -0.79,-1.11172 -1.3524,-2.00112 -0.271,-0.4287 -0.4291,-0.67598 -0.6452,-1.00943 l -0.081,-0.1238 -0.021,0.082 c -0.037,0.14398 -0.03,0.18924 0.05,0.29091 0.075,0.096 0.3153,0.4573 0.4942,0.74359 0.057,0.0919 0.1547,0.24437 0.216,0.33881 0.061,0.0944 0.1568,0.24108 0.212,0.32585 0.2826,0.43477 0.82,1.21838 1.0624,1.54939 0.1919,0.26214 0.4921,0.68645 0.6056,0.85625 l 0.087,0.12937 1.2114,-3.2e-4 c 0.6664,-1.8e-4 1.4446,0.004 1.7295,0.008 0.2849,0.005 0.8075,0.009 1.1613,0.009 l 0.6434,0.002 -0.067,0.0412 -0.068,0.0412 -2.0219,0.002 c -1.112,7.8e-4 -2.1421,0.007 -2.2892,0.0134 -0.239,0.0105 -0.2728,0.009 -0.3188,-0.018 -0.029,-0.0163 -0.06,-0.0468 -0.069,-0.0676 -0.01,-0.0209 -0.1106,-0.16216 -0.2243,-0.3139 -0.1135,-0.15174 -0.2854,-0.39129 -0.3819,-0.53234 -0.096,-0.14105 -0.2561,-0.36656 -0.3547,-0.50113 -0.2962,-0.40461 -0.5151,-0.71577 -0.6834,-0.97153 -0.3035,-0.46116 -0.3645,-0.55605 -0.6472,-1.00802 -0.2756,-0.44055 -0.3925,-0.61394 -0.4045,-0.60037 -0.01,0.007 -0.02,0.0614 -0.031,0.12121 -0.036,0.19359 -0.067,0.28404 -0.098,0.28437 -0.016,1.9e-4 -0.051,0.0356 -0.079,0.0794 -0.031,0.0493 -0.064,0.081 -0.088,0.0844 -0.039,0.005 -0.042,0.011 -0.07,0.17011 -0.046,0.2589 -0.1988,0.9156 -0.3715,1.60052 -0.038,0.14966 -0.064,0.27736 -0.057,0.28379 0.012,0.0127 0.1324,-0.0496 0.4689,-0.24388 0.1195,-0.069 0.2487,-0.14336 0.2873,-0.16528 0.06,-0.0335 0.074,-0.0534 0.095,-0.12547 0.024,-0.0809 0.023,-0.0882 -0.01,-0.13248 -0.042,-0.058 -0.2836,-0.23572 -0.4313,-0.31653 -0.1004,-0.0549 -0.1095,-0.0644 -0.1048,-0.10861 0,-0.0267 0.011,-0.0536 0.017,-0.0599 0.01,-0.006 0.064,0.0133 0.1284,0.0434 0.4437,0.20791 0.7606,0.59562 0.9055,1.10785 0.041,0.14572 0.046,0.19072 0.046,0.41413 0,0.22158 -0.01,0.26977 -0.046,0.41558 -0.083,0.3003 -0.2193,0.5479 -0.4139,0.75284 -0.2597,0.27322 -0.6163,0.45973 -0.9743,0.50954 -0.1723,0.024 -0.462,0.0202 -0.5889,-0.008 z m 0.4971,-0.10804 c 0.1691,-0.0194 0.3233,-0.0642 0.5031,-0.14605 l 0.1294,-0.059 v -0.0792 c 0,-0.0435 0,-0.10074 0.01,-0.12717 0.01,-0.0419 -0.016,-0.0817 -0.188,-0.30989 -0.1087,-0.14401 -0.245,-0.32825 -0.3027,-0.40939 -0.057,-0.0811 -0.1149,-0.16054 -0.1269,-0.17645 -0.02,-0.0269 -0.026,-0.0271 -0.09,-0.002 -0.068,0.0263 -0.068,0.0285 -0.1036,0.17095 -0.019,0.0794 -0.078,0.29469 -0.1301,0.47849 -0.096,0.33886 -0.1123,0.45791 -0.083,0.59629 0.01,0.0448 0.023,0.0635 0.05,0.0687 0.069,0.0133 0.1868,0.0115 0.3319,-0.005 z m -0.5077,-0.11269 c -0.012,-0.12046 0.012,-0.23655 0.1288,-0.65546 0.129,-0.46087 0.1377,-0.50172 0.1068,-0.5016 -0.014,3e-5 -0.047,0.0739 -0.088,0.19633 -0.036,0.10794 -0.116,0.32773 -0.1782,0.48841 l -0.1133,0.29215 -0.089,0.0639 c -0.049,0.0351 -0.091,0.0701 -0.094,0.0778 -0.01,0.0154 0.2543,0.11552 0.3033,0.11691 0.026,7.7e-4 0.03,-0.009 0.024,-0.0785 z m -0.3195,-0.15983 c 0.097,-0.0717 0.098,-0.0736 0.1794,-0.28825 0.1436,-0.38157 0.2628,-0.71299 0.2577,-0.71653 -0.1128,-0.0784 -0.089,-0.0762 -0.6243,-0.0575 l -0.5003,0.0174 -0.081,0.078 c -0.1,0.0966 -0.098,0.11634 0.023,0.36301 0.099,0.20205 0.2482,0.39398 0.4032,0.51925 0.1034,0.0835 0.2121,0.15642 0.2337,0.15655 0.01,4e-5 0.055,-0.0324 0.1086,-0.072 z m 1.7135,-0.12423 c 0.056,-0.0529 0.1237,-0.12484 0.1515,-0.15999 l 0.05,-0.0639 -0.1162,0.0114 -0.1163,0.0114 -0.3499,-0.40564 c -0.1924,-0.2231 -0.3549,-0.41331 -0.361,-0.42269 -0.01,-0.0112 -0.02,-0.01 -0.037,0.005 -0.024,0.0198 -0.024,0.0254 0,0.059 0.015,0.0205 0.071,0.0928 0.1238,0.16092 0.052,0.0681 0.1939,0.25104 0.3151,0.40658 l 0.2204,0.28278 -0.01,0.10572 c 0,0.0581 0,0.10571 0.01,0.10571 0.01,0 0.06,-0.0432 0.1153,-0.0961 z m 0.2632,-0.34367 c 0.05,-0.0239 0.1528,-0.24847 0.2035,-0.44119 0.049,-0.18424 0.059,-0.44522 0.025,-0.62294 -0.045,-0.23615 -0.057,-0.26736 -0.101,-0.26736 -0.021,0 -0.07,-0.0112 -0.109,-0.0248 -0.082,-0.0289 -0.084,-0.0282 -0.4018,0.1584 -0.1058,0.0621 -0.2721,0.15939 -0.3697,0.21627 -0.1878,0.10946 -0.2361,0.16296 -0.1949,0.21593 0.012,0.0151 0.081,0.0875 0.1522,0.16104 0.071,0.0735 0.2338,0.24901 0.3594,0.38997 l 0.2283,0.25628 0.083,-0.0109 c 0.046,-0.006 0.1018,-0.0199 0.1242,-0.0307 z m 4.1831,-0.36271 c 0.2246,-0.0213 0.3631,-0.0686 0.3631,-0.12408 0,-0.0551 -0.039,-0.0833 -0.082,-0.0599 -0.026,0.0142 -0.053,0.0121 -0.1139,-0.009 -0.044,-0.0151 -0.1604,-0.0309 -0.2631,-0.0358 -0.2124,-0.01 -0.3748,0.0174 -0.5138,0.0869 -0.1094,0.0546 -0.125,0.0693 -0.1004,0.094 0.061,0.06 0.3644,0.0802 0.7107,0.0474 z m -6.9657,-0.22272 c 0.1256,-0.0954 0.1425,-0.0989 0.5696,-0.11516 0.2206,-0.008 0.418,-0.0186 0.4386,-0.0226 0.03,-0.006 0.037,-0.0185 0.037,-0.0656 v -0.0582 l -0.163,-7.7e-4 c -0.09,-5.7e-4 -0.3139,-0.007 -0.4984,-0.0135 -0.2976,-0.011 -0.3433,-0.0165 -0.4052,-0.0488 l -0.07,-0.0364 v 0.1891 c 0,0.23097 0,0.23796 0.09,0.17209 z m 1.5742,-0.0929 c 0.038,-0.0172 0.089,-0.0584 0.1146,-0.0915 0.089,-0.11641 0.049,-0.3017 -0.085,-0.39321 -0.055,-0.0374 -0.064,-0.0386 -0.1477,-0.0199 -0.2085,0.0467 -0.3619,0.31138 -0.2574,0.44426 0.073,0.0927 0.2433,0.12007 0.3751,0.0602 z m -0.4219,-0.37371 c 0.061,-0.0982 0.064,-0.1063 0.043,-0.16216 -0.023,-0.0627 -0.1863,-0.3995 -0.3311,-0.68062 l -0.088,-0.17067 -0.089,-0.0282 c -0.088,-0.0275 -0.091,-0.0275 -0.1489,0.009 -0.092,0.0569 -0.3339,0.32339 -0.4107,0.4526 -0.077,0.13025 -0.1785,0.3798 -0.1945,0.47992 -0.011,0.0651 -0.01,0.0668 0.079,0.12309 l 0.089,0.0571 0.343,0.009 c 0.1886,0.005 0.4106,0.0102 0.4933,0.0118 l 0.1504,0.002 z m 0.8573,-0.0686 c 0.073,-0.0402 0.258,-0.1342 0.4115,-0.20879 0.2526,-0.12265 0.2882,-0.1354 0.3716,-0.13347 0.05,7.8e-4 0.095,-7.4e-4 0.099,-0.005 0.01,-0.007 -0.1019,-0.19286 -0.1391,-0.23776 -0.033,-0.041 -0.044,-0.0354 -0.099,0.0526 -0.051,0.0824 -0.1558,0.15078 -0.5968,0.38827 -0.2166,0.11666 -0.24,0.13535 -0.2239,0.17901 0.01,0.0206 0.02,0.0375 0.029,0.0375 0.01,0 0.074,-0.033 0.1475,-0.0731 z m -0.5765,-0.15387 c 0.052,-0.0268 0.175,-0.0267 0.2352,3.2e-4 0.025,0.0112 0.029,0.004 0.029,-0.0514 7e-4,-0.0754 0.09,-0.52525 0.1753,-0.88323 0.2031,-0.84874 0.2476,-1.06415 0.223,-1.07939 -0.016,-0.01 -0.1404,-0.0282 -0.2475,-0.0368 -0.04,-0.004 -0.043,0.002 -0.071,0.18883 -0.082,0.5373 -0.2487,1.29102 -0.4076,1.85061 -0.012,0.0446 -0.01,0.0461 0.063,0.0111 z m 0.8473,-2.13955 c 0.011,-0.0242 0.018,-0.0463 0.015,-0.0492 -0.01,-0.006 -0.4692,-0.077 -0.5223,-0.0802 -0.025,-0.002 -0.035,0.01 -0.039,0.043 -0.01,0.0396 0,0.047 0.058,0.0618 0.1893,0.0498 0.2674,0.0633 0.3827,0.0663 0.077,0.002 0.087,-0.002 0.1051,-0.0417 z m 0.1191,-0.25266 c 0.011,-0.0529 0.049,-0.23519 0.085,-0.40521 0.039,-0.18169 0.062,-0.32807 0.056,-0.35509 -0.01,-0.0252 0,-0.046 0.01,-0.046 0.019,0 0.061,-0.1655 0.051,-0.2097 -0.01,-0.0267 -0.041,-0.041 -0.1983,-0.0785 -0.1056,-0.0253 -0.2285,-0.0578 -0.273,-0.0723 -0.044,-0.0145 -0.085,-0.0223 -0.09,-0.0174 -0.01,0.005 -0.023,0.0638 -0.039,0.13075 -0.053,0.21718 -0.2545,0.95217 -0.2745,1.00155 -0.01,0.021 0,0.0323 0.05,0.0476 0.074,0.0246 0.482,0.0974 0.5546,0.0991 0.051,7.8e-4 0.054,-0.002 0.073,-0.0948 z m 0.1984,-1.19965 c -0.014,-0.0142 -0.096,-0.041 -0.1832,-0.0593 -0.2291,-0.0489 -0.2827,-0.0555 -0.2827,-0.0354 0,0.01 0.074,0.0336 0.1629,0.0531 0.09,0.0195 0.1892,0.042 0.2214,0.0498 0.097,0.0235 0.1118,0.022 0.082,-0.008 z m -0.063,-0.32512 c 0.024,-0.0965 0.1003,-0.39728 0.1693,-0.6684 0.069,-0.27111 0.1688,-0.67716 0.2216,-0.90233 0.053,-0.22516 0.1484,-0.60489 0.2125,-0.84384 0.1238,-0.46056 0.3302,-1.25905 0.3302,-1.27683 0,-0.01 -0.1017,-0.0411 -0.2025,-0.0623 -0.041,-0.009 -0.044,-0.005 -0.055,0.0634 -0.012,0.0795 -0.1055,0.44968 -0.2992,1.18381 -0.069,0.26192 -0.1682,0.64542 -0.2201,0.85221 -0.1304,0.51926 -0.1996,0.78448 -0.2505,0.9608 -0.074,0.25466 -0.2094,0.77986 -0.2094,0.81031 0,0.0214 0.023,0.0332 0.088,0.0461 0.1688,0.0331 0.1656,0.0356 0.2153,-0.16289 z m 0.9596,-3.84744 c -0.057,-0.35243 -0.05,-0.33757 -0.1809,-0.32382 -0.056,0.006 -0.1034,0.0127 -0.1059,0.0151 -0.011,0.0111 0.037,0.26295 0.053,0.27919 0.023,0.0233 0.1735,0.082 0.2124,0.083 0.025,6.4e-4 0.029,-0.009 0.021,-0.0535 z m -0.076,-0.43151 c 0.098,-0.0223 0.1927,-0.0856 0.227,-0.1518 0.042,-0.0807 0.049,-0.22641 0.017,-0.33686 -0.03,-0.10502 -0.099,-0.19301 -0.2014,-0.25986 -0.061,-0.0389 -0.083,-0.0437 -0.2032,-0.0419 -0.1349,0.002 -0.1361,0.002 -0.1969,0.0669 -0.102,0.10785 -0.1642,0.24669 -0.1735,0.38653 -0.01,0.11169 0,0.12648 0.038,0.18743 0.044,0.0636 0.1835,0.15085 0.241,0.15085 0.014,0 -0.01,-0.0169 -0.048,-0.0376 -0.1096,-0.0562 -0.138,-0.12092 -0.13,-0.29659 0.01,-0.16167 0.043,-0.25108 0.1319,-0.32539 0.081,-0.0679 0.1242,-0.0795 0.2227,-0.0591 0.1719,0.0357 0.2752,0.17187 0.2758,0.36408 8e-4,0.21084 -0.1033,0.3273 -0.3171,0.35497 -0.082,0.0105 -0.084,0.0122 -0.025,0.0137 0.037,7.7e-4 0.1007,-0.006 0.142,-0.0154 z m -0.01,-0.10968 c 0.036,-0.017 0.071,-0.0524 0.092,-0.094 0.03,-0.0592 0.032,-0.0779 0.016,-0.16676 -0.03,-0.16822 -0.1205,-0.24828 -0.2867,-0.25264 -0.1122,-0.002 -0.1664,0.0836 -0.1664,0.26562 0,0.11251 0.019,0.1702 0.064,0.19996 0.1266,0.083 0.1858,0.0931 0.2812,0.0479 z m 0.3959,-0.51536 c 0.01,-0.0412 0,-0.11449 -0.01,-0.16292 -0.013,-0.0705 -0.03,-0.10091 -0.084,-0.15245 l -0.068,-0.0644 -0.1283,0.006 c -0.099,0.005 -0.1514,0.0175 -0.2285,0.0549 l -0.1003,0.0486 0.1359,0.0112 c 0.1745,0.0144 0.2704,0.0597 0.3468,0.16386 0.032,0.0431 0.067,0.099 0.079,0.12408 0.029,0.0642 0.043,0.0569 0.055,-0.0292 z m 3.2862,-3.00751 c 0.4668,-0.0713 0.8947,-0.31975 1.1548,-0.6704 0.1213,-0.16342 0.2585,-0.41918 0.3135,-0.58432 0.069,-0.2077 0.09,-0.59701 0.044,-0.83799 -0.063,-0.33152 -0.1914,-0.61313 -0.3938,-0.8635 -0.2402,-0.29712 -0.7144,-0.62866 -0.899,-0.62866 -0.041,0 -0.069,-0.009 -0.074,-0.0236 -0.01,-0.0129 -0.053,-0.0373 -0.1063,-0.0542 -0.082,-0.0258 -0.1543,-0.0306 -0.4564,-0.0305 -0.2524,1.3e-4 -0.3737,0.006 -0.4077,0.0213 -0.046,0.0201 -0.047,0.0221 -0.017,0.0443 0.046,0.0338 0.024,0.0451 -0.122,0.06 -0.1936,0.0199 -0.2827,0.0439 -0.4343,0.11704 -0.3182,0.15356 -0.5398,0.40636 -0.7304,0.83349 -0.1618,0.36257 -0.2209,0.9275 -0.1358,1.2962 0.063,0.27168 0.291,0.66004 0.3879,0.66004 0.017,0 0.088,-0.0268 0.1557,-0.0596 0.4011,-0.1922 0.9116,-0.5988 1.1296,-0.89965 0.044,-0.0607 0.061,-0.0379 0.032,0.0445 -0.081,0.23545 -0.5953,0.66095 -1.127,0.93237 l -0.1409,0.0718 0.065,0.0572 c 0.083,0.0724 0.3522,0.24847 0.4832,0.31626 0.1817,0.0939 0.5011,0.19103 0.6936,0.21081 0.1497,0.0154 0.441,0.009 0.5848,-0.0131 z m -1.7813,-2.123 c -0.065,-0.10046 -0.036,-0.32611 0.055,-0.4126 0.099,-0.0943 0.1835,-0.0694 0.2209,0.065 0.024,0.0858 0.022,0.12174 -0.01,0.20781 -0.057,0.16026 -0.2044,0.2373 -0.2683,0.13978 z m 0.6558,-0.89533 c -0.073,-0.0774 -0.1774,-0.13118 -0.2564,-0.13171 -0.029,-2.1e-4 -0.057,-0.008 -0.063,-0.0164 -0.014,-0.0233 0.081,-0.0676 0.1449,-0.0673 0.1289,7.7e-4 0.2974,0.13352 0.2974,0.23415 0,0.0711 -0.044,0.0642 -0.1229,-0.0188 z m 6.774,16.95418 c -0.3854,-0.10236 -0.6003,-0.22248 -0.8445,-0.47175 -0.1005,-0.1026 -0.2431,-0.30657 -0.3156,-0.45135 -0.043,-0.0847 -0.043,-0.0876 -0.012,-0.10443 0.069,-0.0369 0.093,-0.0209 0.1672,0.11221 0.1311,0.23455 0.2958,0.41735 0.5063,0.56191 l 0.094,0.0649 0.071,-0.0434 c 0.1555,-0.0938 0.1338,-0.0527 0.3634,-0.68773 0.1333,-0.36851 0.1305,-0.34858 0.055,-0.3929 -0.093,-0.0548 -0.1737,-0.0384 -0.6673,0.13535 -0.6572,0.23127 -0.9641,0.32984 -1.5559,0.49974 -0.1314,0.0377 -0.2499,0.0728 -0.2632,0.0779 -0.057,0.0216 -0.018,-0.0283 0.061,-0.0787 0.061,-0.0387 0.1837,-0.0827 0.4255,-0.1517 0.3598,-0.10266 0.5821,-0.17512 1.2857,-0.41919 0.6018,-0.2087 0.5933,-0.20478 0.5933,-0.27391 0,-0.0785 0.053,-0.20952 0.1189,-0.29423 l 0.056,-0.0715 -0.068,0.0603 c -0.037,0.0331 -0.1049,0.0739 -0.1499,0.0907 -0.045,0.0167 -0.1347,0.0586 -0.199,0.093 -0.064,0.0344 -0.1734,0.081 -0.2423,0.10334 -0.069,0.0224 -0.3246,0.11249 -0.5682,0.2002 -0.2435,0.0877 -0.4615,0.16459 -0.4845,0.17083 -0.041,0.0111 -0.041,0.0102 0.01,-0.0329 0.093,-0.0819 0.2982,-0.16833 0.8605,-0.36237 0.1333,-0.046 0.31,-0.11355 0.3927,-0.15016 0.082,-0.0365 0.1857,-0.0822 0.2288,-0.10125 0.043,-0.0191 0.102,-0.059 0.1307,-0.0886 l 0.052,-0.0538 -0.045,-0.10665 c -0.025,-0.0586 -0.07,-0.15721 -0.1014,-0.21902 -0.067,-0.13303 -0.069,-0.1515 -0.018,-0.18473 0.043,-0.0285 0.038,-0.0364 0.2036,0.28039 0.043,0.0827 0.081,0.1523 0.082,0.15465 0,0.002 0.029,-0.005 0.057,-0.0144 0.064,-0.0221 0.067,-0.006 -0.059,-0.30738 -0.05,-0.11948 -0.095,-0.22851 -0.099,-0.24229 -0.011,-0.0351 0.037,-0.0967 0.058,-0.0752 0.024,0.0238 0.1918,0.40039 0.2274,0.50965 0.036,0.111 0.052,0.13369 0.097,0.13369 0.019,0 0.065,0.0182 0.1031,0.0404 l 0.069,0.0405 0.3586,-0.20491 c 0.1972,-0.1127 0.3821,-0.21888 0.411,-0.23598 0.043,-0.025 0.057,-0.0486 0.073,-0.1204 0.026,-0.11558 0.013,-0.13212 -0.2363,-0.31348 -0.1529,-0.11107 -0.3517,-0.20046 -0.5523,-0.2484 -0.081,-0.0193 -0.1466,-0.0431 -0.1466,-0.0531 0,-0.01 0.02,-0.0375 0.046,-0.0614 l 0.046,-0.0434 0.142,0.0408 c 0.5495,0.15789 0.9637,0.53864 1.1551,1.06181 0.071,0.19336 0.098,0.35293 0.098,0.57212 0,0.21559 -0.018,0.33149 -0.078,0.5196 -0.1519,0.46899 -0.4509,0.80906 -0.897,1.02041 -0.2362,0.11189 -0.3733,0.14238 -0.6789,0.15099 -0.2369,0.007 -0.2725,0.004 -0.4171,-0.0348 z m 0.696,-0.11682 c 0.1244,-0.0267 0.2251,-0.0617 0.3853,-0.13367 l 0.1045,-0.0469 -6e-4,-0.13558 -7e-4,-0.13557 -0.1086,-0.14204 c -0.06,-0.0781 -0.199,-0.26768 -0.3094,-0.42124 -0.1104,-0.15357 -0.2076,-0.28357 -0.2162,-0.28888 -0.01,-0.005 -0.044,0.005 -0.08,0.0229 -0.062,0.0315 -0.064,0.0375 -0.1032,0.19698 -0.021,0.0904 -0.08,0.30731 -0.1288,0.48193 -0.067,0.23662 -0.089,0.34302 -0.088,0.41774 0,0.15174 0.017,0.1971 0.064,0.21179 0.058,0.018 0.3439,0.002 0.4794,-0.0274 z m -0.6585,-0.12175 c -0.01,-0.11948 0.01,-0.19909 0.1871,-0.83132 0.085,-0.30448 0.083,-0.29241 0.052,-0.29241 -0.014,0 -0.046,0.0678 -0.084,0.17962 -0.1059,0.31065 -0.2812,0.75717 -0.3131,0.7977 -0.017,0.0214 -0.064,0.0603 -0.1058,0.0864 -0.042,0.0261 -0.075,0.0514 -0.075,0.0562 0,0.0134 0.2711,0.11398 0.3111,0.11536 0.033,7.7e-4 0.034,-0.005 0.027,-0.11157 z m 1.4687,-0.32214 c 0.058,-0.0648 0.1083,-0.12563 0.1116,-0.1351 0,-0.0113 -0.033,-0.0138 -0.1085,-0.007 l -0.1147,0.01 -0.1169,-0.13911 c -0.336,-0.39959 -0.6007,-0.69707 -0.6158,-0.69202 -0.039,0.0129 -0.024,0.0474 0.076,0.17513 0.057,0.0738 0.1576,0.20345 0.2219,0.288 0.064,0.0845 0.1646,0.21332 0.2228,0.28619 0.1188,0.14894 0.1368,0.19321 0.124,0.30642 l -0.01,0.0791 0.051,-0.0264 c 0.029,-0.0145 0.099,-0.0795 0.157,-0.14439 z m 0.1758,-0.27031 c 0.067,-0.0327 0.1536,-0.21408 0.2247,-0.4728 0.061,-0.21761 0.045,-0.60237 -0.032,-0.80854 -0.012,-0.0319 -0.038,-0.0458 -0.1306,-0.0694 l -0.1157,-0.0296 -0.1754,0.10106 c -0.097,0.0556 -0.2761,0.15827 -0.399,0.2282 -0.2498,0.14212 -0.3248,0.20153 -0.3166,0.25109 0,0.0182 0.084,0.11437 0.1808,0.21373 0.2573,0.26495 0.4135,0.43608 0.4903,0.53732 l 0.068,0.0896 0.081,-0.009 c 0.044,-0.005 0.1004,-0.0192 0.1248,-0.0312 z m -1.1747,-0.69032 c 0.081,-0.0385 0.1308,-0.11224 0.1394,-0.20654 0.01,-0.0987 -0.026,-0.18168 -0.1062,-0.25214 -0.056,-0.0493 -0.07,-0.0537 -0.1439,-0.0465 -0.1143,0.011 -0.2095,0.0804 -0.2677,0.19529 -0.051,0.10182 -0.063,0.2183 -0.02,0.2183 0.019,0 0.023,0.011 0.015,0.04 -0.01,0.0351 0,0.0431 0.062,0.0666 0.089,0.0325 0.2357,0.0257 0.3212,-0.0149 z m 0.6831,-0.56784 c 0.3922,-0.1964 0.423,-0.20888 0.5153,-0.20888 0.054,0 0.098,-0.005 0.097,-0.0125 0,-0.0354 -0.1456,-0.24647 -0.166,-0.24647 -0.013,0 -0.046,0.0327 -0.073,0.0726 -0.056,0.083 -0.1129,0.12141 -0.4956,0.33298 -0.3371,0.1864 -0.3364,0.18585 -0.3236,0.23355 0.01,0.0206 0.014,0.0376 0.019,0.0376 0.01,0 0.1967,-0.094 0.4261,-0.20887 z m -0.9811,0.0623 c -0.01,-0.005 -0.023,0.004 -0.039,0.02 -0.027,0.0289 -0.027,0.0293 0.01,0.0102 0.021,-0.011 0.034,-0.0246 0.03,-0.0302 z m 2.6179,0.6357 c 0,-0.35872 -0.04,-0.73294 -0.095,-0.94353 -0.067,-0.25941 -0.185,-0.54602 -0.2702,-0.65988 -0.043,-0.0579 -0.053,-0.12225 -0.018,-0.12225 0.036,0 0.1214,0.10109 0.1845,0.21722 0.1765,0.32507 0.2782,0.76391 0.2782,1.20082 0,0.16545 -0.044,0.57098 -0.064,0.59112 -0.01,0.007 -0.014,-0.12017 -0.016,-0.2835 z m -6.3363,0.23455 c 0,-0.007 0.1402,-0.11879 0.3109,-0.24745 0.3841,-0.28942 0.8752,-0.67165 1.067,-0.83046 0.019,-0.0152 0.1012,-0.0826 0.1839,-0.14965 1.6,-1.29787 2.3516,-2.14605 2.9837,-3.36762 0.1281,-0.24752 0.2361,-0.49193 0.2896,-0.65559 0.019,-0.0591 0.046,-0.1108 0.058,-0.11502 0.092,-0.0301 -0.1802,0.64179 -0.4616,1.1414 -0.2212,0.39239 -0.6005,0.92657 -0.9374,1.32007 -0.2801,0.32708 -0.9831,0.99912 -1.4065,1.34461 -0.2767,0.22574 -1.9638,1.49917 -2.0679,1.56085 -0.012,0.007 -0.02,0.006 -0.02,-7.7e-4 z m 1.7111,-0.31754 c -0.037,-0.29842 0.069,-0.90141 0.1804,-1.02047 0.021,-0.0223 0.1243,-0.10558 0.23,-0.18502 0.3149,-0.23666 0.5141,-0.4133 0.9213,-0.81709 l 0.2611,-0.25897 0.1449,-0.0302 c 0.08,-0.0166 0.2179,-0.0349 0.307,-0.0407 0.1867,-0.0121 0.5142,0.0108 0.5413,0.038 0.025,0.0245 0,0.0625 -0.153,0.22484 l -0.1209,0.1295 -0.1279,6e-5 c -0.6993,3.8e-4 -1.3633,0.43136 -1.6347,1.06101 -0.074,0.17073 -0.1393,0.41977 -0.1525,0.57817 l -0.012,0.13843 -0.1587,0.12237 c -0.2286,0.17629 -0.2126,0.17205 -0.2266,0.06 z m 0.5487,-0.0719 c 0.05,-0.0395 0.062,-0.0414 0.062,-0.0101 0,0.0244 -0.035,0.0436 -0.079,0.0436 -0.018,0 -0.013,-0.0102 0.017,-0.0334 z m 0.242,-0.16084 c -0.025,-0.007 -0.021,-0.0151 0.021,-0.0512 0.048,-0.0402 0.061,-0.0424 0.2261,-0.0398 0.097,0.002 0.1917,0.009 0.2114,0.016 0.095,0.0354 -0.3486,0.10783 -0.4591,0.0749 z m -0.3034,-0.11905 c 0.047,-0.40237 0.2118,-0.74647 0.49,-1.02475 0.2769,-0.27681 0.6245,-0.4413 1.0206,-0.48281 0.087,-0.009 0.1681,-0.0168 0.1796,-0.0169 0.033,-4.4e-4 0.024,0.0365 -0.024,0.0865 -0.033,0.035 -0.061,0.0469 -0.1075,0.0469 -0.1393,0 -0.1982,0.0585 -0.1639,0.16257 0.019,0.0555 0.017,0.0632 -0.018,0.0911 -0.02,0.0168 -0.044,0.0304 -0.051,0.0304 -0.023,0 -0.052,-0.13252 -0.04,-0.18589 0.011,-0.0474 0.01,-0.049 -0.036,-0.0381 -0.082,0.0195 -0.2538,0.0921 -0.2728,0.11494 -0.014,0.0168 -0.01,0.0257 0.03,0.0387 0.033,0.0113 0.068,0.0495 0.1091,0.1168 0.07,0.11492 0.073,0.12977 0.029,0.15342 -0.047,0.025 -0.047,0.0249 -0.091,-0.0631 -0.048,-0.0945 -0.062,-0.10676 -0.1563,-0.13653 -0.058,-0.0184 -0.079,-0.0186 -0.1117,-7.8e-4 -0.052,0.028 -0.3114,0.2896 -0.3728,0.37647 -0.125,0.17666 -0.2484,0.46975 -0.2609,0.61991 -0.01,0.0617 -0.018,0.0843 -0.071,0.13183 -0.036,0.0315 -0.07,0.0576 -0.077,0.058 -0.01,3.8e-4 -0.01,-0.035 0,-0.0787 z m 4.8693,-0.80683 c -0.043,-0.0285 0.024,-0.0625 0.1478,-0.0759 0.1483,-0.016 0.9689,0.002 1.0219,0.0235 0.067,0.026 0.02,0.0325 -0.3677,0.0518 -0.4477,0.0223 -0.7693,0.0225 -0.802,5.7e-4 z m -4.9142,-0.3476 c 0.034,-0.0645 0.3031,-0.33422 0.397,-0.3986 0.2512,-0.17238 0.323,-0.21519 0.323,-0.19265 0,0.0129 -0.6191,0.54254 -0.702,0.60054 -0.036,0.0246 -0.036,0.0242 -0.018,-0.009 z m 5.2902,-0.74891 c -0.1011,-0.002 -0.4433,-0.0168 -0.7604,-0.0306 -0.3169,-0.0139 -0.6403,-0.0255 -0.7184,-0.0255 -0.1663,-2.5e-4 -0.2081,-0.0161 -0.1624,-0.0618 0.041,-0.0411 0.2333,-0.047 0.7472,-0.023 0.2251,0.0105 0.7553,0.0301 1.178,0.0436 0.8255,0.0261 1.0557,0.0385 1.0934,0.0586 0.013,0.007 -0.046,0.0171 -0.1337,0.0226 -0.2028,0.0126 -1.0052,0.0231 -1.2437,0.0162 z m -11.4797,-0.7557 -0.067,-0.0126 0.049,-0.0205 c 0.051,-0.0213 0.4351,-0.0375 1.6389,-0.0691 2.0018,-0.0526 2.1261,-0.0548 2.2474,-0.0392 0.1084,0.014 0.1175,0.0175 0.067,0.0263 -0.067,0.0117 -0.4649,0.0335 -1.4704,0.0804 -0.7348,0.0344 -2.3453,0.0569 -2.4647,0.0344 z m 1.9615,-0.18998 c 0,-0.0115 0,-0.0394 0,-0.0621 0,-0.0445 0.1604,-0.52351 0.2597,-0.79429 0.033,-0.0919 0.082,-0.22725 0.1077,-0.30078 0.081,-0.23293 0.4722,-1.25988 0.672,-1.76289 l 0.09,-0.22558 -0.019,-0.20887 c -0.025,-0.26442 -0.1152,-1.05326 -0.1485,-1.29501 -0.033,-0.24697 -0.034,-0.24229 0.024,-0.24229 0.06,0 0.053,-0.0237 0.1092,0.43445 0.082,0.67271 0.1089,0.91508 0.1185,1.08711 0.01,0.096 0.013,0.19157 0.018,0.21246 0.026,0.12916 1.2301,1.32014 2.1029,2.0804 0.1476,0.1286 0.3263,0.2891 0.3971,0.35667 l 0.1287,0.12285 0.1798,-0.10206 c 0.4959,-0.28161 1.3115,-0.88046 2.1362,-1.56862 0.4242,-0.35406 0.5499,-0.44763 0.6183,-0.46048 0.1936,-0.0363 0.6119,0.19078 0.9586,0.5204 0.2332,0.22173 0.2695,0.33065 0.1335,0.40095 -0.1042,0.0538 -0.3336,-0.0109 -0.5575,-0.15734 -0.2206,-0.14432 -0.4985,-0.46214 -0.5366,-0.61379 -0.01,-0.0224 -0.016,-0.0445 -0.024,-0.0493 -0.011,-0.007 -0.2723,0.19752 -0.5174,0.40456 -0.229,0.19332 -0.3039,0.25303 -0.8773,0.69857 -0.3401,0.26422 -0.5593,0.42217 -0.8856,0.63793 -0.2947,0.19481 -0.3114,0.2051 -0.4935,0.30308 l -0.1593,0.0857 -0.061,-0.0371 c -0.059,-0.0361 -0.3533,-0.2869 -0.69,-0.5879 -0.7316,-0.65409 -1.7251,-1.63771 -1.8559,-1.83739 -0.015,-0.0237 -0.033,-0.043 -0.042,-0.043 -0.03,0 -0.8489,2.19287 -1.0866,2.91169 -0.029,0.0856 -0.045,0.11279 -0.068,0.11279 -0.017,0 -0.032,-0.009 -0.033,-0.0209 z m 7.8557,-1.91328 c 0,-0.0444 -0.3285,-0.35464 -0.4868,-0.45957 -0.1467,-0.0971 -0.3965,-0.23456 -0.4628,-0.25449 l -0.039,-0.0117 0.03,0.0558 c 0.1424,0.27579 0.5606,0.61571 0.8373,0.68084 0.099,0.0233 0.122,0.0212 0.1223,-0.0109 z m -4.2866,1.88735 c -0.1109,-0.0383 -0.1844,-0.0925 -0.2355,-0.17346 -0.047,-0.0737 -0.048,-0.15225 0,-0.16072 0.019,-0.004 0.038,0.0152 0.057,0.0543 0.03,0.0642 0.1236,0.14651 0.2015,0.17821 0.026,0.0108 0.1612,0.023 0.2991,0.027 0.2455,0.007 0.2523,0.006 0.332,-0.0365 0.083,-0.045 0.1253,-0.0453 0.067,-4.4e-4 -0.018,0.0138 -0.086,0.0513 -0.1509,0.0833 -0.1139,0.056 -0.1261,0.0582 -0.3008,0.0578 -0.1283,-3.8e-4 -0.2068,-0.009 -0.2659,-0.0296 z m -6.6084,-0.77214 c -0.2663,-0.0159 -0.3704,-0.0319 -0.3564,-0.0545 0.01,-0.0121 0.3851,-0.0142 1.2321,-0.006 1.358,0.0124 1.7026,0.0231 1.6225,0.0506 -0.061,0.0206 -2.1813,0.0293 -2.4982,0.0104 z m 11.4387,-0.59849 c 0.01,-0.008 0.057,-0.0431 0.1078,-0.0788 0.3023,-0.21374 0.4087,-0.33284 0.4282,-0.4788 0.01,-0.063 0.017,-0.0807 0.038,-0.0767 0.032,0.006 0.043,0.0615 0.027,0.13977 -0.025,0.13054 -0.2449,0.34281 -0.467,0.44964 -0.1185,0.057 -0.1669,0.0732 -0.1344,0.0449 z m -0.4727,-0.0894 c 0.057,-0.0313 0.1492,-0.10744 0.2285,-0.19018 0.1422,-0.14807 0.1849,-0.23679 0.1849,-0.38432 0,-0.11446 0.018,-0.17451 0.05,-0.17451 0.039,0 0.05,0.0327 0.05,0.15284 0,0.15414 -0.068,0.29554 -0.2246,0.46317 -0.074,0.0786 -0.2723,0.18636 -0.3432,0.18562 -0.033,-3.9e-4 -0.024,-0.0106 0.054,-0.0526 z m -11.8624,-1.16676 c 0.01,-0.023 0.045,-0.19592 0.087,-0.38433 0.042,-0.1884 0.1087,-0.47038 0.1485,-0.62661 0.04,-0.15624 0.077,-0.30475 0.083,-0.33002 0.01,-0.0252 0.023,-0.046 0.036,-0.046 0.054,0 0.021,0.19797 -0.1,0.60155 -0.024,0.0781 -0.084,0.28847 -0.1348,0.46743 -0.05,0.17896 -0.1004,0.33312 -0.1107,0.34255 -0.013,0.0124 -0.016,0.005 -0.01,-0.0246 z m 5.7214,-1.71658 c -0.034,-0.004 -0.063,-0.0128 -0.063,-0.0205 0,-0.0338 0.1743,-0.0466 0.8104,-0.0593 0.7178,-0.0144 2.0134,-0.0581 2.7237,-0.092 0.941,-0.0449 2.8662,-0.0675 2.9827,-0.035 0.061,0.0168 -1.0355,0.0674 -2.381,0.10987 -0.3445,0.0109 -0.5456,0.0187 -1.3035,0.0507 -1.2142,0.0514 -2.5125,0.0731 -2.7696,0.0462 z m -4.5979,-0.48661 c -0.034,-0.0562 0.205,-0.0795 1.0595,-0.1027 1.8271,-0.0495 2.2934,-0.0675 2.8575,-0.10966 0.1792,-0.0133 0.4649,-0.0317 0.6349,-0.0407 0.1701,-0.009 0.3411,-0.02 0.3801,-0.0246 0.063,-0.007 0.094,0.009 0.058,0.0304 -0.023,0.0143 -0.6766,0.0934 -0.9816,0.11886 -0.68,0.0567 -1.2694,0.079 -2.8991,0.10945 -0.5101,0.01 -0.9659,0.0217 -1.0132,0.0269 -0.052,0.006 -0.09,0.002 -0.096,-0.008 z m 5.2704,-1.89167 c -1.0661,-0.015 -1.3368,-0.0247 -1.3368,-0.0482 0,-0.007 0.074,-0.0175 0.1629,-0.0235 0.2437,-0.0161 2.5643,-0.0116 3.1207,0.006 0.9926,0.0315 1.1562,0.0395 1.0777,0.0524 -0.128,0.0211 -1.9093,0.0288 -3.0245,0.0132 z m -0.7686,-2.10369 c -0.022,-0.0159 -0.021,-0.0208 0,-0.0403 0.048,-0.037 0.5208,-0.0432 4.1402,-0.0542 3.5023,-0.0106 3.5691,-0.01 3.511,0.0485 -0.031,0.031 -0.8899,0.0413 -4.4551,0.0534 -2.2736,0.008 -3.182,0.005 -3.2,-0.007 z m 4.7597,-3.46788 c 0,-0.004 -0.2174,-0.015 -0.4744,-0.0246 -0.4704,-0.0175 -1.1763,-0.058 -2.0713,-0.11886 -0.2665,-0.0181 -0.8192,-0.041 -1.2281,-0.0507 -0.409,-0.01 -0.7469,-0.021 -0.7508,-0.025 0,-0.004 0,-0.0164 0.013,-0.0279 0.015,-0.0157 0.1799,-0.0206 0.6839,-0.0203 0.6136,3.3e-4 1.1531,0.0214 1.925,0.0753 0.1333,0.009 0.4792,0.032 0.7686,0.0505 0.2896,0.0185 0.6268,0.0485 0.7494,0.0665 0.1228,0.0181 0.2582,0.0331 0.3008,0.0332 0.08,2.6e-4 0.1362,0.0209 0.1069,0.0389 -0.01,0.005 -0.019,0.007 -0.023,0.002 z"
         id="path2077" />
    </g>
  </g>
</svg>
