<?xml version="1.0" encoding="UTF-8" standalone="no"?>
<!-- Created with Inkscape (http://www.inkscape.org/) -->

<svg
   width="6mm"
   height="6mm"
   viewBox="0 0 6 6"
   version="1.1"
   id="svg1"
   inkscape:version="1.4.2 (ebf0e940d0, 2025-05-08)"
   sodipodi:docname="5_1_1_24.svg"
   xmlns:inkscape="http://www.inkscape.org/namespaces/inkscape"
   xmlns:sodipodi="http://sodipodi.sourceforge.net/DTD/sodipodi-0.dtd"
   xmlns="http://www.w3.org/2000/svg"
   xmlns:svg="http://www.w3.org/2000/svg">
  <sodipodi:namedview
     id="namedview1"
     pagecolor="#ffffff"
     bordercolor="#000000"
     borderopacity="0.25"
     inkscape:showpageshadow="2"
     inkscape:pageopacity="0.0"
     inkscape:pagecheckerboard="0"
     inkscape:deskcolor="#d1d1d1"
     inkscape:document-units="mm"
     inkscape:zoom="24.997208"
     inkscape:cx="19.102133"
     inkscape:cy="11.001229"
     inkscape:window-width="1920"
     inkscape:window-height="1014"
     inkscape:window-x="0"
     inkscape:window-y="0"
     inkscape:window-maximized="1"
     inkscape:current-layer="layer1" />
  <defs
     id="defs1">
    <rect
       x="13.485725"
       y="-52.819092"
       width="225.2477"
       height="118.63495"
       id="rect1" />
    <rect
       x="37.795277"
       y="37.795277"
       width="483.77954"
       height="718.11023"
       id="rect2721" />
    <rect
       x="37.795277"
       y="37.795277"
       width="483.77954"
       height="718.11023"
       id="rect2722" />
    <rect
       x="37.795277"
       y="37.795277"
       width="483.77954"
       height="718.11023"
       id="rect2723" />
    <rect
       x="37.795277"
       y="37.795277"
       width="483.77954"
       height="718.11023"
       id="rect2724" />
    <rect
       x="37.795277"
       y="37.795277"
       width="483.77954"
       height="718.11023"
       id="rect2725" />
    <rect
       x="37.795277"
       y="37.795277"
       width="483.77954"
       height="718.11023"
       id="rect2726" />
    <rect
       x="37.795277"
       y="37.795277"
       width="483.77954"
       height="718.11023"
       id="rect2727" />
    <rect
       x="37.795277"
       y="37.795277"
       width="483.77954"
       height="718.11023"
       id="rect2728" />
    <rect
       x="37.795277"
       y="37.795277"
       width="483.77954"
       height="718.11023"
       id="rect2729" />
    <rect
       x="37.795277"
       y="37.795277"
       width="483.77954"
       height="718.11023"
       id="rect2730" />
    <rect
       x="37.795277"
       y="37.795277"
       width="483.77954"
       height="718.11023"
       id="rect2731" />
    <rect
       x="37.795277"
       y="37.795277"
       width="483.77954"
       height="718.11023"
       id="rect2732" />
    <rect
       x="37.795277"
       y="37.795277"
       width="483.77954"
       height="718.11023"
       id="rect2733" />
    <rect
       x="37.795277"
       y="37.795277"
       width="483.77954"
       height="718.11023"
       id="rect2734" />
  </defs>
  <g
     inkscape:label="Katman 1"
     inkscape:groupmode="layer"
     id="layer1">
    <g
       id="g20"
       transform="matrix(0.74999999,0,0,0.74999999,-719.29462,-105.00524)">
      <ellipse
         style="fill:#e9c6af;fill-opacity:1;stroke-width:0.273103"
         id="path32"
         cx="963.05951"
         cy="144.00967"
         rx="3.9250937"
         ry="3.947685" />
      <path
         style="fill:#ffeeaa;fill-opacity:1;stroke-width:0.264999"
         d="m 964.08993,142.10133 0.7344,-0.23954 0.41892,-0.41935 0.12006,-0.28896 -0.26368,-0.10687 -0.50469,0.0461 -0.47464,0.31177 -0.23908,0.43296 0.0428,0.1924 z"
         id="path34" />
      <path
         style="fill:#d35f5f;fill-opacity:1;stroke-width:0.264999"
         d="m 962.49616,147.91648 0.50445,-0.55121 0.46869,-0.80743 0.33776,-0.58901 0.73996,-0.38011 1.02661,-0.10179 0.73615,-0.0432 0.48959,-0.23562 0.20203,-0.80376 -0.0292,-0.70894 -0.16537,-0.8605 -0.42801,0.47832 -0.98153,0.61257 -1.16303,0.74464 -1.26698,0.31861 -1.00066,0.298 -0.63656,0.4507 -0.47442,0.73045 -0.23252,0.63655 0.53975,0.40775 0.83138,0.29668 z"
         id="path38" />
      <path
         style="fill:#ffeeaa;fill-opacity:1;stroke-width:0.264999"
         d="m 961.72622,146.19478 0.5048,-0.15945 0.24019,-0.2352 0.0925,-0.24689 -0.42709,-0.0924 -0.27032,0.0938 -0.26326,0.28245 -0.0444,0.30212 z"
         id="path36" />
      <path
         style="fill:#d35f5f;fill-opacity:1;stroke-width:0.264999"
         d="m 959.28406,145.08933 0.50827,-0.62455 0.79944,-0.52475 1.1389,-0.55288 0.75456,-0.53259 0.50107,-0.6227 0.38669,-0.61955 0.46572,-0.53559 0.71051,-0.40238 0.35105,-0.15132 -0.74774,-0.30489 -0.2241,-0.0582 -0.19603,0.23104 -0.68123,0.31113 -0.7172,0.31947 -0.57619,0.64865 -0.45995,0.40888 -0.99081,0.41863 -0.82219,0.43723 -0.31454,0.26627 -0.0327,0.6505 0.0222,0.6063 0.0597,0.47606 z"
         id="path37" />
      <path
         style="fill:#d38d5f;fill-opacity:1;stroke-width:0.264999"
         d="m 960.15727,146.66748 0.29474,-0.73041 0.17111,-0.34136 0.26702,-0.35437 0.68291,-0.47477 0.89797,-0.7569 0.42744,-0.15822 1.07727,-0.16954 0.79614,-0.19344 0.83592,-0.52572 0.52454,-0.56973 0.25312,-0.47969 -0.44873,-0.58887 -0.37095,0.6734 -0.82552,0.76887 -0.71324,0.39986 -1.15102,0.42505 -1.0742,0.35358 -0.96216,0.40968 -0.9049,0.62646 -0.4362,0.74604 0.23165,0.37313 0.27773,0.45705 z"
         id="path39" />
      <path
         style="fill:#000000;stroke-width:0.0751444"
         d="m 962.64516,147.98646 c -0.35008,-0.0326 -0.86951,-0.15553 -1.16171,-0.2749 -1.2961,-0.52951 -2.16434,-1.66652 -2.37586,-3.11132 -0.17357,-1.18562 0.12249,-2.23641 0.89335,-3.17067 0.53942,-0.65376 1.22439,-1.08968 2.03441,-1.29471 0.91559,-0.23176 1.88988,-0.14621 2.71362,0.23825 1.02162,0.47682 1.85417,1.42609 2.15194,2.45361 0.31411,1.08394 0.15427,2.3583 -0.41404,3.30099 -0.63301,1.05002 -1.68234,1.71509 -2.92139,1.85158 -0.17941,0.0198 -0.73841,0.0241 -0.92032,0.007 z m 0.91292,-0.14292 0.0978,-0.012 0.0339,-0.19882 c 0.0767,-0.44968 0.2561,-0.79086 0.57043,-1.0849 0.37328,-0.34919 0.88451,-0.57458 1.84193,-0.81209 l 0.45978,-0.11406 0.0676,-0.13308 c 0.0372,-0.0732 0.0624,-0.13829 0.056,-0.14465 -0.006,-0.006 -0.0457,0.0149 -0.0874,0.0474 -0.16769,0.13025 -0.38999,0.16399 -0.9308,0.14131 -0.7675,-0.0322 -1.3075,0.10447 -1.72202,0.43581 -0.19145,0.15303 -0.19713,0.1604 -0.2944,0.38192 -0.2019,0.45974 -0.52786,0.96143 -0.88109,1.35608 l -0.13715,0.15323 0.15542,0.007 c 0.17561,0.008 0.62252,-0.005 0.77011,-0.0234 z m -1.02845,-0.0794 c 0.15616,-0.11312 0.401,-0.37293 0.50792,-0.539 0.12274,-0.19061 0.16245,-0.26645 0.46845,-0.89468 0.23651,-0.48556 0.32203,-0.62457 0.48888,-0.79467 0.26664,-0.27182 0.62831,-0.40602 1.50334,-0.5578 0.58068,-0.10073 0.71485,-0.12822 0.9314,-0.19083 0.18197,-0.0526 0.39565,-0.13893 0.43291,-0.17488 0.027,-0.0261 0.0752,-0.32057 0.0572,-0.34968 -0.007,-0.0118 -0.0627,0.0295 -0.12858,0.0958 -0.13765,0.1385 -0.37013,0.26638 -0.58348,0.32095 -0.0808,0.0207 -0.27128,0.0475 -0.42322,0.0597 -0.78918,0.0631 -1.24501,0.17449 -1.58846,0.38816 -0.17166,0.1068 -0.21455,0.15306 -0.255,0.27504 -0.0404,0.12188 -0.1355,0.25118 -0.29496,0.40106 -0.28553,0.26837 -0.40795,0.43423 -0.71195,0.96459 -0.28617,0.49925 -0.53398,0.78661 -0.78754,0.91324 -0.10931,0.0546 -0.10011,0.0643 0.10152,0.10755 0.18972,0.0406 0.19193,0.0405 0.28161,-0.0245 z m 1.38202,0.0163 c 0.058,-0.0117 0.17424,-0.0436 0.25842,-0.0709 l 0.15306,-0.0496 0.0124,-0.0931 c 0.0479,-0.35909 0.18022,-0.66584 0.37241,-0.86317 0.26171,-0.26872 0.39998,-0.34427 0.99868,-0.54572 0.26726,-0.0899 0.48809,-0.17713 0.56702,-0.22392 0.12812,-0.076 0.21438,-0.15126 0.1952,-0.17044 -0.0153,-0.0153 -0.77134,0.19615 -1.07121,0.29965 -0.78117,0.26962 -1.27028,0.65268 -1.5035,1.17748 -0.051,0.11477 -0.14554,0.45504 -0.14554,0.52381 0,0.0431 0.0194,0.045 0.16304,0.0159 z m -1.83414,-0.17255 c 0.28484,-0.1668 0.46043,-0.37712 0.82419,-0.98717 0.2914,-0.48872 0.37904,-0.60618 0.64677,-0.86683 0.19121,-0.18616 0.34166,-0.38204 0.31437,-0.40932 -0.0168,-0.0168 -0.22436,0.0834 -0.34636,0.16721 -0.11977,0.0822 -0.30583,0.26517 -0.42824,0.42105 -0.0386,0.0492 -0.19842,0.28183 -0.35507,0.51693 -0.45764,0.68685 -0.71403,0.90944 -1.18891,1.03219 l -0.12668,0.0327 0.20621,0.0832 c 0.11341,0.0458 0.23325,0.0835 0.2663,0.0839 0.0345,3.7e-4 0.11438,-0.0312 0.18742,-0.0739 z m 2.531,-0.17227 c 0.12171,-0.46265 0.44081,-0.69804 1.18794,-0.87634 l 0.22864,-0.0546 0.0895,-0.11805 c 0.10585,-0.13965 0.18699,-0.27347 0.1738,-0.28666 -0.0146,-0.0146 -0.35095,0.0646 -0.56386,0.13282 -0.60086,0.19247 -0.97666,0.46345 -1.17714,0.84879 -0.0823,0.15819 -0.16253,0.40781 -0.16253,0.50566 v 0.0547 l 0.0944,-0.0371 c 0.0926,-0.0363 0.0951,-0.0397 0.12924,-0.16935 z m 0.23742,-0.004 c 0.34423,-0.17336 0.7188,-0.44458 0.90956,-0.6586 0.0553,-0.0621 0.1006,-0.1197 0.1006,-0.12803 0,-0.0243 -0.45183,0.13706 -0.63368,0.22632 -0.2037,0.1 -0.37232,0.25125 -0.45408,0.40731 -0.0592,0.11303 -0.0966,0.2245 -0.0752,0.2245 0.006,0 0.0747,-0.0322 0.15281,-0.0715 z m -3.2222,-0.0572 c 0.23554,-0.0797 0.39034,-0.18026 0.59435,-0.3861 0.18588,-0.18755 0.25121,-0.27742 0.66017,-0.90815 0.0927,-0.14295 0.2293,-0.32434 0.30359,-0.40309 0.13485,-0.14295 0.13033,-0.15828 -0.0197,-0.0669 -0.12565,0.0765 -0.27731,0.23353 -0.47404,0.49079 -0.29777,0.38939 -0.37083,0.44984 -1.1246,0.9306 -0.18269,0.11652 -0.41975,0.30222 -0.41893,0.32816 2.3e-4,0.008 0.0293,0.0296 0.0646,0.0485 0.08,0.0428 0.22243,0.0312 0.41459,-0.0338 z m -0.42621,-0.16945 c 0.10715,-0.0979 0.29122,-0.22438 0.70288,-0.48287 0.33263,-0.20886 0.48402,-0.35104 0.74191,-0.69674 0.32656,-0.43778 0.36836,-0.46864 0.90866,-0.67085 0.1957,-0.0732 0.41064,-0.17094 0.53563,-0.24347 0.5349,-0.31038 0.63329,-0.34172 1.35762,-0.4324 0.68028,-0.0852 0.84396,-0.12306 1.09595,-0.25379 0.15363,-0.0797 0.2924,-0.20902 0.35412,-0.33 0.0374,-0.0734 0.04,-0.1025 0.0284,-0.32927 -0.0169,-0.33136 -0.10234,-0.79464 -0.1522,-0.82545 -0.008,-0.005 -0.0464,0.0426 -0.0853,0.10573 -0.1319,0.2137 -0.27833,0.3296 -0.75943,0.60111 -0.28196,0.15912 -0.42554,0.25676 -0.69026,0.46937 -0.44897,0.36061 -0.88011,0.59318 -1.35758,0.73235 -0.0984,0.0287 -0.44287,0.10484 -0.76546,0.16923 -0.70433,0.14059 -0.88265,0.18985 -1.14321,0.31581 -0.24468,0.11829 -0.41443,0.24457 -0.5669,0.42171 -0.23211,0.26969 -0.39117,0.54177 -0.60678,1.03791 l -0.10542,0.24259 0.063,0.0663 c 0.0667,0.0703 0.26327,0.19792 0.3087,0.20056 0.0149,8.6e-4 0.076,-0.0431 0.13577,-0.0978 z m 0.41586,-0.9844 c -0.12716,-0.0485 -0.13733,-0.064 -0.12573,-0.19187 0.0204,-0.22524 0.17499,-0.42045 0.42738,-0.53973 0.12084,-0.0571 0.1518,-0.0632 0.32255,-0.0633 0.15933,-1.5e-4 0.20403,0.007 0.28574,0.0475 l 0.0969,0.0477 -0.0119,0.10023 c -0.0268,0.22637 -0.19765,0.43935 -0.44547,0.55531 -0.11099,0.0519 -0.16169,0.0633 -0.30267,0.068 -0.1141,0.004 -0.1946,-0.004 -0.24678,-0.0239 z m 0.37242,-0.14396 c 0.23224,-0.0621 0.44614,-0.25604 0.4824,-0.43736 0.0121,-0.0603 0.01,-0.0626 -0.0929,-0.093 -0.12903,-0.0383 -0.1776,-0.0387 -0.31385,-0.002 -0.18064,0.0481 -0.3338,0.16943 -0.40275,0.31912 -0.0358,0.0778 -0.0503,0.22905 -0.0244,0.25495 0.0185,0.0185 0.21409,-0.004 0.3515,-0.0412 z m -1.10783,0.21545 c 0.12896,-0.23968 0.25917,-0.40907 0.46505,-0.60499 0.20738,-0.19735 0.40876,-0.33556 0.6858,-0.47068 0.34924,-0.17034 0.62878,-0.25402 1.36191,-0.40768 0.36071,-0.0756 0.70681,-0.19614 1.02392,-0.35661 0.31875,-0.1613 0.47534,-0.26094 0.98613,-0.6275 0.20122,-0.1444 0.44637,-0.30293 0.54478,-0.35229 0.46023,-0.23084 0.6628,-0.38664 0.76053,-0.58491 l 0.0448,-0.0908 -0.1009,-0.24626 c -0.10146,-0.24765 -0.22136,-0.48266 -0.25771,-0.50513 -0.0108,-0.007 -0.0379,0.031 -0.0604,0.0836 -0.11421,0.26766 -0.37875,0.63327 -0.59661,0.82454 -0.56911,0.49966 -1.2944,0.771 -2.30476,0.86222 -0.72675,0.0656 -0.90117,0.13858 -1.36371,0.57047 -0.32086,0.29959 -0.40223,0.36449 -0.74377,0.59316 -0.36517,0.24449 -0.54808,0.41906 -0.67565,0.64485 -0.0865,0.15304 -0.43774,0.92539 -0.43774,0.96247 0,0.041 0.16239,0.21994 0.27925,0.30778 l 0.12448,0.0936 0.0864,-0.26255 c 0.0475,-0.14441 0.12772,-0.33937 0.17823,-0.43324 z m -0.6703,0.0878 c 0.0647,-0.20416 0.28336,-0.63279 0.41459,-0.81281 0.0628,-0.0862 0.12765,-0.17522 0.14405,-0.19785 0.0575,-0.0794 -0.13015,0.0449 -0.28944,0.19171 -0.21311,0.19637 -0.35859,0.41166 -0.46189,0.68353 l -0.037,0.0972 0.0781,0.10547 c 0.043,0.058 0.0847,0.0979 0.0928,0.0887 0.008,-0.009 0.0345,-0.0794 0.0588,-0.15597 z m -0.11252,-0.53305 c 0.15229,-0.22937 0.33554,-0.38109 0.79819,-0.66092 0.34053,-0.20595 0.55307,-0.36341 0.97642,-0.72335 0.17496,-0.14875 0.35837,-0.30096 0.40758,-0.33823 0.13657,-0.10346 0.13819,-0.1069 0.0438,-0.0927 -0.12129,0.0183 -0.43849,0.12179 -0.66009,0.21543 -0.70411,0.29753 -1.29782,0.82579 -1.76944,1.5744 -0.11667,0.18519 -0.12134,0.19739 -0.0976,0.25482 0.0137,0.0332 0.0473,0.0869 0.0746,0.1193 l 0.0496,0.059 0.0532,-0.15083 c 0.0293,-0.083 0.0849,-0.19857 0.12368,-0.25692 z m -0.3627,0.0697 c 0,-0.0291 0.24331,-0.42937 0.33476,-0.55066 0.41437,-0.54959 0.93384,-0.9288 1.66278,-1.21382 0.44525,-0.1741 1.16081,-0.3542 1.77009,-0.44551 1.11138,-0.16657 1.23267,-0.21285 1.57721,-0.60178 0.24561,-0.27726 0.61775,-0.8656 0.76444,-1.20856 0.0765,-0.17875 0.14294,-0.4259 0.12318,-0.45789 -0.0169,-0.0273 -0.0491,-0.0234 -0.0495,0.006 -1.5e-4,0.0137 -0.0438,0.11538 -0.097,0.22601 -0.28759,0.598 -0.71792,1.00179 -1.46529,1.37494 -0.36657,0.18302 -0.68709,0.30555 -1.55887,0.59595 -1.35906,0.45271 -1.72471,0.60441 -2.20689,0.91554 -0.42465,0.27401 -0.76986,0.6362 -0.9568,1.00387 l -0.0585,0.11507 0.0613,0.12848 c 0.0532,0.11158 0.099,0.16361 0.099,0.11252 z m 4.41761,-0.2217 c 0.14362,-0.08 0.40072,-0.16765 0.6482,-0.22095 0.15517,-0.0334 0.30591,-0.0448 0.76954,-0.0583 0.62593,-0.0182 0.73683,-0.0344 0.94135,-0.13764 0.12977,-0.0655 0.23035,-0.16856 0.28188,-0.28881 0.0383,-0.0892 0.069,-0.25763 0.0448,-0.24539 -0.39993,0.20231 -0.55042,0.24433 -1.30777,0.36515 -0.8874,0.14157 -1.18975,0.2396 -1.45263,0.471 -0.091,0.0801 -0.22739,0.26788 -0.22739,0.31309 0,0.0121 0.0425,-0.0133 0.0944,-0.0565 0.052,-0.0432 0.14537,-0.10693 0.20761,-0.1416 z m -4.47786,-0.34607 c 10e-4,-0.0294 0.17769,-0.27196 0.29554,-0.40583 0.21035,-0.23893 0.56819,-0.4983 0.95294,-0.69073 0.4005,-0.20029 0.86184,-0.36379 1.82389,-0.64636 0.84717,-0.24884 1.34907,-0.46617 1.84902,-0.80063 0.49709,-0.33256 0.89683,-0.7572 1.17461,-1.2478 l 0.11219,-0.19815 -0.0529,-0.0694 c -0.0291,-0.0382 -0.0697,-0.0694 -0.0901,-0.0694 -0.0599,0 -0.15439,0.11061 -0.34814,0.40758 -0.35524,0.54447 -0.85981,0.96322 -1.63616,1.35786 -0.57205,0.29079 -0.85894,0.40183 -1.83355,0.70968 -0.62502,0.19743 -0.96499,0.32311 -1.26266,0.46678 -0.56519,0.27278 -0.94035,0.61277 -1.16263,1.05362 l -0.0648,0.12847 0.0352,0.10017 c 0.0573,0.16314 0.0668,0.16559 0.14104,0.0362 0.0363,-0.0632 0.0662,-0.12271 0.0666,-0.13212 z m -0.16821,-0.25627 c 0.22039,-0.38045 0.37051,-0.54616 0.67985,-0.75046 0.39852,-0.26321 0.7811,-0.42605 1.7058,-0.72609 0.90759,-0.29449 1.23464,-0.42281 1.74961,-0.68647 0.89858,-0.46006 1.49799,-0.9722 1.93675,-1.65479 0.0855,-0.13304 0.0861,-0.13519 0.0491,-0.17636 -0.0643,-0.0715 -0.4368,-0.34321 -0.59375,-0.43301 -0.17393,-0.0995 -0.12129,-0.10837 -0.54567,0.0918 -0.33615,0.15857 -0.60694,0.33866 -0.79108,0.5261 -0.21044,0.21422 -0.2409,0.26025 -0.66236,1.00089 -0.36587,0.64297 -0.70969,0.92529 -1.61092,1.32275 -0.92675,0.40872 -1.16985,0.53993 -1.48044,0.79909 -0.36265,0.30259 -0.52182,0.51806 -0.54129,0.7327 -0.006,0.0648 -0.006,0.11787 -6.7e-4,0.11787 0.006,0 0.0528,-0.0738 0.10503,-0.16403 z m 4.5167,-2.93624 c -0.42108,-0.0852 -0.2375,-0.6601 0.3136,-0.98203 0.25131,-0.1468 0.37753,-0.18238 0.647,-0.18238 0.19682,0 0.23989,0.006 0.3095,0.0433 0.12592,0.0674 0.13964,0.0923 0.11119,0.20181 -0.0497,0.19144 -0.1427,0.3453 -0.30958,0.51241 -0.13185,0.13205 -0.19483,0.17768 -0.3497,0.25338 -0.27106,0.13251 -0.54161,0.19004 -0.72201,0.15352 z m 0.46418,-0.23196 c 0.33649,-0.0998 0.62769,-0.34906 0.74629,-0.63871 l 0.047,-0.1148 -0.0596,-0.0252 c -0.10218,-0.0431 -0.33224,-0.0513 -0.49142,-0.0175 -0.39025,0.083 -0.68655,0.3509 -0.75739,0.68478 -0.0123,0.058 -0.0223,0.11327 -0.0223,0.12294 0,0.0479 0.36351,0.04 0.53744,-0.0116 z m -5.07215,2.89001 c 0.11804,-0.15716 0.42183,-0.44364 0.6104,-0.57562 0.3171,-0.22193 0.47215,-0.30411 1.5225,-0.80695 0.40232,-0.19261 0.61204,-0.33992 0.91066,-0.63965 0.28426,-0.28533 0.47812,-0.54644 0.77618,-1.04546 0.22771,-0.38123 0.34829,-0.51937 0.6584,-0.75433 0.22139,-0.16773 0.48438,-0.30563 0.72734,-0.38138 0.15668,-0.0488 0.16691,-0.0552 0.13225,-0.0819 -0.0762,-0.0588 -0.32241,-0.16119 -0.55306,-0.22999 l -0.23715,-0.0707 -0.10934,0.10847 c -0.13333,0.13227 -0.39025,0.2634 -0.77828,0.39724 -0.40004,0.13797 -0.64983,0.26461 -0.80111,0.40612 -0.0696,0.0651 -0.20345,0.2291 -0.29738,0.36438 -0.31598,0.45505 -0.56018,0.62089 -1.42298,0.96637 -0.67179,0.26899 -0.93281,0.4144 -1.17987,0.65728 -0.13156,0.12932 -0.13266,0.13131 -0.14912,0.26946 -0.0312,0.26161 -0.0187,1.09324 0.0196,1.30226 0.0419,0.22874 0.0531,0.26752 0.0713,0.24556 0.008,-0.009 0.0526,-0.0683 0.0997,-0.13108 z m 5.65386,-1.54859 c 0.27552,-0.1395 0.61897,-0.41313 0.81698,-0.6509 0.23107,-0.27748 0.44139,-0.62978 0.42202,-0.70693 -0.0115,-0.0457 -0.20896,-0.32952 -0.22932,-0.32952 -0.006,0 -0.0334,0.0604 -0.0597,0.1342 -0.15884,0.44442 -0.5313,1.03041 -0.91839,1.44491 -0.0774,0.0828 -0.13495,0.15062 -0.12797,0.15062 0.007,0 0.0504,-0.0191 0.0964,-0.0424 z m -5.43854,-0.50219 c 0.19598,-0.12631 0.29903,-0.17472 0.82911,-0.38948 0.79298,-0.32128 1.02334,-0.45575 1.21346,-0.70835 0.18633,-0.24756 0.36445,-0.43963 0.68889,-0.74285 0.16805,-0.15706 0.41961,-0.39211 0.55903,-0.52235 0.13943,-0.13023 0.2535,-0.24505 0.2535,-0.25515 0,-0.0101 -0.047,-0.0183 -0.10438,-0.0182 -0.0966,1.5e-4 -0.10784,0.005 -0.15104,0.0687 -0.0573,0.0841 -0.19254,0.18858 -0.44045,0.3402 -0.12505,0.0765 -0.24439,0.17191 -0.35315,0.28242 l -0.16428,0.16691 0.0778,-0.14585 c 0.0774,-0.14514 0.0793,-0.14685 0.39291,-0.35804 0.27826,-0.18739 0.44092,-0.32471 0.41516,-0.35047 -0.005,-0.005 -0.11855,0.007 -0.25309,0.0257 -0.23424,0.0328 -0.24786,0.0373 -0.32129,0.10663 -0.0422,0.0398 -0.16878,0.21111 -0.28135,0.3806 -0.37444,0.56378 -0.51571,0.65936 -1.30516,0.88308 -0.41162,0.11664 -0.66864,0.21425 -0.7953,0.30203 -0.18359,0.12723 -0.32098,0.33794 -0.34777,0.53338 l -0.013,0.0949 0.0577,-0.0298 c 0.0317,-0.0164 0.27686,-0.12096 0.54477,-0.2324 0.5357,-0.22283 0.92194,-0.40917 1.1402,-0.55009 0.16756,-0.10819 0.42813,-0.32165 0.5018,-0.41109 0.10626,-0.12899 0.0166,0.003 -0.11572,0.16993 -0.3072,0.38833 -0.51196,0.51559 -1.17835,0.73239 -0.55531,0.18066 -0.85789,0.3147 -0.99932,0.44268 -0.0358,0.0324 -0.16377,0.36344 -0.16377,0.42377 0,0.007 0.0403,-0.0249 0.0894,-0.0702 0.0492,-0.0453 0.14984,-0.12137 0.22367,-0.16895 z m 0.53187,-1.16987 c 0.13431,-0.0669 0.23776,-0.0991 0.64839,-0.2016 0.19258,-0.0481 0.41178,-0.11661 0.48711,-0.15233 0.19253,-0.0913 0.42457,-0.32998 0.65447,-0.67321 0.0981,-0.14644 0.19098,-0.28342 0.20641,-0.30438 0.0264,-0.0358 0.0246,-0.0373 -0.0298,-0.0239 -0.16618,0.0408 -0.19379,0.0596 -0.26907,0.18344 -0.041,0.0674 -0.11313,0.16837 -0.16031,0.22435 -0.21056,0.24979 -0.66257,0.50619 -1.21907,0.69149 -0.30905,0.10291 -0.32075,0.10884 -0.41102,0.20818 -0.0511,0.0562 -0.10881,0.12902 -0.12823,0.16174 l -0.0353,0.0595 0.0785,-0.0619 c 0.0432,-0.034 0.12326,-0.0842 0.17793,-0.11141 z m 0.36875,-0.35366 c 0.5149,-0.20513 0.87952,-0.42119 1.08936,-0.64551 0.11126,-0.11894 0.19565,-0.24194 0.17806,-0.25953 -0.0146,-0.0146 -0.49101,0.20709 -0.68183,0.31725 -0.28551,0.16481 -0.4338,0.27431 -0.63126,0.46613 -0.15415,0.14975 -0.19642,0.20156 -0.16442,0.20156 0.005,0 0.0998,-0.036 0.21009,-0.0799 z m 2.20971,-0.47543 c 0.0707,-0.032 0.24416,-0.10004 0.38548,-0.15108 0.30225,-0.10916 0.52707,-0.22148 0.64455,-0.32204 0.078,-0.0667 0.0813,-0.0735 0.0436,-0.0874 -0.0225,-0.008 -0.11528,-0.025 -0.20622,-0.037 -0.0909,-0.012 -0.19313,-0.0267 -0.22709,-0.0326 -0.0561,-0.01 -0.0664,-0.003 -0.11237,0.0754 -0.0661,0.1126 -0.27921,0.31508 -0.4969,0.47222 -0.22619,0.16327 -0.2297,0.17261 -0.031,0.0825 z"
         id="path31" />
    </g>
  </g>
</svg>
