<?xml version="1.0" encoding="UTF-8" standalone="no"?>
<!-- Created with Inkscape (http://www.inkscape.org/) -->

<svg
   width="37.064999mm"
   height="24.360001mm"
   viewBox="0 0 37.064999 24.360001"
   version="1.1"
   id="svg1"
   inkscape:version="1.4.2 (ebf0e940d0, 2025-05-08)"
   sodipodi:docname="5_1_1_61.svg"
   xmlns:inkscape="http://www.inkscape.org/namespaces/inkscape"
   xmlns:sodipodi="http://sodipodi.sourceforge.net/DTD/sodipodi-0.dtd"
   xmlns="http://www.w3.org/2000/svg"
   xmlns:svg="http://www.w3.org/2000/svg">
  <sodipodi:namedview
     id="namedview1"
     pagecolor="#ffffff"
     bordercolor="#000000"
     borderopacity="0.25"
     inkscape:showpageshadow="2"
     inkscape:pageopacity="0.0"
     inkscape:pagecheckerboard="0"
     inkscape:deskcolor="#d1d1d1"
     inkscape:document-units="mm"
     inkscape:zoom="3.6245539"
     inkscape:cx="70.629381"
     inkscape:cy="18.485033"
     inkscape:window-width="1920"
     inkscape:window-height="1011"
     inkscape:window-x="0"
     inkscape:window-y="0"
     inkscape:window-maximized="1"
     inkscape:current-layer="layer1" />
  <defs
     id="defs1">
    <rect
       x="12.886645"
       y="9.7792273"
       width="30.571508"
       height="17.090799"
       id="rect2" />
    <rect
       x="13.485725"
       y="-52.819092"
       width="225.2477"
       height="118.63495"
       id="rect1" />
    <rect
       x="37.795277"
       y="37.795277"
       width="483.77954"
       height="718.11023"
       id="rect2721" />
    <rect
       x="37.795277"
       y="37.795277"
       width="483.77954"
       height="718.11023"
       id="rect2722" />
    <rect
       x="37.795277"
       y="37.795277"
       width="483.77954"
       height="718.11023"
       id="rect2723" />
    <rect
       x="37.795277"
       y="37.795277"
       width="483.77954"
       height="718.11023"
       id="rect2724" />
    <rect
       x="37.795277"
       y="37.795277"
       width="483.77954"
       height="718.11023"
       id="rect2725" />
    <rect
       x="37.795277"
       y="37.795277"
       width="483.77954"
       height="718.11023"
       id="rect2726" />
    <rect
       x="37.795277"
       y="37.795277"
       width="483.77954"
       height="718.11023"
       id="rect2727" />
    <rect
       x="37.795277"
       y="37.795277"
       width="483.77954"
       height="718.11023"
       id="rect2728" />
    <rect
       x="37.795277"
       y="37.795277"
       width="483.77954"
       height="718.11023"
       id="rect2729" />
    <rect
       x="37.795277"
       y="37.795277"
       width="483.77954"
       height="718.11023"
       id="rect2730" />
    <rect
       x="37.795277"
       y="37.795277"
       width="483.77954"
       height="718.11023"
       id="rect2731" />
    <rect
       x="37.795277"
       y="37.795277"
       width="483.77954"
       height="718.11023"
       id="rect2732" />
    <rect
       x="37.795277"
       y="37.795277"
       width="483.77954"
       height="718.11023"
       id="rect2733" />
    <rect
       x="37.795277"
       y="37.795277"
       width="483.77954"
       height="718.11023"
       id="rect2734" />
    <rect
       x="12.886645"
       y="9.7792273"
       width="31.54924"
       height="22.512768"
       id="rect3" />
    <rect
       x="12.886645"
       y="9.7792273"
       width="30.571508"
       height="17.090799"
       id="rect6" />
    <rect
       x="12.886645"
       y="9.7792273"
       width="31.54924"
       height="22.512768"
       id="rect7" />
    <rect
       x="12.886645"
       y="9.7792273"
       width="30.571508"
       height="17.090799"
       id="rect9" />
    <rect
       x="12.886645"
       y="9.7792273"
       width="31.54924"
       height="22.512768"
       id="rect10" />
    <rect
       x="12.886645"
       y="9.7792273"
       width="30.571508"
       height="17.090799"
       id="rect16" />
    <rect
       x="12.886645"
       y="9.7792273"
       width="31.54924"
       height="22.512768"
       id="rect17" />
    <rect
       x="12.886645"
       y="9.7792273"
       width="30.571508"
       height="17.090799"
       id="rect18" />
    <rect
       x="12.886645"
       y="9.7792273"
       width="31.54924"
       height="22.512768"
       id="rect19" />
    <rect
       x="12.886645"
       y="9.7792273"
       width="30.571508"
       height="17.090799"
       id="rect20" />
    <rect
       x="12.886645"
       y="9.7792273"
       width="31.54924"
       height="22.512768"
       id="rect21" />
    <rect
       x="12.886645"
       y="9.7792273"
       width="30.571508"
       height="17.090799"
       id="rect27" />
    <rect
       x="12.886645"
       y="9.7792273"
       width="31.54924"
       height="22.512768"
       id="rect28" />
    <rect
       x="12.886645"
       y="9.7792273"
       width="30.571508"
       height="17.090799"
       id="rect29" />
    <rect
       x="12.886645"
       y="9.7792273"
       width="31.54924"
       height="22.512768"
       id="rect30" />
    <rect
       x="12.886645"
       y="9.7792273"
       width="30.571508"
       height="17.090799"
       id="rect31" />
    <rect
       x="12.886645"
       y="9.7792273"
       width="31.54924"
       height="22.512768"
       id="rect32" />
    <rect
       x="12.886645"
       y="9.7792273"
       width="30.571508"
       height="17.090799"
       id="rect34" />
    <rect
       x="12.886645"
       y="9.7792273"
       width="31.54924"
       height="22.512768"
       id="rect35" />
  </defs>
  <g
     inkscape:label="Katman 1"
     inkscape:groupmode="layer"
     id="layer1">
    <g
       id="g35">
      <path
         id="rect4"
         style="fill:#ffffff;stroke:#000000;stroke-width:0.264583"
         d="m 26.603264,12.832291 h 9.257977 c 0.59332,0 1.070975,0.477654 1.070975,1.070974 v 2.90353 c 0,0.59332 -0.477655,1.070974 -1.070975,1.070974 h -9.257977 c -0.59332,0 -1.070974,-0.477654 -1.070974,-1.070974 v -2.90353 c 0,-0.59332 0.477654,-1.070974 1.070974,-1.070974 z" />
      <path
         d="m 20.3267,22.112599 2.053328,-6.986649 h -1.25333 l -1.386663,5.439986 -1.37333,-5.439986 h -1.359997 l -1.33333,5.439986 -1.426663,-5.439986 h -1.226663 l 2.026661,6.986649 h 1.25333 l 1.346664,-5.479986 1.413329,5.479986 z m 5.986653,-3.613324 2.346661,-3.373325 h -1.25333 l -1.679996,2.533327 -1.679996,-2.533327 h -1.266663 l 2.333327,3.426658 -2.46666,3.559991 h 1.266663 l 1.773329,-2.679993 1.746662,2.679993 h 1.293331 z M 33.899998,15.12595 31.96667,20.565936 30.180008,15.12595 h -1.186664 l 2.359994,7.013316 -0.426665,1.106664 c -0.186667,0.493332 -0.426666,0.679998 -0.893332,0.679998 -0.159999,0 -0.346665,-0.02667 -0.586665,-0.08 v 0.999997 c 0.226666,0.12 0.453332,0.173333 0.746665,0.173333 0.759998,0 1.41333,-0.413332 1.799996,-1.439996 l 3.106658,-8.453312 z m 7.226658,0 h -5.21332 v 0.973331 h 3.893323 l -4.173323,5.013321 v 0.999997 h 5.679986 V 21.139268 H 36.98 l 4.146656,-5.026654 z"
         id="text1"
         style="font-size:13.3333px;font-family:FreeSans;-inkscape-font-specification:FreeSans;white-space:pre"
         transform="matrix(0.26458333,0,0,0.26458333,25.34192,10.694405)"
         aria-label="wxyz" />
      <path
         style="font-weight:bold;font-size:16px;font-family:FreeSans;-inkscape-font-specification:FreeSans;white-space:pre"
         d="m 21.142719,18.659297 c 0,-4.816 -2.384,-5.664 -3.984,-5.664 -2.272,0 -3.824,1.632 -3.824,4 0,2.336 1.376,3.936 3.392,3.936 1.392,0 1.904,-0.816 2.176,-1.12 0,2.16 -0.608,3.232 -1.872,3.232 -0.784,0 -1.328,-0.432 -1.376,-1.104 h -2.16 c 0.048,1.744 1.52,3.024 3.472,3.024 1.792,0 4.176,-0.944 4.176,-6.304 z m -4.048,-3.84 c 1.088,0 1.76,0.848 1.76,2.176 0,1.248 -0.704,2.08 -1.728,2.08 -1.024,0 -1.664,-0.816 -1.664,-2.112 0,-1.312 0.64,-2.144 1.632,-2.144 z"
         id="text3"
         transform="matrix(0.26458333,0,0,0.26458333,22.663628,10.385723)"
         aria-label="9" />
      <path
         id="rect5"
         style="fill:#ffffff;stroke:#000000;stroke-width:0.264583"
         d="m 13.903264,12.832291 h 9.257978 c 0.593319,0 1.070974,0.477654 1.070974,1.070974 v 2.90353 c 0,0.59332 -0.477655,1.070974 -1.070974,1.070974 h -9.257978 c -0.59332,0 -1.070974,-0.477654 -1.070974,-1.070974 v -2.90353 c 0,-0.59332 0.477654,-1.070974 1.070974,-1.070974 z" />
      <path
         d="m 16.353377,15.12595 h -1.146664 v -1.919995 h -1.106664 v 1.919995 h -0.946664 v 0.906664 h 0.946664 v 5.279987 c 0,0.706665 0.479999,1.106664 1.346663,1.106664 0.266666,0 0.533332,-0.02667 0.906665,-0.09333 v -0.933331 c -0.146667,0.04 -0.32,0.05333 -0.533332,0.05333 -0.479999,0 -0.613332,-0.133333 -0.613332,-0.626665 v -4.786655 h 1.146664 z m 6.626659,6.986649 V 15.12595 h -1.106664 v 3.95999 c 0,1.426663 -0.746665,2.359994 -1.906662,2.359994 -0.879998,0 -1.439996,-0.533332 -1.439996,-1.37333 V 15.12595 H 17.42005 v 5.386653 c 0,1.159997 0.866664,1.906662 2.226661,1.906662 1.026664,0 1.679996,-0.359999 2.333327,-1.279997 v 0.973331 z m 4.599997,0 2.679993,-6.986649 h -1.25333 l -1.973328,5.666652 -1.866662,-5.666652 h -1.25333 l 2.453327,6.986649 z"
         id="text5"
         style="font-size:13.3333px;font-family:FreeSans;-inkscape-font-specification:FreeSans;white-space:pre"
         transform="matrix(0.26458333,0,0,0.26458333,12.641919,10.694405)"
         aria-label="tuv" />
      <path
         style="font-weight:bold;font-size:16px;font-family:FreeSans;-inkscape-font-specification:FreeSans;white-space:pre"
         d="m 20.902719,16.067297 c 0,-1.776 -1.536,-3.072 -3.632,-3.072 -2.112,0 -3.648,1.296 -3.648,3.088 0,1.088 0.448,1.776 1.472,2.32 -1.312,0.704 -1.856,1.568 -1.856,2.912 0,2.144 1.648,3.632 4.032,3.632 2.368,0 4.016,-1.488 4.016,-3.632 0,-1.344 -0.544,-2.208 -1.856,-2.912 0.784,-0.416 1.472,-1.024 1.472,-2.336 z m -3.616,-1.264 c 0.992,0 1.68,0.608 1.68,1.488 0,0.864 -0.704,1.488 -1.68,1.488 -0.992,0 -1.696,-0.624 -1.696,-1.504 0,-0.864 0.688,-1.472 1.696,-1.472 z m -0.032,4.496 c 1.104,0 1.792,0.736 1.792,1.92 0,1.088 -0.704,1.808 -1.792,1.808 -1.088,0 -1.776,-0.72 -1.776,-1.84 0,-1.152 0.704,-1.888 1.776,-1.888 z"
         id="text6"
         transform="matrix(0.26458333,0,0,0.26458333,9.9636268,10.335542)"
         aria-label="8" />
      <path
         id="rect8"
         style="fill:#ffffff;stroke:#000000;stroke-width:0.264583"
         d="m 1.2032657,12.832291 h 9.2579773 c 0.59332,0 1.070975,0.477654 1.070975,1.070974 v 2.90353 c 0,0.59332 -0.477655,1.070974 -1.070975,1.070974 H 1.2032657 c -0.5933197,0 -1.0709742,-0.477654 -1.0709742,-1.070974 v -2.90353 c 0,-0.59332 0.4776545,-1.070974 1.0709742,-1.070974 z" />
      <path
         d="m 13.686717,25.019258 h 1.119997 v -3.63999 c 0.586665,0.719998 1.239997,1.039997 2.146661,1.039997 1.799996,0 2.986659,-1.45333 2.986659,-3.679991 0,-2.346661 -1.146664,-3.813323 -2.999992,-3.813323 -0.946664,0 -1.706663,0.426665 -2.226661,1.25333 V 15.12595 h -1.026664 z m 3.066659,-9.05331 c 1.226663,0 2.026661,1.079997 2.026661,2.74666 0,1.586662 -0.813331,2.66666 -2.026661,2.66666 -1.173331,0 -1.946662,-1.066664 -1.946662,-2.70666 0,-1.639996 0.773331,-2.70666 1.946662,-2.70666 z m 10.239974,9.05331 V 15.12595 h -0.986664 v 0.933331 c -0.519999,-0.733331 -1.306663,-1.13333 -2.226661,-1.13333 -1.839996,0 -3.039992,1.506662 -3.039992,3.826657 0,2.26666 1.146663,3.666657 2.986659,3.666657 0.973331,0 1.639995,-0.346666 2.159994,-1.106664 v 3.706657 z m -3.053326,-9.05331 c 1.186664,0 1.946662,1.066664 1.946662,2.74666 0,1.599996 -0.773331,2.66666 -1.946662,2.66666 -1.226663,0 -2.039994,-1.079998 -2.039994,-2.70666 0,-1.61333 0.813331,-2.70666 2.039994,-2.70666 z m 8.013314,0.133333 V 14.96595 c -0.186666,-0.02667 -0.279999,-0.04 -0.426666,-0.04 -0.719998,0 -1.266663,0.426665 -1.906662,1.466662 V 15.12595 h -1.026664 v 6.986649 h 1.119997 v -3.626657 c 0,-1.959996 0.893332,-2.359994 2.239995,-2.386661 z m 1.893337,3.933323 h -1.17333 c 0.05333,1.61333 0.959997,2.386661 2.786659,2.386661 1.759996,0 2.879993,-0.866665 2.879993,-2.213328 0,-1.039997 -0.586665,-1.613329 -1.973328,-1.946662 l -1.066664,-0.253332 c -0.906664,-0.213333 -1.29333,-0.506666 -1.29333,-0.999998 0,-0.639998 0.573332,-1.05333 1.479996,-1.05333 0.893331,0 1.37333,0.386665 1.399997,1.119997 h 1.17333 c -0.01333,-1.37333 -0.919998,-2.146661 -2.533327,-2.146661 -1.626663,0 -2.679993,0.839997 -2.679993,2.133327 0,1.093331 0.559998,1.61333 2.213327,2.013329 l 1.039998,0.253332 C 36.873334,19.512606 37.18,19.792605 37.18,20.29927 c 0,0.653332 -0.653332,1.093331 -1.626662,1.093331 -1.359997,0 -1.61333,-0.679998 -1.706663,-1.359997 z"
         id="text8"
         style="font-size:13.3333px;font-family:FreeSans;-inkscape-font-specification:FreeSans;white-space:pre"
         transform="matrix(0.26458333,0,0,0.26458333,-0.058083,10.694405)"
         aria-label="pqrs" />
      <path
         style="font-weight:bold;font-size:16px;font-family:FreeSans;-inkscape-font-specification:FreeSans;white-space:pre"
         d="m 21.334719,13.235297 h -7.984 v 2 h 5.648 c -2.352,2.896 -3.472,5.216 -3.984,9.344 h 2.256 c 0.208,-3.584 1.376,-6.336 4.064,-9.584 z"
         id="text9"
         transform="matrix(0.26458333,0,0,0.26458333,-2.736375,10.352474)"
         aria-label="7" />
      <path
         id="rect11"
         style="fill:#ffffff;stroke:#000000;stroke-width:0.264583"
         d="m 26.603264,6.4822903 h 9.257977 c 0.59332,0 1.070975,0.4776545 1.070975,1.0709742 v 2.9035305 c 0,0.59332 -0.477655,1.070974 -1.070975,1.070974 h -9.257977 c -0.59332,0 -1.070974,-0.477654 -1.070974,-1.070974 V 7.5532645 c 0,-0.5933197 0.477654,-1.0709742 1.070974,-1.0709742 z" />
      <path
         d="m 13.686717,15.12595 v 6.986649 h 1.119997 v -4.386656 c 0,-1.01333 0.733331,-1.826662 1.639996,-1.826662 0.826664,0 1.29333,0.506666 1.29333,1.399997 v 4.813321 h 1.119997 v -4.386656 c 0,-1.01333 0.733331,-1.826662 1.639996,-1.826662 0.813331,0 1.29333,0.519999 1.29333,1.399997 v 4.813321 h 1.119997 v -5.239987 c 0,-1.25333 -0.719998,-1.946661 -2.026661,-1.946661 -0.933331,0 -1.49333,0.279999 -2.146662,1.066664 -0.413332,-0.746665 -0.973331,-1.066664 -1.879995,-1.066664 -0.933331,0 -1.546663,0.346665 -2.146661,1.186663 V 15.12595 Z m 10.826643,0 v 6.986649 h 1.119997 v -3.853324 c 0,-1.426663 0.746665,-2.359994 1.893328,-2.359994 0.879998,0 1.439997,0.533332 1.439997,1.37333 v 4.839988 h 1.106664 v -5.279987 c 0,-1.159997 -0.866665,-1.906661 -2.213328,-1.906661 -1.039997,0 -1.706662,0.399999 -2.319994,1.373329 v -1.17333 z m 9.90665,-0.199999 c -1.959995,0 -3.146659,1.399996 -3.146659,3.746657 0,2.34666 1.17333,3.746657 3.159992,3.746657 1.959995,0 3.159992,-1.399997 3.159992,-3.693324 0,-2.413327 -1.159997,-3.79999 -3.173325,-3.79999 z m 0.01333,1.026664 c 1.25333,0 1.999995,1.026664 1.999995,2.759993 0,1.639995 -0.773331,2.679993 -1.999995,2.679993 -1.239997,0 -1.999995,-1.026664 -1.999995,-2.719993 0,-1.679996 0.759998,-2.719993 1.999995,-2.719993 z"
         id="text11"
         style="font-size:13.3333px;font-family:FreeSans;-inkscape-font-specification:FreeSans;white-space:pre"
         transform="matrix(0.26458333,0,0,0.26458333,25.34192,4.344405)"
         aria-label="mno" />
      <path
         style="font-weight:bold;font-size:16px;font-family:FreeSans;-inkscape-font-specification:FreeSans;white-space:pre"
         d="m 13.398719,19.187297 c 0,4.656 1.904,5.76 4,5.76 2.256,0 3.792,-1.696 3.792,-4.16 0,-2.176 -1.344,-3.68 -3.296,-3.68 -0.928,0 -1.552,0.272 -2.256,1.008 0.08,-1.888 0.32,-3.312 1.888,-3.312 0.72,0 1.104,0.288 1.392,1.008 h 2.08 c -0.416,-2.688 -2.72,-2.816 -3.408,-2.816 -3.2,0 -4.192,2.704 -4.192,6.192 z m 3.952,-0.32 c 1.04,0 1.712,0.816 1.712,2.064 0,1.216 -0.736,2.096 -1.728,2.096 -1.024,0 -1.728,-0.848 -1.728,-2.048 0,-1.248 0.704,-2.112 1.744,-2.112 z"
         id="text12"
         transform="matrix(0.26458333,0,0,0.26458333,22.663628,3.985542)"
         aria-label="6" />
      <path
         id="rect12"
         style="fill:#ffffff;stroke:#000000;stroke-width:0.264583"
         d="m 13.903264,6.4822903 h 9.257978 c 0.593319,0 1.070974,0.4776545 1.070974,1.0709742 v 2.9035305 c 0,0.59332 -0.477655,1.070974 -1.070974,1.070974 h -9.257978 c -0.59332,0 -1.070974,-0.477654 -1.070974,-1.070974 V 7.5532645 c 0,-0.5933197 0.477654,-1.0709742 1.070974,-1.0709742 z" />
      <path
         d="m 14.060049,15.12595 v 7.99998 c 0,0.693331 -0.213333,0.933331 -0.866664,0.933331 -0.09333,0 -0.213333,-0.01333 -0.306666,-0.02667 v 0.946664 c 0.133333,0.02667 0.199999,0.04 0.373332,0.04 1.25333,0 1.906662,-0.506665 1.906662,-1.453329 V 15.12595 Z m 1.106664,-2.733326 h -1.106664 v 1.399996 h 1.106664 z m 2.86666,0 h -1.106664 v 9.719975 h 1.106664 v -2.719993 l 1.079997,-1.066664 2.359994,3.786657 h 1.37333 l -2.853326,-4.573322 2.42666,-2.413327 h -1.426663 l -2.959992,2.959993 z m 6.866648,0 h -1.119997 v 9.719975 h 1.119997 z"
         id="text13"
         style="font-size:13.3333px;font-family:FreeSans;-inkscape-font-specification:FreeSans;white-space:pre"
         transform="matrix(0.26458333,0,0,0.26458333,12.641919,4.344405)"
         aria-label="jkl" />
      <path
         style="font-weight:bold;font-size:16px;font-family:FreeSans;-inkscape-font-specification:FreeSans;white-space:pre"
         d="m 20.710719,13.235297 h -6.064 l -1.008,6.32 h 2.016 c 0.24,-0.56 0.752,-0.864 1.44,-0.864 1.136,0 1.824,0.816 1.824,2.192 0,1.328 -0.704,2.144 -1.824,2.144 -0.976,0 -1.52,-0.496 -1.568,-1.408 h -2.208 c 0.032,1.984 1.536,3.328 3.744,3.328 2.432,0 4.096,-1.664 4.096,-4.112 0,-2.32 -1.44,-3.92 -3.536,-3.92 -0.752,0 -1.312,0.192 -1.968,0.688 l 0.368,-2.368 h 4.688 z"
         id="text14"
         transform="matrix(0.26458333,0,0,0.26458333,9.9636268,3.9537893)"
         aria-label="5" />
      <path
         id="rect14"
         style="fill:#ffffff;stroke:#000000;stroke-width:0.264583"
         d="m 1.2032657,6.4822903 h 9.2579773 c 0.59332,0 1.070975,0.4776545 1.070975,1.0709742 v 2.9035305 c 0,0.59332 -0.477655,1.070974 -1.070975,1.070974 H 1.2032657 c -0.5933197,0 -1.0709742,-0.477654 -1.0709742,-1.070974 V 7.5532645 c 0,-0.5933197 0.4776545,-1.0709742 1.0709742,-1.0709742 z" />
      <path
         d="m 16.16671,22.419265 c 0.879998,0 1.49333,-0.373332 2.119995,-1.25333 v 0.359999 c 0,1.599996 -0.373332,2.559993 -1.946662,2.559993 -0.346665,0 -1.506663,-0.04 -1.693329,-1.17333 h -1.13333 c 0.12,1.319997 1.146664,2.106661 2.786659,2.106661 2.653327,0 3.119993,-1.626662 3.119993,-4.053323 V 15.12595 h -1.159997 l 0.133333,1.013331 c -0.559999,-0.826665 -1.239997,-1.21333 -2.133328,-1.21333 -1.773329,0 -2.973326,1.546662 -2.973326,3.813323 0,2.279994 1.29333,3.679991 2.879992,3.679991 z m 0.213333,-6.46665 c 1.199997,0 1.906662,1.01333 1.906662,2.759993 0,1.666662 -0.719998,2.679993 -1.893328,2.679993 -1.213331,0 -1.946662,-1.026664 -1.946662,-2.719993 0,-1.679996 0.746665,-2.719993 1.933328,-2.719993 z m 9.079967,1.319996 v 4.839988 h 1.106664 v -5.279987 c 0,-1.17333 -0.839998,-1.906661 -2.199995,-1.906661 -0.986664,0 -1.586662,0.306665 -2.239994,1.159997 v -3.693324 h -1.106664 v 9.719975 h 1.106664 v -3.853324 c 0,-1.426663 0.746665,-2.359994 1.893329,-2.359994 0.573331,0 1.439996,0.28 1.439996,1.37333 z m 3.906648,-2.146661 h -1.106664 v 6.986649 h 1.106664 z m 0,-2.733326 h -1.119997 v 1.399996 h 1.119997 z"
         id="text15"
         style="font-size:13.3333px;font-family:FreeSans;-inkscape-font-specification:FreeSans;white-space:pre"
         transform="matrix(0.26458333,0,0,0.26458333,-0.058083,4.344405)"
         aria-label="ghi" />
      <path
         style="font-weight:bold;font-size:16px;font-family:FreeSans;-inkscape-font-specification:FreeSans;white-space:pre"
         d="m 21.238719,20.211297 h -1.184 v -6.976 h -2.64 l -4.144,6.944 v 1.888 h 4.544 v 2.512 h 2.24 v -2.512 h 1.184 z m -3.424,0 h -2.96 l 2.96,-4.848 z"
         id="text16"
         transform="matrix(0.26458333,0,0,0.26458333,-2.736375,4.0024741)"
         aria-label="4" />
      <path
         id="rect22"
         style="fill:#ffffff;stroke:#000000;stroke-width:0.264583"
         d="m 26.603264,0.1322915 h 9.257977 c 0.59332,0 1.070975,0.4776545 1.070975,1.0709742 v 2.9035304 c 0,0.5933197 -0.477655,1.0709742 -1.070975,1.0709742 h -9.257977 c -0.59332,0 -1.070974,-0.4776545 -1.070974,-1.0709742 V 1.2032657 c 0,-0.5933197 0.477654,-1.0709742 1.070974,-1.0709742 z" />
      <path
         d="m 19.540035,12.392624 h -1.106664 v 3.613324 c -0.466665,-0.706665 -1.21333,-1.079997 -2.146661,-1.079997 -1.813329,0 -2.999992,1.453329 -2.999992,3.67999 0,2.359994 1.159997,3.813324 3.039992,3.813324 0.959998,0 1.626663,-0.359999 2.226661,-1.226664 v 0.919998 h 0.986664 z m -3.066659,3.573324 c 1.199997,0 1.959995,1.066664 1.959995,2.733326 0,1.61333 -0.773331,2.679994 -1.946661,2.679994 -1.226664,0 -2.039995,-1.079998 -2.039995,-2.70666 0,-1.626663 0.813331,-2.70666 2.026661,-2.70666 z m 10.573307,3.026659 c 0,-2.533327 -0.946664,-4.066656 -3.106659,-4.066656 -1.946661,0 -3.199991,1.493329 -3.199991,3.786657 0,2.293327 1.21333,3.706657 3.173325,3.706657 1.599996,0 2.70666,-0.906664 2.986659,-2.426661 H 25.78002 c -0.306666,0.919998 -0.933331,1.399997 -1.826662,1.399997 -1.29333,0 -2.026662,-0.973331 -2.053328,-2.399994 z m -5.119987,-0.906664 c 0.09333,-1.293331 0.879998,-2.133328 1.999995,-2.133328 1.146664,0 1.933329,0.933331 1.933329,2.133328 z m 8.986657,-2.959993 h -1.159997 v -1.093331 c 0,-0.466665 0.266666,-0.706664 0.773332,-0.706664 0.09333,0 0.133333,0 0.386665,0.01333 V 12.41929 c -0.253332,-0.05333 -0.399999,-0.06667 -0.626665,-0.06667 -1.026664,0 -1.639996,0.586665 -1.639996,1.586662 v 1.186664 h -0.933331 v 0.906664 h 0.933331 v 6.079985 h 1.106664 V 16.03261 h 1.159997 z"
         id="text22"
         style="font-size:13.3333px;font-family:FreeSans;-inkscape-font-specification:FreeSans;white-space:pre"
         transform="matrix(0.26458333,0,0,0.26458333,25.34192,-2.0055956)"
         aria-label="def" />
      <path
         style="font-weight:bold;font-size:16px;font-family:FreeSans;-inkscape-font-specification:FreeSans;white-space:pre"
         d="m 13.494719,16.611297 v 0.192 h 2.08 c 0.032,-1.216 0.288,-2 1.552,-2 0.896,0 1.408,0.544 1.408,1.488 0,1.136 -0.656,1.712 -1.984,1.712 h -0.192 v 1.504 c 0.784,0 0.928,0.016 1.312,0.112 0.752,0.208 1.232,0.864 1.232,1.696 0,0.992 -0.704,1.712 -1.68,1.712 -1.056,0 -1.632,-0.608 -1.696,-1.776 h -2.176 c 0.016,2.272 1.504,3.696 3.824,3.696 2.416,0 3.968,-1.424 3.968,-3.632 0,-1.328 -0.576,-2.192 -1.856,-2.816 1.056,-0.656 1.488,-1.376 1.488,-2.416 0,-1.888 -1.408,-3.088 -3.6,-3.088 -1.456,0 -3.68,0.544 -3.68,3.616 z"
         id="text23"
         transform="matrix(0.26458333,0,0,0.26458333,22.663628,-2.3644575)"
         aria-label="3" />
      <path
         id="rect23"
         style="fill:#ffffff;stroke:#000000;stroke-width:0.264583"
         d="m 13.903264,0.1322915 h 9.257978 c 0.593319,0 1.070974,0.4776545 1.070974,1.0709742 v 2.9035304 c 0,0.5933197 -0.477655,1.0709742 -1.070974,1.0709742 h -9.257978 c -0.59332,0 -1.070974,-0.4776545 -1.070974,-1.0709742 V 1.2032657 c 0,-0.5933197 0.477654,-1.0709742 1.070974,-1.0709742 z" />
      <path
         d="m 13.593384,17.192611 h 1.119997 c 0.09333,-0.853331 0.599998,-1.239996 1.639996,-1.239996 0.999997,0 1.559996,0.373332 1.559996,1.039997 v 0.293333 c 0,0.466665 -0.28,0.666665 -1.159997,0.773331 -2.039995,0.266666 -3.466658,0.426666 -3.466658,2.293327 0,1.266664 0.879998,2.066662 2.293327,2.066662 0.879998,0 1.586663,-0.306666 2.373328,-1.026664 0.08,0.706665 0.426665,1.026664 1.146663,1.026664 0.226666,0 0.399999,-0.02667 0.759998,-0.12 v -0.839998 c -0.119999,0.02667 -0.173332,0.02667 -0.239999,0.02667 -0.386666,0 -0.599998,-0.2 -0.599998,-0.546665 v -4.106657 c 0,-1.239996 -0.906665,-1.906661 -2.62666,-1.906661 -1.253331,0 -2.733327,0.373332 -2.799993,2.26666 z m 2.226661,4.253323 c -0.866665,0 -1.37333,-0.413332 -1.37333,-1.119997 0,-1.53333 2.333327,-1.146664 3.466658,-1.666663 v 1.253331 c 0,0.666665 -0.773332,1.533329 -2.093328,1.533329 z m 5.106644,-9.05331 v 9.719975 h 0.999997 v -0.893331 c 0.533332,0.813331 1.239997,1.199997 2.213328,1.199997 1.839995,0 3.039992,-1.506663 3.039992,-3.826657 0,-2.266661 -1.146663,-3.666657 -2.986659,-3.666657 -0.959997,0 -1.639996,0.359999 -2.159994,1.146663 v -3.67999 z m 3.053325,3.573324 c 1.239997,0 2.039995,1.079997 2.039995,2.74666 0,1.586662 -0.826664,2.66666 -2.039995,2.66666 -1.17333,0 -1.946661,-1.066664 -1.946661,-2.70666 0,-1.639996 0.773331,-2.70666 1.946661,-2.70666 z m 9.866642,1.506663 c -0.133333,-1.666663 -1.159997,-2.54666 -2.759993,-2.54666 -1.879995,0 -3.106658,1.493329 -3.106658,3.813323 0,2.253328 1.199997,3.679991 3.093325,3.679991 1.666663,0 2.719993,-0.999998 2.853326,-2.70666 h -1.119997 c -0.186666,1.119997 -0.759998,1.679996 -1.706662,1.679996 -1.226664,0 -1.959995,-0.999998 -1.959995,-2.653327 0,-1.746662 0.719998,-2.786659 1.933328,-2.786659 0.933331,0 1.519996,0.546665 1.653329,1.519996 z"
         id="text24"
         style="font-size:13.3333px;font-family:FreeSans;-inkscape-font-specification:FreeSans;white-space:pre"
         transform="matrix(0.26458333,0,0,0.26458333,12.641919,-2.0055956)"
         aria-label="abc" />
      <path
         style="font-weight:bold;font-size:16px;font-family:FreeSans;-inkscape-font-specification:FreeSans;white-space:pre"
         d="m 21.126719,16.595297 c 0,-2.192 -1.504,-3.6 -3.888,-3.6 -2.352,0 -3.728,1.392 -3.728,3.792 0,0.096 0,0.224 0.016,0.4 h 2.144 v -0.368 c 0,-1.264 0.592,-2 1.616,-2 0.992,0 1.6,0.688 1.6,1.824 0,1.248 -0.384,1.76 -2.896,3.52 -1.904,1.328 -2.512,2.32 -2.624,4.416 h 7.712 v -2 h -4.8 c 0.96,-2.032 4.848,-2.592 4.848,-5.984 z"
         id="text25"
         transform="matrix(0.26458333,0,0,0.26458333,9.9636268,-2.3710754)"
         aria-label="2" />
      <path
         id="rect25"
         style="fill:#ffffff;stroke:#000000;stroke-width:0.264583"
         d="m 1.2032657,0.1322915 h 9.2579773 c 0.59332,0 1.070975,0.4776545 1.070975,1.0709742 v 2.9035304 c 0,0.5933197 -0.477655,1.0709742 -1.070975,1.0709742 H 1.2032657 c -0.5933197,0 -1.0709742,-0.4776545 -1.0709742,-1.0709742 V 1.2032657 c 0,-0.5933197 0.4776545,-1.0709742 1.0709742,-1.0709742 z" />
      <path
         style="font-weight:bold;font-size:16px;font-family:FreeSans;-inkscape-font-specification:FreeSans;white-space:pre"
         d="m 16.694719,16.755297 v 7.824 h 2.24 v -11.344 h -1.488 c -0.352,1.344 -1.52,2.032 -3.472,2.032 v 1.488 z"
         id="text27"
         transform="matrix(0.26458333,0,0,0.26458333,-2.736375,-2.3475254)"
         aria-label="1" />
      <path
         id="rect33"
         style="fill:#ffffff;stroke:#000000;stroke-width:0.264583"
         d="m 13.903264,19.182291 h 9.257978 c 0.593319,0 1.070974,0.477655 1.070974,1.070974 v 2.903531 c 0,0.593319 -0.477655,1.070974 -1.070974,1.070974 h -9.257978 c -0.59332,0 -1.070974,-0.477655 -1.070974,-1.070974 v -2.903531 c 0,-0.593319 0.477654,-1.070974 1.070974,-1.070974 z" />
      <path
         style="font-weight:bold;font-size:16px;font-family:FreeSans;-inkscape-font-specification:FreeSans;white-space:pre"
         d="m 17.254719,24.947297 c 3.152,0 3.904,-2.72 3.904,-5.904 0,-3.6 -0.848,-6.048 -3.904,-6.048 -3.024,0 -3.904,2.4 -3.904,5.984 0,3.296 0.784,5.968 3.904,5.968 z m 1.664,-5.952 c 0,3.376 -0.656,4.032 -1.664,4.032 -1.04,0 -1.664,-0.688 -1.664,-4.064 0,-3.216 0.512,-4.16 1.664,-4.16 1.024,0 1.664,0.944 1.664,4.192 z"
         id="text34"
         transform="matrix(0.26458333,0,0,0.26458333,9.9636268,16.685542)"
         aria-label="0" />
    </g>
  </g>
</svg>
