<?xml version="1.0" encoding="UTF-8" standalone="no"?>
<!-- Created with Inkscape (http://www.inkscape.org/) -->

<svg
   width="125.77mm"
   height="35.104mm"
   viewBox="0 0 125.77 35.104"
   version="1.1"
   id="svg1"
   inkscape:version="1.4.2 (ebf0e940d0, 2025-05-08)"
   sodipodi:docname="5_1_1_70.svg"
   xmlns:inkscape="http://www.inkscape.org/namespaces/inkscape"
   xmlns:sodipodi="http://sodipodi.sourceforge.net/DTD/sodipodi-0.dtd"
   xmlns="http://www.w3.org/2000/svg"
   xmlns:svg="http://www.w3.org/2000/svg">
  <sodipodi:namedview
     id="namedview1"
     pagecolor="#ffffff"
     bordercolor="#000000"
     borderopacity="0.25"
     inkscape:showpageshadow="2"
     inkscape:pageopacity="0.0"
     inkscape:pagecheckerboard="0"
     inkscape:deskcolor="#d1d1d1"
     inkscape:document-units="mm"
     inkscape:zoom="2.6530203"
     inkscape:cx="213.15329"
     inkscape:cy="66.716414"
     inkscape:window-width="1920"
     inkscape:window-height="1011"
     inkscape:window-x="0"
     inkscape:window-y="0"
     inkscape:window-maximized="1"
     inkscape:current-layer="layer1" />
  <defs
     id="defs1">
    <rect
       x="-6.763073"
       y="-27.052292"
       width="121.45927"
       height="39.888329"
       id="rect2" />
    <rect
       x="13.485725"
       y="-52.819092"
       width="225.2477"
       height="118.63495"
       id="rect1" />
    <rect
       x="37.795277"
       y="37.795277"
       width="483.77954"
       height="718.11023"
       id="rect2721" />
    <rect
       x="37.795277"
       y="37.795277"
       width="483.77954"
       height="718.11023"
       id="rect2722" />
    <rect
       x="37.795277"
       y="37.795277"
       width="483.77954"
       height="718.11023"
       id="rect2723" />
    <rect
       x="37.795277"
       y="37.795277"
       width="483.77954"
       height="718.11023"
       id="rect2724" />
    <rect
       x="37.795277"
       y="37.795277"
       width="483.77954"
       height="718.11023"
       id="rect2725" />
    <rect
       x="37.795277"
       y="37.795277"
       width="483.77954"
       height="718.11023"
       id="rect2726" />
    <rect
       x="37.795277"
       y="37.795277"
       width="483.77954"
       height="718.11023"
       id="rect2727" />
    <rect
       x="37.795277"
       y="37.795277"
       width="483.77954"
       height="718.11023"
       id="rect2728" />
    <rect
       x="37.795277"
       y="37.795277"
       width="483.77954"
       height="718.11023"
       id="rect2729" />
    <rect
       x="37.795277"
       y="37.795277"
       width="483.77954"
       height="718.11023"
       id="rect2730" />
    <rect
       x="37.795277"
       y="37.795277"
       width="483.77954"
       height="718.11023"
       id="rect2731" />
    <rect
       x="37.795277"
       y="37.795277"
       width="483.77954"
       height="718.11023"
       id="rect2732" />
    <rect
       x="37.795277"
       y="37.795277"
       width="483.77954"
       height="718.11023"
       id="rect2733" />
    <rect
       x="37.795277"
       y="37.795277"
       width="483.77954"
       height="718.11023"
       id="rect2734" />
    <rect
       x="37.795277"
       y="37.795277"
       width="483.77954"
       height="718.11023"
       id="rect7736" />
    <rect
       x="-6.763073"
       y="-27.052292"
       width="121.45927"
       height="39.888329"
       id="rect3" />
    <rect
       x="-6.763073"
       y="-27.052292"
       width="121.45927"
       height="39.888329"
       id="rect4" />
    <rect
       x="-6.763073"
       y="-27.052292"
       width="121.45927"
       height="39.888329"
       id="rect7" />
    <rect
       x="-6.763073"
       y="-27.052292"
       width="121.45927"
       height="39.888329"
       id="rect8" />
    <rect
       x="-6.763073"
       y="-27.052292"
       width="121.45927"
       height="39.888329"
       id="rect9" />
    <rect
       x="-6.763073"
       y="-27.052292"
       width="121.45927"
       height="39.888329"
       id="rect11" />
    <rect
       x="-6.763073"
       y="-27.052292"
       width="121.45927"
       height="39.888329"
       id="rect12" />
    <rect
       x="-6.763073"
       y="-27.052292"
       width="121.45927"
       height="39.888329"
       id="rect13" />
    <rect
       x="-6.763073"
       y="-27.052292"
       width="121.45927"
       height="39.888329"
       id="rect15" />
    <rect
       x="-6.763073"
       y="-27.052292"
       width="121.45927"
       height="39.888329"
       id="rect16" />
    <rect
       x="-6.763073"
       y="-27.052292"
       width="121.45927"
       height="39.888329"
       id="rect17" />
    <rect
       x="37.795277"
       y="37.795277"
       width="483.77954"
       height="718.11023"
       id="rect4093" />
    <rect
       x="37.795277"
       y="37.795277"
       width="483.77954"
       height="718.11023"
       id="rect4109" />
    <rect
       x="37.795277"
       y="37.795277"
       width="483.77954"
       height="718.11023"
       id="rect4118" />
    <rect
       x="37.795277"
       y="37.795277"
       width="483.77954"
       height="718.11023"
       id="rect4127" />
    <rect
       x="37.795277"
       y="37.795277"
       width="483.77954"
       height="718.11023"
       id="rect4163" />
    <rect
       x="37.795277"
       y="37.795277"
       width="483.77954"
       height="718.11023"
       id="rect4164" />
    <rect
       x="37.795277"
       y="37.795277"
       width="483.77954"
       height="718.11023"
       id="rect4165" />
    <rect
       x="37.795277"
       y="37.795277"
       width="483.77954"
       height="718.11023"
       id="rect4166" />
    <rect
       x="37.795277"
       y="37.795277"
       width="483.77954"
       height="718.11023"
       id="rect4174" />
    <rect
       x="37.795277"
       y="37.795277"
       width="483.77954"
       height="718.11023"
       id="rect7717" />
    <rect
       x="37.795277"
       y="37.795277"
       width="483.77954"
       height="718.11023"
       id="rect7727" />
    <rect
       x="37.795277"
       y="37.795277"
       width="483.77954"
       height="718.11023"
       id="rect7736-6" />
  </defs>
  <g
     inkscape:label="Katman 1"
     inkscape:groupmode="layer"
     id="layer1">
    <rect
       style="fill:#ffffff;stroke-width:0.264583"
       id="rect22"
       width="27.950977"
       height="8.7807627"
       x="96.501183"
       y="25.323521" />
    <rect
       style="fill:#ffffff;stroke-width:0.264583"
       id="rect23"
       width="27.950977"
       height="8.7807627"
       x="64.751205"
       y="25.323521" />
    <rect
       style="fill:#ffffff;stroke-width:0.264583"
       id="rect24"
       width="27.950977"
       height="8.7807627"
       x="33.001202"
       y="25.323521" />
    <rect
       style="fill:#ffffff;stroke-width:0.264583"
       id="rect25"
       width="27.950977"
       height="8.7807627"
       x="1.2512028"
       y="25.323521" />
    <rect
       style="fill:#ffffff;stroke-width:0.264583"
       id="rect18"
       width="27.950977"
       height="8.7807627"
       x="96.501183"
       y="13.220953" />
    <rect
       style="fill:#ffffff;stroke-width:0.264583"
       id="rect19"
       width="27.950977"
       height="8.7807627"
       x="64.751205"
       y="13.220953" />
    <rect
       style="fill:#ffffff;stroke-width:0.264583"
       id="rect20"
       width="27.950977"
       height="8.7807627"
       x="33.001202"
       y="13.220953" />
    <rect
       style="fill:#ffffff;stroke-width:0.264583"
       id="rect21"
       width="27.950977"
       height="8.7807627"
       x="1.2512028"
       y="13.220953" />
    <rect
       style="fill:#ffffff;stroke-width:0.264583"
       id="rect14"
       width="27.950977"
       height="8.7807627"
       x="96.501183"
       y="1.0501167" />
    <rect
       style="fill:#ffffff;stroke-width:0.264583"
       id="rect10"
       width="27.950977"
       height="8.7807627"
       x="64.751205"
       y="1.0501167" />
    <rect
       style="fill:#ffffff;stroke-width:0.264583"
       id="rect6"
       width="27.950977"
       height="8.7807627"
       x="33.001202"
       y="1.0501167" />
    <rect
       style="fill:#ffffff;stroke-width:0.264583"
       id="rect5"
       width="27.950977"
       height="8.7807627"
       x="1.2512028"
       y="1.0501167" />
    <path
       id="path7728"
       style="fill:#ddafe9;fill-opacity:1;stroke:#000000;stroke-width:0.264999;stroke-opacity:1"
       d="M 0.1324995,0.1324995 V 10.629534 H 30.387433 V 0.1324995 Z m 3.6612,1.578715 H 26.387733 c 0,0 0.2125,1.037308 0.5715,1.399915 0.359,0.362607 1.4284,0.599963 1.4284,0.599963 v 3.3398487 c 0,0 -1.0345,0.21033 -1.3974,0.5689575 -0.3629,0.358627 -0.6025,1.4309203 -0.6025,1.4309203 H 3.7936995 c 0,0 -0.1834,-0.9978943 -0.5379,-1.3647743 -0.3545,-0.3668805 -1.4619,-0.6351035 -1.4619,-0.6351035 V 3.7110925 c 0,0 1.0565,-0.227455 1.4169,-0.588594 0.3604,-0.36114 0.5829,-1.411284 0.5829,-1.411284 z"
       sodipodi:nodetypes="cccccccsccsccsccsc" />
    <path
       style="font-weight:bold;font-size:13.3333px;font-family:FreeSans;-inkscape-font-specification:FreeSans;text-align:center;text-anchor:middle;white-space:pre"
       d="m 7.0992941,-21.239416 v 6.519984 H 8.965956 v -9.45331 H 7.7259591 c -0.2933325,1.119998 -1.2666634,1.693329 -2.893326,1.693329 v 1.239997 z m 7.8799769,6.82665 c 2.62666,0 3.253325,-2.266661 3.253325,-4.919988 0,-2.999992 -0.706665,-5.039987 -3.253325,-5.039987 -2.519994,0 -3.253325,1.999995 -3.253325,4.986654 0,2.74666 0.653332,4.973321 3.253325,4.973321 z m 1.386663,-4.959988 c 0,2.813326 -0.546665,3.359992 -1.386663,3.359992 -0.866664,0 -1.386663,-0.573332 -1.386663,-3.386658 0,-2.679994 0.426665,-3.466658 1.386663,-3.466658 0.853331,0 1.386663,0.786664 1.386663,3.493324 z m 6.026649,4.959988 c 2.62666,0 3.253325,-2.266661 3.253325,-4.919988 0,-2.999992 -0.706665,-5.039987 -3.253325,-5.039987 -2.519994,0 -3.253326,1.999995 -3.253326,4.986654 0,2.74666 0.653332,4.973321 3.253326,4.973321 z m 1.386663,-4.959988 c 0,2.813326 -0.546666,3.359992 -1.386663,3.359992 -0.866665,0 -1.386664,-0.573332 -1.386664,-3.386658 0,-2.679994 0.426666,-3.466658 1.386664,-3.466658 0.853331,0 1.386663,0.786664 1.386663,3.493324 z m 9.733304,4.959988 c 2.62666,0 3.253325,-2.266661 3.253325,-4.919988 0,-2.999992 -0.706665,-5.039987 -3.253325,-5.039987 -2.519994,0 -3.253325,1.999995 -3.253325,4.986654 0,2.74666 0.653332,4.973321 3.253325,4.973321 z m 1.386663,-4.959988 c 0,2.813326 -0.546665,3.359992 -1.386663,3.359992 -0.866665,0 -1.386663,-0.573332 -1.386663,-3.386658 0,-2.679994 0.426665,-3.466658 1.386663,-3.466658 0.853331,0 1.386663,0.786664 1.386663,3.493324 z m 6.026648,4.959988 c 2.62666,0 3.253325,-2.266661 3.253325,-4.919988 0,-2.999992 -0.706665,-5.039987 -3.253325,-5.039987 -2.519994,0 -3.253325,1.999995 -3.253325,4.986654 0,2.74666 0.653332,4.973321 3.253325,4.973321 z m 1.386663,-4.959988 c 0,2.813326 -0.546665,3.359992 -1.386663,3.359992 -0.866664,0 -1.386663,-0.573332 -1.386663,-3.386658 0,-2.679994 0.426665,-3.466658 1.386663,-3.466658 0.853331,0 1.386663,0.786664 1.386663,3.493324 z m 6.026648,4.959988 c 2.62666,0 3.253325,-2.266661 3.253325,-4.919988 0,-2.999992 -0.706665,-5.039987 -3.253325,-5.039987 -2.519994,0 -3.253325,1.999995 -3.253325,4.986654 0,2.74666 0.653332,4.973321 3.253325,4.973321 z m 1.386663,-4.959988 c 0,2.813326 -0.546665,3.359992 -1.386663,3.359992 -0.866664,0 -1.386663,-0.573332 -1.386663,-3.386658 0,-2.679994 0.426665,-3.466658 1.386663,-3.466658 0.853331,0 1.386663,0.786664 1.386663,3.493324 z m 9.733305,4.959988 c 2.62666,0 3.253326,-2.266661 3.253326,-4.919988 0,-2.999992 -0.706665,-5.039987 -3.253326,-5.039987 -2.519993,0 -3.253325,1.999995 -3.253325,4.986654 0,2.74666 0.653332,4.973321 3.253325,4.973321 z m 1.386664,-4.959988 c 0,2.813326 -0.546666,3.359992 -1.386664,3.359992 -0.866664,0 -1.386663,-0.573332 -1.386663,-3.386658 0,-2.679994 0.426666,-3.466658 1.386663,-3.466658 0.853332,0 1.386664,0.786664 1.386664,3.493324 z m 6.026647,4.959988 c 2.62666,0 3.253326,-2.266661 3.253326,-4.919988 0,-2.999992 -0.706665,-5.039987 -3.253326,-5.039987 -2.519993,0 -3.253325,1.999995 -3.253325,4.986654 0,2.74666 0.653332,4.973321 3.253325,4.973321 z m 1.386664,-4.959988 c 0,2.813326 -0.546666,3.359992 -1.386664,3.359992 -0.866664,0 -1.386663,-0.573332 -1.386663,-3.386658 0,-2.679994 0.426666,-3.466658 1.386663,-3.466658 0.853332,0 1.386664,0.786664 1.386664,3.493324 z m 6.026647,4.959988 c 2.62666,0 3.253326,-2.266661 3.253326,-4.919988 0,-2.999992 -0.706665,-5.039987 -3.253326,-5.039987 -2.519993,0 -3.253325,1.999995 -3.253325,4.986654 0,2.74666 0.653332,4.973321 3.253325,4.973321 z m 1.386664,-4.959988 c 0,2.813326 -0.546666,3.359992 -1.386664,3.359992 -0.866664,0 -1.386663,-0.573332 -1.386663,-3.386658 0,-2.679994 0.426666,-3.466658 1.386663,-3.466658 0.853332,0 1.386664,0.786664 1.386664,3.493324 z m 9.733301,4.959988 c 2.62666,0 3.253325,-2.266661 3.253325,-4.919988 0,-2.999992 -0.706665,-5.039987 -3.253325,-5.039987 -2.519994,0 -3.253325,1.999995 -3.253325,4.986654 0,2.74666 0.653332,4.973321 3.253325,4.973321 z m 1.386663,-4.959988 c 0,2.813326 -0.546665,3.359992 -1.386663,3.359992 -0.866664,0 -1.386663,-0.573332 -1.386663,-3.386658 0,-2.679994 0.426665,-3.466658 1.386663,-3.466658 0.853331,0 1.386663,0.786664 1.386663,3.493324 z m 6.026652,4.959988 c 2.62666,0 3.253325,-2.266661 3.253325,-4.919988 0,-2.999992 -0.706665,-5.039987 -3.253325,-5.039987 -2.519994,0 -3.253325,1.999995 -3.253325,4.986654 0,2.74666 0.653331,4.973321 3.253325,4.973321 z m 1.386663,-4.959988 c 0,2.813326 -0.546665,3.359992 -1.386663,3.359992 -0.866665,0 -1.386663,-0.573332 -1.386663,-3.386658 0,-2.679994 0.426665,-3.466658 1.386663,-3.466658 0.853331,0 1.386663,0.786664 1.386663,3.493324 z m 6.026655,4.959988 c 2.62666,0 3.25332,-2.266661 3.25332,-4.919988 0,-2.999992 -0.70666,-5.039987 -3.25332,-5.039987 -2.519997,0 -3.253328,1.999995 -3.253328,4.986654 0,2.74666 0.653331,4.973321 3.253328,4.973321 z m 1.38666,-4.959988 c 0,2.813326 -0.54667,3.359992 -1.38666,3.359992 -0.866668,0 -1.386667,-0.573332 -1.386667,-3.386658 0,-2.679994 0.426666,-3.466658 1.386667,-3.466658 0.85333,0 1.38666,0.786664 1.38666,3.493324 z"
       id="text1"
       transform="matrix(0.26458333,0,0,0.26458333,0.73094574,10.500713)"
       aria-label="100 000 000 000" />
    <path
       id="path2"
       style="fill:#afc6e9;fill-opacity:1;stroke:#000000;stroke-width:0.264999;stroke-opacity:1"
       d="M 31.882501,0.1324995 V 10.629534 H 62.137435 V 0.1324995 Z m 3.6612,1.578715 h 22.594034 c 0,0 0.2125,1.037308 0.5715,1.399915 0.359,0.362607 1.4284,0.599963 1.4284,0.599963 v 3.3398487 c 0,0 -1.0345,0.21033 -1.3974,0.5689575 -0.3629,0.358627 -0.6025,1.4309203 -0.6025,1.4309203 H 35.543701 c 0,0 -0.1834,-0.9978943 -0.5379,-1.3647743 -0.3545,-0.3668805 -1.4619,-0.6351035 -1.4619,-0.6351035 V 3.7110925 c 0,0 1.0565,-0.227455 1.4169,-0.588594 0.3604,-0.36114 0.5829,-1.411284 0.5829,-1.411284 z"
       sodipodi:nodetypes="cccccccsccsccsccsc" />
    <path
       style="font-weight:bold;font-size:13.3333px;font-family:FreeSans;-inkscape-font-specification:FreeSans;text-align:center;text-anchor:middle;white-space:pre"
       d="m 10.80595,-21.239416 v 6.519984 h 1.866662 v -9.45331 h -1.239997 c -0.293333,1.119998 -1.266664,1.693329 -2.8933262,1.693329 v 1.239997 z m 7.879977,6.82665 c 2.62666,0 3.253325,-2.266661 3.253325,-4.919988 0,-2.999992 -0.706665,-5.039987 -3.253325,-5.039987 -2.519994,0 -3.253325,1.999995 -3.253325,4.986654 0,2.74666 0.653331,4.973321 3.253325,4.973321 z m 1.386663,-4.959988 c 0,2.813326 -0.546665,3.359992 -1.386663,3.359992 -0.866665,0 -1.386663,-0.573332 -1.386663,-3.386658 0,-2.679994 0.426665,-3.466658 1.386663,-3.466658 0.853331,0 1.386663,0.786664 1.386663,3.493324 z m 9.733305,4.959988 c 2.62666,0 3.253325,-2.266661 3.253325,-4.919988 0,-2.999992 -0.706665,-5.039987 -3.253325,-5.039987 -2.519994,0 -3.253325,1.999995 -3.253325,4.986654 0,2.74666 0.653331,4.973321 3.253325,4.973321 z m 1.386663,-4.959988 c 0,2.813326 -0.546665,3.359992 -1.386663,3.359992 -0.866665,0 -1.386664,-0.573332 -1.386664,-3.386658 0,-2.679994 0.426666,-3.466658 1.386664,-3.466658 0.853331,0 1.386663,0.786664 1.386663,3.493324 z m 6.026648,4.959988 c 2.62666,0 3.253325,-2.266661 3.253325,-4.919988 0,-2.999992 -0.706665,-5.039987 -3.253325,-5.039987 -2.519994,0 -3.253325,1.999995 -3.253325,4.986654 0,2.74666 0.653331,4.973321 3.253325,4.973321 z m 1.386663,-4.959988 c 0,2.813326 -0.546665,3.359992 -1.386663,3.359992 -0.866665,0 -1.386664,-0.573332 -1.386664,-3.386658 0,-2.679994 0.426666,-3.466658 1.386664,-3.466658 0.853331,0 1.386663,0.786664 1.386663,3.493324 z m 6.026648,4.959988 c 2.62666,0 3.253325,-2.266661 3.253325,-4.919988 0,-2.999992 -0.706665,-5.039987 -3.253325,-5.039987 -2.519994,0 -3.253325,1.999995 -3.253325,4.986654 0,2.74666 0.653331,4.973321 3.253325,4.973321 z m 1.386663,-4.959988 c 0,2.813326 -0.546665,3.359992 -1.386663,3.359992 -0.866665,0 -1.386664,-0.573332 -1.386664,-3.386658 0,-2.679994 0.426666,-3.466658 1.386664,-3.466658 0.853331,0 1.386663,0.786664 1.386663,3.493324 z m 9.733305,4.959988 c 2.62666,0 3.253325,-2.266661 3.253325,-4.919988 0,-2.999992 -0.706665,-5.039987 -3.253325,-5.039987 -2.519994,0 -3.253325,1.999995 -3.253325,4.986654 0,2.74666 0.653332,4.973321 3.253325,4.973321 z m 1.386663,-4.959988 c 0,2.813326 -0.546665,3.359992 -1.386663,3.359992 -0.866664,0 -1.386663,-0.573332 -1.386663,-3.386658 0,-2.679994 0.426665,-3.466658 1.386663,-3.466658 0.853331,0 1.386663,0.786664 1.386663,3.493324 z m 6.026648,4.959988 c 2.62666,0 3.253325,-2.266661 3.253325,-4.919988 0,-2.999992 -0.706665,-5.039987 -3.253325,-5.039987 -2.519994,0 -3.253325,1.999995 -3.253325,4.986654 0,2.74666 0.653332,4.973321 3.253325,4.973321 z m 1.386663,-4.959988 c 0,2.813326 -0.546665,3.359992 -1.386663,3.359992 -0.866664,0 -1.386663,-0.573332 -1.386663,-3.386658 0,-2.679994 0.426665,-3.466658 1.386663,-3.466658 0.853331,0 1.386663,0.786664 1.386663,3.493324 z m 6.026648,4.959988 c 2.62666,0 3.253325,-2.266661 3.253325,-4.919988 0,-2.999992 -0.706665,-5.039987 -3.253325,-5.039987 -2.519994,0 -3.253325,1.999995 -3.253325,4.986654 0,2.74666 0.653332,4.973321 3.253325,4.973321 z m 1.386663,-4.959988 c 0,2.813326 -0.546665,3.359992 -1.386663,3.359992 -0.866664,0 -1.386663,-0.573332 -1.386663,-3.386658 0,-2.679994 0.426665,-3.466658 1.386663,-3.466658 0.853331,0 1.386663,0.786664 1.386663,3.493324 z m 9.733305,4.959988 c 2.626661,0 3.253326,-2.266661 3.253326,-4.919988 0,-2.999992 -0.706665,-5.039987 -3.253326,-5.039987 -2.519993,0 -3.253325,1.999995 -3.253325,4.986654 0,2.74666 0.653332,4.973321 3.253325,4.973321 z m 1.386664,-4.959988 c 0,2.813326 -0.546666,3.359992 -1.386664,3.359992 -0.866664,0 -1.386663,-0.573332 -1.386663,-3.386658 0,-2.679994 0.426666,-3.466658 1.386663,-3.466658 0.853332,0 1.386664,0.786664 1.386664,3.493324 z m 6.026644,4.959988 c 2.62666,0 3.253325,-2.266661 3.253325,-4.919988 0,-2.999992 -0.706665,-5.039987 -3.253325,-5.039987 -2.519994,0 -3.253325,1.999995 -3.253325,4.986654 0,2.74666 0.653331,4.973321 3.253325,4.973321 z m 1.386663,-4.959988 c 0,2.813326 -0.546665,3.359992 -1.386663,3.359992 -0.866665,0 -1.386663,-0.573332 -1.386663,-3.386658 0,-2.679994 0.426665,-3.466658 1.386663,-3.466658 0.853331,0 1.386663,0.786664 1.386663,3.493324 z m 6.026651,4.959988 c 2.626661,0 3.253326,-2.266661 3.253326,-4.919988 0,-2.999992 -0.706665,-5.039987 -3.253326,-5.039987 -2.519993,0 -3.253325,1.999995 -3.253325,4.986654 0,2.74666 0.653332,4.973321 3.253325,4.973321 z m 1.386664,-4.959988 c 0,2.813326 -0.546666,3.359992 -1.386664,3.359992 -0.866664,0 -1.386663,-0.573332 -1.386663,-3.386658 0,-2.679994 0.426666,-3.466658 1.386663,-3.466658 0.853332,0 1.386664,0.786664 1.386664,3.493324 z"
       id="text3"
       transform="matrix(0.26458333,0,0,0.26458333,32.480947,10.500713)"
       aria-label="10 000 000 000" />
    <path
       id="path3"
       style="fill:#dde9af;fill-opacity:1;stroke:#000000;stroke-width:0.264999;stroke-opacity:1"
       d="M 63.632503,0.1324995 V 10.629534 H 93.887437 V 0.1324995 Z m 3.6612,1.578715 h 22.594034 c 0,0 0.2125,1.037308 0.5715,1.399915 0.359,0.362607 1.4284,0.599963 1.4284,0.599963 v 3.3398487 c 0,0 -1.0345,0.21033 -1.3974,0.5689575 -0.3629,0.358627 -0.6025,1.4309203 -0.6025,1.4309203 H 67.293703 c 0,0 -0.1834,-0.9978943 -0.5379,-1.3647743 -0.3545,-0.3668805 -1.4619,-0.6351035 -1.4619,-0.6351035 V 3.7110925 c 0,0 1.0565,-0.227455 1.4169,-0.588594 0.3604,-0.36114 0.5829,-1.411284 0.5829,-1.411284 z"
       sodipodi:nodetypes="cccccccsccsccsccsc" />
    <path
       style="font-weight:bold;font-size:13.3333px;font-family:FreeSans;-inkscape-font-specification:FreeSans;text-align:center;text-anchor:middle;white-space:pre"
       d="m 14.512605,-21.239416 v 6.519984 h 1.866662 v -9.45331 H 15.13927 c -0.293332,1.119998 -1.266663,1.693329 -2.893326,1.693329 v 1.239997 z m 11.586633,6.82665 c 2.62666,0 3.253325,-2.266661 3.253325,-4.919988 0,-2.999992 -0.706664,-5.039987 -3.253325,-5.039987 -2.519993,0 -3.253325,1.999995 -3.253325,4.986654 0,2.74666 0.653332,4.973321 3.253325,4.973321 z m 1.386664,-4.959988 c 0,2.813326 -0.546666,3.359992 -1.386664,3.359992 -0.866664,0 -1.386663,-0.573332 -1.386663,-3.386658 0,-2.679994 0.426666,-3.466658 1.386663,-3.466658 0.853332,0 1.386664,0.786664 1.386664,3.493324 z m 6.026648,4.959988 c 2.62666,0 3.253325,-2.266661 3.253325,-4.919988 0,-2.999992 -0.706664,-5.039987 -3.253325,-5.039987 -2.519993,0 -3.253325,1.999995 -3.253325,4.986654 0,2.74666 0.653332,4.973321 3.253325,4.973321 z m 1.386663,-4.959988 c 0,2.813326 -0.546665,3.359992 -1.386663,3.359992 -0.866664,0 -1.386663,-0.573332 -1.386663,-3.386658 0,-2.679994 0.426666,-3.466658 1.386663,-3.466658 0.853331,0 1.386663,0.786664 1.386663,3.493324 z m 6.026648,4.959988 c 2.62666,0 3.253325,-2.266661 3.253325,-4.919988 0,-2.999992 -0.706664,-5.039987 -3.253325,-5.039987 -2.519993,0 -3.253325,1.999995 -3.253325,4.986654 0,2.74666 0.653332,4.973321 3.253325,4.973321 z m 1.386663,-4.959988 c 0,2.813326 -0.546665,3.359992 -1.386663,3.359992 -0.866664,0 -1.386663,-0.573332 -1.386663,-3.386658 0,-2.679994 0.426666,-3.466658 1.386663,-3.466658 0.853331,0 1.386663,0.786664 1.386663,3.493324 z m 9.733306,4.959988 c 2.62666,0 3.253325,-2.266661 3.253325,-4.919988 0,-2.999992 -0.706665,-5.039987 -3.253325,-5.039987 -2.519994,0 -3.253325,1.999995 -3.253325,4.986654 0,2.74666 0.653331,4.973321 3.253325,4.973321 z m 1.386663,-4.959988 c 0,2.813326 -0.546665,3.359992 -1.386663,3.359992 -0.866665,0 -1.386663,-0.573332 -1.386663,-3.386658 0,-2.679994 0.426665,-3.466658 1.386663,-3.466658 0.853331,0 1.386663,0.786664 1.386663,3.493324 z m 6.026648,4.959988 c 2.62666,0 3.253325,-2.266661 3.253325,-4.919988 0,-2.999992 -0.706665,-5.039987 -3.253325,-5.039987 -2.519994,0 -3.253325,1.999995 -3.253325,4.986654 0,2.74666 0.653331,4.973321 3.253325,4.973321 z m 1.386663,-4.959988 c 0,2.813326 -0.546665,3.359992 -1.386663,3.359992 -0.866665,0 -1.386663,-0.573332 -1.386663,-3.386658 0,-2.679994 0.426665,-3.466658 1.386663,-3.466658 0.853331,0 1.386663,0.786664 1.386663,3.493324 z m 6.026648,4.959988 c 2.62666,0 3.253325,-2.266661 3.253325,-4.919988 0,-2.999992 -0.706665,-5.039987 -3.253325,-5.039987 -2.519994,0 -3.253325,1.999995 -3.253325,4.986654 0,2.74666 0.653331,4.973321 3.253325,4.973321 z m 1.386663,-4.959988 c 0,2.813326 -0.546665,3.359992 -1.386663,3.359992 -0.866665,0 -1.386663,-0.573332 -1.386663,-3.386658 0,-2.679994 0.426665,-3.466658 1.386663,-3.466658 0.853331,0 1.386663,0.786664 1.386663,3.493324 z m 9.733305,4.959988 c 2.62666,0 3.253325,-2.266661 3.253325,-4.919988 0,-2.999992 -0.706665,-5.039987 -3.253325,-5.039987 -2.519993,0 -3.253325,1.999995 -3.253325,4.986654 0,2.74666 0.653332,4.973321 3.253325,4.973321 z m 1.386663,-4.959988 c 0,2.813326 -0.546665,3.359992 -1.386663,3.359992 -0.866664,0 -1.386663,-0.573332 -1.386663,-3.386658 0,-2.679994 0.426666,-3.466658 1.386663,-3.466658 0.853331,0 1.386663,0.786664 1.386663,3.493324 z m 6.026648,4.959988 c 2.62666,0 3.253325,-2.266661 3.253325,-4.919988 0,-2.999992 -0.706665,-5.039987 -3.253325,-5.039987 -2.519993,0 -3.253325,1.999995 -3.253325,4.986654 0,2.74666 0.653332,4.973321 3.253325,4.973321 z m 1.386663,-4.959988 c 0,2.813326 -0.546665,3.359992 -1.386663,3.359992 -0.866664,0 -1.386663,-0.573332 -1.386663,-3.386658 0,-2.679994 0.426666,-3.466658 1.386663,-3.466658 0.853331,0 1.386663,0.786664 1.386663,3.493324 z m 6.026644,4.959988 c 2.62666,0 3.253325,-2.266661 3.253325,-4.919988 0,-2.999992 -0.706664,-5.039987 -3.253325,-5.039987 -2.519993,0 -3.253325,1.999995 -3.253325,4.986654 0,2.74666 0.653332,4.973321 3.253325,4.973321 z m 1.386664,-4.959988 c 0,2.813326 -0.546666,3.359992 -1.386664,3.359992 -0.866664,0 -1.386663,-0.573332 -1.386663,-3.386658 0,-2.679994 0.426666,-3.466658 1.386663,-3.466658 0.853332,0 1.386664,0.786664 1.386664,3.493324 z"
       id="text4"
       transform="matrix(0.26458333,0,0,0.26458333,64.230949,10.500713)"
       aria-label="1 000 000 000" />
    <path
       id="path4"
       style="fill:#ffb380;fill-opacity:1;stroke:#000000;stroke-width:0.264999;stroke-opacity:1"
       d="M 0.1324995,12.303334 V 22.800369 H 30.387433 V 12.303334 Z m 3.6612,1.578715 H 26.387733 c 0,0 0.2125,1.037308 0.5715,1.399915 0.359,0.362607 1.4284,0.599963 1.4284,0.599963 v 3.339849 c 0,0 -1.0345,0.21033 -1.3974,0.568957 -0.3629,0.358627 -0.6025,1.430921 -0.6025,1.430921 H 3.7936995 c 0,0 -0.1834,-0.997895 -0.5379,-1.364775 -0.3545,-0.36688 -1.4619,-0.635103 -1.4619,-0.635103 v -3.339849 c 0,0 1.0565,-0.227455 1.4169,-0.588594 0.3604,-0.36114 0.5829,-1.411284 0.5829,-1.411284 z"
       sodipodi:nodetypes="cccccccsccsccsccsc" />
    <path
       style="font-weight:bold;font-size:13.3333px;font-family:FreeSans;-inkscape-font-specification:FreeSans;text-align:center;text-anchor:middle;white-space:pre"
       d="m 23.779245,-21.239416 v 6.519984 h 1.866662 v -9.45331 H 24.40591 c -0.293333,1.119998 -1.266664,1.693329 -2.893326,1.693329 v 1.239997 z m 7.879977,6.82665 c 2.62666,0 3.253325,-2.266661 3.253325,-4.919988 0,-2.999992 -0.706665,-5.039987 -3.253325,-5.039987 -2.519994,0 -3.253326,1.999995 -3.253326,4.986654 0,2.74666 0.653332,4.973321 3.253326,4.973321 z m 1.386663,-4.959988 c 0,2.813326 -0.546666,3.359992 -1.386663,3.359992 -0.866665,0 -1.386664,-0.573332 -1.386664,-3.386658 0,-2.679994 0.426666,-3.466658 1.386664,-3.466658 0.853331,0 1.386663,0.786664 1.386663,3.493324 z m 9.733304,4.959988 c 2.626661,0 3.253326,-2.266661 3.253326,-4.919988 0,-2.999992 -0.706665,-5.039987 -3.253326,-5.039987 -2.519993,0 -3.253325,1.999995 -3.253325,4.986654 0,2.74666 0.653332,4.973321 3.253325,4.973321 z m 1.386664,-4.959988 c 0,2.813326 -0.546666,3.359992 -1.386664,3.359992 -0.866664,0 -1.386663,-0.573332 -1.386663,-3.386658 0,-2.679994 0.426666,-3.466658 1.386663,-3.466658 0.853332,0 1.386664,0.786664 1.386664,3.493324 z m 6.026647,4.959988 c 2.626661,0 3.253326,-2.266661 3.253326,-4.919988 0,-2.999992 -0.706665,-5.039987 -3.253326,-5.039987 -2.519993,0 -3.253325,1.999995 -3.253325,4.986654 0,2.74666 0.653332,4.973321 3.253325,4.973321 z m 1.386664,-4.959988 c 0,2.813326 -0.546666,3.359992 -1.386664,3.359992 -0.866664,0 -1.386663,-0.573332 -1.386663,-3.386658 0,-2.679994 0.426666,-3.466658 1.386663,-3.466658 0.853332,0 1.386664,0.786664 1.386664,3.493324 z m 6.026647,4.959988 c 2.626661,0 3.253326,-2.266661 3.253326,-4.919988 0,-2.999992 -0.706665,-5.039987 -3.253326,-5.039987 -2.519993,0 -3.253325,1.999995 -3.253325,4.986654 0,2.74666 0.653332,4.973321 3.253325,4.973321 z m 1.386664,-4.959988 c 0,2.813326 -0.546666,3.359992 -1.386664,3.359992 -0.866664,0 -1.386663,-0.573332 -1.386663,-3.386658 0,-2.679994 0.426666,-3.466658 1.386663,-3.466658 0.853332,0 1.386664,0.786664 1.386664,3.493324 z m 9.733305,4.959988 c 2.62666,0 3.253325,-2.266661 3.253325,-4.919988 0,-2.999992 -0.706665,-5.039987 -3.253325,-5.039987 -2.519994,0 -3.253325,1.999995 -3.253325,4.986654 0,2.74666 0.653331,4.973321 3.253325,4.973321 z m 1.386663,-4.959988 c 0,2.813326 -0.546665,3.359992 -1.386663,3.359992 -0.866665,0 -1.386663,-0.573332 -1.386663,-3.386658 0,-2.679994 0.426665,-3.466658 1.386663,-3.466658 0.853331,0 1.386663,0.786664 1.386663,3.493324 z m 6.026648,4.959988 c 2.62666,0 3.253325,-2.266661 3.253325,-4.919988 0,-2.999992 -0.706665,-5.039987 -3.253325,-5.039987 -2.519994,0 -3.253325,1.999995 -3.253325,4.986654 0,2.74666 0.653331,4.973321 3.253325,4.973321 z m 1.386663,-4.959988 c 0,2.813326 -0.546665,3.359992 -1.386663,3.359992 -0.866665,0 -1.386663,-0.573332 -1.386663,-3.386658 0,-2.679994 0.426665,-3.466658 1.386663,-3.466658 0.853331,0 1.386663,0.786664 1.386663,3.493324 z m 6.026648,4.959988 c 2.62666,0 3.253325,-2.266661 3.253325,-4.919988 0,-2.999992 -0.706665,-5.039987 -3.253325,-5.039987 -2.519994,0 -3.253325,1.999995 -3.253325,4.986654 0,2.74666 0.653331,4.973321 3.253325,4.973321 z m 1.386663,-4.959988 c 0,2.813326 -0.546665,3.359992 -1.386663,3.359992 -0.866665,0 -1.386663,-0.573332 -1.386663,-3.386658 0,-2.679994 0.426665,-3.466658 1.386663,-3.466658 0.853331,0 1.386663,0.786664 1.386663,3.493324 z"
       id="text5"
       transform="matrix(0.26458333,0,0,0.26458333,0.73094574,22.671548)"
       aria-label="10 000 000" />
    <path
       id="path5"
       style="fill:#ffe680;fill-opacity:1;stroke:#000000;stroke-width:0.264999;stroke-opacity:1"
       d="M 31.882501,12.303334 V 22.800369 H 62.137435 V 12.303334 Z m 3.6612,1.578715 h 22.594034 c 0,0 0.2125,1.037308 0.5715,1.399915 0.359,0.362607 1.4284,0.599963 1.4284,0.599963 v 3.339849 c 0,0 -1.0345,0.21033 -1.3974,0.568957 -0.3629,0.358627 -0.6025,1.430921 -0.6025,1.430921 H 35.543701 c 0,0 -0.1834,-0.997895 -0.5379,-1.364775 -0.3545,-0.36688 -1.4619,-0.635103 -1.4619,-0.635103 v -3.339849 c 0,0 1.0565,-0.227455 1.4169,-0.588594 0.3604,-0.36114 0.5829,-1.411284 0.5829,-1.411284 z"
       sodipodi:nodetypes="cccccccsccsccsccsc" />
    <path
       style="font-weight:bold;font-size:13.3333px;font-family:FreeSans;-inkscape-font-specification:FreeSans;text-align:center;text-anchor:middle;white-space:pre"
       d="m 27.4859,-21.239416 v 6.519984 h 1.866662 v -9.45331 h -1.239997 c -0.293332,1.119998 -1.266663,1.693329 -2.893326,1.693329 v 1.239997 z m 11.586633,6.82665 c 2.62666,0 3.253325,-2.266661 3.253325,-4.919988 0,-2.999992 -0.706665,-5.039987 -3.253325,-5.039987 -2.519993,0 -3.253325,1.999995 -3.253325,4.986654 0,2.74666 0.653332,4.973321 3.253325,4.973321 z m 1.386663,-4.959988 c 0,2.813326 -0.546665,3.359992 -1.386663,3.359992 -0.866664,0 -1.386663,-0.573332 -1.386663,-3.386658 0,-2.679994 0.426666,-3.466658 1.386663,-3.466658 0.853331,0 1.386663,0.786664 1.386663,3.493324 z m 6.026649,4.959988 c 2.62666,0 3.253325,-2.266661 3.253325,-4.919988 0,-2.999992 -0.706665,-5.039987 -3.253325,-5.039987 -2.519993,0 -3.253325,1.999995 -3.253325,4.986654 0,2.74666 0.653332,4.973321 3.253325,4.973321 z m 1.386663,-4.959988 c 0,2.813326 -0.546665,3.359992 -1.386663,3.359992 -0.866664,0 -1.386663,-0.573332 -1.386663,-3.386658 0,-2.679994 0.426666,-3.466658 1.386663,-3.466658 0.853331,0 1.386663,0.786664 1.386663,3.493324 z m 6.026648,4.959988 c 2.62666,0 3.253325,-2.266661 3.253325,-4.919988 0,-2.999992 -0.706665,-5.039987 -3.253325,-5.039987 -2.519993,0 -3.253325,1.999995 -3.253325,4.986654 0,2.74666 0.653332,4.973321 3.253325,4.973321 z m 1.386663,-4.959988 c 0,2.813326 -0.546665,3.359992 -1.386663,3.359992 -0.866664,0 -1.386663,-0.573332 -1.386663,-3.386658 0,-2.679994 0.426666,-3.466658 1.386663,-3.466658 0.853331,0 1.386663,0.786664 1.386663,3.493324 z m 9.733306,4.959988 c 2.62666,0 3.253325,-2.266661 3.253325,-4.919988 0,-2.999992 -0.706665,-5.039987 -3.253325,-5.039987 -2.519994,0 -3.253326,1.999995 -3.253326,4.986654 0,2.74666 0.653332,4.973321 3.253326,4.973321 z m 1.386663,-4.959988 c 0,2.813326 -0.546666,3.359992 -1.386663,3.359992 -0.866665,0 -1.386664,-0.573332 -1.386664,-3.386658 0,-2.679994 0.426666,-3.466658 1.386664,-3.466658 0.853331,0 1.386663,0.786664 1.386663,3.493324 z m 6.026648,4.959988 c 2.62666,0 3.253325,-2.266661 3.253325,-4.919988 0,-2.999992 -0.706665,-5.039987 -3.253325,-5.039987 -2.519994,0 -3.253326,1.999995 -3.253326,4.986654 0,2.74666 0.653332,4.973321 3.253326,4.973321 z m 1.386663,-4.959988 c 0,2.813326 -0.546666,3.359992 -1.386663,3.359992 -0.866665,0 -1.386664,-0.573332 -1.386664,-3.386658 0,-2.679994 0.426666,-3.466658 1.386664,-3.466658 0.853331,0 1.386663,0.786664 1.386663,3.493324 z m 6.026648,4.959988 c 2.62666,0 3.253325,-2.266661 3.253325,-4.919988 0,-2.999992 -0.706665,-5.039987 -3.253325,-5.039987 -2.519994,0 -3.253326,1.999995 -3.253326,4.986654 0,2.74666 0.653332,4.973321 3.253326,4.973321 z m 1.386663,-4.959988 c 0,2.813326 -0.546666,3.359992 -1.386663,3.359992 -0.866665,0 -1.386664,-0.573332 -1.386664,-3.386658 0,-2.679994 0.426666,-3.466658 1.386664,-3.466658 0.853331,0 1.386663,0.786664 1.386663,3.493324 z"
       id="text6"
       transform="matrix(0.26458333,0,0,0.26458333,32.480947,22.671548)"
       aria-label="1 000 000" />
    <path
       id="path6"
       style="fill:#aade87;fill-opacity:1;stroke:#000000;stroke-width:0.264999;stroke-opacity:1"
       d="M 63.632503,12.303334 V 22.800369 H 93.887437 V 12.303334 Z m 3.6612,1.578715 h 22.594034 c 0,0 0.2125,1.037308 0.5715,1.399915 0.359,0.362607 1.4284,0.599963 1.4284,0.599963 v 3.339849 c 0,0 -1.0345,0.21033 -1.3974,0.568957 -0.3629,0.358627 -0.6025,1.430921 -0.6025,1.430921 H 67.293703 c 0,0 -0.1834,-0.997895 -0.5379,-1.364775 -0.3545,-0.36688 -1.4619,-0.635103 -1.4619,-0.635103 v -3.339849 c 0,0 1.0565,-0.227455 1.4169,-0.588594 0.3604,-0.36114 0.5829,-1.411284 0.5829,-1.411284 z"
       sodipodi:nodetypes="cccccccsccsccsccsc" />
    <path
       style="font-weight:bold;font-size:13.3333px;font-family:FreeSans;-inkscape-font-specification:FreeSans;text-align:center;text-anchor:middle;white-space:pre"
       d="m 33.045884,-21.239416 v 6.519984 h 1.866662 v -9.45331 h -1.239997 c -0.293333,1.119998 -1.266664,1.693329 -2.893326,1.693329 v 1.239997 z m 7.879977,6.82665 c 2.62666,0 3.253325,-2.266661 3.253325,-4.919988 0,-2.999992 -0.706665,-5.039987 -3.253325,-5.039987 -2.519994,0 -3.253325,1.999995 -3.253325,4.986654 0,2.74666 0.653331,4.973321 3.253325,4.973321 z m 1.386663,-4.959988 c 0,2.813326 -0.546665,3.359992 -1.386663,3.359992 -0.866665,0 -1.386663,-0.573332 -1.386663,-3.386658 0,-2.679994 0.426665,-3.466658 1.386663,-3.466658 0.853331,0 1.386663,0.786664 1.386663,3.493324 z m 6.026648,4.959988 c 2.62666,0 3.253325,-2.266661 3.253325,-4.919988 0,-2.999992 -0.706665,-5.039987 -3.253325,-5.039987 -2.519993,0 -3.253325,1.999995 -3.253325,4.986654 0,2.74666 0.653332,4.973321 3.253325,4.973321 z m 1.386663,-4.959988 c 0,2.813326 -0.546665,3.359992 -1.386663,3.359992 -0.866664,0 -1.386663,-0.573332 -1.386663,-3.386658 0,-2.679994 0.426666,-3.466658 1.386663,-3.466658 0.853331,0 1.386663,0.786664 1.386663,3.493324 z m 9.733305,4.959988 c 2.62666,0 3.253325,-2.266661 3.253325,-4.919988 0,-2.999992 -0.706665,-5.039987 -3.253325,-5.039987 -2.519994,0 -3.253325,1.999995 -3.253325,4.986654 0,2.74666 0.653331,4.973321 3.253325,4.973321 z m 1.386663,-4.959988 c 0,2.813326 -0.546665,3.359992 -1.386663,3.359992 -0.866665,0 -1.386663,-0.573332 -1.386663,-3.386658 0,-2.679994 0.426665,-3.466658 1.386663,-3.466658 0.853331,0 1.386663,0.786664 1.386663,3.493324 z m 6.026648,4.959988 c 2.62666,0 3.253325,-2.266661 3.253325,-4.919988 0,-2.999992 -0.706665,-5.039987 -3.253325,-5.039987 -2.519994,0 -3.253325,1.999995 -3.253325,4.986654 0,2.74666 0.653331,4.973321 3.253325,4.973321 z m 1.386663,-4.959988 c 0,2.813326 -0.546665,3.359992 -1.386663,3.359992 -0.866665,0 -1.386663,-0.573332 -1.386663,-3.386658 0,-2.679994 0.426665,-3.466658 1.386663,-3.466658 0.853331,0 1.386663,0.786664 1.386663,3.493324 z m 6.026648,4.959988 c 2.62666,0 3.253325,-2.266661 3.253325,-4.919988 0,-2.999992 -0.706665,-5.039987 -3.253325,-5.039987 -2.519994,0 -3.253325,1.999995 -3.253325,4.986654 0,2.74666 0.653331,4.973321 3.253325,4.973321 z m 1.386663,-4.959988 c 0,2.813326 -0.546665,3.359992 -1.386663,3.359992 -0.866665,0 -1.386663,-0.573332 -1.386663,-3.386658 0,-2.679994 0.426665,-3.466658 1.386663,-3.466658 0.853331,0 1.386663,0.786664 1.386663,3.493324 z"
       id="text7"
       transform="matrix(0.26458333,0,0,0.26458333,64.230949,22.671548)"
       aria-label="100 000" />
    <path
       id="path9"
       style="fill:#87cdde;fill-opacity:1;stroke:#000000;stroke-width:0.264999;stroke-opacity:1"
       d="M 0.1324995,24.474169 V 34.971204 H 30.387433 V 24.474169 Z m 3.6612,1.578715 H 26.387733 c 0,0 0.2125,1.037308 0.5715,1.399915 0.359,0.362607 1.4284,0.599963 1.4284,0.599963 v 3.339849 c 0,0 -1.0345,0.21033 -1.3974,0.568957 -0.3629,0.358627 -0.6025,1.430921 -0.6025,1.430921 H 3.7936995 c 0,0 -0.1834,-0.997895 -0.5379,-1.364775 -0.3545,-0.36688 -1.4619,-0.635103 -1.4619,-0.635103 v -3.339849 c 0,0 1.0565,-0.227455 1.4169,-0.588594 0.3604,-0.36114 0.5829,-1.411284 0.5829,-1.411284 z"
       sodipodi:nodetypes="cccccccsccsccsccsc" />
    <path
       style="font-weight:bold;font-size:13.3333px;font-family:FreeSans;-inkscape-font-specification:FreeSans;text-align:center;text-anchor:middle;white-space:pre"
       d="m 40.459195,-21.239416 v 6.519984 h 1.866662 v -9.45331 H 41.08586 c -0.293332,1.119998 -1.266663,1.693329 -2.893326,1.693329 v 1.239997 z m 11.586633,6.82665 c 2.62666,0 3.253325,-2.266661 3.253325,-4.919988 0,-2.999992 -0.706665,-5.039987 -3.253325,-5.039987 -2.519994,0 -3.253325,1.999995 -3.253325,4.986654 0,2.74666 0.653332,4.973321 3.253325,4.973321 z m 1.386663,-4.959988 c 0,2.813326 -0.546665,3.359992 -1.386663,3.359992 -0.866664,0 -1.386663,-0.573332 -1.386663,-3.386658 0,-2.679994 0.426665,-3.466658 1.386663,-3.466658 0.853331,0 1.386663,0.786664 1.386663,3.493324 z m 6.026649,4.959988 c 2.62666,0 3.253325,-2.266661 3.253325,-4.919988 0,-2.999992 -0.706665,-5.039987 -3.253325,-5.039987 -2.519994,0 -3.253325,1.999995 -3.253325,4.986654 0,2.74666 0.653332,4.973321 3.253325,4.973321 z m 1.386663,-4.959988 c 0,2.813326 -0.546665,3.359992 -1.386663,3.359992 -0.866664,0 -1.386663,-0.573332 -1.386663,-3.386658 0,-2.679994 0.426665,-3.466658 1.386663,-3.466658 0.853331,0 1.386663,0.786664 1.386663,3.493324 z m 6.026648,4.959988 c 2.62666,0 3.253325,-2.266661 3.253325,-4.919988 0,-2.999992 -0.706665,-5.039987 -3.253325,-5.039987 -2.519994,0 -3.253325,1.999995 -3.253325,4.986654 0,2.74666 0.653332,4.973321 3.253325,4.973321 z m 1.386663,-4.959988 c 0,2.813326 -0.546665,3.359992 -1.386663,3.359992 -0.866664,0 -1.386663,-0.573332 -1.386663,-3.386658 0,-2.679994 0.426665,-3.466658 1.386663,-3.466658 0.853331,0 1.386663,0.786664 1.386663,3.493324 z"
       id="text9"
       transform="matrix(0.26458333,0,0,0.26458333,0.73094574,34.842383)"
       aria-label="1 000" />
    <path
       id="path10"
       style="fill:#8787de;fill-opacity:1;stroke:#000000;stroke-width:0.264999;stroke-opacity:1"
       d="M 31.882501,24.474169 V 34.971204 H 62.137435 V 24.474169 Z m 3.6612,1.578715 h 22.594034 c 0,0 0.2125,1.037308 0.5715,1.399915 0.359,0.362607 1.4284,0.599963 1.4284,0.599963 v 3.339849 c 0,0 -1.0345,0.21033 -1.3974,0.568957 -0.3629,0.358627 -0.6025,1.430921 -0.6025,1.430921 H 35.543701 c 0,0 -0.1834,-0.997895 -0.5379,-1.364775 -0.3545,-0.36688 -1.4619,-0.635103 -1.4619,-0.635103 v -3.339849 c 0,0 1.0565,-0.227455 1.4169,-0.588594 0.3604,-0.36114 0.5829,-1.411284 0.5829,-1.411284 z"
       sodipodi:nodetypes="cccccccsccsccsccsc" />
    <path
       style="font-weight:bold;font-size:13.3333px;font-family:FreeSans;-inkscape-font-specification:FreeSans;text-align:center;text-anchor:middle;white-space:pre"
       d="m 46.019179,-21.239416 v 6.519984 h 1.866662 v -9.45331 h -1.239997 c -0.293333,1.119998 -1.266664,1.693329 -2.893326,1.693329 v 1.239997 z m 7.879977,6.82665 c 2.62666,0 3.253325,-2.266661 3.253325,-4.919988 0,-2.999992 -0.706665,-5.039987 -3.253325,-5.039987 -2.519994,0 -3.253326,1.999995 -3.253326,4.986654 0,2.74666 0.653332,4.973321 3.253326,4.973321 z m 1.386663,-4.959988 c 0,2.813326 -0.546666,3.359992 -1.386663,3.359992 -0.866665,0 -1.386664,-0.573332 -1.386664,-3.386658 0,-2.679994 0.426666,-3.466658 1.386664,-3.466658 0.853331,0 1.386663,0.786664 1.386663,3.493324 z m 6.026648,4.959988 c 2.62666,0 3.253325,-2.266661 3.253325,-4.919988 0,-2.999992 -0.706665,-5.039987 -3.253325,-5.039987 -2.519994,0 -3.253325,1.999995 -3.253325,4.986654 0,2.74666 0.653332,4.973321 3.253325,4.973321 z m 1.386663,-4.959988 c 0,2.813326 -0.546665,3.359992 -1.386663,3.359992 -0.866664,0 -1.386663,-0.573332 -1.386663,-3.386658 0,-2.679994 0.426665,-3.466658 1.386663,-3.466658 0.853331,0 1.386663,0.786664 1.386663,3.493324 z"
       id="text10"
       transform="matrix(0.26458333,0,0,0.26458333,32.480947,34.842383)"
       aria-label="100" />
    <path
       id="path11"
       style="fill:#cd87de;fill-opacity:1;stroke:#000000;stroke-width:0.264999;stroke-opacity:1"
       d="M 63.632503,24.474169 V 34.971204 H 93.887437 V 24.474169 Z m 3.6612,1.578715 h 22.594034 c 0,0 0.2125,1.037308 0.5715,1.399915 0.359,0.362607 1.4284,0.599963 1.4284,0.599963 v 3.339849 c 0,0 -1.0345,0.21033 -1.3974,0.568957 -0.3629,0.358627 -0.6025,1.430921 -0.6025,1.430921 H 67.293703 c 0,0 -0.1834,-0.997895 -0.5379,-1.364775 -0.3545,-0.36688 -1.4619,-0.635103 -1.4619,-0.635103 v -3.339849 c 0,0 1.0565,-0.227455 1.4169,-0.588594 0.3604,-0.36114 0.5829,-1.411284 0.5829,-1.411284 z"
       sodipodi:nodetypes="cccccccsccsccsccsc" />
    <path
       style="font-weight:bold;font-size:13.3333px;font-family:FreeSans;-inkscape-font-specification:FreeSans;text-align:center;text-anchor:middle;white-space:pre"
       d="m 49.725834,-21.239416 v 6.519984 h 1.866662 v -9.45331 h -1.239997 c -0.293332,1.119998 -1.266663,1.693329 -2.893326,1.693329 v 1.239997 z m 7.879977,6.82665 c 2.62666,0 3.253325,-2.266661 3.253325,-4.919988 0,-2.999992 -0.706665,-5.039987 -3.253325,-5.039987 -2.519993,0 -3.253325,1.999995 -3.253325,4.986654 0,2.74666 0.653332,4.973321 3.253325,4.973321 z m 1.386663,-4.959988 c 0,2.813326 -0.546665,3.359992 -1.386663,3.359992 -0.866664,0 -1.386663,-0.573332 -1.386663,-3.386658 0,-2.679994 0.426666,-3.466658 1.386663,-3.466658 0.853331,0 1.386663,0.786664 1.386663,3.493324 z"
       id="text11"
       transform="matrix(0.26458333,0,0,0.26458333,64.230949,34.842383)"
       aria-label="10" />
    <path
       id="path13"
       style="fill:#ff8080;fill-opacity:1;stroke:#000000;stroke-width:0.264999;stroke-opacity:1"
       d="M 95.382505,0.1324995 V 10.629534 H 125.63745 V 0.1324995 Z m 3.6612,1.578715 h 22.594045 c 0,0 0.2125,1.037308 0.5715,1.399915 0.359,0.362607 1.4284,0.599963 1.4284,0.599963 v 3.3398487 c 0,0 -1.0345,0.21033 -1.3974,0.5689575 -0.3629,0.358627 -0.6025,1.4309203 -0.6025,1.4309203 H 99.043705 c 0,0 -0.1834,-0.9978943 -0.5379,-1.3647743 -0.3545,-0.3668805 -1.4619,-0.6351035 -1.4619,-0.6351035 V 3.7110925 c 0,0 1.0565,-0.227455 1.4169,-0.588594 0.3604,-0.36114 0.5829,-1.411284 0.5829,-1.411284 z"
       sodipodi:nodetypes="cccccccsccsccsccsc" />
    <path
       style="font-weight:bold;font-size:13.3333px;font-family:FreeSans;-inkscape-font-specification:FreeSans;text-align:center;text-anchor:middle;white-space:pre"
       d="m 20.072589,-21.239416 v 6.519984 h 1.866662 v -9.45331 h -1.239997 c -0.293333,1.119998 -1.266663,1.693329 -2.893326,1.693329 v 1.239997 z m 7.879977,6.82665 c 2.62666,0 3.253325,-2.266661 3.253325,-4.919988 0,-2.999992 -0.706665,-5.039987 -3.253325,-5.039987 -2.519994,0 -3.253325,1.999995 -3.253325,4.986654 0,2.74666 0.653331,4.973321 3.253325,4.973321 z m 1.386663,-4.959988 c 0,2.813326 -0.546665,3.359992 -1.386663,3.359992 -0.866665,0 -1.386663,-0.573332 -1.386663,-3.386658 0,-2.679994 0.426665,-3.466658 1.386663,-3.466658 0.853331,0 1.386663,0.786664 1.386663,3.493324 z m 6.026648,4.959988 c 2.62666,0 3.253325,-2.266661 3.253325,-4.919988 0,-2.999992 -0.706664,-5.039987 -3.253325,-5.039987 -2.519993,0 -3.253325,1.999995 -3.253325,4.986654 0,2.74666 0.653332,4.973321 3.253325,4.973321 z m 1.386664,-4.959988 c 0,2.813326 -0.546666,3.359992 -1.386664,3.359992 -0.866664,0 -1.386663,-0.573332 -1.386663,-3.386658 0,-2.679994 0.426666,-3.466658 1.386663,-3.466658 0.853332,0 1.386664,0.786664 1.386664,3.493324 z m 9.733304,4.959988 c 2.62666,0 3.253325,-2.266661 3.253325,-4.919988 0,-2.999992 -0.706665,-5.039987 -3.253325,-5.039987 -2.519994,0 -3.253325,1.999995 -3.253325,4.986654 0,2.74666 0.653331,4.973321 3.253325,4.973321 z m 1.386663,-4.959988 c 0,2.813326 -0.546665,3.359992 -1.386663,3.359992 -0.866665,0 -1.386663,-0.573332 -1.386663,-3.386658 0,-2.679994 0.426665,-3.466658 1.386663,-3.466658 0.853331,0 1.386663,0.786664 1.386663,3.493324 z m 6.026648,4.959988 c 2.62666,0 3.253325,-2.266661 3.253325,-4.919988 0,-2.999992 -0.706665,-5.039987 -3.253325,-5.039987 -2.519994,0 -3.253325,1.999995 -3.253325,4.986654 0,2.74666 0.653331,4.973321 3.253325,4.973321 z m 1.386663,-4.959988 c 0,2.813326 -0.546665,3.359992 -1.386663,3.359992 -0.866665,0 -1.386663,-0.573332 -1.386663,-3.386658 0,-2.679994 0.426665,-3.466658 1.386663,-3.466658 0.853331,0 1.386663,0.786664 1.386663,3.493324 z m 6.026648,4.959988 c 2.62666,0 3.253325,-2.266661 3.253325,-4.919988 0,-2.999992 -0.706665,-5.039987 -3.253325,-5.039987 -2.519994,0 -3.253325,1.999995 -3.253325,4.986654 0,2.74666 0.653331,4.973321 3.253325,4.973321 z m 1.386663,-4.959988 c 0,2.813326 -0.546665,3.359992 -1.386663,3.359992 -0.866665,0 -1.386663,-0.573332 -1.386663,-3.386658 0,-2.679994 0.426665,-3.466658 1.386663,-3.466658 0.853331,0 1.386663,0.786664 1.386663,3.493324 z m 9.733305,4.959988 c 2.62666,0 3.253325,-2.266661 3.253325,-4.919988 0,-2.999992 -0.706665,-5.039987 -3.253325,-5.039987 -2.519993,0 -3.253325,1.999995 -3.253325,4.986654 0,2.74666 0.653332,4.973321 3.253325,4.973321 z m 1.386663,-4.959988 c 0,2.813326 -0.546665,3.359992 -1.386663,3.359992 -0.866664,0 -1.386663,-0.573332 -1.386663,-3.386658 0,-2.679994 0.426666,-3.466658 1.386663,-3.466658 0.853331,0 1.386663,0.786664 1.386663,3.493324 z m 6.026648,4.959988 c 2.62666,0 3.253325,-2.266661 3.253325,-4.919988 0,-2.999992 -0.706665,-5.039987 -3.253325,-5.039987 -2.519993,0 -3.253325,1.999995 -3.253325,4.986654 0,2.74666 0.653332,4.973321 3.253325,4.973321 z m 1.386663,-4.959988 c 0,2.813326 -0.546665,3.359992 -1.386663,3.359992 -0.866664,0 -1.386663,-0.573332 -1.386663,-3.386658 0,-2.679994 0.426666,-3.466658 1.386663,-3.466658 0.853331,0 1.386663,0.786664 1.386663,3.493324 z m 6.026648,4.959988 c 2.62666,0 3.253325,-2.266661 3.253325,-4.919988 0,-2.999992 -0.706665,-5.039987 -3.253325,-5.039987 -2.519993,0 -3.253325,1.999995 -3.253325,4.986654 0,2.74666 0.653332,4.973321 3.253325,4.973321 z m 1.386663,-4.959988 c 0,2.813326 -0.546665,3.359992 -1.386663,3.359992 -0.866664,0 -1.386663,-0.573332 -1.386663,-3.386658 0,-2.679994 0.426666,-3.466658 1.386663,-3.466658 0.853331,0 1.386663,0.786664 1.386663,3.493324 z"
       id="text13"
       transform="matrix(0.26458333,0,0,0.26458333,95.980951,10.500713)"
       aria-label="100 000 000" />
    <path
       id="path14"
       style="fill:#87decd;fill-opacity:1;stroke:#000000;stroke-width:0.264999;stroke-opacity:1"
       d="M 95.382505,12.303334 V 22.800369 H 125.63745 V 12.303334 Z m 3.6612,1.578715 h 22.594045 c 0,0 0.2125,1.037308 0.5715,1.399915 0.359,0.362607 1.4284,0.599963 1.4284,0.599963 v 3.339849 c 0,0 -1.0345,0.21033 -1.3974,0.568957 -0.3629,0.358627 -0.6025,1.430921 -0.6025,1.430921 H 99.043705 c 0,0 -0.1834,-0.997895 -0.5379,-1.364775 -0.3545,-0.36688 -1.4619,-0.635103 -1.4619,-0.635103 v -3.339849 c 0,0 1.0565,-0.227455 1.4169,-0.588594 0.3604,-0.36114 0.5829,-1.411284 0.5829,-1.411284 z"
       sodipodi:nodetypes="cccccccsccsccsccsc" />
    <path
       style="font-weight:bold;font-size:13.3333px;font-family:FreeSans;-inkscape-font-specification:FreeSans;text-align:center;text-anchor:middle;white-space:pre"
       d="m 36.752539,-21.239416 v 6.519984 h 1.866662 v -9.45331 h -1.239996 c -0.293333,1.119998 -1.266664,1.693329 -2.893327,1.693329 v 1.239997 z m 7.879977,6.82665 c 2.62666,0 3.253326,-2.266661 3.253326,-4.919988 0,-2.999992 -0.706665,-5.039987 -3.253326,-5.039987 -2.519993,0 -3.253325,1.999995 -3.253325,4.986654 0,2.74666 0.653332,4.973321 3.253325,4.973321 z m 1.386664,-4.959988 c 0,2.813326 -0.546666,3.359992 -1.386664,3.359992 -0.866664,0 -1.386663,-0.573332 -1.386663,-3.386658 0,-2.679994 0.426666,-3.466658 1.386663,-3.466658 0.853332,0 1.386664,0.786664 1.386664,3.493324 z m 9.733304,4.959988 c 2.62666,0 3.253325,-2.266661 3.253325,-4.919988 0,-2.999992 -0.706664,-5.039987 -3.253325,-5.039987 -2.519993,0 -3.253325,1.999995 -3.253325,4.986654 0,2.74666 0.653332,4.973321 3.253325,4.973321 z m 1.386664,-4.959988 c 0,2.813326 -0.546666,3.359992 -1.386664,3.359992 -0.866664,0 -1.386663,-0.573332 -1.386663,-3.386658 0,-2.679994 0.426666,-3.466658 1.386663,-3.466658 0.853332,0 1.386664,0.786664 1.386664,3.493324 z m 6.026647,4.959988 c 2.62666,0 3.253325,-2.266661 3.253325,-4.919988 0,-2.999992 -0.706664,-5.039987 -3.253325,-5.039987 -2.519993,0 -3.253325,1.999995 -3.253325,4.986654 0,2.74666 0.653332,4.973321 3.253325,4.973321 z m 1.386664,-4.959988 c 0,2.813326 -0.546666,3.359992 -1.386664,3.359992 -0.866664,0 -1.386663,-0.573332 -1.386663,-3.386658 0,-2.679994 0.426666,-3.466658 1.386663,-3.466658 0.853332,0 1.386664,0.786664 1.386664,3.493324 z m 6.026647,4.959988 c 2.62666,0 3.253325,-2.266661 3.253325,-4.919988 0,-2.999992 -0.706664,-5.039987 -3.253325,-5.039987 -2.519993,0 -3.253325,1.999995 -3.253325,4.986654 0,2.74666 0.653332,4.973321 3.253325,4.973321 z m 1.386664,-4.959988 c 0,2.813326 -0.546666,3.359992 -1.386664,3.359992 -0.866664,0 -1.386663,-0.573332 -1.386663,-3.386658 0,-2.679994 0.426666,-3.466658 1.386663,-3.466658 0.853332,0 1.386664,0.786664 1.386664,3.493324 z"
       id="text14"
       transform="matrix(0.26458333,0,0,0.26458333,95.980951,22.671548)"
       aria-label="10 000" />
    <path
       id="path15"
       style="fill:#ff80b2;fill-opacity:1;stroke:#000000;stroke-width:0.264999;stroke-opacity:1"
       d="M 95.382505,24.474169 V 34.971204 H 125.63745 V 24.474169 Z m 3.6612,1.578715 h 22.594045 c 0,0 0.2125,1.037308 0.5715,1.399915 0.359,0.362607 1.4284,0.599963 1.4284,0.599963 v 3.339849 c 0,0 -1.0345,0.21033 -1.3974,0.568957 -0.3629,0.358627 -0.6025,1.430921 -0.6025,1.430921 H 99.043705 c 0,0 -0.1834,-0.997895 -0.5379,-1.364775 -0.3545,-0.36688 -1.4619,-0.635103 -1.4619,-0.635103 v -3.339849 c 0,0 1.0565,-0.227455 1.4169,-0.588594 0.3604,-0.36114 0.5829,-1.411284 0.5829,-1.411284 z"
       sodipodi:nodetypes="cccccccsccsccsccsc" />
    <path
       style="font-weight:bold;font-size:13.3333px;font-family:FreeSans;-inkscape-font-specification:FreeSans;text-align:center;text-anchor:middle;white-space:pre"
       d="m 53.43249,-21.239416 v 6.519984 h 1.866662 v -9.45331 h -1.239997 c -0.293333,1.119998 -1.266663,1.693329 -2.893326,1.693329 v 1.239997 z"
       id="text15"
       transform="matrix(0.26458333,0,0,0.26458333,95.980951,34.842383)"
       aria-label="1" />
  </g>
</svg>
