<?xml version="1.0" encoding="UTF-8" standalone="no"?>
<!-- Created with Inkscape (http://www.inkscape.org/) -->

<svg
   width="40.182999mm"
   height="7.145mm"
   viewBox="0 0 40.182999 7.145"
   version="1.1"
   id="svg1"
   inkscape:version="1.4.2 (ebf0e940d0, 2025-05-08)"
   sodipodi:docname="5_1_1_31.svg"
   xmlns:inkscape="http://www.inkscape.org/namespaces/inkscape"
   xmlns:sodipodi="http://sodipodi.sourceforge.net/DTD/sodipodi-0.dtd"
   xmlns="http://www.w3.org/2000/svg"
   xmlns:svg="http://www.w3.org/2000/svg">
  <sodipodi:namedview
     id="namedview1"
     pagecolor="#ffffff"
     bordercolor="#000000"
     borderopacity="0.25"
     inkscape:showpageshadow="2"
     inkscape:pageopacity="0.0"
     inkscape:pagecheckerboard="0"
     inkscape:deskcolor="#d1d1d1"
     inkscape:document-units="mm"
     inkscape:zoom="5.6733241"
     inkscape:cx="103.37855"
     inkscape:cy="-6.5217497"
     inkscape:window-width="1920"
     inkscape:window-height="1014"
     inkscape:window-x="0"
     inkscape:window-y="0"
     inkscape:window-maximized="1"
     inkscape:current-layer="layer1" />
  <defs
     id="defs1">
    <rect
       x="13.485725"
       y="-52.819092"
       width="225.2477"
       height="118.63495"
       id="rect1" />
    <rect
       x="37.795277"
       y="37.795277"
       width="483.77954"
       height="718.11023"
       id="rect2721" />
    <rect
       x="37.795277"
       y="37.795277"
       width="483.77954"
       height="718.11023"
       id="rect2722" />
    <rect
       x="37.795277"
       y="37.795277"
       width="483.77954"
       height="718.11023"
       id="rect2723" />
    <rect
       x="37.795277"
       y="37.795277"
       width="483.77954"
       height="718.11023"
       id="rect2724" />
    <rect
       x="37.795277"
       y="37.795277"
       width="483.77954"
       height="718.11023"
       id="rect2725" />
    <rect
       x="37.795277"
       y="37.795277"
       width="483.77954"
       height="718.11023"
       id="rect2726" />
    <rect
       x="37.795277"
       y="37.795277"
       width="483.77954"
       height="718.11023"
       id="rect2727" />
    <rect
       x="37.795277"
       y="37.795277"
       width="483.77954"
       height="718.11023"
       id="rect2728" />
    <rect
       x="37.795277"
       y="37.795277"
       width="483.77954"
       height="718.11023"
       id="rect2729" />
    <rect
       x="37.795277"
       y="37.795277"
       width="483.77954"
       height="718.11023"
       id="rect2730" />
    <rect
       x="37.795277"
       y="37.795277"
       width="483.77954"
       height="718.11023"
       id="rect2731" />
    <rect
       x="37.795277"
       y="37.795277"
       width="483.77954"
       height="718.11023"
       id="rect2732" />
    <rect
       x="37.795277"
       y="37.795277"
       width="483.77954"
       height="718.11023"
       id="rect2733" />
    <rect
       x="37.795277"
       y="37.795277"
       width="483.77954"
       height="718.11023"
       id="rect2734" />
  </defs>
  <g
     inkscape:label="Katman 1"
     inkscape:groupmode="layer"
     id="layer1">
    <g
       id="g1805"
       transform="matrix(0.58796269,0,0,0.58796269,-46.882377,-16.891799)">
      <path
         style="fill:#800066;fill-opacity:0.5;stroke:none;stroke-width:0.264583px;stroke-linecap:butt;stroke-linejoin:miter;stroke-opacity:1"
         d="m 80.075441,40.521913 3.091323,-0.10029 -1.529226,-2.145506 z"
         id="path1803" />
      <path
         style="fill:#800066;fill-opacity:0.5;stroke:none;stroke-width:0.264583px;stroke-linecap:butt;stroke-linejoin:miter;stroke-opacity:1"
         d="m 81.492851,31.923183 1.334011,-0.949182 -0.552485,-0.935736 0.26279,-1.051952 -1.651495,0.347877 -0.944033,1.121222 z"
         id="path1804" />
      <path
         style="fill:#800066;stroke-width:0.32002"
         d="m 79.737063,40.641482 c 0.006,-0.132003 0.211171,-0.600032 0.4554,-1.040059 0.385817,-0.695128 0.37782,-0.873508 -0.06096,-1.360089 -0.281529,-0.312221 -0.349796,-0.560042 -0.154263,-0.560042 0.192896,0 0.439736,0.144017 0.548509,0.32002 0.556094,0.899784 0.800056,0.02488 0.800056,-2.868929 0,-2.824167 -0.07076,-3.226804 -0.618371,-3.519898 -0.340097,-0.182011 -0.71701,-0.641749 -0.837588,-1.021638 -0.401782,-1.265894 2.025926,-2.411308 3.343091,-1.577289 0.36304,0.229865 0.324274,0.359713 -0.206358,0.691098 -0.650993,0.406546 -0.651053,0.409944 -0.01802,0.92255 0.626766,0.507518 0.624141,0.520489 -0.19367,0.958167 -0.805727,0.431215 -0.829035,0.532151 -0.829035,3.589822 0,2.854677 0.245788,3.722921 0.800056,2.826117 0.108736,-0.176003 0.355612,-0.32002 0.548508,-0.32002 0.195532,0 0.127268,0.247821 -0.154262,0.560042 -0.438757,0.486581 -0.446752,0.664961 -0.06095,1.360089 0.244228,0.440027 0.449158,0.908056 0.455399,1.040059 0.006,0.132012 -0.852718,0.240022 -1.908794,0.240022 -1.056064,0 -1.915024,-0.10801 -1.908783,-0.240022 z m 2.548829,-0.880054 c -0.219118,-0.264014 -0.535046,-0.480035 -0.702082,-0.480035 -0.167036,0 -0.519711,0.216021 -0.783728,0.480035 -0.426698,0.426703 -0.348684,0.480036 0.702084,0.480036 1.014492,0 1.125624,-0.06815 0.783726,-0.480036 z m -0.125935,-9.439897 c -0.03725,-1.049966 -0.393871,-1.193259 -1.307271,-0.525354 -0.518902,0.379415 -0.537056,0.501325 -0.141177,0.947879 0.771704,0.87049 1.486971,0.661841 1.448448,-0.422525 z"
         id="path1805"
         sodipodi:nodetypes="ssssssssssssssssscssssssssssss" />
    </g>
    <g
       id="g1808"
       transform="matrix(0.58796269,0,0,0.58796269,-43.707489,-16.891799)">
      <path
         style="fill:#800066;fill-opacity:0.5;stroke:none;stroke-width:0.264583px;stroke-linecap:butt;stroke-linejoin:miter;stroke-opacity:1"
         d="m 80.075441,40.521913 3.091323,-0.10029 -1.529226,-2.145506 z"
         id="path1806" />
      <path
         style="fill:#800066;fill-opacity:0.5;stroke:none;stroke-width:0.264583px;stroke-linecap:butt;stroke-linejoin:miter;stroke-opacity:1"
         d="m 81.492851,31.923183 1.334011,-0.949182 -0.552485,-0.935736 0.26279,-1.051952 -1.651495,0.347877 -0.944033,1.121222 z"
         id="path1807" />
      <path
         style="fill:#800066;stroke-width:0.32002"
         d="m 79.737063,40.641482 c 0.006,-0.132003 0.211171,-0.600032 0.4554,-1.040059 0.385817,-0.695128 0.37782,-0.873508 -0.06096,-1.360089 -0.281529,-0.312221 -0.349796,-0.560042 -0.154263,-0.560042 0.192896,0 0.439736,0.144017 0.548509,0.32002 0.556094,0.899784 0.800056,0.02488 0.800056,-2.868929 0,-2.824167 -0.07076,-3.226804 -0.618371,-3.519898 -0.340097,-0.182011 -0.71701,-0.641749 -0.837588,-1.021638 -0.401782,-1.265894 2.025926,-2.411308 3.343091,-1.577289 0.36304,0.229865 0.324274,0.359713 -0.206358,0.691098 -0.650993,0.406546 -0.651053,0.409944 -0.01802,0.92255 0.626766,0.507518 0.624141,0.520489 -0.19367,0.958167 -0.805727,0.431215 -0.829035,0.532151 -0.829035,3.589822 0,2.854677 0.245788,3.722921 0.800056,2.826117 0.108736,-0.176003 0.355612,-0.32002 0.548508,-0.32002 0.195532,0 0.127268,0.247821 -0.154262,0.560042 -0.438757,0.486581 -0.446752,0.664961 -0.06095,1.360089 0.244228,0.440027 0.449158,0.908056 0.455399,1.040059 0.006,0.132012 -0.852718,0.240022 -1.908794,0.240022 -1.056064,0 -1.915024,-0.10801 -1.908783,-0.240022 z m 2.548829,-0.880054 c -0.219118,-0.264014 -0.535046,-0.480035 -0.702082,-0.480035 -0.167036,0 -0.519711,0.216021 -0.783728,0.480035 -0.426698,0.426703 -0.348684,0.480036 0.702084,0.480036 1.014492,0 1.125624,-0.06815 0.783726,-0.480036 z m -0.125935,-9.439897 c -0.03725,-1.049966 -0.393871,-1.193259 -1.307271,-0.525354 -0.518902,0.379415 -0.537056,0.501325 -0.141177,0.947879 0.771704,0.87049 1.486971,0.661841 1.448448,-0.422525 z"
         id="path1808"
         sodipodi:nodetypes="ssssssssssssssssscssssssssssss" />
    </g>
    <g
       id="g1811"
       transform="matrix(0.58796269,0,0,0.58796269,-40.532601,-16.891799)">
      <path
         style="fill:#800066;fill-opacity:0.5;stroke:none;stroke-width:0.264583px;stroke-linecap:butt;stroke-linejoin:miter;stroke-opacity:1"
         d="m 80.075441,40.521913 3.091323,-0.10029 -1.529226,-2.145506 z"
         id="path1809" />
      <path
         style="fill:#800066;fill-opacity:0.5;stroke:none;stroke-width:0.264583px;stroke-linecap:butt;stroke-linejoin:miter;stroke-opacity:1"
         d="m 81.492851,31.923183 1.334011,-0.949182 -0.552485,-0.935736 0.26279,-1.051952 -1.651495,0.347877 -0.944033,1.121222 z"
         id="path1810" />
      <path
         style="fill:#800066;stroke-width:0.32002"
         d="m 79.737063,40.641482 c 0.006,-0.132003 0.211171,-0.600032 0.4554,-1.040059 0.385817,-0.695128 0.37782,-0.873508 -0.06096,-1.360089 -0.281529,-0.312221 -0.349796,-0.560042 -0.154263,-0.560042 0.192896,0 0.439736,0.144017 0.548509,0.32002 0.556094,0.899784 0.800056,0.02488 0.800056,-2.868929 0,-2.824167 -0.07076,-3.226804 -0.618371,-3.519898 -0.340097,-0.182011 -0.71701,-0.641749 -0.837588,-1.021638 -0.401782,-1.265894 2.025926,-2.411308 3.343091,-1.577289 0.36304,0.229865 0.324274,0.359713 -0.206358,0.691098 -0.650993,0.406546 -0.651053,0.409944 -0.01802,0.92255 0.626766,0.507518 0.624141,0.520489 -0.19367,0.958167 -0.805727,0.431215 -0.829035,0.532151 -0.829035,3.589822 0,2.854677 0.245788,3.722921 0.800056,2.826117 0.108736,-0.176003 0.355612,-0.32002 0.548508,-0.32002 0.195532,0 0.127268,0.247821 -0.154262,0.560042 -0.438757,0.486581 -0.446752,0.664961 -0.06095,1.360089 0.244228,0.440027 0.449158,0.908056 0.455399,1.040059 0.006,0.132012 -0.852718,0.240022 -1.908794,0.240022 -1.056064,0 -1.915024,-0.10801 -1.908783,-0.240022 z m 2.548829,-0.880054 c -0.219118,-0.264014 -0.535046,-0.480035 -0.702082,-0.480035 -0.167036,0 -0.519711,0.216021 -0.783728,0.480035 -0.426698,0.426703 -0.348684,0.480036 0.702084,0.480036 1.014492,0 1.125624,-0.06815 0.783726,-0.480036 z m -0.125935,-9.439897 c -0.03725,-1.049966 -0.393871,-1.193259 -1.307271,-0.525354 -0.518902,0.379415 -0.537056,0.501325 -0.141177,0.947879 0.771704,0.87049 1.486971,0.661841 1.448448,-0.422525 z"
         id="path1811"
         sodipodi:nodetypes="ssssssssssssssssscssssssssssss" />
    </g>
    <path
       style="fill:#442178;stroke-width:0.258108"
       d="M 11.278879,6.5167109 C 11.110085,6.1973021 10.641301,5.5320155 10.237215,5.0383029 9.3936449,4.0077091 9.2927484,2.9794452 9.9745245,2.3624399 10.978789,1.4536619 12.191247,2.0656003 12.037752,3.4038003 c -0.067,0.5795196 -0.212893,0.7254045 -0.728374,0.7254045 -0.493583,0 -0.665377,-0.1516746 -0.730175,-0.6452773 -0.083,-0.6284279 -0.075,-0.6317878 0.305289,-0.1290455 0.455084,0.6021989 1.065663,0.2378917 0.792873,-0.4730533 -0.29079,-0.7578504 -1.658642,-0.3538876 -1.658642,0.4898427 0,0.1653742 0.464384,0.9842255 1.031964,1.8196561 0.56748,0.8354306 1.032063,1.6060736 1.032363,1.7125398 0,0.4125455 -0.512382,0.1652342 -0.804171,-0.3871564 z"
       id="path1812"
       sodipodi:nodetypes="ssssssssssss" />
    <path
       style="fill:#442178;stroke-width:0.258108"
       d="M 14.982948,6.5167109 C 14.814154,6.1973021 14.345371,5.5320155 13.941285,5.0383029 13.097715,4.0077091 12.996818,2.9794452 13.678594,2.3624399 c 1.004265,-0.908778 2.216722,-0.2968396 2.063228,1.0413604 -0.067,0.5795196 -0.212893,0.7254045 -0.728375,0.7254045 -0.493582,0 -0.665376,-0.1516746 -0.730174,-0.6452773 -0.083,-0.6284279 -0.075,-0.6317878 0.305289,-0.1290455 0.455084,0.6021989 1.065663,0.2378917 0.792872,-0.4730533 -0.290789,-0.7578504 -1.658641,-0.3538876 -1.658641,0.4898427 0,0.1653742 0.464383,0.9842255 1.031963,1.8196561 0.567481,0.8354306 1.032064,1.6060736 1.032364,1.7125398 0,0.4125455 -0.512382,0.1652342 -0.804172,-0.3871564 z"
       id="path1813"
       sodipodi:nodetypes="ssssssssssss" />
    <path
       style="fill:#442178;stroke-width:0.258108"
       d="M 18.686918,6.5167109 C 18.518024,6.1973021 18.049241,5.5320155 17.645155,5.0383029 16.801685,4.0077091 16.700788,2.9794452 17.382464,2.3624399 c 1.004265,-0.908778 2.216722,-0.2968396 2.063228,1.0413604 -0.067,0.5795196 -0.212893,0.7254045 -0.728275,0.7254045 -0.493682,0 -0.665476,-0.1516746 -0.730274,-0.6452773 -0.083,-0.6284279 -0.075,-0.6317878 0.305289,-0.1290455 0.455184,0.6021989 1.065663,0.2378917 0.792972,-0.4730533 -0.29079,-0.7578504 -1.658741,-0.3538876 -1.658741,0.4898427 0,0.1653742 0.464383,0.9842255 1.031963,1.8196561 0.56758,0.8354306 1.032064,1.6060736 1.032364,1.7125398 0,0.4125455 -0.512282,0.1652342 -0.804072,-0.3871564 z"
       id="path1814"
       sodipodi:nodetypes="ssssssssssss" />
    <path
       style="fill:#442178;stroke-width:0.258108"
       d="M 22.390888,6.5167109 C 22.221994,6.1973021 21.753211,5.5320155 21.349125,5.0383029 20.505654,4.0077091 20.404758,2.9794452 21.086434,2.3624399 c 1.004265,-0.908778 2.216722,-0.2968396 2.063227,1.0413604 -0.067,0.5795196 -0.212892,0.7254045 -0.728274,0.7254045 -0.493683,0 -0.665477,-0.1516746 -0.730274,-0.6452773 -0.083,-0.6284279 -0.075,-0.6317878 0.305289,-0.1290455 0.455184,0.6021989 1.065663,0.2378917 0.792972,-0.4730533 -0.29079,-0.7578504 -1.658742,-0.3538876 -1.658742,0.4898427 0,0.1653742 0.464384,0.9842255 1.031964,1.8196561 0.56758,0.8354306 1.032064,1.6060736 1.032364,1.7125398 0,0.4125455 -0.512282,0.1652342 -0.804072,-0.3871564 z"
       id="path1815"
       sodipodi:nodetypes="ssssssssssss" />
    <path
       style="fill:#442178;stroke-width:0.258108"
       d="M 26.094858,6.5167109 C 25.925964,6.1973021 25.45718,5.5320155 25.053095,5.0383029 24.209624,4.0077091 24.108728,2.9794452 24.790404,2.3624399 c 1.004264,-0.908778 2.216722,-0.2968396 2.063227,1.0413604 -0.067,0.5795196 -0.212892,0.7254045 -0.728274,0.7254045 -0.493683,0 -0.665477,-0.1516746 -0.730274,-0.6452773 -0.083,-0.6284279 -0.075,-0.6317878 0.305289,-0.1290455 0.455184,0.6021989 1.065662,0.2378917 0.792972,-0.4730533 -0.29079,-0.7578504 -1.658742,-0.3538876 -1.658742,0.4898427 0,0.1653742 0.464384,0.9842255 1.031964,1.8196561 0.56758,0.8354306 1.032064,1.6060736 1.032364,1.7125398 0,0.4125455 -0.512282,0.1652342 -0.804072,-0.3871564 z"
       id="path1816"
       sodipodi:nodetypes="ssssssssssss" />
    <path
       style="fill:#442178;stroke-width:0.258108"
       d="M 29.798828,6.5167109 C 29.629934,6.1973021 29.16115,5.5320155 28.757064,5.0383029 c -0.84347,-1.0305938 -0.944366,-2.0588577 -0.26269,-2.675863 1.004264,-0.908778 2.216722,-0.2968396 2.063227,1.0413604 -0.067,0.5795196 -0.212892,0.7254045 -0.728274,0.7254045 -0.493683,0 -0.665477,-0.1516746 -0.730275,-0.6452773 -0.083,-0.6284279 -0.075,-0.6317878 0.30529,-0.1290455 0.455184,0.6021989 1.065662,0.2378917 0.792972,-0.4730533 -0.29079,-0.7578504 -1.658742,-0.3538876 -1.658742,0.4898427 0,0.1653742 0.464384,0.9842255 1.031964,1.8196561 0.56758,0.8354306 1.032064,1.6060736 1.032364,1.7125398 0,0.4125455 -0.512282,0.1652342 -0.804072,-0.3871564 z"
       id="path1817"
       sodipodi:nodetypes="ssssssssssss" />
    <path
       style="fill:#442178;stroke-width:0.258108"
       d="M 33.502798,6.5167109 C 33.333904,6.1973021 32.86512,5.5320155 32.461034,5.0383029 31.617564,4.0077091 31.516667,2.9794452 32.198343,2.3624399 c 1.004265,-0.908778 2.216723,-0.2968396 2.063228,1.0413604 -0.067,0.5795196 -0.212893,0.7254045 -0.728274,0.7254045 -0.493683,0 -0.665477,-0.1516746 -0.730275,-0.6452773 -0.083,-0.6284279 -0.075,-0.6317878 0.305289,-0.1290455 0.455184,0.6021989 1.065663,0.2378917 0.792973,-0.4730533 -0.29079,-0.7578504 -1.658742,-0.3538876 -1.658742,0.4898427 0,0.1653742 0.464384,0.9842255 1.031964,1.8196561 0.56758,0.8354306 1.032063,1.6060736 1.032363,1.7125398 0,0.4125455 -0.512282,0.1652342 -0.804071,-0.3871564 z"
       id="path1818"
       sodipodi:nodetypes="ssssssssssss" />
    <path
       style="fill:#217821;stroke-width:0.258108"
       d="m 36.490493,5.037396 c 0,-1.2045077 0.107596,-2.0648675 0.258091,-2.0648675 0.150594,0 0.25809,0.8603598 0.25809,2.0648675 0,1.2045076 -0.107496,2.0648674 -0.25809,2.0648674 -0.150495,0 -0.258091,-0.8603598 -0.258091,-2.0648674 z"
       id="path1819"
       sodipodi:nodetypes="sssss" />
    <path
       style="fill:#217821;stroke-width:0.258108"
       d="m 35.43213,5.037396 c 0,-1.2045077 0.107596,-2.0648675 0.258091,-2.0648675 0.150594,0 0.258091,0.8603598 0.258091,2.0648675 0,1.2045076 -0.107497,2.0648674 -0.258091,2.0648674 -0.150495,0 -0.258091,-0.8603598 -0.258091,-2.0648674 z"
       id="path1820"
       sodipodi:nodetypes="sssss" />
    <path
       style="fill:#217821;stroke-width:0.258108"
       d="m 37.548855,5.037396 c 0,-1.2045077 0.107597,-2.0648675 0.258091,-2.0648675 0.150595,0 0.258091,0.8603598 0.258091,2.0648675 0,1.2045076 -0.107496,2.0648674 -0.258091,2.0648674 -0.150494,0 -0.258091,-0.8603598 -0.258091,-2.0648674 z"
       id="path1821"
       sodipodi:nodetypes="sssss" />
    <path
       style="fill:#217821;stroke-width:0.258108"
       d="m 38.607218,5.037396 c 0,-1.2045077 0.107596,-2.0648675 0.258091,-2.0648675 0.150595,0 0.258091,0.8603598 0.258091,2.0648675 0,1.2045076 -0.107496,2.0648674 -0.258091,2.0648674 -0.150495,0 -0.258091,-0.8603598 -0.258091,-2.0648674 z"
       id="path1822"
       sodipodi:nodetypes="sssss" />
    <path
       style="fill:#217821;stroke-width:0.258108"
       d="m 39.665581,5.037396 c 0,-1.2045077 0.107596,-2.0648675 0.258091,-2.0648675 0.150595,0 0.258091,0.8603598 0.258091,2.0648675 0,1.2045076 -0.107496,2.0648674 -0.258091,2.0648674 -0.150495,0 -0.258091,-0.8603598 -0.258091,-2.0648674 z"
       id="path1823"
       sodipodi:nodetypes="sssss" />
  </g>
</svg>
