<?xml version="1.0" encoding="UTF-8" standalone="no"?>
<!-- Created with Inkscape (http://www.inkscape.org/) -->

<svg
   width="6mm"
   height="6mm"
   viewBox="0 0 6 6"
   version="1.1"
   id="svg1"
   inkscape:version="1.4.2 (ebf0e940d0, 2025-05-08)"
   sodipodi:docname="5_1_1_13.svg"
   xmlns:inkscape="http://www.inkscape.org/namespaces/inkscape"
   xmlns:sodipodi="http://sodipodi.sourceforge.net/DTD/sodipodi-0.dtd"
   xmlns="http://www.w3.org/2000/svg"
   xmlns:svg="http://www.w3.org/2000/svg">
  <sodipodi:namedview
     id="namedview1"
     pagecolor="#ffffff"
     bordercolor="#000000"
     borderopacity="0.25"
     inkscape:showpageshadow="2"
     inkscape:pageopacity="0.0"
     inkscape:pagecheckerboard="0"
     inkscape:deskcolor="#d1d1d1"
     inkscape:document-units="mm"
     inkscape:zoom="13.504598"
     inkscape:cx="39.356966"
     inkscape:cy="9.7003999"
     inkscape:window-width="1920"
     inkscape:window-height="1014"
     inkscape:window-x="0"
     inkscape:window-y="0"
     inkscape:window-maximized="1"
     inkscape:current-layer="layer1" />
  <defs
     id="defs1">
    <rect
       x="13.485725"
       y="-52.819092"
       width="225.2477"
       height="118.63495"
       id="rect1" />
    <rect
       x="37.795277"
       y="37.795277"
       width="483.77954"
       height="718.11023"
       id="rect2721" />
    <rect
       x="37.795277"
       y="37.795277"
       width="483.77954"
       height="718.11023"
       id="rect2722" />
    <rect
       x="37.795277"
       y="37.795277"
       width="483.77954"
       height="718.11023"
       id="rect2723" />
    <rect
       x="37.795277"
       y="37.795277"
       width="483.77954"
       height="718.11023"
       id="rect2724" />
    <rect
       x="37.795277"
       y="37.795277"
       width="483.77954"
       height="718.11023"
       id="rect2725" />
    <rect
       x="37.795277"
       y="37.795277"
       width="483.77954"
       height="718.11023"
       id="rect2726" />
    <rect
       x="37.795277"
       y="37.795277"
       width="483.77954"
       height="718.11023"
       id="rect2727" />
    <rect
       x="37.795277"
       y="37.795277"
       width="483.77954"
       height="718.11023"
       id="rect2728" />
    <rect
       x="37.795277"
       y="37.795277"
       width="483.77954"
       height="718.11023"
       id="rect2729" />
    <rect
       x="37.795277"
       y="37.795277"
       width="483.77954"
       height="718.11023"
       id="rect2730" />
    <rect
       x="37.795277"
       y="37.795277"
       width="483.77954"
       height="718.11023"
       id="rect2731" />
    <rect
       x="37.795277"
       y="37.795277"
       width="483.77954"
       height="718.11023"
       id="rect2732" />
    <rect
       x="37.795277"
       y="37.795277"
       width="483.77954"
       height="718.11023"
       id="rect2733" />
    <rect
       x="37.795277"
       y="37.795277"
       width="483.77954"
       height="718.11023"
       id="rect2734" />
  </defs>
  <g
     inkscape:label="Katman 1"
     inkscape:groupmode="layer"
     id="layer1">
    <g
       id="g11"
       transform="matrix(0.74999483,0,0,0.74999483,-719.28888,-17.696479)">
      <path
         style="fill:#ffccaa;fill-opacity:1;stroke:none;stroke-width:0.264999;stroke-dasharray:none"
         d="m 962.99979,31.507205 0.8065,-0.07459 0.66892,-0.23285 0.80421,-0.384823 0.68318,-0.639336 0.58576,-0.748083 0.30797,-0.797854 0.10335,-0.807847 -0.0461,-0.976016 -0.27651,-0.846078 -0.40775,-0.725851 -0.74621,-0.778655 -1.0233,-0.573859 -1.10466,-0.258721 -1.00981,0.08488 -1.31218,0.456094 -0.85076,0.700432 -0.64085,0.917182 -0.38949,0.865738 -0.0266,0.967031 0.11699,1.009507 0.29044,0.710417 0.2573,0.428556 0.61643,0.652278 0.58473,0.472003 0.69062,0.347607 0.89807,0.195191 z"
         id="path3991" />
      <path
         style="fill:#deaa87;fill-opacity:1;stroke:none;stroke-width:0.264999;stroke-dasharray:none"
         d="m 960.85688,24.348742 3.13804,0.23918 1.68298,0.11056 -0.70646,-0.49019 -0.84116,-0.364106 -0.77513,-0.181544 -1.08225,0.110059 -1.06492,0.328382 z"
         id="path3992" />
      <path
         style="fill:#deaa87;fill-opacity:1;stroke:none;stroke-width:0.264999;stroke-dasharray:none"
         d="m 959.22374,26.527627 0.52877,-1.00832 0.51906,-0.02125 0.53689,0.130461 1.45367,0.06168 1.58721,-0.09438 1.40359,0.178792 1.22666,-0.05521 0.43397,1.126409 -1.66142,-0.0097 -1.6042,-0.137565 -2.00498,0.07441 -0.94949,-0.0781 -1.30707,-0.09248 z"
         id="path3993" />
      <path
         style="fill:#deaa87;fill-opacity:1;stroke:none;stroke-width:0.264999;stroke-dasharray:none"
         d="m 966.95968,27.821821 -1.11218,0.145804 -1.54231,-0.07637 -2.14355,0.127847 -1.61289,-0.08838 -0.32372,-0.255595 0.18589,-0.154139 1.48879,-0.150339 0.91376,-0.06125 1.03775,-0.110213 1.38578,0.09039 1.67656,-0.09429 z"
         id="path3994" />
      <path
         style="fill:#deaa87;fill-opacity:1;stroke:none;stroke-width:0.264999;stroke-dasharray:none"
         d="m 961.33665,31.100564 2.26089,-0.255384 1.81165,-0.197715 0.72658,-0.620617 -0.41355,-0.182745 0.22797,-0.520952 0.52768,-0.302699 0.22447,0.0081 0.2004,-0.761852 -1.12488,0.137502 -2.06925,0.13195 -1.69296,0.311539 -1.49458,-0.01598 -1.2468,-0.195151 0.2961,0.799769 1.57686,0.121301 1.96935,-0.120986 1.73887,-0.04723 0.28755,0.10967 -0.0753,0.169339 -0.65342,0.403304 -2.35209,0.265277 -1.70944,0.134866 z"
         id="path3995" />
      <path
         style="fill:#000000;stroke-width:0.217477"
         d="m 962.12876,31.507815 c -0.46887,-0.105307 -1.1957,-0.463875 -1.61666,-0.797552 -0.58867,-0.466605 -1.04905,-1.141739 -1.30064,-1.907367 -0.13143,-0.399952 -0.15148,-0.558431 -0.15287,-1.208353 -0.002,-0.658808 0.0166,-0.80308 0.15166,-1.209567 0.56741,-1.708898 2.05464,-2.789508 3.83916,-2.789508 1.5472,0 2.87885,0.816846 3.56883,2.189164 0.79341,1.577996 0.49935,3.374912 -0.76004,4.644388 -0.4588,0.462481 -0.86994,0.722359 -1.5046,0.951074 -0.39881,0.143721 -0.57424,0.172525 -1.16034,0.190521 -0.46778,0.01437 -0.81112,-0.0059 -1.0645,-0.0628 z m 1.81771,-0.203217 c 0.44232,-0.113117 1.21687,-0.435724 1.16667,-0.485925 -0.0137,-0.01371 -0.58075,0.02452 -1.2601,0.08494 -0.67935,0.06043 -1.48117,0.130875 -1.78182,0.15656 l -0.54664,0.0467 0.37401,0.125174 c 0.47108,0.157659 0.55737,0.171524 1.12723,0.181116 0.30243,0.0051 0.62495,-0.03294 0.92065,-0.108562 z m -1.53001,-0.46223 c 0.97448,-0.06236 2.55761,-0.206915 2.87704,-0.262704 0.1259,-0.02199 0.29306,-0.123425 0.44594,-0.270619 0.27001,-0.259967 0.29785,-0.326565 0.13651,-0.326565 -0.0594,0 -0.14192,-0.04083 -0.18333,-0.09072 -0.0629,-0.07575 -0.0569,-0.125023 0.0361,-0.298449 0.19048,-0.355191 0.4328,-0.567572 0.69425,-0.608502 0.22562,-0.03532 0.241,-0.05064 0.30468,-0.303559 0.0369,-0.146499 0.0537,-0.279696 0.0375,-0.295993 -0.0163,-0.0163 -0.284,0.01275 -0.59489,0.06454 -0.31516,0.05251 -0.89514,0.0947 -1.31078,0.09537 -0.43357,6.96e-4 -0.90202,0.03593 -1.11954,0.08419 -1.33336,0.295861 -2.25981,0.376682 -3.21415,0.280396 -0.37737,-0.03808 -0.77957,-0.09502 -0.89376,-0.126556 -0.24339,-0.0672 -0.25873,-0.02401 -0.11716,0.329823 0.0565,0.141136 0.13759,0.237657 0.21579,0.256787 0.40256,0.09848 2.1588,0.103116 3.36371,0.0089 0.70513,-0.05515 1.43739,-0.08903 1.62727,-0.0753 0.85078,0.06154 0.57494,0.577981 -0.46629,0.872996 -0.31517,0.0893 -0.78866,0.138591 -2.63003,0.273788 -0.54591,0.04008 -0.99257,0.0906 -0.99257,0.112258 0,0.02166 0.12299,0.120934 0.27332,0.220612 0.20909,0.138645 0.31388,0.173614 0.44594,0.148816 0.0949,-0.01783 0.57397,-0.0581 1.0645,-0.08949 z m -0.0259,-0.629037 c 1.64629,-0.121254 2.28484,-0.256949 2.55317,-0.542562 l 0.13244,-0.140981 -0.22223,-0.04214 c -0.12222,-0.02317 -0.67535,-0.0087 -1.22918,0.03225 -1.55793,0.115086 -2.57557,0.13569 -3.223,0.06526 -0.32584,-0.03544 -0.60523,-0.05165 -0.62087,-0.036 -0.0346,0.0346 0.24567,0.445845 0.46085,0.676199 0.13986,0.149717 0.18285,0.163894 0.4032,0.132977 0.13565,-0.01903 0.92118,-0.08429 1.74562,-0.145008 z m 3.95824,-0.684578 c 0.18883,-0.346958 0.19068,-0.400628 0.0126,-0.366583 -0.15602,0.02982 -0.23959,0.113724 -0.4302,0.431911 l -0.12926,0.215777 h 0.19693 c 0.17648,0 0.21284,-0.02921 0.34994,-0.281105 z m -4.06459,-0.814406 c 0.29123,-0.03065 0.74436,-0.109032 1.00695,-0.174171 0.34319,-0.08513 0.80917,-0.133478 1.65703,-0.171927 0.64878,-0.02942 1.30906,-0.07805 1.4673,-0.10808 0.15823,-0.03002 0.32006,-0.05614 0.35962,-0.05802 0.0396,-0.0019 0.072,-0.06458 0.072,-0.139311 v -0.13588 l -0.47471,0.0766 c -0.36518,0.05893 -0.59489,0.06256 -0.99551,0.01577 -0.38498,-0.04497 -0.79762,-0.04159 -1.58237,0.01294 -1.30373,0.09061 -3.05639,0.07163 -3.31557,-0.0359 -0.10039,-0.04166 -0.22738,-0.144181 -0.2822,-0.227841 -0.17494,-0.26701 -0.0376,-0.329293 0.9096,-0.412286 0.45157,-0.03957 1.00026,-0.07334 1.21933,-0.07506 0.21907,-0.0017 0.61978,-0.04461 0.89049,-0.09534 0.3915,-0.07336 0.57487,-0.08017 0.89636,-0.03327 0.46628,0.06802 0.65998,0.07105 1.85708,0.02907 0.81205,-0.02847 0.8775,-0.03891 0.8775,-0.139795 0,-0.103204 -0.0591,-0.10906 -1.10766,-0.109706 -0.79298,-4.35e-4 -1.19757,-0.0248 -1.42414,-0.08556 -0.26848,-0.072 -0.50404,-0.07544 -1.5536,-0.02267 -0.9304,0.04678 -1.3412,0.04545 -1.65694,-0.0053 -0.2309,-0.03716 -0.51573,-0.05155 -0.63294,-0.03198 -0.11722,0.01958 -0.41848,-0.0039 -0.66945,-0.05214 -0.25097,-0.04825 -0.46548,-0.07857 -0.47668,-0.06736 -0.0685,0.06856 -0.13669,0.822595 -0.10721,1.186414 0.0537,0.662452 0.0544,0.663577 0.42623,0.750385 0.79666,0.185951 1.60225,0.219672 2.63956,0.110487 z m 1.51317,-0.859742 c 0.79569,-0.05309 1.20254,-0.05508 1.61115,-0.0079 0.36259,0.04186 0.62412,0.04441 0.77679,0.0075 0.12659,-0.03057 0.30784,-0.05659 0.40278,-0.05782 0.26459,-0.0035 0.31786,-0.06247 0.27802,-0.308021 -0.0274,-0.169051 -0.0554,-0.208431 -0.12781,-0.179722 -0.1657,0.06574 -2.32539,0.08165 -2.68967,0.01982 -0.27384,-0.04648 -0.46081,-0.04062 -0.83434,0.02616 -0.26478,0.04734 -0.83098,0.103262 -1.25821,0.124277 -1.12915,0.05554 -1.57013,0.106292 -1.59567,0.183636 -0.0446,0.135023 0.25303,0.218513 0.90517,0.25392 0.77192,0.04191 1.09385,0.03404 2.53179,-0.06188 z m 2.96433,-1.223868 c -0.0195,-0.07121 -0.0917,-0.277483 -0.16035,-0.458393 l -0.12481,-0.328924 -0.77856,0.0079 c -0.52668,0.0053 -0.96472,-0.02532 -1.35397,-0.09486 -0.47167,-0.08427 -0.64284,-0.09167 -0.94942,-0.04107 -0.59777,0.09868 -2.48537,0.05289 -2.92712,-0.071 -0.21681,-0.06081 -0.44309,-0.08845 -0.55389,-0.06766 -0.16599,0.03114 -0.20779,0.08091 -0.36708,0.437164 -0.0989,0.221113 -0.17976,0.423653 -0.17976,0.450092 0,0.07075 0.87165,0.181798 1.11589,0.142162 0.1154,-0.01872 0.39741,-0.0038 0.62669,0.03321 0.30641,0.04943 0.73688,0.05224 1.6244,0.01059 0.95549,-0.04482 1.27956,-0.0408 1.55275,0.01929 0.20898,0.04597 0.7726,0.07889 1.42801,0.08342 l 1.08276,0.0075 z m -0.44137,-0.996179 c 0.0337,-0.0289 -0.31535,-0.505335 -0.4889,-0.667283 -0.14796,-0.138068 -0.23428,-0.159913 -0.88325,-0.223553 -0.39559,-0.03879 -0.91346,-0.07646 -1.15081,-0.08369 -0.44299,-0.01351 -2.0111,-0.121698 -2.60704,-0.179871 -0.29973,-0.02926 -0.35787,-0.0162 -0.56387,0.126546 -0.20456,0.141761 -0.68431,0.654908 -0.68431,0.731949 0,0.01638 0.13594,0.04802 0.30209,0.07032 0.16615,0.0223 0.38336,0.07399 0.48268,0.114864 0.23014,0.0947 2.14562,0.106275 2.64551,0.01598 0.28334,-0.05117 0.47384,-0.04497 0.97819,0.03185 0.34449,0.05247 0.70401,0.104833 0.79896,0.116361 0.17594,0.02136 1.1345,-0.02243 1.17075,-0.05349 z m -0.99392,-1.113786 c -0.15948,-0.176222 -0.8319,-0.504331 -1.29866,-0.633675 -0.62722,-0.173809 -1.38819,-0.163214 -2.05086,0.02856 -0.28045,0.08116 -0.58111,0.192532 -0.66813,0.247485 l -0.15822,0.09992 0.42344,0.07523 c 0.23289,0.04138 0.52418,0.06116 0.64731,0.04396 0.12314,-0.0172 0.40513,-0.0046 0.62666,0.02801 0.22154,0.0326 0.66172,0.06981 0.9782,0.08268 0.31646,0.01288 0.7696,0.04573 1.00696,0.073 0.23735,0.02728 0.46793,0.05313 0.51239,0.05742 0.0615,0.006 0.0569,-0.01866 -0.019,-0.102614 z"
         id="path3851"
         sodipodi:nodetypes="ssscssssssssssscsssssssssssssssssssssssssssssscsssssssssscssssssssscssssssssssscssssssssssssssssssssssssscsssssssssssscssssssssssssssssssscssssssss" />
    </g>
  </g>
</svg>
