<?xml version="1.0" encoding="UTF-8" standalone="no"?>
<!-- Created with Inkscape (http://www.inkscape.org/) -->

<svg
   width="13.92mm"
   height="5mm"
   viewBox="0 0 13.919999 4.9999999"
   version="1.1"
   id="svg1"
   inkscape:version="1.4.2 (ebf0e940d0, 2025-05-08)"
   sodipodi:docname="5_1_1_78.svg"
   xmlns:inkscape="http://www.inkscape.org/namespaces/inkscape"
   xmlns:sodipodi="http://sodipodi.sourceforge.net/DTD/sodipodi-0.dtd"
   xmlns="http://www.w3.org/2000/svg"
   xmlns:svg="http://www.w3.org/2000/svg">
  <sodipodi:namedview
     id="namedview1"
     pagecolor="#ffffff"
     bordercolor="#000000"
     borderopacity="0.25"
     inkscape:showpageshadow="2"
     inkscape:pageopacity="0.0"
     inkscape:pagecheckerboard="0"
     inkscape:deskcolor="#d1d1d1"
     inkscape:document-units="mm"
     inkscape:zoom="2.6972018"
     inkscape:cx="64.511302"
     inkscape:cy="88.981106"
     inkscape:window-width="1075"
     inkscape:window-height="991"
     inkscape:window-x="26"
     inkscape:window-y="23"
     inkscape:window-maximized="0"
     inkscape:current-layer="layer1" />
  <defs
     id="defs1">
    <rect
       x="-26.458582"
       y="130.73653"
       width="155.86105"
       height="46.469273"
       id="rect2" />
    <rect
       x="13.485725"
       y="-52.819092"
       width="225.2477"
       height="118.63495"
       id="rect1" />
    <rect
       x="37.795277"
       y="37.795277"
       width="483.77954"
       height="718.11023"
       id="rect2721" />
    <rect
       x="37.795277"
       y="37.795277"
       width="483.77954"
       height="718.11023"
       id="rect2722" />
    <rect
       x="37.795277"
       y="37.795277"
       width="483.77954"
       height="718.11023"
       id="rect2723" />
    <rect
       x="37.795277"
       y="37.795277"
       width="483.77954"
       height="718.11023"
       id="rect2724" />
    <rect
       x="37.795277"
       y="37.795277"
       width="483.77954"
       height="718.11023"
       id="rect2725" />
    <rect
       x="37.795277"
       y="37.795277"
       width="483.77954"
       height="718.11023"
       id="rect2726" />
    <rect
       x="37.795277"
       y="37.795277"
       width="483.77954"
       height="718.11023"
       id="rect2727" />
    <rect
       x="37.795277"
       y="37.795277"
       width="483.77954"
       height="718.11023"
       id="rect2728" />
    <rect
       x="37.795277"
       y="37.795277"
       width="483.77954"
       height="718.11023"
       id="rect2729" />
    <rect
       x="37.795277"
       y="37.795277"
       width="483.77954"
       height="718.11023"
       id="rect2730" />
    <rect
       x="37.795277"
       y="37.795277"
       width="483.77954"
       height="718.11023"
       id="rect2731" />
    <rect
       x="37.795277"
       y="37.795277"
       width="483.77954"
       height="718.11023"
       id="rect2732" />
    <rect
       x="37.795277"
       y="37.795277"
       width="483.77954"
       height="718.11023"
       id="rect2733" />
    <rect
       x="37.795277"
       y="37.795277"
       width="483.77954"
       height="718.11023"
       id="rect2734" />
    <rect
       x="37.795277"
       y="37.795277"
       width="483.77954"
       height="718.11023"
       id="rect6439" />
    <rect
       x="37.795277"
       y="37.795277"
       width="483.77954"
       height="718.11023"
       id="rect6440" />
    <rect
       x="37.795277"
       y="37.795277"
       width="483.77954"
       height="718.11023"
       id="rect6441" />
    <rect
       x="37.795277"
       y="37.795277"
       width="483.77954"
       height="718.11023"
       id="rect6442" />
    <rect
       x="37.795277"
       y="37.795277"
       width="483.77954"
       height="718.11023"
       id="rect2743" />
    <rect
       x="37.795277"
       y="37.795277"
       width="483.77954"
       height="718.11023"
       id="rect2744" />
    <rect
       x="37.795277"
       y="37.795277"
       width="483.77954"
       height="718.11023"
       id="rect2745" />
    <rect
       x="37.795277"
       y="37.795277"
       width="483.77954"
       height="718.11023"
       id="rect6403" />
    <rect
       x="37.795277"
       y="37.795277"
       width="483.77954"
       height="718.11023"
       id="rect6443" />
    <rect
       x="37.795277"
       y="37.795277"
       width="483.77954"
       height="718.11023"
       id="rect6444" />
    <rect
       x="37.795277"
       y="37.795277"
       width="483.77954"
       height="718.11023"
       id="rect6445" />
    <rect
       x="37.795277"
       y="37.795277"
       width="483.77954"
       height="718.11023"
       id="rect6446" />
    <rect
       x="37.795277"
       y="37.795277"
       width="483.77954"
       height="718.11023"
       id="rect6469" />
    <rect
       x="37.795277"
       y="37.795277"
       width="483.77954"
       height="718.11023"
       id="rect6470" />
    <rect
       x="37.795277"
       y="37.795277"
       width="483.77954"
       height="718.11023"
       id="rect6471" />
    <rect
       x="37.795277"
       y="37.795277"
       width="483.77954"
       height="718.11023"
       id="rect6472" />
    <rect
       x="-26.458582"
       y="130.73653"
       width="155.86105"
       height="46.469273"
       id="rect30" />
    <rect
       x="-26.458582"
       y="130.73653"
       width="155.86105"
       height="46.469273"
       id="rect31" />
    <rect
       x="-26.458582"
       y="130.73653"
       width="155.86105"
       height="46.469273"
       id="rect32" />
    <rect
       x="-26.458582"
       y="130.73653"
       width="155.86105"
       height="46.469273"
       id="rect33" />
    <rect
       x="-26.458582"
       y="130.73653"
       width="155.86105"
       height="46.469273"
       id="rect34" />
    <rect
       x="-26.458582"
       y="130.73653"
       width="155.86105"
       height="46.469273"
       id="rect35" />
    <rect
       x="-26.458582"
       y="130.73653"
       width="155.86105"
       height="46.469273"
       id="rect38" />
    <rect
       x="-26.458582"
       y="130.73653"
       width="155.86105"
       height="46.469273"
       id="rect39" />
    <rect
       x="-26.458582"
       y="130.73653"
       width="155.86105"
       height="46.469273"
       id="rect40" />
    <rect
       x="-26.458582"
       y="130.73653"
       width="155.86105"
       height="46.469273"
       id="rect42" />
    <rect
       x="-26.458582"
       y="130.73653"
       width="155.86105"
       height="46.469273"
       id="rect43" />
    <rect
       x="-26.458582"
       y="130.73653"
       width="155.86105"
       height="46.469273"
       id="rect44" />
    <rect
       x="-26.458582"
       y="130.73653"
       width="155.86105"
       height="46.469273"
       id="rect46" />
    <rect
       x="-26.458582"
       y="130.73653"
       width="155.86105"
       height="46.469273"
       id="rect47" />
    <rect
       x="-26.458582"
       y="130.73653"
       width="155.86105"
       height="46.469273"
       id="rect48" />
  </defs>
  <g
     inkscape:label="Katman 1"
     inkscape:groupmode="layer"
     id="layer1">
    <path
       style="fill:#00025b;fill-opacity:1;stroke-width:0.065763"
       d="m 6.0723026,4.9827226 c -1.654,-0.0782 -3.173,-0.36667 -4.3065,-0.8179 -0.2731,-0.10872 -0.7189,-0.33645 -0.92220004,-0.47111 -0.5521,-0.36574 -0.84460000447,-0.78281 -0.8436000044661,-1.2029 0,-1.05962 1.8584000444661,-2.00247995 4.6455000444661,-2.35999995 0.2959,-0.038 0.6882,-0.0758 1.131,-0.1092 0.3839,-0.0289 1.9815,-0.0288 2.375,2e-4 1.631,0.12021 2.9162004,0.37489 3.9408004,0.78096 1.3125,0.52012995 1.9517,1.18749995 1.8084,1.88810995 -0.029,0.14056 -0.1589,0.39077 -0.2762,0.53099 -0.7152,0.85505 -2.7125,1.52572 -5.1163004,1.71793 -0.7487,0.0599 -1.7164,0.0769 -2.4359,0.0429 z m 2.1488,-0.24126 c 1.2089,-0.0908 2.1571004,-0.24423 3.0276004,-0.48999 1.377,-0.38879 2.259,-0.96275 2.418,-1.57367 0.1236,-0.47442 -0.1838,-0.9513 -0.8824,-1.3691 -0.8581,-0.51317995 -2.3806,-0.91528995 -4.0325004,-1.06510995 -0.5697,-0.0516 -0.7912,-0.0627 -1.4703,-0.0733 -1.9261,-0.0301 -3.6705,0.20469 -5.0546,0.68043 -1.0661,0.36646995 -1.76810004,0.88657995 -1.90480004,1.41134995 -0.034,0.13008 -0.034,0.2857 0,0.41578 0.097,0.37314 0.4998,0.76493 1.10440004,1.07483 1.0605,0.54356 2.7232,0.90398 4.637,1.00516 0.3563,0.0189 1.8387,0.008 2.1576,-0.0164 z m -2.0872,-0.17667 c -2.1115,-0.0889 -3.9823,-0.52989 -4.9523,-1.1672 -0.23430004,-0.15395 -0.47810004,-0.40204 -0.56210004,-0.57197 -0.1251,-0.25311 -0.1249,-0.45786 0,-0.71241 0.081,-0.16495 0.3267,-0.41598 0.55350004,-0.56617 1.5019,-0.99485995 5.0385,-1.44423995 8.1958,-1.04139995 1.4842004,0.18937 2.7038004,0.55677995 3.4366004,1.03528995 0.2343,0.15297 0.4783,0.40135 0.5633,0.57327 0.125,0.25311 0.1249,0.45786 -7e-4,0.71241 -0.084,0.16991 -0.3283,0.41895 -0.5628,0.57312 -0.2135,0.14041 -0.6568,0.35666 -0.964,0.47023 -1.4166,0.5237 -3.5642004,0.78512 -5.7080004,0.69483 z m 4.0625004,-0.66123 c 0.1649,-0.0785 0.4028,-0.27523 0.5983,-0.49481 0.082,-0.0923 0.1495,-0.17425 0.1495,-0.18206 0,-0.008 -0.024,-0.0345 -0.054,-0.0592 l -0.054,-0.0451 -0.2118,0.19915 c -0.308,0.28962 -0.4287,0.37506 -0.5301,0.37506 -0.029,0 -0.064,-0.0153 -0.082,-0.0349 -0.027,-0.03 -0.029,-0.0439 -0.012,-0.10005 0.024,-0.077 0.2346,-0.41654 0.7743,-1.24515 0.217,-0.33316 0.3946,-0.60917 0.3946,-0.61334 0,-0.004 -0.093,-0.008 -0.2071,-0.008 h -0.2073 l -0.3342,0.50434 c -0.1839,0.27739 -0.3406,0.50046 -0.3483,0.49571 -0.01,-0.005 -0.019,-0.0315 -0.025,-0.0595 -0.01,-0.0279 -0.044,-0.0816 -0.085,-0.11913 -0.1677,-0.15459 -0.4551,-0.13694 -0.7274,0.0447 -0.054,0.0363 -0.1792,0.13622 -0.2772,0.222 -0.3482,0.30474 -0.5113,0.40821 -0.6436,0.40824 -0.1214,2e-5 -0.2197,-0.12885 -0.1964,-0.25755 0.014,-0.078 0.051,-0.15525 0.099,-0.20788 0.05,-0.0549 0.064,-0.0491 0.064,0.0266 0,0.22678 0.3106,0.25103 0.4164,0.0325 0.073,-0.15104 0.031,-0.30336 -0.1038,-0.3723 -0.1577,-0.0808 -0.3439,-0.0283 -0.5187,0.14638 -0.061,0.0606 -0.1125,0.11027 -0.115,0.11027 0,0 -0.01,-0.0387 -0.015,-0.0861 -0.021,-0.17545 -0.094,-0.24454 -0.2612,-0.24454 -0.1586,0 -0.31,0.089 -0.5268,0.30991 -0.099,0.10104 -0.1835,0.1803 -0.1872,0.17615 -0.01,-0.004 -0.016,-0.0579 -0.026,-0.1195 -0.027,-0.15849 -0.085,-0.26939 -0.1447,-0.27624 -0.043,-0.005 -0.1713,0.0593 -0.1952,0.098 -0.01,0.009 0,0.0736 0.017,0.14426 0.093,0.442 -0.2065,0.93792 -0.566,0.93754 -0.1503,-1.2e-4 -0.2573,-0.1469 -0.24,-0.32918 0.025,-0.26293 0.2298,-0.50892 0.5475,-0.657 0.069,-0.0324 0.1262,-0.0652 0.1262,-0.0731 0,-0.049 -0.045,-0.12863 -0.081,-0.14207 -0.055,-0.0209 -0.1953,0.006 -0.3371,0.0648 -0.3071,0.1273 -0.4847,0.31417 -0.6633,0.6982 -0.076,0.16204 -0.1049,0.20456 -0.2279,0.32865 l -0.1413,0.14253 0.042,0.0616 c 0.023,0.0339 0.051,0.0654 0.063,0.0699 0.022,0.009 0.1572,-0.0917 0.2298,-0.17064 0.024,-0.0252 0.049,-0.0459 0.057,-0.0459 0.01,0 0.03,0.035 0.049,0.0778 0.046,0.10766 0.1593,0.2248 0.2573,0.26642 0.1809,0.0768 0.3608,0.0644 0.5694,-0.0392 0.1609,-0.0799 0.2936,-0.20053 0.4467,-0.40608 0.3053,-0.40981 0.5609,-0.68281 0.7128,-0.76134 0.028,-0.0148 0.077,-0.0246 0.1075,-0.0216 0.048,0.005 0.056,0.0126 0.061,0.0605 0.01,0.083 -0.095,0.26862 -0.4952,0.89181 -0.09,0.13926 -0.1626,0.26309 -0.1626,0.27517 0,0.0164 0.049,0.0219 0.1915,0.0219 h 0.1915 l 0.1318,-0.20445 c 0.2832,-0.43924 0.3991,-0.6127 0.4098,-0.61302 0.01,-1.9e-4 0.016,0.0344 0.023,0.0767 0.013,0.0871 0.065,0.17221 0.1373,0.22587 0.041,0.0301 0.074,0.0364 0.1914,0.0361 0.1248,-2.6e-4 0.1565,-0.007 0.2592,-0.0573 0.064,-0.0314 0.1225,-0.0586 0.1291,-0.0606 0.01,-0.002 0.013,0.0629 0.014,0.14427 0,0.11445 0.011,0.1686 0.043,0.23938 0.1332,0.29889 0.4865,0.32839 0.8069,0.0674 0.1018,-0.0829 0.1342,-0.0893 0.1342,-0.0264 0,0.0689 0.085,0.18424 0.1566,0.2129 0.014,0.006 0.081,0.009 0.1479,0.006 0.099,-0.004 0.1468,-0.016 0.2527,-0.0664 z m -1.0401004,-0.28585 c -0.1918,-0.0809 -0.062,-0.52073 0.2334,-0.79058 0.1213,-0.11094 0.21,-0.15712 0.3018,-0.15712 0.138,0 0.1899,0.10981 0.1308,0.27715 -0.02,0.0564 -0.021,0.08 -0.01,0.10503 0.044,0.0707 -0.2653,0.45263 -0.4357,0.53784 -0.093,0.0464 -0.1607,0.0548 -0.225,0.0276 z m -5.198,0.25217 c 0.438,-0.13328 0.8068,-0.52418 1.3985,-1.48258 0.087,-0.14115 0.1379,-0.2068 0.1642,-0.21213 0.021,-0.004 0.128,-0.0162 0.238,-0.0265 0.1101,-0.0104 0.2453,-0.0233 0.3005,-0.0289 0.096,-0.01 0.103,-0.008 0.1686,0.0516 0.099,0.0894 0.1669,0.12125 0.2097,0.0983 0.051,-0.0271 0.043,-0.0617 -0.026,-0.1142 -0.034,-0.0256 -0.061,-0.0532 -0.061,-0.0614 0,-0.008 0.029,-0.0301 0.065,-0.0485 0.079,-0.0409 0.1524,-0.11552 0.1772,-0.18143 0.031,-0.0803 0.023,-0.19337 -0.016,-0.24322 -0.1435,-0.18245 -0.4521,-0.002 -0.4521,0.26392 v 0.0862 l -0.1262,0.01 c -0.2546,0.0195 -0.3784,0.0232 -0.3784,0.0111 0,-0.007 0.034,-0.0622 0.074,-0.12318 0.098,-0.14616 0.3469,-0.39404 0.5573,-0.55397 0.093,-0.0708 0.1692,-0.13926 0.1692,-0.15224 0,-0.013 0.01,-0.0237 0.023,-0.0237 0.013,0 0.2142,0.0512 0.448,0.11382 0.6945,0.18587 0.8077,0.20585 1.1735,0.20705 0.2518,7.2e-4 0.337,-0.005 0.435,-0.0312 0.1876,-0.0496 0.3663,-0.14219 0.4718,-0.24446 0.084,-0.0811 0.094,-0.0984 0.094,-0.16304 0,-0.10720995 -0.031,-0.11684995 -0.239,-0.0751 -0.6246,0.12519 -1.2087,0.10939 -2.2405,-0.0606 -1.0203,-0.1681 -1.5225,-0.18782 -1.9579,-0.0769 -0.5018,0.12784 -0.838,0.41703 -0.9033,0.77695 -0.072,0.39522 0.2425,0.67811 0.6366,0.57318 0.1456,-0.0388 0.2679,-0.11458 0.3976,-0.2463 0.2099,-0.2133 0.3366,-0.51032 0.2246,-0.52632 -0.026,-0.004 -0.056,0.0199 -0.1075,0.0889 -0.1258,0.16652 -0.3593,0.30726 -0.5104,0.30759 -0.1091,2.5e-4 -0.1909,-0.0558 -0.2215,-0.15192 -0.02,-0.0624 -0.019,-0.0861 0.01,-0.16623 0.061,-0.21159 0.2817,-0.38321 0.5997,-0.46752 0.1695,-0.0449 0.5736,-0.0621 0.7941,-0.0336 0.2247,0.029 0.6588,0.10775 0.6748,0.1224 0.01,0.007 -0.051,0.0524 -0.1305,0.10132 -0.2659,0.164 -0.4866,0.38117 -0.7412,0.72907 l -0.091,0.12467 -0.1256,0.0201 c -0.3929,0.0629 -0.6902,0.21028 -0.6272,0.31083 0.027,0.043 0.086,0.0443 0.1442,0.003 0.029,-0.0201 0.085,-0.0516 0.1268,-0.07 0.085,-0.0374 0.271,-0.0715 0.2832,-0.0519 0.011,0.017 -0.2589,0.37084 -0.44,0.57783 -0.3654,0.41774 -0.6592,0.60409 -0.9523,0.60405 -0.2083,-2e-5 -0.3511,-0.0973 -0.4026,-0.2744 -0.031,-0.10815 -0.022,-0.18191 0.038,-0.29967 0.046,-0.0905 0.2047,-0.24442 0.3052,-0.2957 0.074,-0.0376 0.097,-0.0849 0.069,-0.13781 -0.04,-0.0741 -0.1633,-0.0686 -0.3422,0.0151 -0.2163,0.10119 -0.4033,0.33475 -0.4587,0.57294 -0.029,0.12604 -0.014,0.33512 0.034,0.46002 0.078,0.2026 0.2987,0.38058 0.5317,0.42818 0.1264,0.0258 0.3802,0.009 0.5219,-0.0336 z m 2.3119,-1.97345 c -0.01,-0.0139 0,-0.0519 0.01,-0.0844 0.044,-0.13255 0.1782,-0.18239 0.1891,-0.0701 0.01,0.0977 -0.1678,0.23549 -0.1989,0.15454 z"
       id="path2781" />
  </g>
</svg>
