<?xml version="1.0" encoding="UTF-8" standalone="no"?>
<!-- Created with Inkscape (http://www.inkscape.org/) -->

<svg
   width="57.903999mm"
   height="7.145mm"
   viewBox="0 0 57.904 7.145"
   version="1.1"
   id="svg1"
   inkscape:version="1.4.2 (ebf0e940d0, 2025-05-08)"
   sodipodi:docname="5_1_1_32.svg"
   xmlns:inkscape="http://www.inkscape.org/namespaces/inkscape"
   xmlns:sodipodi="http://sodipodi.sourceforge.net/DTD/sodipodi-0.dtd"
   xmlns="http://www.w3.org/2000/svg"
   xmlns:svg="http://www.w3.org/2000/svg">
  <sodipodi:namedview
     id="namedview1"
     pagecolor="#ffffff"
     bordercolor="#000000"
     borderopacity="0.25"
     inkscape:showpageshadow="2"
     inkscape:pageopacity="0.0"
     inkscape:pagecheckerboard="0"
     inkscape:deskcolor="#d1d1d1"
     inkscape:document-units="mm"
     inkscape:zoom="3.5887597"
     inkscape:cx="197.14332"
     inkscape:cy="43.19041"
     inkscape:window-width="1920"
     inkscape:window-height="1014"
     inkscape:window-x="0"
     inkscape:window-y="0"
     inkscape:window-maximized="1"
     inkscape:current-layer="layer1" />
  <defs
     id="defs1">
    <rect
       x="13.485725"
       y="-52.819092"
       width="225.2477"
       height="118.63495"
       id="rect1" />
    <rect
       x="37.795277"
       y="37.795277"
       width="483.77954"
       height="718.11023"
       id="rect2721" />
    <rect
       x="37.795277"
       y="37.795277"
       width="483.77954"
       height="718.11023"
       id="rect2722" />
    <rect
       x="37.795277"
       y="37.795277"
       width="483.77954"
       height="718.11023"
       id="rect2723" />
    <rect
       x="37.795277"
       y="37.795277"
       width="483.77954"
       height="718.11023"
       id="rect2724" />
    <rect
       x="37.795277"
       y="37.795277"
       width="483.77954"
       height="718.11023"
       id="rect2725" />
    <rect
       x="37.795277"
       y="37.795277"
       width="483.77954"
       height="718.11023"
       id="rect2726" />
    <rect
       x="37.795277"
       y="37.795277"
       width="483.77954"
       height="718.11023"
       id="rect2727" />
    <rect
       x="37.795277"
       y="37.795277"
       width="483.77954"
       height="718.11023"
       id="rect2728" />
    <rect
       x="37.795277"
       y="37.795277"
       width="483.77954"
       height="718.11023"
       id="rect2729" />
    <rect
       x="37.795277"
       y="37.795277"
       width="483.77954"
       height="718.11023"
       id="rect2730" />
    <rect
       x="37.795277"
       y="37.795277"
       width="483.77954"
       height="718.11023"
       id="rect2731" />
    <rect
       x="37.795277"
       y="37.795277"
       width="483.77954"
       height="718.11023"
       id="rect2732" />
    <rect
       x="37.795277"
       y="37.795277"
       width="483.77954"
       height="718.11023"
       id="rect2733" />
    <rect
       x="37.795277"
       y="37.795277"
       width="483.77954"
       height="718.11023"
       id="rect2734" />
  </defs>
  <g
     inkscape:label="Katman 1"
     inkscape:groupmode="layer"
     id="layer1">
    <g
       id="g1825"
       transform="matrix(0.58796269,0,0,0.58796269,-75.198094,-16.200157)">
      <path
         style="fill:#005500;fill-opacity:0.5;stroke:none;stroke-width:0.264583px;stroke-linecap:butt;stroke-linejoin:miter;stroke-opacity:1"
         d="m 128.30076,32.028497 2.97509,5.146006 -2.02025,1.896486 1.91403,0.313192 1.0363,-1.641938 1.80981,1.441606 3.42186,0.0897 1.54658,-1.742874 -2.45771,-3.250356 -7.04569,-3.298431 z"
         id="path1824" />
      <path
         style="fill:#005500;stroke-width:0.32002"
         d="m 127.9285,39.310535 c -0.10849,-0.175613 0.0639,-0.41155 0.38299,-0.524305 2.72312,-0.961918 3.2177,-1.489788 2.19282,-2.340353 -0.2572,-0.213468 -0.55962,-0.699129 -0.67205,-1.07925 -0.11249,-0.38014 -0.57176,-1.234261 -1.02072,-1.898061 -0.69387,-1.025891 -0.76209,-1.325883 -0.45488,-2.000139 0.5532,-1.214121 1.96848,-1.056363 3.98911,0.444642 0.91651,0.68081 2.35864,1.495563 3.20473,1.810551 3.05103,1.13586 4.90242,4.640689 2.92689,5.540788 -1.31098,0.597331 -3.99989,0.457603 -5.19301,-0.269845 -1.28884,-0.785803 -1.45934,-0.796648 -1.06938,-0.06797 0.278,0.519459 0.10776,0.576783 -1.89184,0.637051 -1.20852,0.0364 -2.28613,-0.07744 -2.39466,-0.253058 z m 3.36348,-0.954824 c 0.35203,-0.352016 0.64003,-0.928056 0.64003,-1.280081 0,-0.352025 0.14401,-0.640041 0.32003,-0.640041 0.176,0 0.32001,0.35496 0.32001,0.788793 0,0.836526 0.7955,1.451349 1.87784,1.451349 0.46009,0 0.66826,-0.247208 0.74109,-0.880053 0.0879,-0.764049 0.25945,-0.893154 1.30133,-0.979383 0.66005,-0.05469 1.20009,0.02312 1.20009,0.172633 0,0.14957 -0.39207,0.266261 -0.87127,0.259335 -0.58016,-0.0084 -0.90878,0.17449 -0.98354,0.547415 -0.0788,0.39338 0.0908,0.560033 0.57014,0.560033 0.37532,0 0.59339,-0.143998 0.48461,-0.320011 -0.11212,-0.181509 0.15669,-0.320029 0.62116,-0.320029 1.84571,0 0.17143,-2.396406 -2.45389,-3.512276 -0.92813,-0.394494 -2.13776,-1.055472 -2.68806,-1.468842 -0.55032,-0.41337 -1.09184,-0.660318 -1.20339,-0.548761 -0.11152,0.11152 -0.39652,-0.06212 -0.63326,-0.385868 -0.28101,-0.38429 -0.62832,-0.512746 -1.00033,-0.369992 -0.52895,0.202985 -0.53227,0.260226 -0.0463,0.797243 0.65212,0.720577 0.68953,1.224297 0.0516,0.694876 -0.46395,-0.385042 0.70864,2.029414 1.61185,3.318919 0.68777,0.981927 0.56836,1.418175 -0.57985,2.118251 -0.69231,0.422107 -0.8528,0.634544 -0.48003,0.635342 0.30802,6.41e-4 0.84805,-0.286827 1.20009,-0.638852 z m 6.31375,0.446703 c -0.10632,-0.106321 -0.38237,-0.117695 -0.61337,-0.02535 -0.2553,0.102208 -0.17947,0.178 0.19333,0.193338 0.33736,0.01384 0.52637,-0.06165 0.42004,-0.168065 z"
         id="path1825"
         sodipodi:nodetypes="scsssssssssssssssssssscssssssssssssssssscsss" />
    </g>
    <g
       id="g1827"
       transform="matrix(0.58796269,0,0,0.58796269,-68.319136,-16.200157)">
      <path
         style="fill:#005500;fill-opacity:0.5;stroke:none;stroke-width:0.264583px;stroke-linecap:butt;stroke-linejoin:miter;stroke-opacity:1"
         d="m 128.30076,32.028497 2.97509,5.146006 -2.02025,1.896486 1.91403,0.313192 1.0363,-1.641938 1.80981,1.441606 3.42186,0.0897 1.54658,-1.742874 -2.45771,-3.250356 -7.04569,-3.298431 z"
         id="path1826" />
      <path
         style="fill:#005500;stroke-width:0.32002"
         d="m 127.9285,39.310535 c -0.10849,-0.175613 0.0639,-0.41155 0.38299,-0.524305 2.72312,-0.961918 3.2177,-1.489788 2.19282,-2.340353 -0.2572,-0.213468 -0.55962,-0.699129 -0.67205,-1.07925 -0.11249,-0.38014 -0.57176,-1.234261 -1.02072,-1.898061 -0.69387,-1.025891 -0.76209,-1.325883 -0.45488,-2.000139 0.5532,-1.214121 1.96848,-1.056363 3.98911,0.444642 0.91651,0.68081 2.35864,1.495563 3.20473,1.810551 3.05103,1.13586 4.90242,4.640689 2.92689,5.540788 -1.31098,0.597331 -3.99989,0.457603 -5.19301,-0.269845 -1.28884,-0.785803 -1.45934,-0.796648 -1.06938,-0.06797 0.278,0.519459 0.10776,0.576783 -1.89184,0.637051 -1.20852,0.0364 -2.28613,-0.07744 -2.39466,-0.253058 z m 3.36348,-0.954824 c 0.35203,-0.352016 0.64003,-0.928056 0.64003,-1.280081 0,-0.352025 0.14401,-0.640041 0.32003,-0.640041 0.176,0 0.32001,0.35496 0.32001,0.788793 0,0.836526 0.7955,1.451349 1.87784,1.451349 0.46009,0 0.66826,-0.247208 0.74109,-0.880053 0.0879,-0.764049 0.25945,-0.893154 1.30133,-0.979383 0.66005,-0.05469 1.20009,0.02312 1.20009,0.172633 0,0.14957 -0.39207,0.266261 -0.87127,0.259335 -0.58016,-0.0084 -0.90878,0.17449 -0.98354,0.547415 -0.0788,0.39338 0.0908,0.560033 0.57014,0.560033 0.37532,0 0.59339,-0.143998 0.48461,-0.320011 -0.11212,-0.181509 0.15669,-0.320029 0.62116,-0.320029 1.84571,0 0.17143,-2.396406 -2.45389,-3.512276 -0.92813,-0.394494 -2.13776,-1.055472 -2.68806,-1.468842 -0.55032,-0.41337 -1.09184,-0.660318 -1.20339,-0.548761 -0.11152,0.11152 -0.39652,-0.06212 -0.63326,-0.385868 -0.28101,-0.38429 -0.62832,-0.512746 -1.00033,-0.369992 -0.52895,0.202985 -0.53227,0.260226 -0.0463,0.797243 0.65212,0.720577 0.68953,1.224297 0.0516,0.694876 -0.46395,-0.385042 0.70864,2.029414 1.61185,3.318919 0.68777,0.981927 0.56836,1.418175 -0.57985,2.118251 -0.69231,0.422107 -0.8528,0.634544 -0.48003,0.635342 0.30802,6.41e-4 0.84805,-0.286827 1.20009,-0.638852 z m 6.31375,0.446703 c -0.10632,-0.106321 -0.38237,-0.117695 -0.61337,-0.02535 -0.2553,0.102208 -0.17947,0.178 0.19333,0.193338 0.33736,0.01384 0.52637,-0.06165 0.42004,-0.168065 z"
         id="path1827"
         sodipodi:nodetypes="scsssssssssssssssssssscssssssssssssssssscsss" />
    </g>
    <g
       id="g1830"
       transform="matrix(0.58796269,0,0,0.58796269,-32.337101,-16.891799)">
      <path
         style="fill:#800066;fill-opacity:0.5;stroke:none;stroke-width:0.264583px;stroke-linecap:butt;stroke-linejoin:miter;stroke-opacity:1"
         d="m 80.075441,40.521913 3.091323,-0.10029 -1.529226,-2.145506 z"
         id="path1828" />
      <path
         style="fill:#800066;fill-opacity:0.5;stroke:none;stroke-width:0.264583px;stroke-linecap:butt;stroke-linejoin:miter;stroke-opacity:1"
         d="m 81.492851,31.923183 1.334011,-0.949182 -0.552485,-0.935736 0.26279,-1.051952 -1.651495,0.347877 -0.944033,1.121222 z"
         id="path1829" />
      <path
         style="fill:#800066;stroke-width:0.32002"
         d="m 79.737063,40.641482 c 0.006,-0.132003 0.211171,-0.600032 0.4554,-1.040059 0.385817,-0.695128 0.37782,-0.873508 -0.06096,-1.360089 -0.281529,-0.312221 -0.349796,-0.560042 -0.154263,-0.560042 0.192896,0 0.439736,0.144017 0.548509,0.32002 0.556094,0.899784 0.800056,0.02488 0.800056,-2.868929 0,-2.824167 -0.07076,-3.226804 -0.618371,-3.519898 -0.340097,-0.182011 -0.71701,-0.641749 -0.837588,-1.021638 -0.401782,-1.265894 2.025926,-2.411308 3.343091,-1.577289 0.36304,0.229865 0.324274,0.359713 -0.206358,0.691098 -0.650993,0.406546 -0.651053,0.409944 -0.01802,0.92255 0.626766,0.507518 0.624141,0.520489 -0.19367,0.958167 -0.805727,0.431215 -0.829035,0.532151 -0.829035,3.589822 0,2.854677 0.245788,3.722921 0.800056,2.826117 0.108736,-0.176003 0.355612,-0.32002 0.548508,-0.32002 0.195532,0 0.127268,0.247821 -0.154262,0.560042 -0.438757,0.486581 -0.446752,0.664961 -0.06095,1.360089 0.244228,0.440027 0.449158,0.908056 0.455399,1.040059 0.006,0.132012 -0.852718,0.240022 -1.908794,0.240022 -1.056064,0 -1.915024,-0.10801 -1.908783,-0.240022 z m 2.548829,-0.880054 c -0.219118,-0.264014 -0.535046,-0.480035 -0.702082,-0.480035 -0.167036,0 -0.519711,0.216021 -0.783728,0.480035 -0.426698,0.426703 -0.348684,0.480036 0.702084,0.480036 1.014492,0 1.125624,-0.06815 0.783726,-0.480036 z m -0.125935,-9.439897 c -0.03725,-1.049966 -0.393871,-1.193259 -1.307271,-0.525354 -0.518902,0.379415 -0.537056,0.501325 -0.141177,0.947879 0.771704,0.87049 1.486971,0.661841 1.448448,-0.422525 z"
         id="path1830"
         sodipodi:nodetypes="ssssssssssssssssscssssssssssss" />
    </g>
    <g
       id="g1833"
       transform="matrix(0.58796269,0,0,0.58796269,-29.162212,-16.891799)">
      <path
         style="fill:#800066;fill-opacity:0.5;stroke:none;stroke-width:0.264583px;stroke-linecap:butt;stroke-linejoin:miter;stroke-opacity:1"
         d="m 80.075441,40.521913 3.091323,-0.10029 -1.529226,-2.145506 z"
         id="path1831" />
      <path
         style="fill:#800066;fill-opacity:0.5;stroke:none;stroke-width:0.264583px;stroke-linecap:butt;stroke-linejoin:miter;stroke-opacity:1"
         d="m 81.492851,31.923183 1.334011,-0.949182 -0.552485,-0.935736 0.26279,-1.051952 -1.651495,0.347877 -0.944033,1.121222 z"
         id="path1832" />
      <path
         style="fill:#800066;stroke-width:0.32002"
         d="m 79.737063,40.641482 c 0.006,-0.132003 0.211171,-0.600032 0.4554,-1.040059 0.385817,-0.695128 0.37782,-0.873508 -0.06096,-1.360089 -0.281529,-0.312221 -0.349796,-0.560042 -0.154263,-0.560042 0.192896,0 0.439736,0.144017 0.548509,0.32002 0.556094,0.899784 0.800056,0.02488 0.800056,-2.868929 0,-2.824167 -0.07076,-3.226804 -0.618371,-3.519898 -0.340097,-0.182011 -0.71701,-0.641749 -0.837588,-1.021638 -0.401782,-1.265894 2.025926,-2.411308 3.343091,-1.577289 0.36304,0.229865 0.324274,0.359713 -0.206358,0.691098 -0.650993,0.406546 -0.651053,0.409944 -0.01802,0.92255 0.626766,0.507518 0.624141,0.520489 -0.19367,0.958167 -0.805727,0.431215 -0.829035,0.532151 -0.829035,3.589822 0,2.854677 0.245788,3.722921 0.800056,2.826117 0.108736,-0.176003 0.355612,-0.32002 0.548508,-0.32002 0.195532,0 0.127268,0.247821 -0.154262,0.560042 -0.438757,0.486581 -0.446752,0.664961 -0.06095,1.360089 0.244228,0.440027 0.449158,0.908056 0.455399,1.040059 0.006,0.132012 -0.852718,0.240022 -1.908794,0.240022 -1.056064,0 -1.915024,-0.10801 -1.908783,-0.240022 z m 2.548829,-0.880054 c -0.219118,-0.264014 -0.535046,-0.480035 -0.702082,-0.480035 -0.167036,0 -0.519711,0.216021 -0.783728,0.480035 -0.426698,0.426703 -0.348684,0.480036 0.702084,0.480036 1.014492,0 1.125624,-0.06815 0.783726,-0.480036 z m -0.125935,-9.439897 c -0.03725,-1.049966 -0.393871,-1.193259 -1.307271,-0.525354 -0.518902,0.379415 -0.537056,0.501325 -0.141177,0.947879 0.771704,0.87049 1.486971,0.661841 1.448448,-0.422525 z"
         id="path1833"
         sodipodi:nodetypes="ssssssssssssssssscssssssssssss" />
    </g>
    <g
       id="g1836"
       transform="matrix(0.58796269,0,0,0.58796269,-25.987324,-16.891799)">
      <path
         style="fill:#800066;fill-opacity:0.5;stroke:none;stroke-width:0.264583px;stroke-linecap:butt;stroke-linejoin:miter;stroke-opacity:1"
         d="m 80.075441,40.521913 3.091323,-0.10029 -1.529226,-2.145506 z"
         id="path1834" />
      <path
         style="fill:#800066;fill-opacity:0.5;stroke:none;stroke-width:0.264583px;stroke-linecap:butt;stroke-linejoin:miter;stroke-opacity:1"
         d="m 81.492851,31.923183 1.334011,-0.949182 -0.552485,-0.935736 0.26279,-1.051952 -1.651495,0.347877 -0.944033,1.121222 z"
         id="path1835" />
      <path
         style="fill:#800066;stroke-width:0.32002"
         d="m 79.737063,40.641482 c 0.006,-0.132003 0.211171,-0.600032 0.4554,-1.040059 0.385817,-0.695128 0.37782,-0.873508 -0.06096,-1.360089 -0.281529,-0.312221 -0.349796,-0.560042 -0.154263,-0.560042 0.192896,0 0.439736,0.144017 0.548509,0.32002 0.556094,0.899784 0.800056,0.02488 0.800056,-2.868929 0,-2.824167 -0.07076,-3.226804 -0.618371,-3.519898 -0.340097,-0.182011 -0.71701,-0.641749 -0.837588,-1.021638 -0.401782,-1.265894 2.025926,-2.411308 3.343091,-1.577289 0.36304,0.229865 0.324274,0.359713 -0.206358,0.691098 -0.650993,0.406546 -0.651053,0.409944 -0.01802,0.92255 0.626766,0.507518 0.624141,0.520489 -0.19367,0.958167 -0.805727,0.431215 -0.829035,0.532151 -0.829035,3.589822 0,2.854677 0.245788,3.722921 0.800056,2.826117 0.108736,-0.176003 0.355612,-0.32002 0.548508,-0.32002 0.195532,0 0.127268,0.247821 -0.154262,0.560042 -0.438757,0.486581 -0.446752,0.664961 -0.06095,1.360089 0.244228,0.440027 0.449158,0.908056 0.455399,1.040059 0.006,0.132012 -0.852718,0.240022 -1.908794,0.240022 -1.056064,0 -1.915024,-0.10801 -1.908783,-0.240022 z m 2.548829,-0.880054 c -0.219118,-0.264014 -0.535046,-0.480035 -0.702082,-0.480035 -0.167036,0 -0.519711,0.216021 -0.783728,0.480035 -0.426698,0.426703 -0.348684,0.480036 0.702084,0.480036 1.014492,0 1.125624,-0.06815 0.783726,-0.480036 z m -0.125935,-9.439897 c -0.03725,-1.049966 -0.393871,-1.193259 -1.307271,-0.525354 -0.518902,0.379415 -0.537056,0.501325 -0.141177,0.947879 0.771704,0.87049 1.486971,0.661841 1.448448,-0.422525 z"
         id="path1836"
         sodipodi:nodetypes="ssssssssssssssssscssssssssssss" />
    </g>
    <g
       id="g1839"
       transform="matrix(0.58796269,0,0,0.58796269,-22.812435,-16.891799)">
      <path
         style="fill:#800066;fill-opacity:0.5;stroke:none;stroke-width:0.264583px;stroke-linecap:butt;stroke-linejoin:miter;stroke-opacity:1"
         d="m 80.075441,40.521913 3.091323,-0.10029 -1.529226,-2.145506 z"
         id="path1837" />
      <path
         style="fill:#800066;fill-opacity:0.5;stroke:none;stroke-width:0.264583px;stroke-linecap:butt;stroke-linejoin:miter;stroke-opacity:1"
         d="m 81.492851,31.923183 1.334011,-0.949182 -0.552485,-0.935736 0.26279,-1.051952 -1.651495,0.347877 -0.944033,1.121222 z"
         id="path1838" />
      <path
         style="fill:#800066;stroke-width:0.32002"
         d="m 79.737063,40.641482 c 0.006,-0.132003 0.211171,-0.600032 0.4554,-1.040059 0.385817,-0.695128 0.37782,-0.873508 -0.06096,-1.360089 -0.281529,-0.312221 -0.349796,-0.560042 -0.154263,-0.560042 0.192896,0 0.439736,0.144017 0.548509,0.32002 0.556094,0.899784 0.800056,0.02488 0.800056,-2.868929 0,-2.824167 -0.07076,-3.226804 -0.618371,-3.519898 -0.340097,-0.182011 -0.71701,-0.641749 -0.837588,-1.021638 -0.401782,-1.265894 2.025926,-2.411308 3.343091,-1.577289 0.36304,0.229865 0.324274,0.359713 -0.206358,0.691098 -0.650993,0.406546 -0.651053,0.409944 -0.01802,0.92255 0.626766,0.507518 0.624141,0.520489 -0.19367,0.958167 -0.805727,0.431215 -0.829035,0.532151 -0.829035,3.589822 0,2.854677 0.245788,3.722921 0.800056,2.826117 0.108736,-0.176003 0.355612,-0.32002 0.548508,-0.32002 0.195532,0 0.127268,0.247821 -0.154262,0.560042 -0.438757,0.486581 -0.446752,0.664961 -0.06095,1.360089 0.244228,0.440027 0.449158,0.908056 0.455399,1.040059 0.006,0.132012 -0.852718,0.240022 -1.908794,0.240022 -1.056064,0 -1.915024,-0.10801 -1.908783,-0.240022 z m 2.548829,-0.880054 c -0.219118,-0.264014 -0.535046,-0.480035 -0.702082,-0.480035 -0.167036,0 -0.519711,0.216021 -0.783728,0.480035 -0.426698,0.426703 -0.348684,0.480036 0.702084,0.480036 1.014492,0 1.125624,-0.06815 0.783726,-0.480036 z m -0.125935,-9.439897 c -0.03725,-1.049966 -0.393871,-1.193259 -1.307271,-0.525354 -0.518902,0.379415 -0.537056,0.501325 -0.141177,0.947879 0.771704,0.87049 1.486971,0.661841 1.448448,-0.422525 z"
         id="path1839"
         sodipodi:nodetypes="ssssssssssssssssscssssssssssss" />
    </g>
    <g
       id="g1842"
       transform="matrix(0.58796269,0,0,0.58796269,-19.637547,-16.891799)">
      <path
         style="fill:#800066;fill-opacity:0.5;stroke:none;stroke-width:0.264583px;stroke-linecap:butt;stroke-linejoin:miter;stroke-opacity:1"
         d="m 80.075441,40.521913 3.091323,-0.10029 -1.529226,-2.145506 z"
         id="path1840" />
      <path
         style="fill:#800066;fill-opacity:0.5;stroke:none;stroke-width:0.264583px;stroke-linecap:butt;stroke-linejoin:miter;stroke-opacity:1"
         d="m 81.492851,31.923183 1.334011,-0.949182 -0.552485,-0.935736 0.26279,-1.051952 -1.651495,0.347877 -0.944033,1.121222 z"
         id="path1841" />
      <path
         style="fill:#800066;stroke-width:0.32002"
         d="m 79.737063,40.641482 c 0.006,-0.132003 0.211171,-0.600032 0.4554,-1.040059 0.385817,-0.695128 0.37782,-0.873508 -0.06096,-1.360089 -0.281529,-0.312221 -0.349796,-0.560042 -0.154263,-0.560042 0.192896,0 0.439736,0.144017 0.548509,0.32002 0.556094,0.899784 0.800056,0.02488 0.800056,-2.868929 0,-2.824167 -0.07076,-3.226804 -0.618371,-3.519898 -0.340097,-0.182011 -0.71701,-0.641749 -0.837588,-1.021638 -0.401782,-1.265894 2.025926,-2.411308 3.343091,-1.577289 0.36304,0.229865 0.324274,0.359713 -0.206358,0.691098 -0.650993,0.406546 -0.651053,0.409944 -0.01802,0.92255 0.626766,0.507518 0.624141,0.520489 -0.19367,0.958167 -0.805727,0.431215 -0.829035,0.532151 -0.829035,3.589822 0,2.854677 0.245788,3.722921 0.800056,2.826117 0.108736,-0.176003 0.355612,-0.32002 0.548508,-0.32002 0.195532,0 0.127268,0.247821 -0.154262,0.560042 -0.438757,0.486581 -0.446752,0.664961 -0.06095,1.360089 0.244228,0.440027 0.449158,0.908056 0.455399,1.040059 0.006,0.132012 -0.852718,0.240022 -1.908794,0.240022 -1.056064,0 -1.915024,-0.10801 -1.908783,-0.240022 z m 2.548829,-0.880054 c -0.219118,-0.264014 -0.535046,-0.480035 -0.702082,-0.480035 -0.167036,0 -0.519711,0.216021 -0.783728,0.480035 -0.426698,0.426703 -0.348684,0.480036 0.702084,0.480036 1.014492,0 1.125624,-0.06815 0.783726,-0.480036 z m -0.125935,-9.439897 c -0.03725,-1.049966 -0.393871,-1.193259 -1.307271,-0.525354 -0.518902,0.379415 -0.537056,0.501325 -0.141177,0.947879 0.771704,0.87049 1.486971,0.661841 1.448448,-0.422525 z"
         id="path1842"
         sodipodi:nodetypes="ssssssssssssssssscssssssssssss" />
    </g>
    <g
       id="g1845"
       transform="matrix(0.58796269,0,0,0.58796269,-16.462658,-16.891799)">
      <path
         style="fill:#800066;fill-opacity:0.5;stroke:none;stroke-width:0.264583px;stroke-linecap:butt;stroke-linejoin:miter;stroke-opacity:1"
         d="m 80.075441,40.521913 3.091323,-0.10029 -1.529226,-2.145506 z"
         id="path1843" />
      <path
         style="fill:#800066;fill-opacity:0.5;stroke:none;stroke-width:0.264583px;stroke-linecap:butt;stroke-linejoin:miter;stroke-opacity:1"
         d="m 81.492851,31.923183 1.334011,-0.949182 -0.552485,-0.935736 0.26279,-1.051952 -1.651495,0.347877 -0.944033,1.121222 z"
         id="path1844" />
      <path
         style="fill:#800066;stroke-width:0.32002"
         d="m 79.737063,40.641482 c 0.006,-0.132003 0.211171,-0.600032 0.4554,-1.040059 0.385817,-0.695128 0.37782,-0.873508 -0.06096,-1.360089 -0.281529,-0.312221 -0.349796,-0.560042 -0.154263,-0.560042 0.192896,0 0.439736,0.144017 0.548509,0.32002 0.556094,0.899784 0.800056,0.02488 0.800056,-2.868929 0,-2.824167 -0.07076,-3.226804 -0.618371,-3.519898 -0.340097,-0.182011 -0.71701,-0.641749 -0.837588,-1.021638 -0.401782,-1.265894 2.025926,-2.411308 3.343091,-1.577289 0.36304,0.229865 0.324274,0.359713 -0.206358,0.691098 -0.650993,0.406546 -0.651053,0.409944 -0.01802,0.92255 0.626766,0.507518 0.624141,0.520489 -0.19367,0.958167 -0.805727,0.431215 -0.829035,0.532151 -0.829035,3.589822 0,2.854677 0.245788,3.722921 0.800056,2.826117 0.108736,-0.176003 0.355612,-0.32002 0.548508,-0.32002 0.195532,0 0.127268,0.247821 -0.154262,0.560042 -0.438757,0.486581 -0.446752,0.664961 -0.06095,1.360089 0.244228,0.440027 0.449158,0.908056 0.455399,1.040059 0.006,0.132012 -0.852718,0.240022 -1.908794,0.240022 -1.056064,0 -1.915024,-0.10801 -1.908783,-0.240022 z m 2.548829,-0.880054 c -0.219118,-0.264014 -0.535046,-0.480035 -0.702082,-0.480035 -0.167036,0 -0.519711,0.216021 -0.783728,0.480035 -0.426698,0.426703 -0.348684,0.480036 0.702084,0.480036 1.014492,0 1.125624,-0.06815 0.783726,-0.480036 z m -0.125935,-9.439897 c -0.03725,-1.049966 -0.393871,-1.193259 -1.307271,-0.525354 -0.518902,0.379415 -0.537056,0.501325 -0.141177,0.947879 0.771704,0.87049 1.486971,0.661841 1.448448,-0.422525 z"
         id="path1845"
         sodipodi:nodetypes="ssssssssssssssssscssssssssssss" />
    </g>
    <g
       id="g1848"
       transform="matrix(0.58796269,0,0,0.58796269,-13.28777,-16.891799)">
      <path
         style="fill:#800066;fill-opacity:0.5;stroke:none;stroke-width:0.264583px;stroke-linecap:butt;stroke-linejoin:miter;stroke-opacity:1"
         d="m 80.075441,40.521913 3.091323,-0.10029 -1.529226,-2.145506 z"
         id="path1846" />
      <path
         style="fill:#800066;fill-opacity:0.5;stroke:none;stroke-width:0.264583px;stroke-linecap:butt;stroke-linejoin:miter;stroke-opacity:1"
         d="m 81.492851,31.923183 1.334011,-0.949182 -0.552485,-0.935736 0.26279,-1.051952 -1.651495,0.347877 -0.944033,1.121222 z"
         id="path1847" />
      <path
         style="fill:#800066;stroke-width:0.32002"
         d="m 79.737063,40.641482 c 0.006,-0.132003 0.211171,-0.600032 0.4554,-1.040059 0.385817,-0.695128 0.37782,-0.873508 -0.06096,-1.360089 -0.281529,-0.312221 -0.349796,-0.560042 -0.154263,-0.560042 0.192896,0 0.439736,0.144017 0.548509,0.32002 0.556094,0.899784 0.800056,0.02488 0.800056,-2.868929 0,-2.824167 -0.07076,-3.226804 -0.618371,-3.519898 -0.340097,-0.182011 -0.71701,-0.641749 -0.837588,-1.021638 -0.401782,-1.265894 2.025926,-2.411308 3.343091,-1.577289 0.36304,0.229865 0.324274,0.359713 -0.206358,0.691098 -0.650993,0.406546 -0.651053,0.409944 -0.01802,0.92255 0.626766,0.507518 0.624141,0.520489 -0.19367,0.958167 -0.805727,0.431215 -0.829035,0.532151 -0.829035,3.589822 0,2.854677 0.245788,3.722921 0.800056,2.826117 0.108736,-0.176003 0.355612,-0.32002 0.548508,-0.32002 0.195532,0 0.127268,0.247821 -0.154262,0.560042 -0.438757,0.486581 -0.446752,0.664961 -0.06095,1.360089 0.244228,0.440027 0.449158,0.908056 0.455399,1.040059 0.006,0.132012 -0.852718,0.240022 -1.908794,0.240022 -1.056064,0 -1.915024,-0.10801 -1.908783,-0.240022 z m 2.548829,-0.880054 c -0.219118,-0.264014 -0.535046,-0.480035 -0.702082,-0.480035 -0.167036,0 -0.519711,0.216021 -0.783728,0.480035 -0.426698,0.426703 -0.348684,0.480036 0.702084,0.480036 1.014492,0 1.125624,-0.06815 0.783726,-0.480036 z m -0.125935,-9.439897 c -0.03725,-1.049966 -0.393871,-1.193259 -1.307271,-0.525354 -0.518902,0.379415 -0.537056,0.501325 -0.141177,0.947879 0.771704,0.87049 1.486971,0.661841 1.448448,-0.422525 z"
         id="path1848"
         sodipodi:nodetypes="ssssssssssssssssscssssssssssss" />
    </g>
    <g
       id="g1851"
       transform="matrix(0.58796269,0,0,0.58796269,-10.112882,-16.891799)">
      <path
         style="fill:#800066;fill-opacity:0.5;stroke:none;stroke-width:0.264583px;stroke-linecap:butt;stroke-linejoin:miter;stroke-opacity:1"
         d="m 80.075441,40.521913 3.091323,-0.10029 -1.529226,-2.145506 z"
         id="path1849" />
      <path
         style="fill:#800066;fill-opacity:0.5;stroke:none;stroke-width:0.264583px;stroke-linecap:butt;stroke-linejoin:miter;stroke-opacity:1"
         d="m 81.492851,31.923183 1.334011,-0.949182 -0.552485,-0.935736 0.26279,-1.051952 -1.651495,0.347877 -0.944033,1.121222 z"
         id="path1850" />
      <path
         style="fill:#800066;stroke-width:0.32002"
         d="m 79.737063,40.641482 c 0.006,-0.132003 0.211171,-0.600032 0.4554,-1.040059 0.385817,-0.695128 0.37782,-0.873508 -0.06096,-1.360089 -0.281529,-0.312221 -0.349796,-0.560042 -0.154263,-0.560042 0.192896,0 0.439736,0.144017 0.548509,0.32002 0.556094,0.899784 0.800056,0.02488 0.800056,-2.868929 0,-2.824167 -0.07076,-3.226804 -0.618371,-3.519898 -0.340097,-0.182011 -0.71701,-0.641749 -0.837588,-1.021638 -0.401782,-1.265894 2.025926,-2.411308 3.343091,-1.577289 0.36304,0.229865 0.324274,0.359713 -0.206358,0.691098 -0.650993,0.406546 -0.651053,0.409944 -0.01802,0.92255 0.626766,0.507518 0.624141,0.520489 -0.19367,0.958167 -0.805727,0.431215 -0.829035,0.532151 -0.829035,3.589822 0,2.854677 0.245788,3.722921 0.800056,2.826117 0.108736,-0.176003 0.355612,-0.32002 0.548508,-0.32002 0.195532,0 0.127268,0.247821 -0.154262,0.560042 -0.438757,0.486581 -0.446752,0.664961 -0.06095,1.360089 0.244228,0.440027 0.449158,0.908056 0.455399,1.040059 0.006,0.132012 -0.852718,0.240022 -1.908794,0.240022 -1.056064,0 -1.915024,-0.10801 -1.908783,-0.240022 z m 2.548829,-0.880054 c -0.219118,-0.264014 -0.535046,-0.480035 -0.702082,-0.480035 -0.167036,0 -0.519711,0.216021 -0.783728,0.480035 -0.426698,0.426703 -0.348684,0.480036 0.702084,0.480036 1.014492,0 1.125624,-0.06815 0.783726,-0.480036 z m -0.125935,-9.439897 c -0.03725,-1.049966 -0.393871,-1.193259 -1.307271,-0.525354 -0.518902,0.379415 -0.537056,0.501325 -0.141177,0.947879 0.771704,0.87049 1.486971,0.661841 1.448448,-0.422525 z"
         id="path1851"
         sodipodi:nodetypes="ssssssssssssssssscssssssssssss" />
    </g>
    <path
       style="fill:#442178;stroke-width:0.258108"
       d="M 41.698098,6.4859095 C 41.529204,6.1665007 41.06042,5.5012141 40.656334,5.0075016 39.812864,3.9769078 39.711967,2.9486439 40.393643,2.3316386 41.397908,1.4228607 42.610366,2.034799 42.456871,3.372999 c -0.067,0.5795196 -0.212893,0.7254045 -0.728274,0.7254045 -0.493683,0 -0.665477,-0.1516746 -0.730275,-0.6452773 -0.083,-0.6284279 -0.075,-0.6317878 0.305289,-0.1290455 0.455184,0.6021989 1.065663,0.2378917 0.792973,-0.4730533 -0.29079,-0.7578504 -1.658742,-0.3538876 -1.658742,0.4898427 0,0.1653742 0.464384,0.9842255 1.031964,1.8196561 0.56758,0.8354305 1.032063,1.6060735 1.032363,1.7125397 0,0.4125455 -0.512282,0.1652342 -0.804071,-0.3871564 z"
       id="path1852"
       sodipodi:nodetypes="ssssssssssss" />
    <path
       style="fill:#006680;stroke-width:0.258108"
       d="m 44.021316,5.8120977 c 0,-1.4141403 0.522982,-2.104866 1.593544,-2.104866 0.974866,0 1.503847,0.7561434 1.503847,2.1497144 0,1.5646249 -0.464084,1.5696348 -0.56668,0.006 -0.148195,-2.2606105 -1.815836,-2.2606105 -1.964031,0 -0.104196,1.5883441 -0.56668,1.5467456 -0.56668,-0.050898 z"
       id="path1853"
       sodipodi:nodetypes="csssscc" />
    <path
       style="fill:#006680;stroke-width:0.258108"
       d="m 48.254467,5.8120977 c 0,-1.4141403 0.522982,-2.104866 1.593544,-2.104866 0.974866,0 1.503847,0.7561434 1.503847,2.1497144 0,1.5646249 -0.464083,1.5696348 -0.56668,0.006 -0.148195,-2.2606105 -1.815836,-2.2606105 -1.964031,0 -0.104196,1.5883441 -0.56668,1.5467456 -0.56668,-0.050898 z"
       id="path1854"
       sodipodi:nodetypes="csssscc" />
    <path
       style="fill:#006680;stroke-width:0.258108"
       d="m 52.487618,5.8120977 c 0,-1.4141403 0.522982,-2.104866 1.593544,-2.104866 0.974866,0 1.503848,0.7561434 1.503848,2.1497144 0,1.5646249 -0.464084,1.5696348 -0.566681,0.006 -0.148194,-2.2606105 -1.815836,-2.2606105 -1.964031,0 -0.104196,1.5883441 -0.56668,1.5467456 -0.56668,-0.050898 z"
       id="path1855"
       sodipodi:nodetypes="csssscc" />
    <path
       style="fill:#217821;stroke-width:0.258108"
       d="m 56.327483,5.0315108 c 0,-1.2045077 0.107597,-2.0648675 0.258091,-2.0648675 0.150595,0 0.258091,0.8603598 0.258091,2.0648675 0,1.2045075 -0.107496,2.0648673 -0.258091,2.0648673 -0.150494,0 -0.258091,-0.8603598 -0.258091,-2.0648673 z"
       id="path1856"
       sodipodi:nodetypes="sssss" />
    <path
       style="fill:#217821;stroke-width:0.258108"
       d="m 57.385846,5.0315108 c 0,-1.2045077 0.107596,-2.0648675 0.258091,-2.0648675 0.150595,0 0.258091,0.8603598 0.258091,2.0648675 0,1.2045075 -0.107496,2.0648673 -0.258091,2.0648673 -0.150495,0 -0.258091,-0.8603598 -0.258091,-2.0648673 z"
       id="path1857"
       sodipodi:nodetypes="sssss" />
  </g>
</svg>
