<?xml version="1.0" encoding="UTF-8" standalone="no"?>
<!-- Created with Inkscape (http://www.inkscape.org/) -->

<svg
   width="6mm"
   height="6mm"
   viewBox="0 0 6 6"
   version="1.1"
   id="svg1"
   inkscape:version="1.4.2 (ebf0e940d0, 2025-05-08)"
   sodipodi:docname="5_1_1_18.svg"
   xmlns:inkscape="http://www.inkscape.org/namespaces/inkscape"
   xmlns:sodipodi="http://sodipodi.sourceforge.net/DTD/sodipodi-0.dtd"
   xmlns="http://www.w3.org/2000/svg"
   xmlns:svg="http://www.w3.org/2000/svg">
  <sodipodi:namedview
     id="namedview1"
     pagecolor="#ffffff"
     bordercolor="#000000"
     borderopacity="0.25"
     inkscape:showpageshadow="2"
     inkscape:pageopacity="0.0"
     inkscape:pagecheckerboard="0"
     inkscape:deskcolor="#d1d1d1"
     inkscape:document-units="mm"
     inkscape:zoom="24.136173"
     inkscape:cx="22.766658"
     inkscape:cy="12.926656"
     inkscape:window-width="1920"
     inkscape:window-height="1014"
     inkscape:window-x="0"
     inkscape:window-y="0"
     inkscape:window-maximized="1"
     inkscape:current-layer="layer1" />
  <defs
     id="defs1">
    <rect
       x="13.485725"
       y="-52.819092"
       width="225.2477"
       height="118.63495"
       id="rect1" />
    <rect
       x="37.795277"
       y="37.795277"
       width="483.77954"
       height="718.11023"
       id="rect2721" />
    <rect
       x="37.795277"
       y="37.795277"
       width="483.77954"
       height="718.11023"
       id="rect2722" />
    <rect
       x="37.795277"
       y="37.795277"
       width="483.77954"
       height="718.11023"
       id="rect2723" />
    <rect
       x="37.795277"
       y="37.795277"
       width="483.77954"
       height="718.11023"
       id="rect2724" />
    <rect
       x="37.795277"
       y="37.795277"
       width="483.77954"
       height="718.11023"
       id="rect2725" />
    <rect
       x="37.795277"
       y="37.795277"
       width="483.77954"
       height="718.11023"
       id="rect2726" />
    <rect
       x="37.795277"
       y="37.795277"
       width="483.77954"
       height="718.11023"
       id="rect2727" />
    <rect
       x="37.795277"
       y="37.795277"
       width="483.77954"
       height="718.11023"
       id="rect2728" />
    <rect
       x="37.795277"
       y="37.795277"
       width="483.77954"
       height="718.11023"
       id="rect2729" />
    <rect
       x="37.795277"
       y="37.795277"
       width="483.77954"
       height="718.11023"
       id="rect2730" />
    <rect
       x="37.795277"
       y="37.795277"
       width="483.77954"
       height="718.11023"
       id="rect2731" />
    <rect
       x="37.795277"
       y="37.795277"
       width="483.77954"
       height="718.11023"
       id="rect2732" />
    <rect
       x="37.795277"
       y="37.795277"
       width="483.77954"
       height="718.11023"
       id="rect2733" />
    <rect
       x="37.795277"
       y="37.795277"
       width="483.77954"
       height="718.11023"
       id="rect2734" />
  </defs>
  <g
     inkscape:label="Katman 1"
     inkscape:groupmode="layer"
     id="layer1">
    <g
       id="g16"
       transform="matrix(0.74998444,0,0,0.74998444,-719.27888,-57.375201)">
      <path
         style="fill:#e6e6e6;fill-opacity:1;stroke:none;stroke-width:0.264999;stroke-dasharray:none"
         d="m 964.31062,84.004088 0.3715,-0.154593 1.18353,-0.629492 0.39402,-0.07902 0.39529,-0.341133 0.11065,-0.328205 -0.0543,-0.456078 -0.0535,-0.467744 0.0784,-0.649515 0.24522,-0.551857 -0.0663,-0.655846 -0.41339,-0.734576 -0.51575,-0.471398 -0.17164,0.317987 -0.29847,0.150947 -0.25525,-0.141083 -0.15121,-0.355074 -0.0746,-0.837824 -0.50461,-0.375169 -0.6001,-0.206041 -0.654,-0.03355 -0.69813,0.100428 -0.72583,0.395824 -0.43058,0.254863 -1.04339,0.154302 -0.53062,0.292275 -0.4703,0.510783 -0.22529,0.635778 -0.0498,0.786749 -0.007,0.649841 0.16619,0.562522 0.23654,0.582549 0.58152,0.514745 0.88133,0.510074 0.85474,0.564306 0.94639,0.221591 1.33566,0.290071 z"
         id="path4020" />
      <ellipse
         style="fill:#b3b3b3;fill-opacity:1;stroke:none;stroke-width:0.264999;stroke-dasharray:none"
         id="path4021"
         cx="964.12134"
         cy="81.542152"
         rx="0.87460333"
         ry="0.84756535" />
      <ellipse
         style="fill:#b3b3b3;fill-opacity:1;stroke:none;stroke-width:0.11371;stroke-dasharray:none"
         id="ellipse4021"
         cx="965.474"
         cy="80.377884"
         rx="0.3752901"
         ry="0.36368817" />
      <ellipse
         style="fill:#b3b3b3;fill-opacity:1;stroke:none;stroke-width:0.084124;stroke-dasharray:none"
         id="ellipse4022"
         cx="965.64856"
         cy="81.48745"
         rx="0.27764419"
         ry="0.26906094" />
      <ellipse
         style="fill:#b3b3b3;fill-opacity:1;stroke:none;stroke-width:0.084124;stroke-dasharray:none"
         id="ellipse4023"
         cx="964.5755"
         cy="83.031418"
         rx="0.27764419"
         ry="0.26906094" />
      <ellipse
         style="fill:#b3b3b3;fill-opacity:1;stroke:none;stroke-width:0.117393;stroke-dasharray:none"
         id="ellipse4024"
         cx="960.04254"
         cy="80.817307"
         rx="0.38744709"
         ry="0.37546936" />
      <ellipse
         style="fill:#b3b3b3;fill-opacity:1;stroke:none;stroke-width:0.108851;stroke-dasharray:none"
         id="ellipse4025"
         cx="960.98834"
         cy="79.875557"
         rx="0.35925579"
         ry="0.34814957" />
      <path
         style="fill:#b3b3b3;fill-opacity:1;stroke:none;stroke-width:0.264999;stroke-dasharray:none"
         d="m 961.57578,82.638021 -0.21995,-0.214966 -0.0283,-0.150236 0.27483,-0.06409 0.31527,0.09811 0.0342,0.225357 -0.11599,0.103803 z"
         id="path4026" />
      <path
         style="fill:#b3b3b3;fill-opacity:1;stroke:none;stroke-width:0.264999;stroke-dasharray:none"
         d="m 959.32732,78.854233 0.41767,0.228505 0.3773,0.0016 0.3433,-0.200464 0.15793,-0.267084 0.0386,-0.373176 -0.15957,-0.351766 -0.35388,0.09275 -0.51326,0.349213 z"
         id="path4027" />
      <path
         style="fill:#b3b3b3;fill-opacity:1;stroke:none;stroke-width:0.264999;stroke-dasharray:none"
         d="m 962.17577,80.337955 0.28848,0.362826 0.30975,-0.04295 -0.004,-0.241342 -0.12833,-0.101743 z"
         id="path4028" />
      <path
         style="fill:#b3b3b3;fill-opacity:1;stroke:none;stroke-width:0.264999;stroke-dasharray:none"
         d="m 962.55378,78.503057 0.26525,0.290078 0.21926,-0.0046 0.12573,-0.184182 -0.14161,-0.159131 -0.31832,-0.05018 z"
         id="path4029" />
      <path
         style="fill:#b3b3b3;fill-opacity:1;stroke:none;stroke-width:0.264999;stroke-dasharray:none"
         d="m 963.21577,77.999832 0.25239,0.182955 0.19365,-0.06036 0.0479,-0.156845 -0.21405,-0.17196 -0.20408,0.09384 z"
         id="path4030" />
      <ellipse
         style="fill:#b3b3b3;fill-opacity:1;stroke:none;stroke-width:0.264999;stroke-dasharray:none"
         id="path4031"
         cx="964.14758"
         cy="78.836945"
         rx="0.13560434"
         ry="0.13658419" />
      <path
         id="path3922"
         style="fill:#000000;stroke-width:0.132094"
         d="m 967.05856,80.157324 c 10e-4,-0.307688 -0.12375,-0.664677 -0.36372,-1.026104 -0.13518,-0.203701 -0.65231,-0.747459 -0.71079,-0.747459 -0.0177,0 -0.0663,0.07454 -0.10637,0.165596 -0.18444,0.417013 -0.4436,0.43912 -0.63222,0.05393 -0.0706,-0.143992 -0.0826,-0.225011 -0.0877,-0.586431 l -0.006,-0.41933 -0.1874,-0.154265 c -0.22595,-0.185932 -0.67532,-0.402175 -0.93893,-0.45189 -0.87155,-0.164375 -1.51749,-0.02191 -2.2533,0.496941 -0.21084,0.14867 -0.30866,0.196492 -0.40191,0.196592 -0.17439,1.96e-4 -0.71688,0.09213 -0.94462,0.160078 -0.82097,0.244941 -1.25035,0.796825 -1.36092,1.749124 -10e-4,0.01537 -0.004,0.02041 -0.006,0.02377 l -2.8e-4,0.0046 10e-4,1.233273 c 6.3e-4,0.0016 10e-4,0.004 10e-4,0.0095 0.0316,0.224999 0.19449,0.710227 0.32362,0.964872 0.17498,0.344901 0.36997,0.513062 0.95067,0.819611 0.19231,0.101476 0.58113,0.354882 0.86424,0.563089 0.31951,0.234964 0.54681,0.378507 0.59922,0.378507 0.0465,0 0.18443,0.03079 0.30655,0.06839 0.12211,0.03761 0.41084,0.108488 0.64153,0.157477 0.23066,0.04899 0.5192,0.120476 0.64118,0.158839 0.27224,0.08567 0.63119,0.121828 0.88943,0.08956 0.15724,-0.0197 0.26173,-0.06768 0.54951,-0.252499 0.46487,-0.298563 0.7992,-0.454742 1.11422,-0.520423 0.14083,-0.02935 0.31786,-0.08494 0.3934,-0.123492 0.21241,-0.108369 0.40465,-0.328209 0.471,-0.538717 0.0548,-0.173812 0.0545,-0.199326 -0.004,-0.424585 -0.0804,-0.314324 -0.10621,-0.781521 -0.0575,-1.043576 0.0215,-0.115336 0.093,-0.320866 0.15903,-0.456735 0.066,-0.135867 0.13042,-0.324659 0.14305,-0.419534 0.006,-0.04182 0.007,-0.0847 0.007,-0.128676 z m -0.14995,-0.02607 c 0,0.250323 -0.0134,0.319075 -0.0832,0.436873 -0.24256,0.40801 -0.30177,0.903773 -0.18069,1.512191 0.0652,0.327956 0.0712,0.410452 0.0358,0.516737 -0.0924,0.279843 -0.36143,0.478253 -0.76379,0.56336 -0.35138,0.07432 -0.70454,0.239874 -1.17539,0.551006 l -0.31455,0.207853 -0.33203,0.01278 c -0.23203,0.0089 -0.38989,-0.004 -0.52424,-0.04246 -0.10562,-0.03041 -0.32591,-0.088 -0.4893,-0.128052 -0.16335,-0.04004 -0.44647,-0.111207 -0.62908,-0.158167 -0.18266,-0.04694 -0.41065,-0.09711 -0.50678,-0.111415 -0.14857,-0.02209 -0.24816,-0.08052 -0.66403,-0.389362 -0.26914,-0.199846 -0.65445,-0.451136 -0.85629,-0.558445 -0.74226,-0.394634 -0.87107,-0.541648 -1.11361,-1.271024 l -0.14469,-0.434686 0.006,-0.572028 c 0.006,-0.637426 0.0104,-0.677007 0.0851,-1.034498 0.0593,-0.277932 0.0936,-0.323031 0.18385,-0.241305 0.1083,0.09819 0.31391,0.16199 0.52121,0.16199 0.54102,0 0.93092,-0.578041 0.72399,-1.073272 -0.0388,-0.09302 -0.0425,-0.134024 -0.0134,-0.15202 0.0425,-0.02632 0.40405,-0.08576 0.74805,-0.123016 0.14484,-0.01576 0.23676,-0.04694 0.29709,-0.100971 0.26261,-0.235178 0.78048,-0.503962 1.15333,-0.598649 0.1803,-0.04577 0.31379,-0.05299 0.64603,-0.03482 0.48786,0.0267 0.86025,0.136178 1.17581,0.345607 0.31191,0.207049 0.32662,0.232392 0.31487,0.542403 -0.0322,0.851655 0.46659,1.342727 0.87744,0.863777 0.0336,-0.03904 0.0706,-0.106379 0.0823,-0.149636 0.0119,-0.04326 0.0321,-0.07864 0.0452,-0.07864 0.0331,0 0.38952,0.373135 0.52213,0.546636 0.0609,0.07958 0.16965,0.268317 0.24179,0.419396 0.11973,0.250788 0.13117,0.30053 0.13117,0.571756 z m -0.9255,1.378469 c 0.004,-0.239228 -0.25887,-0.461433 -0.52103,-0.316119 -0.0459,0.02546 -0.10444,0.0839 -0.12984,0.129835 -0.1937,0.34957 0.26593,0.700366 0.54806,0.418237 0.0706,-0.07055 0.10146,-0.152218 0.1028,-0.231952 z m -0.0844,-1.156347 c -0.004,-0.101372 -0.0429,-0.203593 -0.12582,-0.286491 -0.19774,-0.197737 -0.52051,-0.163133 -0.6633,0.07105 -0.18858,0.309329 0.0119,0.657354 0.37912,0.657354 0.25353,0 0.41813,-0.218904 0.41005,-0.441923 z m -0.0562,1.146994 c 0,0.178994 -0.2415,0.272344 -0.36152,0.139729 -0.0765,-0.08441 -0.0735,-0.225598 0.006,-0.297621 0.13846,-0.125378 0.35543,-0.02907 0.35543,0.157892 z m -0.071,-1.142897 c 0.0119,0.109855 -0.0489,0.215945 -0.17655,0.281986 -0.12003,0.06201 -0.22132,0.04286 -0.33803,-0.06397 -0.055,-0.05033 -0.0779,-0.109543 -0.0759,-0.196927 0.004,-0.169891 0.0223,-0.205389 0.1383,-0.26547 0.14781,-0.0764 0.23673,-0.06363 0.3508,0.05045 0.0606,0.06073 0.094,0.128022 0.10102,0.193931 z m -0.71846,1.189247 c 0.004,-0.572039 -0.43322,-0.993123 -0.98841,-0.953268 -0.27978,0.02008 -0.46908,0.109706 -0.64642,0.306015 -0.13652,0.151231 -0.18858,0.252299 -0.23408,0.455029 -0.0636,0.283872 0.0437,0.629126 0.26294,0.84521 0.20826,0.205351 0.34278,0.255729 0.68276,0.25564 0.26465,-7.1e-5 0.31533,-0.01099 0.46444,-0.100213 0.30189,-0.180651 0.45666,-0.453362 0.45877,-0.808418 z m -0.12137,-0.03665 c 0.004,0.185891 -0.0572,0.37843 -0.19958,0.544929 -0.16513,0.192787 -0.35836,0.285312 -0.59941,0.286766 -0.32167,0.0019 -0.60162,-0.163035 -0.74132,-0.436872 -0.27681,-0.542579 0.10919,-1.175568 0.71871,-1.17846 0.48397,-0.0024 0.81202,0.374661 0.8216,0.783637 z m -0.033,1.502906 c 0,-0.123922 -0.0177,-0.164807 -0.10756,-0.239869 -0.15054,-0.126596 -0.32044,-0.122229 -0.45434,0.01159 -0.14113,0.141006 -0.14113,0.31874 0,0.459739 0.22122,0.221232 0.56185,0.08084 0.56185,-0.231543 z m -0.12256,-0.0011 c 10e-4,0.03409 -0.006,0.06989 -0.0296,0.104789 -0.0663,0.100912 -0.1669,0.129182 -0.27291,0.07659 -0.10324,-0.05119 -0.1285,-0.23157 -0.0441,-0.315912 0.1288,-0.128765 0.33812,-0.01322 0.34669,0.134544 z m -0.40164,-4.191231 c 0,-0.07958 -0.14425,-0.227174 -0.22194,-0.227174 -0.0423,0 -0.11216,0.0245 -0.15467,0.0544 -0.0544,0.03802 -0.0777,0.09007 -0.0777,0.17277 0,0.130934 0.0985,0.227171 0.23242,0.227171 0.0778,0 0.22193,-0.147587 0.22193,-0.227171 z m -0.15724,4.77e-4 c 0,0.04413 -0.027,0.07328 -0.0741,0.08 -0.081,0.01159 -0.12776,-0.06077 -0.0845,-0.130712 0.0412,-0.06676 0.15863,-0.02926 0.15863,0.05072 z m -0.43687,-0.823162 c 0,-0.154247 -0.10874,-0.243284 -0.29709,-0.243284 -0.11067,0 -0.17792,0.02071 -0.22716,0.06989 -0.16848,0.168493 -0.0325,0.419397 0.22716,0.419397 0.17853,0 0.29709,-0.09819 0.29709,-0.246013 z m -0.1227,-0.01538 c 0.004,0.01774 -0.006,0.03602 -0.027,0.06478 -0.0548,0.07478 -0.20922,0.08662 -0.28711,0.02199 -0.0713,-0.05926 -0.0662,-0.09145 0.0253,-0.155429 0.0995,-0.06972 0.14187,-0.0685 0.23461,0.0067 0.0331,0.02684 0.0505,0.04413 0.0544,0.06192 z m -0.43606,0.674012 c 0.006,-0.06894 -0.0158,-0.143606 -0.0615,-0.200826 -0.1181,-0.14573 -0.55962,-0.17466 -0.63722,-0.04177 -0.0478,0.08197 -0.0435,0.113524 0.033,0.238776 0.13295,0.218254 0.3905,0.294093 0.57898,0.170582 0.0526,-0.03452 0.0822,-0.09781 0.0869,-0.166759 z m -0.14009,-0.02662 c 0.001,0.03898 -0.0207,0.07697 -0.0731,0.104982 -0.094,0.05029 -0.25123,-0.0104 -0.32717,-0.126284 -0.0838,-0.127919 -0.063,-0.155015 0.11869,-0.155015 0.16099,0 0.27832,0.09059 0.28153,0.176315 z m -0.2065,1.889061 c -6.3e-4,-0.076 -0.0294,-0.155467 -0.0851,-0.207923 -0.0973,-0.0914 -0.37892,-0.134143 -0.52098,-0.07906 -0.0783,0.0303 -0.0958,0.05866 -0.0948,0.151743 0.001,0.121887 0.10398,0.270828 0.23236,0.33714 0.1086,0.05606 0.2966,0.04875 0.38764,-0.01497 0.0548,-0.03843 0.0817,-0.110894 0.0808,-0.186895 z m -0.14261,-0.01655 c -10e-4,0.04892 -0.029,0.0961 -0.079,0.114682 -0.0899,0.03338 -0.15567,0.01674 -0.24786,-0.06266 -0.082,-0.07058 -0.13177,-0.162896 -0.10325,-0.191409 0.0352,-0.03531 0.28824,-0.02552 0.36219,0.01396 0.0478,0.02567 0.0701,0.0764 0.068,0.125319 z m -0.69661,1.98674 c 5.4e-4,-0.0722 -0.0276,-0.149142 -0.0844,-0.206079 -0.0845,-0.08462 -0.36429,-0.155606 -0.40315,-0.102323 -0.0119,0.01655 -0.0605,0.0343 -0.1077,0.03959 -0.0472,0.0053 -0.0982,0.02886 -0.11305,0.05241 -0.0627,0.09877 -0.007,0.200885 0.10636,0.196592 l 0.0924,-0.0036 -0.0874,-0.02797 c -0.0481,-0.01538 -0.0639,-0.02974 -0.0349,-0.03194 0.0466,-0.0036 0.0466,-0.0079 0,-0.03796 -0.0435,-0.02818 -0.0406,-0.03439 0.0177,-0.03687 0.0677,-0.003 0.068,-0.0037 10e-4,-0.02935 -0.0551,-0.02163 -0.0578,-0.03007 -0.0134,-0.04676 0.0291,-0.01129 0.0753,-0.0062 0.10221,0.01084 0.027,0.01714 0.0888,0.03146 0.13756,0.03175 0.20216,0.0013 0.32213,0.200755 0.16966,0.28233 -0.0584,0.0312 -0.1022,0.02687 -0.20662,-0.02022 -0.0729,-0.03289 -0.15369,-0.05141 -0.17932,-0.04116 -0.0255,0.01025 -0.007,0.02102 0.0406,0.02389 0.0807,0.0048 0.082,0.0074 0.0177,0.03524 -0.0625,0.02681 -0.0631,0.0303 -0.006,0.03249 0.0346,0.0013 0.0542,0.01714 0.0431,0.03495 -0.0542,0.0877 0.29244,0.105383 0.42054,0.02144 0.0578,-0.03778 0.0869,-0.10522 0.0875,-0.177418 z m -0.63182,-2.586348 c 0,-0.420293 -0.51128,-0.59314 -0.7493,-0.253316 -0.03,0.04284 -0.0545,0.138109 -0.0545,0.211676 0,0.269401 0.16295,0.42921 0.43016,0.422196 0.19015,-0.0049 0.37367,-0.191921 0.37367,-0.380556 z m -0.13964,-0.0077 c 0,0.234185 -0.25924,0.349661 -0.43211,0.192493 -0.10518,-0.09556 -0.13296,-0.19068 -0.0887,-0.302601 0.11572,-0.292119 0.52077,-0.206477 0.52077,0.110108 z m -0.66836,-1.567004 c 5.2e-4,0.03036 -4e-4,0.06203 -0.001,0.09488 -0.03,0.414107 -0.40901,0.688304 -0.81143,0.586978 -0.0841,-0.0212 -0.20268,-0.08028 -0.26327,-0.131336 l -0.11008,-0.09291 0.1019,-0.159802 c 0.12627,-0.198047 0.34661,-0.381348 0.61934,-0.51544 0.34655,-0.170384 0.35893,-0.170935 0.42254,-0.01872 0.0273,0.06574 0.0422,0.14524 0.0437,0.236322 z m -0.13384,2.464979 c -0.007,-0.168671 -0.11973,-0.327541 -0.31011,-0.38424 -0.13934,-0.04152 -0.34366,0.0067 -0.30355,0.07153 0.0119,0.0197 -10e-4,0.02585 -0.0313,0.01441 -0.0349,-0.01337 -0.0772,0.0197 -0.12419,0.09653 -0.0902,0.148032 -0.0905,0.29482 -6.4e-4,0.442125 0.14877,0.244027 0.47287,0.270423 0.66289,0.05398 0.0777,-0.08833 0.11111,-0.193064 0.1068,-0.294274 z m -0.12315,0.01426 c 10e-4,0.03803 -0.006,0.07648 -0.023,0.113048 -0.0983,0.204658 -0.33069,0.241973 -0.48376,0.07768 -0.0398,-0.04274 -0.0709,-0.123922 -0.0709,-0.185261 0,-0.12627 0.10161,-0.251164 0.23072,-0.283556 0.17162,-0.0431 0.34014,0.113316 0.34697,0.278097 z" />
    </g>
  </g>
</svg>
