<?xml version="1.0" encoding="UTF-8" standalone="no"?>
<!-- Created with Inkscape (http://www.inkscape.org/) -->

<svg
   width="16.422001mm"
   height="19.704mm"
   viewBox="0 0 16.422001 19.704001"
   version="1.1"
   id="svg1"
   inkscape:version="1.4.2 (ebf0e940d0, 2025-05-08)"
   sodipodi:docname="5_1_1_68.svg"
   xmlns:inkscape="http://www.inkscape.org/namespaces/inkscape"
   xmlns:sodipodi="http://sodipodi.sourceforge.net/DTD/sodipodi-0.dtd"
   xmlns="http://www.w3.org/2000/svg"
   xmlns:svg="http://www.w3.org/2000/svg">
  <sodipodi:namedview
     id="namedview1"
     pagecolor="#ffffff"
     bordercolor="#000000"
     borderopacity="0.25"
     inkscape:showpageshadow="2"
     inkscape:pageopacity="0.0"
     inkscape:pagecheckerboard="0"
     inkscape:deskcolor="#d1d1d1"
     inkscape:document-units="mm"
     inkscape:zoom="2.6972018"
     inkscape:cx="66.550452"
     inkscape:cy="72.297149"
     inkscape:window-width="1075"
     inkscape:window-height="991"
     inkscape:window-x="26"
     inkscape:window-y="23"
     inkscape:window-maximized="0"
     inkscape:current-layer="layer1" />
  <defs
     id="defs1">
    <rect
       x="-26.458582"
       y="130.73653"
       width="155.86105"
       height="46.469273"
       id="rect2" />
    <rect
       x="13.485725"
       y="-52.819092"
       width="225.2477"
       height="118.63495"
       id="rect1" />
    <rect
       x="37.795277"
       y="37.795277"
       width="483.77954"
       height="718.11023"
       id="rect2721" />
    <rect
       x="37.795277"
       y="37.795277"
       width="483.77954"
       height="718.11023"
       id="rect2722" />
    <rect
       x="37.795277"
       y="37.795277"
       width="483.77954"
       height="718.11023"
       id="rect2723" />
    <rect
       x="37.795277"
       y="37.795277"
       width="483.77954"
       height="718.11023"
       id="rect2724" />
    <rect
       x="37.795277"
       y="37.795277"
       width="483.77954"
       height="718.11023"
       id="rect2725" />
    <rect
       x="37.795277"
       y="37.795277"
       width="483.77954"
       height="718.11023"
       id="rect2726" />
    <rect
       x="37.795277"
       y="37.795277"
       width="483.77954"
       height="718.11023"
       id="rect2727" />
    <rect
       x="37.795277"
       y="37.795277"
       width="483.77954"
       height="718.11023"
       id="rect2728" />
    <rect
       x="37.795277"
       y="37.795277"
       width="483.77954"
       height="718.11023"
       id="rect2729" />
    <rect
       x="37.795277"
       y="37.795277"
       width="483.77954"
       height="718.11023"
       id="rect2730" />
    <rect
       x="37.795277"
       y="37.795277"
       width="483.77954"
       height="718.11023"
       id="rect2731" />
    <rect
       x="37.795277"
       y="37.795277"
       width="483.77954"
       height="718.11023"
       id="rect2732" />
    <rect
       x="37.795277"
       y="37.795277"
       width="483.77954"
       height="718.11023"
       id="rect2733" />
    <rect
       x="37.795277"
       y="37.795277"
       width="483.77954"
       height="718.11023"
       id="rect2734" />
    <rect
       x="37.795277"
       y="37.795277"
       width="483.77954"
       height="718.11023"
       id="rect6439" />
    <rect
       x="37.795277"
       y="37.795277"
       width="483.77954"
       height="718.11023"
       id="rect6440" />
    <rect
       x="37.795277"
       y="37.795277"
       width="483.77954"
       height="718.11023"
       id="rect6441" />
    <rect
       x="37.795277"
       y="37.795277"
       width="483.77954"
       height="718.11023"
       id="rect6442" />
    <rect
       x="37.795277"
       y="37.795277"
       width="483.77954"
       height="718.11023"
       id="rect2743" />
    <rect
       x="37.795277"
       y="37.795277"
       width="483.77954"
       height="718.11023"
       id="rect2744" />
    <rect
       x="37.795277"
       y="37.795277"
       width="483.77954"
       height="718.11023"
       id="rect2745" />
    <rect
       x="37.795277"
       y="37.795277"
       width="483.77954"
       height="718.11023"
       id="rect6403" />
    <rect
       x="37.795277"
       y="37.795277"
       width="483.77954"
       height="718.11023"
       id="rect6443" />
    <rect
       x="37.795277"
       y="37.795277"
       width="483.77954"
       height="718.11023"
       id="rect6444" />
    <rect
       x="37.795277"
       y="37.795277"
       width="483.77954"
       height="718.11023"
       id="rect6445" />
    <rect
       x="37.795277"
       y="37.795277"
       width="483.77954"
       height="718.11023"
       id="rect6446" />
    <rect
       x="37.795277"
       y="37.795277"
       width="483.77954"
       height="718.11023"
       id="rect6469" />
    <rect
       x="37.795277"
       y="37.795277"
       width="483.77954"
       height="718.11023"
       id="rect6470" />
    <rect
       x="37.795277"
       y="37.795277"
       width="483.77954"
       height="718.11023"
       id="rect6471" />
    <rect
       x="37.795277"
       y="37.795277"
       width="483.77954"
       height="718.11023"
       id="rect6472" />
    <rect
       x="-26.458582"
       y="130.73653"
       width="155.86105"
       height="46.469273"
       id="rect30" />
    <rect
       x="-26.458582"
       y="130.73653"
       width="155.86105"
       height="46.469273"
       id="rect31" />
    <rect
       x="-26.458582"
       y="130.73653"
       width="155.86105"
       height="46.469273"
       id="rect32" />
    <rect
       x="-26.458582"
       y="130.73653"
       width="155.86105"
       height="46.469273"
       id="rect33" />
    <rect
       x="-26.458582"
       y="130.73653"
       width="155.86105"
       height="46.469273"
       id="rect34" />
    <rect
       x="-26.458582"
       y="130.73653"
       width="155.86105"
       height="46.469273"
       id="rect35" />
    <rect
       x="-26.458582"
       y="130.73653"
       width="155.86105"
       height="46.469273"
       id="rect38" />
    <rect
       x="-26.458582"
       y="130.73653"
       width="155.86105"
       height="46.469273"
       id="rect39" />
    <rect
       x="-26.458582"
       y="130.73653"
       width="155.86105"
       height="46.469273"
       id="rect40" />
    <rect
       x="-26.458582"
       y="130.73653"
       width="155.86105"
       height="46.469273"
       id="rect42" />
    <rect
       x="-26.458582"
       y="130.73653"
       width="155.86105"
       height="46.469273"
       id="rect43" />
    <rect
       x="-26.458582"
       y="130.73653"
       width="155.86105"
       height="46.469273"
       id="rect44" />
    <rect
       x="-26.458582"
       y="130.73653"
       width="155.86105"
       height="46.469273"
       id="rect46" />
    <rect
       x="-26.458582"
       y="130.73653"
       width="155.86105"
       height="46.469273"
       id="rect47" />
    <rect
       x="-26.458582"
       y="130.73653"
       width="155.86105"
       height="46.469273"
       id="rect48" />
  </defs>
  <g
     inkscape:label="Katman 1"
     inkscape:groupmode="layer"
     id="layer1">
    <g
       id="g13"
       transform="translate(-1534.0568,-140.94045)">
      <path
         style="fill:#aade87;fill-opacity:1;stroke-width:0.264999"
         d="m 1535.1767,153.47727 0.6271,0.67393 1.1463,0.7614 3.2098,2.05457 2.0451,1.28029 1.3137,0.78419 1.1118,0.10191 0.9704,-0.27723 0.6614,-0.45801 0.4475,-0.56014 0.069,-0.46222 -0.4175,-0.47994 -1.4307,-1.00586 -1.4886,-0.86812 -1.529,-0.97552 -1.5446,-0.94774 -1.7098,-1.22515 -1.3389,-1.10355 -0.6253,-0.45668 -0.6297,-0.004 -0.5798,0.25649 -0.5239,0.5294 -0.2779,0.7406 0.034,0.75445 z"
         id="path83" />
      <path
         style="fill:#deaa87;fill-opacity:1;stroke-width:0.264999"
         d="m 1545.2182,156.05834 -0.6473,-0.37795 0.3182,-0.14076 0.6156,-0.0342 0.092,0.16283 -0.1349,0.19352 z"
         id="path81" />
      <path
         style="fill:#deaa87;fill-opacity:1;stroke-width:0.264999"
         d="m 1537.1366,150.60068 0.6195,0.57425 0.1947,-0.15431 -0.2008,-0.40191 -0.4091,-0.12143 z"
         id="path79" />
      <path
         style="fill:#ffe6d5;fill-opacity:1;stroke-width:0.264999"
         d="m 1541.2784,154.07839 0.1677,0.16053 0.3121,0.0237 0.2017,-0.17567 -0.041,-0.53105 -0.3479,-0.0698 -0.2991,0.18345 -0.024,0.25801 z"
         id="path78" />
      <path
         style="fill:#ffe6d5;fill-opacity:1;stroke-width:0.264999"
         d="m 1534.1705,151.13866 0.2031,-0.0651 0.5211,-0.52941 0.1102,-0.25329 -0.065,-0.19801 -0.3698,0.2336 -0.3626,0.37806 -0.083,0.33455 z"
         id="path77" />
      <path
         style="fill:#ffe6d5;fill-opacity:1;stroke-width:0.264999"
         d="m 1541.4222,146.03219 0.7305,0.27333 1.1799,-0.0162 0.8148,-0.35223 0.7543,-0.7252 0.3662,-0.69578 0.097,-0.79323 -0.1028,-0.7143 -0.3579,-0.78539 -0.8028,-0.83415 -1.1345,-0.40996 -0.7803,0.06 -0.837,0.20359 -0.7113,0.53268 -0.5591,0.90965 -0.2077,0.83632 0.052,0.84833 0.368,0.73125 0.9103,0.85574 z"
         id="path76" />
      <path
         style="fill:#ffe680;fill-opacity:1;stroke-width:0.264999"
         d="m 1535.8084,153.91397 0.2644,-0.43801 0.4407,0.0999 0.6446,0.5573 -0.1459,0.40639 -0.3293,0.28037 -0.4131,-0.22055 -0.3379,-0.39269 z"
         id="path86" />
      <path
         style="fill:#cccccc;fill-opacity:1;stroke-width:0.264999"
         d="m 1536.2359,153.0822 0.4458,0.33598 -0.2434,0.39729 0.2387,0.19744 0.2707,-0.37862 0.6233,0.39618 0.5094,-0.83318 -1.3515,-0.80526 z"
         id="path84" />
      <path
         style="fill:#ffe680;fill-opacity:1;stroke-width:0.264999"
         d="m 1542.9253,158.6774 0.3801,-0.50145 0.3367,0.0424 0.5819,0.32442 0.1726,0.24722 -0.2507,0.5195 -0.3599,0.004 -0.6854,-0.33332 -0.1408,-0.16484 z"
         id="path88" />
      <path
         style="fill:#cccccc;fill-opacity:1;stroke-width:0.264999"
         d="m 1543.7302,158.51732 0.221,0.11843 0.2003,-0.34744 0.1071,-0.1211 0.3823,0.24715 0.2631,-0.29958 0.1314,-0.26703 -1.0937,-0.75017 -0.5291,0.64103 0.4257,0.31205 z"
         id="path85" />
      <path
         style="fill:#ffe680;fill-opacity:1;stroke-width:0.264999"
         d="m 1536.7427,152.16378 0.2319,-0.36333 0.3683,0.0232 0.6842,0.49245 0.069,0.25481 -0.039,0.25106 -0.2256,0.22677 -0.3172,-0.0215 -0.5825,-0.36706 -0.1738,-0.28973 z"
         id="path87" />
      <path
         style="fill:#ffe680;fill-opacity:1;stroke-width:0.264999"
         d="m 1543.9417,157.09758 0.1401,0.27306 0.5711,0.37692 0.3493,0.0775 0.2115,-0.23605 0.1155,-0.37189 -0.342,-0.40432 -0.4828,-0.27048 -0.2787,0.0544 -0.2365,0.35676 z"
         id="path89" />
      <path
         style="fill:#000000;stroke-width:0.135516"
         d="m 1546.4435,160.24102 c -0.7973,-0.45357 -0.9118,-0.52749 -0.8497,-0.54821 0.08,-0.0268 1.2509,0.63978 1.5412,0.87759 0.1912,0.15654 0.015,0.0726 -0.6915,-0.32938 z m 2.0078,-0.16257 c -0.3155,-0.19679 -0.5977,-0.37279 -0.6271,-0.39111 -0.029,-0.0183 -0.043,-0.044 -0.03,-0.0571 0.039,-0.0384 1.2028,0.66859 1.2639,0.76734 0.05,0.0814 -0.047,0.0304 -0.6071,-0.3191 z m 1.1833,-0.93806 c -0.6141,-0.35104 -1.3426,-0.83113 -1.5598,-1.02784 -0.1905,-0.17262 -0.1484,-0.19483 0.075,-0.0397 0.5279,0.36594 0.9329,0.62958 1.3631,0.88742 0.5089,0.30503 0.6715,0.41892 0.6413,0.44918 -0.01,0.01 -0.2439,-0.1112 -0.5199,-0.26904 z m -5.8347,0.21856 c -0.1786,-0.0421 -0.5798,-0.22597 -0.7011,-0.32123 -0.054,-0.0421 -0.1252,-0.1335 -0.1591,-0.20299 -0.055,-0.11282 -0.056,-0.1372 -0.01,-0.22763 0.071,-0.13684 0.145,-0.18225 0.109,-0.0666 -0.073,0.23372 -0.067,0.27148 0.057,0.36635 0.2142,0.16341 0.6577,0.35288 0.8411,0.35934 0.1557,0.005 0.1769,-0.004 0.2525,-0.11494 0.046,-0.0665 0.076,-0.13236 0.067,-0.14632 -0.01,-0.0139 -0.1092,-0.0462 -0.2236,-0.0716 -0.3844,-0.0855 -0.9069,-0.41589 -0.9069,-0.57336 0,-0.0711 0.1675,-0.24093 0.2028,-0.20562 0.013,0.0131 -0.01,0.0565 -0.042,0.0965 -0.064,0.0712 -0.063,0.0755 0.057,0.19972 0.161,0.1665 0.5761,0.36929 0.813,0.39712 0.2201,0.0258 0.2431,-0.0163 0.094,-0.17201 -0.065,-0.0675 -0.086,-0.1188 -0.069,-0.16331 0.022,-0.0568 0.04,-0.0482 0.1481,0.0691 0.1214,0.1322 0.157,0.25316 0.087,0.29633 -0.02,0.0122 -0.036,0.0575 -0.036,0.10072 0,0.0639 0.01,0.0685 0.036,0.0248 0.028,-0.0438 0.035,-0.0444 0.036,-0.004 0,0.0875 -0.1834,0.29582 -0.3078,0.34781 -0.1331,0.0556 -0.1543,0.0563 -0.3452,0.0113 z m 2.1164,-0.17438 c 0.5531,-0.15812 1.0953,-0.54107 1.2741,-0.89985 0.102,-0.20477 0.1687,-0.17908 0.073,0.028 -0.1565,0.33665 -0.7413,0.76319 -1.2159,0.8868 -0.2941,0.0766 -0.4062,0.0639 -0.1308,-0.0149 z m -1.4112,-0.057 c 0.039,-0.029 0.1166,-0.0526 0.174,-0.0526 0.1351,0 0.6816,-0.18337 0.9495,-0.31862 0.578,-0.29176 1.0837,-0.86337 1.0837,-1.22482 0,-0.37559 -0.7346,-0.97591 -2.2588,-1.8459 -1.2242,-0.69868 -1.7237,-1.00397 -2.1196,-1.29546 -0.1699,-0.12506 -0.3222,-0.22738 -0.3383,-0.22738 -0.016,0 -0.063,0.03 -0.1035,0.0667 -0.1345,0.12129 -0.2877,0.15064 -0.4671,0.0895 -0.1494,-0.0509 -0.1653,-0.0686 -0.2218,-0.24794 -0.047,-0.15029 -0.052,-0.21243 -0.021,-0.28032 0.048,-0.10576 0.034,-0.11928 -0.3679,-0.36185 -1.2758,-0.76915 -2.4798,-1.63047 -3.3395,-2.38893 -0.3667,-0.32354 -0.7092,-0.61112 -0.7611,-0.63908 -0.06,-0.0325 -0.1961,-0.0498 -0.3752,-0.0479 -0.2508,0.002 -0.3127,0.0182 -0.5806,0.14679 -0.4961,0.23804 -0.7548,0.53096 -0.9291,1.05189 -0.1239,0.37046 -0.1259,0.74377 -0.01,1.08994 0.1872,0.5401 0.3041,0.73408 0.6502,1.07854 0.2172,0.21617 0.3316,0.40796 0.2015,0.33771 -0.099,-0.0536 -0.5983,-0.58506 -0.6926,-0.73767 -0.1373,-0.22224 -0.3141,-0.69376 -0.3564,-0.95072 -0.1274,-0.77376 0.3225,-1.60888 1.0532,-1.95513 0.5495,-0.26044 0.9878,-0.26075 1.3284,-0.001 0.1071,0.0817 0.1305,0.0865 0.2331,0.0477 0.1126,-0.0425 0.1316,-0.0394 0.3739,0.0617 0.057,0.0236 0.063,-0.001 0.063,-0.24998 0,-0.37175 0.1397,-2.68856 0.173,-2.86886 0.05,-0.26756 0.1151,-0.17468 0.3295,0.46612 0.2366,0.70673 0.8229,2.35281 0.9446,2.65187 l 0.083,0.20465 0.023,-0.60358 c 0.025,-0.67347 0.077,-1.01497 0.243,-1.60231 0.1397,-0.49473 0.2925,-0.91838 0.5309,-1.47187 0.1011,-0.23475 0.1755,-0.43518 0.1652,-0.44539 -0.01,-0.0102 -0.4632,0.20204 -1.0067,0.47165 -0.5435,0.26962 -0.9952,0.49021 -1.0038,0.49021 -0.01,0 -0.016,-0.0231 -0.016,-0.0514 0,-0.0316 0.4167,-0.25703 1.0847,-0.58681 l 1.0846,-0.53548 0.1882,-0.32486 c 0.1036,-0.17867 0.1883,-0.34254 0.1883,-0.36416 0,-0.0216 -0.1173,-0.16468 -0.2606,-0.31794 -0.2772,-0.29641 -0.5035,-0.67795 -0.5861,-0.98857 -0.027,-0.10082 -0.049,-0.34662 -0.049,-0.54623 0,-1.07585 0.6401,-2.19722 1.5035,-2.62906 0.2137,-0.10686 0.3646,-0.14688 0.8984,-0.23821 0.4382,-0.075 1.2971,-0.046 1.712,0.0577 0.405,0.10121 2.1754,0.99977 1.9752,1.00249 -0.033,4.5e-4 -0.3855,-0.1611 -0.7836,-0.35899 -1.0235,-0.50869 -1.443,-0.67336 -1.0383,-0.40762 0.108,0.0709 0.261,0.18074 0.3398,0.24404 0.079,0.0633 0.2322,0.16838 0.3407,0.23352 0.1084,0.0651 0.3181,0.21103 0.4661,0.32421 0.1479,0.11319 0.406,0.29615 0.5737,0.40661 0.4218,0.27797 0.4516,0.30123 0.4229,0.3306 -0.071,0.0728 -0.4986,-0.17906 -1.0235,-0.60293 -0.1627,-0.13137 -0.2959,-0.23 -0.2959,-0.21917 0,0.0109 0.05,0.0915 0.1099,0.17927 0.1414,0.20563 0.3123,0.57166 0.379,0.81182 0.029,0.10389 0.062,0.38251 0.073,0.61916 0.018,0.36617 0.01,0.47566 -0.055,0.73503 -0.099,0.39422 -0.2763,0.74232 -0.545,1.06709 -0.2704,0.32669 -0.545,0.54546 -0.9123,0.727 -0.436,0.21541 -0.6732,0.26646 -1.2371,0.2662 -0.6828,-3e-4 -1.0621,-0.10896 -1.6425,-0.47053 -0.1441,-0.0898 -0.2677,-0.1575 -0.2747,-0.15045 -0.01,0.007 -0.086,0.15288 -0.1754,0.32404 -0.1861,0.356 -0.1873,0.33275 0.043,0.81824 0.4547,0.95951 1.0278,2.62645 1.4054,4.08768 0.091,0.35028 0.085,0.64808 -0.036,1.82169 -0.037,0.36601 -0.058,0.68193 -0.046,0.70207 0.012,0.0201 0.032,0.14198 0.043,0.27079 l 0.02,0.23418 0.4471,0.30286 c 0.6129,0.41523 1.6628,1.0434 1.6935,1.0133 0.014,-0.0135 0.01,-0.21824 -0.01,-0.45485 -0.018,-0.2366 -0.034,-1.235 -0.034,-2.21867 v -1.78849 l -0.1345,0.0239 c -0.074,0.0132 -0.4974,0.0784 -0.9412,0.14483 -0.6848,0.10262 -0.8144,0.11346 -0.8579,0.0717 -0.069,-0.0664 -0.074,-0.0651 0.7145,-0.17586 0.3648,-0.0512 0.7969,-0.11918 0.96,-0.15099 0.1632,-0.0318 0.3084,-0.0462 0.3227,-0.0319 0.014,0.0143 0.03,0.71441 0.034,1.55583 0.01,1.39425 0.053,2.68081 0.1062,3.02845 0.017,0.10931 0.046,0.14864 0.1454,0.19987 0.1205,0.0618 0.1288,0.0616 0.2711,-0.009 0.1025,-0.0507 0.242,-0.0772 0.4625,-0.0877 0.3592,-0.0172 0.4232,0.0113 0.4232,0.18856 0,0.11375 -0.1083,0.25041 -0.2636,0.33263 -0.058,0.0305 -0.028,0.0619 0.2217,0.23693 0.3326,0.23311 0.8604,0.66987 1.0531,0.87151 0.073,0.0764 0.1584,0.2007 0.1899,0.27626 0.052,0.12398 0.052,0.15556 0,0.32419 -0.03,0.10275 -0.1196,0.27792 -0.1993,0.38928 -0.1638,0.22877 -0.6246,0.61329 -0.9299,0.77602 -0.3281,0.17489 -0.8267,0.32741 -1.0661,0.32611 -0.1923,-10e-4 -0.2041,-0.005 -0.1403,-0.0538 z m 0.882,-3.28035 c 0.1655,-0.0844 0.1954,-0.21916 0.064,-0.28933 -0.1201,-0.0643 -0.7469,0.0257 -0.7469,0.10722 0,0.0404 0.3983,0.25243 0.4764,0.25359 0.036,5.4e-4 0.1281,-0.0316 0.2062,-0.0715 z m -3.5537,-1.70724 c 0.1076,-0.13671 0.104,-0.42503 -0.01,-0.51709 -0.2257,-0.18828 -0.5289,0.007 -0.5289,0.3414 0,0.1057 0.02,0.14008 0.1166,0.19885 0.1672,0.102 0.3272,0.0931 0.4186,-0.0232 z m -0.4011,-0.65849 c 0.073,-0.0394 0.1937,-0.0717 0.2671,-0.0717 0.1225,0 0.135,-0.01 0.1533,-0.11653 0.032,-0.19022 0.1225,-1.12738 0.1473,-1.53281 l 0.023,-0.37648 -0.2171,-0.78882 c -0.2516,-0.91454 -0.5266,-1.75657 -0.8545,-2.61744 -0.2618,-0.68737 -0.5819,-1.38686 -0.623,-1.36145 -0.051,0.0313 -0.4605,1.03633 -0.6066,1.48752 -0.08,0.24619 -0.1884,0.63317 -0.2414,0.85995 -0.088,0.3779 -0.097,0.47671 -0.098,1.18323 0,0.70609 0.01,0.79576 0.083,1.06669 0.062,0.21638 0.1005,0.29571 0.1435,0.29545 0.032,-1.4e-4 0.5092,-0.0809 1.0597,-0.17928 1.0592,-0.18933 1.2196,-0.20738 1.1953,-0.13444 -0.01,0.0248 -0.1641,0.0714 -0.3525,0.10538 -1.1076,0.19971 -2.0466,0.35817 -2.0566,0.34705 -0.015,-0.0172 -0.2044,-0.45892 -0.4046,-0.9451 -0.1564,-0.38005 -0.5849,-1.54753 -0.8685,-2.36645 -0.075,-0.21692 -0.1601,-0.45088 -0.1887,-0.5199 l -0.052,-0.12549 -0.022,0.23306 c -0.012,0.12818 -0.05,0.77896 -0.084,1.44618 l -0.062,1.21312 0.1047,0.19374 c 0.1067,0.19747 0.1012,0.29143 -0.019,0.33163 -0.028,0.009 -0.037,-5.8e-4 -0.022,-0.0243 0.038,-0.0626 -0.085,-0.28715 -0.208,-0.3786 -0.1337,-0.0991 -0.3357,-0.17175 -0.3616,-0.13 -0.051,0.0823 1.0464,1.0046 2.0136,1.69242 0.5929,0.42171 1.9172,1.27391 1.9924,1.28218 0.015,0.002 0.087,-0.0293 0.1609,-0.0687 z m 1.9666,-7.2786 c 0.4934,-0.1247 0.779,-0.28928 1.1442,-0.65946 0.3552,-0.36004 0.5264,-0.64091 0.669,-1.09748 0.069,-0.22245 0.083,-0.34016 0.079,-0.68125 -0.01,-0.80446 -0.2817,-1.42188 -0.8796,-1.99432 -0.3899,-0.37328 -0.7596,-0.57155 -1.2565,-0.67381 -0.2368,-0.0487 -0.9129,-0.0783 -0.7365,-0.0322 0.034,0.009 0.063,0.0335 0.063,0.0546 0,0.0253 -0.075,0.0305 -0.2241,0.0155 -1.0202,-0.10339 -1.9896,0.80136 -2.2647,2.11359 l -0.051,0.24626 0.241,0.23487 c 0.2728,0.26587 0.6377,0.46613 1.0086,0.55355 0.3468,0.0817 1.0948,0.11249 1.361,0.056 0.2465,-0.0523 0.3019,-0.0344 0.167,0.054 -0.2507,0.16424 -1.1974,0.14529 -1.7683,-0.0354 -0.3312,-0.10484 -0.8017,-0.40351 -0.9277,-0.589 l -0.087,-0.12789 v 0.23761 c 0,0.48399 0.2526,1.02997 0.6736,1.45603 0.4498,0.45512 0.9156,0.72984 1.4418,0.85025 0.1479,0.0339 0.2851,0.0667 0.3048,0.073 0.1354,0.0434 0.7911,0.009 1.043,-0.0545 z m -1.735,-3.19832 c -0.064,-0.0639 -0.051,-0.31313 0.026,-0.48109 0.2101,-0.46286 0.6494,-0.24949 0.4532,0.22015 -0.1056,0.25276 -0.3525,0.3873 -0.4788,0.26094 z m -0.8836,-0.32351 c -0.2009,-0.28676 0.2455,-0.83804 0.4848,-0.59875 0.061,0.061 0.071,0.10067 0.051,0.20548 -0.036,0.19348 -0.1157,0.32441 -0.2441,0.4027 -0.1491,0.0909 -0.2234,0.0885 -0.292,-0.009 z m 1.7834,-0.27515 c -0.036,-0.0633 -0.1334,-0.22133 -0.2178,-0.35117 -0.084,-0.12985 -0.1446,-0.24492 -0.1338,-0.25572 0.037,-0.0375 0.3033,0.25778 0.4021,0.44659 0.077,0.14707 0.09,0.19939 0.057,0.23257 -0.033,0.0332 -0.057,0.0169 -0.1071,-0.0723 z m -1.6958,-0.57372 c 0,-0.0621 0.1292,-0.11086 0.3569,-0.13465 0.1519,-0.0159 0.2168,-0.0104 0.2168,0.0183 0,0.0225 -0.01,0.041 -0.01,0.0411 -0.045,0.001 -0.4436,0.0738 -0.4965,0.0905 -0.037,0.0119 -0.068,0.005 -0.068,-0.0153 z m 1.6311,16.65456 c -0.1378,-0.0853 -0.6298,-0.38578 -1.0932,-0.66781 -0.965,-0.58722 -1.7677,-1.09242 -3.1195,-1.96316 -1.0818,-0.69689 -1.4341,-0.93799 -1.4341,-0.98143 0,-0.0769 0.1518,-0.011 0.5003,0.21682 1.5118,0.98844 2.9731,1.91857 4.2023,2.67472 1.2594,0.77478 1.2809,0.78944 1.231,0.83953 -0.024,0.0245 -0.1177,-0.0141 -0.2868,-0.11867 z m 1.2643,0.10239 c -0.1193,-0.0657 -0.1218,-0.0975 -0.019,-0.24371 0.1181,-0.16874 0.5047,-0.59715 0.539,-0.59715 0.051,0 -0.04,0.1361 -0.2648,0.39758 -0.196,0.22771 -0.2472,0.35538 -0.1425,0.35538 0.019,0 0.1649,-0.15328 0.3252,-0.34063 0.2916,-0.34095 0.3617,-0.3953 0.3587,-0.27787 0,0.10753 -0.082,0.24999 -0.2261,0.40366 -0.1662,0.17806 -0.2146,0.16214 -0.08,-0.0262 0.077,-0.10699 0.062,-0.0978 -0.068,0.0437 -0.1017,0.11074 -0.1609,0.20659 -0.1549,0.25099 0.012,0.0927 -0.1292,0.11078 -0.2681,0.0343 z m 0.7266,-0.19381 c -0.1113,-0.0855 -0.07,-0.13615 0.062,-0.0761 0.092,0.0421 0.1051,0.0368 0.2131,-0.0919 0.063,-0.0752 0.1257,-0.12586 0.139,-0.11255 0.029,0.0285 -0.2363,0.34808 -0.2888,0.34863 -0.02,2.7e-4 -0.076,-0.0304 -0.1249,-0.0681 z m 0.071,-0.19587 c 0,-0.0312 0.026,-0.0568 0.057,-0.0568 0.063,0 0.053,0.0772 -0.014,0.0994 -0.023,0.008 -0.043,-0.0114 -0.043,-0.0426 z m -0.8035,-0.0747 c 0.013,-0.0522 0.01,-0.0896 -0.015,-0.0896 -0.049,0 -0.2576,-0.1767 -0.2576,-0.21832 0,-0.0538 0.054,-0.0377 0.1948,0.0576 l 0.133,0.0903 0.1553,-0.17096 c 0.1894,-0.20859 0.2552,-0.18165 0.081,0.0333 -0.069,0.0849 -0.1516,0.20679 -0.1841,0.27088 -0.07,0.13803 -0.1402,0.1555 -0.108,0.0269 z m 0.9808,-0.28507 c -0.4729,-0.17422 -0.8227,-0.49211 -0.8227,-0.74765 0,-0.0474 0.04,-0.14094 0.088,-0.20795 0.048,-0.067 0.114,-0.17315 0.1463,-0.23586 0.1101,-0.21371 0.3506,-0.22053 0.6978,-0.0198 0.2355,0.13609 0.4944,0.39166 0.5214,0.51459 0.075,0.34256 -0.4158,0.41528 -0.7733,0.11453 -0.1235,-0.10397 -0.1446,-0.1911 -0.026,-0.10534 0.3957,0.28484 0.7598,0.30486 0.6928,0.0381 -0.053,-0.20969 -0.6178,-0.58939 -0.8773,-0.58939 -0.1448,0 -0.146,0.0748 -0.01,0.29775 0.1269,0.20006 0.089,0.21571 -0.1024,0.0426 l -0.1391,-0.12578 -0.058,0.0887 c -0.032,0.0488 -0.058,0.14432 -0.058,0.21236 0,0.10229 0.029,0.14915 0.1671,0.27071 0.1938,0.17069 0.5781,0.37003 0.7134,0.37003 0.06,0 0.1438,-0.0493 0.2339,-0.13725 0.1756,-0.17152 0.1842,-0.0937 0.013,0.11563 -0.138,0.16843 -0.1968,0.18329 -0.4118,0.10407 z m -1.3605,-0.0916 c 0,-0.0515 0.4205,-0.48699 0.446,-0.46185 0.012,0.0121 -0.06,0.11992 -0.1616,0.23955 -0.1771,0.2094 -0.2844,0.29329 -0.2844,0.2223 z m 0.2951,-0.007 c 0.022,-0.0665 0.099,-0.0775 0.099,-0.0142 0,0.0312 -0.026,0.0568 -0.057,0.0568 -0.031,0 -0.05,-0.0191 -0.043,-0.0425 z m -4.9942,-0.73539 c -0.2651,-0.21097 -0.7402,-0.56742 -1.0557,-0.79212 -0.5669,-0.40373 -0.8222,-0.61355 -0.7881,-0.64765 0.01,-0.01 0.054,0.0155 0.098,0.056 0.044,0.0404 0.3226,0.23925 0.6184,0.44181 0.736,0.504 1.4163,1.03171 1.6101,1.24897 0.1508,0.16906 -0.025,0.0571 -0.4827,-0.30699 z m 6.0674,-0.0108 c -0.1151,-0.10515 -0.1243,-0.17933 -0.022,-0.17933 0.079,0 0.2825,0.19739 0.253,0.24515 -0.041,0.0671 -0.1052,0.0489 -0.2308,-0.0658 z m 3.2845,-0.81609 c -0.578,-0.40017 -2.4812,-1.85188 -2.5732,-1.96269 -0.089,-0.10774 -0.01,-0.0898 0.1831,0.0404 0.5226,0.35599 2.8287,2.10818 2.8287,2.14933 0,0.0534 -0.133,-0.0155 -0.4386,-0.22708 z m -9.1568,-1.24431 c -0.6262,-0.41691 -0.8446,-0.59295 -0.7358,-0.59295 0.054,0 1.2058,0.78709 1.363,0.93153 0.086,0.0793 0.1429,0.14356 0.1256,0.14286 -0.017,-5.8e-4 -0.3561,-0.21735 -0.7528,-0.48144 z m -2.4065,-0.16143 c -0.3093,-0.14042 -0.6909,-0.60648 -0.6909,-0.84393 0,-0.0416 0.04,-0.1303 0.09,-0.19713 0.05,-0.0668 0.09,-0.14741 0.09,-0.17907 0,-0.14126 0.2178,-0.19085 0.3944,-0.0898 0.049,0.0282 0.1076,0.0518 0.1296,0.0525 0.022,5.8e-4 0.1231,-0.1107 0.2249,-0.24756 0.1616,-0.21734 0.2991,-0.32863 0.347,-0.28081 0.027,0.0274 -0.5397,0.85178 -0.5862,0.85206 -0.034,2.7e-4 -0.037,-0.0172 -0.01,-0.0691 0.02,-0.0382 0.037,-0.0757 0.037,-0.0835 0,-0.0284 -0.3589,-0.18138 -0.3789,-0.16146 -0.039,0.0392 0.2173,0.48319 0.3431,0.59393 0.099,0.087 0.4288,0.22756 0.507,0.21593 0.043,-0.006 0.095,-0.0396 0.1164,-0.074 0.033,-0.0517 0.013,-0.0886 -0.1113,-0.21309 -0.1432,-0.14323 -0.1539,-0.1476 -0.2177,-0.0899 -0.1014,0.0918 -0.1313,0.0728 -0.06,-0.0379 0.2276,-0.35255 0.5697,-0.80502 0.5816,-0.76926 0.01,0.0235 -0.075,0.17504 -0.1848,0.3369 l -0.1991,0.29428 0.1603,0.1536 c 0.1809,0.17338 0.2049,0.28948 0.084,0.40988 -0.1201,0.12011 -0.4023,0.0816 -0.6611,-0.0903 -0.163,-0.10822 -0.1985,-0.14884 -0.1827,-0.20909 0.015,-0.0559 -0.019,-0.10866 -0.131,-0.20912 -0.1385,-0.12358 -0.1556,-0.12986 -0.2133,-0.0783 -0.1277,0.11397 -0.051,0.32823 0.2241,0.62962 0.193,0.21121 0.4034,0.34751 0.5365,0.34751 0.04,0 0.1331,-0.0663 0.2063,-0.14729 0.076,-0.0837 0.1393,-0.12867 0.1475,-0.10417 0.021,0.0634 -0.2834,0.35916 -0.3689,0.35824 -0.04,-4.1e-4 -0.1415,-0.0318 -0.225,-0.0697 z m 0.9297,-0.79317 c -0.2012,-0.14801 -0.2069,-0.24229 -0.01,-0.14105 0.078,0.0399 0.1487,0.0724 0.157,0.0724 0.01,0 0.107,-0.12233 0.2196,-0.27184 0.1125,-0.14951 0.2136,-0.26285 0.2245,-0.25187 0.011,0.011 -0.061,0.13734 -0.1596,0.2808 -0.099,0.14346 -0.1909,0.29714 -0.2047,0.34151 -0.033,0.10431 -0.049,0.10219 -0.2284,-0.03 z m -0.3905,-0.18586 c 0.038,-0.10551 0.3167,-0.49925 0.3379,-0.47812 0.026,0.0258 -0.2036,0.40372 -0.2922,0.48131 -0.065,0.0567 -0.067,0.0565 -0.045,-0.003 z m 0.4353,-0.0293 c -0.031,-0.0498 0.037,-0.11998 0.087,-0.0894 0.041,0.0254 0.015,0.12839 -0.033,0.12839 -0.016,0 -0.041,-0.0176 -0.054,-0.039 z m -1.077,-0.52292 c -0.072,-0.0666 -0.089,-0.10067 -0.055,-0.1118 0.053,-0.0176 0.2249,0.0971 0.2475,0.16494 0.025,0.076 -0.086,0.0452 -0.1922,-0.0531 z m 1.4196,0.062 c 0,-0.0186 0.016,-0.0437 0.036,-0.0559 0.02,-0.0122 0.036,0.003 0.036,0.0337 0,0.0308 -0.016,0.0559 -0.036,0.0559 -0.02,0 -0.036,-0.0152 -0.036,-0.0337 z m 0.2206,-0.0369 c 0.01,-0.0468 0.033,-0.0918 0.057,-0.0999 0.064,-0.0212 0.055,0.0813 -0.012,0.13749 -0.05,0.0414 -0.056,0.0367 -0.045,-0.0376 z m -1.5831,-0.1983 c 0,-0.0296 0.024,-0.0538 0.054,-0.0538 0.03,0 0.054,0.0242 0.054,0.0538 0,0.0296 -0.024,0.0538 -0.054,0.0538 -0.03,0 -0.054,-0.0242 -0.054,-0.0538 z m -0.1462,-0.11191 c 0.1,-0.17656 0.3488,-0.46829 0.3762,-0.44096 0.024,0.0244 -0.359,0.54662 -0.4159,0.56645 -0.022,0.007 -0.01,-0.049 0.04,-0.12549 z m 1.0559,0.0233 c -0.2692,-0.13454 -0.4892,-0.32173 -0.5645,-0.48034 -0.073,-0.15411 -0.075,-0.35835 -0.01,-0.41706 0.047,-0.0385 0.054,-0.0239 0.054,0.10495 0,0.19491 0.071,0.32649 0.2602,0.48141 0.1931,0.1583 0.5464,0.34587 0.6515,0.34587 0.044,0 0.1188,-0.0418 0.1667,-0.0929 0.2003,-0.21417 0.2922,-0.17973 0.1011,0.0379 -0.098,0.11158 -0.1316,0.12674 -0.2811,0.12674 -0.1166,0 -0.2367,-0.0334 -0.3831,-0.10654 z m 0.2532,-0.30143 c -0.191,-0.0889 -0.4458,-0.29089 -0.4458,-0.35332 0,-0.0202 -0.057,-0.0993 -0.1255,-0.17567 -0.2024,-0.22399 -0.1456,-0.42633 0.1191,-0.42475 0.1712,0.001 0.3652,0.0921 0.6422,0.30154 0.375,0.28351 0.4766,0.48889 0.3194,0.64604 -0.1165,0.1165 -0.2685,0.11835 -0.5094,0.006 z m 0.46,-0.0671 c 0.032,-0.0846 -0.039,-0.19479 -0.2431,-0.37669 -0.3234,-0.28835 -0.7216,-0.47504 -0.7871,-0.36908 -0.034,0.0546 0.1263,0.35989 0.2573,0.49085 0.066,0.0661 0.1963,0.1598 0.2894,0.20827 0.1833,0.0954 0.4549,0.12161 0.4835,0.0466 z m -0.5562,-0.24416 c -0.068,-0.0402 -0.086,-0.19463 -0.027,-0.23088 0.064,-0.0397 0.2548,0.10016 0.2435,0.17881 -0.012,0.0819 -0.1218,0.10833 -0.2165,0.0521 z m 12.6248,-0.58357 c -0.1705,-0.12157 -0.4513,-0.33398 -0.624,-0.47203 -0.1727,-0.13804 -0.3841,-0.30497 -0.4698,-0.37094 -0.1663,-0.12796 -0.1816,-0.22482 -0.02,-0.12358 0.053,0.0333 0.2823,0.20709 0.5091,0.38632 0.2268,0.17924 0.5188,0.40949 0.649,0.51166 0.4504,0.35356 0.4202,0.4 -0.044,0.0686 z m -16.0131,-0.58541 c -0.069,-0.0278 -0.053,-0.24961 0.029,-0.41151 0.1084,-0.21233 0.3413,-0.45111 0.607,-0.62218 0.1282,-0.0825 0.5092,-0.41073 0.8467,-0.72935 1.031,-0.97325 1.9173,-1.69118 2.0877,-1.69118 0.087,0 -0.012,0.11053 -0.1879,0.21001 -0.3393,0.19153 -0.9301,0.69217 -1.9666,1.66649 l -0.4572,0.42976 v 0.17077 c 0,0.14047 -0.023,0.20147 -0.1298,0.34383 -0.1966,0.26215 -0.373,0.44005 -0.5495,0.55408 -0.1593,0.10296 -0.1956,0.11325 -0.2798,0.0793 z m 0.4811,-0.39132 c 0.2799,-0.28819 0.3818,-0.44342 0.3636,-0.55407 -0.011,-0.0661 -0.015,-0.0661 -0.155,-0.003 -0.2478,0.11155 -0.6264,0.56346 -0.6268,0.74819 0,0.15862 0.1417,0.0937 0.4182,-0.19097 z m 13.2215,-0.77273 c -0.4407,-0.30748 -3.0302,-2.4242 -3.0538,-2.49634 -0.041,-0.12379 0.1539,0.004 0.7687,0.50365 0.3711,0.30166 1.0538,0.85693 1.5173,1.23393 0.8274,0.67318 1.0893,0.90675 1.0166,0.90675 -0.02,0 -0.1321,-0.0666 -0.2488,-0.14799 z m 1.8137,-2.46303 c -0.664,-0.46752 -3.1272,-2.29918 -3.181,-2.3655 -0.024,-0.0296 -0.036,-0.067 -0.026,-0.0832 0.024,-0.0384 0.6084,0.38501 2.9017,2.10099 0.8325,0.62293 0.8185,0.6116 0.8025,0.65311 -0.01,0.0195 -0.2315,-0.11794 -0.4978,-0.30538 z m -0.2509,-2.59308 c -0.2466,-0.19664 -0.6338,-0.49981 -0.8606,-0.67371 -0.6324,-0.48492 -1.082,-0.90445 -1.0276,-0.95886 0.012,-0.0116 0.1413,0.0911 0.2882,0.22827 0.1469,0.13717 0.5387,0.45793 0.8707,0.71279 0.9887,0.75886 1.3422,1.06775 1.2043,1.05209 -0.015,-0.002 -0.2285,-0.16395 -0.475,-0.36058 z"
         id="path2079" />
    </g>
  </g>
</svg>
