<?xml version="1.0" encoding="UTF-8" standalone="no"?>
<!-- Created with Inkscape (http://www.inkscape.org/) -->

<svg
   width="21.448mm"
   height="20.417mm"
   viewBox="0 0 21.448 20.417"
   version="1.1"
   id="svg1"
   inkscape:version="1.4.2 (ebf0e940d0, 2025-05-08)"
   sodipodi:docname="5_1_1_65.svg"
   xmlns:inkscape="http://www.inkscape.org/namespaces/inkscape"
   xmlns:sodipodi="http://sodipodi.sourceforge.net/DTD/sodipodi-0.dtd"
   xmlns="http://www.w3.org/2000/svg"
   xmlns:svg="http://www.w3.org/2000/svg">
  <sodipodi:namedview
     id="namedview1"
     pagecolor="#ffffff"
     bordercolor="#000000"
     borderopacity="0.25"
     inkscape:showpageshadow="2"
     inkscape:pageopacity="0.0"
     inkscape:pagecheckerboard="0"
     inkscape:deskcolor="#d1d1d1"
     inkscape:document-units="mm"
     inkscape:zoom="2.6972018"
     inkscape:cx="75.263186"
     inkscape:cy="88.981106"
     inkscape:window-width="1075"
     inkscape:window-height="991"
     inkscape:window-x="26"
     inkscape:window-y="23"
     inkscape:window-maximized="0"
     inkscape:current-layer="layer1" />
  <defs
     id="defs1">
    <rect
       x="-26.458582"
       y="130.73653"
       width="155.86105"
       height="46.469273"
       id="rect2" />
    <rect
       x="13.485725"
       y="-52.819092"
       width="225.2477"
       height="118.63495"
       id="rect1" />
    <rect
       x="37.795277"
       y="37.795277"
       width="483.77954"
       height="718.11023"
       id="rect2721" />
    <rect
       x="37.795277"
       y="37.795277"
       width="483.77954"
       height="718.11023"
       id="rect2722" />
    <rect
       x="37.795277"
       y="37.795277"
       width="483.77954"
       height="718.11023"
       id="rect2723" />
    <rect
       x="37.795277"
       y="37.795277"
       width="483.77954"
       height="718.11023"
       id="rect2724" />
    <rect
       x="37.795277"
       y="37.795277"
       width="483.77954"
       height="718.11023"
       id="rect2725" />
    <rect
       x="37.795277"
       y="37.795277"
       width="483.77954"
       height="718.11023"
       id="rect2726" />
    <rect
       x="37.795277"
       y="37.795277"
       width="483.77954"
       height="718.11023"
       id="rect2727" />
    <rect
       x="37.795277"
       y="37.795277"
       width="483.77954"
       height="718.11023"
       id="rect2728" />
    <rect
       x="37.795277"
       y="37.795277"
       width="483.77954"
       height="718.11023"
       id="rect2729" />
    <rect
       x="37.795277"
       y="37.795277"
       width="483.77954"
       height="718.11023"
       id="rect2730" />
    <rect
       x="37.795277"
       y="37.795277"
       width="483.77954"
       height="718.11023"
       id="rect2731" />
    <rect
       x="37.795277"
       y="37.795277"
       width="483.77954"
       height="718.11023"
       id="rect2732" />
    <rect
       x="37.795277"
       y="37.795277"
       width="483.77954"
       height="718.11023"
       id="rect2733" />
    <rect
       x="37.795277"
       y="37.795277"
       width="483.77954"
       height="718.11023"
       id="rect2734" />
    <rect
       x="37.795277"
       y="37.795277"
       width="483.77954"
       height="718.11023"
       id="rect6439" />
    <rect
       x="37.795277"
       y="37.795277"
       width="483.77954"
       height="718.11023"
       id="rect6440" />
    <rect
       x="37.795277"
       y="37.795277"
       width="483.77954"
       height="718.11023"
       id="rect6441" />
    <rect
       x="37.795277"
       y="37.795277"
       width="483.77954"
       height="718.11023"
       id="rect6442" />
    <rect
       x="37.795277"
       y="37.795277"
       width="483.77954"
       height="718.11023"
       id="rect2743" />
    <rect
       x="37.795277"
       y="37.795277"
       width="483.77954"
       height="718.11023"
       id="rect2744" />
    <rect
       x="37.795277"
       y="37.795277"
       width="483.77954"
       height="718.11023"
       id="rect2745" />
    <rect
       x="37.795277"
       y="37.795277"
       width="483.77954"
       height="718.11023"
       id="rect6403" />
    <rect
       x="37.795277"
       y="37.795277"
       width="483.77954"
       height="718.11023"
       id="rect6443" />
    <rect
       x="37.795277"
       y="37.795277"
       width="483.77954"
       height="718.11023"
       id="rect6444" />
    <rect
       x="37.795277"
       y="37.795277"
       width="483.77954"
       height="718.11023"
       id="rect6445" />
    <rect
       x="37.795277"
       y="37.795277"
       width="483.77954"
       height="718.11023"
       id="rect6446" />
    <rect
       x="37.795277"
       y="37.795277"
       width="483.77954"
       height="718.11023"
       id="rect6469" />
    <rect
       x="37.795277"
       y="37.795277"
       width="483.77954"
       height="718.11023"
       id="rect6470" />
    <rect
       x="37.795277"
       y="37.795277"
       width="483.77954"
       height="718.11023"
       id="rect6471" />
    <rect
       x="37.795277"
       y="37.795277"
       width="483.77954"
       height="718.11023"
       id="rect6472" />
    <rect
       x="-26.458582"
       y="130.73653"
       width="155.86105"
       height="46.469273"
       id="rect30" />
    <rect
       x="-26.458582"
       y="130.73653"
       width="155.86105"
       height="46.469273"
       id="rect31" />
    <rect
       x="-26.458582"
       y="130.73653"
       width="155.86105"
       height="46.469273"
       id="rect32" />
    <rect
       x="-26.458582"
       y="130.73653"
       width="155.86105"
       height="46.469273"
       id="rect33" />
    <rect
       x="-26.458582"
       y="130.73653"
       width="155.86105"
       height="46.469273"
       id="rect34" />
    <rect
       x="-26.458582"
       y="130.73653"
       width="155.86105"
       height="46.469273"
       id="rect35" />
    <rect
       x="-26.458582"
       y="130.73653"
       width="155.86105"
       height="46.469273"
       id="rect38" />
    <rect
       x="-26.458582"
       y="130.73653"
       width="155.86105"
       height="46.469273"
       id="rect39" />
    <rect
       x="-26.458582"
       y="130.73653"
       width="155.86105"
       height="46.469273"
       id="rect40" />
    <rect
       x="-26.458582"
       y="130.73653"
       width="155.86105"
       height="46.469273"
       id="rect42" />
    <rect
       x="-26.458582"
       y="130.73653"
       width="155.86105"
       height="46.469273"
       id="rect43" />
    <rect
       x="-26.458582"
       y="130.73653"
       width="155.86105"
       height="46.469273"
       id="rect44" />
    <rect
       x="-26.458582"
       y="130.73653"
       width="155.86105"
       height="46.469273"
       id="rect46" />
    <rect
       x="-26.458582"
       y="130.73653"
       width="155.86105"
       height="46.469273"
       id="rect47" />
    <rect
       x="-26.458582"
       y="130.73653"
       width="155.86105"
       height="46.469273"
       id="rect48" />
  </defs>
  <g
     inkscape:label="Katman 1"
     inkscape:groupmode="layer"
     id="layer1">
    <g
       id="g1948"
       transform="translate(-1369.6388,-92.244051)">
      <path
         style="fill:#b3b3b3;fill-opacity:1;stroke-width:0.264999"
         d="m 1378.3342,109.84885 0.02,-0.37492 1.0933,-0.10708 v 0.42498 l -0.7074,0.077 z"
         id="path1946" />
      <path
         style="fill:#deaa87;fill-opacity:1;stroke-width:0.264999"
         d="m 1382.8574,107.14072 -0.4023,-0.12374 0.026,-0.15206 0.3593,-0.22036 0.2687,-0.10151 z"
         id="path1945" />
      <path
         style="fill:#deaa87;fill-opacity:1;stroke-width:0.264999"
         d="m 1378.3683,109.44324 0.5524,-0.0171 0.4607,-0.10539 -0.032,-0.2894 -0.3514,-0.0446 -0.3509,0.0684 -0.2265,0.14344 z"
         id="path1944" />
      <path
         style="fill:#deaa87;fill-opacity:1;stroke-width:0.264999"
         d="m 1375.5736,100.92649 0.2556,0.20584 0.2967,0.32648 0.3217,-0.0342 0.14,-0.27004 -0.1257,-0.26593 -0.3094,-0.10039 -0.2325,0.17691 -0.2542,-0.19612 z"
         id="path1943" />
      <path
         style="fill:#b3b3b3;fill-opacity:1;stroke-width:0.264999"
         d="m 1383.5908,102.72887 0.2529,-0.83723 0.2054,0.0855 -0.2411,0.7884 z"
         id="path1942" />
      <path
         style="fill:#deaa87;fill-opacity:1;stroke-width:0.264999"
         d="m 1382.554,101.47356 0.6398,0.11726 1.0189,0.38629 0.8037,-0.19342 0.2497,-0.21353 0.1551,-0.22468 -0.082,-0.24333 -0.1433,-0.10157 -0.6669,0.11137 -0.5662,0.0118 -0.348,-0.0992 -0.5989,0.063 -0.4698,0.25557 z"
         id="path1941" />
      <path
         id="path1940"
         style="fill:#87cdde;fill-opacity:1;stroke-width:0.264999"
         d="m 1375.8292,101.13233 0.072,0.41238 0.2326,0.64233 0.3043,0.21033 -0.2092,0.54622 -0.4915,1.04179 -0.4651,0.98496 -0.4728,1.09037 -0.6346,1.33118 -0.2884,0.69505 -0.2604,0.21653 -0.01,0.22737 0.1622,0.0687 0.1778,-0.0899 0.036,-0.19689 1.9342,-4.10569 1.9343,1.89239 1.9895,1.93425 0.9798,0.70383 1.3658,0.0331 1.7927,-0.0501 2.2587,-0.17932 0.3623,0.0744 0.1256,-0.0858 0.025,-0.17415 -0.2228,-0.16278 -0.1441,-0.24598 -2.3792,-3.95015 -0.3457,-0.43873 0.3028,-0.75293 -0.4134,-0.0207 -0.1886,0.54984 -3.4717,-0.004 h -3.5791 l 0.3876,-1.08366 -0.4093,-0.14676 -0.2294,-0.59118 z m 0.3395,2.55385 7.0363,0.0326 -0.5623,1.44023 -1.2841,3.06131 -0.9746,-0.21498 -0.3747,-0.2992 -3.9186,-3.85506 z m 7.3996,0.1235 0.8934,1.49965 1.7255,2.94711 -0.9017,0.0682 -3.0675,0.12299 -0.2486,-0.57877 0.631,-1.63246 z" />
      <path
         style="fill:#ffe6d5;fill-opacity:1;stroke-width:0.264999"
         d="m 1378.2547,96.524722 0.6105,-0.05636 0.6928,-0.294065 0.4608,-0.54029 0.3133,-0.73346 -0.078,-0.951952 -0.4647,-0.770096 -0.7326,-0.535683 -0.9179,-0.13774 -0.6821,0.208727 -0.5888,0.329092 -0.371,0.460269 -0.2619,0.774155 0.057,1.042672 0.5136,0.66979 0.9209,0.482272 z"
         id="path1939" />
      <path
         style="fill:#b3b3b3;fill-opacity:1;stroke-width:0.264999"
         d="m 1379.4475,109.62971 v -0.20905 l 1.4698,-0.86538 0.053,0.23397 z"
         id="path1947" />
      <path
         style="fill:#b3b3b3;fill-opacity:1;stroke-width:0.264999"
         d="m 1380.8208,109.4928 0.4476,-7.9e-4 0.405,-0.10853 0.3896,-0.30501 0.1837,-0.30948 -0.028,-0.42862 -0.2488,-0.47141 -0.374,-0.21328 -0.3235,-0.0572 -0.521,0.16393 -0.3757,0.27925 -0.1663,0.44373 -0.027,0.50271 0.2135,0.34122 0.2936,0.16307 z"
         id="path1948" />
      <path
         style="fill:#000000;stroke-width:0.131512"
         d="m 1388.4937,112.63439 c 0,-0.0487 0.069,-0.0665 0.3654,-0.0943 0.134,-0.0126 0.6575,-0.0918 1.1635,-0.17601 0.5059,-0.0842 0.927,-0.14598 0.9357,-0.13729 0.024,0.0228 -0.026,0.0354 -0.5856,0.15378 -1.0726,0.22665 -1.879,0.3356 -1.879,0.2539 z m -15.4761,-0.092 c -1.492,-0.2844 -2.6861,-1.30769 -3.1773,-2.72299 -0.3322,-0.95713 -0.2487,-2.1584 0.2141,-3.07894 0.2863,-0.56932 0.8117,-1.18354 1.3024,-1.52288 0.3619,-0.25015 0.9207,-0.50959 1.3278,-0.61639 0.4163,-0.10927 1.1696,-0.14854 1.6107,-0.084 0.3181,0.0465 0.8101,0.18566 0.9268,0.26208 0.077,0.0504 0.081,0.0449 0.3024,-0.46102 0.1236,-0.28163 0.2995,-0.68819 0.3909,-0.90349 0.095,-0.22485 0.1862,-0.39145 0.2134,-0.39145 0.026,0 0.047,-0.017 0.047,-0.0377 0,-0.0207 0.047,-0.1447 0.1044,-0.27551 0.057,-0.1308 0.1045,-0.24567 0.1045,-0.25526 0,-0.0101 -0.056,-0.0516 -0.1229,-0.0933 -0.069,-0.0418 -0.156,-0.14091 -0.1965,-0.22031 -0.1239,-0.24284 -0.2721,-0.72313 -0.2721,-0.88162 0,-0.10142 -0.015,-0.15007 -0.046,-0.15007 -0.026,0 -0.083,-0.04 -0.1296,-0.0888 -0.077,-0.0825 -0.08,-0.0953 -0.033,-0.17989 0.072,-0.12703 0.1067,-0.12902 0.233,-0.0134 l 0.1111,0.10108 0.1844,-0.19945 c 0.1517,-0.16402 0.2108,-0.20366 0.3328,-0.22316 0.093,-0.0149 0.2227,-0.0783 0.3488,-0.17108 0.1101,-0.0811 0.528,-0.335279 0.9286,-0.564932 0.6566,-0.376504 0.7547,-0.444898 0.996,-0.695912 0.3468,-0.360556 0.5212,-0.578912 0.8201,-1.026483 0.5284,-0.79136 0.8648,-1.361893 0.8399,-1.42383 -0.011,-0.0146 -0.1492,-0.146727 -0.3183,-0.293679 l -0.3075,-0.267208 -0.1623,0.118168 c -0.3687,0.268713 -0.8677,0.439923 -1.2826,0.439923 -0.9079,0 -1.8269,-0.586077 -2.0864,-1.330505 -0.1022,-0.291522 -0.084,-0.965478 0.035,-1.331392 0.1123,-0.345222 0.2868,-0.64135 0.5167,-0.875471 0.2191,-0.22302 0.4019,-0.323024 0.8461,-0.463164 0.1914,-0.06036 0.4263,-0.141575 0.5219,-0.180476 0.2524,-0.10258 0.3638,-0.123803 0.8967,-0.171034 0.429,-0.03798 0.5598,-0.03296 0.5072,0.01945 -0.011,0.0092 -0.2887,0.04864 -0.6209,0.08749 -0.3323,0.03883 -0.6095,0.07588 -0.6159,0.08238 -0.011,0.0062 0.094,0.02092 0.2237,0.03212 0.1295,0.01123 0.3042,0.04478 0.3878,0.07473 0.1618,0.05775 0.5931,0.06839 0.9526,0.02347 0.1101,-0.01375 0.2,-0.01305 0.2,0.0016 0,0.04956 -0.3594,0.133663 -0.5712,0.133663 h -0.2104 l 0.1386,0.09154 c 0.4076,0.269354 0.7497,0.727107 0.8877,1.188312 0.064,0.214088 0.073,0.313872 0.061,0.643724 -0.018,0.465629 -0.08,0.651124 -0.3545,1.061106 l -0.1858,0.277821 0.4566,0.378177 c 0.2514,0.208001 0.5875,0.503129 0.7472,0.655853 0.2827,0.270352 0.8753,0.927642 0.8753,0.97088 0,0.01179 -0.036,0.02156 -0.082,0.02156 -0.058,0 -0.1448,-0.0748 -0.3095,-0.269668 -0.3127,-0.370002 -0.9926,-1.026966 -1.0354,-1.000518 -0.019,0.0119 -0.035,0.04492 -0.035,0.07345 0,0.115237 -0.4202,1.311716 -0.601,1.71113 -0.2155,0.476186 -0.4734,0.911246 -0.5981,1.009356 -0.1021,0.0803 -0.6302,0.343115 -1.6889,0.840499 -0.5313,0.24959 -0.8439,0.41626 -0.8923,0.4759 -0.074,0.0915 -0.075,0.0915 -0.099,0.0156 -0.025,-0.0764 -0.1458,-0.14305 -0.2554,-0.14017 -0.034,7.6e-4 0,0.0313 0.07,0.0693 0.1654,0.0873 0.2371,0.19228 0.2371,0.34671 0,0.2118 -0.1846,0.38276 -0.4134,0.38276 h -0.1033 l 0.089,0.26353 c 0.094,0.28048 0.1078,0.29283 0.3894,0.3641 0.1507,0.0381 0.1519,0.0396 0.1345,0.16931 -0.018,0.12762 -0.1693,0.54341 -0.3756,1.02563 -0.056,0.13166 -0.1022,0.25557 -0.1022,0.27536 0,0.0247 0.8103,0.0285 2.578,0.0121 2.0801,-0.0193 2.5753,-0.0153 2.5634,0.0204 -0.011,0.0244 -0.092,0.0542 -0.1858,0.0664 -0.094,0.0121 -1.2363,0.0136 -2.5379,0.003 -2.3712,-0.019 -2.5222,-0.0132 -2.5222,0.0964 0,0.0176 0.082,0.10658 0.1827,0.19759 0.4178,0.37831 3.297,3.26659 3.297,3.30739 0,0.0244 -0.011,0.0444 -0.024,0.0444 -0.012,0 -0.7946,-0.76724 -1.7376,-1.705 -0.9431,-0.93776 -1.7285,-1.705 -1.7453,-1.705 -0.017,0 -0.055,0.0509 -0.084,0.11298 l -0.053,0.11298 0.2103,0.23663 c 0.1157,0.13015 0.485,0.49034 0.8207,0.80043 0.7031,0.6493 2.4764,2.37295 2.5205,2.44985 0.017,0.0298 0.016,0.0659 -0.011,0.0851 -0.02,0.0212 -0.3788,-0.30504 -0.9866,-0.90039 -0.5243,-0.51356 -1.2372,-1.2031 -1.5843,-1.53234 -0.347,-0.32923 -0.7135,-0.69366 -0.8141,-0.80986 -0.1011,-0.11616 -0.1955,-0.19864 -0.2108,-0.18324 -0.03,0.0309 -1.0084,1.98753 -1.3092,2.62027 -0.1944,0.4092 -0.4399,1.04307 -0.4139,1.06906 0.011,0.008 0.2346,-0.26622 0.5036,-0.6093 0.2689,-0.34307 0.6266,-0.77722 0.795,-0.9648 0.1682,-0.18756 0.3495,-0.39259 0.4027,-0.45563 l 0.097,-0.1146 -0.1777,-0.14041 c -0.098,-0.0773 -0.2234,-0.16748 -0.2794,-0.20058 -0.1011,-0.0594 -0.1305,-0.12779 -0.072,-0.1642 0.054,-0.0335 0.5364,0.33337 0.8397,0.6388 0.3283,0.33077 0.5921,0.7412 0.7657,1.19129 0.1757,0.45546 0.2148,0.64807 0.234,1.15253 0.027,0.7065 -0.051,1.10122 -0.3373,1.7162 -0.4473,0.95951 -1.3112,1.67298 -2.3849,1.96995 -0.3114,0.0861 -1.1271,0.12185 -1.466,0.0641 -0.8219,-0.13981 -1.4866,-0.49538 -2.0695,-1.10703 -0.4117,-0.43213 -0.6836,-0.89733 -0.8535,-1.46053 -0.081,-0.2664 -0.094,-0.38424 -0.1078,-0.91473 -0.014,-0.53319 -0.011,-0.64703 0.057,-0.91538 0.1568,-0.65869 0.455,-1.20441 0.9214,-1.68649 0.5032,-0.52023 1.0401,-0.83958 1.7209,-1.02374 0.331,-0.0896 1.1403,-0.12484 1.492,-0.065 0.3392,0.0576 0.8103,0.20597 0.8121,0.25565 0,0.0487 0.1692,-0.25302 0.1694,-0.30559 10e-5,-0.0191 -0.023,0.007 -0.051,0.0589 l -0.05,0.0937 -0.2419,-0.0823 c -0.3983,-0.13546 -0.7838,-0.19885 -1.2167,-0.20005 -1.8137,-0.006 -3.3488,1.24957 -3.7099,3.03215 -0.092,0.4526 -0.058,1.34133 0.067,1.75695 0.4019,1.33544 1.3825,2.28703 2.7166,2.63665 0.3554,0.0931 1.1235,0.1259 1.5075,0.0644 1.4719,-0.2358 2.6518,-1.30551 3.0605,-2.77468 0.086,-0.31238 0.094,-0.3906 0.093,-0.94935 0,-0.54546 -0.011,-0.64414 -0.093,-0.94667 -0.2338,-0.86428 -0.7788,-1.65243 -1.4818,-2.14243 -0.1402,-0.0977 -0.2698,-0.18262 -0.2882,-0.18873 -0.049,-0.0164 0.036,-0.23657 0.091,-0.23657 0.026,0 0.1607,0.0776 0.3011,0.17235 0.8684,0.58648 1.4532,1.45215 1.6987,2.51418 0.069,0.29588 0.075,0.40335 0.062,0.95468 -0.017,0.69249 -0.065,0.91446 -0.3337,1.53752 -0.4837,1.12211 -1.5099,1.97476 -2.7725,2.30344 -0.3652,0.0951 -1.2394,0.1242 -1.6099,0.0536 z m 0.9082,-1.05501 c -0.024,-0.30143 -0.067,-0.94733 -0.098,-1.43534 -0.065,-1.0704 -0.073,-1.11347 -0.1682,-1.11347 -0.1346,0 -0.3632,-0.13709 -0.4077,-0.24442 -0.053,-0.12715 -0.02,-0.36488 0.066,-0.49776 0.08,-0.12119 0.2825,-0.26176 0.4171,-0.28865 0.094,-0.0189 0.1033,-0.0349 0.1255,-0.21677 0.071,-0.57779 0.4205,-2.42529 0.4755,-2.51003 0.063,-0.0971 0,0.37499 -0.1776,1.37411 -0.2355,1.30985 -0.2312,1.2664 -0.093,0.93949 0.065,-0.15311 0.1646,-0.38014 0.2219,-0.50454 0.057,-0.12441 0.1474,-0.32012 0.2002,-0.43495 0.053,-0.11482 0.2114,-0.44996 0.3524,-0.74474 0.1411,-0.29479 0.2565,-0.53963 0.2565,-0.5441 0,-0.004 -0.044,-0.0159 -0.095,-0.0256 -0.053,-0.0101 -0.2459,-0.0572 -0.4293,-0.10579 -0.2255,-0.0596 -0.4501,-0.0919 -0.6932,-0.0995 l -0.3597,-0.0112 0.011,0.38276 c 0.011,0.21051 0.024,0.58631 0.04,0.8351 0.063,0.89767 0.08,1.51362 0.041,1.51362 -0.021,0 -0.046,-0.0822 -0.057,-0.18268 -0.058,-0.54471 -0.1022,-1.33565 -0.1045,-1.90045 l -0.011,-0.63911 -0.2088,0.0202 c -0.6699,0.0648 -1.3869,0.4064 -1.9353,0.92192 -0.4937,0.46401 -0.8083,0.99225 -0.9979,1.67572 -0.081,0.29265 -0.092,0.39242 -0.091,0.8699 0,0.47744 0.011,0.57904 0.095,0.88537 0.053,0.19032 0.1022,0.35325 0.1112,0.36208 0.021,0.0213 0.1489,-0.0328 0.9976,-0.42398 0.6372,-0.29367 1.1921,-0.52143 1.4551,-0.59712 0.077,-0.0221 0.081,-0.0191 0.035,0.0263 -0.028,0.0282 -0.2637,0.13795 -0.522,0.2439 -0.5404,0.22166 -1.847,0.81539 -1.8917,0.8597 -0.038,0.0371 0.207,0.48556 0.4124,0.75691 0.1734,0.22913 0.4501,0.50677 0.6789,0.68111 l 0.1565,0.11924 0.1595,-0.30199 c 0.2172,-0.41125 1.2455,-1.98454 1.4102,-2.15786 0.043,-0.0447 0.048,-0.0444 0.048,0.003 0,0.0298 -0.1078,0.20921 -0.2383,0.39891 -0.5889,0.85227 -1.2928,1.99123 -1.2928,2.09203 0,0.0799 0.9945,0.49502 1.0456,0.43657 0.012,-0.0145 0.074,-0.28467 0.1357,-0.60045 0.1902,-0.9701 0.5298,-2.26173 0.5949,-2.26173 0.046,0 0.055,-0.0516 -0.1545,0.79791 -0.2331,0.94521 -0.463,2.07724 -0.4287,2.11159 0.022,0.0222 0.426,0.0602 0.8264,0.0776 l 0.1229,0.006 z m -2.8822,-1.01583 c 0.1279,-0.14636 2.0365,-1.63737 2.0959,-1.63737 0.055,0 -0.1757,0.19653 -0.8085,0.68873 -1.3175,1.02477 -1.42,1.10029 -1.2874,0.94864 z m -0.7656,-1.70442 c -0.055,-0.0237 -0.058,-0.0335 -0.018,-0.0475 0.09,-0.0305 2.0504,-0.13067 2.4706,-0.1262 0.6546,0.007 0.2735,0.0551 -0.9222,0.11653 -0.5932,0.0306 -1.1648,0.0626 -1.27,0.0713 -0.1056,0.009 -0.2227,0.002 -0.2609,-0.014 z m 1.3444,-0.61276 c -0.6768,-0.12168 -1.2391,-0.22987 -1.2497,-0.24045 -0.073,-0.073 0.1837,-0.0442 1.3427,0.1502 1.4996,0.25155 1.4682,0.24539 1.4682,0.28669 0,0.0643 -0.3672,0.0181 -1.5612,-0.19644 z m 1.0822,-0.12171 c -0.082,-0.0363 -0.3477,-0.18226 -0.5915,-0.32449 -0.485,-0.28299 -0.9574,-0.52373 -1.2717,-0.64799 -0.1335,-0.0528 -0.1904,-0.0917 -0.1677,-0.11441 0.06,-0.0592 0.7379,0.23103 1.3571,0.58001 0.3183,0.17937 0.6608,0.36733 0.7613,0.4177 0.2908,0.14577 0.2146,0.22341 -0.088,0.0892 z m 0.1837,-0.24946 c -0.2909,-0.31427 -1.5275,-1.76009 -1.5431,-1.80431 -0.011,-0.0181 0.012,-0.0328 0.04,-0.0328 0.071,0 0.8909,0.91797 1.5631,1.74807 0.3302,0.40788 0.2894,0.4675 -0.061,0.0891 z m 0.3905,-0.29491 c -0.1283,-0.2645 -0.3103,-0.69228 -0.4042,-0.95064 -0.094,-0.25837 -0.2351,-0.63056 -0.3136,-0.82711 -0.1487,-0.37175 -0.163,-0.42554 -0.1131,-0.42554 0.045,0 0.2627,0.49313 0.5456,1.23524 0.1387,0.36363 0.317,0.82358 0.3965,1.02213 0.08,0.19856 0.1395,0.37582 0.1333,0.39391 -0.011,0.0181 -0.116,-0.18351 -0.2445,-0.44799 z m 1.3613,4.40471 c 0.1431,-0.0366 0.2663,-0.0728 0.2739,-0.0803 0.011,-0.008 -0.027,-0.15236 -0.077,-0.32178 -0.182,-0.61501 -0.8574,-2.58741 -0.8857,-2.58662 -0.011,2.6e-4 -0.041,0.0136 -0.065,0.0295 -0.037,0.0235 -0.038,0.11119 -0.011,0.46051 0.02,0.23735 0.061,0.80734 0.09,1.26664 0.029,0.45932 0.063,0.95006 0.075,1.09057 l 0.021,0.25545 0.1583,-0.0237 c 0.086,-0.013 0.2752,-0.0537 0.4183,-0.0903 z m 0.6062,-0.22787 c 0.3117,-0.15776 0.6904,-0.43198 0.9362,-0.67772 0.2428,-0.24282 0.6546,-0.82848 0.6546,-0.93102 0,-0.0381 -0.062,-0.0792 -0.1827,-0.12162 -0.1011,-0.0351 -0.4845,-0.20329 -0.8534,-0.37353 -0.3689,-0.17023 -0.679,-0.3095 -0.6892,-0.3095 -0.011,0 -0.2054,-0.0885 -0.4341,-0.19659 -0.3712,-0.1756 -0.4898,-0.25577 -0.3785,-0.25577 0.045,0 1.0408,0.4241 1.5155,0.64553 0.599,0.27942 1.0613,0.46948 1.0935,0.4496 0.048,-0.0299 0.2117,-0.57445 0.2186,-0.72863 l 0.011,-0.13806 -0.1914,-0.0288 c -0.1056,-0.0158 -0.5229,-0.0832 -0.9283,-0.14975 -0.4053,-0.0666 -0.9515,-0.15117 -1.2136,-0.18811 l -0.4767,-0.0672 -0.064,0.0766 c -0.036,0.0421 -0.065,0.0964 -0.065,0.12061 0,0.0243 0.2522,0.30606 0.5618,0.62632 0.5881,0.60839 0.8589,0.92828 1.1452,1.35253 0.1664,0.24643 0.2009,0.32585 0.1421,0.32585 -0.044,0 -0.1468,-0.12128 -0.433,-0.50742 -0.1431,-0.19296 -0.493,-0.60054 -0.7778,-0.90572 -0.2847,-0.30518 -0.5681,-0.61313 -0.6297,-0.68433 -0.062,-0.0712 -0.119,-0.12947 -0.1275,-0.12947 -0.016,0 0.2087,0.65125 0.4929,1.42664 0.094,0.25837 0.2307,0.68113 0.3022,0.93949 0.1305,0.47122 0.1478,0.52194 0.1784,0.52194 0.011,0 0.098,-0.0414 0.198,-0.0919 z m 1.9309,-3.16435 c 0.011,-0.47198 -0.053,-0.87615 -0.1345,-0.85332 -0.027,0.008 -0.3465,0.10434 -0.7102,0.21507 -0.3636,0.11073 -0.9547,0.28252 -1.3135,0.38175 -0.4455,0.1232 -0.6525,0.19569 -0.6525,0.22857 0,0.0265 0.011,0.0482 0.026,0.0482 0.015,2e-5 0.261,0.0307 0.5481,0.0681 0.4355,0.0567 0.8263,0.1181 2.0703,0.325 0.048,0.008 0.1022,0.0115 0.1218,0.008 0.02,-0.003 0.038,-0.18008 0.045,-0.42126 z m -3.1008,0.2333 c 0.1525,-0.11251 0.1918,-0.31156 0.098,-0.49431 -0.063,-0.12216 -0.1202,-0.1041 -0.1202,0.0381 0,0.1468 -0.07,0.27617 -0.1791,0.33276 -0.1914,0.0989 -0.3213,0.034 -0.3158,-0.15822 0.011,-0.14078 0.062,-0.23474 0.1826,-0.29727 0.1079,-0.0559 0.1411,-0.15605 0.051,-0.15605 -0.028,0 -0.053,0.0156 -0.053,0.0348 0,0.0191 -0.033,0.0348 -0.072,0.0348 -0.261,0 -0.424,0.41432 -0.2401,0.61013 0.1487,0.15823 0.4712,0.18574 0.6482,0.0553 z m -0.1821,-0.23295 c 0.1089,-0.10927 0.047,-0.24751 -0.1198,-0.26654 -0.065,-0.008 -0.089,0.0129 -0.1148,0.10175 -0.018,0.0611 -0.024,0.13548 -0.012,0.16526 0.027,0.0701 0.1763,0.0697 0.2466,-4.6e-4 z m 3.1515,-0.99324 c 0,-0.0703 -0.2153,-0.59142 -0.294,-0.71159 l -0.054,-0.0827 -0.3914,0.24664 c -0.2152,0.13564 -0.634,0.41253 -0.9307,0.6153 -0.2966,0.20276 -0.6528,0.4451 -0.7916,0.53853 -0.1389,0.0934 -0.245,0.18181 -0.2359,0.1964 0.011,0.0146 0.6197,-0.14654 1.3571,-0.35804 1.0977,-0.31489 1.3406,-0.39543 1.3406,-0.4446 z m -2.9369,0.39493 c 0.1233,-0.33423 0.5078,-1.16822 1.0368,-2.24829 0.2987,-0.61011 0.5431,-1.12291 0.5431,-1.13957 0,-0.0166 -0.029,-0.0302 -0.065,-0.0302 -0.044,0 -0.084,0.0452 -0.1207,0.13683 -0.047,0.11808 -0.833,1.79517 -1.439,3.0709 -0.1285,0.27059 -0.1849,0.42776 -0.1685,0.46974 0.024,0.0586 0.029,0.0575 0.089,-0.0157 0.036,-0.0433 0.092,-0.15298 0.125,-0.24356 z m 0.8882,-0.17013 c 0.7012,-0.4829 1.2107,-0.81883 1.4659,-0.96671 0.091,-0.0527 0.1653,-0.11682 0.1653,-0.14258 0,-0.05 -0.3532,-0.5022 -0.496,-0.63521 l -0.085,-0.0797 -0.055,0.0832 c -0.03,0.0458 -0.1973,0.24607 -0.3717,0.44508 -0.1744,0.199 -0.4449,0.52624 -0.6009,0.72718 -0.1561,0.20095 -0.3911,0.49463 -0.5225,0.65263 -0.2115,0.25462 -0.2594,0.35645 -0.1677,0.35645 0.016,0 0.3162,-0.19816 0.6678,-0.44036 z m 1.0541,-3.95416 c 0.1451,-0.3214 0.2639,-0.60038 0.2639,-0.61995 0,-0.0196 -0.042,-0.0307 -0.093,-0.0246 -0.085,0.0101 -0.1143,0.0618 -0.3479,0.61984 -0.1402,0.33485 -0.2549,0.61162 -0.2549,0.61507 0,0.0189 0.1254,0.031 0.1448,0.014 0.012,-0.0112 0.142,-0.28306 0.2872,-0.60446 z m 0.4835,-1.11192 c 0.076,-0.22109 0.1112,-0.36923 0.091,-0.38972 -0.049,-0.0502 -0.081,-2.8e-4 -0.2343,0.37045 -0.1359,0.32798 -0.1378,0.36491 -0.019,0.37318 0.021,10e-4 0.094,-0.15775 0.1628,-0.35391 z m -0.081,-0.38447 c 0,-0.0248 -0.05,-0.0636 -0.1131,-0.0861 -0.1171,-0.0423 -0.1178,-0.0439 -0.3193,-0.60531 -0.033,-0.0894 -0.082,-0.18206 -0.11,-0.20591 -0.036,-0.0298 -0.024,0.0324 0.04,0.19733 0.052,0.13238 0.1185,0.3216 0.1492,0.42045 0.047,0.152 0.077,0.1906 0.1956,0.25011 0.077,0.0387 0.1437,0.0713 0.1485,0.0724 0.011,0.001 0.011,-0.0182 0.011,-0.043 z m -0.011,-0.93044 c 0.1132,-0.10545 0.1,-0.26138 -0.032,-0.38483 -0.1337,-0.12497 -0.2676,-0.13031 -0.3913,-0.0157 -0.1274,0.11804 -0.121,0.24811 0.018,0.37262 0.1334,0.11913 0.2947,0.13024 0.4047,0.0279 z m -0.3758,-0.0675 c -0.027,-0.0509 -0.024,-0.10074 0.015,-0.19138 0.058,-0.14022 0.046,-0.13435 0.1895,-0.0841 0.1352,0.0471 0.195,0.1439 0.1457,0.23581 -0.067,0.12535 -0.2903,0.15069 -0.3497,0.0396 z m 0.2432,-0.0352 c 0.07,-0.0441 0.011,-0.15262 -0.099,-0.16816 -0.059,-0.009 -0.075,0.007 -0.075,0.0754 0,0.0742 0.034,0.11491 0.1044,0.12383 0.011,0.001 0.04,-0.0128 0.07,-0.031 z m -0.4365,-0.24163 c 0.028,-0.0464 -0.044,-0.0822 -0.1123,-0.0558 -0.051,0.0192 -0.051,0.0269 -0.011,0.0547 0.065,0.0413 0.094,0.0415 0.1193,7.7e-4 z m -0.2009,-0.14811 c -0.011,-0.0277 -0.019,-0.0195 -0.02,0.021 0,0.0367 0.011,0.0572 0.018,0.0456 0.011,-0.0116 0.012,-0.0416 0.011,-0.0667 z m 1.3712,-0.34531 c 0.1992,-0.0978 0.5736,-0.27557 0.832,-0.39502 0.2583,-0.119434 0.6654,-0.314048 0.9048,-0.432485 0.4131,-0.204565 0.4413,-0.225263 0.5619,-0.413992 0.2519,-0.393933 0.5272,-1.007649 0.7652,-1.706357 0.074,-0.216828 0.1342,-0.402682 0.1342,-0.413003 0,-0.01011 -0.1526,0.217547 -0.3393,0.506408 -0.4392,0.680065 -0.7314,1.073325 -1.0341,1.391924 -0.2926,0.307986 -0.5145,0.468336 -1.1145,0.805477 -0.7591,0.426468 -1.0628,0.625528 -1.0988,0.720348 -0.027,0.0711 -0.043,0.0796 -0.083,0.0456 -0.034,-0.0276 -0.089,-0.0322 -0.1647,-0.0135 l -0.1145,0.0282 0.1567,0.0219 c 0.086,0.0121 0.1736,0.0243 0.1944,0.0272 0.021,0.003 0.2009,-0.0748 0.4001,-0.17263 z m 1.7809,-4.087069 c 0.5725,-0.148355 0.982,-0.480307 1.2454,-1.009569 0.1535,-0.308256 0.1545,-0.312928 0.1656,-0.727806 0.011,-0.364746 0,-0.450974 -0.073,-0.681919 -0.046,-0.14539 -0.1422,-0.351886 -0.2133,-0.458866 -0.173,-0.260825 -0.5136,-0.573335 -0.7779,-0.713868 -0.2215,-0.117682 -0.2701,-0.120045 -0.5043,-0.02431 -0.099,0.0403 -0.071,-0.04887 0.029,-0.09457 0.089,-0.04053 0.089,-0.04123 0.014,-0.06887 -0.1199,-0.04439 -0.5447,-0.07496 -0.6145,-0.04424 -0.035,0.01536 -0.1185,0.02926 -0.1854,0.03088 -0.075,0.0016 -0.1186,0.01891 -0.1136,0.04493 0.011,0.02424 -0.047,0.05018 -0.1217,0.0613 -0.2816,0.04177 -0.4502,0.09674 -0.609,0.198525 -0.3294,0.211139 -0.5862,0.593915 -0.7196,1.072859 -0.091,0.324405 -0.1011,0.902722 -0.021,1.167998 0.072,0.23884 0.2895,0.566806 0.4856,0.731681 0.2155,0.181138 0.5735,0.396607 0.6591,0.396607 0.1925,0 0.8575,-0.615692 1.0681,-0.98895 0.146,-0.258685 0.2477,-0.267254 0.1153,-0.01011 -0.1401,0.272386 -0.5176,0.686703 -0.8589,0.942422 -0.1045,0.07861 -0.1506,0.132251 -0.1218,0.142785 0.2636,0.09625 0.8432,0.112744 1.1517,0.03279 z m -2.0376,-1.637132 c -0.043,-0.04268 -0.027,-0.379603 0.021,-0.444853 0.1363,-0.18664 0.3713,0.121448 0.264,0.34635 -0.036,0.07513 -0.077,0.105455 -0.1544,0.113002 -0.058,0.0056 -0.1166,-7.75e-4 -0.1303,-0.01449 z m 0.5166,-0.809643 c -0.095,-0.143908 -0.2315,-0.212684 -0.4192,-0.212684 -0.2312,0 -0.1907,-0.08367 0.047,-0.09759 0.2852,-0.01662 0.4952,0.149231 0.4512,0.356042 -0.011,0.04099 -0.029,0.0292 -0.08,-0.04582 z m 8.7839,18.591824 c -0.048,-0.009 -0.1783,-0.032 -0.2901,-0.0522 -0.4747,-0.0859 -1.1593,-0.3812 -1.5825,-0.68261 -0.2693,-0.19187 -0.6649,-0.5803 -0.8881,-0.872 -0.1791,-0.23415 -0.4951,-0.80045 -0.464,-0.83155 0.011,-0.0101 0.083,-0.008 0.1604,0.005 0.128,0.0216 0.1538,0.0446 0.2653,0.23479 0.4141,0.70646 0.9411,1.19667 1.6527,1.5374 0.5419,0.25941 0.8689,0.33918 1.4742,0.35959 0.5672,0.0191 0.8286,-0.0124 1.2902,-0.15537 1.317,-0.40806 2.323,-1.53322 2.5761,-2.88124 0.081,-0.43153 0.056,-1.27418 -0.048,-1.66566 -0.3795,-1.41286 -1.5256,-2.47967 -2.9623,-2.75749 -0.1435,-0.0277 -0.455,-0.0501 -0.692,-0.0498 -0.5955,7.8e-4 -0.9565,0.0706 -1.4742,0.28413 -0.1344,0.0555 -0.2544,0.10073 -0.2668,0.10073 -0.012,0 -0.051,-0.0475 -0.085,-0.10545 l -0.063,-0.10546 0.2681,-0.12387 c 0.1475,-0.0682 0.4187,-0.16457 0.6029,-0.21429 0.3065,-0.0828 0.3917,-0.0904 1.0131,-0.0904 0.6241,0 0.7058,0.008 1.0187,0.0917 1.0509,0.28354 1.9507,0.97142 2.4992,1.91064 0.1876,0.32119 0.3961,0.85806 0.4715,1.21408 0.075,0.35317 0.084,1.22702 0.018,1.54626 -0.2415,1.1481 -0.9582,2.17657 -1.9068,2.73617 -0.6687,0.39442 -1.2114,0.55062 -1.9784,0.56949 -0.2872,0.007 -0.5611,0.006 -0.609,-0.003 z m 1.9138,-0.0789 c 0,-0.0192 0.074,-0.058 0.1653,-0.0859 0.091,-0.0281 0.484,-0.16324 0.8735,-0.3005 0.7218,-0.25427 0.9684,-0.31352 0.449,-0.10781 -1.0498,0.41569 -1.4878,0.56121 -1.4878,0.49423 z m -11.6044,-0.32035 c 0.1129,-0.0518 1.797,-0.45705 1.8169,-0.43725 0.011,0.0101 -0.027,0.0289 -0.082,0.0419 -0.055,0.0131 -0.4249,0.11563 -0.8223,0.22787 -0.3974,0.11219 -0.781,0.20301 -0.8525,0.20172 -0.1067,-10e-4 -0.1177,-0.008 -0.061,-0.0343 z m 9.4818,-0.0827 c -0.8703,-0.18128 -1.6065,-0.63598 -2.1647,-1.33732 -0.1768,-0.22219 -0.3406,-0.48306 -0.3406,-0.54277 0,-0.0101 0.028,-0.018 0.061,-0.0167 0.036,0.001 0.1228,0.0987 0.2122,0.23826 0.083,0.12991 0.2372,0.3327 0.3423,0.45064 0.1911,0.21433 0.566,0.52692 0.6322,0.52692 0.019,0 0.046,-0.0353 0.059,-0.0783 0.034,-0.10456 0.3927,-0.73209 0.4891,-0.85262 0.043,-0.0526 0.087,-0.0856 0.099,-0.0734 0.012,0.0122 -0.1123,0.24654 -0.2756,0.52083 -0.1638,0.27431 -0.2929,0.51489 -0.2869,0.53463 0.018,0.0584 0.4729,0.2856 0.7681,0.38349 0.1504,0.05 0.2773,0.0861 0.282,0.0804 0.011,-0.006 0.074,-0.33875 0.155,-0.74002 0.081,-0.40128 0.1545,-0.74185 0.1638,-0.75683 0.03,-0.0503 0.1253,-0.0294 0.1056,0.0234 -0.043,0.11186 -0.307,1.48634 -0.2889,1.50432 0.02,0.0201 0.9294,0.0903 0.9457,0.073 0.011,-0.006 -0.012,-0.27602 -0.038,-0.60137 -0.056,-0.69695 -0.062,-1.02648 -0.02,-1.02648 0.043,0 0.064,0.17074 0.1133,0.9344 l 0.044,0.67343 0.1646,-0.0219 c 0.304,-0.0403 0.711,-0.17527 0.6956,-0.23063 -0.1045,-0.37943 -0.3724,-1.22517 -0.4544,-1.43588 -0.058,-0.14954 -0.1078,-0.32177 -0.1089,-0.38275 l -0.011,-0.11085 -0.026,0.10804 c -0.045,0.18708 -0.1431,0.28628 -0.3096,0.31224 -0.256,0.0399 -2.2496,-0.0112 -2.7077,-0.0693 -0.7779,-0.0987 -2.1475,-0.33529 -2.5363,-0.43799 -0.2114,-0.0559 -0.5208,-0.12538 -0.6874,-0.15444 -0.3234,-0.0564 -0.4762,-0.11783 -0.6157,-0.24761 l -0.086,-0.081 -0.344,0.18932 c -0.1893,0.1041 -0.3593,0.1893 -0.3779,0.1893 -0.018,0 -0.025,0.0382 -0.012,0.0849 0.024,0.0911 -0.016,0.13241 -0.1338,0.14303 -0.5098,0.0459 -0.7714,0.0558 -0.9355,0.0353 l -0.1971,-0.0246 v -0.1603 c 0,-0.32173 0.1101,-0.55516 0.3145,-0.66943 0.1298,-0.0724 0.2019,-0.0867 0.4393,-0.0869 l 0.2842,-3.9e-4 0.056,-0.20877 c 0.1112,-0.41959 0.4126,-2.00219 0.6162,-3.23546 0.019,-0.11988 0.069,-0.25273 0.1147,-0.31316 0.1335,-0.17458 0.73,-0.83517 1.4327,-1.5865 0.3655,-0.39084 0.749,-0.80549 0.8525,-0.92147 0.1033,-0.11598 0.4737,-0.52705 0.823,-0.91349 0.3491,-0.38644 0.6349,-0.71748 0.6349,-0.73565 0,-0.0542 -0.4769,-0.858 -0.7751,-1.306425 -0.294,-0.441989 -0.9417,-1.321362 -0.9997,-1.357244 -0.063,-0.0392 -0.035,-0.08681 0.052,-0.08681 0.098,0 0.3642,0.325607 0.8762,1.068069 0.5764,0.83596 0.813,1.25133 0.9311,1.63416 0.024,0.0779 -0.03,0.14473 -0.8969,1.10792 -0.1723,0.19138 -0.4317,0.48044 -0.5765,0.64238 -0.1448,0.16192 -0.5922,0.64731 -0.9942,1.07867 -0.4021,0.43134 -0.8684,0.94346 -1.0363,1.13806 l -0.3055,0.3538 -0.1915,1.12137 c -0.2034,1.19047 -0.3535,1.9486 -0.4642,2.34589 -0.048,0.17245 -0.057,0.25571 -0.031,0.2869 0.02,0.0242 0.028,0.0774 0.017,0.11827 -0.011,0.0409 0,0.0948 0.026,0.11975 0.037,0.0374 0.1,0.0127 0.3546,-0.13894 l 0.3092,-0.18437 0.021,-0.30925 c 0.019,-0.28601 0.016,-0.31395 -0.053,-0.37156 -0.04,-0.0343 -0.1479,-0.12517 -0.2388,-0.20201 -0.1394,-0.11788 -0.2142,-0.24024 -0.147,-0.24024 0.011,0 0.1306,0.0856 0.268,0.19027 l 0.2497,0.19027 0.063,-0.0946 0.063,-0.0946 -0.1135,-0.087 c -0.2134,-0.16357 -0.4446,-0.39224 -0.4446,-0.43971 0,-0.0261 0.011,-0.0474 0.016,-0.0474 0.011,0 0.1425,0.10175 0.2967,0.22619 0.1541,0.12439 0.2938,0.22617 0.3105,0.22617 0.017,0 0.1112,-0.0545 0.2104,-0.12112 0.099,-0.0666 0.2454,-0.13781 0.3254,-0.15822 0.08,-0.0203 0.1851,-0.0526 0.2338,-0.0714 0.058,-0.0226 0.3088,-0.0228 0.7306,-4.8e-4 0.6524,0.0345 2.1298,0.0261 3.1564,-0.0178 0.4966,-0.0212 0.5654,-0.0176 0.5654,0.0294 0,0.046 -0.1208,0.0575 -0.8613,0.0815 -0.4735,0.0154 -1.2784,0.0289 -1.7884,0.03 -0.5101,0.001 -0.9214,0.012 -0.9139,0.0243 0.011,0.0122 -0.011,0.0406 -0.036,0.0633 -0.043,0.0348 -0.03,0.066 0.072,0.20047 0.067,0.0876 0.1305,0.20423 0.1416,0.25921 0.011,0.055 0.037,0.1105 0.058,0.12332 0.058,0.0362 0.7681,0.0147 2.0003,-0.0605 0.6188,-0.0377 1.2343,-0.0687 1.3681,-0.0687 0.2532,0 0.3777,-0.0392 0.3777,-0.11896 0,-0.0257 -0.072,-0.15128 -0.1588,-0.27881 -0.088,-0.12753 -0.3008,-0.47775 -0.4742,-0.77825 -0.1735,-0.3005 -0.4916,-0.84387 -0.7068,-1.20749 -0.2153,-0.36362 -0.46,-0.79612 -0.5437,-0.96111 l -0.1522,-0.29998 -0.1739,-0.032 c -0.1482,-0.0272 -0.081,-0.0359 0.4549,-0.0586 0.6184,-0.0263 0.9725,-0.008 1.0094,0.0515 0.011,0.0166 -0.1874,0.0302 -0.4392,0.0302 h -0.4578 l 0.074,0.11308 c 0.041,0.0622 0.3958,0.64938 0.789,1.30484 0.3931,0.65547 0.7192,1.19177 0.7246,1.19177 0.011,0 -0.4699,-1.26977 -0.6231,-1.6456 -0.089,-0.21733 -0.098,-0.32797 -0.02,-0.24846 0.095,0.0984 0.8386,1.99706 0.8295,2.12024 -0.011,0.0663 0.1426,0.33129 0.2367,0.42547 0.025,0.0243 0.1199,0.0444 0.2121,0.0444 0.2039,1.2e-4 0.3544,0.0843 0.462,0.25823 0.1654,0.26784 0.1222,0.51599 -0.1228,0.70277 -0.2514,0.19186 -0.7011,0.12984 -0.8875,-0.12244 -0.1011,-0.1365 -0.1101,-0.1366 -1.399,-0.0166 -0.6404,0.0596 -1.2298,0.0929 -1.695,0.0957 l -0.7134,0.003 -0.081,0.13919 c -0.045,0.0766 -0.1303,0.19198 -0.1913,0.2565 -0.1078,0.11439 -0.4761,0.3165 -0.5804,0.31867 -0.3351,0.007 1.5467,0.37395 2.5748,0.50209 0.6583,0.082 1.2358,0.11905 1.9628,0.12578 l 0.6576,0.006 v -0.13868 c 0,-0.0763 -0.026,-0.17565 -0.058,-0.22085 -0.071,-0.10006 -0.073,-0.26263 -0.011,-0.37984 0.068,-0.12044 0.064,-0.14576 -0.025,-0.1329 -0.067,0.0101 -0.09,0.0628 -0.178,0.41998 -0.071,0.28749 -0.1165,0.40885 -0.152,0.40885 -0.031,0 -0.044,-0.0229 -0.034,-0.0609 0.011,-0.0335 0.058,-0.22383 0.109,-0.42298 0.099,-0.39166 0.091,-0.43081 -0.086,-0.41244 -0.08,0.008 -0.2751,0.25371 -0.6282,0.78972 -0.03,0.0452 -0.073,0.0757 -0.098,0.0677 -0.027,-0.009 0.075,-0.18686 0.2715,-0.473 l 0.3147,-0.45859 -0.078,-0.0541 c -0.043,-0.0298 -0.093,-0.054 -0.1131,-0.0537 -0.019,2.6e-4 -0.3253,0.22692 -0.6793,0.50378 -0.3541,0.27687 -0.6582,0.50375 -0.676,0.50415 -0.065,0.001 0.1516,-0.19045 0.7184,-0.63467 0.5443,-0.42651 0.579,-0.46059 0.5273,-0.51756 -0.053,-0.0581 -0.063,-0.058 -0.2167,0.003 -0.2601,0.10377 -1.167,0.49898 -1.6718,0.72863 -0.2569,0.11687 -0.5157,0.2121 -0.5765,0.2121 -0.1022,0 -0.1142,-0.0128 -0.1675,-0.18268 -0.055,-0.17518 -0.1642,-0.65657 -0.1642,-0.72429 0,-0.018 0.029,-0.0325 0.065,-0.0325 0.053,0 0.073,0.0434 0.1067,0.21748 0.067,0.34755 0.151,0.62374 0.1938,0.64015 0.021,0.008 0.2262,-0.0729 0.4543,-0.18052 0.6211,-0.29301 1.2871,-0.58643 1.5804,-0.69619 0.1436,-0.0537 0.2784,-0.11837 0.2996,-0.14367 0.061,-0.072 0.1022,-0.0557 0.2059,0.0798 0.061,0.0788 0.1789,0.16472 0.3176,0.22962 0.2027,0.0949 0.2474,0.10265 0.5257,0.0915 0.2763,-0.0112 0.3159,-0.0216 0.4341,-0.11619 0.1585,-0.12682 0.2353,-0.3068 0.2353,-0.55148 0,-0.37855 -0.1746,-0.72268 -0.4178,-0.82341 -0.101,-0.0417 -0.3252,-0.0339 -0.5217,0.018 -0.067,0.0178 -0.075,0.0147 -0.035,-0.0143 0.044,-0.031 0.038,-0.0374 -0.026,-0.0378 -0.043,-2.7e-4 -0.079,-0.0139 -0.079,-0.0302 0,-0.0376 0.5658,-0.0825 0.6799,-0.0539 0.064,0.016 0.085,0.008 0.085,-0.0335 0,-0.0598 0.048,-0.16888 0.4505,-1.03127 0.1475,-0.31578 0.321,-0.69784 0.3856,-0.84901 0.1165,-0.27316 0.182,-0.31479 0.1022,-0.0647 -0.045,0.13841 -0.4765,1.12163 -0.7392,1.68222 l -0.1565,0.33357 0.1123,0.0893 0.1123,0.0893 0.3858,-0.49249 c 0.2122,-0.27086 0.5594,-0.68652 0.7715,-0.92368 0.2123,-0.23716 0.3859,-0.44161 0.3859,-0.45433 0,-0.0453 -0.4393,-0.34337 -0.6959,-0.47207 -0.5666,-0.28422 -0.9383,-0.37012 -1.6006,-0.36984 -0.5475,2.2e-4 -0.9342,0.073 -1.3742,0.25863 -0.2135,0.0901 -0.2612,0.0914 -0.2612,0.008 0,-0.0622 0.4853,-0.24865 0.8677,-0.33321 0.3831,-0.0847 1.1096,-0.0907 1.4912,-0.0124 0.725,0.14899 1.2827,0.45489 1.8339,1.00618 0.5045,0.50447 0.7979,1.00564 0.9782,1.67115 0.096,0.35112 0.096,1.42161 -10e-5,1.77364 -0.1718,0.63549 -0.4818,1.17527 -0.9418,1.64005 -0.4933,0.49831 -1.0197,0.80975 -1.6717,0.98881 -0.3534,0.0971 -1.263,0.12685 -1.618,0.0529 z m 2.3261,-0.47227 c 0.1464,-0.0766 0.3728,-0.21935 0.503,-0.3173 0.2225,-0.16743 0.2326,-0.18094 0.1689,-0.2255 -0.037,-0.0261 -0.1773,-0.20037 -0.3114,-0.38731 -0.1341,-0.18695 -0.3497,-0.45734 -0.479,-0.60088 -0.3854,-0.42784 -0.8817,-0.93953 -0.9106,-0.93896 -0.1438,0.003 -0.1089,0.14778 0.2895,1.19084 0.066,0.17433 0.1604,0.45909 0.2088,0.63279 0.1601,0.57564 0.2257,0.78554 0.2452,0.78554 0.011,0 0.139,-0.0627 0.2856,-0.13922 z m 0.9635,-0.73938 c 0.187,-0.2078 0.3885,-0.49607 0.4993,-0.71381 l 0.075,-0.14838 -0.097,-0.0367 c -0.3323,-0.12619 -0.5749,-0.22864 -0.7563,-0.31934 -0.1141,-0.0569 -0.5038,-0.23498 -0.8661,-0.39551 -0.897,-0.3975 -0.9156,-0.3759 -0.2549,0.29759 0.4579,0.46685 1.0394,1.18403 1.1412,1.40745 0.024,0.0502 0.054,0.0914 0.069,0.0914 0.015,0 0.1,-0.0822 0.1903,-0.18268 z m -2.1152,-0.81917 c 0.024,-0.0304 0.044,-0.0919 0.044,-0.13657 0,-0.0797 0,-0.0802 -0.1089,-0.0249 -0.061,0.031 -0.146,0.0492 -0.1915,0.0405 -0.069,-0.013 -0.082,-0.001 -0.082,0.0675 0,0.14615 0.2371,0.18352 0.3393,0.0535 z m 2.8393,-0.41609 c 0.1233,-0.38014 0.1645,-0.60227 0.1147,-0.61705 -0.021,-0.006 -0.165,-0.0295 -0.3182,-0.0512 -0.1531,-0.0216 -0.5603,-0.0858 -0.9047,-0.14267 -0.3445,-0.0568 -0.7772,-0.12394 -0.9616,-0.14917 l -0.3352,-0.0458 -0.038,0.12278 c -0.02,0.0675 -0.034,0.12484 -0.03,0.12735 0.011,0.002 0.2033,0.0877 0.4425,0.18919 0.2393,0.10152 0.7168,0.31288 1.0613,0.46967 0.8102,0.36875 0.7935,0.36149 0.8409,0.36424 0.023,0.001 0.08,-0.119 0.128,-0.26731 z m -11.2291,0.11279 c -0.011,-0.0289 -0.011,-0.0923 0.014,-0.14109 0.033,-0.0879 0.033,-0.0885 -0.1315,-0.0779 -0.1635,0.0101 -0.1653,0.0119 -0.176,0.14108 l -0.011,0.13049 h 0.1624 c 0.1305,0 0.1584,-0.0101 0.1423,-0.0525 z m 0.613,3.9e-4 c 0.1278,-0.0202 0.1304,-0.0237 0.1304,-0.17355 0,-0.0841 -0.012,-0.16066 -0.028,-0.17006 -0.016,-0.009 -0.093,-0.008 -0.174,0.002 -0.1356,0.0182 -0.1463,0.0273 -0.1463,0.12588 0,0.0622 -0.033,0.14091 -0.079,0.18988 l -0.079,0.0835 0.1217,-0.0189 c 0.067,-0.0101 0.1806,-0.0281 0.2524,-0.0394 z m 7.9008,-0.007 c -0.024,-0.008 -0.084,-0.1272 -0.1367,-0.26459 l -0.095,-0.24981 -0.045,0.10411 c -0.09,0.21032 -0.051,0.36505 0.091,0.36505 0.053,0 0.1161,0.0238 0.1404,0.053 0.025,0.0292 0.053,0.0427 0.065,0.03 0.011,-0.0127 0.011,-0.0297 -0.02,-0.0377 z m -0.4285,-0.14944 c 0,-0.0742 0.016,-0.17503 0.034,-0.22412 0.053,-0.13962 -0.048,-0.11423 -0.117,0.0291 -0.065,0.13805 -0.07,0.20822 -0.019,0.30247 0.053,0.0995 0.1022,0.0477 0.1022,-0.10747 z m -7.7942,0.002 c 0,-0.0918 -0.1089,-0.12498 -0.1644,-0.05 -0.056,0.077 -0.056,0.14161 0,0.16162 0.068,0.0246 0.1653,-0.0407 0.1653,-0.11163 z m 1.218,-0.40172 c 0.3541,-0.20044 0.6653,-0.37717 0.6917,-0.39272 0.031,-0.0184 0.04,-0.055 0.024,-0.10456 -0.024,-0.0749 -0.028,-0.0739 -0.2395,0.0578 -0.1185,0.0738 -0.4111,0.24788 -0.6504,0.38695 -0.2391,0.13908 -0.4545,0.2771 -0.4784,0.30673 -0.048,0.0606 -0.056,0.11017 -0.017,0.11017 0.015,0 0.3158,-0.164 0.6698,-0.36443 z m 1.3562,0.20149 c 0.1966,-0.0635 0.4913,-0.3019 0.5762,-0.46618 0.067,-0.12936 0.065,-0.1364 -0.033,-0.1364 -0.046,0 -0.1089,-0.009 -0.139,-0.021 -0.093,-0.0357 -0.024,-0.0833 0.1209,-0.0833 0.1164,0 0.1371,-0.0112 0.1371,-0.0739 0,-0.065 -0.011,-0.068 -0.058,-0.026 -0.052,0.0423 -0.056,0.0401 -0.034,-0.0199 0.025,-0.066 0.024,-0.066 -0.046,-0.003 -0.079,0.0714 -0.09,0.0524 -0.035,-0.0619 0.021,-0.0444 -0.011,-0.0225 -0.079,0.0522 -0.1011,0.11291 -0.1206,0.12194 -0.1625,0.0755 -0.037,-0.0411 -0.056,-0.0436 -0.088,-0.0112 -0.029,0.0315 -0.028,0.0462 0.011,0.0584 0.072,0.0263 0.251,0.18665 0.251,0.22471 0,0.0477 -0.4265,-0.18968 -0.446,-0.24824 -0.011,-0.033 0.011,-0.0411 0.058,-0.0275 0.043,0.0112 0.074,0.003 0.074,-0.0189 0,-0.0211 0.042,-0.0822 0.093,-0.13593 0.077,-0.0804 0.123,-0.0976 0.261,-0.0976 0.092,0 0.1674,-0.009 0.1674,-0.0187 0,-0.0101 -0.031,-0.0812 -0.071,-0.15756 l -0.071,-0.13875 -0.1901,0.16418 c -0.1044,0.0903 -0.1901,0.17878 -0.1901,0.1966 0,0.0179 0.024,0.0129 0.052,-0.0112 0.092,-0.0761 0.055,0.0194 -0.04,0.10703 -0.08,0.073 -0.089,0.0751 -0.068,0.0167 0.024,-0.066 0.022,-0.066 -0.047,-0.003 -0.083,0.0749 -0.086,0.0639 -0.027,-0.0774 0.024,-0.0573 0.1336,-0.17736 0.2436,-0.26688 0.2073,-0.16895 0.2167,-0.18276 0.1712,-0.2542 -0.019,-0.0303 -0.1,0.0231 -0.2721,0.18032 -0.2153,0.19648 -0.2429,0.23572 -0.2296,0.32569 0.011,0.082 -0.011,0.1274 -0.1112,0.22854 -0.077,0.0769 -0.1598,0.12625 -0.2121,0.12625 -0.047,0 -0.085,0.0175 -0.085,0.039 0,0.0595 -0.2441,0.44821 -0.2815,0.44821 -0.018,0 0.011,-0.0822 0.063,-0.18268 0.053,-0.10051 0.1011,-0.19382 0.1079,-0.20744 0.011,-0.0137 -0.1067,0.0412 -0.2514,0.1218 -0.1445,0.0806 -0.263,0.15747 -0.2635,0.17085 0,0.0468 0.2449,0.2111 0.3565,0.23758 0.2043,0.0485 0.6022,0.0362 0.7904,-0.0247 z m -0.5391,-0.15893 c 0.053,-0.19362 0.1306,-0.37405 0.1598,-0.37405 0.047,0 0.041,0.0457 -0.04,0.25966 -0.07,0.18508 -0.1644,0.27603 -0.1197,0.11439 z m 0.5848,-0.20877 c -0.1502,-0.12931 -0.251,-0.24038 -0.2526,-0.27837 -0.011,-0.069 0.094,-0.008 0.2893,0.18202 0.231,0.22463 0.2017,0.30161 -0.036,0.0964 z m -2.6856,0.32209 c 0.2328,-0.0429 0.4546,-0.13845 0.4379,-0.18864 -0.011,-0.0208 -0.058,-0.0532 -0.1141,-0.0721 -0.056,-0.0189 -0.1123,-0.0485 -0.1241,-0.0659 -0.03,-0.0429 -0.2897,0.001 -0.4684,0.081 -0.1403,0.0621 -0.2161,0.17114 -0.1704,0.24517 0.028,0.0446 0.1991,0.0448 0.4391,4.7e-4 z m 11.1862,-0.54474 c 0.028,-0.15051 -0.011,-0.67493 -0.061,-0.96912 -0.046,-0.24291 -0.048,-0.24726 -0.1067,-0.20096 -0.051,0.0401 -0.8731,0.28832 -1.7604,0.53133 -0.3315,0.0907 -0.6187,0.18117 -0.6385,0.20089 -0.019,0.0197 -0.026,0.0671 -0.014,0.10512 0.018,0.0545 0.065,0.0742 0.221,0.0923 0.1716,0.0199 2.1177,0.32529 2.3112,0.36269 0.014,0.003 0.035,-0.0524 0.048,-0.12222 z m -9.4805,-0.10624 c 0.075,-0.0517 0.084,-0.0702 0.045,-0.10613 -0.026,-0.0239 -0.11,-0.0436 -0.1874,-0.0436 -0.077,0 -0.1407,-0.0156 -0.1407,-0.0348 0,-0.0193 0.092,-0.0348 0.2071,-0.0348 0.1609,0 0.2147,0.0136 0.2414,0.0609 0.03,0.0547 0.048,0.0482 0.1669,-0.0651 0.089,-0.0842 0.1781,-0.13294 0.2696,-0.14673 0.1524,-0.023 0.2229,-0.0773 0.2442,-0.18818 0.011,-0.0534 0,-0.069 -0.036,-0.0551 -0.069,0.0261 -0.062,-0.0458 0.02,-0.22572 0.058,-0.12975 0.079,-0.14713 0.1471,-0.12658 0.065,0.0196 0.071,0.0157 0.035,-0.0228 -0.026,-0.0281 -0.1235,-0.0469 -0.2436,-0.0474 -0.1602,-4.7e-4 -0.1963,0.009 -0.1849,0.0513 0.025,0.0918 0.038,0.50658 0.015,0.45318 -0.012,-0.0283 -0.041,-0.13786 -0.061,-0.24357 -0.031,-0.15767 -0.052,-0.19418 -0.1149,-0.20316 -0.1823,-0.0259 -0.555,0.25157 -0.6857,0.5107 -0.082,0.16197 -0.1506,0.56092 -0.1089,0.62901 0.024,0.0369 0.1825,-0.0325 0.3714,-0.16145 z m 0.083,-0.32597 c -0.095,-0.0159 -0.2111,-0.0384 -0.2569,-0.05 -0.082,-0.0204 -0.082,-0.0224 -0.018,-0.0845 0.036,-0.0349 0.093,-0.0978 0.128,-0.13975 0.051,-0.0618 0.084,-0.0716 0.1741,-0.052 0.2053,0.0446 0.268,0.0811 0.268,0.15596 0,0.0834 -0.061,0.20933 -0.097,0.20326 -0.014,-0.002 -0.1033,-0.0172 -0.1983,-0.0331 z m 0.2301,-0.12809 c 0.044,-0.0553 0.043,-0.0565 -0.013,-0.0131 -0.058,0.0455 -0.076,0.074 -0.048,0.074 0.011,0 0.035,-0.0274 0.061,-0.0609 z m 0.09,-0.20284 c -0.023,-0.29168 -0.011,-0.35411 0.038,-0.21954 0.063,0.16977 0.075,0.36556 0.028,0.43028 -0.04,0.0553 -0.048,0.0283 -0.067,-0.21074 z m 5.9403,0.73177 c 0.3381,-0.22161 0.057,-0.816 -0.3864,-0.816 -0.122,0 -0.082,0.0401 0.1634,0.16458 0.3179,0.1609 0.396,0.41591 0.1906,0.62133 -0.097,0.0967 -0.085,0.10725 0.033,0.0301 z m -0.1067,-0.0878 c 0.051,-0.0396 0.092,-0.10624 0.092,-0.14788 -10e-5,-0.0768 -0.1195,-0.30195 -0.1602,-0.30195 -0.012,0 -0.011,0.0226 0.019,0.0501 0.065,0.0792 0.028,0.23189 -0.075,0.309 -0.085,0.0631 -0.109,0.0658 -0.2382,0.0271 -0.1731,-0.0518 -0.2195,-0.0219 -0.1067,0.0691 0.113,0.0916 0.3499,0.0888 0.4699,-0.006 z m -2.1353,-0.0785 c 0.622,-0.0512 1.2448,-0.10231 1.384,-0.11348 0.2524,-0.0203 0.2533,-0.0208 0.3227,-0.1567 0.082,-0.1599 0.086,-0.14532 -0.2457,-0.6731 -0.1153,-0.18304 -0.3603,-0.58724 -0.5444,-0.89821 -1.2137,-2.04995 -1.2995,-2.18342 -1.4041,-2.18342 h -0.099 l 0.1426,0.25227 c 0.079,0.13874 0.3803,0.65155 0.6707,1.13956 0.2903,0.488 0.6142,1.04407 0.7196,1.2357 0.1056,0.19161 0.2887,0.4957 0.4068,0.67575 0.1183,0.18006 0.2104,0.35211 0.2045,0.38232 -0.011,0.0471 -0.1148,0.0582 -0.7408,0.0777 -0.4017,0.0125 -0.9614,0.04 -1.2438,0.0611 -0.2825,0.0211 -0.8422,0.0485 -1.2439,0.0611 l -0.7306,0.0228 v 0.11902 0.11901 l 0.6351,-0.014 c 0.3493,-0.008 1.1439,-0.056 1.7659,-0.10726 z m -3.4557,0.006 c 0.1111,-0.104 0.1067,-0.2027 -0.011,-0.2027 -0.1683,0 -0.2816,0.10848 -0.2365,0.22617 0.029,0.0757 0.1522,0.0639 0.2452,-0.0235 z m 5.4564,-0.18531 c 0,-0.12769 -0.1111,-0.15992 -0.2028,-0.0587 -0.089,0.0978 -0.04,0.18679 0.094,0.17371 0.095,-0.009 0.109,-0.0236 0.109,-0.11496 z m 1.6711,-0.42009 c 0.4398,-0.12578 0.9717,-0.27691 1.1823,-0.33584 0.2105,-0.0588 0.3866,-0.11006 0.3915,-0.11354 0.035,-0.0254 -0.328,-0.85427 -0.373,-0.85198 -0.011,4.7e-4 -0.4804,0.30976 -1.045,0.68722 -0.7787,0.52057 -1.0293,0.70517 -1.0377,0.76456 -0.011,0.048 0.011,0.0783 0.036,0.0783 0.026,0 0.4066,-0.10287 0.8464,-0.22871 z m 0.1906,-0.74261 c 0.2774,-0.18579 0.6062,-0.39816 0.7307,-0.47195 0.1244,-0.0738 0.2325,-0.1391 0.2401,-0.14513 0.038,-0.0308 -0.5201,-0.70813 -0.5844,-0.70813 -0.065,0 -1.5695,1.83886 -1.5695,1.91797 0,0.0193 0.016,0.0658 0.036,0.1031 0.034,0.0636 0.055,0.0545 0.3393,-0.14508 0.1665,-0.11718 0.53,-0.36503 0.8075,-0.55081 z m -6.5591,0.44938 c 0.012,-0.0199 -0.018,-0.0348 -0.07,-0.0348 -0.052,0 -0.082,0.0149 -0.07,0.0348 0.011,0.0191 0.043,0.0348 0.07,0.0348 0.026,0 0.058,-0.0157 0.07,-0.0348 z m -5.9623,4.33274 c 0.011,-0.009 0.2583,-0.10938 0.5537,-0.22256 0.2955,-0.11322 0.7544,-0.31 1.0197,-0.43729 0.2655,-0.12729 0.4883,-0.22566 0.4954,-0.2186 0.027,0.0272 -1.241,0.61858 -1.6156,0.75338 -0.3642,0.13106 -0.4954,0.16725 -0.4532,0.12507 z m 13.7801,-0.56608 c 0.011,-0.0999 0.051,-0.14645 0.1244,-0.14735 0.055,-4.7e-4 0.056,0.14626 0,0.20128 -0.075,0.0755 -0.1379,0.0487 -0.1262,-0.054 z m 0.8164,-0.0609 c 0.011,-0.0288 0.036,-0.0522 0.055,-0.0522 0.02,0 0.017,0.022 -0.011,0.0522 -0.024,0.0287 -0.048,0.0522 -0.056,0.0522 -0.011,0 -0.011,-0.0235 0.011,-0.0522 z m -6.6377,-1.0279 c 0.084,-0.0757 0.1699,-0.13709 0.1915,-0.13627 0.021,7.6e-4 -0.032,0.0633 -0.1176,0.13909 -0.086,0.0757 -0.1723,0.137 -0.1914,0.13627 -0.019,-7.7e-4 0.034,-0.0633 0.1175,-0.13909 z m -1.2135,-0.62122 c -0.072,-0.0199 -0.098,-0.0638 -0.1477,-0.2488 -0.034,-0.12354 -0.071,-0.32357 -0.083,-0.4445 l -0.022,-0.21987 0.1355,0.0112 c 0.1236,0.0101 0.1379,0.0219 0.162,0.13289 0.075,0.34428 0.1583,0.68529 0.1814,0.73941 0.021,0.0485 0.011,0.0602 -0.056,0.0574 -0.045,-0.001 -0.1212,-0.0144 -0.1689,-0.0276 z m -0.2585,-1.59559 c 0.046,-0.41023 0.036,-0.39146 0.2042,-0.39146 h 0.1514 l -0.03,0.13049 c -0.017,0.0718 -0.03,0.19703 -0.03,0.27836 v 0.14788 h -0.1559 -0.156 z m 0.4344,0.0174 c 0.011,-0.26531 0.046,-0.42444 0.116,-0.43797 0.061,-0.0114 0.063,0.006 0.04,0.2258 -0.03,0.30352 -0.048,0.36005 -0.1089,0.36005 -0.036,0 -0.049,-0.0418 -0.048,-0.14788 z m 1.7204,-0.0164 c -0.2651,-0.0373 -1.4226,-0.25504 -1.4382,-0.27058 -0.051,-0.0505 0.057,-0.059 0.2983,-0.0234 0.4701,0.0693 1.6923,0.28578 1.7093,0.30278 0.019,0.0192 -0.4181,0.0125 -0.5694,-0.009 z m 1.0613,-0.0441 c 0,-0.019 -0.1397,-0.10467 -0.3105,-0.19039 -0.1708,-0.0858 -0.3206,-0.17204 -0.3326,-0.19173 -0.051,-0.0828 0.1682,-0.0263 0.4151,0.10691 0.1992,0.10748 0.2758,0.1333 0.3104,0.10467 0.073,-0.0607 0.093,-0.003 0.037,0.10501 -0.051,0.0971 -0.1195,0.13514 -0.1195,0.0656 z m -3.5739,-0.13954 c -0.011,-0.0382 -0.033,-0.0695 -0.048,-0.0695 -0.017,0 -0.03,-0.0225 -0.03,-0.0499 0,-0.0532 0.095,-0.0941 0.2518,-0.10748 0.08,-0.007 0.097,0.006 0.097,0.0722 0,0.049 -0.039,0.10849 -0.1011,0.15232 -0.1254,0.0893 -0.1444,0.0895 -0.1672,0.002 z m 3.5594,-0.2389 c -0.015,-0.0243 -0.018,-0.0534 -0.011,-0.065 0.031,-0.0311 0.065,0.0147 0.048,0.0651 -0.011,0.0354 -0.02,0.0354 -0.042,-1.3e-4 z m -3.6738,-0.22765 c 0,-0.0149 0.6181,-1.60614 1.2143,-3.12589 0.1933,-0.49267 0.3514,-0.90982 0.3514,-0.92699 0,-0.0172 0.03,-0.0995 0.068,-0.18291 0.1022,-0.22616 0.093,-0.27346 -0.052,-0.27346 -0.1228,0 -0.1256,0.003 -0.1376,0.17867 0,0.0312 -0.022,0.0794 -0.046,0.10681 -0.024,0.0275 -0.1182,0.25237 -0.212,0.49983 -0.4992,1.31596 -1.5268,3.70335 -1.5942,3.70335 -0.026,0 -0.046,-0.009 -0.046,-0.0201 0,-0.0112 0.1044,-0.25766 0.2315,-0.54803 0.4062,-0.92634 0.6396,-1.49519 0.6213,-1.51346 -0.011,-0.0101 -0.018,-0.004 -0.018,0.0112 0,0.0159 -0.137,-0.16953 -0.3045,-0.41196 -0.1674,-0.24241 -0.402,-0.5799 -0.5214,-0.74995 -0.1783,-0.25416 -0.2083,-0.31627 -0.1688,-0.34905 0.038,-0.0322 0.135,0.0828 0.5055,0.60494 0.2516,0.35462 0.4779,0.69348 0.503,0.75299 0.029,0.0691 0.053,0.0912 0.064,0.0611 0.011,-0.0258 0.1536,-0.37877 0.3184,-0.78416 0.1646,-0.40538 0.2994,-0.75377 0.2994,-0.7742 0,-0.0252 -0.2419,-0.0372 -0.7511,-0.0372 -0.5853,0 -0.7478,-0.0101 -0.7364,-0.0435 0.011,-0.0327 0.2052,-0.0458 0.7796,-0.0529 l 0.7652,-0.009 0.058,-0.12231 c 0.033,-0.0673 0.058,-0.12962 0.058,-0.13854 0,-0.009 -0.3049,-0.0162 -0.6775,-0.0162 -0.5879,0 -0.6748,-0.007 -0.6574,-0.0522 0.017,-0.0439 0.1266,-0.0522 0.6901,-0.0522 h 0.67 l 0.057,-0.14905 c 0.031,-0.082 0.057,-0.1738 0.057,-0.20408 0,-0.0302 0.028,-0.0924 0.063,-0.13802 0.053,-0.0693 0.1144,-0.25169 0.2716,-0.80347 0.012,-0.0438 -0.03,-0.0831 -0.1615,-0.14981 -0.1421,-0.072 -0.1705,-0.10007 -0.1393,-0.13767 0.033,-0.0389 0.091,-0.0232 0.3339,0.0889 0.345,0.15938 0.4496,0.16664 0.8981,0.0621 0.2986,-0.0696 0.3283,-0.085 0.5041,-0.25975 0.2009,-0.19977 0.213,-0.26531 0.085,-0.46184 -0.058,-0.0909 -0.1,-0.0896 -0.464,0.0142 -0.1874,0.0533 -0.8007,0.0761 -0.8716,0.0322 -0.089,-0.0546 0.034,-0.0839 0.3424,-0.0821 0.2381,10e-4 0.4148,-0.0193 0.5987,-0.0697 0.1437,-0.0394 0.2936,-0.072 0.3333,-0.0724 0.1055,-0.001 0.2266,0.14616 0.2471,0.30023 0.016,0.11455 0,0.15596 -0.1033,0.28644 -0.2325,0.29323 -0.5514,0.44181 -1.0442,0.48653 l -0.2433,0.0221 -0.075,0.26096 c -0.042,0.14354 -0.096,0.29737 -0.1194,0.34184 -0.038,0.0718 -0.036,0.083 0.029,0.0997 0.084,0.0221 0.092,0.0871 0.023,0.19467 -0.028,0.0423 -0.092,0.19061 -0.1432,0.32938 l -0.093,0.25232 0.1491,0.22879 c 0.1634,0.25096 0.1752,0.24875 0.237,-0.0445 0.044,-0.20934 0.3353,-1.08428 0.3723,-1.11836 0.063,-0.0576 -0.038,0.32354 -0.2256,0.85379 l -0.2052,0.58036 0.1373,0.20223 c 0.1127,0.16599 0.1261,0.20218 0.075,0.20199 -0.042,-1.4e-4 -0.1452,-0.13009 -0.3058,-0.3814 -0.134,-0.20965 -0.2535,-0.38179 -0.2656,-0.38252 -0.012,-7.8e-4 -0.032,0.0333 -0.043,0.0759 -0.015,0.0566 0.035,0.16043 0.1856,0.38869 0.1133,0.1713 0.1978,0.3247 0.1878,0.34089 -0.03,0.0487 -0.075,7.6e-4 -0.2617,-0.27452 l -0.1776,-0.26322 -0.1707,0.4309 c -0.4534,1.14466 -0.9692,2.47013 -0.9692,2.49056 0,0.0125 0.035,-0.009 0.079,-0.049 0.085,-0.0783 0.3485,-0.21877 0.4095,-0.21877 0.066,0 0,0.0679 -0.1335,0.13665 -0.1417,0.0731 -0.2847,0.19655 -0.2847,0.24588 0,0.0175 0.054,0.0419 0.1194,0.0542 0.1454,0.0273 0.133,0.11994 -0.016,0.11994 -0.128,0 -0.217,-0.0886 -0.187,-0.18634 0.048,-0.15639 -0.019,-0.0285 -0.1249,0.23854 -0.061,0.15309 -0.1268,0.29793 -0.1465,0.32187 -0.034,0.0411 -0.097,0.0601 -0.097,0.0293 z m 1.8441,-4.66584 c 0,-0.0394 -0.043,-0.0522 -0.1739,-0.0522 -0.1314,0 -0.1741,0.0127 -0.1741,0.0522 0,0.0394 0.043,0.0522 0.1741,0.0522 0.1314,0 0.1739,-0.0127 0.1739,-0.0522 z m 0,-0.47919 c 0.1022,-0.38005 0.1022,-0.3867 0.032,-0.40038 -0.043,-0.008 -0.08,0.073 -0.1606,0.35484 -0.1011,0.35121 -0.1,0.41895 0.011,0.37967 0.019,-0.007 0.074,-0.1575 0.1215,-0.33413 z m -1.4274,5.11737 c 0,-0.0651 0.088,-0.14363 0.1401,-0.12601 0.021,0.007 0,0.0503 -0.051,0.0964 -0.069,0.0636 -0.089,0.0708 -0.089,0.0298 z m 0.1045,0.0201 c 0,-0.0216 0.021,-0.0581 0.049,-0.081 0.028,-0.0229 0.078,-0.12274 0.1089,-0.22174 0.2274,-0.69365 0.7552,-1.42332 1.395,-1.92864 l 0.1435,-0.11323 0.073,0.11323 0.073,0.11324 -0.078,0.0632 c -0.6506,0.52762 -1.0316,1.04211 -1.3114,1.77053 l -0.098,0.25396 h -0.1523 c -0.083,0 -0.1637,0.0157 -0.1779,0.0348 -0.016,0.0223 -0.026,0.0206 -0.026,-0.003 z m 0.5362,-0.1086 c 0.037,-0.15795 0.3187,-0.72224 0.4773,-0.95585 0.082,-0.12018 0.2194,-0.29522 0.3064,-0.38898 0.1838,-0.19798 0.547,-0.50805 0.595,-0.50805 0.085,0 0.015,0.13378 -0.1274,0.24357 -0.2139,0.16501 -0.5056,0.48163 -0.6792,0.73746 -0.1496,0.22032 -0.3905,0.70698 -0.4316,0.87185 -0.016,0.0646 -0.046,0.0957 -0.093,0.0957 -0.058,0 -0.065,-0.0156 -0.047,-0.0957 z m 1.2933,-0.0421 c -0.132,-0.0742 -0.367,-0.18461 -0.5218,-0.24536 -0.2935,-0.11499 -0.3625,-0.15666 -0.3238,-0.1953 0.049,-0.0496 1.0132,0.36322 1.229,0.52665 0.062,0.0465 0.058,0.0496 -0.038,0.0493 -0.057,-2.6e-4 -0.2125,-0.0611 -0.3446,-0.13527 z m 0.4357,-0.65429 c -0.4053,-0.4773 -0.6225,-0.7589 -0.593,-0.76877 0.026,-0.009 0.1612,0.10568 0.3045,0.25763 0.3114,0.33005 1.0499,1.20323 1.0499,1.24125 0,0.0149 -0.028,0.0263 -0.061,0.0252 -0.035,-0.001 -0.3327,-0.32212 -0.7006,-0.75526 z m 1.9444,0.69339 c 0,-0.15838 0.395,-2.22151 0.4325,-2.259 0.06,-0.0592 0.052,0.072 -0.033,0.5541 -0.05,0.29347 -0.1387,0.79777 -0.1947,1.12063 -0.056,0.32288 -0.1101,0.60081 -0.1208,0.61764 -0.034,0.0533 -0.084,0.033 -0.084,-0.0334 z m 4.2319,-0.0749 c -0.037,-0.22969 -0.159,-0.51548 -0.3232,-0.75525 -0.1553,-0.22699 -0.1771,-0.32031 -0.047,-0.20255 0.1101,0.10017 0.2764,0.37796 0.3459,0.57996 0.08,0.23029 0.1231,0.51666 0.079,0.51666 -0.018,0 -0.043,-0.0624 -0.055,-0.13882 z m -4.5954,0.0605 c -0.065,-0.20927 -0.1271,-2.29114 -0.07,-2.31128 0.025,-0.009 0.052,0.25682 0.082,0.79691 0.083,1.51678 0.084,1.55786 0.041,1.55786 -0.021,0 -0.046,-0.0196 -0.054,-0.0435 z m -3.0116,-0.30448 c 0.045,-0.0838 0.09,-0.0893 0.118,-0.0146 0.032,0.0813 0.029,0.0841 -0.067,0.0841 -0.078,0 -0.083,-0.009 -0.051,-0.0695 z m -0.4784,-0.91787 c -0.1112,-0.14806 -0.1406,-0.2441 -0.084,-0.27878 0.044,-0.0267 0.2926,0.32474 0.2708,0.38165 -0.03,0.0778 -0.065,0.0584 -0.1864,-0.10287 z m 7.2115,-1.55598 c -1.0247,-0.0902 -2.2896,-0.28966 -2.6012,-0.41023 -0.1033,-0.0401 -0.1346,-0.1248 -0.035,-0.0948 0.4557,0.13704 2.3661,0.43907 3.1148,0.49245 0.1869,0.0132 0.3483,0.038 0.3587,0.0548 0.011,0.0169 -0.011,0.0286 -0.044,0.0263 -0.035,-0.002 -0.3918,-0.0332 -0.7936,-0.0686 z m -13.7068,-1.27947 c -0.038,-0.0632 0.3761,-0.0742 2.802,-0.0742 2.2073,0 2.497,0.006 2.4793,0.0522 -0.018,0.0457 -0.3434,0.0522 -2.6413,0.0522 -1.4425,0 -2.6298,-0.0136 -2.64,-0.0302 z m 4.0606,-0.62226 c -0.6306,-0.85468 -0.984,-1.38513 -0.984,-1.47668 0,-0.0138 0.051,-0.0339 0.1131,-0.0446 0.295,-0.0508 1.8995,-0.1611 2.5835,-0.17765 0.6735,-0.0163 0.7551,-0.0126 0.6785,0.031 -0.064,0.0364 -0.2796,0.0547 -0.8177,0.0693 -0.6558,0.0178 -2.3768,0.14509 -2.4102,0.17837 -0.03,0.0302 0.121,0.25446 0.7018,1.04109 0.3368,0.45607 0.6123,0.84345 0.6123,0.86081 0,0.11429 -0.1474,-0.0345 -0.4773,-0.48164 z m 7.8367,-0.0808 c -0.5381,-0.054 -1.5704,-0.1352 -2.0095,-0.15795 -0.244,-0.0127 -0.4436,-0.0365 -0.4436,-0.053 0,-0.0407 0.6244,-0.0381 1.0961,0.004 0.6531,0.0588 1.6328,0.1824 1.6876,0.21275 0.062,0.0344 0.075,0.0346 -0.3306,-0.006 z m -5.2368,-1.02589 c -0.067,-0.0248 -0.205,-0.0463 -0.3067,-0.0476 -0.4217,-0.007 -0.4291,-0.20921 -0.016,-0.41701 0.2532,-0.12706 0.551,-0.1868 0.799,-0.16024 0.3438,0.0368 0.2612,0.10163 -0.1317,0.10343 -0.2858,0.001 -0.3573,0.0146 -0.5542,0.10298 -0.3975,0.17843 -0.4084,0.24473 -0.045,0.27192 0.2881,0.0216 0.4944,0.0964 0.4229,0.15338 -0.035,0.0279 -0.081,0.0261 -0.1697,-0.007 z m 2.6444,-0.20153 c 0,-0.007 0.026,-0.0623 0.056,-0.12395 0.1044,-0.21016 0.011,-0.48592 -0.2146,-0.61673 -0.094,-0.0551 -0.034,-0.10231 0.08,-0.0623 0.2309,0.0812 0.3283,0.4584 0.1803,0.69784 -0.064,0.10343 -0.1011,0.1424 -0.1011,0.10511 z m 0.6091,-0.38579 c 0,-0.28967 0.011,-0.35703 0.04,-0.31343 0.08,0.10927 0.092,0.3804 0.024,0.53686 l -0.064,0.14554 z m -8.5563,0.25501 c -0.113,-0.0164 -0.2148,-0.04 -0.2262,-0.0522 -0.03,-0.0323 0.4565,0.0223 0.5185,0.0583 0.065,0.0379 0,0.0365 -0.2923,-0.006 z m 1.6351,-1.585134 c 0.1581,-0.158171 0.4888,-0.660985 0.549,-0.835058 0.025,-0.07131 0.065,-0.136384 0.09,-0.144515 0.063,-0.02089 0.023,0.09905 -0.1316,0.386611 -0.1214,0.227565 -0.5325,0.720316 -0.6008,0.720316 -0.018,0 0.025,-0.05728 0.094,-0.127354 z m 10.2789,0.0183 c -0.7392,-0.04616 -1.6816,-0.128342 -3.1491,-0.274631 -0.7462,-0.07446 -1.5409,-0.146065 -1.7657,-0.159238 -0.225,-0.01325 -0.4089,-0.03728 -0.4089,-0.05368 0,-0.06682 0.7798,-0.01875 2.3661,0.145817 0.3731,0.03875 1.342,0.131847 2.1529,0.206968 0.8111,0.07513 1.483,0.145076 1.4935,0.155431 0.021,0.02156 -0.044,0.01965 -0.6888,-0.02067 z m -9.3426,-0.507721 c -0.057,-0.0079 -0.1193,-0.02931 -0.1376,-0.04706 -0.04,-0.03863 0.9057,-0.04054 1.1119,-0.0022 0.1383,0.02561 0.1378,0.02594 -0.083,0.0502 -0.2314,0.02527 -0.7099,0.02482 -0.8909,-7.74e-4 z m 0.5479,-1.009435 c -0.1,-0.0067 -0.1826,-0.02763 -0.1826,-0.04582 0,-0.01988 0.3483,-0.03291 0.8786,-0.03291 1.1346,1.13e-4 2.321,0.03875 2.2341,0.07277 -0.066,0.02605 -2.5699,0.031 -2.9301,0.0056 z m 2.775,-1.508374 c -0.3157,-0.01494 -0.7072,-0.04313 -0.8698,-0.06255 -0.1627,-0.01943 -0.4563,-0.05402 -0.6525,-0.07682 -0.3622,-0.04211 -0.4818,-0.101187 -0.2045,-0.101187 0.1826,0 1.0462,0.08827 1.5503,0.158328 0.1994,0.02774 0.4422,0.05233 0.5392,0.05458 0.097,0.0022 0.2236,0.01606 0.2811,0.03066 0.1308,0.03324 0.124,0.03324 -0.6438,-0.0034 z m -2.8259,-1.641152 c 0.1545,-0.448829 0.1938,-0.977866 0.094,-1.276519 -0.074,-0.223712 -0.048,-0.265677 0.048,-0.07659 0.059,0.117112 0.072,0.205575 0.072,0.519211 0,0.390171 -0.044,0.580057 -0.2386,1.025258 -0.118,0.270286 -0.1078,0.189201 0.024,-0.19138 z m 7.6569,-0.460239 c -0.021,-0.0219 -1.5263,-0.108936 -3.0221,-0.174657 -1.5622,-0.06873 -3.4313,-0.197164 -3.5928,-0.246993 -0.123,-0.03796 -0.06,-0.08782 0.086,-0.06839 0.239,0.03156 2.0347,0.153364 2.8272,0.191716 0.4018,0.01943 1.1221,0.05301 1.6006,0.07446 0.8927,0.04009 2.0887,0.142953 2.1289,0.18317 0.012,0.01247 0.015,0.03043 0.011,0.03998 -0.011,0.01011 -0.025,0.01011 -0.034,7.75e-4 z m -6.4394,-1.98131 c -0.1667,-0.02232 -0.3142,-0.05165 -0.3276,-0.06524 -0.041,-0.04077 0.3706,-0.02525 0.6224,0.02347 0.4673,0.09046 0.2737,0.11789 -0.2948,0.04177 z"
         id="path1938" />
    </g>
  </g>
</svg>
