<?xml version="1.0" encoding="UTF-8" standalone="no"?>
<!-- Created with Inkscape (http://www.inkscape.org/) -->

<svg
   width="6mm"
   height="6mm"
   viewBox="0 0 6 6"
   version="1.1"
   id="svg1"
   inkscape:version="1.4.2 (ebf0e940d0, 2025-05-08)"
   sodipodi:docname="5_1_1_20.svg"
   xmlns:inkscape="http://www.inkscape.org/namespaces/inkscape"
   xmlns:sodipodi="http://sodipodi.sourceforge.net/DTD/sodipodi-0.dtd"
   xmlns="http://www.w3.org/2000/svg"
   xmlns:svg="http://www.w3.org/2000/svg">
  <sodipodi:namedview
     id="namedview1"
     pagecolor="#ffffff"
     bordercolor="#000000"
     borderopacity="0.25"
     inkscape:showpageshadow="2"
     inkscape:pageopacity="0.0"
     inkscape:pagecheckerboard="0"
     inkscape:deskcolor="#d1d1d1"
     inkscape:document-units="mm"
     inkscape:zoom="28.523332"
     inkscape:cx="21.193176"
     inkscape:cy="12.516069"
     inkscape:window-width="1920"
     inkscape:window-height="1014"
     inkscape:window-x="0"
     inkscape:window-y="0"
     inkscape:window-maximized="1"
     inkscape:current-layer="layer1" />
  <defs
     id="defs1">
    <rect
       x="13.485725"
       y="-52.819092"
       width="225.2477"
       height="118.63495"
       id="rect1" />
    <rect
       x="37.795277"
       y="37.795277"
       width="483.77954"
       height="718.11023"
       id="rect2721" />
    <rect
       x="37.795277"
       y="37.795277"
       width="483.77954"
       height="718.11023"
       id="rect2722" />
    <rect
       x="37.795277"
       y="37.795277"
       width="483.77954"
       height="718.11023"
       id="rect2723" />
    <rect
       x="37.795277"
       y="37.795277"
       width="483.77954"
       height="718.11023"
       id="rect2724" />
    <rect
       x="37.795277"
       y="37.795277"
       width="483.77954"
       height="718.11023"
       id="rect2725" />
    <rect
       x="37.795277"
       y="37.795277"
       width="483.77954"
       height="718.11023"
       id="rect2726" />
    <rect
       x="37.795277"
       y="37.795277"
       width="483.77954"
       height="718.11023"
       id="rect2727" />
    <rect
       x="37.795277"
       y="37.795277"
       width="483.77954"
       height="718.11023"
       id="rect2728" />
    <rect
       x="37.795277"
       y="37.795277"
       width="483.77954"
       height="718.11023"
       id="rect2729" />
    <rect
       x="37.795277"
       y="37.795277"
       width="483.77954"
       height="718.11023"
       id="rect2730" />
    <rect
       x="37.795277"
       y="37.795277"
       width="483.77954"
       height="718.11023"
       id="rect2731" />
    <rect
       x="37.795277"
       y="37.795277"
       width="483.77954"
       height="718.11023"
       id="rect2732" />
    <rect
       x="37.795277"
       y="37.795277"
       width="483.77954"
       height="718.11023"
       id="rect2733" />
    <rect
       x="37.795277"
       y="37.795277"
       width="483.77954"
       height="718.11023"
       id="rect2734" />
  </defs>
  <g
     inkscape:label="Katman 1"
     inkscape:groupmode="layer"
     id="layer1">
    <g
       id="g18"
       transform="matrix(0.75004735,0,0,0.75004735,-719.3068,-73.369575)">
      <path
         style="fill:#afc6e9;stroke-width:0.264999"
         d="m 962.23874,105.10545 0.3178,-0.0146 1.4107,-0.64765 1.2306,-0.0159 0.20511,-0.1286 0.22296,-0.4805 0.72046,-0.3158 0.25202,-0.35455 0.12322,-0.69423 0.2631,-0.46137 -0.003,-0.42507 -0.24725,-0.71105 0.13457,-0.57712 0.0746,-0.810547 -0.16386,-0.317252 -0.49901,-0.102354 -0.557,-0.07362 -0.6713,-0.404153 -0.63582,-0.08616 -0.65688,0.301461 -0.34248,0.08275 -0.97819,-0.209378 -0.38729,0.06851 -0.60537,0.352629 -0.52959,0.473128 -1.05505,0.112472 -0.30795,0.445944 -0.20503,0.94826 -0.10525,0.85862 -0.1347,0.35503 0.0315,0.35301 0.25112,0.52719 0.082,0.70938 0.19175,0.27906 0.65495,0.30536 0.46196,0.22113 0.8278,0.11082 z"
         id="path1" />
      <path
         style="fill:#5f8dd3;stroke-width:0.264999"
         d="m 960.18505,101.22149 0.0909,-0.36562 0.42309,-0.29802 0.59799,-0.0179 -0.0167,0.2579 -0.27231,0.24351 -0.56277,0.29201 z"
         id="path2" />
      <path
         style="fill:#5f8dd3;stroke-width:0.264999"
         d="m 960.93353,102.5731 0.21518,-0.29579 0.69626,-0.22732 -0.0502,0.19674 -0.25601,0.43387 -0.27445,-0.0223 z"
         id="path3" />
      <path
         style="fill:#5f8dd3;stroke-width:0.264999"
         d="m 963.04678,102.11113 -0.0637,-0.38504 0.15401,-0.25947 0.3183,-0.16405 0.47635,-0.0825 0.62696,0.48745 -0.004,0.11421 -1.08352,0.38453 z"
         id="path4" />
      <path
         style="fill:#5f8dd3;stroke-width:0.264999"
         d="m 964.75041,100.30145 0.0609,-0.22728 0.41722,-0.213137 0.43421,-0.117134 0.28543,0.116046 -0.1995,0.271735 -0.41108,0.16858 z"
         id="path5" />
      <path
         style="fill:#5f8dd3;stroke-width:0.264999"
         d="m 965.17199,101.25177 0.1428,0.20295 0.22984,0.0921 0.11444,-0.14204 -0.0526,-0.2462 -0.24405,-0.0366 z"
         id="path6" />
      <path
         style="fill:#5f8dd3;stroke-width:0.264999"
         d="m 962.58561,100.26721 0.23887,-0.285419 0.58319,0.09965 -0.10086,0.22634 -0.41939,0.006 z"
         id="path7" />
      <path
         style="fill:#000000;stroke-width:0.05486"
         d="m 967.05452,101.91924 c -0.0316,0.13022 -0.0444,0.17053 -0.0788,0.24767 -0.0216,0.0484 -0.0753,0.14075 -0.11944,0.2052 -0.1029,0.15032 -0.12277,0.21316 -0.14864,0.47011 -0.034,0.33886 -0.0849,0.45673 -0.2711,0.62918 -0.11611,0.10746 -0.35964,0.23741 -0.60016,0.32024 -0.16336,0.0563 -0.21934,0.10377 -0.26308,0.22323 -0.0135,0.0369 -0.0429,0.1161 -0.0655,0.17608 -0.0951,0.25327 -0.28001,0.33288 -0.704,0.30319 -0.0946,-0.006 -0.2832,-0.0164 -0.41893,-0.0217 -0.38058,-0.0149 -0.50584,0.02 -0.92269,0.25697 -0.25735,0.14635 -0.50272,0.26175 -0.78277,0.36816 -0.17905,0.068 -0.18321,0.0688 -0.32307,0.0632 l -0.14167,-0.006 -0.29382,-0.14729 c -0.39683,-0.19892 -0.42426,-0.20668 -0.91215,-0.25814 -0.32665,-0.0344 -0.46791,-0.0812 -0.64952,-0.2149 -0.10525,-0.0775 -0.19928,-0.12394 -0.39214,-0.19375 -0.29015,-0.105 -0.41567,-0.20135 -0.50357,-0.38647 -0.0686,-0.14445 -0.0927,-0.2676 -0.10574,-0.54054 l -0.0111,-0.23256 -0.11067,-0.22467 c -0.149,-0.30238 -0.17821,-0.40042 -0.1772,-0.59479 6.2e-4,-0.16945 0.0311,-0.28261 0.10994,-0.41126 0.046,-0.0753 0.0574,-0.15328 0.0999,-0.69188 0.0496,-0.62717 0.12521,-0.93049 0.33052,-1.326081 0.094,-0.18115 0.18335,-0.28463 0.28425,-0.32925 0.0672,-0.0297 0.0838,-0.0307 0.34109,-0.0208 0.29847,0.0111 0.42044,-0.004 0.62683,-0.0731 0.14655,-0.0498 0.18034,-0.0749 0.40572,-0.30012 0.10783,-0.10771 0.23187,-0.22187 0.27577,-0.25365 0.20379,-0.14754 0.4468,-0.26018 0.71578,-0.33178 0.16783,-0.0447 0.17585,-0.0437 0.52233,0.0656 0.31854,0.10056 0.43625,0.12314 0.63434,0.12203 0.22125,-0.001 0.34834,-0.0415 0.52783,-0.16663 0.14291,-0.0997 0.29682,-0.17482 0.41566,-0.20277 0.11117,-0.0262 0.36176,-0.0221 0.4935,0.007 0.25184,0.0574 0.50927,0.1838 0.77032,0.37818 0.1668,0.12418 0.24126,0.14771 0.52715,0.1665 0.50405,0.0331 0.61883,0.0655 0.74664,0.2107 0.0896,0.10167 0.11142,0.19137 0.10994,0.44938 -8.7e-4,0.25542 -0.0154,0.350461 -0.10081,0.682211 -0.11697,0.45503 -0.11672,0.53358 0.002,0.81747 0.11462,0.27352 0.15246,0.41287 0.15853,0.58323 0.004,0.0838 0.002,0.16547 -10e-4,0.18143 z m -0.13672,-0.38107 c -0.0159,-0.0576 -0.0675,-0.20117 -0.1145,-0.31905 -0.11512,-0.28877 -0.124,-0.33689 -0.0972,-0.52701 0.0123,-0.0835 0.0481,-0.25517 0.0808,-0.38153 0.0746,-0.28891 0.10167,-0.467011 0.10179,-0.671201 10e-5,-0.19368 -0.0249,-0.29047 -0.0953,-0.36827 -0.094,-0.10413 -0.21188,-0.13484 -0.61595,-0.16077 -0.36716,-0.0236 -0.44181,-0.0464 -0.63728,-0.19525 -0.37029,-0.28193 -0.78348,-0.42168 -1.10056,-0.37227 -0.15116,0.0236 -0.25222,0.0659 -0.40338,0.16914 -0.17256,0.11783 -0.23223,0.14746 -0.36743,0.18252 -0.24385,0.0633 -0.52313,0.0333 -0.94633,-0.10154 -0.1239,-0.0395 -0.24839,-0.0761 -0.27663,-0.0814 -0.0872,-0.0164 -0.3748,0.0712 -0.59386,0.18093 -0.18711,0.0936 -0.29087,0.17395 -0.53902,0.41702 -0.24922,0.24413 -0.30488,0.27955 -0.53021,0.33745 -0.19397,0.0498 -0.31602,0.0606 -0.5718,0.0501 -0.27661,-0.0111 -0.31013,-0.004 -0.40025,0.1013 -0.0648,0.0748 -0.22199,0.394501 -0.27935,0.567841 -0.0843,0.25448 -0.12922,0.55861 -0.17661,1.19402 -0.0217,0.2911 -0.0333,0.34801 -0.0938,0.45795 -0.0669,0.12166 -0.0939,0.22178 -0.0941,0.34901 -2.7e-4,0.14644 0.032,0.25002 0.16349,0.52463 l 0.11807,0.24675 0.0123,0.21773 c 0.0148,0.26429 0.0412,0.41851 0.0898,0.52478 0.0814,0.17798 0.17188,0.24812 0.45569,0.35357 0.22479,0.0835 0.30359,0.12264 0.41627,0.20694 0.0477,0.0357 0.11462,0.079 0.14848,0.0961 0.0843,0.0427 0.2697,0.0841 0.46094,0.10327 0.48079,0.048 0.54221,0.0649 0.90286,0.24796 0.31591,0.16038 0.40167,0.18691 0.52235,0.1616 0.18689,-0.0392 0.64957,-0.24859 1.06072,-0.48005 0.30274,-0.17043 0.55356,-0.23248 0.86704,-0.21452 0.0879,0.005 0.26417,0.0167 0.39191,0.0257 0.2703,0.0194 0.40444,0.005 0.49607,-0.0549 0.0728,-0.0473 0.10636,-0.10068 0.16252,-0.25859 0.0906,-0.25506 0.13803,-0.30423 0.3734,-0.38704 0.42037,-0.14793 0.64917,-0.31487 0.73266,-0.53459 0.0149,-0.0391 0.0341,-0.13194 0.0427,-0.20639 0.009,-0.0744 0.0217,-0.18504 0.0289,-0.24572 0.0176,-0.14739 0.0579,-0.24916 0.1545,-0.3911 0.13793,-0.20256 0.17599,-0.31419 0.17793,-0.52215 6.1e-4,-0.097 -0.007,-0.16944 -0.0276,-0.2429 z m -0.41891,-0.89751 c -0.21741,0.13208 -0.23327,0.21672 -0.10968,0.58525 0.0713,0.21274 0.0898,0.32983 0.0659,0.41823 -0.0268,0.099 -0.0784,0.13402 -0.26714,0.18175 -0.19486,0.0492 -0.27846,0.0829 -0.33286,0.13385 -0.0654,0.0613 -0.067,0.0964 -0.0247,0.55001 0.0173,0.18557 0.0168,0.20253 -0.009,0.25855 -0.0573,0.12709 -0.14082,0.16152 -0.37905,0.15633 -0.21471,-0.005 -0.24993,0.0128 -0.34217,0.17032 -0.0374,0.0639 -0.0883,0.15037 -0.11326,0.19222 -0.0628,0.10562 -0.12839,0.15236 -0.2247,0.16035 l -0.0774,0.006 -0.0954,-0.0887 c -0.12141,-0.11302 -0.14678,-0.1145 -0.26324,-0.016 -0.13041,0.1103 -0.21114,0.13677 -0.4135,0.13583 -0.13836,-6.2e-4 -0.18914,-0.007 -0.29668,-0.0401 -0.25777,-0.0781 -0.48585,-0.22328 -0.61781,-0.39328 -0.0876,-0.11277 -0.14347,-0.14534 -0.24669,-0.14362 -0.15211,0.002 -0.33683,0.11463 -0.6895,0.41846 -0.25041,0.21572 -0.32262,0.27115 -0.39647,0.30441 -0.0545,0.0246 -0.0722,0.0259 -0.14967,0.0111 -0.0484,-0.009 -0.17227,-0.0496 -0.27553,-0.0903 -0.29401,-0.11586 -0.36896,-0.11326 -0.51804,0.0172 -0.0939,0.0822 -0.24918,0.16119 -0.36289,0.18473 -0.11475,0.0238 -0.24303,0.0205 -0.27041,-0.007 -0.027,-0.027 -0.0271,-0.0289 -0.007,-0.0653 0.0126,-0.0234 0.0311,-0.028 0.11302,-0.028 0.18687,0 0.31711,-0.0516 0.47645,-0.1887 0.16711,-0.14382 0.292,-0.14667 0.62004,-0.0142 0.1,0.0404 0.21309,0.0769 0.25147,0.0812 0.0896,0.01 0.12451,-0.0123 0.43268,-0.27736 0.27695,-0.23816 0.39852,-0.32693 0.54431,-0.39745 0.10056,-0.0487 0.11882,-0.0527 0.2405,-0.0527 0.11857,0 0.13751,0.004 0.19057,0.039 0.0325,0.0215 0.0877,0.0769 0.12301,0.12326 0.16806,0.22112 0.4974,0.38917 0.79741,0.40688 0.17748,0.01 0.27021,-0.0158 0.37703,-0.10697 0.097,-0.0828 0.14426,-0.10648 0.21216,-0.10636 0.0634,1.1e-4 0.11277,0.029 0.19439,0.11389 0.10303,0.10722 0.18158,0.0718 0.28781,-0.12963 0.089,-0.16866 0.14648,-0.24456 0.21688,-0.28595 0.063,-0.037 0.0809,-0.04 0.28268,-0.0468 0.21414,-0.007 0.21556,-0.007 0.25038,-0.048 0.0428,-0.0498 0.0458,-0.13583 0.0133,-0.39528 -0.0123,-0.0955 -0.0217,-0.20303 -0.0217,-0.23895 -1.1e-4,-0.21488 0.11253,-0.31437 0.46262,-0.40849 0.0829,-0.0223 0.16366,-0.0522 0.17944,-0.0664 0.0445,-0.0402 0.0283,-0.18929 -0.0432,-0.39601 -0.12091,-0.34927 -0.1108,-0.49925 0.0426,-0.63042 0.14409,-0.12339 0.24684,-0.15497 0.25567,-0.0787 0.004,0.0331 -0.007,0.0456 -0.0822,0.0911 z m -0.52423,-0.676501 c -0.0856,0.118081 -0.42159,0.350611 -0.56054,0.387831 -0.11919,0.0319 -0.44073,0.0445 -0.58198,0.0227 -0.15248,-0.0234 -0.2843,-0.0876 -0.33387,-0.16256 -0.13385,-0.20226 0.0363,-0.454091 0.38741,-0.573641 0.11129,-0.0379 0.45358,-0.0384 0.60963,-0.001 0.17693,0.0426 0.45929,0.1409 0.49209,0.17147 0.042,0.039 0.0381,0.0848 -0.0127,0.15506 z m -0.2415,-0.14117 c -0.15215,-0.0508 -0.35261,-0.0961 -0.48495,-0.10945 -0.31908,-0.0319 -0.68186,0.15448 -0.68186,0.350521 0,0.0634 0.0237,0.1008 0.0906,0.14246 0.0379,0.0237 0.0401,0.0236 0.048,-10e-4 0.063,-0.208481 0.28336,-0.364041 0.57998,-0.409661 0.096,-0.0148 0.13791,-0.002 0.13791,0.0404 0,0.0402 -0.0248,0.0524 -0.15879,0.0781 -0.15815,0.0302 -0.28389,0.0928 -0.36833,0.183041 -0.0644,0.0688 -0.097,0.13682 -0.0757,0.15809 0.0178,0.0179 0.38066,0.0204 0.49003,0.004 0.14543,-0.0226 0.36674,-0.1531 0.53755,-0.317071 0.0637,-0.0611 0.0677,-0.0569 -0.11425,-0.11771 z m -0.0575,1.646281 c -0.0318,0.0886 -0.08,0.12339 -0.17106,0.12339 -0.0977,0 -0.21007,-0.0544 -0.30222,-0.14649 -0.1301,-0.12988 -0.12153,-0.25984 0.0217,-0.33088 0.0563,-0.0279 0.0944,-0.0349 0.19594,-0.0363 0.14483,-0.001 0.20363,0.021 0.25003,0.0971 0.0344,0.0564 0.0373,0.20493 0.005,0.29321 z m -0.11438,-0.24741 c -0.0285,-0.0285 -0.0503,-0.0357 -0.10969,-0.0357 -0.0925,0 -0.1965,0.0254 -0.22009,0.0538 -0.0426,0.0513 0.0999,0.20404 0.22082,0.23659 0.0747,0.0201 0.10833,0.002 0.12706,-0.0688 0.0257,-0.0964 0.0206,-0.14731 -0.018,-0.18603 z m -0.15197,2.58433 c -0.0542,0.0879 -0.12881,0.19316 -0.16571,0.23408 -0.1198,0.13284 -0.0886,0.12753 -0.80789,0.13787 -0.3787,0.005 -0.66336,0.0157 -0.71123,0.0257 -0.10006,0.0207 -0.23399,0.0846 -0.45724,0.2181 -0.26608,0.1591 -0.45493,0.20191 -0.5174,0.11734 -0.0572,-0.0775 0.0215,-0.20355 0.31993,-0.5116 0.099,-0.10216 0.17732,-0.18821 0.17418,-0.19121 -0.01,-0.01 -0.27235,0.16204 -0.44677,0.29229 -0.0966,0.0722 -0.25224,0.21057 -0.36455,0.32423 -0.20694,0.20945 -0.28083,0.26047 -0.37727,0.26047 -0.0841,0 -0.13586,-0.0262 -0.27648,-0.14011 -0.19041,-0.15428 -0.22308,-0.16456 -0.57083,-0.17958 -0.31046,-0.0134 -0.43215,-0.0363 -0.4589,-0.0862 -0.0516,-0.0964 0.0269,-0.17065 0.3076,-0.29104 0.0616,-0.0264 0.10894,-0.0528 0.10524,-0.0586 -0.004,-0.006 -0.0605,-0.0183 -0.12639,-0.0275 l -0.11981,-0.0169 -0.17418,0.0791 c -0.23954,0.10883 -0.34878,0.14033 -0.48617,0.14033 -0.0903,0 -0.11993,-0.005 -0.14726,-0.0281 -0.0279,-0.0228 -0.0313,-0.0331 -0.0183,-0.0544 0.0133,-0.022 0.0427,-0.0276 0.17419,-0.0345 0.16962,-0.009 0.23037,-0.0275 0.47671,-0.1465 0.0959,-0.0463 0.13063,-0.0556 0.20589,-0.0556 0.14941,0 0.44564,0.07 0.46055,0.10882 0.0165,0.0432 -0.01,0.064 -0.17686,0.13889 -0.26648,0.11956 -0.37019,0.1743 -0.35636,0.18799 0.0163,0.0162 0.32225,0.0429 0.49305,0.0432 0.2043,2.2e-4 0.29814,0.0397 0.51352,0.21613 0.0939,0.0769 0.11647,0.0888 0.16838,0.0888 0.0765,0 0.1416,-0.0462 0.27568,-0.19549 0.227,-0.25281 0.77973,-0.65648 0.96729,-0.70644 0.0613,-0.0164 0.0713,-0.0154 0.098,0.009 0.0163,0.0148 0.0296,0.0359 0.0296,0.047 0,0.0522 -0.0765,0.15662 -0.23189,0.31623 -0.18886,0.19403 -0.3342,0.36232 -0.3342,0.38698 0,0.0268 0.10969,0.002 0.20794,-0.0478 0.0494,-0.0248 0.15961,-0.0865 0.24515,-0.13714 0.32001,-0.18951 0.27881,-0.18194 1.05647,-0.19395 0.49309,-0.007 0.66964,-0.0149 0.69673,-0.0289 0.072,-0.0371 0.149,-0.12711 0.24255,-0.28377 0.0891,-0.14929 0.12512,-0.19595 0.15108,-0.19595 0.0174,0 0.0565,0.0442 0.0554,0.0627 -5.1e-4,0.01 -0.0453,0.089 -0.0996,0.17677 z m -0.79821,-1.97112 c -0.0364,0.0585 -0.084,0.083 -0.24397,0.12597 -0.0701,0.0188 -0.20249,0.0703 -0.2943,0.11463 -0.51858,0.24993 -0.94862,0.243 -1.22644,-0.0197 -0.13675,-0.12933 -0.20578,-0.33264 -0.17033,-0.50162 0.0642,-0.30628 0.33354,-0.49078 0.76019,-0.52082 0.25658,-0.0181 0.3876,0.0242 0.61949,0.20009 0.0824,0.0624 0.20324,0.15011 0.26853,0.19474 0.16772,0.11462 0.2352,0.17155 0.26989,0.22768 0.0457,0.0738 0.0505,0.12525 0.0169,0.17907 z m -0.13257,-0.14667 c -0.0243,-0.0278 -0.11092,-0.0955 -0.19232,-0.15055 -0.0814,-0.055 -0.21011,-0.14784 -0.28595,-0.20613 -0.0758,-0.0582 -0.17383,-0.12289 -0.21773,-0.14368 -0.0739,-0.0349 -0.0944,-0.0376 -0.27579,-0.0371 -0.22106,6.2e-4 -0.3299,0.0232 -0.46901,0.0971 -0.22854,0.12141 -0.31892,0.36688 -0.21508,0.58412 0.0228,0.0479 0.0589,0.10303 0.08,0.1224 l 0.0384,0.0354 -0.009,-0.0499 c -0.004,-0.0274 -0.0111,-0.0619 -0.0137,-0.0766 -0.0111,-0.0555 0.025,-0.20777 0.0687,-0.2897 0.0817,-0.15321 0.26097,-0.27578 0.47378,-0.32384 0.11549,-0.0262 0.14687,-0.0162 0.14687,0.0466 0,0.0255 -0.01,0.0365 -0.04,0.0431 -0.27103,0.0597 -0.4151,0.14999 -0.49308,0.30876 -0.0558,0.11351 -0.0565,0.25012 -10e-4,0.36719 0.0505,0.10821 0.0882,0.1219 0.33158,0.12005 0.22113,-0.001 0.34954,-0.0358 0.62414,-0.16595 0.0998,-0.0474 0.23696,-0.0997 0.30482,-0.11635 0.13296,-0.0327 0.18871,-0.0603 0.18871,-0.0935 0,-0.0111 -0.02,-0.0437 -0.0443,-0.0713 z m -1.00726,-1.52835 c -0.0253,0.0708 -0.0919,0.167 -0.13556,0.19559 -0.0577,0.0379 -0.80547,0.005 -0.95537,-0.0416 -0.0705,-0.022 -0.11438,-0.0779 -0.11265,-0.14314 10e-4,-0.0785 0.0974,-0.250001 0.19479,-0.350411 0.11882,-0.12252 0.20658,-0.13803 0.43346,-0.0768 0.0445,0.0123 0.15719,0.027 0.25031,0.0334 0.19178,0.0131 0.25996,0.0385 0.31331,0.11709 0.0382,0.0563 0.0436,0.176501 0.0111,0.265871 z m -0.0945,-0.184191 c -0.0212,-0.0558 -0.086,-0.0814 -0.20673,-0.0818 -0.0582,-1.6e-4 -0.14842,-0.01 -0.20032,-0.0213 -0.19284,-0.0428 -0.28492,-0.0555 -0.32694,-0.045 -0.0605,0.0151 -0.16483,0.12843 -0.22472,0.243951 -0.0601,0.11586 -0.0518,0.13449 0.0667,0.14996 l 0.0739,0.01 0.046,-0.0817 c 0.0627,-0.11117 0.13897,-0.192301 0.19949,-0.212281 0.0434,-0.0143 0.0691,-0.0111 0.18411,0.0233 0.15621,0.0466 0.19559,0.0744 0.17091,0.120551 -0.0215,0.0401 -0.0426,0.0391 -0.18586,-0.009 l -0.11956,-0.0395 -0.0401,0.0294 c -0.022,0.0162 -0.0618,0.0616 -0.0886,0.10093 l -0.0486,0.0716 0.0703,0.009 c 0.0386,0.005 0.17257,0.0133 0.29753,0.019 l 0.2272,0.01 0.0376,-0.0494 c 0.0385,-0.0505 0.0783,-0.14362 0.0803,-0.18731 5.5e-4,-0.0135 -0.005,-0.041 -0.0128,-0.061 z m -1.48679,2.211901 c -0.0374,0.12969 -0.15104,0.32219 -0.28055,0.47537 l -0.0644,0.0763 -0.12589,-5e-5 c -0.33108,-1.7e-4 -0.61276,-0.0927 -0.71913,-0.23618 -0.0447,-0.0602 -0.0408,-0.17457 0.009,-0.25902 0.0964,-0.16446 0.22533,-0.26461 0.398,-0.30912 0.12104,-0.0312 0.62089,-0.0329 0.69397,-0.002 0.0906,0.0379 0.12429,0.13426 0.0893,0.25524 z m -0.11413,-0.14176 c -0.01,-0.009 -0.10956,-0.0193 -0.22135,-0.0249 -0.24451,-0.0123 -0.41751,0.007 -0.52548,0.0592 -0.12067,0.0581 -0.25108,0.22 -0.25108,0.31189 0,0.0301 0.0996,0.14416 0.1253,0.14365 0.007,-1.1e-4 0.0283,-0.0365 0.0475,-0.0807 0.0429,-0.0991 0.18635,-0.25012 0.27724,-0.29193 0.0823,-0.0379 0.21167,-0.0669 0.26852,-0.0603 0.0353,0.005 0.0444,0.0127 0.0481,0.0449 0.004,0.0318 -0.004,0.0428 -0.0336,0.0544 -0.021,0.007 -0.0538,0.0146 -0.0729,0.0146 -0.0191,0 -0.0727,0.0139 -0.11882,0.0309 -0.14281,0.0524 -0.33302,0.28052 -0.27223,0.32639 0.0231,0.0175 0.17019,0.0428 0.33409,0.0576 l 0.10229,0.01 0.0455,-0.0519 c 0.094,-0.10709 0.22146,-0.3178 0.25144,-0.41575 0.0173,-0.0565 0.0154,-0.11117 -0.004,-0.12725 z m -0.41531,-1.29958 c -0.0561,0.16244 -0.1479,0.2475 -0.41376,0.38344 -0.0809,0.0413 -0.19277,0.10673 -0.24868,0.14531 -0.13092,0.0903 -0.24709,0.1224 -0.36471,0.10069 -0.40158,-0.0743 -0.56799,-0.45861 -0.32839,-0.75851 0.17313,-0.21671 0.40199,-0.3157 0.73113,-0.31625 0.2807,-4.5e-4 0.527,0.0622 0.6083,0.15484 0.0373,0.0424 0.0431,0.0605 0.0426,0.13209 -2.7e-4,0.0457 -0.0123,0.11697 -0.0264,0.15844 z m -0.12178,-0.13217 c -0.0855,-0.0243 -0.3262,-0.0262 -0.44571,-0.004 -0.15901,0.0302 -0.2573,0.0795 -0.37116,0.18599 -0.14546,0.13607 -0.19597,0.27152 -0.15022,0.40277 0.0371,0.10635 0.19109,0.0986 0.36355,-0.0184 0.0506,-0.0343 0.16374,-0.10006 0.25155,-0.14625 0.25255,-0.13278 0.334,-0.20415 0.37019,-0.32435 0.0199,-0.066 0.016,-0.0867 -0.0183,-0.0964 z m -0.20683,-0.17528 c -0.13772,-0.0286 -0.40146,-0.0324 -0.52363,-0.007 -0.13168,0.0268 -0.25141,0.0906 -0.3492,0.18592 -0.18367,0.17916 -0.20744,0.3637 -0.0663,0.51457 0.0206,0.022 0.0411,0.0399 0.0455,0.0399 0.004,-5e-5 0.009,-0.0385 0.009,-0.0855 0.002,-0.2419 0.28378,-0.51807 0.59426,-0.58329 0.0479,-0.01 0.16752,-0.0184 0.26582,-0.0184 0.0983,-4e-5 0.17015,-0.005 0.15967,-0.0111 -0.0111,-0.006 -0.0713,-0.0216 -0.13518,-0.0348 z"
         id="path3924" />
    </g>
  </g>
</svg>
