<?xml version="1.0" encoding="UTF-8" standalone="no"?>
<!-- Created with Inkscape (http://www.inkscape.org/) -->

<svg
   width="6mm"
   height="6mm"
   viewBox="0 0 6 6"
   version="1.1"
   id="svg1"
   inkscape:version="1.4.2 (ebf0e940d0, 2025-05-08)"
   sodipodi:docname="5_1_1_21.svg"
   xmlns:inkscape="http://www.inkscape.org/namespaces/inkscape"
   xmlns:sodipodi="http://sodipodi.sourceforge.net/DTD/sodipodi-0.dtd"
   xmlns="http://www.w3.org/2000/svg"
   xmlns:svg="http://www.w3.org/2000/svg">
  <sodipodi:namedview
     id="namedview1"
     pagecolor="#ffffff"
     bordercolor="#000000"
     borderopacity="0.25"
     inkscape:showpageshadow="2"
     inkscape:pageopacity="0.0"
     inkscape:pagecheckerboard="0"
     inkscape:deskcolor="#d1d1d1"
     inkscape:document-units="mm"
     inkscape:zoom="24.997208"
     inkscape:cx="19.102133"
     inkscape:cy="11.001229"
     inkscape:window-width="1920"
     inkscape:window-height="1014"
     inkscape:window-x="0"
     inkscape:window-y="0"
     inkscape:window-maximized="1"
     inkscape:current-layer="layer1" />
  <defs
     id="defs1">
    <rect
       x="13.485725"
       y="-52.819092"
       width="225.2477"
       height="118.63495"
       id="rect1" />
    <rect
       x="37.795277"
       y="37.795277"
       width="483.77954"
       height="718.11023"
       id="rect2721" />
    <rect
       x="37.795277"
       y="37.795277"
       width="483.77954"
       height="718.11023"
       id="rect2722" />
    <rect
       x="37.795277"
       y="37.795277"
       width="483.77954"
       height="718.11023"
       id="rect2723" />
    <rect
       x="37.795277"
       y="37.795277"
       width="483.77954"
       height="718.11023"
       id="rect2724" />
    <rect
       x="37.795277"
       y="37.795277"
       width="483.77954"
       height="718.11023"
       id="rect2725" />
    <rect
       x="37.795277"
       y="37.795277"
       width="483.77954"
       height="718.11023"
       id="rect2726" />
    <rect
       x="37.795277"
       y="37.795277"
       width="483.77954"
       height="718.11023"
       id="rect2727" />
    <rect
       x="37.795277"
       y="37.795277"
       width="483.77954"
       height="718.11023"
       id="rect2728" />
    <rect
       x="37.795277"
       y="37.795277"
       width="483.77954"
       height="718.11023"
       id="rect2729" />
    <rect
       x="37.795277"
       y="37.795277"
       width="483.77954"
       height="718.11023"
       id="rect2730" />
    <rect
       x="37.795277"
       y="37.795277"
       width="483.77954"
       height="718.11023"
       id="rect2731" />
    <rect
       x="37.795277"
       y="37.795277"
       width="483.77954"
       height="718.11023"
       id="rect2732" />
    <rect
       x="37.795277"
       y="37.795277"
       width="483.77954"
       height="718.11023"
       id="rect2733" />
    <rect
       x="37.795277"
       y="37.795277"
       width="483.77954"
       height="718.11023"
       id="rect2734" />
  </defs>
  <g
     inkscape:label="Katman 1"
     inkscape:groupmode="layer"
     id="layer1">
    <g
       id="g10"
       transform="matrix(0.7500005,0,0,0.7500005,-482.31064,-81.189018)">
      <ellipse
         style="fill:#eed7f4;stroke-width:0.274479"
         id="path8"
         cx="647.05847"
         cy="112.25195"
         rx="3.8710644"
         ry="3.8320196" />
      <ellipse
         style="fill:#cd87de;stroke-width:0.264999"
         id="path9"
         cx="646.5741"
         cy="113.95853"
         rx="0.2832742"
         ry="0.30319491" />
      <ellipse
         style="fill:#cd87de;stroke-width:0.264999"
         id="ellipse9"
         cx="647.62164"
         cy="111.25148"
         rx="0.2832742"
         ry="0.30319491" />
      <ellipse
         style="fill:#cd87de;stroke-width:0.237192"
         id="ellipse10"
         cx="645.46191"
         cy="110.08644"
         rx="0.25986058"
         ry="0.26478893" />
      <path
         style="fill:#000000;stroke-width:0.27604"
         d="m 646.54487,116.23336 c -1.49933,-0.22737 -2.75927,-1.23978 -3.26292,-2.62189 -0.22086,-0.606 -0.27014,-1.82056 -0.0981,-2.41666 0.40905,-1.41688 1.54673,-2.50147 2.97791,-2.83891 2.46494,-0.58119 4.87475,1.35036 4.87475,3.90727 0,1.69498 -1.16758,3.30724 -2.74877,3.79562 -0.47046,0.14531 -1.35298,0.23371 -1.74291,0.17457 z m 1.74871,-0.4334 c 1.50389,-0.51105 2.52387,-1.94038 2.52387,-3.53679 0,-2.33237 -2.1765,-4.15471 -4.43157,-3.71045 -0.79971,0.15755 -1.34222,0.43428 -1.92011,0.97944 -0.52229,0.4927 -0.85829,1.03548 -1.0545,1.70351 -0.13195,0.44926 -0.151,1.41016 -0.0377,1.9019 0.12603,0.54699 0.49187,1.22075 0.90313,1.66332 1.04955,1.12937 2.54143,1.50044 4.01684,0.99907 z m -0.44073,-0.71584 c -0.0619,-0.16125 0.0204,-0.24357 0.13203,-0.13201 0.066,0.0658 0.0661,0.10671 0,0.17167 -0.065,0.065 -0.0966,0.0555 -0.13319,-0.0397 z m -2.69869,-0.26955 c -0.0672,-0.1088 0.0105,-0.1679 0.15056,-0.11425 0.0646,0.0247 0.0969,0.0781 0.0719,0.11857 -0.0592,0.0958 -0.16179,0.0938 -0.22244,-0.005 z m 4.20256,-0.38552 c 0,-0.1169 0.2314,-0.33998 0.35267,-0.33998 0.12977,0 0.1023,0.18128 -0.048,0.31734 -0.16145,0.14611 -0.30466,0.15675 -0.30466,0.0226 z m -3.02113,-0.12618 c -0.11344,-0.0893 -0.19243,-0.22412 -0.19243,-0.32866 0,-0.35136 0.4866,-0.61092 0.71575,-0.38179 0.15428,0.15428 0.10775,0.62035 -0.0747,0.74813 -0.20654,0.14467 -0.21805,0.1437 -0.44863,-0.0377 z m 0.37842,-0.37876 c 0.0187,-0.16199 -0.006,-0.20022 -0.13008,-0.20022 -0.16995,0 -0.26098,0.15741 -0.19318,0.33406 0.0707,0.18455 0.29734,0.0908 0.32326,-0.13384 z m -2.5881,-0.89057 c -0.0223,-0.0583 -0.0185,-0.14209 0.009,-0.18613 0.0714,-0.11553 0.25823,0.0542 0.20692,0.18798 -0.0517,0.13461 -0.16372,0.13366 -0.21573,-0.002 z m 1.52272,0.0193 c 0.0452,-0.13543 0.20236,-0.15788 0.20236,-0.0289 0,0.0636 -0.052,0.11565 -0.11564,0.11565 -0.0636,0 -0.10265,-0.039 -0.0867,-0.0867 z m 2.72522,-0.0543 c -0.0499,-0.0807 0.0654,-0.16788 0.13278,-0.10044 0.0694,0.0694 0.0566,0.16843 -0.0222,0.16843 -0.0377,0 -0.0877,-0.0305 -0.11077,-0.0679 z m -2.19107,-1.31464 c -0.0499,-0.0807 0.0654,-0.16789 0.13277,-0.10044 0.0694,0.0694 0.0565,0.16842 -0.0222,0.16842 -0.0377,0 -0.0877,-0.0305 -0.11078,-0.0679 z m 3.8678,-0.005 c -0.0596,-0.0964 0.0277,-0.23314 0.1146,-0.17947 0.0887,0.0548 0.0881,0.25251 0,0.25251 -0.0377,0 -0.0891,-0.0329 -0.1139,-0.073 z m -5.73332,-0.18259 c 0,-0.067 0.0354,-0.10996 0.0785,-0.0956 0.0432,0.0144 0.0785,0.0574 0.0785,0.0956 0,0.0382 -0.0354,0.0812 -0.0785,0.0956 -0.0432,0.0144 -0.0785,-0.0286 -0.0785,-0.0956 z m 2.99086,-0.005 c -0.23164,-0.27908 0.26793,-0.77865 0.54702,-0.54703 0.13153,0.10914 0.14682,0.31687 0.0382,0.51967 -0.0927,0.17314 -0.45044,0.18986 -0.58532,0.0274 z m 0.42807,-0.27036 c 0.015,-0.0772 -0.0208,-0.12698 -0.0905,-0.12698 -0.0633,0 -0.11495,0.0137 -0.11495,0.0305 0,0.0168 -0.0213,0.0858 -0.0473,0.15348 -0.0354,0.0925 -0.013,0.11638 0.0905,0.0965 0.0757,-0.0146 0.14865,-0.0836 0.1621,-0.15348 z m 1.15866,-0.30243 c -0.0215,-0.0563 -0.0199,-0.12177 0.003,-0.14543 0.0626,-0.0626 0.2448,0.10648 0.19744,0.18309 -0.0597,0.0965 -0.15666,0.0784 -0.20116,-0.0376 z M 645.0963,110.461 c -0.10833,-0.10845 -0.0374,-0.38093 0.14741,-0.56571 0.25777,-0.25777 0.56086,-0.23805 0.59293,0.0386 0.0354,0.30596 -0.54686,0.7206 -0.74034,0.52712 z m 0.50232,-0.39479 c 0.0261,-0.0426 0.0283,-0.0971 0.005,-0.12088 -0.0509,-0.0509 -0.33642,0.19196 -0.33642,0.2861 0,0.0766 0.26346,-0.0545 0.33192,-0.16522 z m 1.20185,-0.0678 c 0,-0.0402 0.0329,-0.073 0.073,-0.073 0.0402,0 0.073,0.0329 0.073,0.073 0,0.0402 -0.0329,0.073 -0.073,0.073 -0.0402,0 -0.073,-0.0329 -0.073,-0.073 z m 1.13205,-0.29214 c -0.0291,-0.0471 -0.0201,-0.11862 0.0201,-0.1588 0.0487,-0.0486 0.0907,-0.0445 0.12607,0.0128 0.0291,0.0471 0.0201,0.11863 -0.0201,0.15881 -0.0488,0.0487 -0.0907,0.0445 -0.12605,-0.0128 z m -1.8624,-0.65732 c 0,-0.0402 0.0327,-0.073 0.073,-0.073 0.0402,0 0.073,0.0329 0.073,0.073 0,0.0402 -0.0329,0.073 -0.073,0.073 -0.0402,0 -0.073,-0.0329 -0.073,-0.073 z"
         id="path3921"
         sodipodi:nodetypes="ssssssssssssssscssccsssssssssssssssssssccsccsssssssssssssscssccssssssssssssssssssssssssssssssssssssssssssssss" />
    </g>
  </g>
</svg>
