<?xml version="1.0" encoding="UTF-8" standalone="no"?>
<!-- Created with Inkscape (http://www.inkscape.org/) -->

<svg
   width="24.172001mm"
   height="5mm"
   viewBox="0 0 24.172 4.9999999"
   version="1.1"
   id="svg1"
   inkscape:version="1.4.2 (ebf0e940d0, 2025-05-08)"
   sodipodi:docname="5_1_1_83.svg"
   xmlns:inkscape="http://www.inkscape.org/namespaces/inkscape"
   xmlns:sodipodi="http://sodipodi.sourceforge.net/DTD/sodipodi-0.dtd"
   xmlns="http://www.w3.org/2000/svg"
   xmlns:svg="http://www.w3.org/2000/svg">
  <sodipodi:namedview
     id="namedview1"
     pagecolor="#ffffff"
     bordercolor="#000000"
     borderopacity="0.25"
     inkscape:showpageshadow="2"
     inkscape:pageopacity="0.0"
     inkscape:pagecheckerboard="0"
     inkscape:deskcolor="#d1d1d1"
     inkscape:document-units="mm"
     inkscape:zoom="5.8369577"
     inkscape:cx="74.525125"
     inkscape:cy="42.830531"
     inkscape:window-width="1241"
     inkscape:window-height="991"
     inkscape:window-x="26"
     inkscape:window-y="23"
     inkscape:window-maximized="0"
     inkscape:current-layer="layer1" />
  <defs
     id="defs1">
    <rect
       x="-26.458582"
       y="130.73653"
       width="155.86105"
       height="46.469273"
       id="rect2" />
    <rect
       x="13.485725"
       y="-52.819092"
       width="225.2477"
       height="118.63495"
       id="rect1" />
    <rect
       x="37.795277"
       y="37.795277"
       width="483.77954"
       height="718.11023"
       id="rect2721" />
    <rect
       x="37.795277"
       y="37.795277"
       width="483.77954"
       height="718.11023"
       id="rect2722" />
    <rect
       x="37.795277"
       y="37.795277"
       width="483.77954"
       height="718.11023"
       id="rect2723" />
    <rect
       x="37.795277"
       y="37.795277"
       width="483.77954"
       height="718.11023"
       id="rect2724" />
    <rect
       x="37.795277"
       y="37.795277"
       width="483.77954"
       height="718.11023"
       id="rect2725" />
    <rect
       x="37.795277"
       y="37.795277"
       width="483.77954"
       height="718.11023"
       id="rect2726" />
    <rect
       x="37.795277"
       y="37.795277"
       width="483.77954"
       height="718.11023"
       id="rect2727" />
    <rect
       x="37.795277"
       y="37.795277"
       width="483.77954"
       height="718.11023"
       id="rect2728" />
    <rect
       x="37.795277"
       y="37.795277"
       width="483.77954"
       height="718.11023"
       id="rect2729" />
    <rect
       x="37.795277"
       y="37.795277"
       width="483.77954"
       height="718.11023"
       id="rect2730" />
    <rect
       x="37.795277"
       y="37.795277"
       width="483.77954"
       height="718.11023"
       id="rect2731" />
    <rect
       x="37.795277"
       y="37.795277"
       width="483.77954"
       height="718.11023"
       id="rect2732" />
    <rect
       x="37.795277"
       y="37.795277"
       width="483.77954"
       height="718.11023"
       id="rect2733" />
    <rect
       x="37.795277"
       y="37.795277"
       width="483.77954"
       height="718.11023"
       id="rect2734" />
    <rect
       x="37.795277"
       y="37.795277"
       width="483.77954"
       height="718.11023"
       id="rect6439" />
    <rect
       x="37.795277"
       y="37.795277"
       width="483.77954"
       height="718.11023"
       id="rect6440" />
    <rect
       x="37.795277"
       y="37.795277"
       width="483.77954"
       height="718.11023"
       id="rect6441" />
    <rect
       x="37.795277"
       y="37.795277"
       width="483.77954"
       height="718.11023"
       id="rect6442" />
    <rect
       x="37.795277"
       y="37.795277"
       width="483.77954"
       height="718.11023"
       id="rect2743" />
    <rect
       x="37.795277"
       y="37.795277"
       width="483.77954"
       height="718.11023"
       id="rect2744" />
    <rect
       x="37.795277"
       y="37.795277"
       width="483.77954"
       height="718.11023"
       id="rect2745" />
    <rect
       x="37.795277"
       y="37.795277"
       width="483.77954"
       height="718.11023"
       id="rect6403" />
    <rect
       x="37.795277"
       y="37.795277"
       width="483.77954"
       height="718.11023"
       id="rect6443" />
    <rect
       x="37.795277"
       y="37.795277"
       width="483.77954"
       height="718.11023"
       id="rect6444" />
    <rect
       x="37.795277"
       y="37.795277"
       width="483.77954"
       height="718.11023"
       id="rect6445" />
    <rect
       x="37.795277"
       y="37.795277"
       width="483.77954"
       height="718.11023"
       id="rect6446" />
    <rect
       x="37.795277"
       y="37.795277"
       width="483.77954"
       height="718.11023"
       id="rect6469" />
    <rect
       x="37.795277"
       y="37.795277"
       width="483.77954"
       height="718.11023"
       id="rect6470" />
    <rect
       x="37.795277"
       y="37.795277"
       width="483.77954"
       height="718.11023"
       id="rect6471" />
    <rect
       x="37.795277"
       y="37.795277"
       width="483.77954"
       height="718.11023"
       id="rect6472" />
    <rect
       x="-26.458582"
       y="130.73653"
       width="155.86105"
       height="46.469273"
       id="rect30" />
    <rect
       x="-26.458582"
       y="130.73653"
       width="155.86105"
       height="46.469273"
       id="rect31" />
    <rect
       x="-26.458582"
       y="130.73653"
       width="155.86105"
       height="46.469273"
       id="rect32" />
    <rect
       x="-26.458582"
       y="130.73653"
       width="155.86105"
       height="46.469273"
       id="rect33" />
    <rect
       x="-26.458582"
       y="130.73653"
       width="155.86105"
       height="46.469273"
       id="rect34" />
    <rect
       x="-26.458582"
       y="130.73653"
       width="155.86105"
       height="46.469273"
       id="rect35" />
    <rect
       x="-26.458582"
       y="130.73653"
       width="155.86105"
       height="46.469273"
       id="rect38" />
    <rect
       x="-26.458582"
       y="130.73653"
       width="155.86105"
       height="46.469273"
       id="rect39" />
    <rect
       x="-26.458582"
       y="130.73653"
       width="155.86105"
       height="46.469273"
       id="rect40" />
    <rect
       x="-26.458582"
       y="130.73653"
       width="155.86105"
       height="46.469273"
       id="rect42" />
    <rect
       x="-26.458582"
       y="130.73653"
       width="155.86105"
       height="46.469273"
       id="rect43" />
    <rect
       x="-26.458582"
       y="130.73653"
       width="155.86105"
       height="46.469273"
       id="rect44" />
    <rect
       x="-26.458582"
       y="130.73653"
       width="155.86105"
       height="46.469273"
       id="rect46" />
    <rect
       x="-26.458582"
       y="130.73653"
       width="155.86105"
       height="46.469273"
       id="rect47" />
    <rect
       x="-26.458582"
       y="130.73653"
       width="155.86105"
       height="46.469273"
       id="rect48" />
  </defs>
  <g
     inkscape:label="Katman 1"
     inkscape:groupmode="layer"
     id="layer1">
    <g
       id="g2790"
       transform="matrix(0.12527505,0,0,0.12527505,-198.61703,-21.83816)">
      <path
         style="fill:#000000"
         d="m 1661.7485,204.32418 c -3.8984,-1.04761 -6.4844,-4.07263 -7.2064,-8.43001 -0.704,-4.24853 1.5257,-8.38414 5.5308,-10.25834 6.031,-2.82228 13.2735,0.0488 15.0282,5.95756 1.1884,4.00176 -0.4279,8.85631 -3.7305,11.20434 -2.5256,1.79565 -6.3579,2.40361 -9.6221,1.52645 z m 5.5498,-5.00747 c 2.2536,-1.16509 3.5058,-4.33525 2.629,-6.65584 -0.671,-1.77617 -2.9031,-3.24205 -4.9526,-3.25256 -4.6895,-0.024 -7.0062,5.24585 -3.8445,8.74548 1.5232,1.68599 4.1855,2.18793 6.1681,1.16292 z m 47.3718,5.13555 c -1.2928,-0.21894 -3.5091,-1.09506 -4.4689,-1.76657 -0.2848,-0.19924 -0.1339,-0.65523 0.7496,-2.26504 l 1.1063,-2.01559 0.9186,0.70064 c 1.3593,1.03683 3.3489,1.49421 4.4672,1.02695 1.009,-0.42156 1.5527,-1.25584 1.3123,-2.01333 -0.1906,-0.6007 -1.5789,-1.37348 -3.2997,-1.83686 -2.2911,-0.61693 -3.7032,-1.52304 -4.2498,-2.72702 -1.0752,-2.36828 -0.5506,-5.20157 1.3071,-7.05925 1.5087,-1.5087 3.1332,-2.00545 5.8213,-1.78008 1.8319,0.15357 4.7913,1.10351 4.7913,1.53794 0,0.22308 -1.5118,3.39217 -1.7373,3.64176 -0.048,0.053 -0.6072,-0.15533 -1.2428,-0.46303 -2.0133,-0.9746 -4.1636,-0.52541 -4.1636,0.86975 0,0.86736 0.6453,1.31666 3.0222,2.10405 3.8613,1.27918 4.7426,2.24356 4.8711,5.33029 0.08,1.91162 0.014,2.25764 -0.6738,3.57188 -0.6678,1.27571 -0.9724,1.55931 -2.4693,2.29918 -1.9299,0.95389 -3.8421,1.22024 -6.0618,0.84433 z m 54.4174,0.021 c -1.3637,-0.22929 -4.6871,-1.67201 -4.6871,-2.03477 0,-0.12155 0.4247,-1.02077 0.9438,-1.99828 0.8855,-1.6677 1.4509,-2.13308 1.8355,-1.51081 0.091,0.14655 0.5441,0.4631 1.0078,0.70343 2.4827,1.28672 4.9442,0.72409 4.9442,-1.13011 0,-0.83967 -0.8302,-1.39579 -3.324,-2.22659 -3.8343,-1.2774 -4.7097,-2.25954 -4.7117,-5.28611 0,-4.13001 2.9057,-6.61426 7.3502,-6.27812 1.5691,0.11867 4.7029,0.94687 5.1052,1.34923 0.1301,0.13011 -1.7161,3.87055 -1.9105,3.87055 -0.071,0 -0.5742,-0.23812 -1.1172,-0.52916 -1.304,-0.6989 -2.9671,-0.69429 -3.7234,0.0103 -1.1458,1.06752 -0.4096,2.10011 1.9902,2.79126 4.4787,1.28987 5.9267,3.00634 5.5571,6.58741 -0.3315,3.21184 -2.124,5.02494 -5.6036,5.66819 -1.7239,0.31868 -1.8392,0.31911 -3.6565,0.0136 z m -129.835,-9.79931 v -9.54523 l 5.0932,0.0864 c 5.0006,0.0848 5.1157,0.0995 6.3245,0.81014 3.6787,2.1626 3.4322,8.31673 -0.3993,9.96756 l -1.0202,0.43955 2.8061,3.64326 c 1.5434,2.0038 2.8061,3.75584 2.8061,3.89342 0,0.14235 -1.2852,0.25015 -2.9823,0.25015 h -2.9824 l -2.2431,-3.56666 -2.2432,-3.56667 -0.074,3.56667 -0.074,3.56666 h -2.5061 -2.5061 z m 7.5397,-1.41754 c 0.9632,-0.40246 1.2997,-1.10895 1.1461,-2.40669 -0.1097,-0.92653 -1.0859,-1.64712 -2.5342,-1.87053 l -1.1245,-0.17347 v 2.41506 2.41507 h 0.8022 c 0.4413,0 1.211,-0.17075 1.7104,-0.37944 z m 30.0311,1.4477 v -9.53493 h 2.4946 2.4945 l 4.3185,5.564 4.3185,5.56399 0.1675,-1.66139 c 0.092,-0.91376 0.1814,-3.41756 0.1984,-5.56399 l 0.031,-3.90261 h 2.5168 2.5169 l -0.07,9.45886 -0.069,9.45885 h -2.5135 -2.5134 l -4.3658,-5.60457 -4.3657,-5.60457 -0.1323,5.60457 -0.1323,5.60457 -2.4474,0.0761 -2.4474,0.0761 z m 21.1667,-0.01 v -9.525 h 5.424 5.4239 v 2.11667 2.11667 h -2.9104 -2.9104 v 1.44595 1.44595 l 2.712,0.0754 2.712,0.0754 v 2.11666 2.11667 l -2.712,0.0754 -2.712,0.0754 v 1.57825 1.57824 h 2.9104 2.9104 v 2.11667 2.11666 h -5.4239 -5.424 z m 25.6646,9.31301 c 0,-0.19385 0.8584,-2.4402 5.6095,-14.67933 l 1.621,-4.1757 2.7818,0.0747 2.7819,0.0747 3.3922,8.99583 c 1.8657,4.94771 3.4612,9.20846 3.5456,9.46834 0.1416,0.436 -0.056,0.46666 -2.5537,0.39687 l -2.7071,-0.0756 -0.5918,-1.5875 -0.5918,-1.5875 h -3.3916 -3.3917 l -0.648,1.65365 -0.6481,1.65364 h -2.6041 c -1.4323,0 -2.6041,-0.0954 -2.6041,-0.21199 z m 11.8411,-7.26249 c -0.067,-0.1819 -0.4517,-1.34276 -0.8549,-2.57968 -0.4033,-1.23693 -0.8241,-2.34876 -0.9353,-2.47073 -0.1889,-0.20722 -1.8488,4.3278 -1.8488,5.05107 0,0.23275 0.5544,0.33007 1.8804,0.33007 1.3929,0 1.8488,-0.0857 1.7586,-0.33073 z m 8.5318,-2.05017 v -9.54451 l 2.563,0.0757 2.563,0.0757 4.25,5.47921 c 2.3375,3.01356 4.3394,5.48411 4.4485,5.4901 0.1091,0.006 0.1984,-2.48942 0.1984,-5.54536 v -5.55625 h 2.5136 2.5135 v 9.53458 9.53459 l -2.5727,-0.0757 -2.5728,-0.0757 -4.3725,-5.6426 -4.3726,-5.64261 -0.1323,5.64261 -0.1323,5.6426 -2.4474,0.0761 -2.4474,0.0761 z m -84.0172,-12.55598 c -0.8849,-0.88488 -0.8922,-2.47842 -0.016,-3.49699 0.8877,-1.03203 2.5038,-1.03879 3.5278,-0.0147 1.0241,1.02404 1.0173,2.64008 -0.015,3.5278 -1.0186,0.87613 -2.6121,0.86882 -3.497,-0.0161 z m 6.4115,-0.0926 c -1.9013,-1.98451 0.3303,-5.07124 2.8142,-3.89257 1.6359,0.7763 1.9816,2.60823 0.7285,3.86126 -1.0664,1.06648 -2.5385,1.07949 -3.5427,0.0313 z"
         id="path2789"
         sodipodi:nodetypes="sssssssssssssscsssssssssssscsssssscssscssssssssssccssscsssccccccccssscccssccccccsscccccccccccccccccccccccccccccccccccccccsscccssscccccccsssssssssccccsssccccccccccccccsssssssssss" />
      <path
         style="fill:#0d4c92;fill-opacity:1"
         d="m 1631.4473,214.02393 c -0.4366,-0.10738 -1.682,-0.64511 -2.7678,-1.19496 -2.3496,-1.18994 -3.9472,-1.78156 -4.2709,-1.58154 -0.1294,0.08 -0.057,0.49003 0.1605,0.91111 0.2178,0.42108 0.3959,0.84592 0.3959,0.9441 0,0.47013 -2.1639,-0.39736 -7.6454,-3.06492 -3.3351,-1.62305 -6.3128,-2.90995 -6.7315,-2.9093 -0.7293,0.001 -0.7457,0.0316 -0.572,1.05949 0.1258,0.74495 0.085,1.05834 -0.138,1.05834 -1.0366,0 -15.1954,-6.87542 -18.3413,-8.90639 -3.5009,-2.26021 -5.0017,-4.71824 -4.4312,-7.25734 0.3292,-1.46535 1.5835,-2.71068 3.8605,-3.8329 2.2185,-1.09341 4.3988,-1.57056 8.9958,-1.96865 10.1461,-0.87865 13.0969,-1.8396 13.0969,-4.26513 0,-2.66565 -2.3289,-4.54596 -6.8348,-5.51826 -4.6511,-1.00363 -9.2201,-1.37479 -15.2915,-1.24221 -3.1365,0.0685 -5.6028,0.0272 -5.4805,-0.0917 0.3312,-0.32216 4.1638,-1.23864 6.5254,-1.56039 3.1326,-0.42681 13.0447,-0.35362 16.1838,0.1195 7.6424,1.15185 12.7856,3.58654 14.4971,6.86267 0.7853,1.50322 0.7863,4.60744 0,6.09731 -1.795,3.40962 -5.5603,4.69953 -17.3444,5.94193 -4.0711,0.42922 -7.4537,0.83221 -7.5171,0.89553 -0.1632,0.16319 3.2795,1.99908 10.6686,5.68931 7.0651,3.52843 19.8703,10.58463 24.1045,13.28264 1.1204,0.7139 0.6056,0.95735 -1.1245,0.53181 z"
         id="path2790"
         sodipodi:nodetypes="cssssssssssssssssssscsssscc" />
    </g>
  </g>
</svg>
