<?xml version="1.0" encoding="UTF-8" standalone="no"?>
<!-- Created with Inkscape (http://www.inkscape.org/) -->

<svg
   width="7.1500001mm"
   height="7.1500001mm"
   viewBox="0 0 7.1500001 7.1500001"
   version="1.1"
   id="svg1"
   inkscape:version="1.4.2 (ebf0e940d0, 2025-05-08)"
   sodipodi:docname="5_1_1_40.svg"
   xmlns:inkscape="http://www.inkscape.org/namespaces/inkscape"
   xmlns:sodipodi="http://sodipodi.sourceforge.net/DTD/sodipodi-0.dtd"
   xmlns="http://www.w3.org/2000/svg"
   xmlns:svg="http://www.w3.org/2000/svg">
  <sodipodi:namedview
     id="namedview1"
     pagecolor="#ffffff"
     bordercolor="#000000"
     borderopacity="0.25"
     inkscape:showpageshadow="2"
     inkscape:pageopacity="0.0"
     inkscape:pagecheckerboard="0"
     inkscape:deskcolor="#d1d1d1"
     inkscape:document-units="mm"
     inkscape:zoom="24.499706"
     inkscape:cx="27.04114"
     inkscape:cy="14.449153"
     inkscape:window-width="1920"
     inkscape:window-height="1014"
     inkscape:window-x="0"
     inkscape:window-y="0"
     inkscape:window-maximized="1"
     inkscape:current-layer="layer1" />
  <defs
     id="defs1">
    <rect
       x="13.485725"
       y="-52.819092"
       width="225.2477"
       height="118.63495"
       id="rect1" />
    <rect
       x="37.795277"
       y="37.795277"
       width="483.77954"
       height="718.11023"
       id="rect2721" />
    <rect
       x="37.795277"
       y="37.795277"
       width="483.77954"
       height="718.11023"
       id="rect2722" />
    <rect
       x="37.795277"
       y="37.795277"
       width="483.77954"
       height="718.11023"
       id="rect2723" />
    <rect
       x="37.795277"
       y="37.795277"
       width="483.77954"
       height="718.11023"
       id="rect2724" />
    <rect
       x="37.795277"
       y="37.795277"
       width="483.77954"
       height="718.11023"
       id="rect2725" />
    <rect
       x="37.795277"
       y="37.795277"
       width="483.77954"
       height="718.11023"
       id="rect2726" />
    <rect
       x="37.795277"
       y="37.795277"
       width="483.77954"
       height="718.11023"
       id="rect2727" />
    <rect
       x="37.795277"
       y="37.795277"
       width="483.77954"
       height="718.11023"
       id="rect2728" />
    <rect
       x="37.795277"
       y="37.795277"
       width="483.77954"
       height="718.11023"
       id="rect2729" />
    <rect
       x="37.795277"
       y="37.795277"
       width="483.77954"
       height="718.11023"
       id="rect2730" />
    <rect
       x="37.795277"
       y="37.795277"
       width="483.77954"
       height="718.11023"
       id="rect2731" />
    <rect
       x="37.795277"
       y="37.795277"
       width="483.77954"
       height="718.11023"
       id="rect2732" />
    <rect
       x="37.795277"
       y="37.795277"
       width="483.77954"
       height="718.11023"
       id="rect2733" />
    <rect
       x="37.795277"
       y="37.795277"
       width="483.77954"
       height="718.11023"
       id="rect2734" />
  </defs>
  <g
     inkscape:label="Katman 1"
     inkscape:groupmode="layer"
     id="layer1">
    <g
       id="g1716"
       transform="matrix(0.58796269,0,0,0.58796269,-74.966121,-16.155712)">
      <path
         style="fill:#005500;fill-opacity:0.5;stroke:none;stroke-width:0.264583px;stroke-linecap:butt;stroke-linejoin:miter;stroke-opacity:1"
         d="m 128.30076,32.028497 2.97509,5.146006 -2.02025,1.896486 1.91403,0.313192 1.0363,-1.641938 1.80981,1.441606 3.42186,0.0897 1.54658,-1.742874 -2.45771,-3.250356 -7.04569,-3.298431 z"
         id="path1715" />
      <path
         style="fill:#005500;stroke-width:0.32002"
         d="m 127.9285,39.310535 c -0.10849,-0.175613 0.0639,-0.41155 0.38299,-0.524305 2.72312,-0.961918 3.2177,-1.489788 2.19282,-2.340353 -0.2572,-0.213468 -0.55962,-0.699129 -0.67205,-1.07925 -0.11249,-0.38014 -0.57176,-1.234261 -1.02072,-1.898061 -0.69387,-1.025891 -0.76209,-1.325883 -0.45488,-2.000139 0.5532,-1.214121 1.96848,-1.056363 3.98911,0.444642 0.91651,0.68081 2.35864,1.495563 3.20473,1.810551 3.05103,1.13586 4.90242,4.640689 2.92689,5.540788 -1.31098,0.597331 -3.99989,0.457603 -5.19301,-0.269845 -1.28884,-0.785803 -1.45934,-0.796648 -1.06938,-0.06797 0.278,0.519459 0.10776,0.576783 -1.89184,0.637051 -1.20852,0.0364 -2.28613,-0.07744 -2.39466,-0.253058 z m 3.36348,-0.954824 c 0.35203,-0.352016 0.64003,-0.928056 0.64003,-1.280081 0,-0.352025 0.14401,-0.640041 0.32003,-0.640041 0.176,0 0.32001,0.35496 0.32001,0.788793 0,0.836526 0.7955,1.451349 1.87784,1.451349 0.46009,0 0.66826,-0.247208 0.74109,-0.880053 0.0879,-0.764049 0.25945,-0.893154 1.30133,-0.979383 0.66005,-0.05469 1.20009,0.02312 1.20009,0.172633 0,0.14957 -0.39207,0.266261 -0.87127,0.259335 -0.58016,-0.0084 -0.90878,0.17449 -0.98354,0.547415 -0.0788,0.39338 0.0908,0.560033 0.57014,0.560033 0.37532,0 0.59339,-0.143998 0.48461,-0.320011 -0.11212,-0.181509 0.15669,-0.320029 0.62116,-0.320029 1.84571,0 0.17143,-2.396406 -2.45389,-3.512276 -0.92813,-0.394494 -2.13776,-1.055472 -2.68806,-1.468842 -0.55032,-0.41337 -1.09184,-0.660318 -1.20339,-0.548761 -0.11152,0.11152 -0.39652,-0.06212 -0.63326,-0.385868 -0.28101,-0.38429 -0.62832,-0.512746 -1.00033,-0.369992 -0.52895,0.202985 -0.53227,0.260226 -0.0463,0.797243 0.65212,0.720577 0.68953,1.224297 0.0516,0.694876 -0.46395,-0.385042 0.70864,2.029414 1.61185,3.318919 0.68777,0.981927 0.56836,1.418175 -0.57985,2.118251 -0.69231,0.422107 -0.8528,0.634544 -0.48003,0.635342 0.30802,6.41e-4 0.84805,-0.286827 1.20009,-0.638852 z m 6.31375,0.446703 c -0.10632,-0.106321 -0.38237,-0.117695 -0.61337,-0.02535 -0.2553,0.102208 -0.17947,0.178 0.19333,0.193338 0.33736,0.01384 0.52637,-0.06165 0.42004,-0.168065 z"
         id="path1716"
         sodipodi:nodetypes="scsssssssssssssssssssscssssssssssssssssscsss" />
    </g>
  </g>
</svg>
