<?xml version="1.0" encoding="UTF-8" standalone="no"?>
<!-- Created with Inkscape (http://www.inkscape.org/) -->

<svg
   width="6.7270002mm"
   height="5mm"
   viewBox="0 0 6.727 4.9999999"
   version="1.1"
   id="svg1"
   inkscape:version="1.4.2 (ebf0e940d0, 2025-05-08)"
   sodipodi:docname="5_1_1_73.svg"
   xmlns:inkscape="http://www.inkscape.org/namespaces/inkscape"
   xmlns:sodipodi="http://sodipodi.sourceforge.net/DTD/sodipodi-0.dtd"
   xmlns="http://www.w3.org/2000/svg"
   xmlns:svg="http://www.w3.org/2000/svg">
  <sodipodi:namedview
     id="namedview1"
     pagecolor="#ffffff"
     bordercolor="#000000"
     borderopacity="0.25"
     inkscape:showpageshadow="2"
     inkscape:pageopacity="0.0"
     inkscape:pagecheckerboard="0"
     inkscape:deskcolor="#d1d1d1"
     inkscape:document-units="mm"
     inkscape:zoom="2.6972018"
     inkscape:cx="64.511302"
     inkscape:cy="88.981106"
     inkscape:window-width="1075"
     inkscape:window-height="991"
     inkscape:window-x="26"
     inkscape:window-y="23"
     inkscape:window-maximized="0"
     inkscape:current-layer="layer1" />
  <defs
     id="defs1">
    <rect
       x="-26.458582"
       y="130.73653"
       width="155.86105"
       height="46.469273"
       id="rect2" />
    <rect
       x="13.485725"
       y="-52.819092"
       width="225.2477"
       height="118.63495"
       id="rect1" />
    <rect
       x="37.795277"
       y="37.795277"
       width="483.77954"
       height="718.11023"
       id="rect2721" />
    <rect
       x="37.795277"
       y="37.795277"
       width="483.77954"
       height="718.11023"
       id="rect2722" />
    <rect
       x="37.795277"
       y="37.795277"
       width="483.77954"
       height="718.11023"
       id="rect2723" />
    <rect
       x="37.795277"
       y="37.795277"
       width="483.77954"
       height="718.11023"
       id="rect2724" />
    <rect
       x="37.795277"
       y="37.795277"
       width="483.77954"
       height="718.11023"
       id="rect2725" />
    <rect
       x="37.795277"
       y="37.795277"
       width="483.77954"
       height="718.11023"
       id="rect2726" />
    <rect
       x="37.795277"
       y="37.795277"
       width="483.77954"
       height="718.11023"
       id="rect2727" />
    <rect
       x="37.795277"
       y="37.795277"
       width="483.77954"
       height="718.11023"
       id="rect2728" />
    <rect
       x="37.795277"
       y="37.795277"
       width="483.77954"
       height="718.11023"
       id="rect2729" />
    <rect
       x="37.795277"
       y="37.795277"
       width="483.77954"
       height="718.11023"
       id="rect2730" />
    <rect
       x="37.795277"
       y="37.795277"
       width="483.77954"
       height="718.11023"
       id="rect2731" />
    <rect
       x="37.795277"
       y="37.795277"
       width="483.77954"
       height="718.11023"
       id="rect2732" />
    <rect
       x="37.795277"
       y="37.795277"
       width="483.77954"
       height="718.11023"
       id="rect2733" />
    <rect
       x="37.795277"
       y="37.795277"
       width="483.77954"
       height="718.11023"
       id="rect2734" />
    <rect
       x="37.795277"
       y="37.795277"
       width="483.77954"
       height="718.11023"
       id="rect6439" />
    <rect
       x="37.795277"
       y="37.795277"
       width="483.77954"
       height="718.11023"
       id="rect6440" />
    <rect
       x="37.795277"
       y="37.795277"
       width="483.77954"
       height="718.11023"
       id="rect6441" />
    <rect
       x="37.795277"
       y="37.795277"
       width="483.77954"
       height="718.11023"
       id="rect6442" />
    <rect
       x="37.795277"
       y="37.795277"
       width="483.77954"
       height="718.11023"
       id="rect2743" />
    <rect
       x="37.795277"
       y="37.795277"
       width="483.77954"
       height="718.11023"
       id="rect2744" />
    <rect
       x="37.795277"
       y="37.795277"
       width="483.77954"
       height="718.11023"
       id="rect2745" />
    <rect
       x="37.795277"
       y="37.795277"
       width="483.77954"
       height="718.11023"
       id="rect6403" />
    <rect
       x="37.795277"
       y="37.795277"
       width="483.77954"
       height="718.11023"
       id="rect6443" />
    <rect
       x="37.795277"
       y="37.795277"
       width="483.77954"
       height="718.11023"
       id="rect6444" />
    <rect
       x="37.795277"
       y="37.795277"
       width="483.77954"
       height="718.11023"
       id="rect6445" />
    <rect
       x="37.795277"
       y="37.795277"
       width="483.77954"
       height="718.11023"
       id="rect6446" />
    <rect
       x="37.795277"
       y="37.795277"
       width="483.77954"
       height="718.11023"
       id="rect6469" />
    <rect
       x="37.795277"
       y="37.795277"
       width="483.77954"
       height="718.11023"
       id="rect6470" />
    <rect
       x="37.795277"
       y="37.795277"
       width="483.77954"
       height="718.11023"
       id="rect6471" />
    <rect
       x="37.795277"
       y="37.795277"
       width="483.77954"
       height="718.11023"
       id="rect6472" />
    <rect
       x="-26.458582"
       y="130.73653"
       width="155.86105"
       height="46.469273"
       id="rect30" />
    <rect
       x="-26.458582"
       y="130.73653"
       width="155.86105"
       height="46.469273"
       id="rect31" />
    <rect
       x="-26.458582"
       y="130.73653"
       width="155.86105"
       height="46.469273"
       id="rect32" />
    <rect
       x="-26.458582"
       y="130.73653"
       width="155.86105"
       height="46.469273"
       id="rect33" />
    <rect
       x="-26.458582"
       y="130.73653"
       width="155.86105"
       height="46.469273"
       id="rect34" />
    <rect
       x="-26.458582"
       y="130.73653"
       width="155.86105"
       height="46.469273"
       id="rect35" />
    <rect
       x="-26.458582"
       y="130.73653"
       width="155.86105"
       height="46.469273"
       id="rect38" />
    <rect
       x="-26.458582"
       y="130.73653"
       width="155.86105"
       height="46.469273"
       id="rect39" />
    <rect
       x="-26.458582"
       y="130.73653"
       width="155.86105"
       height="46.469273"
       id="rect40" />
    <rect
       x="-26.458582"
       y="130.73653"
       width="155.86105"
       height="46.469273"
       id="rect42" />
    <rect
       x="-26.458582"
       y="130.73653"
       width="155.86105"
       height="46.469273"
       id="rect43" />
    <rect
       x="-26.458582"
       y="130.73653"
       width="155.86105"
       height="46.469273"
       id="rect44" />
    <rect
       x="-26.458582"
       y="130.73653"
       width="155.86105"
       height="46.469273"
       id="rect46" />
    <rect
       x="-26.458582"
       y="130.73653"
       width="155.86105"
       height="46.469273"
       id="rect47" />
    <rect
       x="-26.458582"
       y="130.73653"
       width="155.86105"
       height="46.469273"
       id="rect48" />
  </defs>
  <g
     inkscape:label="Katman 1"
     inkscape:groupmode="layer"
     id="layer1">
    <path
       style="fill:#121d4a;fill-opacity:1;stroke-width:0.136445"
       d="M 0,2.499999 V 0 h 1.4982 1.4981 v 0.370036 0.370036 h 0.2166 0.2167 l 0.01,-0.279784 c 0,-0.15388 0.01,-0.316413 0.01,-0.361185 l 0.01,-0.0814 1.6336,-0.0088 1.6336,-0.0088 V 2.500102 5.000101 H 6.3296 5.9325 V 4.63909 4.27808 H 5.7159 5.4993 V 4.63909 5.000101 H 2.7556 0.012 Z m 5.9698,1.439392 c 0.2325,-0.09717 0.2757,-0.19888 0.2755,-0.650038 0,-0.462331 0,-0.460624 -0.4003,-0.964337 C 5.564,1.971911 5.5232,1.886053 5.5239,1.649273 c 0,-0.281665 0.028,-0.337136 0.1577,-0.324494 l 0.1126,0.01096 0.01,0.370036 0.01,0.370036 H 6.0296 6.2449 L 6.2448,1.687725 C 6.2447,1.369318 6.2318,1.279318 6.1758,1.186463 6.0798,1.029407 5.8362,0.939459 5.5865,0.969037 5.2269,1.011627 5.0895,1.203228 5.0906,1.660649 c 0,0.357179 0.051,0.474438 0.3753,0.881588 0.3275,0.411109 0.346,0.453399 0.346,0.792886 0,0.249184 -0.01,0.29105 -0.067,0.30947 -0.091,0.02898 -0.1842,-0.01147 -0.1917,-0.08347 0,-0.03262 -0.01,-0.08368 -0.014,-0.113466 -0.01,-0.02978 -0.01,-0.180054 -0.012,-0.333935 L 5.5172,2.833938 H 5.3006 5.084 v 0.36028 c 0,0.464089 0.056,0.617254 0.2647,0.720438 0.1752,0.08673 0.4409,0.09742 0.6149,0.02474 z M 1.444,3.750761 V 3.555955 H 1.1542 0.8644 l 0.01,-0.51444 0.01,-0.514441 0.2618,0.01104 0.2616,0.01103 V 2.348577 2.148011 H 1.1371 0.8663 V 1.76895 1.389888 H 1.1572 1.4479 L 1.4369,1.218409 1.4259,1.046929 0.9295,1.036879 0.4332,1.026839 v 1.442053 c 0,1.119447 0.01,1.446302 0.045,1.461043 0.025,0.01044 0.2522,0.01823 0.5054,0.01731 l 0.4603,-0.0017 z m 0.6778,-0.375311 0.01,-0.559567 0.174,-0.0053 C 2.5267,2.803983 2.6888,2.720453 2.7702,2.571544 2.8642,2.399406 2.8642,1.41514 2.7702,1.2715 2.6477,1.084233 2.5461,1.048004 2.1045,1.033985 L 1.6967,1.021045 v 1.467224 1.467224 l 0.2076,-0.01026 0.2076,-0.01027 z m 0.01,-1.462094 c 0,-0.51579 0.01,-0.559566 0.065,-0.559566 0.1655,0 0.1874,0.06347 0.1967,0.569815 0.01,0.514539 0,0.547546 -0.1807,0.548766 -0.081,5.45e-4 -0.081,-0.0027 -0.081,-0.559015 z m 1.2696,2.02127 c 0.037,-0.01415 0.046,-0.117017 0.04,-0.442239 -0.01,-0.233088 -0.01,-0.882731 -0.01,-1.443651 V 1.02888 H 3.2148 2.9982 v 1.441396 c 0,1.342401 0.01,1.44253 0.063,1.457905 0.092,0.02412 0.2845,0.02776 0.34,0.0064 z m 0.5881,-0.01516 c 0.013,-0.02028 0.032,-0.118497 0.044,-0.218248 L 4.0555,3.519853 H 4.2793 4.503 l 0.033,0.207582 0.033,0.20758 0.1919,0.0017 0.1919,0.0017 -0.02,-0.164094 C 4.9208,3.684071 4.8548,3.114741 4.7859,2.509145 4.7169,1.90355 4.6498,1.322774 4.6376,1.218533 L 4.6156,1.029001 H 4.2815 3.9473 L 3.9233,1.254634 C 3.8813,1.644133 3.651,3.63926 3.6305,3.79325 l -0.019,0.146922 0.1787,0.0082 c 0.098,0.0045 0.1888,-0.0084 0.2013,-0.02873 z M 4.0996,2.987362 c 0.011,-0.07446 0.051,-0.409264 0.089,-0.744013 0.038,-0.334749 0.077,-0.616261 0.086,-0.625583 0.01,-0.0093 0.028,0.09399 0.041,0.229574 0.013,0.135586 0.047,0.44949 0.075,0.697563 0.071,0.627685 0.082,0.577839 -0.13,0.577839 h -0.181 z"
       id="path2776" />
  </g>
</svg>
