<?xml version="1.0" encoding="UTF-8" standalone="no"?>
<!-- Created with Inkscape (http://www.inkscape.org/) -->

<svg
   width="7.1500001mm"
   height="7.1500001mm"
   viewBox="0 0 7.1500001 7.1500001"
   version="1.1"
   id="svg1"
   inkscape:version="1.4.2 (ebf0e940d0, 2025-05-08)"
   sodipodi:docname="5_1_1_37.svg"
   xmlns:inkscape="http://www.inkscape.org/namespaces/inkscape"
   xmlns:sodipodi="http://sodipodi.sourceforge.net/DTD/sodipodi-0.dtd"
   xmlns="http://www.w3.org/2000/svg"
   xmlns:svg="http://www.w3.org/2000/svg">
  <sodipodi:namedview
     id="namedview1"
     pagecolor="#ffffff"
     bordercolor="#000000"
     borderopacity="0.25"
     inkscape:showpageshadow="2"
     inkscape:pageopacity="0.0"
     inkscape:pagecheckerboard="0"
     inkscape:deskcolor="#d1d1d1"
     inkscape:document-units="mm"
     inkscape:zoom="26.046869"
     inkscape:cx="26.625081"
     inkscape:cy="14.473909"
     inkscape:window-width="1920"
     inkscape:window-height="1014"
     inkscape:window-x="0"
     inkscape:window-y="0"
     inkscape:window-maximized="1"
     inkscape:current-layer="layer1" />
  <defs
     id="defs1">
    <rect
       x="13.485725"
       y="-52.819092"
       width="225.2477"
       height="118.63495"
       id="rect1" />
    <rect
       x="37.795277"
       y="37.795277"
       width="483.77954"
       height="718.11023"
       id="rect2721" />
    <rect
       x="37.795277"
       y="37.795277"
       width="483.77954"
       height="718.11023"
       id="rect2722" />
    <rect
       x="37.795277"
       y="37.795277"
       width="483.77954"
       height="718.11023"
       id="rect2723" />
    <rect
       x="37.795277"
       y="37.795277"
       width="483.77954"
       height="718.11023"
       id="rect2724" />
    <rect
       x="37.795277"
       y="37.795277"
       width="483.77954"
       height="718.11023"
       id="rect2725" />
    <rect
       x="37.795277"
       y="37.795277"
       width="483.77954"
       height="718.11023"
       id="rect2726" />
    <rect
       x="37.795277"
       y="37.795277"
       width="483.77954"
       height="718.11023"
       id="rect2727" />
    <rect
       x="37.795277"
       y="37.795277"
       width="483.77954"
       height="718.11023"
       id="rect2728" />
    <rect
       x="37.795277"
       y="37.795277"
       width="483.77954"
       height="718.11023"
       id="rect2729" />
    <rect
       x="37.795277"
       y="37.795277"
       width="483.77954"
       height="718.11023"
       id="rect2730" />
    <rect
       x="37.795277"
       y="37.795277"
       width="483.77954"
       height="718.11023"
       id="rect2731" />
    <rect
       x="37.795277"
       y="37.795277"
       width="483.77954"
       height="718.11023"
       id="rect2732" />
    <rect
       x="37.795277"
       y="37.795277"
       width="483.77954"
       height="718.11023"
       id="rect2733" />
    <rect
       x="37.795277"
       y="37.795277"
       width="483.77954"
       height="718.11023"
       id="rect2734" />
  </defs>
  <g
     inkscape:label="Katman 1"
     inkscape:groupmode="layer"
     id="layer1">
    <g
       id="g1866"
       transform="matrix(0.58795122,0,0,0.58795121,-44.428757,-16.891469)">
      <path
         style="fill:#800066;fill-opacity:0.5;stroke:none;stroke-width:0.264583px;stroke-linecap:butt;stroke-linejoin:miter;stroke-opacity:1"
         d="m 80.075441,40.521913 3.091323,-0.10029 -1.529226,-2.145506 z"
         id="path1864" />
      <path
         style="fill:#800066;fill-opacity:0.5;stroke:none;stroke-width:0.264583px;stroke-linecap:butt;stroke-linejoin:miter;stroke-opacity:1"
         d="m 81.492851,31.923183 1.334011,-0.949182 -0.552485,-0.935736 0.26279,-1.051952 -1.651495,0.347877 -0.944033,1.121222 z"
         id="path1865" />
      <path
         style="fill:#800066;stroke-width:0.32002"
         d="m 79.737063,40.641482 c 0.006,-0.132003 0.211171,-0.600032 0.4554,-1.040059 0.385817,-0.695128 0.37782,-0.873508 -0.06096,-1.360089 -0.281529,-0.312221 -0.349796,-0.560042 -0.154263,-0.560042 0.192896,0 0.439736,0.144017 0.548509,0.32002 0.556094,0.899784 0.800056,0.02488 0.800056,-2.868929 0,-2.824167 -0.07076,-3.226804 -0.618371,-3.519898 -0.340097,-0.182011 -0.71701,-0.641749 -0.837588,-1.021638 -0.401782,-1.265894 2.025926,-2.411308 3.343091,-1.577289 0.36304,0.229865 0.324274,0.359713 -0.206358,0.691098 -0.650993,0.406546 -0.651053,0.409944 -0.01802,0.92255 0.626766,0.507518 0.624141,0.520489 -0.19367,0.958167 -0.805727,0.431215 -0.829035,0.532151 -0.829035,3.589822 0,2.854677 0.245788,3.722921 0.800056,2.826117 0.108736,-0.176003 0.355612,-0.32002 0.548508,-0.32002 0.195532,0 0.127268,0.247821 -0.154262,0.560042 -0.438757,0.486581 -0.446752,0.664961 -0.06095,1.360089 0.244228,0.440027 0.449158,0.908056 0.455399,1.040059 0.006,0.132012 -0.852718,0.240022 -1.908794,0.240022 -1.056064,0 -1.915024,-0.10801 -1.908783,-0.240022 z m 2.548829,-0.880054 c -0.219118,-0.264014 -0.535046,-0.480035 -0.702082,-0.480035 -0.167036,0 -0.519711,0.216021 -0.783728,0.480035 -0.426698,0.426703 -0.348684,0.480036 0.702084,0.480036 1.014492,0 1.125624,-0.06815 0.783726,-0.480036 z m -0.125935,-9.439897 c -0.03725,-1.049966 -0.393871,-1.193259 -1.307271,-0.525354 -0.518902,0.379415 -0.537056,0.501325 -0.141177,0.947879 0.771704,0.87049 1.486971,0.661841 1.448448,-0.422525 z"
         id="path1866"
         sodipodi:nodetypes="ssssssssssssssssscssssssssssss" />
    </g>
  </g>
</svg>
