<?xml version="1.0" encoding="UTF-8" standalone="no"?>
<!-- Created with Inkscape (http://www.inkscape.org/) -->

<svg
   width="14.462mm"
   height="19.719999mm"
   viewBox="0 0 14.462 19.72"
   version="1.1"
   id="svg1"
   inkscape:version="1.4.2 (ebf0e940d0, 2025-05-08)"
   sodipodi:docname="5_1_1_64.svg"
   xmlns:inkscape="http://www.inkscape.org/namespaces/inkscape"
   xmlns:sodipodi="http://sodipodi.sourceforge.net/DTD/sodipodi-0.dtd"
   xmlns="http://www.w3.org/2000/svg"
   xmlns:svg="http://www.w3.org/2000/svg">
  <sodipodi:namedview
     id="namedview1"
     pagecolor="#ffffff"
     bordercolor="#000000"
     borderopacity="0.25"
     inkscape:showpageshadow="2"
     inkscape:pageopacity="0.0"
     inkscape:pagecheckerboard="0"
     inkscape:deskcolor="#d1d1d1"
     inkscape:document-units="mm"
     inkscape:zoom="2.6972018"
     inkscape:cx="32.626406"
     inkscape:cy="62.286774"
     inkscape:window-width="1075"
     inkscape:window-height="991"
     inkscape:window-x="26"
     inkscape:window-y="23"
     inkscape:window-maximized="0"
     inkscape:current-layer="layer1" />
  <defs
     id="defs1">
    <rect
       x="-26.458582"
       y="130.73653"
       width="155.86105"
       height="46.469273"
       id="rect2" />
    <rect
       x="13.485725"
       y="-52.819092"
       width="225.2477"
       height="118.63495"
       id="rect1" />
    <rect
       x="37.795277"
       y="37.795277"
       width="483.77954"
       height="718.11023"
       id="rect2721" />
    <rect
       x="37.795277"
       y="37.795277"
       width="483.77954"
       height="718.11023"
       id="rect2722" />
    <rect
       x="37.795277"
       y="37.795277"
       width="483.77954"
       height="718.11023"
       id="rect2723" />
    <rect
       x="37.795277"
       y="37.795277"
       width="483.77954"
       height="718.11023"
       id="rect2724" />
    <rect
       x="37.795277"
       y="37.795277"
       width="483.77954"
       height="718.11023"
       id="rect2725" />
    <rect
       x="37.795277"
       y="37.795277"
       width="483.77954"
       height="718.11023"
       id="rect2726" />
    <rect
       x="37.795277"
       y="37.795277"
       width="483.77954"
       height="718.11023"
       id="rect2727" />
    <rect
       x="37.795277"
       y="37.795277"
       width="483.77954"
       height="718.11023"
       id="rect2728" />
    <rect
       x="37.795277"
       y="37.795277"
       width="483.77954"
       height="718.11023"
       id="rect2729" />
    <rect
       x="37.795277"
       y="37.795277"
       width="483.77954"
       height="718.11023"
       id="rect2730" />
    <rect
       x="37.795277"
       y="37.795277"
       width="483.77954"
       height="718.11023"
       id="rect2731" />
    <rect
       x="37.795277"
       y="37.795277"
       width="483.77954"
       height="718.11023"
       id="rect2732" />
    <rect
       x="37.795277"
       y="37.795277"
       width="483.77954"
       height="718.11023"
       id="rect2733" />
    <rect
       x="37.795277"
       y="37.795277"
       width="483.77954"
       height="718.11023"
       id="rect2734" />
    <rect
       x="37.795277"
       y="37.795277"
       width="483.77954"
       height="718.11023"
       id="rect6439" />
    <rect
       x="37.795277"
       y="37.795277"
       width="483.77954"
       height="718.11023"
       id="rect6440" />
    <rect
       x="37.795277"
       y="37.795277"
       width="483.77954"
       height="718.11023"
       id="rect6441" />
    <rect
       x="37.795277"
       y="37.795277"
       width="483.77954"
       height="718.11023"
       id="rect6442" />
    <rect
       x="37.795277"
       y="37.795277"
       width="483.77954"
       height="718.11023"
       id="rect2743" />
    <rect
       x="37.795277"
       y="37.795277"
       width="483.77954"
       height="718.11023"
       id="rect2744" />
    <rect
       x="37.795277"
       y="37.795277"
       width="483.77954"
       height="718.11023"
       id="rect2745" />
    <rect
       x="37.795277"
       y="37.795277"
       width="483.77954"
       height="718.11023"
       id="rect6403" />
    <rect
       x="37.795277"
       y="37.795277"
       width="483.77954"
       height="718.11023"
       id="rect6443" />
    <rect
       x="37.795277"
       y="37.795277"
       width="483.77954"
       height="718.11023"
       id="rect6444" />
    <rect
       x="37.795277"
       y="37.795277"
       width="483.77954"
       height="718.11023"
       id="rect6445" />
    <rect
       x="37.795277"
       y="37.795277"
       width="483.77954"
       height="718.11023"
       id="rect6446" />
    <rect
       x="37.795277"
       y="37.795277"
       width="483.77954"
       height="718.11023"
       id="rect6469" />
    <rect
       x="37.795277"
       y="37.795277"
       width="483.77954"
       height="718.11023"
       id="rect6470" />
    <rect
       x="37.795277"
       y="37.795277"
       width="483.77954"
       height="718.11023"
       id="rect6471" />
    <rect
       x="37.795277"
       y="37.795277"
       width="483.77954"
       height="718.11023"
       id="rect6472" />
    <rect
       x="-26.458582"
       y="130.73653"
       width="155.86105"
       height="46.469273"
       id="rect30" />
    <rect
       x="-26.458582"
       y="130.73653"
       width="155.86105"
       height="46.469273"
       id="rect31" />
    <rect
       x="-26.458582"
       y="130.73653"
       width="155.86105"
       height="46.469273"
       id="rect32" />
    <rect
       x="-26.458582"
       y="130.73653"
       width="155.86105"
       height="46.469273"
       id="rect33" />
    <rect
       x="-26.458582"
       y="130.73653"
       width="155.86105"
       height="46.469273"
       id="rect34" />
    <rect
       x="-26.458582"
       y="130.73653"
       width="155.86105"
       height="46.469273"
       id="rect35" />
    <rect
       x="-26.458582"
       y="130.73653"
       width="155.86105"
       height="46.469273"
       id="rect38" />
    <rect
       x="-26.458582"
       y="130.73653"
       width="155.86105"
       height="46.469273"
       id="rect39" />
    <rect
       x="-26.458582"
       y="130.73653"
       width="155.86105"
       height="46.469273"
       id="rect40" />
    <rect
       x="-26.458582"
       y="130.73653"
       width="155.86105"
       height="46.469273"
       id="rect42" />
    <rect
       x="-26.458582"
       y="130.73653"
       width="155.86105"
       height="46.469273"
       id="rect43" />
    <rect
       x="-26.458582"
       y="130.73653"
       width="155.86105"
       height="46.469273"
       id="rect44" />
    <rect
       x="-26.458582"
       y="130.73653"
       width="155.86105"
       height="46.469273"
       id="rect46" />
    <rect
       x="-26.458582"
       y="130.73653"
       width="155.86105"
       height="46.469273"
       id="rect47" />
    <rect
       x="-26.458582"
       y="130.73653"
       width="155.86105"
       height="46.469273"
       id="rect48" />
  </defs>
  <g
     inkscape:label="Katman 1"
     inkscape:groupmode="layer"
     id="layer1">
    <g
       id="g1"
       transform="translate(4.233352,2.910418)">
      <path
         style="fill:#ffe680;fill-opacity:1;stroke-width:0.264999"
         d="M 0.8054,7.790749 8.8253,7.764049 9.3341,7.732349 9.2371,3.817658 9.1571,2.529219 4.921,-1.72159 0.8578,2.641325 Z"
         id="path1921" />
      <ellipse
         style="fill:#ffe6d5;fill-opacity:1;stroke-width:0.272997"
         id="path1917"
         cx="-1.5127724"
         cy="2.5076039"
         rx="2.0586317"
         ry="2.001214" />
      <path
         style="fill:#ffffff;fill-opacity:1;stroke-width:0.264999"
         d="m -2.5925,2.845261 2.2023,-0.01783 -0.1082,0.230963 -0.2861,0.366599 -0.3526,0.225705 -0.66,-0.02939 -0.361,-0.12754 -0.3161,-0.320587 z"
         id="path1918" />
      <path
         style="fill:#ff5555;fill-opacity:1;stroke-width:0.264999"
         d="m -0.1507,2.741878 0.016,0.230225 0.2896,0.204686 0.3107,-0.114882 4.4549,-4.783547 4.393,4.408273 0.4313,0.310346 0.2296,0.03769 0.2125,-0.165102 -0.05,-0.260102 -2.286,-2.472613 -0.018,-1.704136 0.098,-0.0072 -0.025,-0.757489 -1.1402,-0.05316 0.027,0.765733 0.1264,0.05932 -0.039,0.710811 -1.9576,-2.017516 -1.2641,1.332873 -1.6691,1.781569 z"
         id="path1919" />
      <path
         style="fill:#ffe6d5;fill-opacity:1;stroke-width:0.264999"
         d="m 3.9191,7.837949 2.3955,0.0157 0.01,0.15706 -0.1738,0.28625 -0.3605,-0.0186 -0.1546,-0.0868 -0.2278,0.12483 -0.3274,-0.10877 -0.2754,0.0929 -0.2547,-0.16034 -0.2125,0.14813 -0.2119,0.006 -0.1683,-0.18827 z"
         id="path1920" />
      <path
         style="fill:#deaa87;fill-opacity:1;stroke-width:0.264999"
         d="m 1.9865,3.875718 2.3366,-0.0317 -0.034,3.077671 -0.072,0.91626 -2.3396,-5.3e-4 0.064,-1.28475 0.024,-1.21434 0.023,-0.73384 z"
         id="path1922" />
      <path
         style="fill:#87cdde;fill-opacity:1;stroke-width:0.264999"
         d="M 3.8302,2.592748 3.7852,0.727039 5.979,0.731739 6.032,2.654918 3.9787,2.605418 Z"
         id="path1923" />
      <path
         style="fill:#87cdde;fill-opacity:1;stroke-width:0.264999"
         d="m 5.4203,5.967479 -0.1018,-0.80081 -0.033,-1.4016 2.6006,-0.05374 0.1181,2.17502 -1.663,0.11469 -0.8276,-0.0116 z"
         id="path1924" />
      <path
         style="fill:#000000;stroke-width:0.101902"
         d="m 1.1891,16.757896 c -0.2856,-0.0508 -0.6618,-0.1466 -0.7352,-0.18727 -0.025,-0.0139 -0.054,-0.0883 -0.07,-0.18024 l -0.028,-0.15653 -0.092,0.12745 c -0.05,0.0701 -0.1107,0.12713 -0.1341,0.12675 -0.1083,-0.002 -0.4993,-0.10743 -0.537,-0.14514 -0.038,-0.0383 -0.036,-0.0603 0.02,-0.23802 0.1232,-0.3844 0.2778,-0.61015 0.4813,-0.70289 l 0.068,-0.0311 -0.017,-0.53978 c -0.041,-1.30078 -0.2325,-2.4163 -0.5748,-3.3485 -0.1014,-0.27625 -0.5696,-1.26302 -0.6809,-1.43534 -0.02,-0.0301 -0.07,-2.3e-4 -0.2406,0.14202 -0.9428,0.78639 -1.3747,1.77384 -1.4462,3.30668 -0.018,0.37766 0.017,1.1546 0.07,1.56518 l 0.03,0.23644 0.098,0.018 c 0.3509,0.0645 0.6466,0.35505 0.7447,0.73145 0.058,0.22148 0.053,0.27649 -0.025,0.30633 -0.1011,0.0385 -0.5081,0.0768 -0.556,0.0523 -0.023,-0.0119 -0.076,-0.0709 -0.1182,-0.1311 -0.042,-0.0602 -0.086,-0.10946 -0.099,-0.10946 -0.013,0 -0.023,0.0455 -0.024,0.10111 0,0.0556 -0.01,0.11561 -0.021,0.13335 -0.011,0.0177 -0.2386,0.0689 -0.5051,0.11372 -0.5723,0.0962 -0.9936,0.13219 -1.0214,0.0872 -0.035,-0.0567 0.038,-0.33816 0.1258,-0.48536 0.1351,-0.22643 0.3241,-0.41765 0.5663,-0.57301 0.2468,-0.1583 0.4032,-0.2252 0.5929,-0.25365 0.07,-0.0106 0.1278,-0.0269 0.1275,-0.0364 0,-0.009 -0.019,-0.11422 -0.042,-0.23285 -0.099,-0.51691 -0.076,-1.86021 0.043,-2.52091 0.09,-0.49964 0.3401,-1.11138 0.6378,-1.56017 0.1729,-0.26062 0.5678,-0.68234 0.8112,-0.86635 l 0.1606,-0.12133 0.017,-0.17525 c 0.03,-0.31438 0.023,-0.36673 -0.057,-0.4507 -0.041,-0.0426 -0.1754,-0.189447 -0.2992,-0.326397 l -0.2251,-0.249 0.043,-0.23513 c 0.064,-0.35033 0.1327,-1.03328 0.1066,-1.05604 -0.013,-0.0109 -0.1198,-0.053 -0.2384,-0.0935 -0.3025,-0.10329 -0.6677,-0.28427 -0.8902,-0.44112 -0.4124,-0.29068 -0.4602,-0.69234 -0.1292,-1.08565 0.1274,-0.15148 0.4768,-0.39123 0.8305,-0.56998 l 0.3369,-0.17028 v -0.12518 c 0,-0.14382 0.019,-0.15791 0.215,-0.15791 0.1258,0 0.1301,-0.003 0.1467,-0.0908 0.029,-0.15446 0.01,-0.1698 -0.2441,-0.19036 -0.5904,-0.0479 -1.2226,-0.38348 -1.5592,-0.827645 -0.1516,-0.20014 -0.3129,-0.52905 -0.3816,-0.77855 -0.068,-0.24491 -0.068,-0.76242 0,-0.98409 0.1864,-0.61468 0.7116,-1.19706 1.2746,-1.41334 0.087,-0.0335 0.1791,-0.0689 0.2041,-0.0787 0.04,-0.0157 0.037,-0.0312 -0.034,-0.13334 -0.089,-0.12974 -0.098,-0.16755 -0.039,-0.16755 0.022,0 0.074,0.0605 0.1146,0.13442 0.079,0.14391 0.1014,0.15237 0.3086,0.11812 0.091,-0.015 0.1004,-0.0248 0.1078,-0.1122 0.012,-0.13904 0.076,-0.14662 0.076,-0.009 0,0.10504 0,0.10942 0.1011,0.12457 0.056,0.009 0.1407,0.0263 0.1891,0.0393 0.087,0.0231 0.089,0.0212 0.1546,-0.11741 0.093,-0.19709 0.2411,-0.36327 0.2851,-0.32048 0.026,0.0257 0.013,0.055 -0.064,0.14033 -0.09,0.0993 -0.2228,0.32153 -0.2027,0.33838 0,0.004 0.081,0.0339 0.1704,0.0665 0.5241,0.19221 1.0005,0.56714 1.2402,0.97609 0.052,0.0886 0.094,0.16572 0.094,0.17137 0,0.006 0.012,0.0411 0.026,0.0788 l 0.026,0.0685 0.1297,-0.1409 c 0.071,-0.0775 0.2142,-0.23796 0.3175,-0.35659 0.5069,-0.58243 1.9176,-2.12664 2.4387,-2.66956 0.4421,-0.46062 1.0384,-1.09531 1.2663,-1.34771 0.1071,-0.11863 0.2124,-0.22564 0.234,-0.23781 0.027,-0.015 0.067,0.003 0.1259,0.055 0.1561,0.13906 0.8555,0.86927 1.6987,1.77349 l 0.1257,0.13481 v -0.13481 c 0,-0.0741 0.01,-0.21564 0.018,-0.31444 0.016,-0.17442 0.015,-0.17989 -0.047,-0.18873 -0.064,-0.009 -0.064,-0.0101 -0.072,-0.41635 l -0.01,-0.40725 0.1557,-0.0161 c 0.1632,-0.0169 0.9358,0.0207 1.01,0.0492 0.06,0.0229 0.076,0.13075 0.076,0.50423 0,0.30002 0,0.32369 -0.054,0.3368 -0.049,0.0129 -0.054,0.0368 -0.054,0.27383 0,0.14285 0.014,0.52058 0.03,0.8394 l 0.03,0.57967 0.4116,0.3969 c 0.3936,0.37951 1.2899,1.32405 1.5566,1.64025 0.1546,0.18325 0.3082,0.43411 0.3318,0.54197 0.027,0.12493 -0.031,0.22856 -0.1659,0.29385 -0.1069,0.0518 -0.1323,0.0543 -0.2528,0.0254 C 9.6579,3.026904 9.504,2.928674 9.3247,2.756304 L 9.2102,2.646124 v 0.11082 c 0,0.0609 0.025,0.44869 0.056,0.86164 0.093,1.238525 0.098,1.397615 0.095,2.799435 v 1.34762 l -0.1078,0.0192 c -0.059,0.0106 -0.5325,0.0318 -1.0515,0.0471 -0.9438,0.0279 -1.3367,0.0451 -1.6494,0.0722 l -0.1664,0.0145 -0.017,0.10144 c -0.022,0.12737 -0.098,0.25563 -0.1887,0.31481 -0.1013,0.0664 -0.3712,0.0391 -0.465,-0.0471 -0.048,-0.0442 -0.072,-0.0528 -0.081,-0.0287 -0.04,0.11157 -0.3164,0.14731 -0.4604,0.0595 -0.081,-0.0494 -0.094,-0.0506 -0.1476,-0.0134 -0.1142,0.08 -0.3819,0.0303 -0.4451,-0.0827 -0.021,-0.0367 -0.035,-0.0314 -0.1038,0.0372 -0.1039,0.10389 -0.2676,0.13484 -0.3869,0.0731 -0.097,-0.0502 -0.1876,-0.22141 -0.1885,-0.3569 0,-0.0718 -0.013,-0.0903 -0.073,-0.10532 -0.04,-0.01 -0.5952,-0.01 -1.234,4.5e-4 -1.146,0.0184 -1.7703,-0.005 -1.8345,-0.0673 -0.015,-0.0145 -0.03,-0.1987 -0.034,-0.40929 -0.01,-0.47368 -0.013,-0.49353 -0.1068,-0.51675 -0.083,-0.0207 -0.4818,-0.24356 -0.6271,-0.35058 -0.2995,-0.2207 -0.5493,-0.54394 -0.782,-1.01193 -0.048,-0.0964 -0.092,-0.18035 -0.098,-0.18659 -0.01,-0.006 -0.039,0.0154 -0.074,0.048 -0.056,0.0527 -0.061,0.0735 -0.042,0.18659 0.011,0.07 0.1012,0.62472 0.1997,1.2327 0.098,0.60798 0.2085,1.26581 0.2447,1.46184 0.036,0.19603 0.066,0.36751 0.066,0.38108 0,0.0136 -0.1335,0.19018 -0.2966,0.39247 L -1.086,9.399056 v 0.25634 0.25633 l 0.1582,0.26197 c 0.5665,0.938 0.8501,1.73061 1.0391,2.9042 0.084,0.52198 0.1147,0.89029 0.1395,1.67538 l 0.019,0.59693 0.1548,0.0112 c 0.2813,0.0203 0.7012,0.28404 1.1412,0.71677 0.2845,0.27971 0.5007,0.6033 0.4651,0.69606 -0.021,0.0544 -0.4955,0.0451 -0.8424,-0.0166 z M 4.3625,8.237739 c 0.061,-0.0327 0.1189,-0.13932 0.1423,-0.26208 l 0.017,-0.0876 H 4.2529 3.9839 v 0.0822 c 0,0.0981 0.062,0.22791 0.1281,0.26612 0.061,0.0358 0.1853,0.0365 0.2509,0.001 z m 1.1162,0.011 c 0.058,-0.0222 0.1148,-0.13621 0.1265,-0.253 l 0.01,-0.0942 H 5.386 5.1569 l -0.01,0.13909 c -0.01,0.11913 0,0.14525 0.053,0.18199 0.062,0.0437 0.1982,0.0565 0.2772,0.0262 z m 0.6822,-0.0439 c 0.031,-0.0334 0.07,-0.0948 0.086,-0.13656 0.057,-0.15013 0.052,-0.15327 -0.2409,-0.15327 H 5.7364 v 0.12132 c 0,0.16639 0.065,0.22918 0.238,0.22918 0.1001,0 0.1432,-0.014 0.1869,-0.0607 z m -1.1695,-0.027 c 0.021,-0.0334 0.047,-0.11223 0.057,-0.17525 l 0.018,-0.11458 H 4.8349 c -0.2274,0 -0.2316,10e-4 -0.2316,0.0656 0,0.0915 0.048,0.21108 0.1008,0.25115 0.076,0.058 0.243,0.0424 0.287,-0.027 z m -1.8706,-0.40714 1.0649,-0.004 0.046,-0.71448 c 0.025,-0.39296 0.055,-1.26956 0.065,-1.94798 l 0.018,-1.233485 h -0.822 c -0.4521,0 -0.9668,0.008 -1.1438,0.0173 l -0.3217,0.0173 v 0.798285 c 0,0.785 -0.046,2.28546 -0.079,2.8263 l -0.017,0.2755 0.064,-0.0154 c 0.035,-0.008 0.5435,-0.0171 1.1293,-0.0194 z m 4.8665,-0.0147 c 0.519,-0.0171 1.0225,-0.0399 1.1189,-0.0507 l 0.1753,-0.0195 -0.01,-1.48289 c 0,-0.81559 -0.019,-1.59208 -0.032,-1.72554 C 9.2265,4.343909 9.1955,3.858604 9.1705,3.398914 L 9.1245,2.563104 8.8655,2.306244 C 8.384,1.828654 7.896,1.310874 7.6276,0.992574 c -0.1469,-0.17423 -0.648,-0.68682 -1.1135,-1.1391 -0.4655,-0.45227 -1.0079,-0.98005 -1.2053,-1.17282 -0.1974,-0.19278 -0.368,-0.35378 -0.3791,-0.35779 -0.04,-0.0145 -1.3003,1.29689 -1.8341,1.90862 -0.1098,0.12574 -0.3354,0.37422 -0.5014,0.55217 -0.166,0.17794 -0.4869,0.53585 -0.7132,0.79536 -0.2262,0.2595 -0.5292,0.59922 -0.6732,0.75492 -0.1441,0.1557 -0.2711,0.30736 -0.2824,0.33702 -0.026,0.0686 -0.063,1.16732 -0.097,2.871395 -0.026,1.30985 -0.016,2.1484 0.026,2.19284 0.012,0.0123 0.2341,0.0293 0.4946,0.0377 l 0.4734,0.0153 0.013,-0.0647 c 0.04,-0.19837 0.1383,-3.42728 0.1125,-3.69438 -0.015,-0.156105 -0.011,-0.181185 0.031,-0.199055 0.079,-0.0335 2.326,-0.0517 2.3586,-0.0192 0.016,0.0164 0.038,0.296035 0.053,0.670795 0.025,0.6449 0.02,0.81276 -0.072,2.43726 -0.022,0.37901 -0.039,0.72735 -0.039,0.7741 v 0.085 l 0.2359,0.01 c 0.4379,0.0185 2.521,-7.2e-4 3.4713,-0.0321 z M 5.6282,6.036079 C 5.4331,6.021379 5.3851,6.003179 5.3587,5.933709 5.2797,5.724719 5.1965,3.804574 5.2647,3.740314 c 0.059,-0.0559 2.5931,-0.10288 2.647,-0.049 0.01,0.01 0.065,0.848375 0.116,1.770215 0.014,0.24468 0.015,0.45472 0,0.46677 -0.02,0.0203 -2.0187,0.13029 -2.1997,0.12108 -0.044,-0.002 -0.1355,-0.008 -0.2022,-0.0133 z m 0.8493,-0.0911 c 0.3262,-0.0155 0.7896,-0.037 1.0297,-0.0476 0.2401,-0.0106 0.4455,-0.0284 0.4566,-0.0394 0.011,-0.011 0.01,-0.22307 -0.013,-0.47116 -0.018,-0.24809 -0.047,-0.71456 -0.064,-1.03659 L 7.8558,3.764724 7.7337,3.746424 c -0.067,-0.0101 -0.6018,-0.009 -1.188,0.003 -1.1378,0.0225 -1.208,0.025 -1.2248,0.0427 -0.024,0.0254 0.039,1.462615 0.077,1.762895 0.023,0.17739 0.041,0.33748 0.041,0.35577 0,0.0311 0.084,0.045 0.3505,0.058 0.052,0.003 0.3613,-0.008 0.6876,-0.0236 z M 4.2746,2.673834 c -0.2477,-0.0164 -0.4618,-0.042 -0.4757,-0.0568 -0.032,-0.0344 -0.072,-1.88917 -0.041,-1.90841 0.03,-0.0183 0.5819,-0.0265 1.512,-0.0225 l 0.7342,0.003 0.013,0.0607 c 0.01,0.0334 0.027,0.47067 0.043,0.97179 0.023,0.70923 0.023,0.91983 0,0.9504 -0.027,0.0326 -0.143,0.0386 -0.6831,0.0354 -0.3577,-0.002 -0.8531,-0.0173 -1.1008,-0.0337 z M 6.001,2.531664 c 0.01,-0.0772 -0.043,-1.73751 -0.056,-1.75028 0,-0.004 -0.4854,-0.0127 -1.0688,-0.0182 l -1.0608,-0.01 0.02,0.90496 c 0.011,0.49772 0.022,0.90757 0.025,0.91077 0.018,0.0208 1.1221,0.0498 1.5797,0.0415 l 0.5528,-0.01 z m -7.5715,4.763535 c 0,-0.14987 0.088,-1.23985 0.1213,-1.50747 l 0.039,-0.30736 -0.1043,-0.10122 c -0.057,-0.0557 -0.1126,-0.12752 -0.1228,-0.15968 -0.022,-0.0705 -0.021,-0.0709 -0.3854,0.12433 -0.48,0.25722 -0.8113,0.54021 -0.9105,0.77766 -0.062,0.14843 -0.05,0.35434 0.028,0.48811 0.067,0.11492 0.2899,0.28295 0.5528,0.41725 0.1289,0.0659 0.7276,0.31769 0.7616,0.32038 0.011,8.8e-4 0.02,-0.0225 0.02,-0.052 z m 2.3012,-1.80002 c 0.017,-1.44106 0.054,-2.652965 0.083,-2.699845 0.042,-0.0672 -0.017,-0.0222 -0.1386,0.10687 -0.084,0.0888 -0.1486,0.1916 -0.1847,0.29283 -0.1551,0.43551 -0.5647,0.907265 -0.9555,1.100515 -0.2311,0.11425 -0.5884,0.22228 -0.7352,0.22228 -0.061,0 -0.076,0.01 -0.063,0.0427 0.01,0.0234 0.016,0.0824 0.016,0.1309 v 0.0882 l 0.1955,0.0163 c 0.1553,0.0129 0.2051,0.0282 0.2426,0.0743 0.059,0.0721 0.061,0.23581 0,0.31618 -0.04,0.0572 -0.035,0.0732 0.085,0.29584 0.2697,0.4972 0.4466,0.71199 0.8025,0.97429 0.143,0.10535 0.5718,0.35149 0.6143,0.3526 0.01,2.4e-4 0.024,-0.59102 0.033,-1.31394 z m -1.916,-1.05881 c 0.6408,-0.0926 1.1826,-0.470325 1.4692,-1.024125 0.063,-0.12261 0.1111,-0.22712 0.106,-0.23224 -0.01,-0.005 -0.046,0.004 -0.09,0.0212 -0.1276,0.0482 -0.2753,0.006 -0.393,-0.11134 -0.056,-0.0563 -0.1037,-0.13117 -0.1054,-0.16628 -0.01,-0.12545 0.01,-0.19964 0.05,-0.26604 0.056,-0.0885 0.5442,-0.69641 0.5751,-0.7155 0.076,-0.0472 -0.2179,-0.52262 -0.477,-0.77078 -0.279,-0.26717 -0.6753,-0.49912 -0.9849,-0.57647 -0.069,-0.0172 -0.073,-0.0123 -0.094,0.12038 -0.012,0.0761 -0.035,0.13746 -0.05,0.13645 -0.031,-0.002 -0.034,-0.11528 -0.01,-0.21946 0.017,-0.0639 0.01,-0.0721 -0.068,-0.0859 -0.048,-0.008 -0.127,-0.0236 -0.1755,-0.0339 l -0.088,-0.0187 0.018,0.15179 c 0.011,0.0978 0.01,0.15179 -0.01,0.15179 -0.039,0 -0.061,-0.0677 -0.061,-0.19094 v -0.10564 h -0.1617 c -0.089,0 -0.1618,0.005 -0.1618,0.0105 0,0.006 0.024,0.0634 0.053,0.12806 0.054,0.11908 0.071,0.239 0.034,0.23869 -0.011,-10e-5 -0.05,-0.0799 -0.087,-0.17741 -0.065,-0.17254 -0.069,-0.17682 -0.1483,-0.16171 -0.1521,0.0289 -0.513,0.22711 -0.7021,0.38552 -0.3135,0.26259 -0.6088,0.71192 -0.7036,1.07082 -0.1267,0.47951 -0.019,1.07584 0.2751,1.52184 0.1311,0.19892 0.4474,0.50654 0.6345,0.617165 0.4568,0.27 0.8963,0.36824 1.3525,0.30228 z M -1.921,3.640424 c -0.1988,-0.0552 -0.4085,-0.19842 -0.513,-0.35037 -0.098,-0.1421 -0.2264,-0.44139 -0.2008,-0.46709 0.018,-0.0176 2.1073,-0.0511 2.2169,-0.0355 0.084,0.0119 0.076,0.0621 -0.04,0.2701 -0.1351,0.24244 -0.3107,0.42438 -0.5061,0.52432 -0.1502,0.0768 -0.186,0.0836 -0.4857,0.0914 -0.23,0.006 -0.3664,-0.004 -0.4718,-0.0328 z m 0.8719,-0.0939 c 0.1942,-0.0727 0.4034,-0.27303 0.5238,-0.50185 0.048,-0.091 0.087,-0.17077 0.087,-0.17715 0,-0.0208 -2.0709,-0.008 -2.0918,0.0125 -0.035,0.0349 0.1045,0.29723 0.2307,0.43386 0.066,0.0718 0.1682,0.15484 0.2262,0.18444 0.2702,0.13786 0.7268,0.15936 1.0239,0.0482 z m -1.1213,-1.5113 c -0.062,-0.0361 -0.061,-0.16584 0,-0.22283 0.1024,-0.0927 0.2473,-0.0194 0.2473,0.12506 0,0.10859 -0.138,0.16268 -0.2494,0.0978 z m 1.0878,-0.0585 c -0.065,-0.17473 0.1547,-0.29617 0.256,-0.14155 0.041,0.0624 0.041,0.0724 0,0.13481 -0.06,0.0923 -0.2226,0.0966 -0.256,0.007 z m 1.4852,1.0538 c 0.055,-0.043 0.2851,-0.2752 0.5123,-0.51608 0.4127,-0.43776 0.5557,-0.59761 0.897,-1.0028 0.1,-0.11864 0.3359,-0.37949 0.5244,-0.57968 0.1886,-0.20019 0.554,-0.60056 0.8121,-0.88973 0.2581,-0.28916 0.7571,-0.81693 1.109,-1.17282 0.6336,-0.64078 0.6405,-0.64668 0.7062,-0.60663 0.036,0.0222 0.2585,0.22325 0.4935,0.44668 0.235,0.22343 0.5364,0.5043 0.6699,0.62416 0.3918,0.35188 1.3795,1.36477 1.7346,1.77887 0.4552,0.53073 1.6099,1.68326 1.7899,1.78649 0.1824,0.10458 0.3333,0.11011 0.4349,0.0159 0.081,-0.0753 0.082,-0.0815 0.04,-0.20622 -0.093,-0.2771 -0.4757,-0.69604 -2.2616,-2.47774 -1.5215,-1.51786 -1.8057,-1.81042 -2.4493,-2.52136 -0.228,-0.25183 -0.4352,-0.47318 -0.4606,-0.49188 -0.041,-0.03 -0.089,0.0134 -0.4057,0.36398 -0.3251,0.35978 -0.5996,0.64932 -1.8198,1.91946 -0.2076,0.21611 -0.4922,0.52635 -0.6325,0.68943 -0.1403,0.16308 -0.4076,0.46637 -0.5941,0.67397 -0.9031,1.00542 -1.3215,1.48672 -1.5192,1.74782 -0.127,0.1676 -0.1352,0.30534 -0.024,0.40872 0.084,0.0787 0.2105,0.12307 0.2899,0.10191 0.03,-0.008 0.099,-0.0495 0.1532,-0.0925 z m 7.4269,-3.17028 c -0.01,-0.10009 -0.025,-0.45194 -0.035,-0.78188 l -0.018,-0.59989 -0.097,-4.4e-4 c -0.053,-2.3e-4 -0.2374,-0.008 -0.4093,-0.0172 l -0.3126,-0.0168 -0.018,0.21003 c -0.01,0.11552 -0.018,0.27583 -0.018,0.35624 v 0.14621 l 0.4358,0.44287 c 0.2397,0.24359 0.4477,0.44288 0.4623,0.44288 0.016,0 0.02,-0.0691 0.01,-0.18199 z m 0.063,-1.80971 v -0.34705 l -0.1011,-0.016 c -0.056,-0.009 -0.2965,-0.0243 -0.5353,-0.0344 l -0.4342,-0.0184 -0.012,0.0646 c -0.01,0.0355 -0.01,0.20058 0,0.36674 l 0.011,0.3021 0.1656,0.01 c 0.091,0.005 0.3324,0.0118 0.5363,0.0147 l 0.3707,0.005 z"
         id="path1914" />
    </g>
  </g>
</svg>
