<?xml version="1.0" encoding="UTF-8" standalone="no"?>
<!-- Created with Inkscape (http://www.inkscape.org/) -->

<svg
   width="6mm"
   height="6mm"
   viewBox="0 0 6 6"
   version="1.1"
   id="svg1"
   inkscape:version="1.4.2 (ebf0e940d0, 2025-05-08)"
   sodipodi:docname="5_1_1_26.svg"
   xmlns:inkscape="http://www.inkscape.org/namespaces/inkscape"
   xmlns:sodipodi="http://sodipodi.sourceforge.net/DTD/sodipodi-0.dtd"
   xmlns="http://www.w3.org/2000/svg"
   xmlns:svg="http://www.w3.org/2000/svg">
  <sodipodi:namedview
     id="namedview1"
     pagecolor="#ffffff"
     bordercolor="#000000"
     borderopacity="0.25"
     inkscape:showpageshadow="2"
     inkscape:pageopacity="0.0"
     inkscape:pagecheckerboard="0"
     inkscape:deskcolor="#d1d1d1"
     inkscape:document-units="mm"
     inkscape:zoom="13.350796"
     inkscape:cx="18.238613"
     inkscape:cy="16.778026"
     inkscape:window-width="1920"
     inkscape:window-height="1014"
     inkscape:window-x="0"
     inkscape:window-y="0"
     inkscape:window-maximized="1"
     inkscape:current-layer="layer1" />
  <defs
     id="defs1">
    <rect
       x="13.485725"
       y="-52.819092"
       width="225.2477"
       height="118.63495"
       id="rect1" />
    <rect
       x="37.795277"
       y="37.795277"
       width="483.77954"
       height="718.11023"
       id="rect2721" />
    <rect
       x="37.795277"
       y="37.795277"
       width="483.77954"
       height="718.11023"
       id="rect2722" />
    <rect
       x="37.795277"
       y="37.795277"
       width="483.77954"
       height="718.11023"
       id="rect2723" />
    <rect
       x="37.795277"
       y="37.795277"
       width="483.77954"
       height="718.11023"
       id="rect2724" />
    <rect
       x="37.795277"
       y="37.795277"
       width="483.77954"
       height="718.11023"
       id="rect2725" />
    <rect
       x="37.795277"
       y="37.795277"
       width="483.77954"
       height="718.11023"
       id="rect2726" />
    <rect
       x="37.795277"
       y="37.795277"
       width="483.77954"
       height="718.11023"
       id="rect2727" />
    <rect
       x="37.795277"
       y="37.795277"
       width="483.77954"
       height="718.11023"
       id="rect2728" />
    <rect
       x="37.795277"
       y="37.795277"
       width="483.77954"
       height="718.11023"
       id="rect2729" />
    <rect
       x="37.795277"
       y="37.795277"
       width="483.77954"
       height="718.11023"
       id="rect2730" />
    <rect
       x="37.795277"
       y="37.795277"
       width="483.77954"
       height="718.11023"
       id="rect2731" />
    <rect
       x="37.795277"
       y="37.795277"
       width="483.77954"
       height="718.11023"
       id="rect2732" />
    <rect
       x="37.795277"
       y="37.795277"
       width="483.77954"
       height="718.11023"
       id="rect2733" />
    <rect
       x="37.795277"
       y="37.795277"
       width="483.77954"
       height="718.11023"
       id="rect2734" />
  </defs>
  <g
     inkscape:label="Katman 1"
     inkscape:groupmode="layer"
     id="layer1">
    <g
       id="g25"
       transform="matrix(0.60094165,0,0,0.60094165,-575.95035,-96.203646)">
      <ellipse
         style="fill:#afdde9;stroke-width:0.264583"
         id="path42"
         cx="963.35449"
         cy="165.34853"
         rx="3.2216139"
         ry="3.2706912" />
      <path
         style="fill:#b7c4c8;stroke-width:0.264583"
         d="m 960.62661,167.0885 -0.2464,-0.48321 -0.95472,1.0989 -0.8617,1.30794 0.12901,0.53838 0.46337,0.18125 0.92858,-0.36268 1.7191,-1.36663 2.00443,-2.04576 2.74484,-2.68151 1.57343,-1.84999 0.16843,-0.53406 -0.19957,-0.40733 -0.77211,0.18424 -2.51706,1.76068 0.38428,0.23225 1.25275,-1.00443 0.85886,-0.2785 -0.0625,0.32848 -1.59959,1.77154 -2.10003,2.05529 -2.17863,2.00449 -1.18697,0.94803 -0.84678,0.53291 -0.17669,-0.10301 0.61162,-0.89554 z"
         id="path48" />
      <path
         style="fill:#000000;stroke-width:0.263307"
         d="m 963.46066,168.72211 c -0.52545,-0.002 -0.82163,-0.0611 -1.33272,-0.26471 l -0.4812,-0.19175 -0.47232,0.40305 c -1.00296,0.85585 -1.77279,1.2574 -2.21687,1.1563 -0.26238,-0.0597 -0.4642,-0.24538 -0.5317,-0.48912 -0.0966,-0.34878 0.35485,-1.09463 1.3949,-2.30461 l 0.41688,-0.48502 -0.13493,-0.59904 c -0.10439,-0.46347 -0.11872,-0.69938 -0.0632,-1.04239 0.15155,-0.93668 0.60667,-1.71982 1.33123,-2.29075 0.31192,-0.24578 0.45365,-0.30778 1.12907,-0.49393 0.68777,-0.18966 0.82482,-0.20596 1.25146,-0.14997 0.26349,0.0346 0.60497,0.11339 0.75884,0.17511 l 0.27977,0.1122 0.50757,-0.43122 c 0.69192,-0.58787 1.50893,-1.08495 2.1614,-1.31506 0.47344,-0.16696 0.56706,-0.18048 0.71929,-0.1041 0.13669,0.0687 0.18281,0.14444 0.21057,0.34615 0.0712,0.51695 -0.28372,1.07842 -1.3965,2.2093 l -0.65335,0.66399 0.17827,0.3987 c 0.39057,0.8737 0.31162,2.09307 -0.19321,2.9835 -0.57179,1.00857 -1.75734,1.718 -2.86321,1.71333 z m 1.86259,-0.93766 c 0.51789,-0.43896 0.84359,-0.89551 1.01969,-1.42939 0.25966,-0.78723 0.21723,-1.68875 -0.10997,-2.33682 l -0.10076,-0.19947 -0.64439,0.60921 c -0.69775,0.65967 -3.41403,3.38259 -3.52325,3.53187 -0.0886,0.12101 0.1216,0.25605 0.59447,0.38181 0.66737,0.17748 1.03122,0.16507 1.75554,-0.0599 0.55597,-0.17263 0.72217,-0.2546 1.00862,-0.49738 z m -5.23578,1.3905 c 0.6629,-0.42466 1.24317,-0.94947 3.05796,-2.76575 0.93391,-0.93468 2.18266,-2.16657 2.77497,-2.73753 1.75676,-1.69338 2.33461,-2.4353 2.21974,-2.85005 -0.0789,-0.28512 -0.25808,-0.27377 -0.9386,0.0594 -0.77219,0.37818 -2.14137,1.34833 -2.10226,1.48958 0.0344,0.1245 0.14223,0.0865 0.3867,-0.13634 0.42168,-0.38438 1.29117,-0.91714 1.58975,-0.97411 0.22071,-0.0421 0.27968,-0.0245 0.33365,0.0993 0.12539,0.28775 -0.14172,0.62838 -1.84622,2.35467 -2.24324,2.2719 -4.43035,4.25204 -5.59025,5.06121 -0.58818,0.41031 -0.75645,0.46658 -0.92269,0.30854 -0.0925,-0.088 -0.0649,-0.17192 0.19193,-0.58222 0.16504,-0.26366 0.50628,-0.70506 0.75834,-0.98086 0.25206,-0.2758 0.4469,-0.54276 0.43299,-0.59324 -0.0436,-0.15808 -0.22554,0.01 -0.83547,0.76924 -0.94108,1.17232 -1.10046,1.58295 -0.7104,1.83027 0.19823,0.12568 0.67006,-0.0127 1.19986,-0.35222 z m -0.0918,-0.73308 c 0.59173,-0.4093 0.95293,-0.69875 0.93823,-0.75186 -0.004,-0.0129 -0.0823,-0.11998 -0.17474,-0.2377 l -0.16818,-0.21406 -0.31765,0.35226 c -0.5813,0.64469 -1.08174,1.33407 -0.93991,1.29479 0.0194,-0.005 0.31742,-0.20492 0.66225,-0.44343 z m 2.39306,-2.00245 c 1.28587,-1.19203 3.14175,-3.00323 3.23531,-3.15743 0.0504,-0.0828 -0.009,-0.16271 -0.29187,-0.39704 -1.42128,-1.175 -3.70086,-0.74607 -4.63014,0.87125 -0.4776,0.83117 -0.56653,1.76791 -0.24927,2.62569 0.18541,0.50143 0.61461,1.15575 0.736,1.12213 0.0403,-0.0112 0.5804,-0.49028 1.19997,-1.0646 z m 4.43622,-4.41228 c 0.50689,-0.59045 0.47219,-0.69113 -0.12051,-0.34978 -0.37425,0.21555 -1.26574,0.87474 -1.25166,0.92554 0.003,0.0128 0.0999,0.1137 0.21428,0.22398 l 0.20778,0.2005 0.31963,-0.31905 c 0.17578,-0.17547 0.45952,-0.48201 0.63049,-0.68119 z"
         id="path40"
         sodipodi:nodetypes="sscsssscssscsscssssscsssssscssssssssssssssssssssssssssscsssssssssssssscsss" />
    </g>
  </g>
</svg>
