<?xml version="1.0" encoding="UTF-8" standalone="no"?>
<!-- Created with Inkscape (http://www.inkscape.org/) -->

<svg
   width="10.579mm"
   height="5mm"
   viewBox="0 0 10.579 4.9999999"
   version="1.1"
   id="svg1"
   inkscape:version="1.4.2 (ebf0e940d0, 2025-05-08)"
   sodipodi:docname="5_1_1_79.svg"
   xmlns:inkscape="http://www.inkscape.org/namespaces/inkscape"
   xmlns:sodipodi="http://sodipodi.sourceforge.net/DTD/sodipodi-0.dtd"
   xmlns="http://www.w3.org/2000/svg"
   xmlns:svg="http://www.w3.org/2000/svg">
  <sodipodi:namedview
     id="namedview1"
     pagecolor="#ffffff"
     bordercolor="#000000"
     borderopacity="0.25"
     inkscape:showpageshadow="2"
     inkscape:pageopacity="0.0"
     inkscape:pagecheckerboard="0"
     inkscape:deskcolor="#d1d1d1"
     inkscape:document-units="mm"
     inkscape:zoom="2.6972018"
     inkscape:cx="64.511302"
     inkscape:cy="88.981106"
     inkscape:window-width="1075"
     inkscape:window-height="991"
     inkscape:window-x="26"
     inkscape:window-y="23"
     inkscape:window-maximized="0"
     inkscape:current-layer="layer1" />
  <defs
     id="defs1">
    <rect
       x="-26.458582"
       y="130.73653"
       width="155.86105"
       height="46.469273"
       id="rect2" />
    <rect
       x="13.485725"
       y="-52.819092"
       width="225.2477"
       height="118.63495"
       id="rect1" />
    <rect
       x="37.795277"
       y="37.795277"
       width="483.77954"
       height="718.11023"
       id="rect2721" />
    <rect
       x="37.795277"
       y="37.795277"
       width="483.77954"
       height="718.11023"
       id="rect2722" />
    <rect
       x="37.795277"
       y="37.795277"
       width="483.77954"
       height="718.11023"
       id="rect2723" />
    <rect
       x="37.795277"
       y="37.795277"
       width="483.77954"
       height="718.11023"
       id="rect2724" />
    <rect
       x="37.795277"
       y="37.795277"
       width="483.77954"
       height="718.11023"
       id="rect2725" />
    <rect
       x="37.795277"
       y="37.795277"
       width="483.77954"
       height="718.11023"
       id="rect2726" />
    <rect
       x="37.795277"
       y="37.795277"
       width="483.77954"
       height="718.11023"
       id="rect2727" />
    <rect
       x="37.795277"
       y="37.795277"
       width="483.77954"
       height="718.11023"
       id="rect2728" />
    <rect
       x="37.795277"
       y="37.795277"
       width="483.77954"
       height="718.11023"
       id="rect2729" />
    <rect
       x="37.795277"
       y="37.795277"
       width="483.77954"
       height="718.11023"
       id="rect2730" />
    <rect
       x="37.795277"
       y="37.795277"
       width="483.77954"
       height="718.11023"
       id="rect2731" />
    <rect
       x="37.795277"
       y="37.795277"
       width="483.77954"
       height="718.11023"
       id="rect2732" />
    <rect
       x="37.795277"
       y="37.795277"
       width="483.77954"
       height="718.11023"
       id="rect2733" />
    <rect
       x="37.795277"
       y="37.795277"
       width="483.77954"
       height="718.11023"
       id="rect2734" />
    <rect
       x="37.795277"
       y="37.795277"
       width="483.77954"
       height="718.11023"
       id="rect6439" />
    <rect
       x="37.795277"
       y="37.795277"
       width="483.77954"
       height="718.11023"
       id="rect6440" />
    <rect
       x="37.795277"
       y="37.795277"
       width="483.77954"
       height="718.11023"
       id="rect6441" />
    <rect
       x="37.795277"
       y="37.795277"
       width="483.77954"
       height="718.11023"
       id="rect6442" />
    <rect
       x="37.795277"
       y="37.795277"
       width="483.77954"
       height="718.11023"
       id="rect2743" />
    <rect
       x="37.795277"
       y="37.795277"
       width="483.77954"
       height="718.11023"
       id="rect2744" />
    <rect
       x="37.795277"
       y="37.795277"
       width="483.77954"
       height="718.11023"
       id="rect2745" />
    <rect
       x="37.795277"
       y="37.795277"
       width="483.77954"
       height="718.11023"
       id="rect6403" />
    <rect
       x="37.795277"
       y="37.795277"
       width="483.77954"
       height="718.11023"
       id="rect6443" />
    <rect
       x="37.795277"
       y="37.795277"
       width="483.77954"
       height="718.11023"
       id="rect6444" />
    <rect
       x="37.795277"
       y="37.795277"
       width="483.77954"
       height="718.11023"
       id="rect6445" />
    <rect
       x="37.795277"
       y="37.795277"
       width="483.77954"
       height="718.11023"
       id="rect6446" />
    <rect
       x="37.795277"
       y="37.795277"
       width="483.77954"
       height="718.11023"
       id="rect6469" />
    <rect
       x="37.795277"
       y="37.795277"
       width="483.77954"
       height="718.11023"
       id="rect6470" />
    <rect
       x="37.795277"
       y="37.795277"
       width="483.77954"
       height="718.11023"
       id="rect6471" />
    <rect
       x="37.795277"
       y="37.795277"
       width="483.77954"
       height="718.11023"
       id="rect6472" />
    <rect
       x="-26.458582"
       y="130.73653"
       width="155.86105"
       height="46.469273"
       id="rect30" />
    <rect
       x="-26.458582"
       y="130.73653"
       width="155.86105"
       height="46.469273"
       id="rect31" />
    <rect
       x="-26.458582"
       y="130.73653"
       width="155.86105"
       height="46.469273"
       id="rect32" />
    <rect
       x="-26.458582"
       y="130.73653"
       width="155.86105"
       height="46.469273"
       id="rect33" />
    <rect
       x="-26.458582"
       y="130.73653"
       width="155.86105"
       height="46.469273"
       id="rect34" />
    <rect
       x="-26.458582"
       y="130.73653"
       width="155.86105"
       height="46.469273"
       id="rect35" />
    <rect
       x="-26.458582"
       y="130.73653"
       width="155.86105"
       height="46.469273"
       id="rect38" />
    <rect
       x="-26.458582"
       y="130.73653"
       width="155.86105"
       height="46.469273"
       id="rect39" />
    <rect
       x="-26.458582"
       y="130.73653"
       width="155.86105"
       height="46.469273"
       id="rect40" />
    <rect
       x="-26.458582"
       y="130.73653"
       width="155.86105"
       height="46.469273"
       id="rect42" />
    <rect
       x="-26.458582"
       y="130.73653"
       width="155.86105"
       height="46.469273"
       id="rect43" />
    <rect
       x="-26.458582"
       y="130.73653"
       width="155.86105"
       height="46.469273"
       id="rect44" />
    <rect
       x="-26.458582"
       y="130.73653"
       width="155.86105"
       height="46.469273"
       id="rect46" />
    <rect
       x="-26.458582"
       y="130.73653"
       width="155.86105"
       height="46.469273"
       id="rect47" />
    <rect
       x="-26.458582"
       y="130.73653"
       width="155.86105"
       height="46.469273"
       id="rect48" />
  </defs>
  <g
     inkscape:label="Katman 1"
     inkscape:groupmode="layer"
     id="layer1">
    <path
       style="fill:#ed1c24;fill-opacity:1;stroke-width:0.0994895"
       d="m 1.1317266,4.9602 c -0.4764,-0.10317 -0.8624,-0.44426 -1.0502,-0.92803 l -0.068,-0.1758 -0.01,-1.29701 c -0.01,-1.43446 -0.01,-1.45317 0.1595,-1.7941 0.1107,-0.22594 0.3697,-0.48618 0.5986,-0.60146 0.3272,-0.16474 0.3078,-0.16316 2.0055,-0.1635 l 1.5449,-3e-4 0.2713,0.40711 c 0.1493,0.2239 0.2782,0.4075 0.2867,0.408 0.01,5e-4 0.1386,-0.18222 0.2896,-0.40604 l 0.2743,-0.40695 1.9268,-0.001 c 1.292,-5.5e-4 1.9729,0.008 2.0664,0.0276 0.5414,0.11137 1.0092004,0.57945 1.1237004,1.12425 0.018,0.091 0.029,0.56234 0.028,1.35564 0,1.36056 -0.01,1.41181 -0.1779,1.73985 -0.1249,0.23794 -0.3367,0.44976 -0.5744004,0.57457 -0.3636,0.19086 -0.051,0.17867 -4.5109,0.17635 -3.3476,-0.001 -4.0438,-0.008 -4.1864,-0.0392 z m 1.7729,-0.90543 c 0.2518,-0.0644 0.3884,-0.13481 0.5444,-0.28076 0.3677,-0.34397 0.305,-0.95001 -0.1231,-1.1896 -0.041,-0.0234 -0.036,-0.0369 0.054,-0.13724 0.4499,-0.49806 0.2266,-1.23873 -0.432,-1.43212 -0.2523,-0.0741 -0.7774,-0.10359 -1.2497,-0.0702 -0.232,0.0164 -0.4484,0.0369 -0.4811,0.0456 l -0.059,0.0159 v 1.52076 1.52077 l 0.099,0.0196 c 0.1668,0.0331 0.8189,0.061 1.1433,0.0491 0.1795,-0.006 0.3897,-0.0324 0.5046,-0.0618 z m -0.8253,-0.93233 v -0.2601 l 0.2776,0.0123 c 0.2243,0.01 0.2912,0.0225 0.3487,0.0654 0.1494,0.11122 0.1419,0.29302 -0.016,0.38524 -0.069,0.0401 -0.1419,0.0515 -0.3488,0.0541 l -0.2615,0.004 z m 0,-1.16794 -10e-5,-0.30931 0.2462,0.0132 c 0.2704,0.0144 0.3182,0.0371 0.3775,0.17908 0.053,0.12569 0.021,0.25204 -0.088,0.3472 -0.085,0.0747 -0.1028,0.0792 -0.313,0.0792 h -0.2228 z m 3.2378,0.57253 V 1.00027 h -0.4738 -0.4739 v 1.52676 1.52676 h 0.4739 0.4738 z m 1.618,1.49386 c 0.01,-0.0181 0.036,-0.33497 0.066,-0.70416 0.03,-0.36917 0.062,-0.73391 0.071,-0.8105 l 0.016,-0.13926 0.3279,0.77102 c 0.1804,0.42406 0.3389,0.79839 0.3522,0.83184 0.014,0.0334 0.034,0.0553 0.043,0.0484 0.012,-0.006 0.1857,-0.37963 0.3883,-0.82851 l 0.3686,-0.81619 0.016,0.2939 c 0.01,0.16163 0.025,0.53967 0.036,0.84009 l 0.019,0.54621 h 0.4446 0.4446 v -0.0604 c 0,-0.0333 -0.054,-0.71416 -0.1185,-1.51313 -0.065,-0.79898 -0.1185,-1.45881 -0.1185,-1.46631 0,-0.008 -0.2102,-0.0136 -0.4671,-0.0135 l -0.4673,1e-4 -0.2745,0.69941 -0.2746,0.6994 -0.2783,-0.69922 -0.2782,-0.69922 -0.4541,-3e-4 c -0.2497,-2e-4 -0.4542,0.009 -0.4543,0.0194 0,0.0109 -0.071,0.67717 -0.1579,1.48069 -0.087,0.80353 -0.1577,1.48169 -0.1577,1.50702 0,0.0421 0.039,0.0461 0.4483,0.0461 0.3355,0 0.451,-0.008 0.459,-0.0329 z"
       id="path2783" />
  </g>
</svg>
