<?xml version="1.0" encoding="UTF-8" standalone="no"?>
<!-- Created with Inkscape (http://www.inkscape.org/) -->

<svg
   width="10mm"
   height="6mm"
   viewBox="0 0 10 6"
   version="1.1"
   id="svg1"
   inkscape:version="1.4.2 (ebf0e940d0, 2025-05-08)"
   sodipodi:docname="5_1_1_3.svg"
   xmlns:inkscape="http://www.inkscape.org/namespaces/inkscape"
   xmlns:sodipodi="http://sodipodi.sourceforge.net/DTD/sodipodi-0.dtd"
   xmlns="http://www.w3.org/2000/svg"
   xmlns:svg="http://www.w3.org/2000/svg">
  <sodipodi:namedview
     id="namedview1"
     pagecolor="#ffffff"
     bordercolor="#000000"
     borderopacity="0.25"
     inkscape:showpageshadow="2"
     inkscape:pageopacity="0.0"
     inkscape:pagecheckerboard="0"
     inkscape:deskcolor="#d1d1d1"
     inkscape:document-units="mm"
     inkscape:zoom="15.31361"
     inkscape:cx="21.64741"
     inkscape:cy="9.1421944"
     inkscape:window-width="1920"
     inkscape:window-height="1014"
     inkscape:window-x="0"
     inkscape:window-y="0"
     inkscape:window-maximized="1"
     inkscape:current-layer="layer1" />
  <defs
     id="defs1">
    <rect
       x="13.485725"
       y="-52.819092"
       width="225.2477"
       height="118.63495"
       id="rect1" />
    <rect
       x="37.795277"
       y="37.795277"
       width="483.77954"
       height="718.11023"
       id="rect2721" />
    <rect
       x="37.795277"
       y="37.795277"
       width="483.77954"
       height="718.11023"
       id="rect2722" />
    <rect
       x="37.795277"
       y="37.795277"
       width="483.77954"
       height="718.11023"
       id="rect2723" />
    <rect
       x="37.795277"
       y="37.795277"
       width="483.77954"
       height="718.11023"
       id="rect2724" />
    <rect
       x="37.795277"
       y="37.795277"
       width="483.77954"
       height="718.11023"
       id="rect2725" />
    <rect
       x="37.795277"
       y="37.795277"
       width="483.77954"
       height="718.11023"
       id="rect2726" />
    <rect
       x="37.795277"
       y="37.795277"
       width="483.77954"
       height="718.11023"
       id="rect2727" />
    <rect
       x="37.795277"
       y="37.795277"
       width="483.77954"
       height="718.11023"
       id="rect2728" />
    <rect
       x="37.795277"
       y="37.795277"
       width="483.77954"
       height="718.11023"
       id="rect2729" />
    <rect
       x="37.795277"
       y="37.795277"
       width="483.77954"
       height="718.11023"
       id="rect2730" />
    <rect
       x="37.795277"
       y="37.795277"
       width="483.77954"
       height="718.11023"
       id="rect2731" />
    <rect
       x="37.795277"
       y="37.795277"
       width="483.77954"
       height="718.11023"
       id="rect2732" />
    <rect
       x="37.795277"
       y="37.795277"
       width="483.77954"
       height="718.11023"
       id="rect2733" />
    <rect
       x="37.795277"
       y="37.795277"
       width="483.77954"
       height="718.11023"
       id="rect2734" />
  </defs>
  <g
     inkscape:label="Katman 1"
     inkscape:groupmode="layer"
     id="layer1">
    <g
       id="g2"
       transform="matrix(0.50000022,0,0,0.50000022,-683.5003,-8.6516581)">
      <path
         fill="#ff0000"
         d="m 1367,18.303306 h 5 l 0.2062,0.20625 h 9.5875 L 1382,18.303306 h 5 v 10 h -5 l -0.2063,-0.20625 h -9.5875 L 1372,28.303306 h -5 z"
         id="path1-3"
         style="stroke-width:0.00208333" />
      <path
         fill="#ffffff"
         d="m 1372,18.303306 h 10 v 10 h -10 z m 5.1875,9.229167 -0.094,-1.797917 a 0.19791666,0.19791666 0 0 1 0.2313,-0.204167 l 1.7896,0.314583 -0.2417,-0.666666 a 0.13541666,0.13541666 0 0 1 0.042,-0.152084 l 1.9604,-1.587499 -0.4417,-0.20625 a 0.13541666,0.13541666 0 0 1 -0.071,-0.164584 l 0.3875,-1.191666 -1.1292,0.239583 a 0.13541666,0.13541666 0 0 1 -0.1521,-0.07917 l -0.2187,-0.514582 -0.8813,0.945833 a 0.13541666,0.13541666 0 0 1 -0.2312,-0.118751 l 0.425,-2.191665 -0.6813,0.393749 a 0.13541666,0.13541666 0 0 1 -0.1895,-0.05625 l -0.6917,-1.358333 -0.6917,1.358333 a 0.13541666,0.13541666 0 0 1 -0.1896,0.05625 l -0.6812,-0.393749 0.425,2.191665 a 0.13541666,0.13541666 0 0 1 -0.2313,0.118751 l -0.8812,-0.945833 -0.2188,0.514582 a 0.13541666,0.13541666 0 0 1 -0.152,0.07917 l -1.1292,-0.239583 0.3875,1.191666 a 0.13541666,0.13541666 0 0 1 -0.071,0.164584 l -0.4417,0.20625 1.9604,1.587499 a 0.13541666,0.13541666 0 0 1 0.042,0.152084 l -0.2417,0.666666 1.7896,-0.314583 a 0.19791666,0.19791666 0 0 1 0.2312,0.204167 l -0.094,1.797917 z"
         id="path2"
         style="stroke-width:0.00208333" />
    </g>
  </g>
</svg>
