<?xml version="1.0" encoding="UTF-8" standalone="no"?>
<!-- Created with Inkscape (http://www.inkscape.org/) -->

<svg
   width="6mm"
   height="6mm"
   viewBox="0 0 6 6"
   version="1.1"
   id="svg1"
   inkscape:version="1.4.2 (ebf0e940d0, 2025-05-08)"
   sodipodi:docname="5_1_1_27.svg"
   xmlns:inkscape="http://www.inkscape.org/namespaces/inkscape"
   xmlns:sodipodi="http://sodipodi.sourceforge.net/DTD/sodipodi-0.dtd"
   xmlns="http://www.w3.org/2000/svg"
   xmlns:svg="http://www.w3.org/2000/svg">
  <sodipodi:namedview
     id="namedview1"
     pagecolor="#ffffff"
     bordercolor="#000000"
     borderopacity="0.25"
     inkscape:showpageshadow="2"
     inkscape:pageopacity="0.0"
     inkscape:pagecheckerboard="0"
     inkscape:deskcolor="#d1d1d1"
     inkscape:document-units="mm"
     inkscape:zoom="18.775284"
     inkscape:cx="11.744163"
     inkscape:cy="15.712146"
     inkscape:window-width="1920"
     inkscape:window-height="1014"
     inkscape:window-x="0"
     inkscape:window-y="0"
     inkscape:window-maximized="1"
     inkscape:current-layer="layer1" />
  <defs
     id="defs1">
    <rect
       x="13.485725"
       y="-52.819092"
       width="225.2477"
       height="118.63495"
       id="rect1" />
    <rect
       x="37.795277"
       y="37.795277"
       width="483.77954"
       height="718.11023"
       id="rect2721" />
    <rect
       x="37.795277"
       y="37.795277"
       width="483.77954"
       height="718.11023"
       id="rect2722" />
    <rect
       x="37.795277"
       y="37.795277"
       width="483.77954"
       height="718.11023"
       id="rect2723" />
    <rect
       x="37.795277"
       y="37.795277"
       width="483.77954"
       height="718.11023"
       id="rect2724" />
    <rect
       x="37.795277"
       y="37.795277"
       width="483.77954"
       height="718.11023"
       id="rect2725" />
    <rect
       x="37.795277"
       y="37.795277"
       width="483.77954"
       height="718.11023"
       id="rect2726" />
    <rect
       x="37.795277"
       y="37.795277"
       width="483.77954"
       height="718.11023"
       id="rect2727" />
    <rect
       x="37.795277"
       y="37.795277"
       width="483.77954"
       height="718.11023"
       id="rect2728" />
    <rect
       x="37.795277"
       y="37.795277"
       width="483.77954"
       height="718.11023"
       id="rect2729" />
    <rect
       x="37.795277"
       y="37.795277"
       width="483.77954"
       height="718.11023"
       id="rect2730" />
    <rect
       x="37.795277"
       y="37.795277"
       width="483.77954"
       height="718.11023"
       id="rect2731" />
    <rect
       x="37.795277"
       y="37.795277"
       width="483.77954"
       height="718.11023"
       id="rect2732" />
    <rect
       x="37.795277"
       y="37.795277"
       width="483.77954"
       height="718.11023"
       id="rect2733" />
    <rect
       x="37.795277"
       y="37.795277"
       width="483.77954"
       height="718.11023"
       id="rect2734" />
  </defs>
  <g
     inkscape:label="Katman 1"
     inkscape:groupmode="layer"
     id="layer1">
    <g
       id="g6402"
       transform="matrix(0.74914553,0,0,0.74914553,-601.57167,-119.41989)">
      <path
         id="path4865"
         d="m 804.79109,166.61219 1.67852,-0.1778 1.35714,0.43568 0.91087,-0.11042 0.88618,-0.87242 1.1437,-1.62878 -0.0219,-0.93556 -0.83397,-1.42911 -0.60219,-1.57656 -1.58609,-0.38029 -1.41393,0.58314 -1.39982,0.14464 -0.72214,0.56338 -0.2854,0.69886 -0.73166,1.0361 0.0963,0.9839 0.69885,1.9805 0.52353,0.5909 z"
         style="fill:#c8b7b7;fill-opacity:1;fill-rule:nonzero;stroke:none;stroke-width:0.352778" />
      <path
         id="path4866"
         d="m 804.3279,164.14556 1.08726,0.514 0.49071,-0.2039 0.41875,-1.16029 0.0829,-0.51259 -0.3362,-0.27834 -0.83537,-0.0829 -0.44098,0.25788 -0.45473,0.66287 -0.0702,0.55245 z"
         style="fill:#ac9393;fill-opacity:1;fill-rule:nonzero;stroke:none;stroke-width:0.352778" />
      <path
         id="path4867"
         d="m 805.38764,160.61496 1.17687,-0.19967 0.90946,-0.375 -0.1584,0.75953 -0.34713,0.29739 -0.92357,0.003 z"
         style="fill:#ac9393;fill-opacity:1;fill-rule:nonzero;stroke:none;stroke-width:0.352778" />
      <path
         id="path4868"
         d="m 808.10791,166.07067 0.41063,0.13371 0.75812,-0.65335 -0.0455,-0.45191 -0.28821,-0.10054 -1.49649,0.27975 -0.17921,0.40499 0.29916,0.31574 z"
         style="fill:#ac9393;fill-opacity:1;fill-rule:nonzero;stroke:none;stroke-width:0.352778" />
      <path
         id="path4869"
         d="m 806.23642,165.54962 c 0,0.15028 -0.121,0.27164 -0.26987,0.27164 -0.15028,0 -0.27164,-0.12136 -0.27164,-0.27164 0,-0.14993 0.12136,-0.2727 0.27164,-0.2727 0.14887,0 0.26987,0.12277 0.26987,0.2727 z"
         style="fill:#ac9393;fill-opacity:1;fill-rule:nonzero;stroke:none;stroke-width:0.352778" />
      <path
         id="path4870"
         d="m 810.07041,163.60405 c 0,0.15028 -0.12135,0.27129 -0.27164,0.27129 -0.14887,0 -0.27022,-0.12101 -0.27022,-0.27129 0,-0.15169 0.12135,-0.27305 0.27022,-0.27305 0.15029,0 0.27164,0.12136 0.27164,0.27305 z"
         style="fill:#ac9393;fill-opacity:1;fill-rule:nonzero;stroke:none;stroke-width:0.352778" />
      <path
         id="path4871"
         d="m 807.3251,163.96071 c 0,0.11994 -0.0977,0.21943 -0.21767,0.21943 -0.12135,0 -0.21907,-0.0995 -0.21907,-0.21943 0,-0.121 0.0977,-0.22049 0.21907,-0.22049 0.11995,0 0.21767,0.0995 0.21767,0.22049 z"
         style="fill:#ac9393;fill-opacity:1;fill-rule:nonzero;stroke:none;stroke-width:0.352778" />
      <path
         id="path4872"
         d="m 806.89541,161.9915 c 0,0.12136 -0.0981,0.21943 -0.21801,0.21943 -0.12101,0 -0.21908,-0.0981 -0.21908,-0.21943 0,-0.121 0.0981,-0.21907 0.21908,-0.21907 0.11994,0 0.21801,0.0981 0.21801,0.21907 z"
         style="fill:#ac9393;fill-opacity:1;fill-rule:nonzero;stroke:none;stroke-width:0.352778" />
      <path
         id="path4873"
         d="m 808.73903,160.93599 c 0,0.12136 -0.0977,0.21908 -0.21766,0.21908 -0.12136,0 -0.21908,-0.0977 -0.21908,-0.21908 0,-0.121 0.0977,-0.21907 0.21908,-0.21907 0.11994,0 0.21766,0.0981 0.21766,0.21907 z"
         style="fill:#ac9393;fill-opacity:1;fill-rule:nonzero;stroke:none;stroke-width:0.352778" />
      <path
         id="path4874"
         d="m 809.23362,162.569 c 0,0.43815 -0.35383,0.79375 -0.79092,0.79375 -0.43674,0 -0.79093,-0.3556 -0.79093,-0.79375 0,-0.43815 0.35419,-0.79375 0.79093,-0.79375 0.43709,0 0.79092,0.3556 0.79092,0.79375 z"
         style="fill:#ac9393;fill-opacity:1;fill-rule:nonzero;stroke:none;stroke-width:0.352778" />
      <path
         id="path4875"
         d="m 807.53465,166.94027 c -0.17075,-0.0455 -0.48507,-0.14605 -0.69991,-0.2219 -0.34185,-0.12135 -0.43286,-0.13652 -0.71932,-0.11853 -0.18062,0.01 -0.47554,0.0522 -0.65617,0.0938 -0.19014,0.0441 -0.44097,0.0688 -0.59372,0.0593 -0.22754,-0.0127 -0.30057,-0.0416 -0.49636,-0.18486 -0.25753,-0.18874 -0.50976,-0.50165 -0.68192,-0.84596 -0.16545,-0.33091 -0.47978,-1.31339 -0.58702,-1.8355 -0.18486,-0.89606 -0.11324,-1.16064 0.48895,-1.79564 0.32279,-0.34043 0.37782,-0.42193 0.42051,-0.62019 0.0963,-0.45049 0.2286,-0.61877 0.65864,-0.83643 0.18732,-0.0952 0.34995,-0.12136 1.29399,-0.21379 0.40781,-0.0399 0.66569,-0.12805 1.26929,-0.43391 0.24941,-0.12559 0.36936,-0.1584 0.64064,-0.17498 0.59549,-0.036 1.40441,0.2219 1.6122,0.514 0.0483,0.0688 0.19297,0.42862 0.32138,0.80045 0.19544,0.57079 0.28646,0.762 0.57573,1.21814 0.77858,1.22661 0.8188,1.59597 0.26071,2.4571 -0.60361,0.9331 -1.45521,1.88101 -1.87855,2.09056 -0.29492,0.14605 -0.79375,0.16545 -1.22907,0.0483 z m 1.17404,-0.32103 c 0.25365,-0.11606 0.27411,-0.13934 1.21285,-1.32433 0.62124,-0.78281 0.71931,-0.9786 0.72073,-1.44427 10e-4,-0.39405 -0.0621,-0.55245 -0.46743,-1.15358 -0.28223,-0.42016 -0.38559,-0.65158 -0.59232,-1.34197 -0.24271,-0.80468 -0.30727,-0.91228 -0.63535,-1.04881 -0.23566,-0.0991 -0.74401,-0.19826 -1.01283,-0.19826 -0.24518,0 -0.2868,0.0342 -0.2868,0.23425 -0.001,0.32914 -0.26706,0.71931 -0.59091,0.86677 -0.42333,0.19297 -1.24319,0.0152 -1.63865,-0.35419 -0.17498,-0.16404 -0.28646,-0.15451 -0.68086,0.055 -0.25753,0.13793 -0.26458,0.14605 -0.43815,0.54574 -0.1337,0.30868 -0.248,0.48931 -0.48084,0.7553 -0.16968,0.19156 -0.3623,0.45191 -0.43144,0.57856 -0.11007,0.2039 -0.12136,0.25929 -0.0991,0.48789 0.0289,0.28116 0.27694,1.21955 0.45191,1.71168 0.1711,0.47801 0.48507,1.05551 0.68898,1.2647 0.3048,0.31433 0.54857,0.33373 1.35466,0.11325 0.53199,-0.14746 0.86678,-0.11571 1.36279,0.12805 0.5281,0.25894 0.55844,0.26741 0.96766,0.24942 0.26177,-0.0123 0.42016,-0.0455 0.59514,-0.12524 z m -0.44909,-0.40534 c -0.0843,-0.0317 -0.24553,-0.0593 -0.35842,-0.0621 -0.26458,-0.004 -0.41769,-0.0632 -0.59266,-0.23283 -0.22049,-0.21202 -0.17357,-0.4505 0.14358,-0.72884 0.12241,-0.1076 0.18027,-0.13088 0.25329,-0.10478 0.16122,0.0579 0.43004,0.036 0.81033,-0.0702 0.59831,-0.16404 0.83926,-0.0621 0.83926,0.3556 v 0.2286 l -0.3623,0.33902 c -0.38453,0.36372 -0.44662,0.38594 -0.73308,0.27552 z m 0.65017,-0.42157 c 0.30622,-0.29351 0.32138,-0.3182 0.29775,-0.4632 -0.0303,-0.19155 -0.0275,-0.19014 -0.23954,-0.21766 -0.17251,-0.0233 -0.17639,-0.0205 -0.1905,0.11994 -0.0176,0.19015 -0.12382,0.2286 -0.12382,0.0455 0,-0.0854 -0.0222,-0.13511 -0.0593,-0.13511 -0.10619,0 -0.15699,0.10901 -0.12947,0.27693 0.0219,0.14358 0.0152,0.16122 -0.0677,0.16122 -0.0797,0 -0.0935,-0.0261 -0.0935,-0.17498 0,-0.12665 -0.018,-0.17498 -0.0649,-0.17498 -0.073,0 -0.0825,0.0512 -0.0674,0.36125 0.007,0.16122 -0.007,0.20778 -0.0579,0.20778 -0.0469,0 -0.0744,-0.0674 -0.0967,-0.24094 -0.0385,-0.31292 -0.10724,-0.31009 -0.10724,0.003 0,0.3362 -0.10478,0.30162 -0.12277,-0.0402 -0.01,-0.18168 -0.0289,-0.248 -0.0758,-0.248 -0.0483,0 -0.0635,0.0593 -0.0635,0.2413 0,0.34043 -0.12665,0.30727 -0.13477,-0.0374 l -0.003,-0.13759 -0.0663,0.14887 c -0.0342,0.0811 -0.0522,0.19685 -0.0385,0.25471 0.0332,0.13088 0.25752,0.23036 0.5207,0.23036 0.10618,0 0.25929,0.0289 0.34043,0.0646 0.2413,0.10478 0.30586,0.0801 0.64488,-0.24518 z m -3.15418,0.0261 c -0.33479,-0.18204 -0.0896,-0.66711 0.28928,-0.57186 0.27163,0.0688 0.36547,0.31292 0.19861,0.52494 -0.10478,0.13229 -0.29633,0.15028 -0.48789,0.0455 z m 0.34184,-0.0963 c 0.14605,-0.1009 0.0536,-0.36125 -0.12806,-0.36125 -0.18062,0 -0.27728,0.21661 -0.15169,0.34185 0.0593,0.0579 0.20672,0.0688 0.27975,0.0194 z m 3.20111,-0.80751 c -0.24236,-0.17639 -0.29775,-0.26352 -0.20814,-0.31856 0.0677,-0.0413 0.52634,0.32526 0.52634,0.42051 0,0.11713 -0.0385,0.10478 -0.3182,-0.10195 z m 0.15169,-0.31432 c -0.2854,-0.29634 -0.32526,-0.37748 -0.18768,-0.37748 0.0924,0 0.58455,0.51541 0.56092,0.58561 -0.0342,0.10337 -0.11995,0.0565 -0.37324,-0.20813 z m -4.43618,-0.003 c -0.0991,-0.0935 -0.22437,-0.15981 -0.32773,-0.1778 -0.39547,-0.0631 -0.51259,-0.21907 -0.51259,-0.67804 0,-0.35807 0.14182,-0.65299 0.48648,-1.01423 0.33197,-0.34855 0.55245,-0.4505 0.901,-0.4131 0.56656,0.0579 0.99236,0.27693 0.99236,0.50976 0,0.13652 -0.30727,1.13947 -0.43568,1.42205 -0.16369,0.3623 -0.36089,0.50306 -0.70132,0.50165 -0.21343,-0.001 -0.26035,-0.0194 -0.40252,-0.15029 z m 0.56797,-0.0854 c 0.0646,-0.0346 0.15981,-0.1076 0.21096,-0.16404 0.0811,-0.0882 0.31821,-0.67945 0.49601,-1.2319 0.11006,-0.34466 -0.0123,-0.45473 -0.64629,-0.57468 -0.44238,-0.0825 -0.49601,-0.0635 -0.84773,0.3168 -0.2921,0.31573 -0.38982,0.51153 -0.41451,0.83397 -0.0275,0.34995 0.0342,0.44238 0.35666,0.53869 0.14499,0.0413 0.3309,0.13652 0.41487,0.20814 0.17215,0.14746 0.25929,0.16122 0.43003,0.073 z m -0.90276,-0.64629 c -0.12806,-0.2219 -0.13899,-0.34325 -0.0328,-0.34325 0.0617,0 0.28787,0.39158 0.28787,0.49883 0,0.14217 -0.12806,0.0649 -0.25506,-0.15558 z m 0.43709,0.0384 c -0.0663,-0.0811 -0.31432,-0.61312 -0.31432,-0.67662 0,-0.0303 0.0318,-0.055 0.0688,-0.055 0.0621,0 0.36936,0.5775 0.36936,0.69462 0,0.0744 -0.0744,0.0963 -0.12383,0.037 z m 0.14323,-0.53445 c -0.0346,-0.0843 -0.0924,-0.22472 -0.12806,-0.31151 -0.0691,-0.16545 -0.0568,-0.23565 0.0427,-0.23565 0.0674,0 0.24095,0.42721 0.24095,0.59266 0,0.15558 -0.0811,0.1323 -0.15558,-0.0455 z m 0.21908,-0.4371 c -0.0688,-0.1651 -0.055,-0.24094 0.0441,-0.24094 0.0674,0 0.11148,0.0935 0.11148,0.24094 0,0.16969 -0.0854,0.16969 -0.15557,0 z m 2.36608,1.76389 c -0.17357,-0.47801 -0.18062,-0.51646 -0.0854,-0.51646 0.066,0 0.21484,0.27834 0.24518,0.4572 0.0166,0.0995 -0.12665,0.15169 -0.15981,0.0593 z m 1.8355,-0.31961 c -0.16263,-0.19156 -0.1972,-0.25612 -0.15557,-0.29775 0.0427,-0.0413 0.10195,-0.002 0.27269,0.1778 0.20814,0.21661 0.24659,0.31292 0.13935,0.3489 -0.0265,0.008 -0.14076,-0.0952 -0.25647,-0.22895 z m -1.70039,-0.1517 c -0.0759,-0.27128 -0.0677,-0.35278 0.0384,-0.35278 0.0677,0 0.14605,0.20955 0.16405,0.4371 0.01,0.11006 -0.007,0.15557 -0.0579,0.1651 -0.0526,0.0113 -0.0896,-0.0522 -0.14464,-0.24942 z m 0.35419,0.0568 c -0.0469,-0.0469 -0.036,-0.48789 0.0152,-0.51823 0.0579,-0.0374 0.084,0.0427 0.0977,0.30162 0.01,0.19862 -0.0384,0.29105 -0.11148,0.21661 z m -1.42099,-0.0677 c -0.19403,-0.0963 -0.16651,-0.35278 0.0554,-0.49883 0.25611,-0.16651 0.54821,0.18203 0.36089,0.43286 -0.0702,0.0949 -0.28928,0.12947 -0.41628,0.066 z m 0.25506,-0.19015 c 0.0455,-0.0565 0.0441,-0.0797 -0.0109,-0.13511 -0.0593,-0.0593 -0.0744,-0.0579 -0.13934,0.007 -0.0579,0.0579 -0.0621,0.0882 -0.0233,0.13511 0.0646,0.0783 0.10337,0.0769 0.17357,-0.007 z m 2.41829,-0.11571 c -0.13088,-0.0635 -0.2039,-0.25224 -0.14993,-0.39405 0.0579,-0.1517 0.2533,-0.29775 0.39935,-0.29775 0.23706,0 0.41627,0.30198 0.32279,0.54434 -0.0621,0.16122 -0.37501,0.24271 -0.57221,0.14746 z m 0.3556,-0.19156 c 0.0374,-0.0384 0.0692,-0.10336 0.0692,-0.14464 0,-0.18485 -0.25506,-0.24659 -0.36654,-0.0882 -0.14358,0.20531 0.11959,0.41063 0.29739,0.23283 z m -6.36517,-0.47413 c 0,-0.28646 0.14887,-0.63924 0.26882,-0.63924 0.11853,0 0.14182,0.084 0.0522,0.18168 -0.0536,0.0621 -0.0868,0.18345 -0.10195,0.38065 -0.019,0.26035 -0.0328,0.29351 -0.12101,0.30586 -0.091,0.0123 -0.0981,-0.001 -0.0981,-0.22895 z m 4.42207,0.14358 c -0.387,-0.15452 -0.55386,-0.69321 -0.34713,-1.12043 0.12135,-0.24941 0.42439,-0.48083 0.68227,-0.51964 0.64488,-0.0963 1.2058,0.59126 0.96167,1.17687 -0.0783,0.18732 -0.33619,0.40922 -0.54151,0.46567 -0.20532,0.0568 -0.61031,0.0554 -0.7553,-0.002 z m 0.81598,-0.20144 c 0.20531,-0.10477 0.36512,-0.32914 0.36371,-0.51117 -10e-4,-0.30304 -0.26987,-0.65864 -0.56233,-0.74825 -0.0977,-0.0289 -0.10195,-0.0222 -0.0868,0.15981 0.0194,0.23989 -0.0826,0.26317 -0.16122,0.0374 -0.0536,-0.1517 -0.1143,-0.17392 -0.2286,-0.0787 -0.0427,0.0346 -0.0289,0.091 0.0607,0.25611 0.10618,0.1958 0.11712,0.34749 0.0233,0.34749 -0.0219,0 -0.0825,-0.10054 -0.13652,-0.2219 -0.0797,-0.18591 -0.10443,-0.21378 -0.1584,-0.16968 -0.055,0.0455 -0.0455,0.0871 0.0716,0.29351 0.11854,0.21096 0.12841,0.24835 0.0716,0.3048 -0.055,0.055 -0.0755,0.0413 -0.16651,-0.10478 l -0.10478,-0.16827 -0.0152,0.12559 c -0.0275,0.24377 0.15558,0.49741 0.40922,0.56762 0.15311,0.0413 0.44803,0 0.62019,-0.0896 z m -2.33998,-0.99907 c -0.10865,-0.0772 -0.12947,-0.26599 -0.0427,-0.38311 0.15557,-0.20814 0.55809,-0.0744 0.55809,0.18485 0,0.23566 -0.29774,0.34996 -0.51541,0.19826 z m 0.31821,-0.21625 c 0,-0.0963 -0.13476,-0.14464 -0.20638,-0.073 -0.0734,0.073 -10e-4,0.19014 0.10866,0.17356 0.0649,-0.008 0.0977,-0.0441 0.0977,-0.10054 z m -2.20733,-0.41487 c -0.0512,-0.0317 -0.0427,-0.0744 0.0466,-0.24941 0.10901,-0.21096 0.22613,-0.30021 0.43286,-0.32808 0.17216,-0.0233 0.14887,0.14499 -0.0275,0.1905 -0.0924,0.0233 -0.15452,0.0769 -0.19015,0.16369 -0.073,0.17497 -0.18486,0.27022 -0.26176,0.2233 z m 3.72886,-0.26599 c -0.10195,-0.0413 -0.18592,-0.19967 -0.18592,-0.35419 0,-0.048 0.0579,-0.14605 0.12806,-0.21625 0.17216,-0.17216 0.3997,-0.17639 0.55245,-0.0123 0.14746,0.15981 0.14076,0.34043 -0.0205,0.50024 -0.1337,0.1337 -0.28398,0.15981 -0.47413,0.0825 z m 0.37465,-0.30868 c 0.007,-0.0631 -0.0176,-0.13758 -0.0565,-0.17074 -0.10195,-0.084 -0.28504,0.01 -0.28504,0.14463 0,0.13935 0.037,0.16828 0.19544,0.15311 0.10618,-0.0113 0.13511,-0.036 0.14605,-0.127 z m -1.6577,-0.073 c 0.15592,-0.11571 0.22895,-0.28504 0.21378,-0.49036 l -0.0138,-0.17533 -0.375,0.17392 c -0.38982,0.18168 -0.70838,0.26317 -1.03082,0.26317 -0.10619,0 -0.19156,0.0152 -0.19156,0.0356 0,0.0303 0.36125,0.21378 0.56939,0.28963 0.14746,0.0522 0.71508,-0.0138 0.82797,-0.0981 z"
         style="fill:#000000;fill-opacity:1;fill-rule:nonzero;stroke:none;stroke-width:0.352778" />
    </g>
  </g>
</svg>
