<?xml version="1.0" encoding="UTF-8" standalone="no"?>
<!-- Created with Inkscape (http://www.inkscape.org/) -->

<svg
   width="800mm"
   height="90mm"
   viewBox="0 0 800 90"
   version="1.1"
   id="svg1"
   inkscape:version="1.4 (e7c3feb100, 2024-10-09)"
   sodipodi:docname="sablon.svg"
   xml:space="preserve"
   xmlns:inkscape="http://www.inkscape.org/namespaces/inkscape"
   xmlns:sodipodi="http://sodipodi.sourceforge.net/DTD/sodipodi-0.dtd"
   xmlns="http://www.w3.org/2000/svg"
   xmlns:svg="http://www.w3.org/2000/svg"><sodipodi:namedview
     id="namedview1"
     pagecolor="#ffffff"
     bordercolor="#000000"
     borderopacity="0.25"
     inkscape:showpageshadow="2"
     inkscape:pageopacity="0.0"
     inkscape:pagecheckerboard="0"
     inkscape:deskcolor="#d1d1d1"
     inkscape:document-units="mm"
     inkscape:zoom="1.1958944"
     inkscape:cx="503.80703"
     inkscape:cy="122.92055"
     inkscape:window-width="1870"
     inkscape:window-height="1054"
     inkscape:window-x="0"
     inkscape:window-y="0"
     inkscape:window-maximized="1"
     inkscape:current-layer="layer1" /><defs
     id="defs1"><rect
       x="0"
       y="0"
       width="552.59503"
       height="342.33347"
       id="rect2" /><rect
       x="0"
       y="0"
       width="160"
       height="90"
       id="rect4" /><rect
       x="0"
       y="0"
       width="160"
       height="90"
       id="rect5" /><rect
       x="0"
       y="0"
       width="160"
       height="90"
       id="rect6" /><rect
       x="37.795277"
       y="37.795277"
       width="483.77954"
       height="718.11023"
       id="rect3833" /><rect
       x="37.795277"
       y="37.795277"
       width="483.77954"
       height="718.11023"
       id="rect7" /><rect
       x="0"
       y="0"
       width="552.59503"
       height="342.33347"
       id="rect13" /><rect
       x="37.795277"
       y="37.795277"
       width="483.77954"
       height="718.11023"
       id="rect14" /><rect
       x="37.795277"
       y="37.795277"
       width="483.77954"
       height="718.11023"
       id="rect15" /><rect
       x="0"
       y="0"
       width="552.59503"
       height="342.33347"
       id="rect21" /><rect
       x="37.795277"
       y="37.795277"
       width="483.77954"
       height="718.11023"
       id="rect22" /><rect
       x="37.795277"
       y="37.795277"
       width="483.77954"
       height="718.11023"
       id="rect23" /><rect
       x="0"
       y="0"
       width="552.59503"
       height="342.33347"
       id="rect35" /><rect
       x="37.795277"
       y="37.795277"
       width="483.77954"
       height="718.11023"
       id="rect36" /><rect
       x="37.795277"
       y="37.795277"
       width="483.77954"
       height="718.11023"
       id="rect37" /><rect
       x="0"
       y="0"
       width="552.59503"
       height="342.33347"
       id="rect38" /><rect
       x="37.795277"
       y="37.795277"
       width="483.77954"
       height="718.11023"
       id="rect39" /><rect
       x="37.795277"
       y="37.795277"
       width="483.77954"
       height="718.11023"
       id="rect40" /><rect
       x="0"
       y="0"
       width="552.59503"
       height="342.33347"
       id="rect18" /><rect
       x="37.795277"
       y="37.795277"
       width="483.77954"
       height="718.11023"
       id="rect19" /><rect
       x="37.795277"
       y="37.795277"
       width="483.77954"
       height="718.11023"
       id="rect20" /><rect
       x="0"
       y="0"
       width="552.59503"
       height="342.33347"
       id="rect41" /><rect
       x="37.795277"
       y="37.795277"
       width="483.77954"
       height="718.11023"
       id="rect42" /><rect
       x="37.795277"
       y="37.795277"
       width="483.77954"
       height="718.11023"
       id="rect43" /><rect
       x="0"
       y="0"
       width="552.59503"
       height="342.33347"
       id="rect44" /><rect
       x="37.795277"
       y="37.795277"
       width="483.77954"
       height="718.11023"
       id="rect45" /><rect
       x="37.795277"
       y="37.795277"
       width="483.77954"
       height="718.11023"
       id="rect46" /><rect
       x="0"
       y="0"
       width="552.59503"
       height="342.33347"
       id="rect55" /><rect
       x="37.795277"
       y="37.795277"
       width="483.77954"
       height="718.11023"
       id="rect56" /><rect
       x="37.795277"
       y="37.795277"
       width="483.77954"
       height="718.11023"
       id="rect57" /><rect
       x="0"
       y="0"
       width="552.59503"
       height="289.4201"
       id="rect34" /><rect
       x="0"
       y="0"
       width="552.59503"
       height="289.4201"
       id="rect49" /><rect
       x="0"
       y="0"
       width="552.59503"
       height="342.33347"
       id="rect59" /><rect
       x="37.795277"
       y="37.795277"
       width="483.77954"
       height="718.11023"
       id="rect60" /><rect
       x="0"
       y="0"
       width="552.59503"
       height="289.4201"
       id="rect61" /><rect
       x="0"
       y="0"
       width="552.59503"
       height="289.4201"
       id="rect62" /><rect
       x="0"
       y="0"
       width="552.59503"
       height="342.33347"
       id="rect81" /><rect
       x="37.795277"
       y="37.795277"
       width="483.77954"
       height="718.11023"
       id="rect82" /><rect
       x="0"
       y="0"
       width="552.59503"
       height="289.4201"
       id="rect83" /><rect
       x="0"
       y="0"
       width="552.59503"
       height="289.4201"
       id="rect84" /><rect
       x="0"
       y="0"
       width="552.59503"
       height="342.33347"
       id="rect85" /><rect
       x="37.795277"
       y="37.795277"
       width="483.77954"
       height="718.11023"
       id="rect86" /><rect
       x="0"
       y="0"
       width="552.59503"
       height="289.4201"
       id="rect87" /><rect
       x="0"
       y="0"
       width="552.59503"
       height="289.4201"
       id="rect88" /><rect
       x="0"
       y="0"
       width="552.59503"
       height="342.33347"
       id="rect98" /><rect
       x="37.795277"
       y="37.795277"
       width="483.77954"
       height="718.11023"
       id="rect99" /><rect
       x="0"
       y="0"
       width="552.59503"
       height="289.4201"
       id="rect100" /><rect
       x="0"
       y="0"
       width="552.59503"
       height="289.4201"
       id="rect101" /></defs><g
     inkscape:label="Katman 1"
     inkscape:groupmode="layer"
     id="layer1"><g
       id="g101"><rect
         style="fill:#ffffff;stroke-width:1.00157"
         id="rect1"
         width="160"
         height="90"
         x="0"
         y="0" /><rect
         style="fill:#e6e6e6;stroke-width:0.879191"
         id="rect3"
         width="146"
         height="76"
         x="7"
         y="7" /><text
         xml:space="preserve"
         transform="matrix(0.26458333,0,0,0.26458333,6.4135976,37.09425)"
         id="text1"
         style="font-style:normal;font-variant:normal;font-weight:normal;font-stretch:normal;font-size:48px;font-family:Gargle;-inkscape-font-specification:Gargle;text-align:center;writing-mode:lr-tb;direction:ltr;white-space:pre;shape-inside:url(#rect2);display:inline;fill:#000000;stroke:none;stroke-width:15"
         x="-173.92799"
         y="0"><tspan
           x="161.69781"
           y="41.52"
           id="tspan2"><tspan
             style="font-weight:bold"
             id="tspan1">BAŞLIKLAR</tspan></tspan></text><g
         id="g3315"
         transform="matrix(0.41944288,0,0,0.41944288,13.038688,41.628757)"><circle
           style="opacity:1;fill:#000000;fill-opacity:1;stroke:none;stroke-width:0.635006;stroke-linecap:round;stroke-linejoin:bevel;stroke-miterlimit:4;stroke-dasharray:none;stroke-dashoffset:0;stroke-opacity:1"
           id="circle3312"
           cx="282.13547"
           cy="94.785439"
           r="5.9602871" /><path
           style="fill:#ffffff;fill-opacity:1;stroke:none;stroke-width:0.0531143px;stroke-linecap:butt;stroke-linejoin:miter;stroke-opacity:1"
           d="m 1073.0176,9.1972656 c -2.3876,-0.050088 -5.6935,0.4528261 -7.2735,0.9394534 -2.1066,0.648831 -3.416,1.972656 -3.416,1.972656 0,0 -1.9037,-2.156838 -3.2617,-2.2011719 -1.3579,-0.044334 -2.4637,1.5077159 -3.6426,2.1249999 -1.1789,0.617284 -2.32,0.07088 -3.414,1.59375 -1.0939,1.52287 -0.8983,5.345302 -0.834,7.435547 0.021,0.670143 10e-5,1.681261 -0.031,2.736328 -0.7331,0.0047 -1.5903,0.227143 -2.2129,1.091797 -1.3103,1.819725 0,4.07866 0,5.349609 0,1.27095 -0.1768,1.341938 0,2.275391 0.1768,0.93346 0.6111,2.267166 1.252,3.1875 0.2366,0.339779 0.6298,0.701346 1.0312,1.037109 -0.043,0.741639 -0.1841,3.307978 -0.066,4.509766 0.1357,1.387559 0.2266,2.308064 0.6973,3.220703 0.4708,0.912635 0.6406,1.290339 1.9316,2.119141 1.2911,0.828805 4.1791,1.651929 6.0372,1.93164 1.858,0.279723 3.8196,-0.354517 4.9355,-0.05469 1.116,0.29983 1.7168,1.019531 1.7168,1.019531 0,0 1.1751,-1.039368 2.3867,-1.314453 1.2116,-0.275112 3.1834,0.426182 4.7227,0.267578 1.5392,-0.158627 3.2153,-0.623031 4.3984,-1.179687 1.1832,-0.556657 2.0061,-1.037073 2.6836,-1.904297 0.6775,-0.86722 1.207,-3.085938 1.207,-3.085938 l -0.074,-5.505859 c 0.2777,-0.253214 0.5325,-0.512818 0.7031,-0.757813 0.6409,-0.920326 1.0752,-2.25209 1.252,-3.185547 0.1769,-0.933456 0,-1.00639 0,-2.277343 0,-1.270946 1.3103,-3.52988 0,-5.34961 -0.718,-0.997157 -1.7452,-1.14374 -2.5352,-1.080078 0,-0.129698 0,-0.272842 0.012,-0.394531 0.1436,-1.953668 1.5913,-3.517343 1.5937,-4.705078 0,-1.187739 -0.3585,-0.988981 -0.6836,-2.048828 -0.3252,-1.059852 -0.273,-3.34237 -1.2148,-4.324219 -0.9419,-0.981842 -2.493,-0.583444 -3.4903,-1.138672 -0.9972,-0.555224 -0.4524,-1.408236 -2.4277,-2.048828 -0.4938,-0.160148 -1.1866,-0.2391633 -1.9824,-0.2558594 z"
           transform="matrix(0.26458333,0,0,0.26458333,0,87)"
           id="path3312"
           inkscape:connector-curvature="0" /><path
           inkscape:connector-curvature="0"
           style="fill:#000000;fill-opacity:1;stroke:none;stroke-width:0.0140532px;stroke-linecap:butt;stroke-linejoin:miter;stroke-opacity:1"
           d="m 279.86701,92.812206 c -0.73887,-5.49e-4 -2.19048,0.12969 -2.19048,0.12969 l -0.0569,0.534239 c 0,0 0.14574,0.260507 0.23087,0.567149 0.0851,0.306643 0.11965,2.154558 1.9062,2.241038 1.78653,0.08648 2.15916,-2.361505 2.15916,-2.361505 l 0.38646,0.01004 c 0,0 0.33273,2.413692 2.09524,2.379869 1.7625,-0.03382 1.8889,-1.73427 1.93,-2.08876 0.0411,-0.35449 0.27604,-0.682593 0.27604,-0.682593 l -0.0602,-0.567149 c 0,0 -1.32456,-0.158888 -2.03873,-0.145884 -0.71416,0.013 -1.76236,0.240002 -2.22874,0.241319 -0.46638,0.0013 -0.17495,-0.01546 -0.55365,-0.05679 -0.37869,-0.04133 -1.0412,-0.178322 -1.71769,-0.198747 -0.0423,-0.0013 -0.0884,-0.0019 -0.13762,-0.0019 z m 0.0383,0.321384 c 1.16916,0.0021 1.49027,0.463013 1.49027,0.463013 0,0 0.0511,1.011774 -0.23089,1.445443 -0.28198,0.433669 -0.8405,0.887073 -1.37517,0.89339 -0.5347,0.0063 -1.05519,-0.383918 -1.33506,-0.823125 -0.27987,-0.439206 -0.18068,-1.545846 -0.18068,-1.545846 0,0 0.25181,-0.402182 1.51574,-0.431613 0.0395,-9.2e-4 0.0781,-0.0013 0.11579,-0.0013 z m 4.34232,0 c 0.0377,-7.1e-5 0.0763,3.43e-4 0.11579,0.0013 1.26393,0.02943 1.51574,0.431613 1.51574,0.431613 0,0 0.0992,1.10664 -0.18068,1.545846 -0.27987,0.439207 -0.80037,0.829442 -1.33506,0.823125 -0.53468,-0.0063 -1.09322,-0.459721 -1.3752,-0.893391 -0.28198,-0.433668 -0.23086,-1.445443 -0.23086,-1.445443 0,0 0.32111,-0.460959 1.49027,-0.463012 z"
           id="path3313" /><path
           style="opacity:1;fill:#000000;fill-opacity:1;stroke:none;stroke-width:0.00765969;stroke-miterlimit:4;stroke-dasharray:none;stroke-dashoffset:0;stroke-opacity:1"
           d="m 280.30801,94.006063 c -0.13564,-6.47e-4 -0.25917,0.03032 -0.36856,0.07694 a 0.48402336,0.46075305 0 0 0 -0.0902,0.267229 0.48402336,0.46075305 0 0 0 0.31387,0.430735 c 0.0841,0.01632 0.16664,0.02573 0.2425,0.02412 10e-4,-2.8e-5 0.003,-1.54e-4 0.004,-1.92e-4 a 0.48402336,0.46075305 0 0 0 0.40732,-0.454669 0.48402336,0.46075305 0 0 0 -0.0809,-0.254493 c -0.0908,-0.03674 -0.19562,-0.06615 -0.31658,-0.08204 -0.0381,-0.005 -0.0754,-0.0075 -0.11182,-0.0076 z"
           id="path3314"
           inkscape:connector-curvature="0" /><ellipse
           style="opacity:1;fill:#ffffff;fill-opacity:1;stroke:none;stroke-width:0.00531143;stroke-miterlimit:4;stroke-dasharray:none;stroke-dashoffset:0;stroke-opacity:1"
           id="ellipse3314"
           cx="280.26138"
           cy="94.221451"
           rx="0.15558842"
           ry="0.15809791" /><path
           inkscape:connector-curvature="0"
           id="path3315"
           d="m 284.07001,93.974124 c 0.13565,-6.38e-4 0.25918,0.03032 0.36856,0.07693 a 0.4840235,0.46075319 0 0 1 0.0902,0.267229 0.4840235,0.46075319 0 0 1 -0.31387,0.430735 c -0.0841,0.01632 -0.16663,0.02573 -0.24249,0.02412 -0.001,-2.8e-5 -0.003,-1.59e-4 -0.004,-2.12e-4 a 0.4840235,0.46075319 0 0 1 -0.40732,-0.454669 0.4840235,0.46075319 0 0 1 0.0809,-0.254493 c 0.0908,-0.03674 0.19563,-0.06615 0.31658,-0.08204 0.0381,-0.005 0.0754,-0.0075 0.11183,-0.0076 z"
           style="opacity:1;fill:#000000;fill-opacity:1;stroke:none;stroke-width:0.00765969;stroke-miterlimit:4;stroke-dasharray:none;stroke-dashoffset:0;stroke-opacity:1" /><ellipse
           ry="0.15809792"
           rx="0.15558842"
           cy="94.189514"
           cx="-283.94986"
           id="ellipse3315"
           style="opacity:1;fill:#ffffff;fill-opacity:1;stroke:none;stroke-width:0.00531143;stroke-miterlimit:4;stroke-dasharray:none;stroke-dashoffset:0;stroke-opacity:1"
           transform="scale(-1,1)" /></g><text
         xml:space="preserve"
         transform="matrix(0.26458333,0,0,0.26458333,124.34379,69.181627)"
         id="text3316"
         style="font-size:16px;font-family:Gargle;-inkscape-font-specification:Gargle;white-space:pre;shape-inside:url(#rect3833);display:inline;fill:#e6e6e6"><tspan
           x="37.794922"
           y="51.634922"
           id="tspan6"><tspan
             style="font-stretch:condensed;-inkscape-font-specification:'Gargle Condensed';fill:#000000"
             id="tspan3">ProblemDEDE</tspan></tspan></text><path
         style="fill:none;stroke:#000000;stroke-width:0.264999"
         d="M 7,81.630517 H 77.770813"
         id="path34"
         sodipodi:nodetypes="cc" /><text
         xml:space="preserve"
         transform="matrix(0.26458333,0,0,0.26458333,6.7925667,79.185767)"
         id="text36"
         style="font-style:normal;font-variant:normal;font-weight:normal;font-stretch:normal;font-size:16px;font-family:Gargle;-inkscape-font-specification:Gargle;text-align:center;writing-mode:lr-tb;direction:ltr;white-space:pre;shape-inside:url(#rect49);display:inline;fill:#000000;stroke:none;stroke-width:15"
         x="-151.60796"
         y="0"><tspan
           x="274.08185"
           y="13.84"
           id="tspan7">1</tspan></text><path
         style="fill:none;stroke:#000000;stroke-width:0.264999"
         d="M 81.645414,81.630517 H 128.04166"
         id="path49"
         sodipodi:nodetypes="cc" /></g><g
       id="g59"
       transform="translate(160)"><rect
         style="fill:#ffffff;stroke-width:1.00157"
         id="rect50"
         width="160"
         height="90"
         x="0"
         y="0" /><rect
         style="fill:#e6e6e6;stroke-width:0.879191"
         id="rect51"
         width="146"
         height="76"
         x="7"
         y="7" /><text
         xml:space="preserve"
         transform="matrix(0.26458333,0,0,0.26458333,6.7925667,6.4242663)"
         id="text53"
         style="font-style:normal;font-variant:normal;font-weight:normal;font-stretch:normal;font-size:16px;font-family:Gargle;-inkscape-font-specification:Gargle;text-align:start;writing-mode:lr-tb;direction:ltr;white-space:pre;shape-inside:url(#rect59);display:inline;fill:#000000;stroke:none;stroke-width:15"
         x="-208.87996"
         y="0"><tspan
           x="0"
           y="13.84"
           id="tspan8">Deneme amaçlı bir kaç ifade yazıyorum. Yazı boyutu yeterli mi? Test edelim fena </tspan><tspan
           x="0"
           y="33.84"
           id="tspan9">birşey yok gibi görünüyor. İyi gidiyor bakalım nasıl olacak. Yani işte hala aynı </tspan><tspan
           x="0"
           y="53.84"
           id="tspan10">hikayeler adam geçme vs.</tspan></text><g
         id="g56"
         transform="matrix(0.41944288,0,0,0.41944288,13.038688,41.628757)"><circle
           style="opacity:1;fill:#000000;fill-opacity:1;stroke:none;stroke-width:0.635006;stroke-linecap:round;stroke-linejoin:bevel;stroke-miterlimit:4;stroke-dasharray:none;stroke-dashoffset:0;stroke-opacity:1"
           id="circle53"
           cx="282.13547"
           cy="94.785439"
           r="5.9602871" /><path
           style="fill:#ffffff;fill-opacity:1;stroke:none;stroke-width:0.0531143px;stroke-linecap:butt;stroke-linejoin:miter;stroke-opacity:1"
           d="m 1073.0176,9.1972656 c -2.3876,-0.050088 -5.6935,0.4528261 -7.2735,0.9394534 -2.1066,0.648831 -3.416,1.972656 -3.416,1.972656 0,0 -1.9037,-2.156838 -3.2617,-2.2011719 -1.3579,-0.044334 -2.4637,1.5077159 -3.6426,2.1249999 -1.1789,0.617284 -2.32,0.07088 -3.414,1.59375 -1.0939,1.52287 -0.8983,5.345302 -0.834,7.435547 0.021,0.670143 10e-5,1.681261 -0.031,2.736328 -0.7331,0.0047 -1.5903,0.227143 -2.2129,1.091797 -1.3103,1.819725 0,4.07866 0,5.349609 0,1.27095 -0.1768,1.341938 0,2.275391 0.1768,0.93346 0.6111,2.267166 1.252,3.1875 0.2366,0.339779 0.6298,0.701346 1.0312,1.037109 -0.043,0.741639 -0.1841,3.307978 -0.066,4.509766 0.1357,1.387559 0.2266,2.308064 0.6973,3.220703 0.4708,0.912635 0.6406,1.290339 1.9316,2.119141 1.2911,0.828805 4.1791,1.651929 6.0372,1.93164 1.858,0.279723 3.8196,-0.354517 4.9355,-0.05469 1.116,0.29983 1.7168,1.019531 1.7168,1.019531 0,0 1.1751,-1.039368 2.3867,-1.314453 1.2116,-0.275112 3.1834,0.426182 4.7227,0.267578 1.5392,-0.158627 3.2153,-0.623031 4.3984,-1.179687 1.1832,-0.556657 2.0061,-1.037073 2.6836,-1.904297 0.6775,-0.86722 1.207,-3.085938 1.207,-3.085938 l -0.074,-5.505859 c 0.2777,-0.253214 0.5325,-0.512818 0.7031,-0.757813 0.6409,-0.920326 1.0752,-2.25209 1.252,-3.185547 0.1769,-0.933456 0,-1.00639 0,-2.277343 0,-1.270946 1.3103,-3.52988 0,-5.34961 -0.718,-0.997157 -1.7452,-1.14374 -2.5352,-1.080078 0,-0.129698 0,-0.272842 0.012,-0.394531 0.1436,-1.953668 1.5913,-3.517343 1.5937,-4.705078 0,-1.187739 -0.3585,-0.988981 -0.6836,-2.048828 -0.3252,-1.059852 -0.273,-3.34237 -1.2148,-4.324219 -0.9419,-0.981842 -2.493,-0.583444 -3.4903,-1.138672 -0.9972,-0.555224 -0.4524,-1.408236 -2.4277,-2.048828 -0.4938,-0.160148 -1.1866,-0.2391633 -1.9824,-0.2558594 z"
           transform="matrix(0.26458333,0,0,0.26458333,0,87)"
           id="path53"
           inkscape:connector-curvature="0" /><path
           inkscape:connector-curvature="0"
           style="fill:#000000;fill-opacity:1;stroke:none;stroke-width:0.0140532px;stroke-linecap:butt;stroke-linejoin:miter;stroke-opacity:1"
           d="m 279.86701,92.812206 c -0.73887,-5.49e-4 -2.19048,0.12969 -2.19048,0.12969 l -0.0569,0.534239 c 0,0 0.14574,0.260507 0.23087,0.567149 0.0851,0.306643 0.11965,2.154558 1.9062,2.241038 1.78653,0.08648 2.15916,-2.361505 2.15916,-2.361505 l 0.38646,0.01004 c 0,0 0.33273,2.413692 2.09524,2.379869 1.7625,-0.03382 1.8889,-1.73427 1.93,-2.08876 0.0411,-0.35449 0.27604,-0.682593 0.27604,-0.682593 l -0.0602,-0.567149 c 0,0 -1.32456,-0.158888 -2.03873,-0.145884 -0.71416,0.013 -1.76236,0.240002 -2.22874,0.241319 -0.46638,0.0013 -0.17495,-0.01546 -0.55365,-0.05679 -0.37869,-0.04133 -1.0412,-0.178322 -1.71769,-0.198747 -0.0423,-0.0013 -0.0884,-0.0019 -0.13762,-0.0019 z m 0.0383,0.321384 c 1.16916,0.0021 1.49027,0.463013 1.49027,0.463013 0,0 0.0511,1.011774 -0.23089,1.445443 -0.28198,0.433669 -0.8405,0.887073 -1.37517,0.89339 -0.5347,0.0063 -1.05519,-0.383918 -1.33506,-0.823125 -0.27987,-0.439206 -0.18068,-1.545846 -0.18068,-1.545846 0,0 0.25181,-0.402182 1.51574,-0.431613 0.0395,-9.2e-4 0.0781,-0.0013 0.11579,-0.0013 z m 4.34232,0 c 0.0377,-7.1e-5 0.0763,3.43e-4 0.11579,0.0013 1.26393,0.02943 1.51574,0.431613 1.51574,0.431613 0,0 0.0992,1.10664 -0.18068,1.545846 -0.27987,0.439207 -0.80037,0.829442 -1.33506,0.823125 -0.53468,-0.0063 -1.09322,-0.459721 -1.3752,-0.893391 -0.28198,-0.433668 -0.23086,-1.445443 -0.23086,-1.445443 0,0 0.32111,-0.460959 1.49027,-0.463012 z"
           id="path54" /><path
           style="opacity:1;fill:#000000;fill-opacity:1;stroke:none;stroke-width:0.00765969;stroke-miterlimit:4;stroke-dasharray:none;stroke-dashoffset:0;stroke-opacity:1"
           d="m 280.30801,94.006063 c -0.13564,-6.47e-4 -0.25917,0.03032 -0.36856,0.07694 a 0.48402336,0.46075305 0 0 0 -0.0902,0.267229 0.48402336,0.46075305 0 0 0 0.31387,0.430735 c 0.0841,0.01632 0.16664,0.02573 0.2425,0.02412 10e-4,-2.8e-5 0.003,-1.54e-4 0.004,-1.92e-4 a 0.48402336,0.46075305 0 0 0 0.40732,-0.454669 0.48402336,0.46075305 0 0 0 -0.0809,-0.254493 c -0.0908,-0.03674 -0.19562,-0.06615 -0.31658,-0.08204 -0.0381,-0.005 -0.0754,-0.0075 -0.11182,-0.0076 z"
           id="path55"
           inkscape:connector-curvature="0" /><ellipse
           style="opacity:1;fill:#ffffff;fill-opacity:1;stroke:none;stroke-width:0.00531143;stroke-miterlimit:4;stroke-dasharray:none;stroke-dashoffset:0;stroke-opacity:1"
           id="ellipse55"
           cx="280.26138"
           cy="94.221451"
           rx="0.15558842"
           ry="0.15809791" /><path
           inkscape:connector-curvature="0"
           id="path56"
           d="m 284.07001,93.974124 c 0.13565,-6.38e-4 0.25918,0.03032 0.36856,0.07693 a 0.4840235,0.46075319 0 0 1 0.0902,0.267229 0.4840235,0.46075319 0 0 1 -0.31387,0.430735 c -0.0841,0.01632 -0.16663,0.02573 -0.24249,0.02412 -0.001,-2.8e-5 -0.003,-1.59e-4 -0.004,-2.12e-4 a 0.4840235,0.46075319 0 0 1 -0.40732,-0.454669 0.4840235,0.46075319 0 0 1 0.0809,-0.254493 c 0.0908,-0.03674 0.19563,-0.06615 0.31658,-0.08204 0.0381,-0.005 0.0754,-0.0075 0.11183,-0.0076 z"
           style="opacity:1;fill:#000000;fill-opacity:1;stroke:none;stroke-width:0.00765969;stroke-miterlimit:4;stroke-dasharray:none;stroke-dashoffset:0;stroke-opacity:1" /><ellipse
           ry="0.15809792"
           rx="0.15558842"
           cy="94.189514"
           cx="-283.94986"
           id="ellipse56"
           style="opacity:1;fill:#ffffff;fill-opacity:1;stroke:none;stroke-width:0.00531143;stroke-miterlimit:4;stroke-dasharray:none;stroke-dashoffset:0;stroke-opacity:1"
           transform="scale(-1,1)" /></g><text
         xml:space="preserve"
         transform="matrix(0.26458333,0,0,0.26458333,124.34379,69.181627)"
         id="text57"
         style="font-size:16px;font-family:Gargle;-inkscape-font-specification:Gargle;white-space:pre;shape-inside:url(#rect60);display:inline;fill:#e6e6e6"><tspan
           x="37.794922"
           y="51.634922"
           id="tspan12"><tspan
             style="font-stretch:condensed;-inkscape-font-specification:'Gargle Condensed';fill:#000000"
             id="tspan11">ProblemDEDE</tspan></tspan></text><text
         xml:space="preserve"
         transform="matrix(0.26458333,0,0,0.26458333,6.7925667,79.185767)"
         id="text58"
         style="font-style:normal;font-variant:normal;font-weight:normal;font-stretch:normal;font-size:16px;font-family:Gargle;-inkscape-font-specification:Gargle;text-align:start;writing-mode:lr-tb;direction:ltr;white-space:pre;shape-inside:url(#rect61);display:inline;fill:#000000;stroke:none;stroke-width:15"
         x="-208.87996"
         y="0"><tspan
           x="0"
           y="13.84"
           id="tspan14"><tspan
             style="font-weight:bold"
             id="tspan13">Neler Biliyoruz?</tspan></tspan></text><path
         style="fill:none;stroke:#000000;stroke-width:0.264999"
         d="M 38.253744,81.630517 H 77.770813"
         id="path58"
         sodipodi:nodetypes="cc" /><text
         xml:space="preserve"
         transform="matrix(0.26458333,0,0,0.26458333,6.7925667,79.185767)"
         id="text59"
         style="font-style:normal;font-variant:normal;font-weight:normal;font-stretch:normal;font-size:16px;font-family:Gargle;-inkscape-font-specification:Gargle;text-align:center;writing-mode:lr-tb;direction:ltr;white-space:pre;shape-inside:url(#rect62);display:inline;fill:#000000;stroke:none;stroke-width:15"
         x="-151.60796"
         y="0"><tspan
           x="272.53786"
           y="13.84"
           id="tspan15">2</tspan></text><path
         style="fill:none;stroke:#000000;stroke-width:0.264999"
         d="M 81.645414,81.630517 H 128.04166"
         id="path59"
         sodipodi:nodetypes="cc" /></g><g
       id="g72"
       transform="translate(320)"><rect
         style="fill:#ffffff;stroke-width:1.00157"
         id="rect63"
         width="160"
         height="90"
         x="0"
         y="0" /><rect
         style="fill:#e6e6e6;stroke-width:0.879191"
         id="rect64"
         width="146"
         height="76"
         x="7"
         y="7" /><text
         xml:space="preserve"
         transform="matrix(0.26458333,0,0,0.26458333,6.7925667,6.4242663)"
         id="text66"
         style="font-style:normal;font-variant:normal;font-weight:normal;font-stretch:normal;font-size:16px;font-family:Gargle;-inkscape-font-specification:Gargle;text-align:start;writing-mode:lr-tb;direction:ltr;white-space:pre;shape-inside:url(#rect81);display:inline;fill:#000000;stroke:none;stroke-width:15"
         x="-208.87996"
         y="0"><tspan
           x="0"
           y="13.84"
           id="tspan16">Deneme amaçlı bir kaç ifade yazıyorum. Yazı boyutu yeterli mi? Test edelim fena </tspan><tspan
           x="0"
           y="33.84"
           id="tspan17">birşey yok gibi görünüyor. İyi gidiyor bakalım nasıl olacak. Yani işte hala aynı </tspan><tspan
           x="0"
           y="53.84"
           id="tspan18">hikayeler adam geçme vs.</tspan></text><g
         id="g69"
         transform="matrix(0.41944288,0,0,0.41944288,13.038688,41.628757)"><circle
           style="opacity:1;fill:#000000;fill-opacity:1;stroke:none;stroke-width:0.635006;stroke-linecap:round;stroke-linejoin:bevel;stroke-miterlimit:4;stroke-dasharray:none;stroke-dashoffset:0;stroke-opacity:1"
           id="circle66"
           cx="282.13547"
           cy="94.785439"
           r="5.9602871" /><path
           style="fill:#ffffff;fill-opacity:1;stroke:none;stroke-width:0.0531143px;stroke-linecap:butt;stroke-linejoin:miter;stroke-opacity:1"
           d="m 1073.0176,9.1972656 c -2.3876,-0.050088 -5.6935,0.4528261 -7.2735,0.9394534 -2.1066,0.648831 -3.416,1.972656 -3.416,1.972656 0,0 -1.9037,-2.156838 -3.2617,-2.2011719 -1.3579,-0.044334 -2.4637,1.5077159 -3.6426,2.1249999 -1.1789,0.617284 -2.32,0.07088 -3.414,1.59375 -1.0939,1.52287 -0.8983,5.345302 -0.834,7.435547 0.021,0.670143 10e-5,1.681261 -0.031,2.736328 -0.7331,0.0047 -1.5903,0.227143 -2.2129,1.091797 -1.3103,1.819725 0,4.07866 0,5.349609 0,1.27095 -0.1768,1.341938 0,2.275391 0.1768,0.93346 0.6111,2.267166 1.252,3.1875 0.2366,0.339779 0.6298,0.701346 1.0312,1.037109 -0.043,0.741639 -0.1841,3.307978 -0.066,4.509766 0.1357,1.387559 0.2266,2.308064 0.6973,3.220703 0.4708,0.912635 0.6406,1.290339 1.9316,2.119141 1.2911,0.828805 4.1791,1.651929 6.0372,1.93164 1.858,0.279723 3.8196,-0.354517 4.9355,-0.05469 1.116,0.29983 1.7168,1.019531 1.7168,1.019531 0,0 1.1751,-1.039368 2.3867,-1.314453 1.2116,-0.275112 3.1834,0.426182 4.7227,0.267578 1.5392,-0.158627 3.2153,-0.623031 4.3984,-1.179687 1.1832,-0.556657 2.0061,-1.037073 2.6836,-1.904297 0.6775,-0.86722 1.207,-3.085938 1.207,-3.085938 l -0.074,-5.505859 c 0.2777,-0.253214 0.5325,-0.512818 0.7031,-0.757813 0.6409,-0.920326 1.0752,-2.25209 1.252,-3.185547 0.1769,-0.933456 0,-1.00639 0,-2.277343 0,-1.270946 1.3103,-3.52988 0,-5.34961 -0.718,-0.997157 -1.7452,-1.14374 -2.5352,-1.080078 0,-0.129698 0,-0.272842 0.012,-0.394531 0.1436,-1.953668 1.5913,-3.517343 1.5937,-4.705078 0,-1.187739 -0.3585,-0.988981 -0.6836,-2.048828 -0.3252,-1.059852 -0.273,-3.34237 -1.2148,-4.324219 -0.9419,-0.981842 -2.493,-0.583444 -3.4903,-1.138672 -0.9972,-0.555224 -0.4524,-1.408236 -2.4277,-2.048828 -0.4938,-0.160148 -1.1866,-0.2391633 -1.9824,-0.2558594 z"
           transform="matrix(0.26458333,0,0,0.26458333,0,87)"
           id="path66"
           inkscape:connector-curvature="0" /><path
           inkscape:connector-curvature="0"
           style="fill:#000000;fill-opacity:1;stroke:none;stroke-width:0.0140532px;stroke-linecap:butt;stroke-linejoin:miter;stroke-opacity:1"
           d="m 279.86701,92.812206 c -0.73887,-5.49e-4 -2.19048,0.12969 -2.19048,0.12969 l -0.0569,0.534239 c 0,0 0.14574,0.260507 0.23087,0.567149 0.0851,0.306643 0.11965,2.154558 1.9062,2.241038 1.78653,0.08648 2.15916,-2.361505 2.15916,-2.361505 l 0.38646,0.01004 c 0,0 0.33273,2.413692 2.09524,2.379869 1.7625,-0.03382 1.8889,-1.73427 1.93,-2.08876 0.0411,-0.35449 0.27604,-0.682593 0.27604,-0.682593 l -0.0602,-0.567149 c 0,0 -1.32456,-0.158888 -2.03873,-0.145884 -0.71416,0.013 -1.76236,0.240002 -2.22874,0.241319 -0.46638,0.0013 -0.17495,-0.01546 -0.55365,-0.05679 -0.37869,-0.04133 -1.0412,-0.178322 -1.71769,-0.198747 -0.0423,-0.0013 -0.0884,-0.0019 -0.13762,-0.0019 z m 0.0383,0.321384 c 1.16916,0.0021 1.49027,0.463013 1.49027,0.463013 0,0 0.0511,1.011774 -0.23089,1.445443 -0.28198,0.433669 -0.8405,0.887073 -1.37517,0.89339 -0.5347,0.0063 -1.05519,-0.383918 -1.33506,-0.823125 -0.27987,-0.439206 -0.18068,-1.545846 -0.18068,-1.545846 0,0 0.25181,-0.402182 1.51574,-0.431613 0.0395,-9.2e-4 0.0781,-0.0013 0.11579,-0.0013 z m 4.34232,0 c 0.0377,-7.1e-5 0.0763,3.43e-4 0.11579,0.0013 1.26393,0.02943 1.51574,0.431613 1.51574,0.431613 0,0 0.0992,1.10664 -0.18068,1.545846 -0.27987,0.439207 -0.80037,0.829442 -1.33506,0.823125 -0.53468,-0.0063 -1.09322,-0.459721 -1.3752,-0.893391 -0.28198,-0.433668 -0.23086,-1.445443 -0.23086,-1.445443 0,0 0.32111,-0.460959 1.49027,-0.463012 z"
           id="path67" /><path
           style="opacity:1;fill:#000000;fill-opacity:1;stroke:none;stroke-width:0.00765969;stroke-miterlimit:4;stroke-dasharray:none;stroke-dashoffset:0;stroke-opacity:1"
           d="m 280.30801,94.006063 c -0.13564,-6.47e-4 -0.25917,0.03032 -0.36856,0.07694 a 0.48402336,0.46075305 0 0 0 -0.0902,0.267229 0.48402336,0.46075305 0 0 0 0.31387,0.430735 c 0.0841,0.01632 0.16664,0.02573 0.2425,0.02412 10e-4,-2.8e-5 0.003,-1.54e-4 0.004,-1.92e-4 a 0.48402336,0.46075305 0 0 0 0.40732,-0.454669 0.48402336,0.46075305 0 0 0 -0.0809,-0.254493 c -0.0908,-0.03674 -0.19562,-0.06615 -0.31658,-0.08204 -0.0381,-0.005 -0.0754,-0.0075 -0.11182,-0.0076 z"
           id="path68"
           inkscape:connector-curvature="0" /><ellipse
           style="opacity:1;fill:#ffffff;fill-opacity:1;stroke:none;stroke-width:0.00531143;stroke-miterlimit:4;stroke-dasharray:none;stroke-dashoffset:0;stroke-opacity:1"
           id="ellipse68"
           cx="280.26138"
           cy="94.221451"
           rx="0.15558842"
           ry="0.15809791" /><path
           inkscape:connector-curvature="0"
           id="path69"
           d="m 284.07001,93.974124 c 0.13565,-6.38e-4 0.25918,0.03032 0.36856,0.07693 a 0.4840235,0.46075319 0 0 1 0.0902,0.267229 0.4840235,0.46075319 0 0 1 -0.31387,0.430735 c -0.0841,0.01632 -0.16663,0.02573 -0.24249,0.02412 -0.001,-2.8e-5 -0.003,-1.59e-4 -0.004,-2.12e-4 a 0.4840235,0.46075319 0 0 1 -0.40732,-0.454669 0.4840235,0.46075319 0 0 1 0.0809,-0.254493 c 0.0908,-0.03674 0.19563,-0.06615 0.31658,-0.08204 0.0381,-0.005 0.0754,-0.0075 0.11183,-0.0076 z"
           style="opacity:1;fill:#000000;fill-opacity:1;stroke:none;stroke-width:0.00765969;stroke-miterlimit:4;stroke-dasharray:none;stroke-dashoffset:0;stroke-opacity:1" /><ellipse
           ry="0.15809792"
           rx="0.15558842"
           cy="94.189514"
           cx="-283.94986"
           id="ellipse69"
           style="opacity:1;fill:#ffffff;fill-opacity:1;stroke:none;stroke-width:0.00531143;stroke-miterlimit:4;stroke-dasharray:none;stroke-dashoffset:0;stroke-opacity:1"
           transform="scale(-1,1)" /></g><text
         xml:space="preserve"
         transform="matrix(0.26458333,0,0,0.26458333,124.34379,69.181627)"
         id="text70"
         style="font-size:16px;font-family:Gargle;-inkscape-font-specification:Gargle;white-space:pre;shape-inside:url(#rect82);display:inline;fill:#e6e6e6"><tspan
           x="37.794922"
           y="51.634922"
           id="tspan20"><tspan
             style="font-stretch:condensed;-inkscape-font-specification:'Gargle Condensed';fill:#000000"
             id="tspan19">ProblemDEDE</tspan></tspan></text><text
         xml:space="preserve"
         transform="matrix(0.26458333,0,0,0.26458333,6.7925667,79.185767)"
         id="text71"
         style="font-style:normal;font-variant:normal;font-weight:normal;font-stretch:normal;font-size:16px;font-family:Gargle;-inkscape-font-specification:Gargle;text-align:start;writing-mode:lr-tb;direction:ltr;white-space:pre;shape-inside:url(#rect83);display:inline;fill:#000000;stroke:none;stroke-width:15"
         x="-208.87996"
         y="0"><tspan
           x="0"
           y="13.84"
           id="tspan22"><tspan
             style="font-weight:bold"
             id="tspan21">Neler Biliyoruz?</tspan></tspan></text><path
         style="fill:none;stroke:#000000;stroke-width:0.264999"
         d="M 38.253744,81.630517 H 77.770813"
         id="path71"
         sodipodi:nodetypes="cc" /><text
         xml:space="preserve"
         transform="matrix(0.26458333,0,0,0.26458333,6.7925667,79.185767)"
         id="text72"
         style="font-style:normal;font-variant:normal;font-weight:normal;font-stretch:normal;font-size:16px;font-family:Gargle;-inkscape-font-specification:Gargle;text-align:center;writing-mode:lr-tb;direction:ltr;white-space:pre;shape-inside:url(#rect84);display:inline;fill:#000000;stroke:none;stroke-width:15"
         x="-151.60796"
         y="0"><tspan
           x="272.33784"
           y="13.84"
           id="tspan23">3</tspan></text><path
         style="fill:none;stroke:#000000;stroke-width:0.264999"
         d="M 81.645414,81.630517 H 128.04166"
         id="path72"
         sodipodi:nodetypes="cc" /></g><g
       id="g81"
       transform="translate(480)"><rect
         style="fill:#ffffff;stroke-width:1.00157"
         id="rect72"
         width="160"
         height="90"
         x="0"
         y="0" /><rect
         style="fill:#e6e6e6;stroke-width:0.879191"
         id="rect73"
         width="146"
         height="76"
         x="7"
         y="7" /><text
         xml:space="preserve"
         transform="matrix(0.26458333,0,0,0.26458333,6.7925667,6.4242663)"
         id="text75"
         style="font-style:normal;font-variant:normal;font-weight:normal;font-stretch:normal;font-size:16px;font-family:Gargle;-inkscape-font-specification:Gargle;text-align:start;writing-mode:lr-tb;direction:ltr;white-space:pre;shape-inside:url(#rect85);display:inline;fill:#000000;stroke:none;stroke-width:15"
         x="-208.87996"
         y="0"><tspan
           x="0"
           y="13.84"
           id="tspan24">Deneme amaçlı bir kaç ifade yazıyorum. Yazı boyutu yeterli mi? Test edelim fena </tspan><tspan
           x="0"
           y="33.84"
           id="tspan25">birşey yok gibi görünüyor. İyi gidiyor bakalım nasıl olacak. Yani işte hala aynı </tspan><tspan
           x="0"
           y="53.84"
           id="tspan26">hikayeler adam geçme vs.</tspan></text><g
         id="g78"
         transform="matrix(0.41944288,0,0,0.41944288,13.038688,41.628757)"><circle
           style="opacity:1;fill:#000000;fill-opacity:1;stroke:none;stroke-width:0.635006;stroke-linecap:round;stroke-linejoin:bevel;stroke-miterlimit:4;stroke-dasharray:none;stroke-dashoffset:0;stroke-opacity:1"
           id="circle75"
           cx="282.13547"
           cy="94.785439"
           r="5.9602871" /><path
           style="fill:#ffffff;fill-opacity:1;stroke:none;stroke-width:0.0531143px;stroke-linecap:butt;stroke-linejoin:miter;stroke-opacity:1"
           d="m 1073.0176,9.1972656 c -2.3876,-0.050088 -5.6935,0.4528261 -7.2735,0.9394534 -2.1066,0.648831 -3.416,1.972656 -3.416,1.972656 0,0 -1.9037,-2.156838 -3.2617,-2.2011719 -1.3579,-0.044334 -2.4637,1.5077159 -3.6426,2.1249999 -1.1789,0.617284 -2.32,0.07088 -3.414,1.59375 -1.0939,1.52287 -0.8983,5.345302 -0.834,7.435547 0.021,0.670143 10e-5,1.681261 -0.031,2.736328 -0.7331,0.0047 -1.5903,0.227143 -2.2129,1.091797 -1.3103,1.819725 0,4.07866 0,5.349609 0,1.27095 -0.1768,1.341938 0,2.275391 0.1768,0.93346 0.6111,2.267166 1.252,3.1875 0.2366,0.339779 0.6298,0.701346 1.0312,1.037109 -0.043,0.741639 -0.1841,3.307978 -0.066,4.509766 0.1357,1.387559 0.2266,2.308064 0.6973,3.220703 0.4708,0.912635 0.6406,1.290339 1.9316,2.119141 1.2911,0.828805 4.1791,1.651929 6.0372,1.93164 1.858,0.279723 3.8196,-0.354517 4.9355,-0.05469 1.116,0.29983 1.7168,1.019531 1.7168,1.019531 0,0 1.1751,-1.039368 2.3867,-1.314453 1.2116,-0.275112 3.1834,0.426182 4.7227,0.267578 1.5392,-0.158627 3.2153,-0.623031 4.3984,-1.179687 1.1832,-0.556657 2.0061,-1.037073 2.6836,-1.904297 0.6775,-0.86722 1.207,-3.085938 1.207,-3.085938 l -0.074,-5.505859 c 0.2777,-0.253214 0.5325,-0.512818 0.7031,-0.757813 0.6409,-0.920326 1.0752,-2.25209 1.252,-3.185547 0.1769,-0.933456 0,-1.00639 0,-2.277343 0,-1.270946 1.3103,-3.52988 0,-5.34961 -0.718,-0.997157 -1.7452,-1.14374 -2.5352,-1.080078 0,-0.129698 0,-0.272842 0.012,-0.394531 0.1436,-1.953668 1.5913,-3.517343 1.5937,-4.705078 0,-1.187739 -0.3585,-0.988981 -0.6836,-2.048828 -0.3252,-1.059852 -0.273,-3.34237 -1.2148,-4.324219 -0.9419,-0.981842 -2.493,-0.583444 -3.4903,-1.138672 -0.9972,-0.555224 -0.4524,-1.408236 -2.4277,-2.048828 -0.4938,-0.160148 -1.1866,-0.2391633 -1.9824,-0.2558594 z"
           transform="matrix(0.26458333,0,0,0.26458333,0,87)"
           id="path75"
           inkscape:connector-curvature="0" /><path
           inkscape:connector-curvature="0"
           style="fill:#000000;fill-opacity:1;stroke:none;stroke-width:0.0140532px;stroke-linecap:butt;stroke-linejoin:miter;stroke-opacity:1"
           d="m 279.86701,92.812206 c -0.73887,-5.49e-4 -2.19048,0.12969 -2.19048,0.12969 l -0.0569,0.534239 c 0,0 0.14574,0.260507 0.23087,0.567149 0.0851,0.306643 0.11965,2.154558 1.9062,2.241038 1.78653,0.08648 2.15916,-2.361505 2.15916,-2.361505 l 0.38646,0.01004 c 0,0 0.33273,2.413692 2.09524,2.379869 1.7625,-0.03382 1.8889,-1.73427 1.93,-2.08876 0.0411,-0.35449 0.27604,-0.682593 0.27604,-0.682593 l -0.0602,-0.567149 c 0,0 -1.32456,-0.158888 -2.03873,-0.145884 -0.71416,0.013 -1.76236,0.240002 -2.22874,0.241319 -0.46638,0.0013 -0.17495,-0.01546 -0.55365,-0.05679 -0.37869,-0.04133 -1.0412,-0.178322 -1.71769,-0.198747 -0.0423,-0.0013 -0.0884,-0.0019 -0.13762,-0.0019 z m 0.0383,0.321384 c 1.16916,0.0021 1.49027,0.463013 1.49027,0.463013 0,0 0.0511,1.011774 -0.23089,1.445443 -0.28198,0.433669 -0.8405,0.887073 -1.37517,0.89339 -0.5347,0.0063 -1.05519,-0.383918 -1.33506,-0.823125 -0.27987,-0.439206 -0.18068,-1.545846 -0.18068,-1.545846 0,0 0.25181,-0.402182 1.51574,-0.431613 0.0395,-9.2e-4 0.0781,-0.0013 0.11579,-0.0013 z m 4.34232,0 c 0.0377,-7.1e-5 0.0763,3.43e-4 0.11579,0.0013 1.26393,0.02943 1.51574,0.431613 1.51574,0.431613 0,0 0.0992,1.10664 -0.18068,1.545846 -0.27987,0.439207 -0.80037,0.829442 -1.33506,0.823125 -0.53468,-0.0063 -1.09322,-0.459721 -1.3752,-0.893391 -0.28198,-0.433668 -0.23086,-1.445443 -0.23086,-1.445443 0,0 0.32111,-0.460959 1.49027,-0.463012 z"
           id="path76" /><path
           style="opacity:1;fill:#000000;fill-opacity:1;stroke:none;stroke-width:0.00765969;stroke-miterlimit:4;stroke-dasharray:none;stroke-dashoffset:0;stroke-opacity:1"
           d="m 280.30801,94.006063 c -0.13564,-6.47e-4 -0.25917,0.03032 -0.36856,0.07694 a 0.48402336,0.46075305 0 0 0 -0.0902,0.267229 0.48402336,0.46075305 0 0 0 0.31387,0.430735 c 0.0841,0.01632 0.16664,0.02573 0.2425,0.02412 10e-4,-2.8e-5 0.003,-1.54e-4 0.004,-1.92e-4 a 0.48402336,0.46075305 0 0 0 0.40732,-0.454669 0.48402336,0.46075305 0 0 0 -0.0809,-0.254493 c -0.0908,-0.03674 -0.19562,-0.06615 -0.31658,-0.08204 -0.0381,-0.005 -0.0754,-0.0075 -0.11182,-0.0076 z"
           id="path77"
           inkscape:connector-curvature="0" /><ellipse
           style="opacity:1;fill:#ffffff;fill-opacity:1;stroke:none;stroke-width:0.00531143;stroke-miterlimit:4;stroke-dasharray:none;stroke-dashoffset:0;stroke-opacity:1"
           id="ellipse77"
           cx="280.26138"
           cy="94.221451"
           rx="0.15558842"
           ry="0.15809791" /><path
           inkscape:connector-curvature="0"
           id="path78"
           d="m 284.07001,93.974124 c 0.13565,-6.38e-4 0.25918,0.03032 0.36856,0.07693 a 0.4840235,0.46075319 0 0 1 0.0902,0.267229 0.4840235,0.46075319 0 0 1 -0.31387,0.430735 c -0.0841,0.01632 -0.16663,0.02573 -0.24249,0.02412 -0.001,-2.8e-5 -0.003,-1.59e-4 -0.004,-2.12e-4 a 0.4840235,0.46075319 0 0 1 -0.40732,-0.454669 0.4840235,0.46075319 0 0 1 0.0809,-0.254493 c 0.0908,-0.03674 0.19563,-0.06615 0.31658,-0.08204 0.0381,-0.005 0.0754,-0.0075 0.11183,-0.0076 z"
           style="opacity:1;fill:#000000;fill-opacity:1;stroke:none;stroke-width:0.00765969;stroke-miterlimit:4;stroke-dasharray:none;stroke-dashoffset:0;stroke-opacity:1" /><ellipse
           ry="0.15809792"
           rx="0.15558842"
           cy="94.189514"
           cx="-283.94986"
           id="ellipse78"
           style="opacity:1;fill:#ffffff;fill-opacity:1;stroke:none;stroke-width:0.00531143;stroke-miterlimit:4;stroke-dasharray:none;stroke-dashoffset:0;stroke-opacity:1"
           transform="scale(-1,1)" /></g><text
         xml:space="preserve"
         transform="matrix(0.26458333,0,0,0.26458333,124.34379,69.181627)"
         id="text79"
         style="font-size:16px;font-family:Gargle;-inkscape-font-specification:Gargle;white-space:pre;shape-inside:url(#rect86);display:inline;fill:#e6e6e6"><tspan
           x="37.794922"
           y="51.634922"
           id="tspan28"><tspan
             style="font-stretch:condensed;-inkscape-font-specification:'Gargle Condensed';fill:#000000"
             id="tspan27">ProblemDEDE</tspan></tspan></text><text
         xml:space="preserve"
         transform="matrix(0.26458333,0,0,0.26458333,6.7925667,79.185767)"
         id="text80"
         style="font-style:normal;font-variant:normal;font-weight:normal;font-stretch:normal;font-size:16px;font-family:Gargle;-inkscape-font-specification:Gargle;text-align:start;writing-mode:lr-tb;direction:ltr;white-space:pre;shape-inside:url(#rect87);display:inline;fill:#000000;stroke:none;stroke-width:15"
         x="-208.87996"
         y="0"><tspan
           x="0"
           y="13.84"
           id="tspan30"><tspan
             style="font-weight:bold"
             id="tspan29">Neler Biliyoruz?</tspan></tspan></text><path
         style="fill:none;stroke:#000000;stroke-width:0.264999"
         d="M 38.253744,81.630517 H 77.770813"
         id="path80"
         sodipodi:nodetypes="cc" /><text
         xml:space="preserve"
         transform="matrix(0.26458333,0,0,0.26458333,6.7925667,79.185767)"
         id="text81"
         style="font-style:normal;font-variant:normal;font-weight:normal;font-stretch:normal;font-size:16px;font-family:Gargle;-inkscape-font-specification:Gargle;text-align:center;writing-mode:lr-tb;direction:ltr;white-space:pre;shape-inside:url(#rect88);display:inline;fill:#000000;stroke:none;stroke-width:15"
         x="-151.60796"
         y="0"><tspan
           x="272.13785"
           y="13.84"
           id="tspan31">4</tspan></text><path
         style="fill:none;stroke:#000000;stroke-width:0.264999"
         d="M 81.645414,81.630517 H 128.04166"
         id="path81"
         sodipodi:nodetypes="cc" /></g><g
       id="g98"
       transform="translate(640)"><rect
         style="fill:#ffffff;stroke-width:1.00157"
         id="rect89"
         width="160"
         height="90"
         x="0"
         y="0" /><rect
         style="fill:#e6e6e6;stroke-width:0.879191"
         id="rect90"
         width="146"
         height="76"
         x="7"
         y="7" /><text
         xml:space="preserve"
         transform="matrix(0.26458333,0,0,0.26458333,6.7925667,6.4242663)"
         id="text92"
         style="font-style:normal;font-variant:normal;font-weight:normal;font-stretch:normal;font-size:16px;font-family:Gargle;-inkscape-font-specification:Gargle;text-align:start;writing-mode:lr-tb;direction:ltr;white-space:pre;shape-inside:url(#rect98);display:inline;fill:#000000;stroke:none;stroke-width:15"
         x="-208.87996"
         y="0"><tspan
           x="0"
           y="13.84"
           id="tspan32">Deneme amaçlı bir kaç ifade yazıyorum. Yazı boyutu yeterli mi? Test edelim fena </tspan><tspan
           x="0"
           y="33.84"
           id="tspan33">birşey yok gibi görünüyor. İyi gidiyor bakalım nasıl olacak. Yani işte hala aynı </tspan><tspan
           x="0"
           y="53.84"
           id="tspan34">hikayeler adam geçme vs.</tspan></text><g
         id="g95"
         transform="matrix(0.41944288,0,0,0.41944288,13.038688,41.628757)"><circle
           style="opacity:1;fill:#000000;fill-opacity:1;stroke:none;stroke-width:0.635006;stroke-linecap:round;stroke-linejoin:bevel;stroke-miterlimit:4;stroke-dasharray:none;stroke-dashoffset:0;stroke-opacity:1"
           id="circle92"
           cx="282.13547"
           cy="94.785439"
           r="5.9602871" /><path
           style="fill:#ffffff;fill-opacity:1;stroke:none;stroke-width:0.0531143px;stroke-linecap:butt;stroke-linejoin:miter;stroke-opacity:1"
           d="m 1073.0176,9.1972656 c -2.3876,-0.050088 -5.6935,0.4528261 -7.2735,0.9394534 -2.1066,0.648831 -3.416,1.972656 -3.416,1.972656 0,0 -1.9037,-2.156838 -3.2617,-2.2011719 -1.3579,-0.044334 -2.4637,1.5077159 -3.6426,2.1249999 -1.1789,0.617284 -2.32,0.07088 -3.414,1.59375 -1.0939,1.52287 -0.8983,5.345302 -0.834,7.435547 0.021,0.670143 10e-5,1.681261 -0.031,2.736328 -0.7331,0.0047 -1.5903,0.227143 -2.2129,1.091797 -1.3103,1.819725 0,4.07866 0,5.349609 0,1.27095 -0.1768,1.341938 0,2.275391 0.1768,0.93346 0.6111,2.267166 1.252,3.1875 0.2366,0.339779 0.6298,0.701346 1.0312,1.037109 -0.043,0.741639 -0.1841,3.307978 -0.066,4.509766 0.1357,1.387559 0.2266,2.308064 0.6973,3.220703 0.4708,0.912635 0.6406,1.290339 1.9316,2.119141 1.2911,0.828805 4.1791,1.651929 6.0372,1.93164 1.858,0.279723 3.8196,-0.354517 4.9355,-0.05469 1.116,0.29983 1.7168,1.019531 1.7168,1.019531 0,0 1.1751,-1.039368 2.3867,-1.314453 1.2116,-0.275112 3.1834,0.426182 4.7227,0.267578 1.5392,-0.158627 3.2153,-0.623031 4.3984,-1.179687 1.1832,-0.556657 2.0061,-1.037073 2.6836,-1.904297 0.6775,-0.86722 1.207,-3.085938 1.207,-3.085938 l -0.074,-5.505859 c 0.2777,-0.253214 0.5325,-0.512818 0.7031,-0.757813 0.6409,-0.920326 1.0752,-2.25209 1.252,-3.185547 0.1769,-0.933456 0,-1.00639 0,-2.277343 0,-1.270946 1.3103,-3.52988 0,-5.34961 -0.718,-0.997157 -1.7452,-1.14374 -2.5352,-1.080078 0,-0.129698 0,-0.272842 0.012,-0.394531 0.1436,-1.953668 1.5913,-3.517343 1.5937,-4.705078 0,-1.187739 -0.3585,-0.988981 -0.6836,-2.048828 -0.3252,-1.059852 -0.273,-3.34237 -1.2148,-4.324219 -0.9419,-0.981842 -2.493,-0.583444 -3.4903,-1.138672 -0.9972,-0.555224 -0.4524,-1.408236 -2.4277,-2.048828 -0.4938,-0.160148 -1.1866,-0.2391633 -1.9824,-0.2558594 z"
           transform="matrix(0.26458333,0,0,0.26458333,0,87)"
           id="path92"
           inkscape:connector-curvature="0" /><path
           inkscape:connector-curvature="0"
           style="fill:#000000;fill-opacity:1;stroke:none;stroke-width:0.0140532px;stroke-linecap:butt;stroke-linejoin:miter;stroke-opacity:1"
           d="m 279.86701,92.812206 c -0.73887,-5.49e-4 -2.19048,0.12969 -2.19048,0.12969 l -0.0569,0.534239 c 0,0 0.14574,0.260507 0.23087,0.567149 0.0851,0.306643 0.11965,2.154558 1.9062,2.241038 1.78653,0.08648 2.15916,-2.361505 2.15916,-2.361505 l 0.38646,0.01004 c 0,0 0.33273,2.413692 2.09524,2.379869 1.7625,-0.03382 1.8889,-1.73427 1.93,-2.08876 0.0411,-0.35449 0.27604,-0.682593 0.27604,-0.682593 l -0.0602,-0.567149 c 0,0 -1.32456,-0.158888 -2.03873,-0.145884 -0.71416,0.013 -1.76236,0.240002 -2.22874,0.241319 -0.46638,0.0013 -0.17495,-0.01546 -0.55365,-0.05679 -0.37869,-0.04133 -1.0412,-0.178322 -1.71769,-0.198747 -0.0423,-0.0013 -0.0884,-0.0019 -0.13762,-0.0019 z m 0.0383,0.321384 c 1.16916,0.0021 1.49027,0.463013 1.49027,0.463013 0,0 0.0511,1.011774 -0.23089,1.445443 -0.28198,0.433669 -0.8405,0.887073 -1.37517,0.89339 -0.5347,0.0063 -1.05519,-0.383918 -1.33506,-0.823125 -0.27987,-0.439206 -0.18068,-1.545846 -0.18068,-1.545846 0,0 0.25181,-0.402182 1.51574,-0.431613 0.0395,-9.2e-4 0.0781,-0.0013 0.11579,-0.0013 z m 4.34232,0 c 0.0377,-7.1e-5 0.0763,3.43e-4 0.11579,0.0013 1.26393,0.02943 1.51574,0.431613 1.51574,0.431613 0,0 0.0992,1.10664 -0.18068,1.545846 -0.27987,0.439207 -0.80037,0.829442 -1.33506,0.823125 -0.53468,-0.0063 -1.09322,-0.459721 -1.3752,-0.893391 -0.28198,-0.433668 -0.23086,-1.445443 -0.23086,-1.445443 0,0 0.32111,-0.460959 1.49027,-0.463012 z"
           id="path93" /><path
           style="opacity:1;fill:#000000;fill-opacity:1;stroke:none;stroke-width:0.00765969;stroke-miterlimit:4;stroke-dasharray:none;stroke-dashoffset:0;stroke-opacity:1"
           d="m 280.30801,94.006063 c -0.13564,-6.47e-4 -0.25917,0.03032 -0.36856,0.07694 a 0.48402336,0.46075305 0 0 0 -0.0902,0.267229 0.48402336,0.46075305 0 0 0 0.31387,0.430735 c 0.0841,0.01632 0.16664,0.02573 0.2425,0.02412 10e-4,-2.8e-5 0.003,-1.54e-4 0.004,-1.92e-4 a 0.48402336,0.46075305 0 0 0 0.40732,-0.454669 0.48402336,0.46075305 0 0 0 -0.0809,-0.254493 c -0.0908,-0.03674 -0.19562,-0.06615 -0.31658,-0.08204 -0.0381,-0.005 -0.0754,-0.0075 -0.11182,-0.0076 z"
           id="path94"
           inkscape:connector-curvature="0" /><ellipse
           style="opacity:1;fill:#ffffff;fill-opacity:1;stroke:none;stroke-width:0.00531143;stroke-miterlimit:4;stroke-dasharray:none;stroke-dashoffset:0;stroke-opacity:1"
           id="ellipse94"
           cx="280.26138"
           cy="94.221451"
           rx="0.15558842"
           ry="0.15809791" /><path
           inkscape:connector-curvature="0"
           id="path95"
           d="m 284.07001,93.974124 c 0.13565,-6.38e-4 0.25918,0.03032 0.36856,0.07693 a 0.4840235,0.46075319 0 0 1 0.0902,0.267229 0.4840235,0.46075319 0 0 1 -0.31387,0.430735 c -0.0841,0.01632 -0.16663,0.02573 -0.24249,0.02412 -0.001,-2.8e-5 -0.003,-1.59e-4 -0.004,-2.12e-4 a 0.4840235,0.46075319 0 0 1 -0.40732,-0.454669 0.4840235,0.46075319 0 0 1 0.0809,-0.254493 c 0.0908,-0.03674 0.19563,-0.06615 0.31658,-0.08204 0.0381,-0.005 0.0754,-0.0075 0.11183,-0.0076 z"
           style="opacity:1;fill:#000000;fill-opacity:1;stroke:none;stroke-width:0.00765969;stroke-miterlimit:4;stroke-dasharray:none;stroke-dashoffset:0;stroke-opacity:1" /><ellipse
           ry="0.15809792"
           rx="0.15558842"
           cy="94.189514"
           cx="-283.94986"
           id="ellipse95"
           style="opacity:1;fill:#ffffff;fill-opacity:1;stroke:none;stroke-width:0.00531143;stroke-miterlimit:4;stroke-dasharray:none;stroke-dashoffset:0;stroke-opacity:1"
           transform="scale(-1,1)" /></g><text
         xml:space="preserve"
         transform="matrix(0.26458333,0,0,0.26458333,124.34379,69.181627)"
         id="text96"
         style="font-size:16px;font-family:Gargle;-inkscape-font-specification:Gargle;white-space:pre;shape-inside:url(#rect99);display:inline;fill:#e6e6e6"><tspan
           x="37.794922"
           y="51.634922"
           id="tspan36"><tspan
             style="font-stretch:condensed;-inkscape-font-specification:'Gargle Condensed';fill:#000000"
             id="tspan35">ProblemDEDE</tspan></tspan></text><text
         xml:space="preserve"
         transform="matrix(0.26458333,0,0,0.26458333,6.7925667,79.185767)"
         id="text97"
         style="font-style:normal;font-variant:normal;font-weight:normal;font-stretch:normal;font-size:16px;font-family:Gargle;-inkscape-font-specification:Gargle;text-align:start;writing-mode:lr-tb;direction:ltr;white-space:pre;shape-inside:url(#rect100);display:inline;fill:#000000;stroke:none;stroke-width:15"
         x="-208.87996"
         y="0"><tspan
           x="0"
           y="13.84"
           id="tspan38"><tspan
             style="font-weight:bold"
             id="tspan37">Neler Biliyoruz?</tspan></tspan></text><path
         style="fill:none;stroke:#000000;stroke-width:0.264999"
         d="M 38.253744,81.630517 H 77.770813"
         id="path97"
         sodipodi:nodetypes="cc" /><text
         xml:space="preserve"
         transform="matrix(0.26458333,0,0,0.26458333,6.7925667,79.185767)"
         id="text98"
         style="font-style:normal;font-variant:normal;font-weight:normal;font-stretch:normal;font-size:16px;font-family:Gargle;-inkscape-font-specification:Gargle;text-align:center;writing-mode:lr-tb;direction:ltr;white-space:pre;shape-inside:url(#rect101);display:inline;fill:#000000;stroke:none;stroke-width:15"
         x="-151.60796"
         y="0"><tspan
           x="272.30585"
           y="13.84"
           id="tspan39">5</tspan></text><path
         style="fill:none;stroke:#000000;stroke-width:0.264999"
         d="M 81.645414,81.630517 H 128.04166"
         id="path98"
         sodipodi:nodetypes="cc" /></g></g></svg>
