<?xml version="1.0" encoding="UTF-8" standalone="no"?>
<!-- Created with Inkscape (http://www.inkscape.org/) -->

<svg
   version="1.1"
   id="svg1"
   width="64"
   height="64"
   viewBox="0 0 64 63.999997"
   sodipodi:docname="pd_logo.svg"
   inkscape:version="1.3.2 (091e20ef0f, 2023-11-25)"
   xmlns:inkscape="http://www.inkscape.org/namespaces/inkscape"
   xmlns:sodipodi="http://sodipodi.sourceforge.net/DTD/sodipodi-0.dtd"
   xmlns="http://www.w3.org/2000/svg"
   xmlns:svg="http://www.w3.org/2000/svg">
  <defs
     id="defs1" />
  <sodipodi:namedview
     id="namedview1"
     pagecolor="#ffffff"
     bordercolor="#000000"
     borderopacity="0.25"
     inkscape:showpageshadow="2"
     inkscape:pageopacity="0.0"
     inkscape:pagecheckerboard="0"
     inkscape:deskcolor="#d1d1d1"
     inkscape:zoom="4.6748414"
     inkscape:cx="58.932481"
     inkscape:cy="24.064988"
     inkscape:window-width="1920"
     inkscape:window-height="1007"
     inkscape:window-x="0"
     inkscape:window-y="0"
     inkscape:window-maximized="1"
     inkscape:current-layer="g1">
    <inkscape:page
       x="0"
       y="0"
       id="page1"
       width="64"
       height="63.999996"
       margin="0"
       bleed="0" />
  </sodipodi:namedview>
  <g
     id="g1"
     inkscape:groupmode="layer"
     inkscape:label="">
    <g
       id="g389"
       transform="matrix(0.4477585,0,0,0.4477585,-260.55604,-415.8554)">
      <path
         id="path379"
         d="m 540.812,752.504 c 0,28.293 -23.367,51.226 -52.191,51.226 -28.82,0 -52.187,-22.933 -52.187,-51.226 0,-28.289 23.367,-51.223 52.187,-51.223 28.824,0 52.191,22.934 52.191,51.223 z"
         style="fill:#ffffff;fill-opacity:1;fill-rule:nonzero;stroke:none"
         transform="scale(1.3333333)" />
      <path
         id="path380"
         d="m 502.594,717.836 c 1.472,0.512 2.859,1.047 4.191,1.613 -1.367,-0.613 -2.765,-1.152 -4.191,-1.613 z m -1.278,1.605 -2.394,3.696 c -8.469,13.054 -15.656,30.117 -17.945,42.597 -2.059,11.239 -0.645,19.719 4.261,25.551 l 1.953,2.324 4.797,-0.777 c 2.637,-0.426 4.774,-0.883 4.754,-1.016 -0.023,-0.132 -0.953,-1.105 -2.07,-2.164 -3.531,-3.336 -5.02,-6.437 -6.371,-13.265 -1.551,-7.844 -1.426,-12.344 0.554,-19.907 0.583,-2.222 1.051,-3.066 1.77,-3.179 1.031,-0.168 12.434,0.844 13.227,1.172 0.253,0.105 0.593,1 0.753,1.984 0.54,3.313 3.665,9.699 6.11,12.473 3.066,3.48 5.254,4.593 8.191,4.164 4.196,-0.617 7.09,-4.856 8.399,-12.305 0.984,-5.609 -0.157,-14.617 -2.535,-20.019 -2.235,-5.082 -4.536,-8.297 -7.332,-10.262 -2.059,-1.449 -2.446,-1.535 -5.032,-1.113 -1.539,0.25 -3.222,0.632 -3.742,0.855 -0.891,0.383 -0.98,0.156 -1.726,-4.348 -0.434,-2.613 -0.907,-4.832 -1.051,-4.925 -0.149,-0.098 -1.235,-0.481 -2.418,-0.856 z m 1.903,4.141 c 0.054,-0.023 0.093,-0.008 0.105,0.047 0.024,0.101 0.52,2.711 1.102,5.797 0.902,4.812 0.957,5.883 0.383,7.484 -0.938,2.602 -1.559,7.121 -1.438,10.473 0.121,3.226 0.164,3.199 -5.059,2.883 -1.679,-0.106 -3.718,-0.094 -4.531,0.019 -3.07,0.438 -3.246,-0.097 -1.601,-4.906 1.675,-4.899 4.597,-11.274 7.664,-16.719 1.625,-2.883 2.988,-4.918 3.375,-5.078 z m 9.797,9.098 c 0.836,-0.176 1.66,-0.196 2.339,-0.02 1.29,0.336 1.286,0.34 -0.195,0.363 -3.59,0.055 -6.008,3.399 -6.988,9.653 -0.77,4.929 0.344,13.094 2.371,17.386 2.68,5.668 6.293,9.126 9.066,8.672 6.661,-1.089 8.754,-16.734 3.684,-27.519 -2.102,-4.461 -2.02,-4.93 0.18,-1.035 1.586,2.8 1.961,4.035 2.855,9.351 0.942,5.582 0.961,6.465 0.234,9.996 -1.078,5.246 -2.027,7.231 -4.199,8.766 -6,4.246 -12.304,-0.418 -15.726,-11.629 -2.492,-8.152 -1.34,-17.668 2.668,-22.019 0.875,-0.95 2.312,-1.672 3.711,-1.965 z m 1.699,3.761 c 0.336,-0.086 0.687,-0.132 1.055,-0.132 2.23,0.003 3.546,0.972 5.726,4.222 4.359,6.508 5.078,17.981 1.426,22.821 -3.344,4.429 -8.426,1.914 -11.383,-5.641 -3.648,-9.316 -1.883,-19.973 3.176,-21.27 z m 11.711,2.137 c 0.687,1.652 1.308,3.406 1.855,5.289 1.371,4.688 1.989,9.43 1.891,13.981 0.191,-2.836 0.074,-5.68 -0.348,-8.485 -0.609,-3.738 -1.754,-7.371 -3.398,-10.785 z m -20.996,41.363 c -0.473,0.071 -0.914,0.286 -1.176,0.649 -0.754,1.043 -0.258,4.801 0.73,5.508 0.926,0.668 2.227,0.402 2.805,-0.575 0.699,-1.191 -0.047,-2.968 -1.398,-3.32 -1.629,-0.418 -1.606,-1.098 0.035,-0.957 0.98,0.086 1.258,-0.047 1.031,-0.484 -0.34,-0.649 -1.234,-0.934 -2.027,-0.821 z m -5.192,0.989 c -1.566,0.254 -2.328,2.457 -1.191,3.449 0.41,0.355 1.16,0.582 1.668,0.5 0.508,-0.082 0.976,0.183 1.043,0.594 0.09,0.55 -0.215,0.715 -1.156,0.636 -1.2,-0.101 -1.598,0.477 -0.747,1.09 1.372,0.989 3.493,-1.234 3.157,-3.308 -0.336,-2.086 -1.371,-3.188 -2.774,-2.961 z m 10.586,-1.715 c -0.574,0.094 -2.211,1.945 -2.133,2.414 0.028,0.18 0.434,0.234 0.899,0.121 0.652,-0.16 0.93,0.191 1.187,1.5 0.188,0.938 0.395,1.879 0.465,2.09 0.07,0.215 0.328,0.215 0.57,0.004 0.575,-0.496 -0.351,-6.231 -0.988,-6.129 z m -15.219,2.664 c -0.25,0.066 -0.535,0.254 -0.871,0.547 -1.035,0.91 -1.046,2.191 -0.011,1.59 0.539,-0.313 0.757,0.015 1.004,1.531 0.171,1.062 0.476,2.051 0.675,2.195 0.836,0.602 1.102,-0.554 0.7,-3.035 -0.36,-2.191 -0.754,-3.039 -1.497,-2.828 z m 4.817,0.027 c 0.41,-0.066 0.808,0.317 0.898,0.86 0.086,0.546 -0.168,1.035 -0.578,1.101 -0.41,0.067 -0.808,-0.316 -0.894,-0.863 -0.09,-0.543 0.168,-1.031 0.574,-1.098 z m 5.367,1.266 c 0.07,-0.039 0.152,-0.051 0.25,-0.035 0.356,0.054 0.695,0.398 0.754,0.758 0.055,0.359 -0.156,0.789 -0.477,0.957 -0.343,0.179 -0.648,-0.125 -0.754,-0.758 -0.074,-0.477 0.012,-0.813 0.227,-0.922 z"
         style="fill:#002c4b;fill-opacity:1;fill-rule:nonzero;stroke:none"
         transform="scale(1.3333333)" />
      <path
         id="path381"
         d="m 490.688,713.777 c -0.747,0.313 -2.008,2.836 -7.813,15.047 -1.211,2.551 -2.664,5.504 -3.223,6.563 -0.562,1.058 -1.98,3.781 -3.152,6.047 -6.973,13.472 -14.445,19.293 -24.93,19.414 l -2.304,0.027 -0.52,-3.191 c -0.496,-3.055 -0.394,-6.809 0.203,-10.657 -0.742,4.258 -0.781,8.606 -0.117,12.871 3.535,21.797 24.301,36.567 46.383,32.993 8.234,-1.364 15.851,-5.207 21.805,-11.004 -3.079,2.683 -6.743,4.957 -11.184,6.992 -6.375,2.926 -15.648,4.5 -22.309,3.793 -4.886,-0.516 -5.621,-0.906 -6.933,-3.711 -4.25,-9.063 -4.543,-20.781 -0.813,-32.234 1.403,-4.301 2.418,-6.539 13.086,-28.875 3.465,-7.25 6.164,-13.344 5.996,-13.536 -0.168,-0.191 -0.929,-0.355 -1.695,-0.363 -0.77,-0.008 -1.75,-0.098 -2.18,-0.199 -0.097,-0.024 -0.195,-0.024 -0.3,0.023 z m -30.583,25.305 c -0.41,0.074 -0.906,0.203 -1.554,0.379 -3.125,0.84 -4.821,2.617 -5.785,6.066 -1.278,4.563 1.246,9.848 4.972,10.414 2.321,0.356 2.871,0.223 4.985,-1.179 3.339,-2.219 4.914,-7.832 3.23,-11.5 -0.433,-0.938 -1.668,-2.344 -2.742,-3.121 -1.41,-1.016 -1.867,-1.282 -3.106,-1.059 z m -10.296,3.762 c -0.02,0.082 -0.039,0.168 -0.063,0.25 0.02,-0.086 0.043,-0.168 0.063,-0.25 z"
         style="fill:#4d494a;fill-opacity:1;fill-rule:nonzero;stroke:none"
         transform="scale(1.3333333)" />
      <path
         id="path382"
         d="m 480.598,701.668 c -0.442,0.066 -0.989,0.176 -1.7,0.328 -4.871,1.043 -11.91,3.406 -15.168,5.094 -9.343,4.844 -17.21,13.18 -21.597,22.887 -5.305,11.73 -6.754,21.136 -4.977,32.211 0.782,4.859 1.36,6.957 2.782,10.117 3.695,8.203 9.332,14.836 17.703,20.824 9.359,6.699 18.011,9.785 29.547,10.531 11.191,0.723 21.488,-2.363 31.945,-9.586 1.574,-1.086 6.101,-5.304 7.621,-7.105 12.512,-14.813 16.812,-31.227 12.336,-47.071 -3.274,-11.582 -10.574,-22.336 -19.746,-29.089 -3.61,-2.657 -11.578,-6.852 -12.676,-6.672 -0.465,0.078 -3.008,2.09 -5.645,4.472 l -4.8,4.336 1.765,0.602 c 7.633,1.633 14.614,5.398 20.106,10.848 0.023,0.023 0.047,0.046 0.07,0.07 5.91,5.894 9.805,13.457 11.137,21.648 3.539,21.789 -11.567,42.364 -33.731,45.949 -21.718,3.485 -42.222,-10.644 -46.281,-31.878 h -0.137 l -0.515,-3.192 c -0.989,-6.074 0.367,-14.898 3.343,-21.765 5.051,-11.657 16.743,-20.024 30.985,-22.172 10.129,-0.785 5.094,-3.762 -0.113,-10.598 -0.618,-0.773 -0.938,-0.988 -2.254,-0.789 z m -7.192,4.5 c 0.309,0.047 0.399,0.523 0.032,1.394 -0.489,1.161 -0.028,1.907 1.871,3.036 0.644,0.382 0.722,0.652 0.347,1.172 -0.375,0.515 -0.789,0.468 -1.801,-0.215 -1.695,-1.141 -2.035,-1.059 -1.793,0.445 0.379,2.332 -1.085,1.52 -2.179,-1.207 -1.156,-2.891 -0.863,-4.613 0.488,-2.844 0.723,0.942 0.731,0.938 1.672,-0.594 0.519,-0.847 1.055,-1.234 1.363,-1.187 z m -7.672,3.289 c 0.746,-0.113 1.457,-0.066 1.86,0.223 0.691,0.496 0.812,0.875 0.515,1.578 -0.316,0.738 -0.125,1.07 0.946,1.664 0.945,0.523 1.207,0.918 0.898,1.344 -0.308,0.429 -0.918,0.363 -2.07,-0.231 -2.086,-1.074 -2.274,-1.023 -1.848,0.524 0.195,0.703 0.113,1.406 -0.18,1.566 -0.617,0.336 -3.078,-4.074 -2.859,-5.125 0.152,-0.719 1.492,-1.355 2.738,-1.543 z m -7.035,2.445 c 0.403,-0.066 0.77,0.102 0.817,0.371 0.043,0.27 0.496,0.422 1.007,0.34 0.625,-0.101 1.289,0.449 2.036,1.692 1.464,2.437 1.523,3.058 0.371,4.179 -1.801,1.75 -2.782,1.496 -4.789,-1.257 -1.106,-1.516 -1.489,-4.317 -0.582,-4.262 0.308,0.019 0.527,-0.184 0.484,-0.453 -0.047,-0.27 0.25,-0.543 0.656,-0.61 z m 6.664,-1.082 c -0.601,0.098 -0.968,0.485 -0.894,0.938 0.074,0.457 0.449,0.656 0.918,0.48 1.191,-0.437 1.175,-1.609 -0.024,-1.418 z m -6.597,2.078 c -1.18,0.192 -1.032,1.293 0.441,3.235 1.481,1.953 2.445,2.355 2.914,1.219 0.309,-0.743 -2.586,-4.579 -3.355,-4.454 z m 47.101,-5.605 c 0.879,-0.234 1.883,-0.066 2.797,0.641 1.477,1.148 1.598,1.886 0.613,3.878 -1.398,2.833 -5.32,2.376 -5.726,-0.667 -0.262,-1.969 0.851,-3.465 2.316,-3.852 z m -50.051,9.07 c 0.395,-0.043 0.422,0.449 -0.011,1.481 -0.344,0.82 -0.141,1.261 1.16,2.492 0.871,0.824 1.605,1.641 1.633,1.82 0.14,0.864 -1.348,0.364 -2.782,-0.937 -1.168,-1.059 -1.871,-1.344 -2.562,-1.035 -1.457,0.64 -1.277,-0.383 0.367,-2.118 1.035,-1.093 1.801,-1.664 2.195,-1.703 z m 50.575,-7.539 c -0.145,0.039 -0.297,0.098 -0.453,0.176 -0.958,0.484 -1.321,1.785 -0.786,2.801 0.168,0.32 0.836,0.496 1.485,0.39 0.851,-0.136 1.207,-0.55 1.289,-1.503 0.117,-1.391 -0.528,-2.126 -1.535,-1.864 z m 5.992,1.328 c 0.437,-0.007 0.953,0.243 1.722,0.664 2.434,1.34 2.543,3.778 0.184,4.161 -0.598,0.097 -0.824,0.613 -0.754,1.718 0.082,1.352 -0.008,1.485 -0.648,0.922 -0.41,-0.359 -0.664,-1.035 -0.567,-1.5 0.098,-0.469 -0.019,-1.187 -0.261,-1.601 -0.399,-0.684 -0.512,-0.657 -1.274,0.296 -0.625,0.778 -1.004,0.926 -1.488,0.583 -0.481,-0.348 -0.297,-1.028 0.715,-2.672 1.125,-1.825 1.64,-2.555 2.371,-2.571 z m 0.375,1.551 c -0.664,0.109 -0.289,1.445 0.445,1.578 0.356,0.067 0.809,-0.008 1.004,-0.164 0.41,-0.332 -0.805,-1.519 -1.449,-1.414 z m -62.781,10.703 c 0.625,-0.203 1.769,-0.058 3.746,0.434 2.613,0.656 3.297,1.613 1.437,2.015 -1.504,0.329 -2.066,1.016 -1.722,2.114 0.308,0.992 -0.489,1.879 -1.083,1.199 -0.855,-0.988 -3.039,-5.168 -2.843,-5.445 0.105,-0.141 0.254,-0.246 0.465,-0.317 z m 67.625,-8.894 c 0.546,-0.211 2.105,0.8 3.546,2.562 0.61,0.746 0.547,0.824 -0.578,0.731 -0.914,-0.078 -1.593,0.289 -2.48,1.34 -0.672,0.793 -1.496,1.492 -1.832,1.546 -1.11,0.18 -0.852,-1.199 0.484,-2.617 1.012,-1.07 1.207,-1.644 0.848,-2.476 -0.278,-0.645 -0.238,-0.993 0.012,-1.086 z m -69.493,11.734 c 0.317,-0.078 0.461,0.285 0.391,1.106 -0.082,0.984 0.234,1.406 1.539,2.046 0.902,0.446 1.695,1.125 1.758,1.512 0.176,1.078 -1.039,1.028 -2.512,-0.105 -1.047,-0.805 -1.625,-0.907 -2.762,-0.481 -1.613,0.602 -1.585,0.242 0.172,-2.519 0.61,-0.953 1.098,-1.477 1.414,-1.559 z m 75.102,-6.793 c 0.227,-0.023 0.394,-0.012 0.48,0.051 0.293,0.199 0.239,1.164 -0.132,2.289 -0.348,1.07 -0.786,2.398 -0.969,2.953 -0.184,0.559 -0.613,1.059 -0.953,1.113 -0.68,0.11 -0.805,-0.109 -0.934,-1.652 -0.098,-1.145 -1.371,-2.117 -2.277,-1.746 -0.321,0.133 -0.715,0.008 -0.871,-0.27 -0.317,-0.554 4.078,-2.566 5.656,-2.738 z m -78.367,13.578 c 0.625,-0.097 1.504,-0.125 2.64,-0.097 3.043,0.07 4.039,0.793 2.075,1.507 -1.211,0.442 -1.575,1.336 -1.055,2.598 0.812,1.969 -0.414,1.742 -2.797,-0.512 -2.355,-2.226 -2.742,-3.195 -0.863,-3.496 z m 76.41,-11.64 c -0.289,0.047 -0.348,0.285 -0.137,0.527 0.211,0.242 0.481,0.426 0.598,0.406 0.121,-0.019 0.18,-0.258 0.137,-0.527 -0.043,-0.27 -0.313,-0.449 -0.598,-0.406 z m -75.024,12.652 c -0.285,0.047 -0.347,0.281 -0.136,0.523 0.211,0.246 0.48,0.426 0.597,0.407 0.121,-0.02 0.184,-0.254 0.137,-0.524 -0.043,-0.269 -0.312,-0.453 -0.598,-0.406 z m 79.606,-9.871 c 1.836,-0.297 3.019,0.672 3.383,2.766 0.187,1.089 -0.02,1.703 -0.758,2.214 -2.254,1.567 -3.383,1.672 -4.699,0.434 -1.895,-1.785 -0.68,-4.969 2.074,-5.414 z m 0.168,1.551 c -0.41,0.047 -0.832,0.257 -1.168,0.644 -0.848,0.973 -0.52,2.465 0.562,2.531 1.446,0.094 2.559,-0.996 2.2,-2.144 -0.235,-0.754 -0.903,-1.117 -1.594,-1.031 z m 5.055,4.043 c 0.171,-0.008 0.304,0.011 0.382,0.07 0.422,0.309 0.371,0.625 -0.179,1.062 -1.09,0.872 -0.864,1.43 0.633,1.559 0.816,0.07 1.332,0.453 1.433,1.07 0.137,0.848 0,0.918 -1.176,0.598 -1.191,-0.328 -1.48,-0.164 -2.769,1.563 l -1.438,1.929 -0.203,-1.265 c -0.113,-0.692 0.082,-1.59 0.43,-1.989 0.89,-1.023 0.656,-1.781 -0.41,-1.312 -1.137,0.504 -2.5,-0.02 -1.934,-0.739 0.77,-0.972 4.016,-2.484 5.231,-2.546 z m 1.871,6.589 c 2.027,-0.363 2.008,0.622 -0.516,1.625 -1.367,0.547 -2.019,1.102 -2.031,1.735 -0.02,0.832 0.262,0.871 2.523,0.347 2.926,-0.675 4.082,0.126 1.555,1.075 -0.859,0.324 -1.926,0.754 -2.363,0.957 -1.059,0.488 -3.09,-1.024 -3.325,-2.485 -0.25,-1.547 0.426,-2.191 3.165,-3.007 0.371,-0.114 0.703,-0.192 0.992,-0.247 z m -2.715,7.489 2.906,-0.469 c 1.887,-0.309 3.008,-0.27 3.207,0.109 0.215,0.411 -0.414,0.696 -2.191,0.985 -2.426,0.39 -2.489,0.441 -2.266,1.82 0.137,0.832 -0.066,1.59 -0.484,1.836 -0.598,0.348 -0.754,0.023 -0.946,-1.934 z m 2.902,4.98 c 0.524,-0.125 1.164,-0.187 1.922,-0.195 3.238,-0.039 3.246,1.203 0.012,1.73 -1.875,0.301 -2.426,0.575 -2.332,1.145 0.133,0.832 0.699,1.012 2.89,0.926 0.809,-0.035 1.59,0.168 1.735,0.441 0.394,0.754 -0.242,1.027 -2.469,1.051 -2.793,0.035 -3.324,-0.289 -3.633,-2.203 -0.262,-1.614 0.297,-2.528 1.875,-2.895 z m -70.351,38.938 c 0.488,-0.211 0.738,0.176 0.652,1.199 -0.102,1.16 0.004,1.289 0.707,0.879 0.965,-0.559 2.711,-0.399 2.816,0.262 0.043,0.253 -0.566,0.562 -1.355,0.691 -1.281,0.207 -1.43,0.434 -1.441,2.242 -0.02,3.153 -1.2,3.465 -1.692,0.445 -0.277,-1.722 -0.726,-1.96 -1.543,-0.824 -0.359,0.492 -0.668,0.559 -1.117,0.235 -0.453,-0.325 -0.211,-1.086 0.867,-2.758 0.883,-1.36 1.613,-2.164 2.106,-2.371 z m 59.152,-7.813 c 0.391,-0.078 1.027,0.262 2.105,1.086 1.961,1.504 1.969,1.504 2.704,0.371 0.406,-0.625 0.925,-1.168 1.152,-1.203 0.805,-0.133 0.617,1.246 -0.336,2.481 -0.527,0.687 -1.18,1.285 -1.445,1.328 -0.266,0.043 -1.489,-0.664 -2.719,-1.571 -1.629,-1.207 -2.109,-1.82 -1.777,-2.281 0.082,-0.113 0.187,-0.187 0.316,-0.211 z m -2.32,2.602 c 0.851,-0.141 0.726,0.84 -0.211,1.66 -0.485,0.422 -0.836,1.062 -0.778,1.414 0.079,0.488 0.43,0.375 1.422,-0.449 1.555,-1.293 2.664,-0.852 1.227,0.492 -0.539,0.504 -0.934,1.223 -0.871,1.594 0.136,0.859 0.617,0.758 1.675,-0.348 1.024,-1.07 1.598,-1.199 1.723,-0.387 0.051,0.336 -0.594,1.235 -1.433,1.993 -0.84,0.757 -1.629,1.394 -1.754,1.418 -0.34,0.054 -3.914,-3.754 -3.996,-4.258 -0.086,-0.532 2.293,-3.016 2.996,-3.129 z m -48.91,9.527 c 0.472,0.016 0.847,0.137 0.828,0.277 -0.016,0.137 0.015,1.547 0.074,3.133 0.121,3.375 -0.285,3.989 -1.496,2.258 -0.653,-0.934 -1.239,-1.199 -2.305,-1.039 -0.789,0.113 -1.527,0.008 -1.644,-0.238 -0.325,-0.676 3.55,-4.418 4.543,-4.391 z m -0.856,2.246 c -0.059,0.008 -0.121,0.039 -0.184,0.09 -0.246,0.215 -0.289,0.574 -0.089,0.801 0.531,0.613 0.804,0.437 0.664,-0.422 -0.051,-0.316 -0.211,-0.492 -0.391,-0.469 z m 43.898,-6.687 c 0.793,-0.203 1.438,0.066 1.563,0.812 0.082,0.489 0.566,1.039 1.078,1.227 1.074,0.39 1.524,2.222 0.797,3.23 -0.742,1.032 -3.703,1.379 -3.856,0.453 -0.082,-0.523 0.282,-0.773 1.2,-0.82 0.726,-0.039 1.371,-0.348 1.433,-0.687 0.071,-0.399 -0.64,-0.551 -2.031,-0.426 -1.766,0.156 -2.199,0.008 -2.469,-0.856 -0.218,-0.695 0.043,-1.386 0.774,-2.054 0.508,-0.461 1.035,-0.754 1.511,-0.879 z m -38.097,6.527 c 1.148,-0.32 4.168,0.66 4.312,1.566 0.207,1.258 -0.222,2.332 -0.976,2.458 -0.567,0.089 -0.617,0.46 -0.211,1.542 0.726,1.942 -0.633,2.168 -1.399,0.231 -0.707,-1.781 -1.597,-2.188 -1.73,-0.781 -0.059,0.59 -0.305,1.105 -0.555,1.144 -0.847,0.141 -1.152,-1.14 -0.636,-2.695 0.285,-0.859 0.484,-1.793 0.437,-2.078 -0.043,-0.281 0.133,-0.809 0.391,-1.168 0.074,-0.102 0.203,-0.172 0.367,-0.219 z m 38.262,-5.144 c -0.375,0.054 -0.77,0.261 -0.899,0.566 -0.105,0.258 -0.047,0.57 0.133,0.699 0.445,0.32 1.633,-0.414 1.547,-0.953 -0.047,-0.281 -0.403,-0.371 -0.778,-0.312 z m -36.922,6.589 c -0.192,0.008 -0.348,0.055 -0.418,0.153 -0.106,0.144 -0.004,0.472 0.218,0.734 0.497,0.566 1.852,0.414 1.754,-0.199 -0.058,-0.371 -0.98,-0.711 -1.554,-0.688 z m 31.324,-4.629 c 0.383,-0.011 0.641,0.176 1.027,0.555 0.469,0.465 0.813,1.297 0.762,1.852 -0.059,0.609 0.391,1.379 1.137,1.953 l 1.23,0.945 -1.031,0.168 c -0.57,0.094 -1.418,-0.109 -1.891,-0.449 -1.343,-0.969 -2.086,-0.598 -1.504,0.746 0.399,0.934 0.321,1.207 -0.382,1.32 -0.641,0.106 -1.157,-0.449 -1.844,-1.972 -1.414,-3.153 -1.367,-3.446 0.746,-4.469 0.871,-0.422 1.371,-0.637 1.75,-0.649 z m -7.699,1.305 c 0.289,-0.058 0.468,0.11 0.531,0.496 0.086,0.516 -0.301,0.86 -1.106,0.989 -1.168,0.191 -1.199,0.304 -0.601,2.238 0.894,2.887 1.109,3.215 2.004,3.07 0.656,-0.105 0.695,-0.578 0.219,-2.633 -0.606,-2.617 0.046,-3.976 0.945,-1.98 1.019,2.265 1.121,4.691 0.222,5.379 -1.929,1.468 -3.691,0.718 -4.671,-1.989 -0.641,-1.777 -0.137,-4.765 0.828,-4.921 0.316,-0.051 0.906,-0.282 1.304,-0.516 0.122,-0.07 0.227,-0.113 0.325,-0.133 z m -15.981,3.121 c 0.602,0.098 1.25,1.418 2.285,4.649 0.489,1.527 0.547,2.293 0.188,2.351 -0.297,0.047 -0.723,-0.23 -0.945,-0.617 -0.688,-1.176 -2.282,-1.48 -3.266,-0.617 -0.481,0.418 -1.051,0.633 -1.266,0.48 -0.527,-0.382 2.344,-6.355 3.004,-6.246 z m 23.031,-2.703 c -0.644,0.133 -1.382,0.676 -1.312,1.106 0.094,0.582 1.918,0.269 2.184,-0.375 0.113,-0.274 -0.02,-0.594 -0.293,-0.707 -0.161,-0.067 -0.364,-0.067 -0.579,-0.024 z M 494.5,794.32 c 0.84,-0.019 1.621,1.938 1.504,5.075 -0.078,2.179 -0.844,2.113 -1.266,-0.11 l -0.347,-1.828 -0.254,1.699 c -0.301,1.996 -1.563,2.254 -2.34,0.477 l -0.512,-1.172 v 1.258 c 0.004,2.332 -1.015,1.195 -1.476,-1.645 -0.434,-2.679 -0.395,-2.832 0.765,-3.019 0.965,-0.157 1.332,0.101 1.754,1.226 0.477,1.266 0.563,1.309 0.777,0.375 0.368,-1.601 0.891,-2.324 1.395,-2.336 z m -10.105,2.992 c -0.27,0.043 -0.454,0.301 -0.411,0.571 0.043,0.269 0.301,0.453 0.571,0.41 0.269,-0.043 0.457,-0.301 0.41,-0.57 -0.043,-0.27 -0.301,-0.453 -0.57,-0.411 z"
         style="fill:#1576a9;fill-opacity:1;fill-rule:nonzero;stroke:none"
         transform="scale(1.3333333)" />
      <path
         id="path383"
         d="m 500.316,697.816 c -0.14,0.008 -0.363,0.2 -0.75,0.575 -3.589,3.488 -4.589,6.437 -2.464,7.254 1.511,0.578 1.914,0.308 0.828,-0.555 -0.801,-0.641 -0.926,-1.028 -0.621,-1.914 0.211,-0.61 0.605,-1.145 0.879,-1.192 0.785,-0.125 2.527,-2.796 2.386,-3.664 -0.054,-0.343 -0.117,-0.515 -0.258,-0.504 z"
         style="fill:#d69c4b;fill-opacity:1;fill-rule:nonzero;stroke:none"
         transform="scale(1.3333333)" />
      <path
         id="path384"
         d="m 491.184,706.641 c -1.473,0.238 -1.27,3.632 0.277,4.593 0.539,0.336 1.332,0.676 1.762,0.758 1.179,0.231 1.39,0.18 2.629,-0.648 0.988,-0.656 1.824,-2.555 1.257,-2.84 -1.394,-0.699 -5.379,-1.949 -5.925,-1.863 z"
         style="fill:#d92820;fill-opacity:1;fill-rule:nonzero;stroke:none"
         transform="scale(1.3333333)" />
      <path
         id="path385"
         d="m 494.965,696.973 c -2.149,0.347 -2.653,0.629 -3.34,1.867 -0.875,1.574 -0.758,3.515 0.32,5.383 1.063,1.828 2.239,1.297 1.891,-0.86 -0.246,-1.511 0.019,-2.187 1.684,-4.297 l 1.976,-2.504 z"
         style="fill:#c33834;fill-opacity:1;fill-rule:nonzero;stroke:none"
         transform="scale(1.3333333)" />
    </g>
  </g>
</svg>
