<?xml version="1.0" encoding="UTF-8" standalone="no"?>
<!-- Created with Inkscape (http://www.inkscape.org/) -->

<svg
   width="290"
   height="50"
   viewBox="0 0 76.729167 13.229167"
   version="1.1"
   id="svg1"
   xml:space="preserve"
   inkscape:version="1.4 (e7c3feb100, 2024-10-09)"
   sodipodi:docname="s_1.svg"
   xmlns:inkscape="http://www.inkscape.org/namespaces/inkscape"
   xmlns:sodipodi="http://sodipodi.sourceforge.net/DTD/sodipodi-0.dtd"
   xmlns="http://www.w3.org/2000/svg"
   xmlns:svg="http://www.w3.org/2000/svg"><sodipodi:namedview
     id="namedview1"
     pagecolor="#ffffff"
     bordercolor="#000000"
     borderopacity="0.25"
     inkscape:showpageshadow="2"
     inkscape:pageopacity="0.0"
     inkscape:pagecheckerboard="0"
     inkscape:deskcolor="#d1d1d1"
     inkscape:document-units="mm"
     inkscape:zoom="2.4394665"
     inkscape:cx="283.05369"
     inkscape:cy="57.389597"
     inkscape:window-width="1870"
     inkscape:window-height="1054"
     inkscape:window-x="0"
     inkscape:window-y="0"
     inkscape:window-maximized="1"
     inkscape:current-layer="layer1" /><defs
     id="defs1"><rect
       x="19.102777"
       y="68.280945"
       width="35.021755"
       height="31.743317"
       id="rect4" /><marker
       style="overflow:visible"
       id="Triangle"
       refX="0"
       refY="0"
       orient="auto-start-reverse"
       inkscape:stockid="Triangle arrow"
       markerWidth="1"
       markerHeight="1"
       viewBox="0 0 1 1"
       inkscape:isstock="true"
       inkscape:collect="always"
       preserveAspectRatio="xMidYMid"><path
         transform="scale(0.5)"
         style="fill:context-stroke;fill-rule:evenodd;stroke:context-stroke;stroke-width:1pt"
         d="M 5.77,0 -2.88,5 V -5 Z"
         id="path135" /></marker><rect
       x="293.1767"
       y="529.15662"
       width="119.48974"
       height="52.215397"
       id="rect44" /><rect
       x="293.1767"
       y="529.15662"
       width="119.48974"
       height="52.215397"
       id="rect45" /><rect
       x="293.1767"
       y="529.15662"
       width="119.48974"
       height="52.215397"
       id="rect46" /><rect
       x="19.102777"
       y="68.280945"
       width="35.021755"
       height="31.743317"
       id="rect5" /><rect
       x="19.102777"
       y="68.280945"
       width="35.021755"
       height="31.743317"
       id="rect6" /><rect
       x="19.102777"
       y="68.280945"
       width="35.021755"
       height="31.743317"
       id="rect7" /></defs><g
     inkscape:label="Katman 1"
     inkscape:groupmode="layer"
     id="layer1"><g
       id="g7"
       transform="translate(0.35956536,-12.20833)"><path
         style="fill:none;stroke:#000000;stroke-width:0.264999;marker-end:url(#Triangle)"
         d="M 7.6059085,17.066 H 68.176597"
         id="path1" /><circle
         style="fill:#a02c2c;fill-opacity:1;stroke:none;stroke-width:0.264999"
         id="path2"
         cx="8.1068039"
         cy="17.066"
         r="1" /><circle
         style="fill:#a02c2c;fill-opacity:1;stroke:none;stroke-width:0.264999"
         id="circle2"
         cx="23.981804"
         cy="17.066"
         r="1" /><circle
         style="fill:#a02c2c;fill-opacity:1;stroke:none;stroke-width:0.264999"
         id="circle3"
         cx="39.856804"
         cy="17.066"
         r="1" /><circle
         style="fill:#a02c2c;fill-opacity:1;stroke:none;stroke-width:0.264999"
         id="circle4"
         cx="55.731808"
         cy="17.066"
         r="1" /><path
         style="font-size:16px;line-height:0.85;font-family:Arimo;-inkscape-font-specification:Arimo;text-align:center;text-anchor:middle;white-space:pre;stroke-width:1.00157"
         d="m 39.918945,79.493321 -4.398437,-5.3125 -1.4375,1.09375 v 4.21875 H 32.59082 V 68.485508 h 1.492188 v 5.515625 l 5.304687,-5.515625 h 1.757813 l -4.6875,4.78125 5.3125,6.226563 z"
         id="text4"
         transform="matrix(0.26458333,0,0,0.26458333,-1.73058,0.54721904)"
         aria-label="K" /><path
         style="font-size:16px;line-height:0.85;font-family:Arimo;-inkscape-font-specification:Arimo;text-align:center;text-anchor:middle;white-space:pre;stroke-width:1.00157"
         d="M 33.477539,79.493321 V 68.485508 h 1.492188 v 9.789063 h 5.5625 v 1.21875 z"
         id="text5"
         transform="matrix(0.26458333,0,0,0.26458333,14.190929,0.54721904)"
         aria-label="L" /><path
         style="font-size:16px;line-height:0.85;font-family:Arimo;-inkscape-font-specification:Arimo;text-align:center;text-anchor:middle;white-space:pre;stroke-width:1.00157"
         d="m 40.62207,79.493321 v -7.34375 q 0,-1.21875 0.07031,-2.34375 -0.382813,1.398437 -0.6875,2.1875 l -2.84375,7.5 h -1.046875 l -2.882813,-7.5 -0.4375,-1.328125 -0.257812,-0.859375 0.02344,0.867187 0.03125,1.476563 v 7.34375 H 31.262695 V 68.485508 h 1.960938 l 2.929687,7.632813 q 0.15625,0.460937 0.296875,0.992187 0.148438,0.523438 0.195313,0.757813 0.0625,-0.3125 0.257812,-0.945313 0.203125,-0.640625 0.273438,-0.804687 l 2.875,-7.632813 h 1.914062 v 11.007813 z"
         id="text6"
         transform="matrix(0.26458333,0,0,0.26458333,30.019421,0.54721904)"
         aria-label="M" /><path
         style="font-size:16px;line-height:0.85;font-family:Arimo;-inkscape-font-specification:Arimo;text-align:center;text-anchor:middle;white-space:pre;stroke-width:1.00157"
         d="m 39.290039,79.493321 -5.890625,-9.375 0.03906,0.757812 0.03906,1.304688 v 7.3125 h -1.32812 V 68.485508 h 1.734375 l 5.953125,9.4375 q -0.09375,-1.53125 -0.09375,-2.21875 v -7.21875 h 1.34375 v 11.007813 z"
         id="text7"
         transform="matrix(0.26458333,0,0,0.26458333,46.225609,0.54721904)"
         aria-label="N" /></g></g></svg>
