<?xml version="1.0" encoding="UTF-8" standalone="no"?>
<!-- Created with Inkscape (http://www.inkscape.org/) -->

<svg
   width="459.44699"
   height="382.04901"
   viewBox="0 0 121.56201 101.0838"
   version="1.1"
   id="svg1"
   xml:space="preserve"
   inkscape:version="1.4 (e7c3feb100, 2024-10-09)"
   sodipodi:docname="s_11.svg"
   xmlns:inkscape="http://www.inkscape.org/namespaces/inkscape"
   xmlns:sodipodi="http://sodipodi.sourceforge.net/DTD/sodipodi-0.dtd"
   xmlns="http://www.w3.org/2000/svg"
   xmlns:svg="http://www.w3.org/2000/svg"><sodipodi:namedview
     id="namedview1"
     pagecolor="#ffffff"
     bordercolor="#000000"
     borderopacity="0.25"
     inkscape:showpageshadow="2"
     inkscape:pageopacity="0.0"
     inkscape:pagecheckerboard="0"
     inkscape:deskcolor="#d1d1d1"
     inkscape:document-units="mm"
     inkscape:zoom="0.91217813"
     inkscape:cx="380.9563"
     inkscape:cy="255.43257"
     inkscape:window-width="1336"
     inkscape:window-height="1032"
     inkscape:window-x="0"
     inkscape:window-y="0"
     inkscape:window-maximized="0"
     inkscape:current-layer="layer1" /><defs
     id="defs1"><rect
       x="254.27103"
       y="-189.67244"
       width="224.72061"
       height="173.17918"
       id="rect24" /><rect
       x="0"
       y="49.188309"
       width="416.01639"
       height="206.75764"
       id="rect1" /><rect
       x="218.24092"
       y="124.96783"
       width="156.66257"
       height="107.58867"
       id="rect3" /><rect
       x="32.884464"
       y="259.70294"
       width="188.03168"
       height="158.51997"
       id="rect11" /><rect
       x="-250.24031"
       y="-100.90335"
       width="753.41168"
       height="707.66882"
       id="rect80" /><rect
       x="4.8075223"
       y="-21.468073"
       width="36.30508"
       height="36.139305"
       id="rect107" /><rect
       x="19.102777"
       y="68.280945"
       width="35.021755"
       height="31.743317"
       id="rect4" /><rect
       x="293.1767"
       y="529.15662"
       width="119.48974"
       height="52.215397"
       id="rect44" /><rect
       x="293.1767"
       y="529.15662"
       width="119.48974"
       height="52.215397"
       id="rect45" /><rect
       x="293.1767"
       y="529.15662"
       width="119.48974"
       height="52.215397"
       id="rect46" /><rect
       x="19.102777"
       y="68.280945"
       width="35.021755"
       height="31.743317"
       id="rect5" /><rect
       x="19.102777"
       y="68.280945"
       width="35.021755"
       height="31.743317"
       id="rect6" /><rect
       x="19.102777"
       y="68.280945"
       width="35.021755"
       height="31.743317"
       id="rect7" /><rect
       x="4.8075223"
       y="-21.468073"
       width="36.30508"
       height="36.139305"
       id="rect108" /><rect
       x="4.8075223"
       y="-21.468073"
       width="36.30508"
       height="36.139305"
       id="rect109" /><rect
       x="4.8075223"
       y="-21.468073"
       width="36.30508"
       height="36.139305"
       id="rect110" /><rect
       x="4.8075223"
       y="-21.468073"
       width="36.30508"
       height="36.139305"
       id="rect111" /><rect
       x="4.8075223"
       y="-21.468073"
       width="36.30508"
       height="36.139305"
       id="rect112" /><rect
       x="-250.24031"
       y="-100.90335"
       width="753.41168"
       height="707.66882"
       id="rect81" /><rect
       x="-250.24031"
       y="-100.90335"
       width="753.41168"
       height="707.66882"
       id="rect82" /><rect
       x="-250.24031"
       y="-100.90335"
       width="753.41168"
       height="707.66882"
       id="rect83" /><rect
       x="32.884464"
       y="259.70294"
       width="188.03168"
       height="158.51997"
       id="rect12" /><rect
       x="32.884464"
       y="259.70294"
       width="188.03168"
       height="158.51997"
       id="rect13" /><rect
       x="32.884464"
       y="259.70294"
       width="188.03168"
       height="158.51997"
       id="rect14" /><rect
       x="32.884464"
       y="259.70294"
       width="188.03168"
       height="158.51997"
       id="rect15" /><rect
       x="32.884464"
       y="259.70294"
       width="188.03168"
       height="158.51997"
       id="rect16" /><rect
       x="32.884464"
       y="259.70294"
       width="188.03168"
       height="158.51997"
       id="rect17" /><rect
       x="32.884464"
       y="259.70294"
       width="188.03168"
       height="158.51997"
       id="rect18" /><rect
       x="32.884464"
       y="259.70294"
       width="188.03168"
       height="158.51997"
       id="rect19" /><rect
       x="32.884464"
       y="259.70294"
       width="188.03168"
       height="158.51997"
       id="rect20" /><rect
       x="218.24092"
       y="124.96783"
       width="156.66257"
       height="107.58867"
       id="rect8" /><rect
       x="218.24092"
       y="124.96783"
       width="156.66257"
       height="107.58867"
       id="rect9" /><rect
       x="218.24092"
       y="124.96783"
       width="156.66257"
       height="107.58867"
       id="rect10" /><rect
       x="218.24092"
       y="124.96783"
       width="156.66257"
       height="107.58867"
       id="rect21" /><rect
       x="218.24092"
       y="124.96783"
       width="156.66257"
       height="107.58867"
       id="rect22" /><rect
       x="0"
       y="49.188309"
       width="416.01639"
       height="206.75764"
       id="rect2" /><rect
       x="0"
       y="49.188309"
       width="416.01639"
       height="206.75764"
       id="rect23" /><rect
       x="254.27103"
       y="-189.67244"
       width="224.72061"
       height="173.17918"
       id="rect25" /><rect
       x="254.27103"
       y="-189.67244"
       width="224.72061"
       height="173.17918"
       id="rect26" /><rect
       x="254.27103"
       y="-189.67244"
       width="224.72061"
       height="173.17918"
       id="rect27" /><rect
       x="254.27103"
       y="-189.67244"
       width="224.72061"
       height="173.17918"
       id="rect28" /><rect
       x="254.27103"
       y="-189.67244"
       width="224.72061"
       height="173.17918"
       id="rect29" /></defs><g
     inkscape:label="Katman 1"
     inkscape:groupmode="layer"
     id="layer1"><g
       id="g29"
       transform="matrix(0.9999987,0,0,0.9999987,-1.145809,41.0612)"><path
         style="fill:none;stroke:#000000;stroke-width:0.7"
         d="M 6.851048,50.083524 H 114.48778 L 89.432706,-31.318845 Z"
         id="path1" /><path
         style="fill:none;stroke:#000000;stroke-width:0.7"
         d="M 60.669413,50.083524 101.82147,8.9314694 H 48.599277"
         id="path2" /><circle
         style="fill:#000000;stroke:none;stroke-width:0.7"
         id="path3"
         cx="89.354729"
         cy="-31.278717"
         r="2" /><circle
         style="fill:#000000;stroke:none;stroke-width:0.7"
         id="circle3"
         cx="102.05474"
         cy="8.9379482"
         r="2" /><circle
         style="fill:#000000;stroke:none;stroke-width:0.7"
         id="circle4"
         cx="49.138088"
         cy="8.9379482"
         r="2" /><circle
         style="fill:#000000;stroke:none;stroke-width:0.7"
         id="circle5"
         cx="6.8047528"
         cy="50.212952"
         r="2" /><circle
         style="fill:#000000;stroke:none;stroke-width:0.7"
         id="circle6"
         cx="61.8381"
         cy="50.212952"
         r="2" /><circle
         style="fill:#000000;stroke:none;stroke-width:0.7"
         id="circle7"
         cx="114.22559"
         cy="50.212952"
         r="2" /><path
         d="m 375.45475,-163.5104 -2.9349,-7.51041 h -11.70311 l -2.95313,7.51041 h -3.60937 l 10.48176,-25.68487 h 3.95573 l 10.3177,25.68487 z m -8.78646,-23.05987 -0.16406,0.51041 q -0.45573,1.51302 -1.34896,3.88281 l -3.28124,8.4401 h 9.60676 l -3.29948,-8.47656 q -0.51041,-1.25781 -1.02083,-2.84375 z"
         id="text7"
         style="font-size:37.3333px;line-height:0.85;font-family:Arimo;-inkscape-font-specification:Arimo;text-align:center;text-anchor:middle;white-space:pre;stroke-width:2.64567"
         transform="matrix(0.26458333,0,0,0.26458333,-7.6499433,8.9966612)"
         aria-label="A" /><path
         d="m 378.32584,-176.61716 q 0,3.97396 -1.54948,6.96354 -1.54948,2.97135 -4.39323,4.55729 -2.84374,1.58593 -6.56249,1.58593 h -9.60676 v -25.68487 h 8.49478 q 6.52604,0 10.06249,3.28124 3.55469,3.26302 3.55469,9.29687 z m -3.5,0 q 0,-4.77604 -2.625,-7.27343 -2.60677,-2.51562 -7.5651,-2.51562 h -4.9401 v 20.10675 h 5.72396 q 2.82552,0 4.95833,-1.23958 2.15104,-1.23958 3.29947,-3.57291 1.14844,-2.33334 1.14844,-5.50521 z"
         id="text25"
         style="font-size:37.3333px;line-height:0.85;font-family:Arimo;-inkscape-font-specification:Arimo;text-align:center;text-anchor:middle;white-space:pre;stroke-width:2.64567"
         transform="matrix(0.26458333,0,0,0.26458333,11.929222,55.034166)"
         aria-label="D" /><path
         d="m 367.58887,-186.73434 q -4.26562,0 -6.63541,2.7526 -2.36979,2.73438 -2.36979,7.51042 0,4.72135 2.46093,7.60155 2.47917,2.86198 6.6901,2.86198 5.39583,0 8.11197,-5.34114 l 2.84375,1.42187 q -1.58594,3.31771 -4.46614,5.04948 -2.86198,1.73176 -6.65364,1.73176 -3.88281,0 -6.72656,-1.60416 -2.82552,-1.6224 -4.32031,-4.61198 -1.47656,-3.00781 -1.47656,-7.10936 0,-6.14323 3.31771,-9.625 3.3177,-3.48176 9.18749,-3.48176 4.10156,0 6.85416,1.60416 2.7526,1.60417 4.04687,4.75781 l -3.29948,1.09375 q -0.89322,-2.24219 -2.8802,-3.42708 -1.96875,-1.1849 -4.68489,-1.1849 z"
         id="text26"
         style="font-size:37.3333px;line-height:0.85;font-family:Arimo;-inkscape-font-specification:Arimo;text-align:center;text-anchor:middle;white-space:pre;stroke-width:2.64567"
         transform="matrix(0.26458333,0,0,0.26458333,22.512556,103.18834)"
         aria-label="C" /><path
         d="m 361.77377,-186.35152 v 9.55207 h 14.32811 v 2.88021 h -14.32811 v 10.40884 H 358.292 v -25.68487 h 18.24738 v 2.84375 z"
         id="text27"
         style="font-size:37.3333px;line-height:0.85;font-family:Arimo;-inkscape-font-specification:Arimo;text-align:center;text-anchor:middle;white-space:pre;stroke-width:2.64567"
         transform="matrix(0.26458333,0,0,0.26458333,-35.166612,103.18834)"
         aria-label="F" /><path
         d="m 377.1136,-170.74737 q 0,3.42708 -2.4974,5.34114 -2.49739,1.89583 -6.9453,1.89583 h -10.42708 v -25.68487 h 9.33333 q 9.04166,0 9.04166,6.23437 0,2.27864 -1.27604,3.82812 -1.27604,1.54948 -3.60938,2.07812 3.0625,0.36459 4.72136,2.0599 1.65885,1.67708 1.65885,4.24739 z m -4.99479,-11.79426 q 0,-2.07813 -1.42187,-2.97135 -1.42188,-0.89323 -4.11979,-0.89323 h -5.85156 v 8.1302 h 5.85156 q 2.78906,0 4.15624,-1.03906 1.38542,-1.05729 1.38542,-3.22656 z m 1.47656,11.52082 q 0,-4.53906 -6.3802,-4.53906 h -6.48958 v 9.26041 h 6.76302 q 3.1901,0 4.64843,-1.18489 1.45833,-1.1849 1.45833,-3.53646 z"
         id="text28"
         style="font-size:37.3333px;line-height:0.85;font-family:Arimo;-inkscape-font-specification:Arimo;text-align:center;text-anchor:middle;white-space:pre;stroke-width:2.64567"
         transform="matrix(0.26458333,0,0,0.26458333,-93.374949,103.18834)"
         aria-label="B" /><path
         d="m 357.24382,-163.5104 v -25.68487 h 19.48697 v 2.84375 h -16.0052 v 8.23957 h 14.91145 v 2.80729 h -14.91145 v 8.95051 h 16.75259 v 2.84375 z"
         id="text29"
         style="font-size:37.3333px;line-height:0.85;font-family:Arimo;-inkscape-font-specification:Arimo;text-align:center;text-anchor:middle;white-space:pre;stroke-width:2.64567"
         transform="matrix(0.26458333,0,0,0.26458333,-53.687448,52.917505)"
         aria-label="E" /></g></g></svg>
