<?xml version="1.0" encoding="UTF-8" standalone="no"?>
<!-- Created with Inkscape (http://www.inkscape.org/) -->

<svg
   width="566.92902"
   height="280.84201"
   viewBox="0 0 149.99996 74.306115"
   version="1.1"
   id="svg1"
   xml:space="preserve"
   inkscape:version="1.4 (e7c3feb100, 2024-10-09)"
   sodipodi:docname="s_13.svg"
   xmlns:inkscape="http://www.inkscape.org/namespaces/inkscape"
   xmlns:sodipodi="http://sodipodi.sourceforge.net/DTD/sodipodi-0.dtd"
   xmlns="http://www.w3.org/2000/svg"
   xmlns:svg="http://www.w3.org/2000/svg"><sodipodi:namedview
     id="namedview1"
     pagecolor="#ffffff"
     bordercolor="#000000"
     borderopacity="0.25"
     inkscape:showpageshadow="2"
     inkscape:pageopacity="0.0"
     inkscape:pagecheckerboard="0"
     inkscape:deskcolor="#d1d1d1"
     inkscape:document-units="mm"
     inkscape:zoom="0.68239768"
     inkscape:cx="544.40396"
     inkscape:cy="328.25434"
     inkscape:window-width="1336"
     inkscape:window-height="1032"
     inkscape:window-x="0"
     inkscape:window-y="0"
     inkscape:window-maximized="0"
     inkscape:current-layer="layer1" /><defs
     id="defs1"><rect
       x="19.351927"
       y="286.55737"
       width="129.52885"
       height="56.692913"
       id="rect34" /><rect
       x="254.27103"
       y="-189.67244"
       width="224.72061"
       height="173.17918"
       id="rect24" /><rect
       x="0"
       y="49.188309"
       width="416.01639"
       height="206.75764"
       id="rect1" /><rect
       x="218.24092"
       y="124.96783"
       width="156.66257"
       height="107.58867"
       id="rect3" /><rect
       x="32.884464"
       y="259.70294"
       width="188.03168"
       height="158.51997"
       id="rect11" /><rect
       x="-250.24031"
       y="-100.90335"
       width="753.41168"
       height="707.66882"
       id="rect80" /><rect
       x="4.8075223"
       y="-21.468073"
       width="36.30508"
       height="36.139305"
       id="rect107" /><rect
       x="19.102777"
       y="68.280945"
       width="35.021755"
       height="31.743317"
       id="rect4" /><rect
       x="293.1767"
       y="529.15662"
       width="119.48974"
       height="52.215397"
       id="rect44" /><rect
       x="293.1767"
       y="529.15662"
       width="119.48974"
       height="52.215397"
       id="rect45" /><rect
       x="293.1767"
       y="529.15662"
       width="119.48974"
       height="52.215397"
       id="rect46" /><rect
       x="19.102777"
       y="68.280945"
       width="35.021755"
       height="31.743317"
       id="rect5" /><rect
       x="19.102777"
       y="68.280945"
       width="35.021755"
       height="31.743317"
       id="rect6" /><rect
       x="19.102777"
       y="68.280945"
       width="35.021755"
       height="31.743317"
       id="rect7" /><rect
       x="4.8075223"
       y="-21.468073"
       width="36.30508"
       height="36.139305"
       id="rect108" /><rect
       x="4.8075223"
       y="-21.468073"
       width="36.30508"
       height="36.139305"
       id="rect109" /><rect
       x="4.8075223"
       y="-21.468073"
       width="36.30508"
       height="36.139305"
       id="rect110" /><rect
       x="4.8075223"
       y="-21.468073"
       width="36.30508"
       height="36.139305"
       id="rect111" /><rect
       x="4.8075223"
       y="-21.468073"
       width="36.30508"
       height="36.139305"
       id="rect112" /><rect
       x="-250.24031"
       y="-100.90335"
       width="753.41168"
       height="707.66882"
       id="rect81" /><rect
       x="-250.24031"
       y="-100.90335"
       width="753.41168"
       height="707.66882"
       id="rect82" /><rect
       x="-250.24031"
       y="-100.90335"
       width="753.41168"
       height="707.66882"
       id="rect83" /><rect
       x="32.884464"
       y="259.70294"
       width="188.03168"
       height="158.51997"
       id="rect12" /><rect
       x="32.884464"
       y="259.70294"
       width="188.03168"
       height="158.51997"
       id="rect13" /><rect
       x="32.884464"
       y="259.70294"
       width="188.03168"
       height="158.51997"
       id="rect14" /><rect
       x="32.884464"
       y="259.70294"
       width="188.03168"
       height="158.51997"
       id="rect15" /><rect
       x="32.884464"
       y="259.70294"
       width="188.03168"
       height="158.51997"
       id="rect16" /><rect
       x="32.884464"
       y="259.70294"
       width="188.03168"
       height="158.51997"
       id="rect17" /><rect
       x="32.884464"
       y="259.70294"
       width="188.03168"
       height="158.51997"
       id="rect18" /><rect
       x="32.884464"
       y="259.70294"
       width="188.03168"
       height="158.51997"
       id="rect19" /><rect
       x="32.884464"
       y="259.70294"
       width="188.03168"
       height="158.51997"
       id="rect20" /><rect
       x="218.24092"
       y="124.96783"
       width="156.66257"
       height="107.58867"
       id="rect8" /><rect
       x="218.24092"
       y="124.96783"
       width="156.66257"
       height="107.58867"
       id="rect9" /><rect
       x="218.24092"
       y="124.96783"
       width="156.66257"
       height="107.58867"
       id="rect10" /><rect
       x="218.24092"
       y="124.96783"
       width="156.66257"
       height="107.58867"
       id="rect21" /><rect
       x="218.24092"
       y="124.96783"
       width="156.66257"
       height="107.58867"
       id="rect22" /><rect
       x="0"
       y="49.188309"
       width="416.01639"
       height="206.75764"
       id="rect2" /><rect
       x="0"
       y="49.188309"
       width="416.01639"
       height="206.75764"
       id="rect23" /><rect
       x="254.27103"
       y="-189.67244"
       width="224.72061"
       height="173.17918"
       id="rect25" /><rect
       x="254.27103"
       y="-189.67244"
       width="224.72061"
       height="173.17918"
       id="rect26" /><rect
       x="254.27103"
       y="-189.67244"
       width="224.72061"
       height="173.17918"
       id="rect27" /><rect
       x="254.27103"
       y="-189.67244"
       width="224.72061"
       height="173.17918"
       id="rect28" /><rect
       x="254.27103"
       y="-189.67244"
       width="224.72061"
       height="173.17918"
       id="rect29" /><rect
       x="19.351927"
       y="286.55737"
       width="129.52885"
       height="56.692913"
       id="rect35" /><rect
       x="19.351927"
       y="286.55737"
       width="129.52885"
       height="56.692913"
       id="rect36" /><rect
       x="19.351927"
       y="286.55737"
       width="129.52885"
       height="56.692913"
       id="rect37" /><rect
       x="19.351927"
       y="286.55737"
       width="129.52885"
       height="56.692913"
       id="rect38" /></defs><g
     inkscape:label="Katman 1"
     inkscape:groupmode="layer"
     id="layer1"><g
       id="g38"
       transform="translate(-5.1201973,-16.512203)"><rect
         style="fill:#000000;stroke:none;stroke-width:0.7"
         id="rect30"
         width="150"
         height="15"
         x="5.1201973"
         y="75.818306" /><rect
         style="fill:#000000;stroke:none;stroke-width:0.7"
         id="rect31"
         width="75"
         height="15"
         x="37.89304"
         y="-21.161154"
         transform="rotate(51.542728)" /><rect
         style="fill:#000000;stroke:none;stroke-width:0.7"
         id="rect32"
         width="75"
         height="15"
         x="-67.295898"
         y="111.28207"
         transform="matrix(-0.62193084,0.78307218,0.78307218,0.62193084,0,0)" /><path
         style="fill:none;stroke:#ffffff;stroke-width:0.7;stroke-dasharray:2.1, 2.1;stroke-dashoffset:0"
         d="M 31.578531,83.318304 H 155.12019"
         id="path32"
         sodipodi:nodetypes="cc" /><path
         style="fill:none;stroke:#ffffff;stroke-width:0.7;stroke-dasharray:2.1, 2.1;stroke-dashoffset:0"
         d="M 116.12305,44.493515 84.910349,83.318304"
         id="path33"
         sodipodi:nodetypes="cc" /><path
         style="fill:none;stroke:#ffffff;stroke-width:0.7;stroke-dasharray:2.1, 2.1;stroke-dashoffset:0"
         d="M 53.598894,44.899657 84.910347,83.318304"
         id="path34"
         sodipodi:nodetypes="cc" /><path
         d="m 58.622743,305.62698 q 0,3.55468 -2.260415,5.5052 -2.260414,1.95052 -6.453119,1.95052 -3.901039,0 -6.23437,-1.75 -2.315102,-1.76823 -2.752602,-5.21354 l 3.390622,-0.30989 q 0.65625,4.55729 5.59635,4.55729 2.479164,0 3.882809,-1.22136 1.421874,-1.22135 1.421874,-3.6276 0,-2.09635 -1.622395,-3.26302 -1.604165,-1.18489 -4.648433,-1.18489 H 47.08369 v -2.84375 h 1.786457 q 2.697915,0 4.174476,-1.16666 1.49479,-1.1849 1.49479,-3.26302 0,-2.0599 -1.221353,-3.24479 -1.203124,-1.20312 -3.591143,-1.20312 -2.169269,0 -3.518226,1.11197 -1.330728,1.11198 -1.549478,3.13542 l -3.299476,-0.25521 q 0.364583,-3.15364 2.606769,-4.92187 2.260414,-1.76823 5.79687,-1.76823 3.86458,0 5.99739,1.80469 2.15104,1.78645 2.15104,4.99478 0,2.46094 -1.385415,4.01042 -1.367187,1.53125 -3.992184,2.07812 v 0.0729 q 2.880205,0.30989 4.484371,1.93229 1.604165,1.62239 1.604165,4.08333 z m 5.049474,7.09114 v -3.99219 h 3.554685 v 3.99219 z m 20.817689,7.74739 q -1.348957,0 -2.260415,-0.20052 v -2.46094 q 0.692708,0.10938 1.531249,0.10938 3.062497,0 4.848954,-4.50261 l 0.309895,-0.78385 -7.820305,-19.63279 h 3.499997 l 4.156246,10.90103 q 0.09115,0.25521 0.21875,0.61979 0.127604,0.34635 0.820312,2.36979 0.692707,2.02343 0.747395,2.26041 l 1.27604,-3.59114 4.320309,-12.55988 h 3.463539 l -7.583327,19.72394 q -1.221353,3.15364 -2.278644,4.68489 -1.057291,1.54948 -2.35156,2.29687 -1.276041,0.76563 -2.898435,0.76563 z m 34.380184,-17.62759 q 0,5.17708 -2.27865,7.71093 -2.27864,2.53385 -6.61718,2.53385 -4.32031,0 -6.52604,-2.625 -2.20572,-2.64322 -2.20572,-7.61978 0,-10.20833 8.84114,-10.20833 4.52083,0 6.65364,2.4974 2.13281,2.47916 2.13281,7.71093 z m -3.44531,0 q 0,-4.08333 -1.22136,-5.92448 -1.20312,-1.85937 -4.0651,-1.85937 -2.8802,0 -4.17447,1.89583 -1.27604,1.8776 -1.27604,5.88802 0,3.90104 1.25781,5.86978 1.27604,1.95052 3.99218,1.95052 2.95313,0 4.21094,-1.89583 1.27604,-1.89583 1.27604,-5.92447 z m 7.52864,9.8802 v -27.05206 h 3.28124 v 27.05206 z"
         id="text34"
         style="font-size:37.3333px;line-height:0.85;font-family:Arimo;-inkscape-font-specification:Arimo;text-align:center;text-anchor:middle;white-space:pre;fill:#ffffff;stroke-width:2.64567;stroke-dasharray:7.93701, 7.93701"
         transform="matrix(0.26458333,0,0,0.26458333,-3.856879,3.4821503)"
         aria-label="3. yol" /><path
         d="m 42.344111,312.71812 v -2.78906 h 6.544265 v -19.7604 l -5.79687,4.13801 v -3.09895 l 6.070308,-4.17448 h 3.026039 v 22.89582 h 6.252599 v 2.78906 z m 21.328106,0 v -3.99219 h 3.554685 v 3.99219 z m 20.817689,7.74739 q -1.348957,0 -2.260415,-0.20052 v -2.46094 q 0.692708,0.10938 1.531249,0.10938 3.062497,0 4.848954,-4.50261 l 0.309895,-0.78385 -7.820305,-19.63279 h 3.499997 l 4.156246,10.90103 q 0.09115,0.25521 0.21875,0.61979 0.127604,0.34635 0.820312,2.36979 0.692707,2.02343 0.747395,2.26041 l 1.27604,-3.59114 4.320309,-12.55988 h 3.463539 l -7.583327,19.72394 q -1.221353,3.15364 -2.278644,4.68489 -1.057291,1.54948 -2.35156,2.29687 -1.276041,0.76563 -2.898435,0.76563 z m 34.380184,-17.62759 q 0,5.17708 -2.27865,7.71093 -2.27864,2.53385 -6.61718,2.53385 -4.32031,0 -6.52604,-2.625 -2.20572,-2.64322 -2.20572,-7.61978 0,-10.20833 8.84114,-10.20833 4.52083,0 6.65364,2.4974 2.13281,2.47916 2.13281,7.71093 z m -3.44531,0 q 0,-4.08333 -1.22136,-5.92448 -1.20312,-1.85937 -4.0651,-1.85937 -2.8802,0 -4.17447,1.89583 -1.27604,1.8776 -1.27604,5.88802 0,3.90104 1.25781,5.86978 1.27604,1.95052 3.99218,1.95052 2.95313,0 4.21094,-1.89583 1.27604,-1.89583 1.27604,-5.92447 z m 7.52864,9.8802 v -27.05206 h 3.28124 v 27.05206 z"
         id="text35"
         style="font-size:37.3333px;line-height:0.85;font-family:Arimo;-inkscape-font-specification:Arimo;text-align:center;text-anchor:middle;white-space:pre;fill:#ffffff;stroke-width:2.64567;stroke-dasharray:7.93701, 7.93701"
         transform="matrix(0.16501179,0.20682226,-0.20682226,0.16501179,91.819021,-34.255938)"
         aria-label="1. yol" /><path
         d="m 41.377966,312.71812 v -2.3151 q 0.929687,-2.13282 2.260415,-3.75521 1.348957,-1.64062 2.825518,-2.95312 1.476561,-1.33073 2.916664,-2.46094 1.458333,-1.13021 2.624998,-2.26041 1.166666,-1.13021 1.877603,-2.36979 0.729166,-1.23958 0.729166,-2.80729 0,-2.11458 -1.239582,-3.28125 -1.239583,-1.16666 -3.44531,-1.16666 -2.096352,0 -3.463539,1.14843 -1.348957,1.13021 -1.585936,3.1901 l -3.354164,-0.30989 q 0.364583,-3.08073 2.606769,-4.90364 2.260415,-1.82292 5.79687,-1.82292 3.882809,0 5.960932,1.84115 2.096353,1.82291 2.096353,5.1953 0,1.49479 -0.692708,2.97136 -0.674479,1.47656 -2.023436,2.95312 -1.348957,1.47656 -5.15885,4.57551 -2.096352,1.71354 -3.335934,3.09896 -1.239582,1.36719 -1.786457,2.64323 h 13.398426 v 2.78906 z m 22.294251,0 v -3.99219 h 3.554685 v 3.99219 z m 20.817689,7.74739 q -1.348957,0 -2.260415,-0.20052 v -2.46094 q 0.692708,0.10938 1.531249,0.10938 3.062497,0 4.848954,-4.50261 l 0.309895,-0.78385 -7.820305,-19.63279 h 3.499997 l 4.156246,10.90103 q 0.09115,0.25521 0.21875,0.61979 0.127604,0.34635 0.820312,2.36979 0.692707,2.02343 0.747395,2.26041 l 1.27604,-3.59114 4.320309,-12.55988 h 3.463539 l -7.583327,19.72394 q -1.221353,3.15364 -2.278644,4.68489 -1.057291,1.54948 -2.35156,2.29687 -1.276041,0.76563 -2.898435,0.76563 z m 34.380184,-17.62759 q 0,5.17708 -2.27865,7.71093 -2.27864,2.53385 -6.61718,2.53385 -4.32031,0 -6.52604,-2.625 -2.20572,-2.64322 -2.20572,-7.61978 0,-10.20833 8.84114,-10.20833 4.52083,0 6.65364,2.4974 2.13281,2.47916 2.13281,7.71093 z m -3.44531,0 q 0,-4.08333 -1.22136,-5.92448 -1.20312,-1.85937 -4.0651,-1.85937 -2.8802,0 -4.17447,1.89583 -1.27604,1.8776 -1.27604,5.88802 0,3.90104 1.25781,5.86978 1.27604,1.95052 3.99218,1.95052 2.95313,0 4.21094,-1.89583 1.27604,-1.89583 1.27604,-5.92447 z m 7.52864,9.8802 v -27.05206 h 3.28124 v 27.05206 z"
         id="text36"
         style="font-size:37.3333px;line-height:0.85;font-family:Arimo;-inkscape-font-specification:Arimo;text-align:center;text-anchor:middle;white-space:pre;fill:#ffffff;stroke-width:2.64567;stroke-dasharray:7.93701, 7.93701"
         transform="matrix(0.1632835,-0.20818943,0.20818943,0.1632835,49.143586,0.59355579)"
         aria-label="2. yol" /><path
         d="m 71.948253,306.90302 v 5.8151 h -3.098956 v -5.8151 H 56.74514 v -2.55208 l 11.757803,-17.3177 h 3.44531 v 17.28124 h 3.609371 v 2.58854 z m -3.098956,-16.16926 q -0.03646,0.10938 -0.510416,0.96615 -0.473958,0.85677 -0.710937,1.20312 l -6.580724,9.69791 -0.984374,1.34896 -0.291666,0.36458 h 9.078117 z m 23.861958,16.16926 v 5.8151 h -3.098956 v -5.8151 H 77.508143 v -2.55208 l 11.757802,-17.3177 h 3.44531 v 17.28124 h 3.609372 v 2.58854 z m -3.098956,-16.16926 q -0.03646,0.10938 -0.510416,0.96615 -0.473958,0.85677 -0.710937,1.20312 l -6.580723,9.69791 -0.984375,1.34896 -0.291666,0.36458 h 9.078117 z m 20.489561,1.11198 q 0,2.16927 -1.54947,3.68229 -1.53125,1.51302 -3.68229,1.51302 -2.15104,0 -3.70052,-1.53125 -1.531248,-1.53125 -1.531248,-3.66406 0,-2.13281 1.513018,-3.66406 1.53125,-1.53125 3.71875,-1.53125 2.1875,0 3.70052,1.51302 1.53124,1.51302 1.53124,3.68229 z m -1.98697,0 q 0,-1.38542 -0.94792,-2.33333 -0.92969,-0.94792 -2.29687,-0.94792 -1.36719,0 -2.3151,0.96615 -0.92969,0.96614 -0.92969,2.3151 0,1.34896 0.94791,2.3151 0.96615,0.96615 2.29688,0.96615 1.34896,0 2.29687,-0.94792 0.94792,-0.96614 0.94792,-2.33333 z"
         id="text37"
         style="font-size:37.3333px;line-height:0.85;font-family:Arimo;-inkscape-font-specification:Arimo;text-align:center;text-anchor:middle;white-space:pre;stroke-width:2.64567;stroke-dasharray:7.93701, 7.93701"
         transform="matrix(0.26458333,0,0,0.26458333,26.033517,-9.9172188)"
         aria-label="44°" /><path
         d="m 71.948253,306.90302 v 5.8151 h -3.098956 v -5.8151 H 56.74514 v -2.55208 l 11.757803,-17.3177 h 3.44531 v 17.28124 h 3.609371 v 2.58854 z m -3.098956,-16.16926 q -0.03646,0.10938 -0.510416,0.96615 -0.473958,0.85677 -0.710937,1.20312 l -6.580724,9.69791 -0.984374,1.34896 -0.291666,0.36458 h 9.078117 z m 9.679678,21.98436 v -2.3151 q 0.929687,-2.13282 2.260415,-3.75521 1.348957,-1.64062 2.825519,-2.95312 1.476561,-1.33073 2.916664,-2.46094 1.458332,-1.13021 2.624997,-2.26041 1.166666,-1.13021 1.877603,-2.36979 0.729166,-1.23958 0.729166,-2.80729 0,-2.11458 -1.239582,-3.28125 -1.239582,-1.16666 -3.44531,-1.16666 -2.096352,0 -3.463538,1.14843 -1.348958,1.13021 -1.585937,3.1901 l -3.354163,-0.30989 q 0.364583,-3.08073 2.606768,-4.90364 2.260415,-1.82292 5.79687,-1.82292 3.882809,0 5.960933,1.84115 2.096352,1.82291 2.096352,5.1953 0,1.49479 -0.692708,2.97136 -0.674478,1.47656 -2.023435,2.95312 -1.348958,1.47656 -5.15885,4.57551 -2.096353,1.71354 -3.335935,3.09896 -1.239582,1.36719 -1.786457,2.64323 h 13.398426 v 2.78906 z m 31.572885,-20.87238 q 0,2.16927 -1.54947,3.68229 -1.53125,1.51302 -3.68229,1.51302 -2.15104,0 -3.70052,-1.53125 -1.531248,-1.53125 -1.531248,-3.66406 0,-2.13281 1.513018,-3.66406 1.53125,-1.53125 3.71875,-1.53125 2.1875,0 3.70052,1.51302 1.53124,1.51302 1.53124,3.68229 z m -1.98697,0 q 0,-1.38542 -0.94792,-2.33333 -0.92969,-0.94792 -2.29687,-0.94792 -1.36719,0 -2.3151,0.96615 -0.92969,0.96614 -0.92969,2.3151 0,1.34896 0.94791,2.3151 0.96615,0.96615 2.29688,0.96615 1.34896,0 2.29687,-0.94792 0.94792,-0.96614 0.94792,-2.33333 z"
         id="text38"
         style="font-size:37.3333px;line-height:0.85;font-family:Arimo;-inkscape-font-specification:Arimo;text-align:center;text-anchor:middle;white-space:pre;stroke-width:2.64567;stroke-dasharray:7.93701, 7.93701"
         transform="matrix(0.26458333,0,0,0.26458333,100.11685,-9.3880521)"
         aria-label="42°" /><path
         style="fill:none;fill-opacity:1;stroke:#000000;stroke-width:0.7;stroke-dasharray:none;stroke-dashoffset:0;stroke-opacity:1"
         id="path38"
         sodipodi:type="arc"
         sodipodi:cx="84.910347"
         sodipodi:cy="82.968307"
         sodipodi:rx="30"
         sodipodi:ry="30"
         sodipodi:start="3.2126789"
         sodipodi:end="6.1985834"
         sodipodi:open="true"
         sodipodi:arc-type="arc"
         d="m 54.986114,80.837516 a 30,30 0 0 1 29.7215,-27.868523 30,30 0 0 1 30.095436,27.464284" /></g></g></svg>
