<?xml version="1.0" encoding="UTF-8" standalone="no"?>
<!-- Created with Inkscape (http://www.inkscape.org/) -->

<svg
   width="449.013"
   height="300"
   viewBox="0 0 118.80135 79.375002"
   version="1.1"
   id="svg1"
   xml:space="preserve"
   inkscape:version="1.4 (e7c3feb100, 2024-10-09)"
   sodipodi:docname="s_2.svg"
   xmlns:inkscape="http://www.inkscape.org/namespaces/inkscape"
   xmlns:sodipodi="http://sodipodi.sourceforge.net/DTD/sodipodi-0.dtd"
   xmlns="http://www.w3.org/2000/svg"
   xmlns:svg="http://www.w3.org/2000/svg"><sodipodi:namedview
     id="namedview1"
     pagecolor="#ffffff"
     bordercolor="#000000"
     borderopacity="0.25"
     inkscape:showpageshadow="2"
     inkscape:pageopacity="0.0"
     inkscape:pagecheckerboard="0"
     inkscape:deskcolor="#d1d1d1"
     inkscape:document-units="mm"
     inkscape:zoom="1.1842828"
     inkscape:cx="295.95973"
     inkscape:cy="201.80991"
     inkscape:window-width="1336"
     inkscape:window-height="1044"
     inkscape:window-x="0"
     inkscape:window-y="0"
     inkscape:window-maximized="0"
     inkscape:current-layer="layer1" /><defs
     id="defs1"><marker
       style="overflow:visible"
       id="Triangle"
       refX="0"
       refY="0"
       orient="auto-start-reverse"
       inkscape:stockid="Triangle arrow"
       markerWidth="1"
       markerHeight="1"
       viewBox="0 0 1 1"
       inkscape:isstock="true"
       inkscape:collect="always"
       preserveAspectRatio="xMidYMid"><path
         transform="scale(0.5)"
         style="fill:context-stroke;fill-rule:evenodd;stroke:context-stroke;stroke-width:1pt"
         d="M 5.77,0 -2.88,5 V -5 Z"
         id="path135" /></marker><rect
       x="4.8075223"
       y="-21.468073"
       width="36.30508"
       height="36.139305"
       id="rect107" /><rect
       x="19.102777"
       y="68.280945"
       width="35.021755"
       height="31.743317"
       id="rect4" /><rect
       x="293.1767"
       y="529.15662"
       width="119.48974"
       height="52.215397"
       id="rect44" /><rect
       x="293.1767"
       y="529.15662"
       width="119.48974"
       height="52.215397"
       id="rect45" /><rect
       x="293.1767"
       y="529.15662"
       width="119.48974"
       height="52.215397"
       id="rect46" /><rect
       x="19.102777"
       y="68.280945"
       width="35.021755"
       height="31.743317"
       id="rect5" /><rect
       x="19.102777"
       y="68.280945"
       width="35.021755"
       height="31.743317"
       id="rect6" /><rect
       x="19.102777"
       y="68.280945"
       width="35.021755"
       height="31.743317"
       id="rect7" /><rect
       x="4.8075223"
       y="-21.468073"
       width="36.30508"
       height="36.139305"
       id="rect108" /><rect
       x="4.8075223"
       y="-21.468073"
       width="36.30508"
       height="36.139305"
       id="rect109" /><rect
       x="4.8075223"
       y="-21.468073"
       width="36.30508"
       height="36.139305"
       id="rect110" /><rect
       x="4.8075223"
       y="-21.468073"
       width="36.30508"
       height="36.139305"
       id="rect111" /><rect
       x="4.8075223"
       y="-21.468073"
       width="36.30508"
       height="36.139305"
       id="rect112" /></defs><g
     inkscape:label="Katman 1"
     inkscape:groupmode="layer"
     id="layer1"><g
       id="g112"
       transform="matrix(1.971315,0,0,1.971315,6.5894261e-8,53.296146)"><rect
         style="fill:none;stroke:#666666;stroke-width:0.264999;stroke-opacity:1"
         id="rect1"
         width="5"
         height="5"
         x="0.1324995"
         y="8.0966673" /><rect
         style="fill:none;stroke:#666666;stroke-width:0.264999;stroke-opacity:1"
         id="rect2"
         width="5"
         height="5"
         x="0.1324995"
         y="3.0966673" /><rect
         style="fill:none;stroke:#666666;stroke-width:0.264999;stroke-opacity:1"
         id="rect3"
         width="5"
         height="5"
         x="0.1324995"
         y="-1.9033327" /><rect
         style="fill:none;stroke:#666666;stroke-width:0.264999;stroke-opacity:1"
         id="rect8"
         width="5"
         height="5"
         x="0.1324995"
         y="-6.9033327" /><rect
         style="fill:none;stroke:#666666;stroke-width:0.264999;stroke-opacity:1"
         id="rect9"
         width="5"
         height="5"
         x="0.1324995"
         y="-11.903333" /><rect
         style="fill:none;stroke:#666666;stroke-width:0.264999;stroke-opacity:1"
         id="rect10"
         width="5"
         height="5"
         x="0.1324995"
         y="-16.903334" /><rect
         style="fill:none;stroke:#666666;stroke-width:0.264999;stroke-opacity:1"
         id="rect11"
         width="5"
         height="5"
         x="0.1324995"
         y="-21.903334" /><rect
         style="fill:none;stroke:#666666;stroke-width:0.264999;stroke-opacity:1"
         id="rect12"
         width="5"
         height="5"
         x="0.1324995"
         y="-26.903334" /><rect
         style="fill:none;stroke:#666666;stroke-width:0.264999;stroke-opacity:1"
         id="rect13"
         width="5"
         height="5"
         x="5.1324997"
         y="8.0966673" /><rect
         style="fill:none;stroke:#666666;stroke-width:0.264999;stroke-opacity:1"
         id="rect14"
         width="5"
         height="5"
         x="5.1324997"
         y="3.0966673" /><rect
         style="fill:none;stroke:#666666;stroke-width:0.264999;stroke-opacity:1"
         id="rect15"
         width="5"
         height="5"
         x="5.1324997"
         y="-1.9033327" /><rect
         style="fill:none;stroke:#666666;stroke-width:0.264999;stroke-opacity:1"
         id="rect16"
         width="5"
         height="5"
         x="5.1324997"
         y="-6.9033327" /><rect
         style="fill:none;stroke:#666666;stroke-width:0.264999;stroke-opacity:1"
         id="rect17"
         width="5"
         height="5"
         x="5.1324997"
         y="-11.903333" /><rect
         style="fill:none;stroke:#666666;stroke-width:0.264999;stroke-opacity:1"
         id="rect18"
         width="5"
         height="5"
         x="5.1324997"
         y="-16.903334" /><rect
         style="fill:none;stroke:#666666;stroke-width:0.264999;stroke-opacity:1"
         id="rect19"
         width="5"
         height="5"
         x="5.1324997"
         y="-21.903334" /><rect
         style="fill:none;stroke:#666666;stroke-width:0.264999;stroke-opacity:1"
         id="rect20"
         width="5"
         height="5"
         x="5.1324997"
         y="-26.903334" /><rect
         style="fill:none;stroke:#666666;stroke-width:0.264999;stroke-opacity:1"
         id="rect21"
         width="5"
         height="5"
         x="10.1325"
         y="8.0966673" /><rect
         style="fill:none;stroke:#666666;stroke-width:0.264999;stroke-opacity:1"
         id="rect22"
         width="5"
         height="5"
         x="10.1325"
         y="3.0966673" /><rect
         style="fill:none;stroke:#666666;stroke-width:0.264999;stroke-opacity:1"
         id="rect23"
         width="5"
         height="5"
         x="10.1325"
         y="-1.9033327" /><rect
         style="fill:none;stroke:#666666;stroke-width:0.264999;stroke-opacity:1"
         id="rect24"
         width="5"
         height="5"
         x="10.1325"
         y="-6.9033327" /><rect
         style="fill:none;stroke:#666666;stroke-width:0.264999;stroke-opacity:1"
         id="rect25"
         width="5"
         height="5"
         x="10.1325"
         y="-11.903333" /><rect
         style="fill:none;stroke:#666666;stroke-width:0.264999;stroke-opacity:1"
         id="rect26"
         width="5"
         height="5"
         x="10.1325"
         y="-16.903334" /><rect
         style="fill:none;stroke:#666666;stroke-width:0.264999;stroke-opacity:1"
         id="rect27"
         width="5"
         height="5"
         x="10.1325"
         y="-21.903334" /><rect
         style="fill:none;stroke:#666666;stroke-width:0.264999;stroke-opacity:1"
         id="rect28"
         width="5"
         height="5"
         x="10.1325"
         y="-26.903334" /><rect
         style="fill:none;stroke:#666666;stroke-width:0.264999;stroke-opacity:1"
         id="rect29"
         width="5"
         height="5"
         x="15.1325"
         y="8.0966673" /><rect
         style="fill:none;stroke:#666666;stroke-width:0.264999;stroke-opacity:1"
         id="rect30"
         width="5"
         height="5"
         x="15.1325"
         y="3.0966673" /><rect
         style="fill:none;stroke:#666666;stroke-width:0.264999;stroke-opacity:1"
         id="rect31"
         width="5"
         height="5"
         x="15.1325"
         y="-1.9033327" /><rect
         style="fill:none;stroke:#666666;stroke-width:0.264999;stroke-opacity:1"
         id="rect32"
         width="5"
         height="5"
         x="15.1325"
         y="-6.9033327" /><rect
         style="fill:none;stroke:#666666;stroke-width:0.264999;stroke-opacity:1"
         id="rect33"
         width="5"
         height="5"
         x="15.1325"
         y="-11.903333" /><rect
         style="fill:none;stroke:#666666;stroke-width:0.264999;stroke-opacity:1"
         id="rect34"
         width="5"
         height="5"
         x="15.1325"
         y="-16.903334" /><rect
         style="fill:none;stroke:#666666;stroke-width:0.264999;stroke-opacity:1"
         id="rect35"
         width="5"
         height="5"
         x="15.1325"
         y="-21.903334" /><rect
         style="fill:none;stroke:#666666;stroke-width:0.264999;stroke-opacity:1"
         id="rect36"
         width="5"
         height="5"
         x="15.1325"
         y="-26.903334" /><rect
         style="fill:none;stroke:#666666;stroke-width:0.264999;stroke-opacity:1"
         id="rect37"
         width="5"
         height="5"
         x="20.1325"
         y="8.0966673" /><rect
         style="fill:none;stroke:#666666;stroke-width:0.264999;stroke-opacity:1"
         id="rect38"
         width="5"
         height="5"
         x="20.1325"
         y="3.0966673" /><rect
         style="fill:none;stroke:#666666;stroke-width:0.264999;stroke-opacity:1"
         id="rect39"
         width="5"
         height="5"
         x="20.1325"
         y="-1.9033327" /><rect
         style="fill:none;stroke:#666666;stroke-width:0.264999;stroke-opacity:1"
         id="rect40"
         width="5"
         height="5"
         x="20.1325"
         y="-6.9033327" /><rect
         style="fill:none;stroke:#666666;stroke-width:0.264999;stroke-opacity:1"
         id="rect41"
         width="5"
         height="5"
         x="20.1325"
         y="-11.903333" /><rect
         style="fill:none;stroke:#666666;stroke-width:0.264999;stroke-opacity:1"
         id="rect42"
         width="5"
         height="5"
         x="20.1325"
         y="-16.903334" /><rect
         style="fill:none;stroke:#666666;stroke-width:0.264999;stroke-opacity:1"
         id="rect43"
         width="5"
         height="5"
         x="20.1325"
         y="-21.903334" /><rect
         style="fill:none;stroke:#666666;stroke-width:0.264999;stroke-opacity:1"
         id="rect47"
         width="5"
         height="5"
         x="20.1325"
         y="-26.903334" /><rect
         style="fill:none;stroke:#666666;stroke-width:0.264999;stroke-opacity:1"
         id="rect48"
         width="5"
         height="5"
         x="25.1325"
         y="8.0966673" /><rect
         style="fill:none;stroke:#666666;stroke-width:0.264999;stroke-opacity:1"
         id="rect49"
         width="5"
         height="5"
         x="25.1325"
         y="3.0966673" /><rect
         style="fill:none;stroke:#666666;stroke-width:0.264999;stroke-opacity:1"
         id="rect50"
         width="5"
         height="5"
         x="25.1325"
         y="-1.9033327" /><rect
         style="fill:none;stroke:#666666;stroke-width:0.264999;stroke-opacity:1"
         id="rect51"
         width="5"
         height="5"
         x="25.1325"
         y="-6.9033327" /><rect
         style="fill:none;stroke:#666666;stroke-width:0.264999;stroke-opacity:1"
         id="rect52"
         width="5"
         height="5"
         x="25.1325"
         y="-11.903333" /><rect
         style="fill:none;stroke:#666666;stroke-width:0.264999;stroke-opacity:1"
         id="rect53"
         width="5"
         height="5"
         x="25.1325"
         y="-16.903334" /><rect
         style="fill:none;stroke:#666666;stroke-width:0.264999;stroke-opacity:1"
         id="rect54"
         width="5"
         height="5"
         x="25.1325"
         y="-21.903334" /><rect
         style="fill:none;stroke:#666666;stroke-width:0.264999;stroke-opacity:1"
         id="rect55"
         width="5"
         height="5"
         x="25.1325"
         y="-26.903334" /><rect
         style="fill:none;stroke:#666666;stroke-width:0.264999;stroke-opacity:1"
         id="rect56"
         width="5"
         height="5"
         x="30.1325"
         y="8.0966673" /><rect
         style="fill:none;stroke:#666666;stroke-width:0.264999;stroke-opacity:1"
         id="rect57"
         width="5"
         height="5"
         x="30.1325"
         y="3.0966673" /><rect
         style="fill:none;stroke:#666666;stroke-width:0.264999;stroke-opacity:1"
         id="rect58"
         width="5"
         height="5"
         x="30.1325"
         y="-1.9033327" /><rect
         style="fill:none;stroke:#666666;stroke-width:0.264999;stroke-opacity:1"
         id="rect59"
         width="5"
         height="5"
         x="30.1325"
         y="-6.9033327" /><rect
         style="fill:none;stroke:#666666;stroke-width:0.264999;stroke-opacity:1"
         id="rect60"
         width="5"
         height="5"
         x="30.1325"
         y="-11.903333" /><rect
         style="fill:none;stroke:#666666;stroke-width:0.264999;stroke-opacity:1"
         id="rect61"
         width="5"
         height="5"
         x="30.1325"
         y="-16.903334" /><rect
         style="fill:none;stroke:#666666;stroke-width:0.264999;stroke-opacity:1"
         id="rect62"
         width="5"
         height="5"
         x="30.1325"
         y="-21.903334" /><rect
         style="fill:none;stroke:#666666;stroke-width:0.264999;stroke-opacity:1"
         id="rect63"
         width="5"
         height="5"
         x="30.1325"
         y="-26.903334" /><rect
         style="fill:none;stroke:#666666;stroke-width:0.264999;stroke-opacity:1"
         id="rect64"
         width="5"
         height="5"
         x="35.1325"
         y="8.0966673" /><rect
         style="fill:none;stroke:#666666;stroke-width:0.264999;stroke-opacity:1"
         id="rect65"
         width="5"
         height="5"
         x="35.1325"
         y="3.0966673" /><rect
         style="fill:none;stroke:#666666;stroke-width:0.264999;stroke-opacity:1"
         id="rect66"
         width="5"
         height="5"
         x="35.1325"
         y="-1.9033327" /><rect
         style="fill:none;stroke:#666666;stroke-width:0.264999;stroke-opacity:1"
         id="rect67"
         width="5"
         height="5"
         x="35.1325"
         y="-6.9033327" /><rect
         style="fill:none;stroke:#666666;stroke-width:0.264999;stroke-opacity:1"
         id="rect68"
         width="5"
         height="5"
         x="35.1325"
         y="-11.903333" /><rect
         style="fill:none;stroke:#666666;stroke-width:0.264999;stroke-opacity:1"
         id="rect69"
         width="5"
         height="5"
         x="35.1325"
         y="-16.903334" /><rect
         style="fill:none;stroke:#666666;stroke-width:0.264999;stroke-opacity:1"
         id="rect70"
         width="5"
         height="5"
         x="35.1325"
         y="-21.903334" /><rect
         style="fill:none;stroke:#666666;stroke-width:0.264999;stroke-opacity:1"
         id="rect71"
         width="5"
         height="5"
         x="35.1325"
         y="-26.903334" /><rect
         style="fill:none;stroke:#666666;stroke-width:0.264999;stroke-opacity:1"
         id="rect72"
         width="5"
         height="5"
         x="40.1325"
         y="8.0966673" /><rect
         style="fill:none;stroke:#666666;stroke-width:0.264999;stroke-opacity:1"
         id="rect73"
         width="5"
         height="5"
         x="40.1325"
         y="3.0966673" /><rect
         style="fill:none;stroke:#666666;stroke-width:0.264999;stroke-opacity:1"
         id="rect74"
         width="5"
         height="5"
         x="40.1325"
         y="-1.9033327" /><rect
         style="fill:none;stroke:#666666;stroke-width:0.264999;stroke-opacity:1"
         id="rect75"
         width="5"
         height="5"
         x="40.1325"
         y="-6.9033327" /><rect
         style="fill:none;stroke:#666666;stroke-width:0.264999;stroke-opacity:1"
         id="rect76"
         width="5"
         height="5"
         x="40.1325"
         y="-11.903333" /><rect
         style="fill:none;stroke:#666666;stroke-width:0.264999;stroke-opacity:1"
         id="rect77"
         width="5"
         height="5"
         x="40.1325"
         y="-16.903334" /><rect
         style="fill:none;stroke:#666666;stroke-width:0.264999;stroke-opacity:1"
         id="rect78"
         width="5"
         height="5"
         x="40.1325"
         y="-21.903334" /><rect
         style="fill:none;stroke:#666666;stroke-width:0.264999;stroke-opacity:1"
         id="rect79"
         width="5"
         height="5"
         x="40.1325"
         y="-26.903334" /><rect
         style="fill:none;stroke:#666666;stroke-width:0.264999;stroke-opacity:1"
         id="rect80"
         width="5"
         height="5"
         x="45.1325"
         y="8.0966673" /><rect
         style="fill:none;stroke:#666666;stroke-width:0.264999;stroke-opacity:1"
         id="rect81"
         width="5"
         height="5"
         x="45.1325"
         y="3.0966673" /><rect
         style="fill:none;stroke:#666666;stroke-width:0.264999;stroke-opacity:1"
         id="rect82"
         width="5"
         height="5"
         x="45.1325"
         y="-1.9033327" /><rect
         style="fill:none;stroke:#666666;stroke-width:0.264999;stroke-opacity:1"
         id="rect83"
         width="5"
         height="5"
         x="45.1325"
         y="-6.9033327" /><rect
         style="fill:none;stroke:#666666;stroke-width:0.264999;stroke-opacity:1"
         id="rect84"
         width="5"
         height="5"
         x="45.1325"
         y="-11.903333" /><rect
         style="fill:none;stroke:#666666;stroke-width:0.264999;stroke-opacity:1"
         id="rect85"
         width="5"
         height="5"
         x="45.1325"
         y="-16.903334" /><rect
         style="fill:none;stroke:#666666;stroke-width:0.264999;stroke-opacity:1"
         id="rect86"
         width="5"
         height="5"
         x="45.1325"
         y="-21.903334" /><rect
         style="fill:none;stroke:#666666;stroke-width:0.264999;stroke-opacity:1"
         id="rect87"
         width="5"
         height="5"
         x="45.1325"
         y="-26.903334" /><rect
         style="fill:none;stroke:#666666;stroke-width:0.264999;stroke-opacity:1"
         id="rect88"
         width="5"
         height="5"
         x="50.1325"
         y="8.0966673" /><rect
         style="fill:none;stroke:#666666;stroke-width:0.264999;stroke-opacity:1"
         id="rect89"
         width="5"
         height="5"
         x="50.1325"
         y="3.0966673" /><rect
         style="fill:none;stroke:#666666;stroke-width:0.264999;stroke-opacity:1"
         id="rect90"
         width="5"
         height="5"
         x="50.1325"
         y="-1.9033327" /><rect
         style="fill:none;stroke:#666666;stroke-width:0.264999;stroke-opacity:1"
         id="rect91"
         width="5"
         height="5"
         x="50.1325"
         y="-6.9033327" /><rect
         style="fill:none;stroke:#666666;stroke-width:0.264999;stroke-opacity:1"
         id="rect92"
         width="5"
         height="5"
         x="50.1325"
         y="-11.903333" /><rect
         style="fill:none;stroke:#666666;stroke-width:0.264999;stroke-opacity:1"
         id="rect93"
         width="5"
         height="5"
         x="50.1325"
         y="-16.903334" /><rect
         style="fill:none;stroke:#666666;stroke-width:0.264999;stroke-opacity:1"
         id="rect94"
         width="5"
         height="5"
         x="50.1325"
         y="-21.903334" /><rect
         style="fill:none;stroke:#666666;stroke-width:0.264999;stroke-opacity:1"
         id="rect95"
         width="5"
         height="5"
         x="50.1325"
         y="-26.903334" /><rect
         style="fill:none;stroke:#666666;stroke-width:0.264999;stroke-opacity:1"
         id="rect96"
         width="5"
         height="5"
         x="55.1325"
         y="8.0966673" /><rect
         style="fill:none;stroke:#666666;stroke-width:0.264999;stroke-opacity:1"
         id="rect97"
         width="5"
         height="5"
         x="55.1325"
         y="3.0966673" /><rect
         style="fill:none;stroke:#666666;stroke-width:0.264999;stroke-opacity:1"
         id="rect98"
         width="5"
         height="5"
         x="55.1325"
         y="-1.9033327" /><rect
         style="fill:none;stroke:#666666;stroke-width:0.264999;stroke-opacity:1"
         id="rect99"
         width="5"
         height="5"
         x="55.1325"
         y="-6.9033327" /><rect
         style="fill:none;stroke:#666666;stroke-width:0.264999;stroke-opacity:1"
         id="rect100"
         width="5"
         height="5"
         x="55.1325"
         y="-11.903333" /><rect
         style="fill:none;stroke:#666666;stroke-width:0.264999;stroke-opacity:1"
         id="rect101"
         width="5"
         height="5"
         x="55.1325"
         y="-16.903334" /><rect
         style="fill:none;stroke:#666666;stroke-width:0.264999;stroke-opacity:1"
         id="rect102"
         width="5"
         height="5"
         x="55.1325"
         y="-21.903334" /><rect
         style="fill:none;stroke:#666666;stroke-width:0.264999;stroke-opacity:1"
         id="rect103"
         width="5"
         height="5"
         x="55.1325"
         y="-26.903334" /><circle
         style="fill:#a02c2c;fill-opacity:1;stroke:none;stroke-width:0.264999"
         id="circle103"
         cx="40.1325"
         cy="-6.9033327"
         r="1" /><circle
         style="fill:#a02c2c;fill-opacity:1;stroke:none;stroke-width:0.264999"
         id="circle104"
         cx="35.1325"
         cy="3.0966673"
         r="1" /><circle
         style="fill:#a02c2c;fill-opacity:1;stroke:none;stroke-width:0.264999"
         id="circle106"
         cx="5.1324997"
         cy="-6.9033327"
         r="1" /><path
         d="m 26.967773,-10.256679 v -7.34375 q 0,-1.21875 0.07031,-2.34375 -0.382813,1.398437 -0.6875,2.1875 l -2.84375,7.5 h -1.046875 l -2.882813,-7.5 -0.4375,-1.328125 -0.257812,-0.859375 0.02344,0.867187 0.03125,1.476563 v 7.34375 h -1.328125 v -11.007813 h 1.960938 l 2.929687,7.632813 q 0.15625,0.460937 0.296875,0.992187 0.148438,0.523438 0.195313,0.757813 0.0625,-0.3125 0.257812,-0.945313 0.203125,-0.640625 0.273438,-0.804687 l 2.875,-7.632813 h 1.914062 v 11.007813 z"
         id="text107"
         style="font-size:16px;line-height:0.85;font-family:Arimo;-inkscape-font-specification:Arimo;text-align:center;text-anchor:middle;white-space:pre;stroke-width:1.00157"
         transform="matrix(0.26458333,0,0,0.26458333,-3.4423234,-0.23334457)"
         aria-label="M" /><path
         d="m 25.635742,-10.256679 -5.890625,-9.375 0.03906,0.757812 0.03906,1.304688 v 7.3125 h -1.328125 v -11.007813 h 1.734375 l 5.953125,9.4375 q -0.09375,-1.53125 -0.09375,-2.21875 v -7.21875 h 1.34375 v 11.007813 z"
         id="text108"
         style="font-size:16px;line-height:0.85;font-family:Arimo;-inkscape-font-specification:Arimo;text-align:center;text-anchor:middle;white-space:pre;stroke-width:1.00157"
         transform="matrix(0.26458333,0,0,0.26458333,21.42851,-0.23334457)"
         aria-label="N" /><path
         d="m 27.452148,-17.951992 q 0,1.5625 -1.023437,2.484375 -1.015625,0.921875 -2.765625,0.921875 h -3.234375 v 4.289063 h -1.492188 v -11.007813 h 4.632813 q 1.851562,0 2.867187,0.867188 1.015625,0.867187 1.015625,2.445312 z m -1.5,0.01563 q 0,-2.132812 -2.5625,-2.132812 h -2.960937 v 4.34375 h 3.023437 q 2.5,0 2.5,-2.210938 z"
         id="text109"
         style="font-size:16px;line-height:0.85;font-family:Arimo;-inkscape-font-specification:Arimo;text-align:center;text-anchor:middle;white-space:pre;stroke-width:1.00157"
         transform="matrix(0.26458333,0,0,0.26458333,32.011844,-0.23334457)"
         aria-label="P" /><path
         d="m 19.823242,-10.256679 v -11.007813 h 1.492188 v 9.789063 h 5.5625 v 1.21875 z"
         id="text110"
         style="font-size:16px;line-height:0.85;font-family:Arimo;-inkscape-font-specification:Arimo;text-align:center;text-anchor:middle;white-space:pre;stroke-width:1.00157"
         transform="matrix(0.26458333,0,0,0.26458333,41.007677,-15.050011)"
         aria-label="L" /><path
         d="m 26.276367,-10.256679 -2.859375,-4.570313 h -3.429687 v 4.570313 h -1.492188 v -11.007813 h 5.179688 q 1.859375,0 2.867187,0.835938 1.015625,0.828125 1.015625,2.3125 0,1.226562 -0.71875,2.0625 -0.710937,0.835937 -1.96875,1.054687 l 3.125,4.742188 z m -0.21875,-7.84375 q 0,-0.960938 -0.65625,-1.460938 -0.648437,-0.507812 -1.875,-0.507812 h -3.539062 v 4.0625 h 3.601562 q 1.179688,0 1.820313,-0.546875 0.648437,-0.554688 0.648437,-1.546875 z"
         id="text111"
         style="font-size:16px;line-height:0.85;font-family:Arimo;-inkscape-font-specification:Arimo;text-align:center;text-anchor:middle;white-space:pre;stroke-width:1.00157"
         transform="matrix(0.26458333,0,0,0.26458333,30.95351,9.8208213)"
         aria-label="R" /><path
         style="fill:none;stroke:#000000;stroke-width:0.264999;stroke-opacity:1;marker-start:url(#Triangle)"
         d="M 47.936996,-23.89362 11.806021,3.0966672"
         id="path112"
         sodipodi:nodetypes="cc" /><circle
         style="fill:#a02c2c;fill-opacity:1;stroke:none;stroke-width:0.264999"
         id="circle107"
         cx="11.916668"
         cy="3.0966673"
         r="1" /><path
         d="M 13.993273,7.4866594 12.82952,6.0810605 12.449182,6.3704485 V 7.4866594 H 12.054374 V 4.5741756 h 0.394808 V 6.033518 l 1.403532,-1.4593424 h 0.465088 l -1.240235,1.265039 1.405599,1.6474448 z"
         id="text112"
         style="font-size:16px;line-height:0.85;font-family:Arimo;-inkscape-font-specification:Arimo;text-align:center;text-anchor:middle;white-space:pre;stroke-width:0.264999"
         aria-label="K" /><circle
         style="fill:#a02c2c;fill-opacity:1;stroke:none;stroke-width:0.264999"
         id="path2"
         cx="45.166985"
         cy="-21.903334"
         r="1" /><circle
         style="fill:#a02c2c;fill-opacity:1;stroke:none;stroke-width:0.264999"
         id="circle105"
         cx="25.1325"
         cy="-6.9033327"
         r="1" /></g></g></svg>
