<?xml version="1.0" encoding="UTF-8" standalone="no"?>
<!-- Created with Inkscape (http://www.inkscape.org/) -->

<svg
   width="340"
   height="340"
   viewBox="0 0 89.958328 89.958336"
   version="1.1"
   id="svg1"
   xml:space="preserve"
   inkscape:version="1.4 (e7c3feb100, 2024-10-09)"
   sodipodi:docname="s_3.svg"
   xmlns:inkscape="http://www.inkscape.org/namespaces/inkscape"
   xmlns:sodipodi="http://sodipodi.sourceforge.net/DTD/sodipodi-0.dtd"
   xmlns="http://www.w3.org/2000/svg"
   xmlns:svg="http://www.w3.org/2000/svg"><sodipodi:namedview
     id="namedview1"
     pagecolor="#ffffff"
     bordercolor="#000000"
     borderopacity="0.25"
     inkscape:showpageshadow="2"
     inkscape:pageopacity="0.0"
     inkscape:pagecheckerboard="0"
     inkscape:deskcolor="#d1d1d1"
     inkscape:document-units="mm"
     inkscape:zoom="2.4882353"
     inkscape:cx="169.39716"
     inkscape:cy="59.479905"
     inkscape:window-width="1870"
     inkscape:window-height="1054"
     inkscape:window-x="0"
     inkscape:window-y="0"
     inkscape:window-maximized="1"
     inkscape:current-layer="layer1" /><defs
     id="defs1"><rect
       x="7.2360754"
       y="0"
       width="90.450943"
       height="78.792824"
       id="rect8" /><rect
       x="4.8075223"
       y="-21.468073"
       width="36.30508"
       height="36.139305"
       id="rect107" /><rect
       x="19.102777"
       y="68.280945"
       width="35.021755"
       height="31.743317"
       id="rect4" /><rect
       x="293.1767"
       y="529.15662"
       width="119.48974"
       height="52.215397"
       id="rect44" /><rect
       x="293.1767"
       y="529.15662"
       width="119.48974"
       height="52.215397"
       id="rect45" /><rect
       x="293.1767"
       y="529.15662"
       width="119.48974"
       height="52.215397"
       id="rect46" /><rect
       x="19.102777"
       y="68.280945"
       width="35.021755"
       height="31.743317"
       id="rect5" /><rect
       x="19.102777"
       y="68.280945"
       width="35.021755"
       height="31.743317"
       id="rect6" /><rect
       x="19.102777"
       y="68.280945"
       width="35.021755"
       height="31.743317"
       id="rect7" /><rect
       x="4.8075223"
       y="-21.468073"
       width="36.30508"
       height="36.139305"
       id="rect108" /><rect
       x="4.8075223"
       y="-21.468073"
       width="36.30508"
       height="36.139305"
       id="rect109" /><rect
       x="4.8075223"
       y="-21.468073"
       width="36.30508"
       height="36.139305"
       id="rect110" /><rect
       x="4.8075223"
       y="-21.468073"
       width="36.30508"
       height="36.139305"
       id="rect111" /><rect
       x="4.8075223"
       y="-21.468073"
       width="36.30508"
       height="36.139305"
       id="rect112" /><rect
       x="7.2360754"
       y="0"
       width="90.450943"
       height="78.792824"
       id="rect9" /><rect
       x="7.2360754"
       y="0"
       width="90.450943"
       height="78.792824"
       id="rect10" /><rect
       x="7.2360754"
       y="0"
       width="90.450943"
       height="78.792824"
       id="rect11" /></defs><g
     inkscape:label="Katman 1"
     inkscape:groupmode="layer"
     id="layer1"><g
       id="g11"
       transform="scale(1.4869146)"><circle
         style="fill:none;stroke:#000000;stroke-width:0.5;stroke-dasharray:none"
         id="path1"
         cx="30.25"
         cy="30.25"
         r="30" /><circle
         style="fill:#000000;stroke:none;stroke-width:0.5;stroke-dasharray:none"
         id="circle1"
         cx="30.25"
         cy="30.25"
         r="1" /><path
         style="fill:none;stroke:#000000;stroke-width:0.499999;stroke-dasharray:none"
         d="M 8.1165411,50.501171 52.451325,10.073253"
         id="path2" /><path
         style="fill:none;stroke:#000000;stroke-width:0.499999;stroke-dasharray:none"
         d="M 30.283933,30.287211 8.9626815,9.1111714"
         id="path3" /><circle
         style="fill:#000000;stroke:none;stroke-width:0.5;stroke-dasharray:none"
         id="circle3"
         cx="8.9480915"
         cy="9.2425728"
         r="1" /><circle
         style="fill:#000000;stroke:none;stroke-width:0.5;stroke-dasharray:none"
         id="circle4"
         cx="52.401386"
         cy="10.215762"
         r="1" /><circle
         style="fill:#000000;stroke:none;stroke-width:0.5;stroke-dasharray:none"
         id="circle5"
         cx="8.0571556"
         cy="50.562912"
         r="1" /><path
         d="M 58.133789,16.818106 56.24707,11.989981 h -7.523437 l -1.898438,4.828125 H 44.504883 L 51.243164,0.30638768 h 2.542969 L 60.418945,16.818106 Z M 52.485352,1.9938877 52.379883,2.3220127 Q 52.086914,3.2946689 51.512695,4.8181064 L 49.40332,10.243888 h 6.175782 L 53.458008,4.7946689 q -0.328125,-0.8085937 -0.65625,-1.828125 z"
         id="text5"
         style="font-size:24px;line-height:0.85;font-family:Arimo;-inkscape-font-specification:Arimo;text-align:center;text-anchor:middle;white-space:pre;stroke-width:1.88976"
         transform="matrix(0.26458333,0,0,0.26458333,-6.8207855,3.170518)"
         aria-label="A" /><path
         d="m 59.200195,12.165763 q 0,2.203125 -1.605468,3.433593 -1.605469,1.21875 -4.464844,1.21875 H 46.426758 V 0.30638768 h 6 q 5.8125,0 5.8125,4.00781252 0,1.4648437 -0.820313,2.4609375 -0.820312,0.9960937 -2.320312,1.3359375 1.96875,0.234375 3.035156,1.3242187 1.066406,1.0781251 1.066406,2.7304691 z M 55.989258,4.5837314 q 0,-1.3359375 -0.914063,-1.9101562 -0.914062,-0.5742188 -2.648437,-0.5742188 h -3.761719 v 5.2265625 h 3.761719 q 1.792969,0 2.671875,-0.6679687 0.890625,-0.6796875 0.890625,-2.0742188 z m 0.949219,7.4062496 q 0,-2.9179683 -4.101563,-2.9179683 h -4.171875 v 5.9531253 h 4.347656 q 2.050782,0 2.988282,-0.761719 0.9375,-0.761719 0.9375,-2.273438 z"
         id="text9"
         style="font-size:24px;line-height:0.85;font-family:Arimo;-inkscape-font-specification:Arimo;text-align:center;text-anchor:middle;white-space:pre;stroke-width:1.88976"
         transform="matrix(0.26458333,0,0,0.26458333,42.134902,5.3548808)"
         aria-label="B" /><path
         d="m 53.077148,1.8884189 q -2.742187,0 -4.265625,1.7695313 -1.523437,1.7578125 -1.523437,4.828125 0,3.0351558 1.582031,4.8867188 1.59375,1.839844 4.300781,1.839844 3.46875,0 5.214844,-3.433594 l 1.828125,0.914062 q -1.019531,2.132813 -2.871094,3.246094 -1.839843,1.113281 -4.277343,1.113281 -2.496094,0 -4.324219,-1.03125 -1.816406,-1.042968 -2.777344,-2.964843 -0.949219,-1.933594 -0.949219,-4.5703128 0,-3.9492188 2.132813,-6.1875 2.132812,-2.23828127 5.90625,-2.23828127 2.636719,0 4.40625,1.03124997 1.769531,1.03125 2.601562,3.0585938 L 57.94043,4.8532627 Q 57.366211,3.4118564 56.088867,2.6501377 54.823242,1.8884189 53.077148,1.8884189 Z"
         id="text10"
         style="font-size:24px;line-height:0.85;font-family:Arimo;-inkscape-font-specification:Arimo;text-align:center;text-anchor:middle;white-space:pre;stroke-width:1.88976"
         transform="matrix(0.26458333,0,0,0.26458333,-7.8584483,51.830147)"
         aria-label="C" /><path
         d="m 60.647461,8.4860752 q 0,2.5898438 -0.996094,4.5351558 -0.984375,1.945313 -2.835937,2.988282 -1.851563,1.042968 -4.371094,1.042968 -2.542969,0 -4.394531,-1.03125 -1.839844,-1.03125 -2.8125,-2.976562 -0.972657,-1.957031 -0.972657,-4.5585938 0,-3.9609375 2.167969,-6.1875 2.167969,-2.23828127 6.035156,-2.23828127 2.519532,0 4.371094,1.00781247 1.851563,0.9960938 2.824219,2.90625 0.984375,1.9101563 0.984375,4.5117188 z m -2.285156,0 q 0,-3.0820313 -1.546875,-4.8398438 -1.535157,-1.7578125 -4.347657,-1.7578125 -2.835937,0 -4.382812,1.734375 -1.546875,1.734375 -1.546875,4.8632813 0,3.1054688 1.558594,4.9335938 1.570312,1.816406 4.347656,1.816406 2.859375,0 4.382812,-1.757812 1.535157,-1.769532 1.535157,-4.9921878 z"
         id="text11"
         style="font-size:24px;line-height:0.85;font-family:Arimo;-inkscape-font-specification:Arimo;text-align:center;text-anchor:middle;white-space:pre;stroke-width:1.88976"
         transform="matrix(0.26458333,0,0,0.26458333,18.810707,31.234047)"
         aria-label="O" /></g></g></svg>
