<?xml version="1.0" encoding="UTF-8" standalone="no"?>
<!-- Created with Inkscape (http://www.inkscape.org/) -->

<svg
   width="817.56201"
   height="137.59801"
   viewBox="0 0 216.31327 36.40614"
   version="1.1"
   id="svg1"
   xml:space="preserve"
   inkscape:version="1.4 (e7c3feb100, 2024-10-09)"
   sodipodi:docname="s_4.svg"
   xmlns:inkscape="http://www.inkscape.org/namespaces/inkscape"
   xmlns:sodipodi="http://sodipodi.sourceforge.net/DTD/sodipodi-0.dtd"
   xmlns="http://www.w3.org/2000/svg"
   xmlns:svg="http://www.w3.org/2000/svg"><sodipodi:namedview
     id="namedview1"
     pagecolor="#ffffff"
     bordercolor="#000000"
     borderopacity="0.25"
     inkscape:showpageshadow="2"
     inkscape:pageopacity="0.0"
     inkscape:pagecheckerboard="0"
     inkscape:deskcolor="#d1d1d1"
     inkscape:document-units="mm"
     inkscape:zoom="1.1977334"
     inkscape:cx="422.88209"
     inkscape:cy="187.01992"
     inkscape:window-width="1870"
     inkscape:window-height="1054"
     inkscape:window-x="0"
     inkscape:window-y="0"
     inkscape:window-maximized="1"
     inkscape:current-layer="layer1" /><defs
     id="defs1"><rect
       x="39.689873"
       y="10.273359"
       width="68.216965"
       height="67.245918"
       id="rect1" /><rect
       x="7.2360754"
       y="0"
       width="90.450943"
       height="78.792824"
       id="rect8" /><rect
       x="4.8075223"
       y="-21.468073"
       width="36.30508"
       height="36.139305"
       id="rect107" /><rect
       x="19.102777"
       y="68.280945"
       width="35.021755"
       height="31.743317"
       id="rect4" /><rect
       x="293.1767"
       y="529.15662"
       width="119.48974"
       height="52.215397"
       id="rect44" /><rect
       x="293.1767"
       y="529.15662"
       width="119.48974"
       height="52.215397"
       id="rect45" /><rect
       x="293.1767"
       y="529.15662"
       width="119.48974"
       height="52.215397"
       id="rect46" /><rect
       x="19.102777"
       y="68.280945"
       width="35.021755"
       height="31.743317"
       id="rect5" /><rect
       x="19.102777"
       y="68.280945"
       width="35.021755"
       height="31.743317"
       id="rect6" /><rect
       x="19.102777"
       y="68.280945"
       width="35.021755"
       height="31.743317"
       id="rect7" /><rect
       x="4.8075223"
       y="-21.468073"
       width="36.30508"
       height="36.139305"
       id="rect108" /><rect
       x="4.8075223"
       y="-21.468073"
       width="36.30508"
       height="36.139305"
       id="rect109" /><rect
       x="4.8075223"
       y="-21.468073"
       width="36.30508"
       height="36.139305"
       id="rect110" /><rect
       x="4.8075223"
       y="-21.468073"
       width="36.30508"
       height="36.139305"
       id="rect111" /><rect
       x="4.8075223"
       y="-21.468073"
       width="36.30508"
       height="36.139305"
       id="rect112" /><rect
       x="7.2360754"
       y="0"
       width="90.450943"
       height="78.792824"
       id="rect9" /><rect
       x="7.2360754"
       y="0"
       width="90.450943"
       height="78.792824"
       id="rect10" /><rect
       x="7.2360754"
       y="0"
       width="90.450943"
       height="78.792824"
       id="rect11" /><rect
       x="39.689873"
       y="10.273359"
       width="362.1701"
       height="345.07501"
       id="rect2" /><rect
       x="39.689873"
       y="10.273359"
       width="68.216965"
       height="67.245918"
       id="rect12" /><rect
       x="39.689873"
       y="10.273359"
       width="362.1701"
       height="345.07501"
       id="rect13" /><rect
       x="39.689873"
       y="10.273359"
       width="68.216965"
       height="67.245918"
       id="rect14" /><rect
       x="39.689873"
       y="10.273359"
       width="362.1701"
       height="345.07501"
       id="rect15" /><rect
       x="39.689873"
       y="10.273359"
       width="68.216965"
       height="67.245918"
       id="rect16" /><rect
       x="39.689873"
       y="10.273359"
       width="362.1701"
       height="345.07501"
       id="rect17" /></defs><g
     inkscape:label="Katman 1"
     inkscape:groupmode="layer"
     id="layer1"><path
       d="M 6.0099841,8.3282968 5.1779915,6.1992222 H 1.8603563 L 1.0231958,8.3282968 H 0 L 2.9714022,1.047069 H 4.0927838 L 7.0176771,8.3282968 Z M 3.5191739,1.7912115 3.472665,1.9359059 Q 3.3434734,2.3648212 3.0902583,3.0366166 L 2.1600802,5.4292416 H 4.8834351 L 3.9480894,3.0262812 Q 3.803395,2.669713 3.6587007,2.2201268 Z m 6.3872232,3.8085627 q 0,1.4934525 -0.4702568,2.6820136 -0.465089,1.188561 -1.4366083,2.2375952 H 7.1003596 Q 8.071879,9.4341748 8.5214652,8.2352788 8.9710513,7.0312148 8.9710513,5.5894387 q 0,-1.4417759 -0.4547537,-2.64584 Q 8.0667114,1.7395348 7.1003596,0.6594947 H 7.999532 q 0.9766869,1.0542019 1.4417759,2.2479306 0.4650892,1.1885608 0.4650892,2.6716782 z"
       id="text1"
       style="font-size:40px;line-height:0.85;font-family:Arimo;-inkscape-font-specification:Arimo;text-align:center;text-anchor:middle;white-space:pre;stroke-width:0.5"
       aria-label="A)" /><path
       d="M 44.861367,36.406138 V 12.118154 q 0,-4.0307722 0.232546,-7.7514845 -1.266077,4.6250523 -2.273769,7.2347195 l -9.405136,24.804749 h -3.46233 L 20.418354,11.601389 18.97141,7.2088805 18.118746,4.3666695 18.196256,7.2347188 18.29961,12.118154 V 36.406138 H 13.9071 V 0 h 6.485409 l 9.689358,25.244 q 0.516764,1.524459 0.981852,3.281464 0.490928,1.731165 0.645958,2.506311 0.206707,-1.033531 0.852665,-3.12643 0.671794,-2.118739 0.904337,-2.661345 L 42.975172,0 h 6.330381 v 36.406138 z"
       id="text2"
       style="font-size:200px;line-height:0.85;font-family:Arimo;-inkscape-font-specification:Arimo;text-align:center;text-anchor:middle;white-space:pre;fill:#800000;stroke-width:0.5"
       aria-label="M" /><path
       d="m 64.688724,6.2767371 q 0,0.9715194 -0.707969,1.5141237 -0.707968,0.537436 -1.968877,0.537436 H 59.055979 V 1.047069 h 2.64584 q 2.563158,0 2.563158,1.7673383 0,0.645957 -0.361737,1.085208 -0.361735,0.4392507 -1.023195,0.5891127 0.868166,0.1033531 1.338422,0.5839451 0.470257,0.4754244 0.470257,1.204064 z M 63.272787,2.9332635 q 0,-0.589113 -0.403078,-0.842328 -0.403077,-0.2532151 -1.16789,-0.2532151 h -1.658818 v 2.3047745 h 1.658818 q 0.790651,0 1.178226,-0.2945563 0.392742,-0.2997239 0.392742,-0.9146751 z m 0.41858,3.2659587 q 0,-1.2867463 -1.80868,-1.2867463 h -1.839686 v 2.6251693 h 1.917201 q 0.90434,0 1.317752,-0.3358978 0.413413,-0.3358976 0.413413,-1.0025252 z m 4.423513,-0.599448 q 0,1.4934525 -0.470256,2.6820136 -0.465089,1.188561 -1.436609,2.2375952 h -0.899172 q 0.971519,-1.0852082 1.421106,-2.2841042 0.449586,-1.204064 0.449586,-2.6458401 0,-1.4417759 -0.454754,-2.64584 -0.449586,-1.2040639 -1.415938,-2.284104 h 0.899172 q 0.976687,1.0542019 1.441776,2.2479306 0.465089,1.1885608 0.465089,2.6716782 z"
       id="text3"
       style="font-size:40px;line-height:0.85;font-family:Arimo;-inkscape-font-specification:Arimo;text-align:center;text-anchor:middle;white-space:pre;stroke-width:0.5"
       aria-label="B)" /><path
       d="M 100.20387,36.406138 96.043904,25.760767 H 79.455728 L 75.269927,36.406138 H 70.153946 L 85.010957,0 h 5.606908 L 105.24234,36.406138 Z M 87.749817,3.7207126 87.517272,4.4441844 Q 86.871313,6.5887618 85.605239,9.9477388 L 80.954347,21.910863 H 94.571123 L 89.894395,9.8960618 Q 89.170922,8.1132208 88.447451,5.86529 Z"
       id="text4"
       style="font-size:200px;line-height:0.85;font-family:Arimo;-inkscape-font-specification:Arimo;text-align:center;text-anchor:middle;white-space:pre;fill:#338000;stroke-width:0.5"
       aria-label="A" /><path
       d="m 120.19711,1.7447024 q -1.20923,0 -1.88103,0.7803162 -0.67179,0.7751486 -0.67179,2.1290744 0,1.338423 0.69763,2.1549125 0.7028,0.8113222 1.89653,0.8113222 1.52963,0 2.29961,-1.5141235 l 0.80615,0.4030774 q -0.44958,0.9405133 -1.26607,1.4314412 -0.81132,0.490927 -1.8862,0.490927 -1.10071,0 -1.90686,-0.454754 -0.80099,-0.4599212 -1.22474,-1.3074168 -0.41858,-0.8526634 -0.41858,-2.015386 0,-1.7415001 0.94052,-2.7285225 0.94051,-0.9870225 2.6045,-0.9870225 1.16272,0 1.94304,0.4547538 0.78031,0.4547537 1.14721,1.3487585 l -0.93534,0.3100594 Q 122.08847,2.4164979 121.5252,2.0806003 120.96709,1.7447024 120.19711,1.7447024 Z m 6.41823,3.8550718 q 0,1.4934525 -0.47026,2.6820136 -0.46508,1.188561 -1.4366,2.2375952 h -0.89918 q 0.97152,-1.0852082 1.42111,-2.2841042 0.44959,-1.204064 0.44959,-2.6458401 0,-1.4417759 -0.45476,-2.64584 -0.44958,-1.2040639 -1.41594,-2.284104 h 0.89918 q 0.97668,1.0542019 1.44177,2.2479306 0.46509,1.1885608 0.46509,2.6716782 z"
       id="text13"
       style="font-size:40px;line-height:0.85;font-family:Arimo;-inkscape-font-specification:Arimo;text-align:center;text-anchor:middle;white-space:pre;stroke-width:0.5"
       aria-label="C)" /><path
       d="M 147.29001,4.0307719 V 36.406138 h -4.90928 V 4.0307719 H 129.87501 V 0 h 29.92073 v 4.0307719 z"
       id="text14"
       style="font-size:200px;line-height:0.85;font-family:Arimo;-inkscape-font-specification:Arimo;text-align:center;text-anchor:middle;white-space:pre;fill:#504416;stroke-width:0.5"
       aria-label="T" /><path
       d="m 181.44938,4.6127517 q 0,1.1265492 -0.43925,1.9740448 -0.43925,0.8423277 -1.24541,1.2919143 -0.80615,0.449586 -1.86035,0.449586 h -2.72336 V 1.047069 h 2.40813 q 1.85002,0 2.85255,0.9301782 1.00769,0.9250102 1.00769,2.6355045 z m -0.99219,0 q 0,-1.3539258 -0.74414,-2.0618949 -0.73898,-0.7131364 -2.14458,-0.7131364 h -1.40044 v 5.6999248 h 1.62265 q 0.80099,0 1.4056,-0.3514006 0.60978,-0.3514006 0.93535,-1.0128606 0.32556,-0.6614599 0.32556,-1.5606323 z m 4.36667,0.9870225 q 0,1.4934525 -0.47026,2.6820136 -0.46509,1.188561 -1.43661,2.2375952 h -0.89917 q 0.97152,-1.0852082 1.42111,-2.2841042 0.44958,-1.204064 0.44958,-2.6458401 0,-1.4417759 -0.45475,-2.64584 -0.44959,-1.2040639 -1.41594,-2.284104 h 0.89917 q 0.97669,1.0542019 1.44178,2.2479306 0.46509,1.1885608 0.46509,2.6716782 z"
       id="text15"
       style="font-size:40px;line-height:0.85;font-family:Arimo;-inkscape-font-specification:Arimo;text-align:center;text-anchor:middle;white-space:pre;stroke-width:0.5"
       aria-label="D)" /><path
       d="M 187.63342,36.406138 V 0 h 27.62112 V 4.0307719 H 192.56853 V 15.709675 h 21.13571 v 3.979096 h -21.13571 v 12.686596 h 23.74538 v 4.030771 z"
       id="text16"
       style="font-size:200px;line-height:0.85;font-family:Arimo;-inkscape-font-specification:Arimo;text-align:center;text-anchor:middle;white-space:pre;fill:#214478;stroke-width:0.5"
       aria-label="E" /></g></svg>
