<?xml version="1.0" encoding="UTF-8" standalone="no"?>
<!-- Created with Inkscape (http://www.inkscape.org/) -->

<svg
   width="337.25299"
   height="300"
   viewBox="0 0 89.231516 79.375002"
   version="1.1"
   id="svg1"
   xml:space="preserve"
   inkscape:version="1.4 (e7c3feb100, 2024-10-09)"
   sodipodi:docname="s_5.svg"
   xmlns:inkscape="http://www.inkscape.org/namespaces/inkscape"
   xmlns:sodipodi="http://sodipodi.sourceforge.net/DTD/sodipodi-0.dtd"
   xmlns="http://www.w3.org/2000/svg"
   xmlns:svg="http://www.w3.org/2000/svg"><sodipodi:namedview
     id="namedview1"
     pagecolor="#ffffff"
     bordercolor="#000000"
     borderopacity="0.25"
     inkscape:showpageshadow="2"
     inkscape:pageopacity="0.0"
     inkscape:pagecheckerboard="0"
     inkscape:deskcolor="#d1d1d1"
     inkscape:document-units="mm"
     inkscape:zoom="0.94173193"
     inkscape:cx="35.572756"
     inkscape:cy="221.93152"
     inkscape:window-width="1336"
     inkscape:window-height="1032"
     inkscape:window-x="0"
     inkscape:window-y="0"
     inkscape:window-maximized="0"
     inkscape:current-layer="layer1" /><defs
     id="defs1"><marker
       style="overflow:visible"
       id="marker84"
       refX="0"
       refY="0"
       orient="auto-start-reverse"
       inkscape:stockid="Triangle arrow"
       markerWidth="1"
       markerHeight="1"
       viewBox="0 0 1 1"
       inkscape:isstock="true"
       inkscape:collect="always"
       preserveAspectRatio="xMidYMid"><path
         transform="scale(0.5)"
         style="fill:context-stroke;fill-rule:evenodd;stroke:context-stroke;stroke-width:1pt"
         d="M 5.77,0 -2.88,5 V -5 Z"
         id="path84" /></marker><marker
       style="overflow:visible"
       id="Triangle"
       refX="0"
       refY="0"
       orient="auto-start-reverse"
       inkscape:stockid="Triangle arrow"
       markerWidth="1"
       markerHeight="1"
       viewBox="0 0 1 1"
       inkscape:isstock="true"
       inkscape:collect="always"
       preserveAspectRatio="xMidYMid"><path
         transform="scale(0.5)"
         style="fill:context-stroke;fill-rule:evenodd;stroke:context-stroke;stroke-width:1pt"
         d="M 5.77,0 -2.88,5 V -5 Z"
         id="path135" /></marker><rect
       x="-250.24031"
       y="-100.90335"
       width="753.41168"
       height="707.66882"
       id="rect80" /><rect
       x="4.8075223"
       y="-21.468073"
       width="36.30508"
       height="36.139305"
       id="rect107" /><rect
       x="19.102777"
       y="68.280945"
       width="35.021755"
       height="31.743317"
       id="rect4" /><rect
       x="293.1767"
       y="529.15662"
       width="119.48974"
       height="52.215397"
       id="rect44" /><rect
       x="293.1767"
       y="529.15662"
       width="119.48974"
       height="52.215397"
       id="rect45" /><rect
       x="293.1767"
       y="529.15662"
       width="119.48974"
       height="52.215397"
       id="rect46" /><rect
       x="19.102777"
       y="68.280945"
       width="35.021755"
       height="31.743317"
       id="rect5" /><rect
       x="19.102777"
       y="68.280945"
       width="35.021755"
       height="31.743317"
       id="rect6" /><rect
       x="19.102777"
       y="68.280945"
       width="35.021755"
       height="31.743317"
       id="rect7" /><rect
       x="4.8075223"
       y="-21.468073"
       width="36.30508"
       height="36.139305"
       id="rect108" /><rect
       x="4.8075223"
       y="-21.468073"
       width="36.30508"
       height="36.139305"
       id="rect109" /><rect
       x="4.8075223"
       y="-21.468073"
       width="36.30508"
       height="36.139305"
       id="rect110" /><rect
       x="4.8075223"
       y="-21.468073"
       width="36.30508"
       height="36.139305"
       id="rect111" /><rect
       x="4.8075223"
       y="-21.468073"
       width="36.30508"
       height="36.139305"
       id="rect112" /><rect
       x="-250.24031"
       y="-100.90335"
       width="753.41168"
       height="707.66882"
       id="rect81" /><rect
       x="-250.24031"
       y="-100.90335"
       width="753.41168"
       height="707.66882"
       id="rect82" /><rect
       x="-250.24031"
       y="-100.90335"
       width="753.41168"
       height="707.66882"
       id="rect83" /></defs><g
     inkscape:label="Katman 1"
     inkscape:groupmode="layer"
     id="layer1"><path
       d="m 127.28613,-98.386405 q -3.65625,0 -5.6875,2.359375 -2.03125,2.34375 -2.03125,6.4375 0,4.046875 2.10938,6.515625 2.125,2.453125 5.73437,2.453125 4.625,0 6.95313,-4.578125 l 2.4375,1.21875 q -1.35938,2.84375 -3.82813,4.328125 -2.45312,1.484375 -5.70312,1.484375 -3.32813,0 -5.76563,-1.375 -2.42187,-1.390625 -3.70312,-3.953125 -1.26563,-2.578125 -1.26563,-6.09375 0,-5.265625 2.84375,-8.25 2.84375,-2.98437 7.875,-2.98437 3.51563,0 5.875,1.374995 2.35938,1.375 3.46875,4.078125 l -2.82812,0.9375 q -0.76563,-1.921875 -2.46875,-2.9375 -1.6875,-1.015625 -4.01563,-1.015625 z"
       id="text83"
       style="font-size:32px;line-height:0.85;font-family:Arimo;-inkscape-font-specification:Arimo;text-align:center;text-anchor:middle;white-space:pre;stroke-width:1.88976"
       transform="matrix(0.26458333,0,0,0.26458333,-18.541904,67.827258)"
       aria-label="C" /><rect
       style="fill:none;stroke:#666666;stroke-width:0.522397;stroke-opacity:1"
       id="rect1"
       width="9.856575"
       height="9.856575"
       x="0.26119831"
       y="69.257225" /><rect
       style="fill:none;stroke:#666666;stroke-width:0.522397;stroke-opacity:1"
       id="rect2"
       width="9.856575"
       height="9.856575"
       x="0.26119831"
       y="59.400654" /><rect
       style="fill:none;stroke:#666666;stroke-width:0.522397;stroke-opacity:1"
       id="rect3"
       width="9.856575"
       height="9.856575"
       x="0.26119831"
       y="49.544079" /><rect
       style="fill:none;stroke:#666666;stroke-width:0.522397;stroke-opacity:1"
       id="rect8"
       width="9.856575"
       height="9.856575"
       x="0.26119831"
       y="39.687504" /><rect
       style="fill:none;stroke:#666666;stroke-width:0.522397;stroke-opacity:1"
       id="rect9"
       width="9.856575"
       height="9.856575"
       x="0.26119831"
       y="29.830927" /><rect
       style="fill:none;stroke:#666666;stroke-width:0.522397;stroke-opacity:1"
       id="rect10"
       width="9.856575"
       height="9.856575"
       x="0.26119831"
       y="19.97435" /><rect
       style="fill:none;stroke:#666666;stroke-width:0.522397;stroke-opacity:1"
       id="rect11"
       width="9.856575"
       height="9.856575"
       x="0.26119831"
       y="10.117776" /><rect
       style="fill:none;stroke:#666666;stroke-width:0.522397;stroke-opacity:1"
       id="rect12"
       width="9.856575"
       height="9.856575"
       x="0.26119831"
       y="0.26120079" /><rect
       style="fill:none;stroke:#666666;stroke-width:0.522397;stroke-opacity:1"
       id="rect13"
       width="9.856575"
       height="9.856575"
       x="10.117774"
       y="69.257225" /><rect
       style="fill:none;stroke:#666666;stroke-width:0.522397;stroke-opacity:1"
       id="rect14"
       width="9.856575"
       height="9.856575"
       x="10.117774"
       y="59.400654" /><rect
       style="fill:none;stroke:#666666;stroke-width:0.522397;stroke-opacity:1"
       id="rect15"
       width="9.856575"
       height="9.856575"
       x="10.117774"
       y="49.544079" /><rect
       style="fill:none;stroke:#666666;stroke-width:0.522397;stroke-opacity:1"
       id="rect16"
       width="9.856575"
       height="9.856575"
       x="10.117774"
       y="39.687504" /><rect
       style="fill:none;stroke:#666666;stroke-width:0.522397;stroke-opacity:1"
       id="rect17"
       width="9.856575"
       height="9.856575"
       x="10.117774"
       y="29.830927" /><rect
       style="fill:none;stroke:#666666;stroke-width:0.522397;stroke-opacity:1"
       id="rect18"
       width="9.856575"
       height="9.856575"
       x="10.117774"
       y="19.97435" /><rect
       style="fill:none;stroke:#666666;stroke-width:0.522397;stroke-opacity:1"
       id="rect19"
       width="9.856575"
       height="9.856575"
       x="10.117774"
       y="10.117776" /><rect
       style="fill:none;stroke:#666666;stroke-width:0.522397;stroke-opacity:1"
       id="rect20"
       width="9.856575"
       height="9.856575"
       x="10.117774"
       y="0.26120079" /><rect
       style="fill:none;stroke:#666666;stroke-width:0.522397;stroke-opacity:1"
       id="rect21"
       width="9.856575"
       height="9.856575"
       x="19.974348"
       y="69.257225" /><rect
       style="fill:none;stroke:#666666;stroke-width:0.522397;stroke-opacity:1"
       id="rect22"
       width="9.856575"
       height="9.856575"
       x="19.974348"
       y="59.400654" /><rect
       style="fill:none;stroke:#666666;stroke-width:0.522397;stroke-opacity:1"
       id="rect23"
       width="9.856575"
       height="9.856575"
       x="19.974348"
       y="49.544079" /><rect
       style="fill:none;stroke:#666666;stroke-width:0.522397;stroke-opacity:1"
       id="rect24"
       width="9.856575"
       height="9.856575"
       x="19.974348"
       y="39.687504" /><rect
       style="fill:none;stroke:#666666;stroke-width:0.522397;stroke-opacity:1"
       id="rect25"
       width="9.856575"
       height="9.856575"
       x="19.974348"
       y="29.830927" /><rect
       style="fill:none;stroke:#666666;stroke-width:0.522397;stroke-opacity:1"
       id="rect26"
       width="9.856575"
       height="9.856575"
       x="19.974348"
       y="19.97435" /><rect
       style="fill:none;stroke:#666666;stroke-width:0.522397;stroke-opacity:1"
       id="rect27"
       width="9.856575"
       height="9.856575"
       x="19.974348"
       y="10.117776" /><rect
       style="fill:none;stroke:#666666;stroke-width:0.522397;stroke-opacity:1"
       id="rect28"
       width="9.856575"
       height="9.856575"
       x="19.974348"
       y="0.26120079" /><rect
       style="fill:none;stroke:#666666;stroke-width:0.522397;stroke-opacity:1"
       id="rect29"
       width="9.856575"
       height="9.856575"
       x="29.830923"
       y="69.257225" /><rect
       style="fill:none;stroke:#666666;stroke-width:0.522397;stroke-opacity:1"
       id="rect30"
       width="9.856575"
       height="9.856575"
       x="29.830923"
       y="59.400654" /><rect
       style="fill:none;stroke:#666666;stroke-width:0.522397;stroke-opacity:1"
       id="rect31"
       width="9.856575"
       height="9.856575"
       x="29.830923"
       y="49.544079" /><rect
       style="fill:none;stroke:#666666;stroke-width:0.522397;stroke-opacity:1"
       id="rect32"
       width="9.856575"
       height="9.856575"
       x="29.830923"
       y="39.687504" /><rect
       style="fill:none;stroke:#666666;stroke-width:0.522397;stroke-opacity:1"
       id="rect33"
       width="9.856575"
       height="9.856575"
       x="29.830923"
       y="29.830927" /><rect
       style="fill:none;stroke:#666666;stroke-width:0.522397;stroke-opacity:1"
       id="rect34"
       width="9.856575"
       height="9.856575"
       x="29.830923"
       y="19.97435" /><rect
       style="fill:none;stroke:#666666;stroke-width:0.522397;stroke-opacity:1"
       id="rect35"
       width="9.856575"
       height="9.856575"
       x="29.830923"
       y="10.117776" /><rect
       style="fill:none;stroke:#666666;stroke-width:0.522397;stroke-opacity:1"
       id="rect36"
       width="9.856575"
       height="9.856575"
       x="29.830923"
       y="0.26120079" /><rect
       style="fill:none;stroke:#666666;stroke-width:0.522397;stroke-opacity:1"
       id="rect37"
       width="9.856575"
       height="9.856575"
       x="39.6875"
       y="69.257225" /><rect
       style="fill:none;stroke:#666666;stroke-width:0.522397;stroke-opacity:1"
       id="rect38"
       width="9.856575"
       height="9.856575"
       x="39.6875"
       y="59.400654" /><rect
       style="fill:none;stroke:#666666;stroke-width:0.522397;stroke-opacity:1"
       id="rect39"
       width="9.856575"
       height="9.856575"
       x="39.6875"
       y="49.544079" /><rect
       style="fill:none;stroke:#666666;stroke-width:0.522397;stroke-opacity:1"
       id="rect40"
       width="9.856575"
       height="9.856575"
       x="39.6875"
       y="39.687504" /><rect
       style="fill:none;stroke:#666666;stroke-width:0.522397;stroke-opacity:1"
       id="rect41"
       width="9.856575"
       height="9.856575"
       x="39.6875"
       y="29.830927" /><rect
       style="fill:none;stroke:#666666;stroke-width:0.522397;stroke-opacity:1"
       id="rect42"
       width="9.856575"
       height="9.856575"
       x="39.6875"
       y="19.97435" /><rect
       style="fill:none;stroke:#666666;stroke-width:0.522397;stroke-opacity:1"
       id="rect43"
       width="9.856575"
       height="9.856575"
       x="39.6875"
       y="10.117776" /><rect
       style="fill:none;stroke:#666666;stroke-width:0.522397;stroke-opacity:1"
       id="rect47"
       width="9.856575"
       height="9.856575"
       x="39.6875"
       y="0.26120079" /><rect
       style="fill:none;stroke:#666666;stroke-width:0.522397;stroke-opacity:1"
       id="rect48"
       width="9.856575"
       height="9.856575"
       x="49.544075"
       y="69.257225" /><rect
       style="fill:none;stroke:#666666;stroke-width:0.522397;stroke-opacity:1"
       id="rect49"
       width="9.856575"
       height="9.856575"
       x="49.544075"
       y="59.400654" /><rect
       style="fill:none;stroke:#666666;stroke-width:0.522397;stroke-opacity:1"
       id="rect50"
       width="9.856575"
       height="9.856575"
       x="49.544075"
       y="49.544079" /><rect
       style="fill:none;stroke:#666666;stroke-width:0.522397;stroke-opacity:1"
       id="rect51"
       width="9.856575"
       height="9.856575"
       x="49.544075"
       y="39.687504" /><rect
       style="fill:none;stroke:#666666;stroke-width:0.522397;stroke-opacity:1"
       id="rect52"
       width="9.856575"
       height="9.856575"
       x="49.544075"
       y="29.830927" /><rect
       style="fill:none;stroke:#666666;stroke-width:0.522397;stroke-opacity:1"
       id="rect53"
       width="9.856575"
       height="9.856575"
       x="49.544075"
       y="19.97435" /><rect
       style="fill:none;stroke:#666666;stroke-width:0.522397;stroke-opacity:1"
       id="rect54"
       width="9.856575"
       height="9.856575"
       x="49.544075"
       y="10.117776" /><rect
       style="fill:none;stroke:#666666;stroke-width:0.522397;stroke-opacity:1"
       id="rect55"
       width="9.856575"
       height="9.856575"
       x="49.544075"
       y="0.26120079" /><rect
       style="fill:none;stroke:#666666;stroke-width:0.522397;stroke-opacity:1"
       id="rect56"
       width="9.856575"
       height="9.856575"
       x="59.40065"
       y="69.257225" /><rect
       style="fill:none;stroke:#666666;stroke-width:0.522397;stroke-opacity:1"
       id="rect57"
       width="9.856575"
       height="9.856575"
       x="59.40065"
       y="59.400654" /><rect
       style="fill:none;stroke:#666666;stroke-width:0.522397;stroke-opacity:1"
       id="rect58"
       width="9.856575"
       height="9.856575"
       x="59.40065"
       y="49.544079" /><rect
       style="fill:none;stroke:#666666;stroke-width:0.522397;stroke-opacity:1"
       id="rect59"
       width="9.856575"
       height="9.856575"
       x="59.40065"
       y="39.687504" /><rect
       style="fill:none;stroke:#666666;stroke-width:0.522397;stroke-opacity:1"
       id="rect60"
       width="9.856575"
       height="9.856575"
       x="59.40065"
       y="29.830927" /><rect
       style="fill:none;stroke:#666666;stroke-width:0.522397;stroke-opacity:1"
       id="rect61"
       width="9.856575"
       height="9.856575"
       x="59.40065"
       y="19.97435" /><rect
       style="fill:none;stroke:#666666;stroke-width:0.522397;stroke-opacity:1"
       id="rect62"
       width="9.856575"
       height="9.856575"
       x="59.40065"
       y="10.117776" /><rect
       style="fill:none;stroke:#666666;stroke-width:0.522397;stroke-opacity:1"
       id="rect63"
       width="9.856575"
       height="9.856575"
       x="59.40065"
       y="0.26120079" /><rect
       style="fill:none;stroke:#666666;stroke-width:0.522397;stroke-opacity:1"
       id="rect64"
       width="9.856575"
       height="9.856575"
       x="69.257225"
       y="69.257225" /><rect
       style="fill:none;stroke:#666666;stroke-width:0.522397;stroke-opacity:1"
       id="rect65"
       width="9.856575"
       height="9.856575"
       x="69.257225"
       y="59.400654" /><rect
       style="fill:none;stroke:#666666;stroke-width:0.522397;stroke-opacity:1"
       id="rect66"
       width="9.856575"
       height="9.856575"
       x="69.257225"
       y="49.544079" /><rect
       style="fill:none;stroke:#666666;stroke-width:0.522397;stroke-opacity:1"
       id="rect67"
       width="9.856575"
       height="9.856575"
       x="69.257225"
       y="39.687504" /><rect
       style="fill:none;stroke:#666666;stroke-width:0.522397;stroke-opacity:1"
       id="rect68"
       width="9.856575"
       height="9.856575"
       x="69.257225"
       y="29.830927" /><rect
       style="fill:none;stroke:#666666;stroke-width:0.522397;stroke-opacity:1"
       id="rect69"
       width="9.856575"
       height="9.856575"
       x="69.257225"
       y="19.97435" /><rect
       style="fill:none;stroke:#666666;stroke-width:0.522397;stroke-opacity:1"
       id="rect70"
       width="9.856575"
       height="9.856575"
       x="69.257225"
       y="10.117776" /><rect
       style="fill:none;stroke:#666666;stroke-width:0.522397;stroke-opacity:1"
       id="rect71"
       width="9.856575"
       height="9.856575"
       x="69.257225"
       y="0.26120079" /><rect
       style="fill:none;stroke:#666666;stroke-width:0.522397;stroke-opacity:1"
       id="rect72"
       width="9.856575"
       height="9.856575"
       x="79.1138"
       y="69.257225" /><rect
       style="fill:none;stroke:#666666;stroke-width:0.522397;stroke-opacity:1"
       id="rect73"
       width="9.856575"
       height="9.856575"
       x="79.1138"
       y="59.400654" /><rect
       style="fill:none;stroke:#666666;stroke-width:0.522397;stroke-opacity:1"
       id="rect74"
       width="9.856575"
       height="9.856575"
       x="79.1138"
       y="49.544079" /><rect
       style="fill:none;stroke:#666666;stroke-width:0.522397;stroke-opacity:1"
       id="rect75"
       width="9.856575"
       height="9.856575"
       x="79.1138"
       y="39.687504" /><rect
       style="fill:none;stroke:#666666;stroke-width:0.522397;stroke-opacity:1"
       id="rect76"
       width="9.856575"
       height="9.856575"
       x="79.1138"
       y="29.830927" /><rect
       style="fill:none;stroke:#666666;stroke-width:0.522397;stroke-opacity:1"
       id="rect77"
       width="9.856575"
       height="9.856575"
       x="79.1138"
       y="19.97435" /><rect
       style="fill:none;stroke:#666666;stroke-width:0.522397;stroke-opacity:1"
       id="rect78"
       width="9.856575"
       height="9.856575"
       x="79.1138"
       y="10.117776" /><rect
       style="fill:none;stroke:#666666;stroke-width:0.522397;stroke-opacity:1"
       id="rect79"
       width="9.856575"
       height="9.856575"
       x="79.1138"
       y="0.26120079" /><circle
       style="fill:#a02c2c;fill-opacity:1;stroke:none;stroke-width:0.522397"
       id="circle106"
       cx="19.974348"
       cy="39.687504"
       r="1.971315" /><circle
       style="fill:#a02c2c;fill-opacity:1;stroke:none;stroke-width:0.522397"
       id="circle105"
       cx="49.544075"
       cy="59.40065"
       r="1.971315" /><path
       d="m 134.02832,-78.480155 -2.51562,-6.4375 h -10.03125 l -2.53125,6.4375 h -3.09375 l 8.98437,-22.015625 h 3.39063 l 8.84375,22.015625 z m -7.53125,-19.765625 -0.14062,0.4375 q -0.39063,1.296875 -1.15625,3.328125 l -2.8125,7.234375 h 8.23437 l -2.82812,-7.265625 q -0.4375,-1.078125 -0.875,-2.4375 z"
       id="text1"
       style="font-size:32px;line-height:0.85;font-family:Arimo;-inkscape-font-specification:Arimo;text-align:center;text-anchor:middle;white-space:pre;stroke-width:1.88976"
       transform="matrix(0.26458333,0,0,0.26458333,40.724765,38.723088)"
       aria-label="A" /><path
       d="m 135.4502,-84.68328 q 0,2.9375 -2.14063,4.578125 -2.14062,1.625 -5.95312,1.625 h -8.9375 v -22.015625 h 8 q 7.75,0 7.75,5.34375 0,1.953125 -1.09375,3.28125 -1.09375,1.328125 -3.09375,1.78125 2.625,0.3125 4.04687,1.765625 1.42188,1.4375 1.42188,3.640625 z m -4.28125,-10.109375 q 0,-1.78125 -1.21875,-2.546875 -1.21875,-0.765625 -3.53125,-0.765625 h -5.01563 v 6.96875 h 5.01563 q 2.39062,0 3.5625,-0.890625 1.1875,-0.90625 1.1875,-2.765625 z m 1.26562,9.875 q 0,-3.890625 -5.46875,-3.890625 h -5.5625 v 7.9375 h 5.79688 q 2.73437,0 3.98437,-1.015625 1.25,-1.015625 1.25,-3.03125 z"
       id="text81"
       style="font-size:32px;line-height:0.85;font-family:Arimo;-inkscape-font-specification:Arimo;text-align:center;text-anchor:middle;white-space:pre;stroke-width:1.88976"
       transform="matrix(0.26458333,0,0,0.26458333,40.724765,86.877258)"
       aria-label="B" /><path
       d="m 136.48926,-89.71453 q 0,3.40625 -1.32813,5.96875 -1.32812,2.546875 -3.76562,3.90625 -2.4375,1.359375 -5.625,1.359375 h -8.23438 v -22.015625 h 7.28125 q 5.59375,0 8.625,2.8125 3.04688,2.796875 3.04688,7.96875 z m -3,0 q 0,-4.09375 -2.25,-6.234375 -2.23438,-2.15625 -6.48438,-2.15625 h -4.23437 v 17.234375 h 4.90625 q 2.42187,0 4.25,-1.0625 1.84375,-1.0625 2.82812,-3.0625 0.98438,-2 0.98438,-4.71875 z"
       id="text82"
       style="font-size:32px;line-height:0.85;font-family:Arimo;-inkscape-font-specification:Arimo;text-align:center;text-anchor:middle;white-space:pre;stroke-width:1.88976"
       transform="matrix(0.26458333,0,0,0.26458333,12.149762,87.406425)"
       aria-label="D" /><path
       style="fill:none;stroke:#800000;stroke-width:0.7;stroke-dasharray:none;marker-start:url(#Triangle);marker-end:url(#marker84)"
       d="M 69.257224,74.185512 V 15.046063"
       id="path83" /><circle
       style="fill:#a02c2c;fill-opacity:1;stroke:none;stroke-width:0.522397"
       id="circle104"
       cx="69.257225"
       cy="69.257233"
       r="1.971315" /><circle
       style="fill:#a02c2c;fill-opacity:1;stroke:none;stroke-width:0.522397"
       id="path2"
       cx="69.257225"
       cy="19.97435"
       r="1.971315" /></g></svg>
