<?xml version="1.0" encoding="UTF-8" standalone="no"?>
<!-- Created with Inkscape (http://www.inkscape.org/) -->

<svg
   width="604.94397"
   height="351.31601"
   viewBox="0 0 160.05808 92.952363"
   version="1.1"
   id="svg1"
   xml:space="preserve"
   inkscape:version="1.4 (e7c3feb100, 2024-10-09)"
   sodipodi:docname="s_6.svg"
   xmlns:inkscape="http://www.inkscape.org/namespaces/inkscape"
   xmlns:sodipodi="http://sodipodi.sourceforge.net/DTD/sodipodi-0.dtd"
   xmlns="http://www.w3.org/2000/svg"
   xmlns:svg="http://www.w3.org/2000/svg"><sodipodi:namedview
     id="namedview1"
     pagecolor="#ffffff"
     bordercolor="#000000"
     borderopacity="0.25"
     inkscape:showpageshadow="2"
     inkscape:pageopacity="0.0"
     inkscape:pagecheckerboard="0"
     inkscape:deskcolor="#d1d1d1"
     inkscape:document-units="mm"
     inkscape:zoom="0.80883417"
     inkscape:cx="480.32095"
     inkscape:cy="260.86929"
     inkscape:window-width="1336"
     inkscape:window-height="1032"
     inkscape:window-x="0"
     inkscape:window-y="0"
     inkscape:window-maximized="0"
     inkscape:current-layer="layer1" /><defs
     id="defs1"><rect
       x="32.884464"
       y="259.70294"
       width="188.03168"
       height="158.51997"
       id="rect11" /><marker
       style="overflow:visible"
       id="marker2"
       refX="0"
       refY="0"
       orient="auto-start-reverse"
       inkscape:stockid="Triangle arrow"
       markerWidth="1"
       markerHeight="1"
       viewBox="0 0 1 1"
       inkscape:isstock="true"
       inkscape:collect="always"
       preserveAspectRatio="xMidYMid"><path
         transform="scale(0.5)"
         style="fill:context-stroke;fill-rule:evenodd;stroke:context-stroke;stroke-width:1pt"
         d="M 5.77,0 -2.88,5 V -5 Z"
         id="path2" /></marker><marker
       style="overflow:visible"
       id="Triangle"
       refX="0"
       refY="0"
       orient="auto-start-reverse"
       inkscape:stockid="Triangle arrow"
       markerWidth="1"
       markerHeight="1"
       viewBox="0 0 1 1"
       inkscape:isstock="true"
       inkscape:collect="always"
       preserveAspectRatio="xMidYMid"><path
         transform="scale(0.5)"
         style="fill:context-stroke;fill-rule:evenodd;stroke:context-stroke;stroke-width:1pt"
         d="M 5.77,0 -2.88,5 V -5 Z"
         id="path135" /></marker><rect
       x="-250.24031"
       y="-100.90335"
       width="753.41168"
       height="707.66882"
       id="rect80" /><rect
       x="4.8075223"
       y="-21.468073"
       width="36.30508"
       height="36.139305"
       id="rect107" /><rect
       x="19.102777"
       y="68.280945"
       width="35.021755"
       height="31.743317"
       id="rect4" /><rect
       x="293.1767"
       y="529.15662"
       width="119.48974"
       height="52.215397"
       id="rect44" /><rect
       x="293.1767"
       y="529.15662"
       width="119.48974"
       height="52.215397"
       id="rect45" /><rect
       x="293.1767"
       y="529.15662"
       width="119.48974"
       height="52.215397"
       id="rect46" /><rect
       x="19.102777"
       y="68.280945"
       width="35.021755"
       height="31.743317"
       id="rect5" /><rect
       x="19.102777"
       y="68.280945"
       width="35.021755"
       height="31.743317"
       id="rect6" /><rect
       x="19.102777"
       y="68.280945"
       width="35.021755"
       height="31.743317"
       id="rect7" /><rect
       x="4.8075223"
       y="-21.468073"
       width="36.30508"
       height="36.139305"
       id="rect108" /><rect
       x="4.8075223"
       y="-21.468073"
       width="36.30508"
       height="36.139305"
       id="rect109" /><rect
       x="4.8075223"
       y="-21.468073"
       width="36.30508"
       height="36.139305"
       id="rect110" /><rect
       x="4.8075223"
       y="-21.468073"
       width="36.30508"
       height="36.139305"
       id="rect111" /><rect
       x="4.8075223"
       y="-21.468073"
       width="36.30508"
       height="36.139305"
       id="rect112" /><rect
       x="-250.24031"
       y="-100.90335"
       width="753.41168"
       height="707.66882"
       id="rect81" /><rect
       x="-250.24031"
       y="-100.90335"
       width="753.41168"
       height="707.66882"
       id="rect82" /><rect
       x="-250.24031"
       y="-100.90335"
       width="753.41168"
       height="707.66882"
       id="rect83" /><rect
       x="32.884464"
       y="259.70294"
       width="188.03168"
       height="158.51997"
       id="rect12" /><rect
       x="32.884464"
       y="259.70294"
       width="188.03168"
       height="158.51997"
       id="rect13" /><rect
       x="32.884464"
       y="259.70294"
       width="188.03168"
       height="158.51997"
       id="rect14" /><rect
       x="32.884464"
       y="259.70294"
       width="188.03168"
       height="158.51997"
       id="rect15" /><rect
       x="32.884464"
       y="259.70294"
       width="188.03168"
       height="158.51997"
       id="rect16" /><rect
       x="32.884464"
       y="259.70294"
       width="188.03168"
       height="158.51997"
       id="rect17" /><rect
       x="32.884464"
       y="259.70294"
       width="188.03168"
       height="158.51997"
       id="rect18" /><rect
       x="32.884464"
       y="259.70294"
       width="188.03168"
       height="158.51997"
       id="rect19" /><rect
       x="32.884464"
       y="259.70294"
       width="188.03168"
       height="158.51997"
       id="rect20" /></defs><g
     inkscape:label="Katman 1"
     inkscape:groupmode="layer"
     id="layer1"><g
       id="g20"
       transform="translate(-5.9428669,21.536283)"><path
         style="fill:none;stroke:#000000;stroke-width:0.7;marker-start:url(#Triangle);marker-end:url(#marker2)"
         d="M 8.4286192,60.686058 H 163.51522"
         id="path1" /><path
         style="fill:none;stroke:#000000;stroke-width:0.7;marker-start:url(#Triangle)"
         d="M 8.4286192,60.686058 H 89.431887"
         id="path3"
         sodipodi:nodetypes="cc"
         inkscape:transform-center-x="40.503368" /><path
         style="fill:none;stroke:#000000;stroke-width:0.7;marker-start:url(#Triangle)"
         d="M 48.93112,-9.4663306 89.432754,60.684557"
         id="path4"
         sodipodi:nodetypes="cc"
         inkscape:transform-center-x="20.251684"
         inkscape:transform-center-y="-35.076946" /><path
         style="fill:none;stroke:#000000;stroke-width:0.7;marker-start:url(#Triangle)"
         d="M 103.49999,-19.088295 89.433922,60.684351"
         id="path5"
         sodipodi:nodetypes="cc"
         inkscape:transform-center-x="-7.0333357"
         inkscape:transform-center-y="-39.888031" /><path
         style="fill:none;stroke:#000000;stroke-width:0.7;marker-start:url(#Triangle)"
         d="M 155.78903,14.223497 89.435041,60.685064"
         id="path6"
         sodipodi:nodetypes="cc"
         inkscape:transform-center-x="-33.178416"
         inkscape:transform-center-y="-23.231778" /><circle
         style="fill:#000000;stroke:none;stroke-width:0.7"
         id="path7"
         cx="17.518669"
         cy="60.686058"
         r="2" /><circle
         style="fill:#000000;stroke:none;stroke-width:0.7"
         id="circle7"
         cx="89.735863"
         cy="60.686058"
         r="2" /><circle
         style="fill:#000000;stroke:none;stroke-width:0.7"
         id="circle8"
         cx="156.41084"
         cy="60.686058"
         r="2" /><circle
         style="fill:#000000;stroke:none;stroke-width:0.7"
         id="circle9"
         cx="150.10693"
         cy="18.203476"
         r="2" /><circle
         style="fill:#000000;stroke:none;stroke-width:0.7"
         id="circle10"
         cx="102.14029"
         cy="-11.619055"
         r="2" /><circle
         style="fill:#000000;stroke:none;stroke-width:0.7"
         id="circle11"
         cx="52.734024"
         cy="-2.8950844"
         r="2" /><path
         style="fill:none;stroke:#000000;stroke-width:0.7;stroke-opacity:1"
         id="path11"
         sodipodi:type="arc"
         sodipodi:cx="89.735863"
         sodipodi:cy="60.686058"
         sodipodi:rx="16"
         sodipodi:ry="16"
         sodipodi:start="3.1494219"
         sodipodi:end="6.278304"
         sodipodi:arc-type="slice"
         d="M 73.736353,60.560791 A 16,16 0 0 1 89.759446,44.686075 16,16 0 0 1 105.73567,60.607957 l -15.999807,0.0781 z" /><path
         d="m 135.7233,285.8646 -2.93489,-7.51041 h -11.70312 l -2.95312,7.51041 h -3.60937 l 10.48176,-25.68487 h 3.95572 l 10.3177,25.68487 z m -8.78645,-23.05987 -0.16406,0.51041 q -0.45573,1.51302 -1.34896,3.88281 l -3.28125,8.4401 h 9.60676 l -3.29947,-8.47656 q -0.51042,-1.25781 -1.02083,-2.84375 z"
         id="text11"
         style="font-size:37.3333px;line-height:0.85;font-family:Arimo;-inkscape-font-specification:Arimo;text-align:center;text-anchor:middle;white-space:pre;stroke-width:2.64567"
         transform="matrix(0.26458333,0,0,0.26458333,-16.057059,-4.2188816)"
         aria-label="A" /><path
         d="m 137.38215,278.62763 q 0,3.42708 -2.49739,5.34114 -2.49739,1.89583 -6.94531,1.89583 h -10.42707 v -25.68487 h 9.33332 q 9.04166,0 9.04166,6.23437 0,2.27864 -1.27604,3.82812 -1.27604,1.54948 -3.60937,2.07812 3.0625,0.36459 4.72135,2.0599 1.65885,1.67708 1.65885,4.24739 z m -4.99478,-11.79426 q 0,-2.07813 -1.42188,-2.97135 -1.42187,-0.89323 -4.11979,-0.89323 h -5.85155 v 8.1302 h 5.85155 q 2.78906,0 4.15625,-1.03906 1.38542,-1.05729 1.38542,-3.22656 z m 1.47656,11.52082 q 0,-4.53906 -6.38021,-4.53906 h -6.48957 v 9.26041 h 6.76301 q 3.1901,0 4.64843,-1.18489 1.45834,-1.1849 1.45834,-3.53646 z"
         id="text12"
         style="font-size:37.3333px;line-height:0.85;font-family:Arimo;-inkscape-font-specification:Arimo;text-align:center;text-anchor:middle;white-space:pre;stroke-width:2.64567"
         transform="matrix(0.26458333,0,0,0.26458333,13.653568,-72.237113)"
         aria-label="B" /><path
         d="m 127.85742,262.64066 q -4.26562,0 -6.63541,2.7526 -2.36979,2.73438 -2.36979,7.51042 0,4.72135 2.46094,7.60155 2.47916,2.86198 6.69009,2.86198 5.39583,0 8.11198,-5.34114 l 2.84374,1.42187 q -1.58593,3.31771 -4.46614,5.04948 -2.86197,1.73176 -6.65364,1.73176 -3.88281,0 -6.72655,-1.60416 -2.82552,-1.6224 -4.32031,-4.61198 -1.47656,-3.00781 -1.47656,-7.10936 0,-6.14323 3.3177,-9.625 3.31771,-3.48176 9.18749,-3.48176 4.10156,0 6.85416,1.60416 2.75261,1.60417 4.04688,4.75781 l -3.29948,1.09375 q -0.89323,-2.24219 -2.88021,-3.42708 -1.96875,-1.1849 -4.68489,-1.1849 z"
         id="text13"
         style="font-size:37.3333px;line-height:0.85;font-family:Arimo;-inkscape-font-specification:Arimo;text-align:center;text-anchor:middle;white-space:pre;stroke-width:2.64567"
         transform="matrix(0.26458333,0,0,0.26458333,62.960629,-84.707389)"
         aria-label="C" /><path
         d="m 138.59439,272.75784 q 0,3.97396 -1.54948,6.96354 -1.54947,2.97135 -4.39322,4.55729 -2.84375,1.58593 -6.5625,1.58593 h -9.60676 v -25.68487 h 8.49479 q 6.52603,0 10.06249,3.28124 3.55468,3.26302 3.55468,9.29687 z m -3.5,0 q 0,-4.77604 -2.62499,-7.27343 -2.60677,-2.51562 -7.5651,-2.51562 h -4.9401 v 20.10675 h 5.72395 q 2.82552,0 4.95833,-1.23958 2.15104,-1.23958 3.29948,-3.57291 1.14843,-2.33334 1.14843,-5.50521 z"
         id="text14"
         style="font-size:37.3333px;line-height:0.85;font-family:Arimo;-inkscape-font-specification:Arimo;text-align:center;text-anchor:middle;white-space:pre;stroke-width:2.64567"
         transform="matrix(0.26458333,0,0,0.26458333,111.34071,-59.527995)"
         aria-label="D" /><path
         d="m 117.51238,285.8646 v -25.68487 h 19.48696 v 2.84375 h -16.00519 v 8.23957 h 14.91144 v 2.80729 h -14.91144 v 8.95051 h 16.75259 v 2.84375 z"
         id="text15"
         style="font-size:37.3333px;line-height:0.85;font-family:Arimo;-inkscape-font-specification:Arimo;text-align:center;text-anchor:middle;white-space:pre;stroke-width:2.64567"
         transform="matrix(0.26458333,0,0,0.26458333,122.66631,-4.9821172)"
         aria-label="E" /><path
         d="m 139.63345,272.90368 q 0,4.02864 -1.54948,7.05468 -1.53124,3.02604 -4.41145,4.64843 -2.88021,1.62239 -6.79947,1.62239 -3.95573,0 -6.83593,-1.60416 -2.86198,-1.60417 -4.375,-4.63021 -1.51302,-3.04426 -1.51302,-7.09113 0,-6.16146 3.37239,-9.625 3.3724,-3.48176 9.38802,-3.48176 3.91926,0 6.79947,1.5677 2.8802,1.54948 4.39322,4.52083 1.53125,2.97135 1.53125,7.01823 z m -3.55468,0 q 0,-4.79427 -2.40625,-7.52864 -2.38802,-2.73438 -6.76301,-2.73438 -4.41146,0 -6.81771,2.69792 -2.40625,2.69791 -2.40625,7.5651 0,4.83072 2.42448,7.67447 2.44271,2.82552 6.76302,2.82552 4.44791,0 6.8177,-2.73438 2.38802,-2.7526 2.38802,-7.76561 z"
         id="text16"
         style="font-size:37.3333px;line-height:0.85;font-family:Arimo;-inkscape-font-specification:Arimo;text-align:center;text-anchor:middle;white-space:pre;stroke-width:2.64567"
         transform="matrix(0.26458333,0,0,0.26458333,55.96721,-4.9821172)"
         aria-label="O" /><path
         d="m 117.79493,277.46096 q 0,4.0651 -2.20573,6.41666 -2.20572,2.35156 -6.08853,2.35156 -4.33854,0 -6.63542,-3.22656 -2.29687,-3.22655 -2.29687,-9.38801 0,-6.67187 2.38802,-10.24478 2.38802,-3.57291 6.79947,-3.57291 5.8151,0 7.32812,5.23176 l -3.13541,0.56511 q -0.96615,-3.13542 -4.22916,-3.13542 -2.80729,0 -4.35677,2.625 -1.53125,2.60677 -1.53125,7.5651 0.89323,-1.65886 2.51562,-2.51563 1.6224,-0.875 3.71875,-0.875 3.55468,0 5.63281,2.22396 2.09635,2.22396 2.09635,5.97916 z m -3.33594,0.14584 q 0,-2.78906 -1.36718,-4.30208 -1.36719,-1.51302 -3.80989,-1.51302 -2.29688,0 -3.71875,1.34895 -1.40365,1.33073 -1.40365,3.68229 0,2.97135 1.45834,4.86719 1.47656,1.89583 3.77343,1.89583 2.36979,0 3.71875,-1.58594 1.34895,-1.60416 1.34895,-4.39322 z m 24.28123,-4.59375 q 0,6.43489 -2.27864,9.82551 -2.26042,3.39062 -6.6901,3.39062 -4.42968,0 -6.65364,-3.37239 -2.22396,-3.37239 -2.22396,-9.84374 0,-6.61718 2.15104,-9.91666 2.16927,-3.29947 6.83594,-3.29947 4.53905,0 6.69009,3.33593 2.16927,3.33593 2.16927,9.8802 z m -3.33593,0 q 0,-5.55989 -1.29427,-8.05728 -1.27604,-2.4974 -4.22916,-2.4974 -3.02604,0 -4.35677,2.46094 -1.3125,2.46093 -1.3125,8.09374 0,5.46875 1.33073,8.0026 1.34896,2.53385 4.26562,2.53385 2.89843,0 4.24739,-2.58854 1.34896,-2.58854 1.34896,-7.94791 z m 17.48175,-8.02083 q 0,2.16927 -1.54947,3.68229 -1.53125,1.51302 -3.68229,1.51302 -2.15104,0 -3.70052,-1.53125 -1.53125,-1.53125 -1.53125,-3.66406 0,-2.13281 1.51302,-3.66406 1.53125,-1.53124 3.71875,-1.53124 2.1875,0 3.70052,1.51302 1.53124,1.51301 1.53124,3.68228 z m -1.98697,0 q 0,-1.38541 -0.94792,-2.33333 -0.92969,-0.94791 -2.29687,-0.94791 -1.36719,0 -2.3151,0.96614 -0.92969,0.96615 -0.92969,2.3151 0,1.34896 0.94791,2.31511 0.96615,0.96614 2.29688,0.96614 1.34895,0 2.29687,-0.94792 0.94792,-0.96614 0.94792,-2.33333 z"
         id="text17"
         style="font-size:37.3333px;line-height:0.85;font-family:Arimo;-inkscape-font-specification:Arimo;text-align:center;text-anchor:middle;white-space:pre;stroke-width:2.64567"
         transform="matrix(0.26458333,0,0,0.26458333,35.504412,-22.502501)"
         aria-label="60°" /><path
         d="m 114.73243,280.0495 v 5.8151 h -3.09895 v -5.8151 H 99.52932 v -2.55208 l 11.7578,-17.31769 h 3.44531 v 17.28123 h 3.60937 v 2.58854 z m -3.09895,-16.16925 q -0.0365,0.10937 -0.51042,0.96614 -0.47396,0.85677 -0.71094,1.20312 l -6.58072,9.69791 -0.98437,1.34896 -0.29167,0.36458 h 9.07812 z m 27.10674,9.1328 q 0,6.43489 -2.27864,9.82551 -2.26042,3.39062 -6.6901,3.39062 -4.42968,0 -6.65364,-3.37239 -2.22396,-3.37239 -2.22396,-9.84374 0,-6.61718 2.15104,-9.91666 2.16927,-3.29947 6.83594,-3.29947 4.53905,0 6.69009,3.33593 2.16927,3.33593 2.16927,9.8802 z m -3.33593,0 q 0,-5.55989 -1.29427,-8.05728 -1.27604,-2.4974 -4.22916,-2.4974 -3.02604,0 -4.35677,2.46094 -1.3125,2.46093 -1.3125,8.09374 0,5.46875 1.33073,8.0026 1.34896,2.53385 4.26562,2.53385 2.89843,0 4.24739,-2.58854 1.34896,-2.58854 1.34896,-7.94791 z m 17.48175,-8.02083 q 0,2.16927 -1.54947,3.68229 -1.53125,1.51302 -3.68229,1.51302 -2.15104,0 -3.70052,-1.53125 -1.53125,-1.53125 -1.53125,-3.66406 0,-2.13281 1.51302,-3.66406 1.53125,-1.53124 3.71875,-1.53124 2.1875,0 3.70052,1.51302 1.53124,1.51301 1.53124,3.68228 z m -1.98697,0 q 0,-1.38541 -0.94792,-2.33333 -0.92969,-0.94791 -2.29687,-0.94791 -1.36719,0 -2.3151,0.96614 -0.92969,0.96615 -0.92969,2.3151 0,1.34896 0.94791,2.31511 0.96615,0.96614 2.29688,0.96614 1.34895,0 2.29687,-0.94792 0.94792,-0.96614 0.94792,-2.33333 z"
         id="text18"
         style="font-size:37.3333px;line-height:0.85;font-family:Arimo;-inkscape-font-specification:Arimo;text-align:center;text-anchor:middle;white-space:pre;stroke-width:2.64567"
         transform="matrix(0.26458333,0,0,0.26458333,52.442012,-34.820787)"
         aria-label="40°" /><path
         d="m 114.73243,280.0495 v 5.8151 h -3.09895 v -5.8151 H 99.52932 v -2.55208 l 11.7578,-17.31769 h 3.44531 v 17.28123 h 3.60937 v 2.58854 z m -3.09895,-16.16925 q -0.0365,0.10937 -0.51042,0.96614 -0.47396,0.85677 -0.71094,1.20312 l -6.58072,9.69791 -0.98437,1.34896 -0.29167,0.36458 h 9.07812 z m 26.99737,13.61717 q 0,4.0651 -2.42448,6.39843 -2.40625,2.33333 -6.6901,2.33333 -3.59114,0 -5.79687,-1.5677 -2.20572,-1.56771 -2.78906,-4.53906 l 3.31771,-0.38281 q 1.03906,3.80989 5.34114,3.80989 2.64323,0 4.13802,-1.58594 1.49479,-1.60416 1.49479,-4.39322 0,-2.42448 -1.51302,-3.91927 -1.49479,-1.49479 -4.04687,-1.49479 -1.33073,0 -2.47917,0.41927 -1.14843,0.41927 -2.29687,1.42187 h -3.20833 l 0.85677,-13.81769 h 14.60155 v 2.78906 h -11.61197 l -0.49219,8.14843 q 2.13281,-1.64063 5.30468,-1.64063 3.79167,0 6.03385,2.22396 2.26042,2.22396 2.26042,5.79687 z m 14.25519,-12.5052 q 0,2.16927 -1.54947,3.68229 -1.53125,1.51302 -3.68229,1.51302 -2.15104,0 -3.70052,-1.53125 -1.53125,-1.53125 -1.53125,-3.66406 0,-2.13281 1.51302,-3.66406 1.53125,-1.53124 3.71875,-1.53124 2.1875,0 3.70052,1.51302 1.53124,1.51301 1.53124,3.68228 z m -1.98697,0 q 0,-1.38541 -0.94792,-2.33333 -0.92969,-0.94791 -2.29687,-0.94791 -1.36719,0 -2.3151,0.96614 -0.92969,0.96615 -0.92969,2.3151 0,1.34896 0.94791,2.31511 0.96615,0.96614 2.29688,0.96614 1.34895,0 2.29687,-0.94792 0.94792,-0.96614 0.94792,-2.33333 z"
         id="text19"
         style="font-size:37.3333px;line-height:0.85;font-family:Arimo;-inkscape-font-specification:Arimo;text-align:center;text-anchor:middle;white-space:pre;stroke-width:2.64567"
         transform="matrix(0.26458333,0,0,0.26458333,70.433681,-31.116618)"
         aria-label="45°" /><path
         d="m 117.79493,278.77346 q 0,3.55469 -2.26042,5.50521 -2.26041,1.95051 -6.45311,1.95051 -3.90104,0 -6.23437,-1.74999 -2.31511,-1.76823 -2.75261,-5.21354 l 3.39063,-0.3099 q 0.65625,4.55729 5.59635,4.55729 2.47916,0 3.8828,-1.22135 1.42188,-1.22136 1.42188,-3.6276 0,-2.09636 -1.6224,-3.26302 -1.60416,-1.1849 -4.64843,-1.1849 h -1.85937 v -2.84374 h 1.78645 q 2.69792,0 4.17448,-1.16667 1.49479,-1.18489 1.49479,-3.26302 0,-2.05989 -1.22135,-3.24479 -1.20313,-1.20312 -3.59115,-1.20312 -2.16927,0 -3.51822,1.11198 -1.33073,1.11198 -1.54948,3.13541 l -3.29948,-0.25521 q 0.36459,-3.15364 2.60677,-4.92187 2.26042,-1.76822 5.79687,-1.76822 3.86458,0 5.99739,1.80468 2.15104,1.78646 2.15104,4.99479 0,2.46093 -1.38541,4.01041 -1.36719,1.53125 -3.99219,2.07813 v 0.0729 q 2.88021,0.3099 4.48437,1.93229 1.60417,1.6224 1.60417,4.08333 z m 20.83592,-1.27604 q 0,4.0651 -2.42448,6.39843 -2.40625,2.33333 -6.6901,2.33333 -3.59114,0 -5.79687,-1.5677 -2.20572,-1.56771 -2.78906,-4.53906 l 3.31771,-0.38281 q 1.03906,3.80989 5.34114,3.80989 2.64323,0 4.13802,-1.58594 1.49479,-1.60416 1.49479,-4.39322 0,-2.42448 -1.51302,-3.91927 -1.49479,-1.49479 -4.04687,-1.49479 -1.33073,0 -2.47917,0.41927 -1.14843,0.41927 -2.29687,1.42187 h -3.20833 l 0.85677,-13.81769 h 14.60155 v 2.78906 h -11.61197 l -0.49219,8.14843 q 2.13281,-1.64063 5.30468,-1.64063 3.79167,0 6.03385,2.22396 2.26042,2.22396 2.26042,5.79687 z m 14.25519,-12.5052 q 0,2.16927 -1.54947,3.68229 -1.53125,1.51302 -3.68229,1.51302 -2.15104,0 -3.70052,-1.53125 -1.53125,-1.53125 -1.53125,-3.66406 0,-2.13281 1.51302,-3.66406 1.53125,-1.53124 3.71875,-1.53124 2.1875,0 3.70052,1.51302 1.53124,1.51301 1.53124,3.68228 z m -1.98697,0 q 0,-1.38541 -0.94792,-2.33333 -0.92969,-0.94791 -2.29687,-0.94791 -1.36719,0 -2.3151,0.96614 -0.92969,0.96615 -0.92969,2.3151 0,1.34896 0.94791,2.31511 0.96615,0.96614 2.29688,0.96614 1.34895,0 2.29687,-0.94792 0.94792,-0.96614 0.94792,-2.33333 z"
         id="text20"
         style="font-size:37.3333px;line-height:0.85;font-family:Arimo;-inkscape-font-specification:Arimo;text-align:center;text-anchor:middle;white-space:pre;stroke-width:2.64567"
         transform="matrix(0.26458333,0,0,0.26458333,82.075349,-17.887449)"
         aria-label="35°" /></g></g></svg>
