<?xml version="1.0" encoding="UTF-8" standalone="no"?>
<!-- Created with Inkscape (http://www.inkscape.org/) -->

<svg
   width="520.23297"
   height="212.271"
   viewBox="0 0 137.64497 56.16337"
   version="1.1"
   id="svg1"
   xml:space="preserve"
   inkscape:version="1.4 (e7c3feb100, 2024-10-09)"
   sodipodi:docname="s_9.svg"
   xmlns:inkscape="http://www.inkscape.org/namespaces/inkscape"
   xmlns:sodipodi="http://sodipodi.sourceforge.net/DTD/sodipodi-0.dtd"
   xmlns="http://www.w3.org/2000/svg"
   xmlns:svg="http://www.w3.org/2000/svg"><sodipodi:namedview
     id="namedview1"
     pagecolor="#ffffff"
     bordercolor="#000000"
     borderopacity="0.25"
     inkscape:showpageshadow="2"
     inkscape:pageopacity="0.0"
     inkscape:pagecheckerboard="0"
     inkscape:deskcolor="#d1d1d1"
     inkscape:document-units="mm"
     inkscape:zoom="1.3556024"
     inkscape:cx="214.29588"
     inkscape:cy="227.94295"
     inkscape:window-width="1336"
     inkscape:window-height="1032"
     inkscape:window-x="0"
     inkscape:window-y="0"
     inkscape:window-maximized="0"
     inkscape:current-layer="layer1" /><defs
     id="defs1"><rect
       x="0"
       y="49.188309"
       width="416.01639"
       height="206.75764"
       id="rect1" /><rect
       x="218.24092"
       y="124.96783"
       width="156.66257"
       height="107.58867"
       id="rect3" /><rect
       x="32.884464"
       y="259.70294"
       width="188.03168"
       height="158.51997"
       id="rect11" /><rect
       x="-250.24031"
       y="-100.90335"
       width="753.41168"
       height="707.66882"
       id="rect80" /><rect
       x="4.8075223"
       y="-21.468073"
       width="36.30508"
       height="36.139305"
       id="rect107" /><rect
       x="19.102777"
       y="68.280945"
       width="35.021755"
       height="31.743317"
       id="rect4" /><rect
       x="293.1767"
       y="529.15662"
       width="119.48974"
       height="52.215397"
       id="rect44" /><rect
       x="293.1767"
       y="529.15662"
       width="119.48974"
       height="52.215397"
       id="rect45" /><rect
       x="293.1767"
       y="529.15662"
       width="119.48974"
       height="52.215397"
       id="rect46" /><rect
       x="19.102777"
       y="68.280945"
       width="35.021755"
       height="31.743317"
       id="rect5" /><rect
       x="19.102777"
       y="68.280945"
       width="35.021755"
       height="31.743317"
       id="rect6" /><rect
       x="19.102777"
       y="68.280945"
       width="35.021755"
       height="31.743317"
       id="rect7" /><rect
       x="4.8075223"
       y="-21.468073"
       width="36.30508"
       height="36.139305"
       id="rect108" /><rect
       x="4.8075223"
       y="-21.468073"
       width="36.30508"
       height="36.139305"
       id="rect109" /><rect
       x="4.8075223"
       y="-21.468073"
       width="36.30508"
       height="36.139305"
       id="rect110" /><rect
       x="4.8075223"
       y="-21.468073"
       width="36.30508"
       height="36.139305"
       id="rect111" /><rect
       x="4.8075223"
       y="-21.468073"
       width="36.30508"
       height="36.139305"
       id="rect112" /><rect
       x="-250.24031"
       y="-100.90335"
       width="753.41168"
       height="707.66882"
       id="rect81" /><rect
       x="-250.24031"
       y="-100.90335"
       width="753.41168"
       height="707.66882"
       id="rect82" /><rect
       x="-250.24031"
       y="-100.90335"
       width="753.41168"
       height="707.66882"
       id="rect83" /><rect
       x="32.884464"
       y="259.70294"
       width="188.03168"
       height="158.51997"
       id="rect12" /><rect
       x="32.884464"
       y="259.70294"
       width="188.03168"
       height="158.51997"
       id="rect13" /><rect
       x="32.884464"
       y="259.70294"
       width="188.03168"
       height="158.51997"
       id="rect14" /><rect
       x="32.884464"
       y="259.70294"
       width="188.03168"
       height="158.51997"
       id="rect15" /><rect
       x="32.884464"
       y="259.70294"
       width="188.03168"
       height="158.51997"
       id="rect16" /><rect
       x="32.884464"
       y="259.70294"
       width="188.03168"
       height="158.51997"
       id="rect17" /><rect
       x="32.884464"
       y="259.70294"
       width="188.03168"
       height="158.51997"
       id="rect18" /><rect
       x="32.884464"
       y="259.70294"
       width="188.03168"
       height="158.51997"
       id="rect19" /><rect
       x="32.884464"
       y="259.70294"
       width="188.03168"
       height="158.51997"
       id="rect20" /><rect
       x="218.24092"
       y="124.96783"
       width="156.66257"
       height="107.58867"
       id="rect8" /><rect
       x="218.24092"
       y="124.96783"
       width="156.66257"
       height="107.58867"
       id="rect9" /><rect
       x="218.24092"
       y="124.96783"
       width="156.66257"
       height="107.58867"
       id="rect10" /><rect
       x="218.24092"
       y="124.96783"
       width="156.66257"
       height="107.58867"
       id="rect21" /><rect
       x="218.24092"
       y="124.96783"
       width="156.66257"
       height="107.58867"
       id="rect22" /><rect
       x="0"
       y="49.188309"
       width="416.01639"
       height="206.75764"
       id="rect2" /><rect
       x="0"
       y="49.188309"
       width="416.01639"
       height="206.75764"
       id="rect23" /></defs><g
     inkscape:label="Katman 1"
     inkscape:groupmode="layer"
     id="layer1"><path
       id="path24"
       style="fill:#ff8080;stroke:#000000;stroke-width:0.7;stroke-opacity:1"
       d="M 68.822309,0.4399245 47.975001,16.314924 V 55.813288 H 89.669616 V 16.314924 Z m 0,10.9321495 a 5,5 0 0 1 5.000211,5.000211 5,5 0 0 1 -5.000211,4.999695 5,5 0 0 1 -5.000212,-4.999695 5,5 0 0 1 5.000212,-5.000211 z" /><path
       id="path25"
       style="fill:#87de87;stroke:#000000;stroke-width:0.7;stroke-opacity:1"
       d="M 116.44731,0.4399245 95.600004,16.314924 V 55.813288 H 137.29463 V 16.314924 Z m 0,10.9321495 a 5,5 0 0 1 5.00021,5.000211 5,5 0 0 1 -5.00021,4.999695 5,5 0 0 1 -5.00021,-4.999695 5,5 0 0 1 5.00021,-5.000211 z" /><path
       id="rect24"
       style="fill:#ffe680;stroke:#000000;stroke-width:0.7;stroke-opacity:1"
       d="M 21.197307,0.4399245 0.34999999,16.314924 V 55.813288 H 42.044613 V 16.314924 Z m 0,10.9321495 a 5,5 0 0 1 5.000211,5.000211 5,5 0 0 1 -5.000211,4.999695 5,5 0 0 1 -5.000212,-4.999695 5,5 0 0 1 5.000212,-5.000211 z" /><path
       style="font-weight:bold;font-size:37.3333px;line-height:0.85;font-family:Arimo;-inkscape-font-specification:Arimo;text-align:center;text-anchor:middle;white-space:pre;stroke-width:0.7"
       d="m 55.604523,36.671483 q 0,0.954979 -0.627007,1.475877 -0.627007,0.520898 -1.784556,0.520898 -1.094851,0 -1.741152,-0.501605 -0.646297,-0.506429 -0.757232,-1.456585 l 1.379416,-0.120579 q 0.130225,0.979096 1.114144,0.979096 0.487135,0 0.75723,-0.241157 0.270097,-0.241156 0.270097,-0.737939 0,-0.453374 -0.327975,-0.69453 -0.327972,-0.241157 -0.974272,-0.241157 h -0.472665 v -1.09485 h 0.443727 q 0.5836,0 0.877808,-0.236334 0.294212,-0.241156 0.294212,-0.684884 0,-0.419612 -0.236334,-0.655946 -0.231508,-0.241156 -0.680061,-0.241156 -0.419611,0 -0.680061,0.23151 -0.255625,0.23151 -0.294209,0.655946 l -1.355302,-0.09646 q 0.106111,-0.877809 0.728295,-1.374592 0.622184,-0.496782 1.625394,-0.496782 1.065911,0 1.66398,0.482313 0.60289,0.47749 0.60289,1.32636 0,0.636654 -0.376203,1.04662 -0.371382,0.409966 -1.075558,0.545013 v 0.01929 q 0.781347,0.09164 1.20096,0.516074 0.424434,0.419613 0.424434,1.075559 z m 5.445313,-1.514463 q 0,1.721857 -0.593244,2.609313 -0.588422,0.887456 -1.770089,0.887456 -2.334394,0 -2.334394,-3.496769 0,-1.220252 0.255624,-1.991953 0.255627,-0.7717 0.766879,-1.138258 0.511252,-0.366558 1.350476,-0.366558 1.205783,0 1.765265,0.872986 0.559483,0.872987 0.559483,2.623783 z m -1.360123,0 q 0,-0.94051 -0.09164,-1.461408 -0.09164,-0.520898 -0.294211,-0.747585 -0.202573,-0.226687 -0.588423,-0.226687 -0.409967,0 -0.622184,0.23151 -0.207393,0.226687 -0.299034,0.747585 -0.08682,0.516075 -0.08682,1.456585 0,0.930864 0.09164,1.456585 0.09646,0.520898 0.299035,0.747585 0.207393,0.226687 0.598069,0.226687 0.38585,0 0.593244,-0.236333 0.212217,-0.241157 0.303858,-0.766878 0.09646,-0.525721 0.09646,-1.427646 z m 2.38745,3.400306 v -1.008034 h 1.683271 v -4.635027 l -1.630217,1.01768 v -1.065912 l 1.702565,-1.104496 h 1.282953 v 5.787755 h 1.55787 v 1.008034 z m 10.089988,-2.262048 q 0,1.080382 -0.67524,1.721858 -0.670415,0.636653 -1.842434,0.636653 -1.022504,0 -1.639864,-0.458198 -0.612539,-0.46302 -0.757232,-1.336007 l 1.355299,-0.110931 q 0.106108,0.434081 0.376206,0.63183 0.270094,0.197748 0.680061,0.197748 0.506428,0 0.80546,-0.32315 0.303858,-0.323149 0.303858,-0.930864 0,-0.535367 -0.284564,-0.853694 -0.284565,-0.323149 -0.795817,-0.323149 -0.564306,0 -0.921218,0.438904 H 67.45013 l 0.236332,-3.824741 h 4.08519 v 1.008034 h -2.855291 l -0.110932,1.717034 q 0.491959,-0.434082 1.229897,-0.434082 0.96945,0 1.548226,0.602891 0.583599,0.602891 0.583599,1.639864 z m 6.747555,-3.434068 v 5.696116 H 77.491883 V 32.86121 H 75.29736 v -1.099673 h 5.816692 v 1.099673 z m 2.966225,5.696116 v -6.795789 h 1.422824 v 5.696116 h 3.646286 v 1.099673 z"
       id="text1"
       aria-label="3015 TL" /><path
       style="font-weight:bold;font-size:37.3333px;line-height:0.85;font-family:Arimo;-inkscape-font-specification:Arimo;text-align:center;text-anchor:middle;white-space:pre;stroke-width:0.7"
       d="m 98.377462,38.557326 v -0.94051 q 0.265274,-0.583599 0.752409,-1.138259 0.491961,-0.55466 1.234719,-1.157551 0.71383,-0.578775 0.99839,-0.954979 0.28939,-0.376205 0.28939,-0.737939 0,-0.887456 -0.89228,-0.887456 -0.43408,0 -0.66559,0.236333 -0.22669,0.231511 -0.294214,0.699354 l -1.364946,-0.07717 q 0.115755,-0.945333 0.704178,-1.442116 0.593246,-0.496782 1.610922,-0.496782 1.09968,0 1.6881,0.501605 0.58842,0.501606 0.58842,1.408354 0,0.47749 -0.1881,0.86334 -0.1881,0.385851 -0.48232,0.713824 -0.2942,0.323149 -0.65594,0.607714 -0.35691,0.284565 -0.69453,0.55466 -0.33762,0.270095 -0.61736,0.545013 -0.27492,0.274919 -0.409968,0.588422 h 3.154328 v 1.114143 z m 5.493548,0 v -0.94051 q 0.26527,-0.583599 0.7524,-1.138259 0.49197,-0.55466 1.23473,-1.157551 0.71382,-0.578775 0.99838,-0.954979 0.28939,-0.376205 0.28939,-0.737939 0,-0.887456 -0.89228,-0.887456 -0.43408,0 -0.66559,0.236333 -0.22669,0.231511 -0.29421,0.699354 l -1.36494,-0.07717 q 0.11575,-0.945333 0.70417,-1.442116 0.59325,-0.496782 1.61093,-0.496782 1.09967,0 1.68809,0.501605 0.58842,0.501606 0.58842,1.408354 0,0.47749 -0.1881,0.86334 -0.1881,0.385851 -0.48231,0.713824 -0.29421,0.323149 -0.65595,0.607714 -0.35691,0.284565 -0.69453,0.55466 -0.33762,0.270095 -0.61736,0.545013 -0.27492,0.274919 -0.40996,0.588422 h 3.15432 v 1.114143 z m 10.2395,-3.400306 q 0,1.721857 -0.59324,2.609313 -0.58843,0.887456 -1.77009,0.887456 -2.3344,0 -2.3344,-3.496769 0,-1.220252 0.25563,-1.991953 0.25562,-0.7717 0.76688,-1.138258 0.51125,-0.366558 1.35047,-0.366558 1.20579,0 1.76527,0.872986 0.55948,0.872987 0.55948,2.623783 z m -1.36012,0 q 0,-0.94051 -0.0916,-1.461408 -0.0916,-0.520898 -0.29421,-0.747585 -0.20257,-0.226687 -0.58842,-0.226687 -0.40997,0 -0.62219,0.23151 -0.20739,0.226687 -0.29903,0.747585 -0.0868,0.516075 -0.0868,1.456585 0,0.930864 0.0916,1.456585 0.0965,0.520898 0.29904,0.747585 0.20739,0.226687 0.59806,0.226687 0.38585,0 0.59325,-0.236333 0.21222,-0.241157 0.30386,-0.766878 0.0965,-0.525721 0.0965,-1.427646 z m 6.29901,2.016068 v 1.384238 h -1.2926 v -1.384238 h -3.09163 v -1.01768 l 2.86976,-4.393871 h 1.51447 v 4.403517 h 0.90675 v 1.008034 z m -1.2926,-3.231497 q 0,-0.260449 0.0145,-0.564306 0.0193,-0.303857 0.0289,-0.390673 -0.1254,0.270095 -0.45337,0.781347 l -1.57717,2.397095 h 1.98713 z m 8.72504,-1.080381 v 5.696116 h -1.42283 V 32.86121 h -2.19452 v -1.099673 h 5.81669 v 1.099673 z m 2.96622,5.696116 v -6.795789 h 1.42283 v 5.696116 h 3.64628 v 1.099673 z"
       id="text2"
       aria-label="2204 TL" /><path
       style="font-weight:bold;font-size:37.3333px;line-height:0.85;font-family:Arimo;-inkscape-font-specification:Arimo;text-align:center;text-anchor:middle;white-space:pre;stroke-width:2.64567"
       d="m 140.84251,75.348977 v -3.809893 h 6.36197 V 54.02087 l -6.16145,3.846351 v -4.028643 l 6.43489,-4.174475 h 4.84895 v 21.874981 h 5.88802 v 3.809893 z m 19.70571,0 v -3.554685 q 1.0026,-2.205727 2.84374,-4.30208 1.85938,-2.096352 4.66667,-4.374996 2.69791,-2.187498 3.77343,-3.609372 1.09375,-1.421874 1.09375,-2.78906 0,-3.354164 -3.37239,-3.354164 -1.64063,0 -2.51563,0.893229 -0.85677,0.874999 -1.11197,2.643227 l -5.15885,-0.291667 q 0.4375,-3.572913 2.66145,-5.450516 2.24219,-1.877603 6.08854,-1.877603 4.15625,0 6.3802,1.895832 2.22396,1.895832 2.22396,5.322912 0,1.804686 -0.71094,3.263018 -0.71094,1.458332 -1.82291,2.697915 -1.11198,1.221353 -2.47917,2.296873 -1.34896,1.07552 -2.625,2.096352 -1.27604,1.020833 -2.33333,2.059894 -1.03906,1.039062 -1.54948,2.223957 h 11.92187 v 4.210934 z M 199.2487,62.497425 q 0,6.507807 -2.24218,9.861971 -2.22396,3.354164 -6.6901,3.354164 -8.82291,0 -8.82291,-13.216135 0,-4.611975 0.96615,-7.528639 0.96614,-2.916665 2.89843,-4.30208 1.93229,-1.385416 5.10416,-1.385416 4.55729,0 6.67187,3.299477 2.11458,3.299476 2.11458,9.916658 z m -5.14062,0 q 0,-3.554684 -0.34635,-5.523433 -0.34635,-1.968748 -1.11198,-2.825518 -0.76562,-0.85677 -2.22396,-0.85677 -1.54947,0 -2.35156,0.874999 -0.78385,0.85677 -1.1302,2.825518 -0.32813,1.95052 -0.32813,5.505204 0,3.518226 0.34636,5.505204 0.36458,1.968748 1.1302,2.825518 0.78386,0.85677 2.26042,0.85677 1.45833,0 2.24218,-0.893228 0.80209,-0.911458 1.14844,-2.898435 0.36458,-1.986978 0.36458,-5.395829 z m 25.90363,0 q 0,6.507807 -2.24219,9.861971 -2.22395,3.354164 -6.6901,3.354164 -8.82291,0 -8.82291,-13.216135 0,-4.611975 0.96615,-7.528639 0.96614,-2.916665 2.89843,-4.30208 1.9323,-1.385416 5.10417,-1.385416 4.55729,0 6.67187,3.299477 2.11458,3.299476 2.11458,9.916658 z m -5.14062,0 q 0,-3.554684 -0.34636,-5.523433 -0.34635,-1.968748 -1.11197,-2.825518 -0.76563,-0.85677 -2.22396,-0.85677 -1.54948,0 -2.35156,0.874999 -0.78385,0.85677 -1.13021,2.825518 -0.32812,1.95052 -0.32812,5.505204 0,3.518226 0.34635,5.505204 0.36458,1.968748 1.13021,2.825518 0.78385,0.85677 2.26041,0.85677 1.45833,0 2.24219,-0.893228 0.80208,-0.911458 1.14843,-2.898435 0.36459,-1.986978 0.36459,-5.395829 z m 31.13538,-8.677076 v 21.528628 h -5.3776 V 53.820349 h -8.29426 v -4.156246 h 21.98435 v 4.156246 z M 257.2174,75.348977 V 49.664103 h 5.3776 V 71.19273 h 13.78124 v 4.156247 z"
       id="text3"
       transform="matrix(0.26458333,0,0,0.26458333,-33.99726,18.621243)"
       aria-label="1200 TL" /></g></svg>
